<?xml version="1.0" encoding="UTF-8"?>
<svg id="Layer_1" data-name="Layer 1" xmlns="http://www.w3.org/2000/svg" xmlns:xlink="http://www.w3.org/1999/xlink" viewBox="0 0 270 194">
  <defs>
    <style>
      .cls-1 {
        mask: url(#mask);
      }

      .cls-2 {
        fill: #ffd3ee;
      }

      .cls-3 {
        fill: #ffc2e7;
      }

      .cls-4 {
        fill: #ffceeb;
        fill-rule: evenodd;
      }
    </style>
    <mask id="mask" x="-.26" y=".7" width="276.88" height="223.95" maskUnits="userSpaceOnUse">
      <g id="mask0_36_1255" data-name="mask0 36 1255">
        <path class="cls-4" d="m141.24.7c19.12,0,35.69,11.04,43.81,27.16,1.75-.19,3.53-.29,5.32-.29,24.68,0,45.1,18.39,48.6,42.36.31,0,.62-.01.93-.01,16.68,0,30.2,13.67,30.2,30.54s-13.52,30.54-30.2,30.54c-.19,0-.38,0-.57,0-2.05,25.53-23.19,45.61-48.97,45.61-4.98,0-9.79-.75-14.32-2.14-8.99,11.71-23.04,19.24-38.84,19.24s-30.92-8.12-39.84-20.6c-5.61,2.26-11.74,3.5-18.15,3.5-25.78,0-46.92-20.07-48.97-45.6-16.57-.13-29.96-13.75-29.96-30.54s13.52-30.54,30.2-30.54h.13c3.5-23.96,23.93-42.35,48.6-42.35,5.95,0,11.65,1.07,16.93,3.03C103.71,13.01,121.05.7,141.24.7Z"/>
      </g>
    </mask>
  </defs>
  <g class="cls-1">
    <g>
      <path class="cls-2" d="m140.97.7c19.16,0,35.76,11.04,43.9,27.16,1.75-.19,3.53-.29,5.34-.29,24.73,0,45.19,18.39,48.7,42.36.31,0,.62-.01.93-.01,16.72,0,30.26,13.67,30.26,30.54s-13.55,30.54-30.26,30.54c-.19,0-.38,0-.57,0-2.05,25.53-23.24,45.61-49.07,45.61-4.99,0-9.81-.75-14.35-2.14-9.01,11.71-23.09,19.24-38.92,19.24s-30.98-8.12-39.92-20.6c-5.63,2.26-11.76,3.5-18.19,3.5-25.83,0-47.02-20.07-49.07-45.6-16.6-.13-30.02-13.75-30.02-30.54s13.55-30.54,30.26-30.54h.13c3.51-23.96,23.98-42.35,48.7-42.35,5.96,0,11.68,1.07,16.97,3.03C103.37,13.01,120.74.7,140.97.7Z"/>
      <path class="cls-3" d="m146.32,31.65c19.33,0,36.08,11.04,44.29,27.16,1.77-.19,3.56-.29,5.38-.29,24.95,0,45.6,18.39,49.14,42.36.31-.01.63-.01.94-.01,16.87,0,30.54,13.67,30.54,30.54s-13.67,30.54-30.54,30.54c-.19,0-.38,0-.57,0-2.07,25.53-23.44,45.61-49.51,45.61-5.04,0-9.9-.75-14.48-2.14-9.09,11.71-23.3,19.25-39.27,19.25s-31.26-8.12-40.28-20.6c-5.68,2.26-11.87,3.5-18.35,3.5-26.06,0-47.44-20.07-49.51-45.6-16.75-.13-30.3-13.75-30.3-30.54s13.67-30.54,30.54-30.54h.13c3.54-23.96,24.19-42.35,49.14-42.35,6.02,0,11.78,1.07,17.12,3.03,7.64-17.6,25.18-29.9,45.58-29.9Z"/>
    </g>
  </g>
</svg>