<?xml version="1.0" encoding="UTF-8"?>
<svg xmlns="http://www.w3.org/2000/svg" xmlns:xlink="http://www.w3.org/1999/xlink" viewBox="0 0 271 245">
  <defs>
    <style>
      .cls-1 {
        fill: none;
      }

      .cls-2 {
        clip-path: url(#clippath);
      }

      .cls-3 {
        mask: url(#mask);
      }

      .cls-4 {
        fill: #fff;
      }

      .cls-5 {
        fill: #0e5256;
      }

      .cls-6 {
        fill: #73d3c8;
      }

      .cls-7 {
        fill: #ffceeb;
      }

      .cls-7, .cls-8, .cls-9 {
        fill-rule: evenodd;
      }

      .cls-8 {
        fill: #ffc2e7;
      }

      .cls-9 {
        fill: #ffd3ee;
      }
    </style>
    <mask id="mask" x="-67.78" y="50.57" width="403.51" height="267.92" maskUnits="userSpaceOnUse">
      <g id="mask0_3_23" data-name="mask0 3 23">
        <path class="cls-7" d="m141.31,50.57c19.12,0,35.69,11.04,43.81,27.16,1.75-.19,3.53-.29,5.32-.29,24.68,0,45.1,18.39,48.6,42.36.31,0,.62-.01.93-.01,16.68,0,30.2,13.67,30.2,30.54s-13.52,30.54-30.2,30.54c-.19,0-.38,0-.57,0-2.05,25.53-23.19,45.61-48.97,45.61-4.98,0-9.79-.75-14.32-2.14-8.99,11.71-23.04,19.24-38.84,19.24s-30.91-8.12-39.84-20.6c-5.61,2.26-11.74,3.5-18.15,3.5-25.78,0-46.92-20.07-48.97-45.6-16.57-.13-29.96-13.75-29.96-30.54s13.52-30.54,30.2-30.54h.13c3.5-23.96,23.93-42.35,48.6-42.35,5.95,0,11.65,1.07,16.93,3.03,7.56-17.6,24.9-29.9,45.08-29.9Z"/>
      </g>
    </mask>
    <clipPath id="clippath">
      <rect class="cls-1" x="6.72" y="-10.07" width="241.74" height="241.74" transform="translate(-33.75 60.54) rotate(-23.67)"/>
    </clipPath>
  </defs>
  <g id="Mountains">
    <path class="cls-6" d="m-1269.13,233.53c8.35-2.48,17.25-2.48,25.6,0L144.95,645.59c49.77,14.77,39.11,88.14-12.8,88.14h-2776.96c-51.91,0-62.57-73.37-12.8-88.14L-1269.13,233.53Z"/>
  </g>
  <g id="fore_ground" data-name="fore ground">
    <g class="cls-3">
      <g>
        <path class="cls-9" d="m141.05,50.57c19.16,0,35.76,11.04,43.9,27.16,1.75-.19,3.53-.29,5.34-.29,24.73,0,45.19,18.39,48.7,42.36.31,0,.62-.01.93-.01,16.72,0,30.27,13.67,30.27,30.54s-13.55,30.54-30.27,30.54c-.19,0-.38,0-.57,0-2.05,25.53-23.24,45.61-49.07,45.61-4.99,0-9.81-.75-14.35-2.14-9.01,11.71-23.09,19.24-38.92,19.24s-30.98-8.12-39.92-20.6c-5.63,2.26-11.76,3.5-18.19,3.5-25.83,0-47.01-20.07-49.07-45.6-16.6-.13-30.02-13.75-30.02-30.54s13.55-30.54,30.26-30.54h.13c3.51-23.96,23.98-42.35,48.7-42.35,5.96,0,11.68,1.07,16.97,3.03,7.58-17.6,24.95-29.9,45.18-29.9Z"/>
        <path class="cls-8" d="m146.39,81.52c19.33,0,36.08,11.04,44.29,27.16,1.77-.19,3.56-.29,5.38-.29,24.95,0,45.6,18.39,49.14,42.36.31,0,.63-.01.94-.01,16.87,0,30.54,13.67,30.54,30.54s-13.67,30.54-30.54,30.54c-.19,0-.38,0-.57,0-2.07,25.53-23.44,45.61-49.51,45.61-5.04,0-9.9-.75-14.48-2.14-9.09,11.71-23.3,19.24-39.27,19.24s-31.26-8.12-40.28-20.6c-5.68,2.26-11.87,3.5-18.35,3.5-26.06,0-47.44-20.07-49.51-45.6-16.75-.13-30.3-13.75-30.3-30.54s13.67-30.54,30.54-30.54h.13c3.54-23.96,24.19-42.35,49.14-42.35,6.02,0,11.78,1.07,17.12,3.03,7.64-17.6,25.18-29.9,45.58-29.9Z"/>
        <path class="cls-9" d="m73.46,125.49c19.16,0,35.76,11.04,43.89,27.16,1.75-.19,3.53-.29,5.34-.29,24.73,0,45.19,18.39,48.7,42.36.31,0,.62-.01.93-.01,16.71,0,30.26,13.67,30.26,30.54s-13.55,30.54-30.26,30.54c-.19,0-.38,0-.57,0-2.05,25.53-23.24,45.61-49.07,45.61-4.99,0-9.81-.75-14.35-2.14-9.01,11.71-23.09,19.25-38.92,19.25s-30.98-8.12-39.92-20.6c-5.63,2.26-11.76,3.5-18.19,3.5-25.83,0-47.02-20.07-49.07-45.61-16.6-.13-30.02-13.75-30.02-30.54s13.55-30.54,30.26-30.54h.13c3.51-23.96,23.98-42.35,48.7-42.35,5.96,0,11.68,1.07,16.97,3.03,7.57-17.6,24.95-29.9,45.18-29.9Z"/>
        <path class="cls-9" d="m206.6,114.57c19.16,0,35.76,11.04,43.9,27.16,1.75-.19,3.53-.29,5.33-.29,24.73,0,45.19,18.39,48.7,42.36.31,0,.62-.01.93-.01,16.71,0,30.27,13.67,30.27,30.54s-13.55,30.54-30.27,30.54c-.19,0-.38,0-.57,0-2.05,25.53-23.24,45.61-49.07,45.61-4.99,0-9.81-.75-14.35-2.14-9.01,11.71-23.09,19.24-38.92,19.24s-30.98-8.12-39.92-20.6c-5.63,2.26-11.76,3.5-18.19,3.5-25.83,0-47.01-20.07-49.07-45.6-16.6-.13-30.02-13.75-30.02-30.54s13.55-30.54,30.26-30.54h.13c3.51-23.96,23.98-42.35,48.7-42.35,5.96,0,11.68,1.07,16.97,3.03,7.57-17.6,24.95-29.9,45.18-29.9Z"/>
      </g>
    </g>
    <g class="cls-2">
      <g>
        <path class="cls-4" d="m178.85,131.83c-.19-.11-.51.05-.56.26-.03.12-.04.26-.07.39-.14.82-.26,1.64-.43,2.46-.4,1.86-.97,3.66-1.53,5.48-.12.38-.22.77-.4,1.12-.39.75-.49,1.59-.8,2.36-.01.03-.02.06-.02.09,0,.03,0,.06.01.09.01.03.03.06.05.08.02.02.05.04.07.06h.02c.88.32,1.77.56,2.69.73.55.09,1.12.14,1.69.18,1.22.09,2.25.54,3.02,1.52.18.23,2.26,2.9,2.69,3.27.02.02.06.02.1.03,0-.03.03-.07.02-.09-.11-.41-.19-.84-.34-1.24-.17-.48-.39-.92-.6-1.38-.24-.55-.49-1.1-.72-1.65-.25-.6.11-1.16.75-1.2.3-.02.6.01.84.23.22.2.49.36.68.58.67.78,1.26,1.62,1.77,2.51.35.64.75,1.25,1.19,1.83.36.47.76.92.95,1.51.03.11.18.18.28.26.02.01.07,0,.1,0,.01,0,.02-.01.03-.02,0-.01.01-.03.01-.04-.14-.44-.15-.91-.34-1.34-.35-.76-.67-1.53-1-2.29-.07-.15-.12-.33-.23-.44-.4-.43-1.38-2.68-1.88-3.13-.1-.1-.14-.29-.17-.44-.08-.61.31-.99.7-1.36.43-.41,1.09-.35,1.51.1.55.61,1.07,1.26,1.54,1.95.9,1.28,1.74,2.58,2.36,4.03.1.21.23.4.37.58.06.09.32.03.35-.06.03-.09.05-.19.06-.29.02-.76-.04-1.48-.48-2.17-.41-.64-.66-1.38-.99-2.07-.13-.27-.27-.53-.44-.78-.49-.75-1.04-1.45-1.6-2.15-.4-.5-.5-1.07-.42-1.69.05-.38.35-.61.74-.64.47-.04.94.07,1.34.3.61.34,1.19.72,1.78,1.09.2.11.39.24.57.39.65.61,1.29,1.24,1.77,2.01.17.27.44.48.67.72.01.01.07,0,.09-.01.04-.04.11-.1.1-.13-.23-.62-.47-1.22-.94-1.73-.51-.57-.98-1.16-1.42-1.78-.58-.78-1.33-1.38-2.01-2.05-.14-.14-.33-.21-.5-.32-.18-.1-.34-.21-.5-.33-.44-.4-.92-.48-1.47-.24-.34.15-.68.27-1.02.41-.37.15-.74.32-1.1.48-.09.04-.19.06-.29.05s-.2-.04-.28-.09c-.59-.31-.7-.8-.28-1.31.15-.18.33-.32.53-.44.23-.14.47-.24.73-.32.76-.21,1.53-.42,2.31-.58,1.28-.26,2.56-.35,3.86-.12.39.07.78.15,1.18.22.04,0,.1-.07.15-.1-.01-.02-.04-.05-.06-.07-.79-.49-1.58-.97-2.44-1.33-.83-.34-1.74-.47-2.64-.38-.56.03-1.12.12-1.67.26-.54.15-1.1.22-1.66.31-.75.12-1.51.23-2.26.33-1.08.15-2.12.03-3.08-.54-.17-.1-.35-.19-.53-.27-.71-.3-1.36-.71-1.94-1.21-.17-.16-.36-.3-.56-.43Z"/>
        <path class="cls-4" d="m184.54,62.59c-.51-.66-.9-1.39-1.58-1.9-.66-.5-1.33-1-2.07-1.38-.63-.31-1.33-.45-2.03-.39-.65.04-1.22.31-1.8.56-.18.08-.36.17-.55.24-.6.23-1.12.61-1.5,1.12-.93,1.15-1.71,2.37-2.01,3.85-.15.72-.25,1.44-.12,2.18.08.46.16.91.27,1.36.21.98.61,1.91,1.16,2.75.9,1.32,2.11,2.41,3.52,3.18.75.41,1.57.51,2.38.69.05,0,.1-.01.14-.03.04-.02.08-.05.11-.09.16-.17.3-.34.2-.62-.25-.69-.32-1.41-.34-2.15-.02-.3.04-.6.19-.86.3-.47.59-.97,1.15-1.21.15-.06.26-.2.4-.29.61-.42,1.6-.34,2.1.21.36.39.68.81,1,1.23.38.49.37.49.71,0,.72-1,.91-2.13.82-3.31-.06-.8-.32-1.55-.51-2.33-.07-.29-.19-.57-.37-.82-.48-.64-.78-1.39-1.27-2.02Z"/>
        <path class="cls-4" d="m26.72,104.29c-.52-.09-1.06-.1-1.58-.03-.82.1-1.66.11-2.48.03-1.89-.16-3.78-.17-5.67-.01-1.15.1-2.31.21-3.46.36-.49.06-.97.2-1.45.31-.02.01-.06.07-.05.08.03.05.07.09.12.12.06.03.13.04.19.03.78-.16,1.58-.21,2.37-.13.2.02.4,0,.59-.05.39-.1.79-.08,1.19-.06.23,0,.47.04.7.03,1.23-.05,2.45-.02,3.68,0,1,.02,1.99.03,2.99-.02,1.19-.07,2.39-.07,3.58,0,.13,0,.26,0,.39,0,.02,0,.05-.04.07-.06,0-.03,0-.07-.02-.07-.37-.21-.7-.46-1.16-.52Z"/>
        <path class="cls-4" d="m9.03,91.67c2.67.72,5.36,1.32,8.09,1.78,1.15.19,2.28.51,3.36.95,1.42.58,2.86,1.11,4.21,1.84.38.2.77.39,1.14.62.22.14.43.31.61.5.18.18.09.58-.15.69-.18.08-.37.13-.57.14-.9,0-1.8-.15-2.64-.47-1.13-.43-2.29-.68-3.48-.85-.85-.13-1.71-.27-2.56-.44-.89-.15-1.78-.24-2.68-.24-.73-.01-1.46,0-2.19-.06-2.37-.16-4.71.09-7.06.29-.47.22-.99.04-1.47.19-.04.02-.07.1-.09.15,0,.01.04.05.07.06.09.04.19.07.28.08.29.04.59.09.89.1.26.01.53-.03.79,0,.66.08,1.32.19,1.97.29.5.07.99.15,1.49.18,1.43.07,2.84.32,4.25.58,1.86.35,3.74.66,5.6,1.01,2.13.41,4.22.99,6.2,1.86.24.1.47.24.69.4.14.1.15.28.07.45-.02.06-.06.12-.12.16-.05.04-.12.06-.18.06-.33,0-.67-.06-.97-.2-1.01-.48-2.08-.68-3.19-.73-.37-.02-.73-.07-1.09-.15-1.6-.35-3.22-.49-4.84-.66-.2-.02-.4-.02-.6-.06-.92-.19-1.85-.11-2.78-.07-.23.03-.46.03-.7.02-1.14-.13-2.25.03-3.37.2-.43.06-.86.09-1.28.16-.12.04-.23.11-.32.2-.02.02,0,.13.04.16.05.04.12.06.18.06.6-.04,1.2,0,1.78.1.49.07.99.09,1.49.05,1.76-.08,3.53.01,5.27.28.2.03.4.06.6.07,1.37.04,2.71.32,4.05.53.95.14,1.91.28,2.86.44,1.08.19,2.13.5,3.2.72.55.11,1.1.25,1.66.36.85.16,1.69.37,2.51.64.4.13.73.32.94.67.05.09.11.16.2.22.08.06.18.09.27.1.13,0,.26.02.39.05.73.23,1.45.46,2.18.68.22.07.45.1.68.12.53.04,1.06.07,1.59.07.4,0,.8-.04,1.16-.26.11-.07.25-.1.37-.16.96-.52,1.9-.31,2.87.02.93.31,1.71.87,2.58,1.28.93.45,1.88.85,2.84,1.23.84.32,1.63.76,2.33,1.32.49.4,1.04.72,1.58,1.05,2.41,1.48,4.89,2.84,7.27,4.37,1.9,1.23,3.87,2.35,5.8,3.54.45.28.88.61,1.3.92.62.45,1.23.91,1.85,1.36.03.02.06.03.08.05,1.59,1.31,3.21,2.58,4.73,3.98,1.05.97,5.02,5.34,5.25,5.66.44.62.84,1.27,1.28,1.89.51.73,1.05,1.45,1.49,2.23.03.04.07.06.11.08.04.02.09.03.14.02.05,0,.09-.02.14-.04.04-.02.08-.06.1-.1.18-.53.45-1.03.52-1.61.15-1.35.41-2.69.78-4.01.04-.11.04-.22.02-.33-.03-.11-.08-.21-.17-.29-.23-.28-2.49-2.4-3.14-2.87-.86-.63-1.72-1.25-2.5-1.98-.95-.89-2.02-1.63-3.06-2.41-.11-.07-.22-.15-.32-.23-1.32-1.18-2.8-2.15-4.24-3.16-.03-.02-.05-.04-.08-.07-1.24-1.07-2.58-1.99-3.89-2.97-1.15-.86-2.26-1.76-3.53-2.43-.35-.19-.67-.43-1.01-.65-1.51-.98-3.05-1.91-4.62-2.77-1.46-.79-2.88-1.66-4.33-2.48-1.48-.83-2.98-1.63-4.59-2.21-.69-.24-1.33-.61-1.98-.94-.42-.21-.83-.43-1.26-.6-1.02-.4-2.05-.78-3.03-1.28-.58-.3-1.22-.52-1.77-.88-.1-.07-.26-.1-.24-.27.03-.22-.14-.46.04-.68.09-.1.18-.2.27-.29.31-.33.35-.51.07-.85-.39-.49-.8-.97-1.21-1.45-.58-.68-1.19-1.34-1.76-2.04-.49-.58-1.05-1.11-1.66-1.58-.73-.58-1.46-1.16-2.19-1.74-1.48-1.18-2.95-2.38-4.45-3.55-.47-.37-.9-.78-1.38-1.14-.16-.11-.34-.2-.52-.26-.03,0-.06,0-.09.02s-.05.03-.07.06c-.02.04,0,.12.03.18.01.03.04.06.06.07,1.15.9,2.22,1.9,3.28,2.91.4.39.85.73,1.25,1.12.4.39.87.72,1.27,1.11.79.75,1.6,1.49,2.33,2.31.39.45.78.91,1.19,1.33.23.24.41.52.52.83.01.06.01.12,0,.19-.01.06-.04.12-.08.17-.05.06-.13.11-.21.12-.08.01-.17,0-.24-.05-.46-.27-.88-.6-1.24-1-.66-.76-1.45-1.36-2.28-1.93-.85-.59-1.67-1.21-2.49-1.84-.47-.37-.97-.69-1.5-.97-1.57-.81-3.16-1.58-4.86-2.09-1.43-.43-2.87-.85-4.3-1.28-1.43-.43-2.86-.9-4.3-1.31-1.02-.29-2.06-.53-3.09-.79-.06-.02-.13-.03-.19-.04-.24-.03-.45-.31-.72-.08.21.14.42.29.64.42.11.07.24.12.37.14.54.06,1.02.29,1.52.48,1.19.43,2.39.83,3.56,1.3,1.24.5,2.45,1.04,3.67,1.59.88.4,1.74.83,2.6,1.26,2.18,1.08,4.33,2.21,6.41,3.46.37.22.72.47,1.08.72.52.36,1.04.72,1.56,1.08.47.32.86.73,1.24,1.14.07.08.11.17.12.27.01.1,0,.2-.06.29-.07.15-.26.29-.4.24-.25-.09-.52-.16-.72-.31-.72-.55-1.5-.98-2.3-1.4-.3-.15-.58-.33-.86-.51-.91-.63-1.87-1.16-2.88-1.6-.67-.29-1.31-.66-2.01-.88-.95-.29-1.9-.59-2.87-.86-1.41-.39-2.82-.78-4.24-1.13-1.49-.36-2.99-.62-4.52-.77-.99-.1-1.98-.26-2.98-.31-.29-.02-.57-.01-.86-.02-.06.13-.1.28-.1.43,0,.15.03.29.09.43.13.27.41.48.68.65.16-.03.32-.05.48-.06.37,0,.74.04,1.09.14Z"/>
        <path class="cls-4" d="m199.02,16.32c-.25.43-1.98,3-2.58,4.01-.6,1.01-.72,1.15-1,1.76-.19.41-1.39,2.55-1.59,3.14-.21.59.5,1.14.8.99.08-.05.15-.11.21-.18.33-.5,1.45-2.69,1.78-3.22.72-1.19,1.38-2.42,1.98-3.68.39-.8.68-1.66.99-2.5.07-.18.13-.56-.06-.65-.2-.09-.28-.1-.53.33Z"/>
        <path class="cls-4" d="m204.85,64.99c.06.09.13.13.22.03.15-.17.35-.32.47-.51.64-1.02,1.13-2.1,1.1-3.35-.03-1.39-.13-1.85-1.19-3.81-1.07-1.96-2.33-2.78-2.98-3.05-.37-.16-.75-.27-1.12-.42-.71-.28-1.42-.32-2.12.04-.12.06-.24.11-.37.16-.18.08-.37.15-.55.24-1.25.64-2.09,1.64-2.47,2.98-.26,1-.38,2.03-.35,3.06,0,.63.09,1.25.29,1.85.42,1.13,1,2.17,1.87,3.02.38.37.79.71,1.14,1.11.28.31.64.46.97.67.04.03.11,0,.17,0,0-.06,0-.13-.01-.19-.05-.12-.11-.24-.18-.36-.36-.61-.5-1.66-.14-2.32.36-.65.51-.89,1.9-1.23,1.4-.34,2,.1,2.43.47.39.34.78.72.79,1.3.01.1.05.2.12.29Z"/>
        <path class="cls-4" d="m200.41,8.87c-.93.31-1.72.88-2.54,1.37-1.1.66-2.13,1.46-3.17,2.23-.91.66-1.77,1.4-2.55,2.22-.46.48-.91.97-1.35,1.47-.7.81-1.38,1.62-2.06,2.44-.19.23-1.31,1.52-1.51,1.65-.65.45-1.32.56-2.08.28-1.41-.52-2.87-.87-4.35-1.06-.82-.13-1.65-.19-2.49-.2-.76.01-1.51.16-2.26.28-.63.1-.86.38-.85,1.02,0,.46.03.93.06,1.39.03.3-.05.6-.23.85-.24.33-.48.4-.86.25-.13-.05-.24-.13-.31-.24-.08-.11-.12-.24-.13-.37-.08-.76-.42-6.25-.58-7.03-.15-.75-.25-1.5-.33-2.26-.05-.46-.19-.91-.29-1.36-.04-.19-.09-.39-.13-.58-.17-.78-.32-1.56-.51-2.33-.23-.97-.53-1.92-.73-2.89-.11-.53-.34-1.01-.51-1.51-.13-.35-.35-.65-.64-.88-.67-.59-1.2-.49-1.7-.07-.29.27-.56.57-.79.89-.26.34-.49.71-.74,1.07-.48.68-.88,1.42-1.19,2.19-.12.31-.29.6-.43.9-.85,1.85-1.66,3.71-2.13,5.7-.2.84-.47,1.67-.64,2.51-.23,1.11-.4,2.23-.59,3.34-.23,1.21-.34,2.44-.35,3.67.03,1.23.17,2.45.45,3.64.17.81.3,1.63.48,2.43.05.19.04.4-.01.59-.06.19-.17.36-.32.49-.21.21-.62.22-.78-.02-.11-.17-.18-.36-.28-.53-.13-.24-.59-.36-.77-.19-.42.38-.86.73-1.23,1.15-.91,1.02-1.79,2.05-2.54,3.2-.44.67-.91,1.31-1.37,1.97-.85,1.2-1.71,2.38-2.54,3.59-.45.66-.89,1.33-1.37,1.96-.42.56-.81,1.14-1.16,1.74-.63,1.06-1.22,2.14-1.96,3.13-.34.45-.61.95-.9,1.44-1.14,1.88-2.27,3.76-3.4,5.65-.77,1.29-1.56,2.55-2.29,3.87-.73,1.34-3.46,6.49-3.93,7.4-.78,1.51-3.81,7.49-4.03,7.65-.34.26-.72.25-1.05-.06-.09-.08-.45-.25-.99.14-1.31.95-3.47,3.22-3.83,3.57-.43.41-2.53,2.56-4.58,4.09s-3.74,1.14-4.37.66c-.35-.25-.68-.53-.99-.84-.72-.73-1.41-1.5-2.12-2.24-.64-.68-1.28-1.35-1.91-2.03-.38-.42-.75-.84-1.1-1.29-.98-1.25-1.98-2.49-2.91-3.78-.93-1.29-2.09-2.4-2.92-3.77-.34-.57-.78-1.07-1.04-1.69-.12-.28-.23-.57-.41-.8-.43-.53-.66-1.15-.97-1.74-.47-.92-.53-1.92-.53-2.91,0-.36.12-.72.22-1.07.17-.61.39-1.2.55-1.81.18-.67.4-1.33.63-1.99.19-.53.34-1.08.52-1.61.08-.25.2-.49.3-.73.26-.64.54-1.28.65-1.97.01-.2,0-.39-.04-.59-.02-.15-.32-.24-.4-.11-.14.19-1.39,2.17-2.32,3.71-.53.88-1.62,2.68-1.7,2.94-.08.26-.26.54-.41.79-.07.12-.17.21-.29.27-.12.06-.26.07-.39.04-.26-.04-.4-.21-.5-.44-.1-.21-.11-.45-.04-.68.15-.43.05-.85-.13-1.26-.13-.3-.26-.61-.4-.92-.65-1.46-1.22-2.94-2.07-4.31-.58-.93-1.15-1.86-1.73-2.78-.41-.65-.89-1.24-1.44-1.77-.18-.15-.38-.26-.6-.34-.07-.03-.19.02-.27.07-.03.01-.04.14-.01.18.13.23,1.04,1.89,1.23,2.34.44,1.05.9,2.08,1.36,3.12.19.43.4.85.56,1.29.16.44.24.89.38,1.34.11.35.09.73-.04,1.08-.15.43-.77.65-1.18.43-.06-.03-.11-.08-.14-.13-.31-.61-.86-1-1.35-1.44-.37-.33-.74-.67-1.11-1-.48-.41-.94-.84-1.52-1.13-.41-.21-2.3-1.47-2.87-1.8-.58-.33-1.92-1.24-2.26-1.31-.35-.07-.4.23-.39.39,0,.09.39.59.66.8.86.68,2.83,2.47,2.94,2.58,1.01,1.05,2.04,2.09,3.03,3.16.36.38.73.76.91,1.29.25.75,0,1.41-.71,1.72l-.18.08c-.09.04-.19.06-.29.05-.1-.01-.19-.05-.27-.12-.83-.67-1.68-1.32-2.5-1.98-.98-.8-2.02-1.52-3.13-2.13-.87-.48-3.36-1.74-3.77-1.67-.12.02-.22.21-.13.31.26.29,1.47,1.3,1.78,1.55.87.72,1.65,1.55,2.58,2.2.43.3.84.66,1.24,1,.23.19.45.4.64.63.48.64.96,1.26,1.56,1.8.48.43.67.99.31,1.62-.07.11-.1.25-.17.36-.18.36-.49.64-.87.79-.38.15-.79.15-1.17.02-.16-.05-.31-.13-.46-.19-.34-.14-.68-.29-1.01-.43-.98-.42-1.98-.8-2.93-1.28-.64-.33-2.28-1.27-2.51-1.26-.04,0-.09.07-.12.11,0,.02,0,.03,0,.05s0,.03.02.04c.08.1.17.19.27.27.33.22,3.04,2.14,4.09,2.84,1.2.8,2.21,1.81,3.15,2.88.49.54.92,1.13,1.3,1.75.54.92.85,1.96.89,3.03.05.96.16,1.92.33,2.86.17.95.25,1.91.38,2.86.11.82.23,1.64.37,2.46.11.69.27,1.37.39,2.05.15.92.59,1.76.76,2.67.14.75.42,1.46.58,2.21.15.68.36,1.34.62,1.99.5,1.23,1.11,2.42,1.41,3.73.03.1.07.19.12.28.62,1.47,1.25,2.95,1.93,4.55.35.75.76,1.62,1.16,2.5.29.64.57,1.28.84,1.92.2.47.07.75-.41.95-.09.04-.19.07-.28.1-.31.09-.51.03-.69-.23-.09-.14-.16-.29-.26-.43-.27-.38-.68-.39-.99-.04-.22.25-.44.51-.66.75-1.25,1.34-2.35,2.8-3.43,4.28-.61.83-1.22,1.66-1.82,2.5-.29.4-.58.81-.84,1.24-1.04,1.74-2.06,3.49-3.09,5.25-.02.03-.03.06-.05.09-.95,1.76-1.75,3.59-2.54,5.42-.58,1.35-1.11,2.71-1.64,4.08-.29.71-.54,1.43-.75,2.17-.5,1.93-.97,3.87-1.41,5.82-.26,1.16-1.1,5.84-1.22,6.46-.26,1.4-.41,2.83-.83,4.21-.07.25-.51,3.78-.53,4.14-.04,1.17-.29,2.31-.45,3.46-.07.46-.25.89-.51,1.27-.13.2-.33.34-.55.4-.46.14-.84-.06-.87-.53,0-.4.02-.79.09-1.19.07-.49.22-.98.27-1.47.06-.56,0-1.08-.44-1.57-.37-.42-.73-.85-1.08-1.3-1.4-1.8-3.09-3.29-4.92-4.63-.94-.69-1.97-1.24-2.94-1.89-.79-.52-1.73-.66-2.55-1.11-.09-.03-.19-.04-.29-.04-.2-.03-.4,0-.58.1-.18.09-.33.24-.42.42-.42.75-.86,1.5-1.22,2.29-.52,1.12-.95,2.28-1.28,3.46-.23.84-.74,2.95-.84,3.41-.16.72-.7,5.6-.8,6.22-.21,1.25-.19,2.52-.26,3.78-.04.7-.03,1.4-.05,2.09-.02.53-.11,1.07-.05,1.59.18,1.49.14,2.99.2,4.48.05,1.3.37,2.57.95,3.73.13.23.28.45.47.63.1.09.22.13.35.13.13,0,.25-.06.34-.16.03-.03.05-.07.07-.11.38-.81.77-1.63,1.12-2.45.29-.68.53-1.37.81-2.05.42-1.02.83-2.04,1.27-3.05.24-.54.35-1.05.03-1.6-.19-.35-.34-.72-.46-1.11-.06-.22-.1-.45-.09-.68,0-.12.02-.24.09-.33.07-.1.16-.17.27-.21.26-.11.55-.08.73.14.21.25.46.47.59.8.22.52,2.86,5.38,3.3,6.01.75,1.05,1.48,2.11,2.22,3.17.47.68,1.49,2.83,5.74,6,4.25,3.17,5.56,2.87,8.09,2.2,2.53-.67,6.9-3.33,7.62-3.82.3-.21.6-.42.89-.63.92-.65,1.86-1.28,2.74-1.97.97-.76,3.6-3.46,4.23-3.71.15-.07.32-.09.49-.06.17.03.32.11.44.22.13.11.23.25.28.41.05.16.06.33.02.49-.17.71-2.13,2.13-2.55,2.47-.02.02-.04.07-.03.09.03.05.06.13.1.15.09.03,1.12.77,3.01,1.89,1.88,1.11,3.45,2.1,4.14,2.37,1.03.39,2.05.8,3.08,1.19.28.11,2.31.75,3.02,1.03.59.24,1.19.43,1.81.55.69.13,1.37.29,2.05.41.52.09,1.05.14,1.58.18.73.05,5.61.64,6.44.67,1.33.06,2.66-.06,3.98-.18,2.08-.18,4.15-.53,6.24-.54.13,0,.27,0,.4-.01,1.29-.29,7.18-1.39,8.71-1.5.43-.03.86-.11,1.28-.19.78-.13,1.56-.31,2.35-.41.96-.12,1.92-.2,2.88-.26,1.53-.1,3.07-.02,4.57.26,1.29.23,2.51.71,3.54,1.54.83.67,1.55,1.46,2.14,2.35.43.63.87,1.25,1.24,1.91.44.78.93,1.53,1.28,2.36.43,1.05.92,2.07,1.4,3.1.47,1,1.38,4.06,1.47,4.54.11.49.27.96.48,1.41l.44,1.01c.16.36.36.71.6,1.03.47.68.76,1.11,1.5.96.26-.05.86-.38,1.1-.48.21-.09,5.62-3.37,6.75-3.98,1.62-.86,6.09-3.56,6.42-3.77.5-.32.98-.68,1.47-1.02,1.09-.76,2.19-1.21,3.18-2.11.49-.43,1.79-1.8,1.82-2,.07-.49-.19-.77-.67-.74-.43.03-.86.08-1.29.1-.7.03-2.55.54-2.8.61-.99.28-2.01.43-2.98.76-.35.11-.71.18-1.07.23-.16.01-.33-.02-.47-.1-.38-.2-.57-.56-.64-.97-.06-.33-.09-.66-.07-.99.07-1.5.16-2.99.25-4.49.1-1.59.23-3.19.32-4.78.04-.9.13-1.79.29-2.68.16-.78.27-1.57.38-2.36.14-1.16.14-2.33,0-3.48-.09-.73-.28-1.43-.46-2.13-.24-1.01-.74-1.93-1.45-2.67-.74-.78-1.64-1.35-2.41-2.09-.15-.14-.31-.25-.49-.34-.86-.44-1.72-.88-2.58-1.3-.12-.05-.25-.09-.38-.11-1.07-.26-2.13-.52-3.2-.77-.29-.07-.59-.11-.88-.15-.1-.02-.2,0-.29.04-.09.04-.17.1-.23.19-.22.29-.43.59-.64.89-.61.88-1.36,1.64-2.05,2.45-.93,1.09-1.9,2.14-2.87,3.19-.49.54-1.07,1-1.54,1.56-.79.95-1.74,1.73-2.72,2.47-.56.42-1.17.76-1.69,1.22-.5.44-1,.89-1.57,1.21-.74.41-1.36.95-2.02,1.44-.32.24-.67.43-.99.66-.49.34-1.05.55-1.49.98-.36.35-.85.53-1.35.58-.27.03-.51-.04-.67-.33-.25-.49-.16-.87.31-1.19.49-.33.96-.71,1.47-1.02.9-.55,1.71-1.26,2.67-1.73.47-.23.92-.53,1.37-.81.73-.46,1.46-.9,2.08-1.52.56-.56,1.16-1.09,1.76-1.61,1.18-1.02,2.26-2.16,3.32-3.3.7-.76,1.33-1.57,2.06-2.31.75-.75,1.44-1.57,2.04-2.45.31-.47.66-.92,1.01-1.37.74-.94,1.4-1.95,1.99-3,.6-1.07,1.22-2.14,1.83-3.21.41-.73,1.9-4.43,2.11-5.05.32-.94.54-1.92.88-2.86.45-1.26.76-2.55,1.12-3.83.14-.51.32-1.02.42-1.54.35-1.66.69-3.32.99-4.99.17-.98.27-1.98.38-2.97.07-.66.12-1.33.13-1.99.02-1.06,0-2.13.02-3.19,0-.33-.06-.66-.19-.97-.1-.26-.3-.45-.59-.47-1.02-.07-4.73-1.72-5.58-2.33-.32-.23-.7-.39-1.04-.59-.78-.44-1.57-.87-2.33-1.35-.74-.46-1.42-.98-2.17-1.43-.54-.33-1.04-.72-1.5-1.15-1.1-1.02-2.19-2.04-3.26-3.08-.69-.67-1.38-1.35-2.03-2.05-.56-.61-1.07-1.27-1.6-1.9-.62-.73-1.22-1.49-1.63-2.36-.13-.23-.27-.45-.44-.66-.53-.76-1.07-1.53-1.39-2.41-.15-.41-1.16-2.31-1.33-2.67-.44-.93-2.13-4.67-2.27-5.18-.04-.13-.76-2.61-.94-3.03-.54-1.23-.83-2.52-1.08-3.82-.22-1.14-.36-2.29-.55-3.44-.12-.73-.49-6.07-.49-6.6,0-.7.03-1.4-.05-2.09-.14-1.24.02-2.46.19-3.68.02-.16.08-.32.17-.46.11-.16.22-.32.47-.3.1,0,.2.03.28.09.08.05.15.13.19.22.25.46.23.96.25,1.46.02.53-.02,1.07.04,1.59.12,1.19.14,2.39.07,3.59-.05,1.13,0,2.26.14,3.38.08.66.16,1.32.24,1.97.12.96.22,1.91.48,2.84.15.54.22,1.1.37,1.64.28,1.02.4,2.09.83,3.07.05.09.08.18.11.28.21,1.04.6,2.03.91,3.04.16.5.32,1.01.49,1.51.12.34.26.69.41,1.02.31.7.56,1.45.97,2.08.5.76.87,1.57,1.24,2.38.1.25.21.49.34.72.63.97,1.31,1.91,1.92,2.9.33.54.69,1.05,1.1,1.54.66.79,1.36,1.54,2.04,2.32.24.27.44.58.66.88.34.49.74.94,1.18,1.34.55.48,1.06,1,1.59,1.5,1.22,1.14,8.52,5.98,10.4,6.6,1.87.62,4.87,1.21,5.6,1.33,1.74.28,8.03.66,9.02.58.36-.03,6.64-.74,8.07-1.02.49-.1,5.83-1.25,10.1-3.27,4.27-2.02,9.27-5.58,9.71-5.89,1.17-.82,2.2-1.81,3.23-2.8,1.29-1.24,2.65-2.42,3.79-3.81.89-1.08,1.77-2.17,2.53-3.34.9-1.4,1.85-2.77,2.37-4.38.2-.57.34-1.15.42-1.74.1-.86.21-1.72.37-2.57.24-1.25.38-1.96.21-3.78-.16-1.82-1.48-4.66-1.64-4.95-.35-.64-.62-1.31-1.04-1.92-.42-.61-.82-1.2-1.33-1.73-.81-.84-1.64-1.65-2.43-2.49-.55-.59-1.24-1-1.85-1.52-1.19-1.02-2.53-1.85-3.86-2.65-1.03-.63-2-1.33-2.83-2.2-1.33-1.39-2.69-2.75-3.8-4.34-.55-.79-1.19-1.51-1.62-2.39-.11-.23-.31-.43-.48-.63-.02-.03-.06-.06-.1-.07-.04-.01-.08-.01-.12,0-.04.01-.08.04-.1.07-.03.03-.04.07-.05.11-.19,1.14-1.61,4.21-4.97,5.68-3.36,1.47-6.13-.97-6.68-1.55-.76-.8-1.31-1.21-2.14-3.63-.83-2.42-.38-4.26-.12-5.5.24-1.13.83-3.36,2.79-4.45s3.23-1.48,4.15-1.18c.5.17,1.35.48,1.85.67.15.06.35.14.45-.03.07-.13.05-.32.04-.47-.02-.1-.06-.19-.11-.28-.47-1.35-2.48-6.26-2.81-7.35-.38-1.27-2.5-6.82-2.76-7.47-.17-.43-.92-2.11-.98-2.26-.45-1.04-1.04-2-1.54-3.01-.47-.95-.99-1.88-1.49-2.82-.09-.18-.19-.35-.3-.52-.54-.72-1.04-1.45-1.41-2.28-.18-.38-.18-.62.04-.98.44-.7.84-1.44,1.19-2.19.66-1.46,1.48-2.83,2.36-4.16.47-.72,1-1.42,1.41-2.18.58-1.06,1.16-2.09,2.05-2.95.88-.86,1.73-1.06,2.02-2.31.29-1.25.32-1.42.26-2.15-.03-.34-.14-.44-.48-.51-.22-.05-.4.02-.59.09Zm-30,42.71c.08-.36.23-.7.44-1,.78-1.22,1.79-2.23,2.89-3.14.54-.44,1.11-.85,1.67-1.26.43-.31.85-.63,1.3-.91.14-.09.31-.14.48-.14.17,0,.33.04.48.12.05.03.1.07.14.13.04.05.06.11.07.17.03.34-.05.65-.35.88-.55.43-1.08.88-1.62,1.32-.36.29-.71.59-1.08.88-.83.64-1.47,1.44-2.07,2.28-.25.35-.52.69-.8,1.02-.13.14-.27.26-.42.38-.34.15-.57.19-.79.05-.13-.08-.23-.2-.29-.34-.06-.14-.07-.29-.05-.44h0Zm17.82,16.14c.11.62.13,1.25.06,1.88-.04.29-.08.61-.22.86-.61,1.07-1.22,2.14-1.92,3.15-.97,1.42-2.34,2.36-3.97,2.86-.99.3-2.04.36-3.04,0-1.35-.48-2.66-1.06-3.82-1.92-1.19-.86-2.13-2.01-2.74-3.35-.68-1.5-1.11-3.06-1.2-4.69-.1-1.79.2-3.52,1.15-5.08.22-.37.42-.76.66-1.12.68-1.01,1.55-1.81,2.69-2.29.8-.34,1.59-.67,2.45-.83.99-.19,2.01-.04,2.9.44,1.69.88,3.15,2.14,4.26,3.68.7.97,1.39,1.94,1.87,3.14.5.98.7,2.12.88,3.27Zm-10.53-27.88c-.07.19-.18.35-.32.49-.25.21-.52.41-.8.59-.57.4-1.14.79-1.71,1.19-.11.07-.21.16-.31.25-1.43,1.38-2.92,2.71-4.03,4.39-.11.17-.24.32-.39.45-.27.26-.58.26-.91.05-.06-.03-.11-.08-.14-.13-.04-.06-.06-.12-.06-.18-.03-.33.02-.67.17-.97.39-.81.85-1.58,1.48-2.23.63-.65,1.24-1.3,1.91-1.89.64-.57,1.34-1.09,2.03-1.6.45-.33.94-.61,1.25-.81.56-.19.89-.45,1.33-.38.39.06.66.42.51.79h0Zm-9.75-24.54c0,.33.03.66.05.99.17,2.05.73,9.87-.19,10.28-.92.4-.92-.72-.92-1.08-.02-1.23,0-2.46-.01-3.69,0-.77-.04-1.53-.08-2.29-.05-1.13-.02-2.26-.17-3.38-.08-.62-.19-1.25-.09-1.89.03-.19-.04-.4-.08-.59,0-.03-.08-.06-.13-.07-.02,0-.03,0-.04.02-.01,0-.02.02-.03.04-.08.25-.2.5-.23.75-.13,1.06-.35,2.1-.56,3.14-.1.46-.17.92-.22,1.38-.13,1.26-.25,2.52-.34,3.78-.05.66-.03,1.33-.04,2,0,.27-.05.53-.05.8,0,.29-.12.51-.31.71-.14.15-.27.33-.49.26-.22-.06-.44-.21-.49-.45-.08-.32-.11-.65-.1-.98.04-.69.07-1.39.11-2.08.12-2.03.36-4.04.71-6.04.31-1.77.72-3.52,1.24-5.24.13-.45.32-.88.49-1.31.06-.12.13-.23.22-.33.14-.2.32-.35.58-.3.33.05.56.3.63.66.3,1.63.57,3.26.56,4.92h0Zm21.55,20.56c.03-.24.35-.57.6-.6.1-.01.2,0,.3,0,.68-.04,1.32.15,1.93.41,1.06.46,2.1.97,3.14,1.49.31.14.59.35.82.6s.4.55.51.88c.05.07.08.15.09.23.02.13,0,.26-.06.37-.06.08-.14.14-.24.17-.1.03-.2.03-.29,0-.15-.07-.29-.16-.42-.25-1.59-1.15-3.38-1.98-5.29-2.45-.22-.06-.44-.14-.66-.22-.25-.11-.44-.4-.42-.61h0Zm9.23,8.26c-.26.04-.53-.02-.76-.16-.36-.24-.74-.44-1.09-.7-.62-.44-1.3-.8-2.02-1.06-1.21-.46-2.42-.94-3.62-1.42-.24-.1-.48-.22-.71-.35-.11-.07-.21-.16-.3-.26-.09-.09-.13-.2-.13-.32,0-.12.05-.24.13-.32.04-.04.09-.08.15-.1.3-.15.64-.19.96-.11,1.43.32,2.8.82,4.1,1.49,1.04.52,2.05,1.09,2.96,1.83.19.14.36.29.53.45.1.13.18.28.22.44.08.24-.15.55-.41.58h0Z"/>
        <path class="cls-5" d="m197.4,8.59c-3.12,1.79-5.19,3.84-5.6,4.27-1.08,1.13-2.21,2.21-3.16,3.46-.4.53-.85,1.03-1.27,1.54-.13.15-.25.31-.39.45-.37.39-.83.53-1.36.47-.16-.03-.32-.07-.49-.12-1-.25-1.97-.63-3-.75-.56-.07-1.12-.14-1.68-.23-1.59-.26-3.18-.27-4.74.2-.06.02-.13.02-.2.02-.13,0-.26-.04-.36-.12-.1-.08-.16-.2-.17-.33-.1-.59-.19-1.18-.27-1.77-.13-.95-.22-1.91-.38-2.86-.33-1.93-.85-3.81-1.39-5.69-.15-.54-.37-1.07-.46-1.62-.15-.91-.57-1.7-.92-2.52-.22-.51-.62-.87-1.07-1.15-.84-.51-1.7-.57-2.53.02-.22.16-.41.34-.58.54-.5.58-.97,1.19-1.46,1.77-.41.48-.75,1.02-1.02,1.59-.74,1.57-1.44,3.15-2.15,4.73-.08.18-1.15,2.84-1.23,3.16-.39,1.68-.98,3.33-1.03,5.08,0,.1-.02.2-.05.3-.34,1.54-.41,3.1-.47,4.66-.02.7.14,3.01.25,3.47.07.23.06.47-.01.69-.08.22-.23.41-.42.54-.32.23-.56.56-.84.84-.24.23-3.19,3.2-3.94,4.23-.96,1.32-6.6,9.37-7.4,10.86-.73,1.35-1.48,2.67-2.32,3.96-1.02,1.56-2.03,3.13-2.91,4.77-.69,1.29-1.48,2.53-2.21,3.79-.23.4-.45.81-.67,1.23-.73,1.38-1.46,2.77-2.17,4.16-.32.62-.57,1.28-.91,1.89-.84,1.47-1.52,3.03-2.43,4.47-.24.39-.56.73-.93,1.01-.92.7-1.85,1.4-2.69,2.2-1.13,1.08-2.24,2.16-3.43,3.18-.85.74-1.66,1.53-2.42,2.37-.53.55-1.09,1.07-1.69,1.54-.51.43-1.08.78-1.7,1.03-.21.09-.45.14-.68.13-.23,0-.46-.07-.67-.18-.32-.17-.62-.38-.89-.63-.44-.4-.85-.85-1.25-1.28-1.05-1.11-2.08-2.24-3.15-3.33-.62-.6-1.18-1.26-1.69-1.95-.17-.24-2.28-3.21-3.28-4.37-.63-.73-2.45-3.3-3.38-5.14-.61-1.21-.58-3.44-.41-3.99.12-.41,1.01-3.76,1.47-4.97.12-.31.77-3.4.81-3.66.05-.36.12-.72.16-1.09.02-.2.02-.4,0-.6-.04-.36-.3-.58-.67-.61-.31-.02-.6.01-.86.2-.64.47-1.26.98-1.7,1.65-.86,1.31-1.74,2.6-2.44,4-.12.23-.28.45-.47.63-.06.06-.28.03-.35-.04-.11-.12-.2-.26-.26-.42-.47-1.07-.94-2.14-1.41-3.2-.21-.49-2.14-3.42-2.84-4.43-.37-.55-.78-1.06-1.23-1.54-.23-.24-2.61-2.71-3.57-2.23-.97.47-.72,1.09-.51,1.6.55,1.29,3.61,7.82,3.9,8.07.09.1.15.22.19.35,0,.03,0,.06,0,.09,0,.03-.02.06-.04.08-.04.03-.15.05-.18.02-.21-.21-.41-.43-.62-.64-.28-.28-.53-.6-.84-.84-.84-.66-1.69-1.29-2.54-1.92-.37-.28-.76-.54-1.17-.77-1.17-.64-2.39-1.19-3.64-1.64-.53-.19-1.07-.1-1.56.05-.49.15-.76.8-.6,1.33.1.35.24.68.54.93,1.06.89,2.06,1.86,3.06,2.82.9.88,3.68,3.39,3.87,3.58.11.13.19.27.24.43.02.04-.03.13-.07.15-.03.01-.06.02-.09.02-.03,0-.06,0-.09-.02-.22-.19-.42-.42-.65-.6-.44-.36-.89-.69-1.34-1.03-.93-.69-1.85-1.42-2.91-1.91-.43-.21-2.56-1.41-3.99-1.67-1.13-.21-1.63.42-1.81.94-.42,1.18,2.98,3.79,3.93,4.66.83.77,1.69,1.5,2.57,2.21.34.27,1.6,1.64,2.05,1.88.05.04.08.1.08.17.02.11-.27.41-.39.39-.23-.03-.47-.03-.69-.11-.84-.32-1.69-.62-2.5-1.02-1.29-.65-2.65-1.08-3.96-1.68-.21-.09-.43-.17-.65-.24-.22-.06-.45-.11-.67-.14-.44-.06-.74.1-.99.49-.23.36-.28.66-.06,1.01.06.12.13.23.22.33.69.72,1.4,1.41,2.24,1.96,1.14.74,2.24,1.56,3.35,2.35.11.08.21.16.31.25.84.84,1.71,1.67,2.52,2.55.9.98,1.43,2.12,1.49,3.5.05,1.16.21,2.31.34,3.46.24,2.11.6,4.2.92,6.3.11.75.27,1.5.47,2.23.21.73.39,1.47.57,2.21.16.64.34,1.28.55,1.91.15.44.77,2.19.94,2.62.55,1.35,1.14,2.69,1.6,4.08.38,1.17.94,2.28,1.43,3.41.3.71.81,1.74-.46,3.17-.7.8-1.42,1.58-2.11,2.39-.45.53-.86,1.1-1.29,1.65-.16.21-.32.43-.47.65-.75,1.06-1.51,2.11-2.24,3.18-.6.88-1.2,1.76-1.73,2.68-.97,1.67-1.93,3.34-2.82,5.06-.68,1.3-1.28,2.63-1.88,3.97-.7,1.58-1.29,3.2-1.79,4.86-.05.12-.1.24-.17.36-.13.27-.27.53-.4.8-.11.24-.2.49-.32.73-.02.02-.04.04-.06.05-.02,0-.05.02-.08.01-.1-.1-1.22-1.28-2.15-2.04-1.33-1.09-3.55-2.71-3.75-2.83-.96-.61-1.8-1.36-2.66-2.1-.13-.11-.25-.22-.38-.32-1.25-.93-2.51-1.86-3.76-2.8-.51-.38-.99-.79-1.49-1.17-.5-.38-1.01-.75-1.53-1.12-1.13-.82-2.24-1.68-3.4-2.46-1.52-1.03-3.03-2.05-4.61-2.97-1.78-1.04-3.66-1.9-5.37-3.06-.08-.06-.18-.09-.26-.14-.93-.52-1.91-.94-2.8-1.53-.56-.38-1.18-.61-1.79-.87-.95-.4-1.89-.83-2.83-1.26-.52-.24-1-.53-1.53-.73-1.29-.46-2.54-.99-3.77-1.59-.14-.07-.21-.15-.15-.3.21-.54.17-1.04-.28-1.47-.13-.15-.24-.32-.32-.5-.28-.57-.67-1.06-1.04-1.57-.52-.7-1.16-1.28-1.71-1.95-.27-.33-.54-.69-.86-.96-1.04-.88-2.09-1.75-3.19-2.57-1.57-1.18-3.2-2.28-4.77-3.46-1.07-.81-2.18-1.53-3.47-1.94-.77-.24-1.46-.64-2.13-1.09-.39-.26-.79-.5-1.19-.74-.14-.09-.29-.17-.44-.24-.47-.19-.94-.45-1.35.13-.41.58.37,1.25.49,1.36.43.41.81.88,1.36,1.17,1.1.57,2.08,1.31,3.1,2,1.13.76,2.23,1.57,3.32,2.39.33.25.77.43.87.91.04.18-.41.02-1.18-.5-1.1-.75-2.28-1.38-3.52-1.85-.85-.3-1.69-.65-2.5-1.06-.6-.3-1.22-.54-1.86-.72-1.57-.45-3.15-.84-4.72-1.27-.87-.24-1.73-.49-2.59-.73-.35-.1-.71-.16-1.06-.28-.69-.24-1.38-.51-2.07-.75-.25-.09-.51-.14-.78-.16-.43-.01-.81.48-.65.89.11.29.1.58.11.88.04.69.31,1.02.96,1.22.51.15,1.02.31,1.51.5,1.99.76,3.93,1.66,5.97,2.3.38.12.76.29,1.15.32.57.04,1.01.31,1.46.58.03.02.04.05.05.08,0,.03,0,.07-.02.09-.02.02-.04.04-.07.05-.15.05-.35.14-.47.09-.62-.28-1.29-.33-1.93-.5-1.13-.29-2.27-.55-3.4-.79-1.53-.33-3.1-.43-4.65-.6-.63-.08-1.26-.11-1.89-.08-.9.04-1.79.12-2.65.36-.62.17-.73.43-.5,1.05l.08.19c.04.07.09.14.16.19.07.05.15.07.23.08.1.02.2,0,.3,0,.5.04.98-.1,1.48-.17.77-.12,1.54-.16,2.32-.14.29,0,.57,0,.86.02,1,.06,1.98.22,2.98.32,1.52.15,3.03.4,4.52.77,1.42.35,2.83.74,4.24,1.13.96.27,1.91.57,2.87.86.7.21,1.34.58,2.01.88,1.01.43,1.97.96,2.87,1.58.27.19.56.36.85.52.79.42,1.58.85,2.3,1.4.2.15.48.22.72.31.13.05.33-.09.4-.24.05-.09.07-.19.06-.29-.01-.1-.06-.19-.12-.27-.38-.41-.77-.82-1.24-1.14-.52-.35-1.04-.72-1.56-1.08-.36-.24-.71-.5-1.08-.72-2.09-1.25-4.24-2.37-6.41-3.46-.86-.43-1.73-.86-2.6-1.26-1.21-.55-2.43-1.1-3.67-1.59-1.18-.47-2.38-.87-3.56-1.3-.5-.18-.98-.42-1.52-.48-.13-.02-.26-.07-.37-.14-.22-.12-.42-.28-.64-.42.27-.23.48.06.72.08.07.01.13.03.19.04,1.03.26,2.07.5,3.09.79,1.44.41,2.86.88,4.3,1.31,1.43.43,2.87.85,4.3,1.28,1.7.51,3.29,1.29,4.86,2.09.53.28,1.03.61,1.5.99.82.63,1.64,1.26,2.49,1.84.82.57,1.61,1.17,2.28,1.93.35.4.79.71,1.24,1,.07.04.16.06.24.05.08-.01.16-.06.21-.12.04-.05.06-.11.08-.17.01-.06.01-.12,0-.19-.11-.31-.29-.6-.52-.83-.42-.43-.8-.88-1.19-1.33-.72-.82-1.53-1.56-2.33-2.31-.41-.39-.87-.72-1.27-1.11-.4-.39-.85-.73-1.25-1.12-1.06-1.01-2.12-2.01-3.28-2.91-.03-.02-.05-.04-.06-.07-.02-.06-.05-.13-.03-.18.02-.03.04-.05.07-.06.03-.01.06-.02.09-.02.18.07.36.16.52.26.48.35.91.77,1.38,1.14,1.5,1.16,2.97,2.36,4.45,3.55.73.58,1.46,1.16,2.19,1.74.61.46,1.16.99,1.66,1.58.56.7,1.17,1.36,1.76,2.04.41.48.82.96,1.21,1.45.27.34.24.52-.07.85-.09.1-.18.19-.27.29-.19.21-.02.45-.04.68-.02.18.14.21.24.27.56.37,1.18.58,1.77.88.98.5,2.01.88,3.03,1.28.43.17.84.39,1.26.6.65.33,1.29.69,1.98.94,1.61.57,3.11,1.38,4.59,2.21,1.46.81,2.87,1.68,4.33,2.48,1.58.86,3.12,1.79,4.62,2.77.33.22.66.46,1.01.65,1.27.68,2.39,1.58,3.53,2.43,1.31.98,2.65,1.9,3.89,2.97.02.02.05.04.08.07,1.44,1.02,2.92,1.98,4.24,3.16.1.09.22.15.32.23,1.04.78,2.11,1.52,3.06,2.41.78.73,1.64,1.35,2.5,1.98.65.47,2.9,2.59,3.14,2.87.08.08.14.18.17.29.03.11.02.23-.02.33-.37,1.31-.63,2.65-.78,4-.07.58-.34,1.08-.52,1.61-.03.04-.06.07-.1.1-.04.03-.09.04-.14.04-.05,0-.09,0-.14-.02s-.08-.05-.11-.08c-.44-.79-.97-1.5-1.49-2.24-.43-.62-.83-1.28-1.28-1.89-.23-.32-4.2-4.69-5.25-5.66-1.52-1.4-3.14-2.68-4.73-3.98-.03-.02-.06-.03-.08-.05-.62-.45-1.23-.91-1.85-1.36-.43-.31-.85-.64-1.3-.92-1.93-1.18-3.89-2.31-5.8-3.54-2.38-1.53-4.86-2.9-7.27-4.38-.54-.33-1.09-.65-1.58-1.05-.7-.56-1.49-1.01-2.33-1.32-.96-.38-1.91-.79-2.84-1.23-.87-.41-1.65-.97-2.58-1.28-.97-.32-1.91-.53-2.87-.01-.12.06-.25.1-.37.16-.36.21-.76.25-1.16.26-.53,0-1.06-.03-1.59-.07-.23-.01-.46-.05-.68-.12-.73-.22-1.45-.46-2.18-.68-.13-.03-.26-.04-.39-.05-.1-.01-.19-.05-.27-.1-.08-.06-.15-.13-.2-.22-.21-.36-.54-.54-.94-.67-.82-.27-1.66-.48-2.51-.64-.55-.11-1.1-.25-1.66-.36-1.07-.21-2.12-.53-3.2-.72-.95-.17-1.9-.3-2.86-.44-1.35-.2-2.69-.48-4.05-.53-.2-.01-.4-.03-.6-.07-1.74-.27-3.51-.36-5.27-.28-.5.04-1,.02-1.49-.05-.59-.11-1.19-.14-1.78-.1-.07,0-.13-.02-.18-.06-.04-.04-.06-.15-.04-.16.09-.09.2-.16.32-.19.42-.07.85-.1,1.28-.16,1.12-.16,2.23-.33,3.37-.2.23.01.46,0,.7-.02.93-.05,1.86-.12,2.78.07.2.04.4.04.6.06,1.62.17,3.25.31,4.84.66.36.08.72.13,1.09.15,1.11.05,2.18.25,3.19.73.3.14.63.21.97.2.07,0,.13-.02.18-.06.05-.04.09-.1.12-.16.08-.17.07-.35-.07-.45-.21-.16-.44-.29-.69-.4-1.99-.87-4.08-1.45-6.2-1.86-1.86-.35-3.74-.67-5.6-1.01-1.41-.26-2.82-.51-4.25-.58-.5-.02-.99-.11-1.49-.18-.66-.09-1.31-.21-1.97-.29-.26-.03-.53.02-.79,0-.3-.02-.59-.06-.89-.1-.1-.02-.19-.05-.28-.09-.03-.01-.08-.05-.07-.06.02-.05.05-.13.08-.15.48-.15,1,.02,1.47-.19,2.35-.2,4.7-.45,7.06-.29.73.05,1.46.04,2.19.06.9,0,1.8.08,2.68.24.85.16,1.7.31,2.56.43,1.19.17,2.36.42,3.48.85.85.31,1.75.46,2.65.45.2,0,.39-.05.57-.14.24-.11.33-.51.15-.69-.18-.19-.39-.36-.61-.5-.37-.22-.76-.42-1.14-.62-1.36-.72-2.8-1.25-4.21-1.83-1.08-.44-2.21-.76-3.36-.95-2.72-.47-5.42-1.07-8.09-1.79-.35-.09-.72-.13-1.09-.12-.16,0-.32.03-.48.06-.27.06-.54.08-.81.07-.23-.02-.43.38-.36.6.1.28.28.45.58.48.53.06,1.05.16,1.56.3,1.26.33,2.53.56,3.82.71,1.09.12,2.16.37,3.24.58.62.12,1.24.27,1.85.4.62.13,1.23.29,1.85.39.62.1,1.14.54,1.77.62.05,0,.08.07.12.12-.05.04-.1.13-.14.12-.53-.01-1.09.07-1.58-.08-1.19-.36-2.42-.46-3.64-.56-1.79-.15-3.59-.22-5.38-.31-.4-.02-.8-.01-1.2,0-1.23.05-2.45.14-3.68.11-.13-.02-.27,0-.4.02-.78.23-1.58.18-2.36.13-.64-.05-1.15.27-1.68.54-.11.06-.18.2-.26.3-.13.17-.08.36.1.53.13.12.41.09.42.36.02.59.43.78.9.9.22.06.46.06.69.11.75.14,1.51.16,2.27.24.95.11,1.91.28,2.88.21.4-.02.8.03,1.19.14.48.12.99.17,1.48.12.5-.03,1,0,1.49.08.46.08.91.18,1.36.27.09.02.1.06.03.13-.02.02-.05.04-.08.06-.2.1-.4.03-.58-.04-.42-.15-.85-.16-1.28-.15-1.99.04-3.97.19-5.95.42-.73.09-1.44.25-2.1.59-.3.16-.44.58-.24.86.22.33.46.64.74.93.16.17.37.28.6.31.53.05,1.06.07,1.59.05.73-.02,1.46-.06,2.19-.11.83-.06,1.66-.1,2.48.04,1.31.21,2.64.33,3.97.37.6.02,1.19.1,1.78.24.34.08.7.24,1.07.1.59.1,1.17.21,1.76.32.03,0,.05.04.08.06-.05.04-.1.11-.15.11-.53-.03-1.06-.1-1.59-.11-.29-.01-.6.13-.88.07-.7-.15-1.39-.03-2.09-.05-1.23-.04-2.45.06-3.64.44-.56.18-1.16.26-1.74.4-.13.03-.25.09-.36.16-.11.08-.2.18-.27.29-.1.15-.08.34.08.42.2.1.4.19.61.28-.24.28-.49-.03-.74.03-.23.05-.46.09-.68.15-.22.06-.27.27-.31.46-.04.2.08.3.23.4.31.2.64.15.97.12,1.52-.12,3.05-.23,4.58-.23,1.03,0,2.06-.06,3.08-.13.92-.08,1.86-.09,2.79-.08,2.22.03,4.45,0,6.67.01.66,0,1.32.14,1.98,0,.12-.02.26.05.39.07.2.02.4.09.59.06.7-.12,1.39.08,2.08.08.33.01.66.08.96.21.49.18.97.41,1.52.39.04,0,.08.06.11.08-.05.04-.1.12-.15.11-.86-.07-1.72-.11-2.57-.24-1.35-.2-2.71-.22-4.07-.25-.26,0-.53.07-.79.05-1.77-.12-3.52.14-5.26.36-1.42.17-2.83.38-4.26.36-.66,0-1.34,0-1.98.19-.64.17-1.3.29-1.96.36-1.15.13-2.28.43-3.41.67-.35.07-.69.25-1.02.41-.28.13-.38.44-.3.77.04.17.21.31.36.27.84-.21,1.69-.29,2.54-.45.95-.19,1.89-.32,2.85-.42,1.09-.12,2.17-.28,3.26-.43,1.64-.22,3.28-.47,4.93-.67,1.35-.16,2.7-.29,4.06-.41,1.13-.1,2.27-.02,3.37.22.39.08.79.14,1.18.16,1.03.07,2.06.08,3.08.31.43.1.78-.02,1.12-.27.21-.15.44-.29.66-.43.95-.61,2.04-.77,3.12-.94.23-.05.46-.04.69.03.67.28,1.4.4,2.03.83.48.34,1.05.58,1.59.82,1.1.49,2.2.95,3.3,1.44.37.16.71.36,1.03.6.55.44,1.13.82,1.75,1.15.33.16.65.34.95.55.89.65,1.83,1.22,2.81,1.71,1.88.96,3.58,2.19,5.36,3.28,1.31.79,2.6,1.61,3.91,2.41.54.33,1.06.7,1.57,1.07.78.56,1.56,1.13,2.33,1.71.67.5,1.33,1,1.97,1.53.51.42,1,.88,1.49,1.33.34.31.68.63,1.02.95,1.06,1.01,4,3.99,4.84,5.24.84,1.25,1.44,2.15,1.92,2.78.23.28.42.59.59.92.26.55.49,1.1.72,1.65.47,1.1.5,2.26.31,3.41-.12.79-.88,5.76-.94,6.28-.02.15-.16.18-.3.09-.33-.22-.61-.51-.81-.86-.49-.8-1.16-1.44-1.81-2.11-.61-.63-1.35-1.08-1.98-1.67-.94-.85-1.97-1.59-3.08-2.2-1.3-.76-2.65-1.41-4.05-1.95-.4-.16-.84-.2-1.26-.11-.46.09-.92.22-1.24.59-.39.45-.77.9-1.06,1.44-.44.82-.89,1.63-1.29,2.47-.15.31-1.27,3.25-1.85,6.47-.69,3.85-.85,8.2-.98,10.39-.24,4.02-.16,5.77.03,7.72.19,1.95,1.01,4.32,1.22,4.8.21.47.55.83.94,1.15.33.29.76.45,1.2.44.8-.02,1.58-.67,1.81-1.48.04-.13.07-.25.11-.37.49-1.24,1.02-2.46,1.47-3.72.36-.96.84-1.88,1.44-2.72.05-.08.21-.09.26-.02.1.13.19.27.27.42.18.43,1.48,2.43,1.79,3.09.13.27.28.53.46.76.48.63.92,1.3,1.35,1.97.64,1.01,1.38,1.95,2.2,2.82.46.48.95.93,1.39,1.42.34.36.72.69,1.12.98.46.33.9.69,1.31,1.08.39.37.81.69,1.27.96.37.23.76.42,1.12.65.82.53,1.73.87,2.66,1.15.67.21,1.38.27,2.07.17.46-.07.92-.11,1.38-.18.59-.09,1.17-.25,1.72-.46,1.37-.54,2.61-1.33,3.92-1.95.54-.47,5.04-3.02,5.75-3.51.25-.17.51-.32.74-.5.36-.29.71-.58,1.13-.77.4.23.81.43,1.2.68.36.24.71.5,1.03.78.39.33,2.89,1.55,3.62,2.08.92.66,1.95,1.16,3.05,1.46.29.08.56.19.83.33.77.39,1.58.72,2.41.97.44.13.89.26,1.34.39.73.23,1.46.48,2.19.69.42.11.84.19,1.27.25.59.1,1.19.16,1.77.27.79.14,1.58.25,2.38.32.96.08,1.93.17,2.88.33,2.03.37,4.11.44,6.16.23,1.58-.17,3.18-.25,4.75-.49.46-.07.93-.06,1.39-.1.4-.03.79-.07,1.19-.12.79-.11,1.58-.22,2.36-.34.36-.05,6.75-.98,7.94-1.26,1.03-.25,2.08-.4,3.15-.46.99-.07,1.99-.15,2.98-.21,1.1-.08,2.2-.03,3.28.15,1.55.27,2.78,1.05,3.83,2.18.23.24.42.51.57.81.22.44,2.01,3.55,3.38,6.79,1.37,3.24,2.1,5.83,2.61,6.96.32.69.68,1.37,1.07,2.02.6,1.01,1.46,1.91,2.43,1.63.74-.22,1.41-.59,2.08-.97.6-.35,4.83-2.6,6.39-3.61,1.57-1,9.47-5.61,10.92-6.65,1.45-1.04,3.93-3.43,3.58-4.8-.14-.57-.65-1.27-2.75-1.13-2.23.15-5.74,1.05-7.04,1.29-.44.08-.8-.02-.74-.85.04-.66.09-2.64.18-4.42.16-3.25.59-6.75.82-7.93.14-.79.21-1.58.2-2.38,0-.9.24-2.92-.85-5.96-1.09-3.04-5.47-5.96-6.31-6.32-.43-.18-.87-.34-1.3-.52-.93-.38-1.9-.63-2.89-.74-.93-.12-1.13-.46-.65-1.23.59-.93.97-1.97,1.5-2.93.1-.17,1.61-3.21,1.83-3.85.09-.26.28-.31.57-.17.45.21.94.35,1.43.4.39.05.79.11,1.17.2.68.17,1.38.27,2.07.3.5.01,1,.15,1.43.41.54.32,1.03.73,1.44,1.21,1.15,1.34,2.11,2.81,3.15,4.22.1.44.5.5.83.62.11.04.23.06.34.05.12,0,.23-.04.33-.1.1-.06.19-.13.26-.23.07-.09.12-.2.14-.32.18-.75.09-1.54-.25-2.23-.3-.63-.56-1.28-.82-1.93-.03-.12-.02-.25.02-.37.03-.12.05-.11.26.15.32.38.59.8.81,1.25.14.29.32.56.52.82.51.66.97,1.34,1.39,2.05.22.37.47.72.85.95.19.13.42.17.65.13s.42-.18.55-.37c.02-.04.05-.08.07-.12.34-.71.28-1.44.04-2.14-.28-.81-.64-1.59-.9-2.42-.24-.75-1.17-2.37-1.23-2.49-.17-.37-.3-.74-.59-1.04-.07-.08-.05-.25-.05-.38,0-.03.02-.05.04-.06.02-.02.04-.03.07-.04.16.04.31.12.44.23.13.11.23.24.29.4.14.3,2.1,3.84,2.32,4.28.2.42.39.85.61,1.26.29.54.76.82,1.39.77.1,0,.23-.02.28-.08.27-.33.6-.59.68-1.07.13-.79.24-1.54.05-2.35-.26-1.07-.49-2.13-1.04-3.1-.42-.75-.87-1.49-1.23-2.27-.08-.18-.23-.32-.33-.49-.11-.2-.21-.41-.31-.62-.04-.09,0-.14.09-.12.1,0,.2.03.29.06.79.33,1.34.95,1.93,1.54.14.14.95.91,1.16,1.2.39.54.91.96,1.33,1.46.04.05.09.1.15.13.58.41,1.33.14,1.5-.54.14-.59.09-1.2-.14-1.76-.23-.56-1.72-3.04-2.06-3.5-.28-.41-.61-.78-.97-1.12-.47-.41-.87-.91-1.29-1.38-.11-.13-.2-.27-.26-.42-.04-.08-.04-.16-.02-.24.03-.08.08-.15.16-.19.05-.03.11-.04.16-.03.53,0,1.06.12,1.56.32.38.16.78.18,1.18.18.23,0,.46-.08.65-.21.65-.48.78-1.33.37-2.05-.19-.31-.46-.57-.79-.74-.93-.52-1.85-1.06-2.78-1.57-.47-.25-2.17-.99-4.77-.56-2.6.43-3.92.66-4.31.7-.67.06-1.33.07-1.97-.16s-1.32-.46-1.96-.75c-.6-.27-1.49-1.01-1.81-1.62-.32-.61-.48-.88-.46-1.4,0-.66.04-1.33.12-1.99.22-1.48.25-2.99.1-4.48-.03-.24-.05-.46.03-.69.06-.17.16-.23.36-.27.35-.07,3.29.22,4.16.26,2.5.11,5.21.27,7.69.04,1.81-.17,3.61-.51,5.42-.76.62-.09,5.33-1.3,6.42-1.7.37-.14,3.34-1.3,4.44-1.78,0,.01,3.63-1.83,5.78-3.12,2.15-1.29,5.26-3.4,8.84-6.97s5.62-6.11,7.19-9.6c1.57-3.49,2.41-8.38,1.24-12.37-1.18-3.99-2.21-5.54-5.22-8.74-3.01-3.2-5.69-4.95-6.49-5.37-1.63-.84-2.89-2.13-4.19-3.36-1.34-1.25-2.32-2.81-3.39-4.28-.6-.83-2.18-3.6-2.62-3.97-.12-.1-.16-.29-.23-.44-.26-.58-.86-1.78-1.46-2.82-.6-1.04-.76-1.24-1.15-1.85-.07-.11-.18-.22-.2-.34-.11-.85-.54-1.57-.86-2.33-.22-.52-.76-2.16-.87-2.43-.33-.84-3.88-10.29-4.01-10.84-.17-.75-.47-1.45-.75-2.16-.76-1.89-3.33-6.65-3.6-7.11-.25-.43-.23-.85.03-1.31.83-1.48,1.61-2.99,2.41-4.48.47-.88.97-1.75,1.44-2.63.42-.8.81-1.6,1.2-2.41.14-.3.26-.62.36-.94.24-.73.43-1.47.73-2.18.8-1.9,1.11-3.9,1.26-5.93.02-.2,0-.4.02-.6.05-.53-.15-1.49-.77-1.75-.62-.26-1.85-.19-4.97,1.6ZM27.9,104.89s-.04.06-.07.06c-.13,0-.26.01-.39,0-1.19-.07-2.39-.07-3.58,0-.99.06-1.99.04-2.99.02-1.22-.03-2.45-.05-3.68,0-.23,0-.47-.01-.7-.03-.4-.02-.79-.04-1.19.06-.19.05-.39.07-.59.05-.79-.08-1.59-.03-2.37.13-.07,0-.13,0-.19-.03-.05-.03-.09-.07-.12-.12,0-.02,0-.03.02-.05,0-.01.02-.02.03-.03.48-.11.96-.25,1.45-.31,1.15-.14,2.31-.26,3.46-.36,1.89-.15,3.78-.15,5.67.01.83.07,1.65.09,2.48-.03.53-.07,1.06-.06,1.58.03.45.07.79.31,1.16.52.01.01,0,.05.02.08Zm153.45,28.55c.18.08.36.17.53.27.96.57,2,.69,3.08.54.76-.1,1.51-.21,2.26-.33.56-.09,1.12-.15,1.66-.31.55-.14,1.11-.23,1.67-.26.9-.09,1.8.04,2.63.38.86.36,1.65.84,2.44,1.33.02.02.04.04.06.07-.05.03-.11.11-.15.1-.39-.07-.78-.15-1.18-.22-1.29-.23-2.58-.14-3.86.12-.78.16-1.54.37-2.31.58-.26.07-.5.18-.73.32-.2.11-.38.26-.53.44-.42.51-.31,1,.28,1.31.09.05.18.08.28.09.1,0,.2-.01.29-.05.37-.17.73-.33,1.1-.48.34-.14.68-.26,1.02-.41.55-.24,1.03-.16,1.47.24.16.12.32.24.5.33.17.11.36.18.5.32.68.67,1.44,1.28,2.01,2.05.44.62.92,1.21,1.42,1.78.47.51.71,1.11.94,1.73.01.03-.06.09-.1.13-.02.02-.08.03-.09.01-.23-.24-.5-.44-.67-.72-.49-.77-1.12-1.39-1.77-2.01-.18-.15-.37-.28-.57-.39-.59-.37-1.18-.74-1.78-1.09-.41-.23-.88-.34-1.34-.3-.39.03-.69.26-.74.64-.09.62.02,1.19.42,1.69.56.7,1.11,1.4,1.6,2.14.16.25.31.51.44.78.32.69.58,1.43.99,2.07.44.69.5,1.41.48,2.17,0,.1-.03.2-.06.29-.03.09-.29.15-.35.06-.14-.18-.26-.38-.37-.58-.62-1.44-1.46-2.75-2.36-4.03-.47-.68-.98-1.33-1.54-1.95-.41-.45-1.08-.5-1.5-.1-.39.36-.79.75-.7,1.36.02.15.06.35.17.44.5.46,1.49,2.71,1.88,3.13.11.12.16.29.23.44.34.76.66,1.53,1,2.29.2.43.21.9.34,1.34,0,.01-.02.05-.04.06-.02,0-.08.02-.1,0-.1-.08-.24-.15-.28-.26-.19-.59-.59-1.04-.95-1.51-.44-.58-.84-1.19-1.19-1.83-.51-.89-1.1-1.74-1.77-2.51-.19-.22-.45-.38-.68-.58-.25-.22-.54-.25-.84-.23-.64.04-1,.6-.75,1.2.23.56.48,1.1.72,1.65.2.46.43.91.6,1.38.15.4.23.82.34,1.24.01.03-.01.06-.02.09-.03,0-.07,0-.1-.03-.43-.37-2.5-3.04-2.69-3.27-.78-.98-1.8-1.43-3.02-1.52-.57-.04-1.13-.09-1.69-.18-.91-.16-1.82-.4-2.69-.72-.06-.02-.11-.07-.14-.12-.03-.06-.03-.12,0-.18v-.02c.32-.77.42-1.61.81-2.36.18-.35.29-.74.4-1.12.56-1.81,1.14-3.62,1.53-5.48.17-.81.29-1.64.43-2.46.02-.13.03-.27.06-.39.05-.21.37-.37.56-.26.2.12.39.25.56.4.57.51,1.22.93,1.93,1.24h0Zm18.27-116.81c-.32.84-.6,1.69-.99,2.5-.6,1.26-1.26,2.49-1.98,3.68-.33.53-1.45,2.72-1.78,3.22-.06.07-.13.14-.21.18-.3.15-1-.4-.8-.99.2-.59,1.4-2.72,1.59-3.14.28-.62.4-.75,1-1.76.6-1.01,2.33-3.58,2.58-4.02.25-.43.34-.42.53-.33.2.09.13.46.06.65Zm1.85-7.36c.06.74.02.91-.26,2.15-.29,1.25-1.14,1.45-2.02,2.31-.88.87-1.47,1.89-2.05,2.95-.41.76-.94,1.45-1.41,2.18-.88,1.34-1.7,2.7-2.35,4.16-.35.76-.75,1.49-1.19,2.19-.22.36-.21.6-.04.98.38.82.88,1.56,1.41,2.28.11.17.21.34.3.52.5.94,1.02,1.86,1.49,2.82.5,1.01,1.09,1.97,1.54,3.01.06.15.81,1.83.98,2.26.27.65,2.38,6.21,2.76,7.47.33,1.09,2.34,6,2.81,7.35.05.09.08.18.11.28,0,.16.03.35-.04.47-.1.17-.3.09-.45.03-.5-.19-1.34-.51-1.85-.67-.92-.3-2.18.09-4.15,1.18-1.97,1.09-2.56,3.32-2.79,4.45-.26,1.24-.72,3.09.12,5.5.84,2.42,1.39,2.83,2.14,3.63.55.58,3.32,3.02,6.68,1.55,3.36-1.47,4.79-4.54,4.97-5.68,0-.03,0-.05.02-.08.01-.02.03-.05.05-.06.02-.02.05-.03.07-.04.03,0,.05-.01.08,0,.03,0,.06.01.08.02.02.01.05.03.06.06.17.2.36.4.48.63.43.87,1.07,1.6,1.62,2.39,1.1,1.59,2.47,2.95,3.8,4.34.82.87,1.79,1.57,2.83,2.2,1.34.81,2.67,1.64,3.86,2.66.61.52,1.29.93,1.85,1.52.8.85,1.63,1.66,2.44,2.49.51.53.92,1.12,1.33,1.73.41.6.69,1.29,1.04,1.92.16.29,1.47,3.13,1.64,4.95.17,1.82.03,2.53-.21,3.78-.16.85-.26,1.71-.37,2.57-.09.59-.23,1.17-.42,1.74-.52,1.61-1.47,2.98-2.37,4.38-.76,1.18-1.64,2.26-2.53,3.34-1.15,1.4-2.5,2.57-3.79,3.81-1.03.99-2.06,1.98-3.23,2.8-.43.3-5.43,3.87-9.7,5.89-4.27,2.02-9.62,3.17-10.1,3.27-1.43.28-7.71.99-8.07,1.02-.99.09-7.28-.3-9.02-.58-.74-.12-3.74-.71-5.6-1.33-1.86-.62-9.18-5.46-10.4-6.6-.54-.5-1.04-1.03-1.59-1.5-.44-.4-.84-.85-1.18-1.34-.22-.29-.42-.6-.66-.87-.67-.78-1.38-1.53-2.04-2.32-.4-.49-.77-1-1.1-1.53-.61-.99-1.29-1.92-1.92-2.9-.13-.23-.25-.47-.34-.72-.37-.82-.74-1.63-1.24-2.39-.42-.63-.66-1.38-.98-2.08-.15-.34-.29-.68-.41-1.02-.17-.5-.33-1-.49-1.51-.31-1.01-.7-2-.91-3.04-.03-.1-.06-.19-.11-.28-.44-.98-.55-2.05-.83-3.07-.15-.54-.21-1.1-.37-1.64-.26-.93-.37-1.89-.48-2.84-.08-.66-.16-1.32-.24-1.97-.14-1.12-.19-2.25-.14-3.38.07-1.2.04-2.39-.07-3.59-.05-.53-.01-1.06-.04-1.59-.02-.5,0-1-.24-1.46-.04-.09-.11-.17-.19-.22-.08-.05-.18-.09-.28-.09-.25-.02-.37.14-.48.3-.09.14-.15.3-.17.46-.17,1.22-.33,2.43-.19,3.68.08.69.04,1.39.05,2.09,0,.53.37,5.89.49,6.6.2,1.14.34,2.3.56,3.44.25,1.3.54,2.6,1.07,3.82.18.42.91,2.9.95,3.03.14.51,1.84,4.25,2.27,5.18.17.36,1.18,2.26,1.33,2.67.32.89.86,1.65,1.39,2.41.16.21.31.43.44.66.41.88,1.01,1.63,1.63,2.36.54.63,1.05,1.29,1.6,1.9.65.7,1.34,1.39,2.03,2.05,1.08,1.04,2.17,2.06,3.26,3.08.46.43.96.82,1.5,1.15.74.45,1.43.98,2.17,1.43.76.48,1.55.9,2.33,1.35.35.2.72.36,1.04.59.84.62,4.56,2.27,5.58,2.33.29.02.49.21.59.47.13.31.19.64.19.97-.02,1.06,0,2.13-.02,3.19-.01.67-.06,1.33-.13,1.99-.1.99-.2,1.99-.38,2.97-.3,1.67-.64,3.33-.99,4.99-.1.52-.28,1.03-.43,1.54-.36,1.28-.67,2.58-1.12,3.83-.34.94-.56,1.92-.88,2.86-.21.63-1.7,4.33-2.11,5.05-.6,1.07-1.23,2.14-1.83,3.21-.58,1.05-1.25,2.05-1.99,3-.35.45-.69.9-1.01,1.37-.6.88-1.28,1.7-2.04,2.45-.72.73-1.35,1.55-2.06,2.31-1.06,1.15-2.13,2.28-3.32,3.3-.6.52-1.2,1.05-1.76,1.61-.62.62-1.36,1.06-2.08,1.52-.45.28-.9.58-1.37.81-.96.48-1.76,1.18-2.67,1.73-.51.31-.98.68-1.47,1.02-.48.32-.57.7-.31,1.19.15.29.39.36.66.33.51-.06,1-.24,1.35-.58.44-.43,1-.64,1.49-.98.32-.23.67-.41.99-.66.66-.5,1.29-1.04,2.02-1.44.57-.32,1.07-.76,1.57-1.21.52-.46,1.13-.8,1.69-1.22.99-.74,1.93-1.51,2.72-2.47.47-.56,1.04-1.03,1.54-1.56.97-1.05,1.94-2.1,2.87-3.19.69-.81,1.44-1.57,2.04-2.44.21-.3.42-.6.64-.89.06-.08.14-.15.23-.19s.19-.05.29-.04c.3.04.59.08.89.15,1.07.25,2.13.51,3.2.77.13.02.26.06.38.11.86.43,1.73.86,2.58,1.3.18.09.35.2.49.34.77.73,1.68,1.31,2.41,2.09.71.75,1.21,1.67,1.45,2.67.18.71.37,1.4.46,2.14.15,1.15.15,2.32,0,3.48-.1.79-.22,1.58-.38,2.36-.16.88-.26,1.78-.29,2.68-.09,1.6-.22,3.19-.32,4.78-.09,1.5-.18,2.99-.25,4.49-.01.33,0,.66.07.99.07.41.26.76.64.96.14.08.31.11.47.1.36-.04.72-.12,1.07-.23.98-.33,1.99-.47,2.98-.76.25-.07,2.1-.59,2.8-.61.43-.02.86-.07,1.29-.1.48-.03.73.25.67.74-.02.19-1.34,1.56-1.82,2-.99.9-2.09,1.35-3.17,2.11-.49.34-.97.7-1.47,1.02-.33.21-4.81,2.91-6.42,3.77-1.12.6-6.54,3.89-6.75,3.98-.24.1-.84.43-1.1.48-.74.15-1.03-.28-1.5-.96-.23-.32-.43-.66-.6-1.03-.14-.34-.29-.67-.44-1.01-.21-.45-.37-.92-.48-1.41-.09-.48-1-3.54-1.47-4.54-.48-1.03-.97-2.05-1.4-3.1-.34-.84-.83-1.59-1.28-2.36-.38-.66-.81-1.29-1.24-1.91-.6-.88-1.32-1.67-2.14-2.35-1.03-.83-2.25-1.31-3.54-1.54-1.51-.27-3.04-.36-4.57-.26-.96.07-1.92.14-2.88.26-.79.1-1.56.27-2.35.41-.42.07-.85.15-1.28.19-1.52.11-7.42,1.2-8.71,1.5-.13.02-.26.02-.4.01-2.1.01-4.16.36-6.24.54-1.32.11-2.65.24-3.98.18-.83-.04-5.71-.62-6.44-.67-.53-.03-1.06-.09-1.58-.18-.69-.12-1.37-.28-2.05-.41-.62-.13-1.23-.31-1.81-.55-.71-.28-2.74-.92-3.02-1.03-1.03-.39-2.05-.8-3.08-1.19-.69-.26-2.25-1.25-4.14-2.37-1.88-1.11-2.92-1.86-3.01-1.89-.05-.02-.08-.09-.1-.15,0-.02.01-.07.04-.09.41-.33,2.38-1.75,2.55-2.47.04-.16.03-.33-.02-.49-.05-.16-.15-.3-.28-.41-.12-.12-.27-.19-.44-.22-.17-.03-.34,0-.49.06-.63.25-3.26,2.96-4.23,3.71-.89.69-1.82,1.32-2.74,1.97-.3.21-.59.42-.89.63-.72.49-5.08,3.14-7.62,3.82-2.53.67-3.83.97-8.09-2.2-4.25-3.17-5.27-5.32-5.74-6-.74-1.06-1.47-2.12-2.22-3.17-.45-.62-3.09-5.49-3.3-6.01-.13-.32-.38-.54-.59-.8-.18-.22-.47-.25-.73-.14-.11.04-.21.11-.27.21-.07.1-.1.22-.09.33,0,.23.03.46.09.68.11.38.27.76.46,1.11.33.56.21,1.06-.03,1.61-.44,1.01-.86,2.02-1.27,3.05-.28.68-.52,1.37-.81,2.05-.36.83-.74,1.64-1.12,2.45-.06.11-.16.2-.29.24s-.26.03-.37-.03c-.04-.02-.07-.05-.11-.07-.19-.19-.35-.4-.47-.63-.58-1.16-.9-2.44-.95-3.73-.07-1.49-.03-2.99-.2-4.48-.06-.52.04-1.06.05-1.59.02-.7,0-1.4.04-2.09.07-1.26.05-2.53.26-3.78.1-.62.64-5.5.8-6.22.1-.45.6-2.57.84-3.41.33-1.19.76-2.35,1.28-3.46.36-.78.8-1.53,1.22-2.29.09-.18.24-.33.42-.42.18-.09.38-.13.58-.1.1,0,.2.01.29.04.82.45,1.76.59,2.55,1.11.97.64,2,1.2,2.94,1.89,1.83,1.34,3.51,2.83,4.92,4.63.35.44.71.88,1.08,1.29.43.48.49,1,.44,1.57-.05.49-.19.98-.27,1.47-.07.39-.1.79-.09,1.19.03.46.41.67.87.53.23-.06.42-.21.55-.4.27-.38.44-.82.51-1.27.16-1.15.4-2.29.45-3.46.01-.36.45-3.89.53-4.14.42-1.38.56-2.81.83-4.21.12-.62.96-5.29,1.22-6.46.44-1.95.9-3.89,1.41-5.82.21-.74.46-1.46.75-2.17.53-1.37,1.06-2.74,1.64-4.08.79-1.83,1.59-3.67,2.54-5.42.02-.03.03-.06.05-.09,1.03-1.75,2.05-3.5,3.09-5.25.25-.43.55-.84.84-1.24.6-.84,1.21-1.67,1.82-2.5,1.08-1.47,2.17-2.94,3.43-4.28.22-.24.44-.5.66-.75.3-.35.71-.33.99.04.1.13.17.29.26.43.18.26.38.32.69.23.1-.03.19-.06.28-.1.47-.21.6-.48.41-.95-.27-.65-.55-1.29-.84-1.93-.4-.88-.81-1.75-1.16-2.5-.68-1.6-1.3-3.08-1.93-4.55-.05-.09-.09-.18-.12-.28-.3-1.31-.92-2.49-1.41-3.73-.26-.64-.46-1.3-.6-1.98-.16-.75-.44-1.46-.58-2.21-.17-.91-.61-1.75-.76-2.67-.11-.69-.27-1.37-.39-2.05-.14-.82-.25-1.64-.37-2.46-.13-.95-.22-1.91-.38-2.86-.17-.95-.29-1.9-.33-2.86-.04-1.07-.35-2.11-.89-3.03-.38-.62-.81-1.21-1.3-1.75-.95-1.08-1.95-2.08-3.15-2.88-1.05-.7-3.76-2.62-4.09-2.84-.1-.08-.19-.17-.27-.27-.01-.01-.02-.03-.02-.04,0-.02,0-.03,0-.05.03-.04.07-.11.11-.11.23,0,1.87.93,2.51,1.26.95.48,1.95.86,2.93,1.28.34.15.67.29,1.01.43.15.07.3.14.46.19.38.14.8.13,1.17-.02.38-.15.69-.43.87-.79.06-.11.1-.25.17-.36.36-.63.17-1.19-.31-1.62-.6-.54-1.08-1.16-1.56-1.8-.19-.23-.4-.44-.64-.63-.41-.34-.81-.7-1.24-1-.93-.65-1.71-1.48-2.58-2.2-.31-.25-1.52-1.26-1.78-1.55-.09-.1.01-.29.13-.31.41-.06,2.9,1.19,3.77,1.67,1.1.62,2.15,1.33,3.13,2.13.83.67,1.68,1.32,2.5,1.98.07.06.17.11.27.12.1.01.2,0,.29-.05l.18-.08c.71-.32.97-.97.71-1.72-.18-.52-.56-.9-.91-1.29-.99-1.07-2.02-2.11-3.04-3.16-.11-.12-2.08-1.9-2.94-2.58-.27-.21-.65-.71-.66-.8-.01-.15.05-.46.39-.39.35.07,1.69.98,2.26,1.31.58.33,2.46,1.59,2.87,1.8.57.3,1.04.72,1.52,1.13.38.33.73.67,1.11,1,.5.44,1.04.83,1.35,1.44.04.06.08.1.14.13.4.22,1.02,0,1.17-.43.13-.34.15-.72.04-1.08-.14-.44-.22-.9-.38-1.34-.15-.44-.37-.86-.56-1.29-.46-1.04-.92-2.07-1.36-3.12-.19-.45-1.1-2.11-1.23-2.34-.02-.05-.02-.17.01-.18.08-.05.2-.1.27-.07.22.08.42.19.6.34.55.53,1.03,1.13,1.44,1.77.58.93,1.15,1.86,1.73,2.78.85,1.37,1.42,2.86,2.07,4.31.13.3.26.61.39.92.18.41.28.83.13,1.26-.08.22-.06.46.04.68.1.23.24.4.5.44.13.03.27.01.39-.04.12-.06.22-.15.29-.27.15-.26.33-.51.42-.79.09-.28,1.17-2.07,1.7-2.94.93-1.53,2.18-3.52,2.32-3.71.09-.12.38-.04.4.11.04.19.05.39.04.59-.11.69-.38,1.33-.64,1.97-.1.25-.22.48-.3.73-.18.54-.33,1.08-.52,1.61-.24.65-.46,1.31-.63,1.99-.16.61-.38,1.21-.55,1.81-.1.35-.21.71-.22,1.07-.01.99.05,1.99.52,2.91.3.59.54,1.21.97,1.74.18.23.29.52.41.8.26.62.7,1.12,1.04,1.69.82,1.38,1.99,2.48,2.92,3.77.93,1.29,1.93,2.53,2.91,3.78.35.44.72.87,1.1,1.29.63.68,1.27,1.36,1.91,2.03.71.75,1.4,1.51,2.12,2.24.31.3.64.58.99.84.63.48,2.32.88,4.37-.66,2.05-1.53,4.15-3.67,4.58-4.09.36-.35,2.52-2.62,3.83-3.57.53-.38.89-.22.99-.14.33.31.71.32,1.05.06.22-.17,3.24-6.15,4.03-7.65.48-.92,3.19-6.06,3.93-7.4.73-1.31,1.52-2.58,2.29-3.87,1.13-1.89,2.26-3.77,3.4-5.65.29-.48.57-.98.9-1.44.74-.99,1.33-2.07,1.96-3.13.35-.6.74-1.19,1.16-1.74.49-.64.92-1.3,1.37-1.96.83-1.21,1.69-2.39,2.54-3.59.46-.65.93-1.3,1.37-1.97.75-1.15,1.64-2.18,2.54-3.2.37-.42.81-.78,1.23-1.15.18-.17.64-.05.77.19.1.18.17.37.28.53.15.24.56.23.78.02.15-.13.26-.3.32-.49.06-.19.06-.39.01-.59-.17-.8-.31-1.62-.48-2.43-.25-1.2-.44-2.41-.45-3.64,0-1.23.12-2.46.35-3.67.19-1.11.36-2.24.59-3.34.18-.85.44-1.67.64-2.51.47-1.99,1.28-3.85,2.13-5.7.14-.3.3-.59.43-.9.31-.77.71-1.51,1.19-2.19.25-.36.47-.73.74-1.07.23-.32.5-.62.8-.89.51-.42,1.03-.52,1.7.07.29.23.51.54.64.88.17.5.4.98.51,1.51.21.97.49,1.92.73,2.89.19.77.34,1.55.51,2.33.04.19.09.39.13.58.1.45.24.9.29,1.36.08.76.18,1.51.33,2.26.15.78.49,6.27.58,7.03,0,.13.05.26.13.37.08.11.19.19.32.24.38.15.61.08.86-.25.18-.25.26-.55.23-.85-.03-.46-.06-.93-.06-1.39,0-.63.22-.91.85-1.02.75-.12,1.51-.27,2.26-.28.83,0,1.66.07,2.48.19,1.49.19,2.95.54,4.35,1.06.76.29,1.43.17,2.08-.28.19-.13,1.32-1.42,1.51-1.65.68-.82,1.36-1.64,2.06-2.44.44-.5.89-.99,1.35-1.47.78-.81,1.63-1.56,2.55-2.22,1.04-.77,2.06-1.56,3.17-2.23.82-.49,1.61-1.06,2.54-1.37.19-.06.36-.14.58-.1.33.07.44.17.47.51Zm2.5,54.13c-.43-.37-1.04-.82-2.43-.47-1.39.34-1.55.58-1.9,1.23-.36.65-.22,1.7.14,2.32.07.11.13.23.18.36.01.06.02.13.01.19-.06,0-.13.02-.17,0-.33-.21-.7-.37-.97-.67-.35-.39-.76-.74-1.15-1.11-.88-.85-1.46-1.89-1.87-3.02-.2-.6-.3-1.22-.29-1.85-.03-1.03.09-2.06.35-3.06.37-1.34,1.22-2.34,2.47-2.98.18-.09.37-.16.55-.24.12-.05.25-.1.37-.16.7-.37,1.41-.33,2.12-.04.37.15.75.27,1.12.42.65.28,1.91,1.1,2.98,3.05,1.07,1.96,1.16,2.42,1.2,3.81.03,1.25-.46,2.33-1.1,3.35-.12.19-.31.34-.47.51-.09.1-.17.07-.22-.03-.06-.08-.1-.18-.11-.28-.02-.6-.41-.98-.8-1.32h0Z"/>
        <path class="cls-5" d="m181.24,57.62c-.89-.48-1.91-.63-2.9-.44-.86.16-1.65.49-2.45.83-1.14.48-2.01,1.28-2.69,2.29-.24.36-.43.75-.66,1.12-.95,1.56-1.25,3.3-1.15,5.08.1,1.63.51,3.22,1.2,4.69.61,1.33,1.55,2.49,2.74,3.35,1.16.86,2.47,1.44,3.82,1.92,1,.36,2.05.31,3.04,0,1.63-.5,2.99-1.45,3.97-2.86.7-1.01,1.3-2.09,1.92-3.15.14-.25.18-.57.22-.86.08-.62.06-1.26-.06-1.88-.19-1.15-.38-2.29-.88-3.27-.47-1.2-1.16-2.17-1.87-3.14-1.11-1.55-2.57-2.81-4.26-3.69Zm4.94,7.8c.19.77.45,1.53.51,2.33.09,1.19-.1,2.32-.82,3.31-.35.48-.33.48-.71,0-.32-.42-.64-.85-1-1.23-.51-.55-1.5-.63-2.11-.21-.13.09-.25.23-.4.29-.56.24-.85.73-1.15,1.21-.15.26-.22.56-.19.86.02.73.09,1.46.34,2.15.1.28-.04.45-.2.62-.03.04-.07.07-.11.09-.04.02-.09.03-.14.03-.81-.18-1.63-.28-2.38-.69-1.41-.77-2.61-1.86-3.52-3.18-.55-.84-.95-1.77-1.16-2.75-.11-.45-.19-.91-.27-1.36-.13-.73-.02-1.45.12-2.18.3-1.48,1.08-2.71,2.01-3.85.39-.5.91-.89,1.5-1.12.19-.07.37-.16.55-.24.58-.25,1.15-.52,1.8-.56.7-.06,1.4.08,2.03.39.75.38,1.41.88,2.07,1.38.68.51,1.08,1.25,1.58,1.9.49.63.79,1.38,1.27,2.01.18.25.3.53.36.83h0Z"/>
        <path class="cls-5" d="m166.18,10.01c-.08.1-.16.21-.22.33-.18.43-.35.87-.49,1.31-.52,1.72-.93,3.47-1.24,5.24-.35,2-.59,4.02-.71,6.04-.04.69-.07,1.39-.11,2.08-.01.33.02.66.1.98.05.24.27.39.5.45.22.07.35-.11.49-.26.18-.21.31-.42.31-.71,0-.26.04-.53.05-.8.02-.67,0-1.33.04-2,.09-1.26.22-2.51.34-3.78.05-.46.12-.92.22-1.38.21-1.04.43-2.08.56-3.14.03-.26.15-.5.23-.75,0-.01.02-.03.03-.04.01,0,.03-.01.04-.02.05.01.13.04.13.07.04.19.1.4.08.59-.09.64,0,1.26.09,1.89.15,1.12.12,2.26.17,3.38.04.76.07,1.53.08,2.29.01,1.23-.01,2.46.01,3.69,0,.36,0,1.48.92,1.08.92-.4.36-8.22.19-10.28-.03-.33-.06-.66-.05-.99.02-1.67-.26-3.3-.55-4.93-.07-.36-.29-.61-.62-.66-.26-.04-.44.11-.58.31Z"/>
        <path class="cls-5" d="m177.2,39.04c-.43-.07-.76.19-1.32.38-.31.2-.8.48-1.25.81-.69.51-1.39,1.02-2.03,1.6-.67.59-1.29,1.25-1.91,1.89-.62.64-1.09,1.42-1.48,2.23-.14.3-.2.64-.17.97,0,.07.03.13.06.18.04.06.09.1.14.13.33.21.64.2.91-.05.15-.14.28-.29.39-.45,1.1-1.68,2.59-3.01,4.02-4.4.1-.09.2-.17.31-.25.57-.4,1.14-.79,1.71-1.19.28-.18.55-.37.8-.59.14-.14.25-.31.32-.49.14-.36-.13-.73-.51-.79Z"/>
        <path class="cls-5" d="m171.54,52.31c.15-.11.29-.24.42-.38.28-.33.54-.67.8-1.02.61-.84,1.24-1.64,2.07-2.28.37-.28.72-.58,1.08-.88.54-.44,1.07-.89,1.62-1.32.3-.23.38-.54.35-.88-.01-.06-.04-.12-.07-.17-.04-.05-.08-.09-.14-.13-.15-.08-.31-.13-.48-.12s-.33.05-.48.14c-.45.28-.87.6-1.3.91-.56.41-1.13.81-1.67,1.26-1.1.92-2.11,1.92-2.89,3.14-.2.31-.38.64-.44,1-.03.15,0,.3.05.44.06.14.16.26.29.34.21.15.44.1.79-.05Z"/>
        <path class="cls-5" d="m198.39,42.63c-.91-.74-1.92-1.31-2.96-1.83-1.29-.67-2.67-1.17-4.1-1.49-.32-.08-.67-.04-.96.11-.07.03-.13.08-.18.13-.05.06-.08.13-.09.2-.01.07-.01.15.01.22.02.07.06.14.11.19.08.1.18.19.3.26.23.13.47.25.71.35,1.2.48,2.41.96,3.62,1.42.72.26,1.4.62,2.02,1.06.35.25.73.45,1.09.7.22.14.49.2.76.16.25-.02.48-.34.4-.58-.04-.16-.12-.31-.22-.44-.16-.17-.34-.32-.52-.46Z"/>
        <path class="cls-5" d="m190.58,36.69c1.9.47,3.7,1.3,5.29,2.45.13.1.27.18.42.25.1.03.2.03.29,0,.1-.03.18-.09.24-.17.06-.11.08-.24.06-.37-.01-.08-.04-.16-.09-.23-.11-.32-.28-.62-.51-.88-.23-.25-.5-.46-.81-.6-1.04-.52-2.08-1.04-3.14-1.49-.6-.26-1.25-.46-1.93-.41-.1,0-.2-.01-.3,0-.25.03-.57.36-.6.6-.02.21.17.51.43.61.21.09.43.16.65.22Z"/>
      </g>
    </g>
    <path class="cls-9" d="m269.76,144.35c.52,2.24.79,4.58.79,6.98,0,16.87-13.55,30.54-30.26,30.54-.19,0-.38,0-.57,0-2.05,25.53-23.24,45.61-49.07,45.61-4.99,0-9.81-.75-14.35-2.14-9.01,11.71-23.09,19.24-38.91,19.24s-30.98-8.12-39.92-20.6c-5.63,2.26-11.76,3.5-18.19,3.5-25.83,0-47.02-20.07-49.07-45.6-15.48-.12-28.2-11.97-29.84-27.18,3.63-.86,7.42-1.32,11.32-1.32,5.96,0,11.68,1.07,16.97,3.03,7.57-17.6,24.95-29.9,45.18-29.9,18.28,0,34.22,10.05,42.72,24.97,8-5.68,17.76-9.01,28.29-9.01,5.96,0,11.68,1.07,16.97,3.03,7.57-17.6,24.95-29.9,45.18-29.9,19.16,0,35.76,11.04,43.9,27.16,1.75-.19,3.53-.29,5.33-.29,4.7,0,9.24.66,13.55,1.9Z"/>
  </g>
</svg>