<?xml version="1.0" encoding="UTF-8"?>
<svg xmlns="http://www.w3.org/2000/svg" xmlns:xlink="http://www.w3.org/1999/xlink" viewBox="0 0 271 245">
  <defs>
    <style>
      .cls-1 {
        mask: url(#mask);
      }

      .cls-2 {
        fill: #fff;
      }

      .cls-3 {
        fill: #fef065;
      }

      .cls-4 {
        fill: #0e5256;
      }

      .cls-5 {
        fill: #73d3c8;
      }

      .cls-6 {
        fill: #ffceeb;
      }

      .cls-6, .cls-7, .cls-8 {
        fill-rule: evenodd;
      }

      .cls-7 {
        fill: #ffc2e7;
      }

      .cls-8 {
        fill: #ffd3ee;
      }
    </style>
    <mask id="mask" x="-67.88" y="50" width="403.51" height="267.92" maskUnits="userSpaceOnUse">
      <g id="mask0_3_23" data-name="mask0 3 23">
        <path class="cls-6" d="m141.22,50c19.12,0,35.69,11.04,43.81,27.16,1.75-.19,3.53-.29,5.32-.29,24.68,0,45.1,18.39,48.6,42.36.31,0,.62-.01.93-.01,16.68,0,30.2,13.67,30.2,30.54s-13.52,30.54-30.2,30.54c-.19,0-.38,0-.57,0-2.05,25.53-23.19,45.61-48.97,45.61-4.98,0-9.79-.75-14.32-2.14-8.99,11.71-23.04,19.24-38.84,19.24s-30.92-8.12-39.84-20.6c-5.61,2.26-11.74,3.5-18.15,3.5-25.78,0-46.92-20.07-48.97-45.6-16.57-.13-29.96-13.75-29.96-30.54s13.52-30.54,30.2-30.54h.13c3.5-23.96,23.93-42.35,48.6-42.35,5.95,0,11.65,1.07,16.93,3.03,7.56-17.6,24.9-29.9,45.08-29.9Z"/>
      </g>
    </mask>
  </defs>
  <g id="Mountains">
    <path class="cls-5" d="m-928.13,233.53c8.35-2.48,17.25-2.48,25.6,0L485.95,645.59c49.77,14.77,39.11,88.14-12.8,88.14h-2776.96c-51.91,0-62.57-73.37-12.8-88.14L-928.13,233.53Z"/>
  </g>
  <g id="fore_ground" data-name="fore ground">
    <g class="cls-1">
      <g>
        <path class="cls-8" d="m140.95,50c19.16,0,35.76,11.04,43.9,27.16,1.75-.19,3.53-.29,5.34-.29,24.73,0,45.19,18.39,48.7,42.36.31,0,.62-.01.93-.01,16.72,0,30.26,13.67,30.26,30.54s-13.55,30.54-30.26,30.54c-.19,0-.38,0-.57,0-2.05,25.53-23.24,45.61-49.07,45.61-4.99,0-9.81-.75-14.35-2.14-9.01,11.71-23.09,19.24-38.92,19.24s-30.98-8.12-39.92-20.6c-5.63,2.26-11.76,3.5-18.19,3.5-25.83,0-47.02-20.07-49.07-45.6-16.6-.13-30.02-13.75-30.02-30.54s13.55-30.54,30.26-30.54h.13c3.51-23.96,23.98-42.35,48.7-42.35,5.96,0,11.68,1.07,16.97,3.03,7.57-17.6,24.95-29.9,45.18-29.9Z"/>
        <path class="cls-7" d="m146.3,80.94c19.33,0,36.08,11.04,44.29,27.16,1.77-.19,3.56-.29,5.38-.29,24.95,0,45.6,18.39,49.14,42.36.31-.01.63-.01.94-.01,16.87,0,30.54,13.67,30.54,30.54s-13.67,30.54-30.54,30.54c-.19,0-.38,0-.57,0-2.07,25.53-23.44,45.61-49.51,45.61-5.04,0-9.9-.75-14.48-2.14-9.09,11.71-23.3,19.25-39.27,19.25s-31.26-8.12-40.28-20.6c-5.68,2.26-11.87,3.5-18.35,3.5-26.06,0-47.44-20.07-49.51-45.6-16.75-.13-30.3-13.75-30.3-30.54s13.67-30.54,30.54-30.54h.13c3.54-23.96,24.19-42.35,49.14-42.35,6.02,0,11.78,1.07,17.12,3.03,7.64-17.6,25.18-29.9,45.58-29.9Z"/>
        <path class="cls-8" d="m73.36,124.92c19.16,0,35.76,11.04,43.9,27.16,1.75-.19,3.53-.29,5.33-.29,24.73,0,45.19,18.39,48.7,42.36.31,0,.62-.01.93-.01,16.71,0,30.26,13.67,30.26,30.54s-13.55,30.54-30.26,30.54c-.19,0-.38,0-.57,0-2.05,25.53-23.24,45.61-49.07,45.61-4.99,0-9.81-.75-14.35-2.14-9.01,11.71-23.09,19.25-38.91,19.25s-30.98-8.12-39.92-20.6c-5.63,2.26-11.76,3.5-18.19,3.5-25.83,0-47.02-20.07-49.07-45.6-16.6-.13-30.02-13.75-30.02-30.54s13.55-30.54,30.26-30.54h.13c3.51-23.96,23.98-42.35,48.7-42.35,5.96,0,11.68,1.07,16.97,3.03,7.57-17.6,24.95-29.9,45.18-29.9Z"/>
        <path class="cls-8" d="m206.51,114c19.16,0,35.76,11.04,43.9,27.16,1.75-.19,3.53-.29,5.33-.29,24.73,0,45.19,18.39,48.7,42.36.31,0,.62-.01.93-.01,16.71,0,30.27,13.67,30.27,30.54s-13.55,30.54-30.27,30.54c-.19,0-.38,0-.57,0-2.05,25.53-23.24,45.61-49.07,45.61-4.99,0-9.81-.75-14.35-2.14-9.01,11.71-23.09,19.24-38.91,19.24s-30.98-8.12-39.92-20.6c-5.63,2.26-11.76,3.5-18.19,3.5-25.83,0-47.01-20.07-49.07-45.6-16.6-.13-30.02-13.75-30.02-30.54s13.55-30.54,30.26-30.54h.13c3.51-23.96,23.98-42.35,48.7-42.35,5.96,0,11.68,1.07,16.97,3.03,7.57-17.6,24.95-29.9,45.18-29.9Z"/>
      </g>
    </g>
    <path class="cls-2" d="m118.44,129.89c.17-.48.38-.96.78-1.34.21-.2.34-.51.49-.77.06-.1.13-.51-.21-.54-.57-.06-2.44-.24-2.77-.25-1.45-.05-2.9.05-4.35-.09-.52-.05-1.05,0-1.57,0-.64,0-1.28,0-1.92,0-.15,0-.3-.04-.44-.1-.23-.12-.28-.39-.17-.63.14-.3.43-.4.7-.48.35-.1.71-.16,1.08-.19.58-.05,1.17-.09,1.76-.09.43,0,.87-.07,1.29.08.2.06.37-.1.53-.23.16-.12.1-.25.08-.39-.01-.11-.01-.22,0-.33.07-.28.17-.55.23-.84.12-.55.22-1.11.32-1.67.09-.45.18-.9.25-1.36.08-.52.14-1.03.22-1.55,0-.09.02-.18.04-.27.08-.25.16-1.37.15-1.61,0-.14-.05-.27-.13-.38-.18-.24-.46-.35-.65-.55-.7-.73-1.5-1.37-2.11-2.19-.1-.12-.21-.23-.34-.32-.32-.23-.42-.21-.68.08-.05.06-.09.12-.13.19-.15.25-.27.52-.44.75-.26.34-.57.64-.85.96-.47.52-.94,1.04-1.4,1.57-.31.35-.59.73-.89,1.08-.42.5-.88.97-1.28,1.49-.7.91-1.43,1.8-2,2.8-.59,1.05-1.31,2.03-1.87,3.1-.44.85-.85,1.7-1.14,2.62-.24.77-.76,2.84-.82,2.99-.12.3-.09.61-.09.92,0,.09.05.17.11.24.16.17.33.34.5.5.07.06,1.14.54,1.28.61,1.08.46,2.15.92,3.23,1.39,1.17.51,2.4.84,3.65,1.09.78.16,1.56.33,2.36.41.57.06,2.72.36,2.96.33.11-.01.21-.1.27-.26.17-.39.95-1.58,1.16-1.79.16-.17.32-.32.42-.55.13-.3.31-.59.47-.88.1-.17.21-.34.31-.51.21-.39.41-.78.63-1.16.08-.15.77-1.36.94-1.85Z"/>
    <path class="cls-2" d="m142.13,71.42c.99.42,1.98.35,2.16.36.02,0,.04,0,.06-.02.02-.01.03-.03.04-.05,0-.04-.01-.09-.04-.12-.02-.04-.06-.08-.1-.1-.53-.25-.79-.75-1.05-1.21-.45-.77-.84-1.59-1.14-2.43-.65-1.85-1.08-3.75-1.39-5.67-.1-.58-.12-1.17-.19-1.75-.08-.69-.09-1.39-.1-2.09-.02-.78,0-1.56,0-2.35,0-.11,0-.22,0-.33,0-.03-.05-.06-.07-.1-.03.02-.09.05-.09.08-.07.44-.46,2.73-.52,3.45-.07.81-.24,3.53-.24,4.08,0,.44,0,.88,0,1.31,0,.59-.02,1.18.1,1.77.19.92.37,1.84.72,2.71.65,1.65.88,2.03,1.87,2.45Z"/>
    <path class="cls-2" d="m141.05,54.42c.28.15.44.45.29.83-.04.1-.02.22-.02.32.01.48.09,2.39.09,2.86h.01c0,.32.12,1.8.17,2.21.07.52.53,2.8.65,3.43.25,1.31.39,1.55,1.24,3.75.85,2.2,1.57,2.81,2.07,3.1.18.1.25.12.37-.06.12-.18.1-.34,0-.52-.2-.39-.57-2.34-.7-2.88-.35-1.43-.66-2.87-.94-4.31-.21-1.05-.37-2.12-.53-3.17-.1-.61-.74-3.1-.83-3.76-.14-.96-.4-1.89-.57-2.84-.11-.59-.38-2.59-.39-2.91,0-.05-.03-.15-.06-.15-.07-.01-.15,0-.22.04-.3.21-.77,2.63-.92,3.3-.06.27-.08.56.28.75Z"/>
    <path class="cls-2" d="m152.21,133.71c-.05.48-.39,3.88-.38,4.13.02.12.04.24.08.35.03.15.46.18.58.14.31-.11.85-2.4.98-2.9.06-.25.23-1.27.24-1.39.09-.77.29-3.32.27-3.81-.01-.46-.1-.56-.56-.71-.52-.17-.57-.13-.65.39-.07.44-.36,2.47-.4,2.77-.05.35-.12.69-.16,1.04Z"/>
    <path class="cls-2" d="m129.51,134.82c-.29-.57-1.69-2.19-2.81-3.01-1.12-.82-3.05-1.7-3.35-1.82-.19-.08-.36-.21-.59-.24-.12-.02-.24-.13-.34-.23-.27-.26-.21-.55.15-.67.18-.05.36-.09.54-.1.24-.03.92.05,1.6.04.41,0,2.76.05,2.79-.45.03-.5-.93-.64-1.34-.63-.88.03-4.08.09-4.49.1-.39,0-.62.19-.83.49-.29.43-.82,1.34-.82,1.36-.2.47-1.15,2.11-1.2,2.22-.15.3-1.33,2.16-1.5,2.69-.06.21-.03.36.13.49.28.23,1.2,1.88,1.24,1.98.06.15.44.85.55,1.04.2.37.46.72.62,1.12.17.4.51.72.78,1.08.13.18.39.93.81.76s-.34-2.37-.71-3.33c-.38-.96-1.48-1.92-1.64-2.15s-.32-.49-.31-.8c.01-.2.24-.46.38-.42.45.13.86.33,1.17.7.15.18.29.36.44.53.09.11.18.21.26.32.3.37.58.76.9,1.11.24.26.45.55.61.86.05.11.68,1.02,1.22,1.61.22.24,1.1,1.25,1.51.86.41-.39,0-1.3-.09-1.49-.19-.38-.44-.73-.75-1.03-.24-.24-.44-.52-.67-.77-.28-.32-.57-.63-.86-.94-.01-.01-.03-.02-.04-.03-.41-.39-1.77-1.74-2.09-1.99-.15-.11-.28-.23-.4-.37-.06-.1-.09-.21-.07-.33.02-.11.08-.22.17-.29.13-.1.37-.05.56.07.21.13.42.25.64.34.25.11.49.26.7.43.31.25.55.56.84.82.44.38,2.99,2.78,3.22,3.04.23.27.87.78,1.27.49.41-.29-.33-1.39-.44-1.51-.19-.19-.36-.4-.53-.61-.16-.19-.31-.39-.48-.57-.62-.63-1.25-1.25-1.88-1.87-.11-.11-1.61-1.32-2.09-1.56-.23-.12-.43-.29-.58-.51-.26-.36-.01-.78.43-.77.43,0,3.36,1.94,3.69,2.29.74.8,1.61,1.45,2.49,2.09.25.18.51.34.78.49.29.16.32.14.56-.1.13-.13.16-.27.09-.42-.07-.16-.15-.29-.23-.44Z"/>
    <path class="cls-3" d="m142.18,116.28c-.99-.03-7.12-.28-7.41-.28-.88,0-1.75,0-2.63,0-.12,0-.25,0-.37.03-.44.08-5.82.31-6.96.24-.32-.02-2-.24-2.53-.26-.08,0-1.58-.17-1.85-.18-.43-.02-2.01-.36-2.14-.62-.12-.24-.04-.45.2-.55.1-.04.21-.06.32-.05.77.04,3.25.08,3.72.18.33.07.68.04,1.01.12.83.19,1.67.25,2.51.35.84.1,4.46,0,4.8,0,.11,0,.23-.09.33-.14.06-.03.07-.08.02-.15-.13-.18-1.74-.82-1.94-.89-.65-.21-1.29-.47-1.93-.72-.4-.15-.81-.27-1.24-.01-.13.08-1.5-.08-1.59-.1-.51-.11-1.02-.21-1.53-.32-.55-.11-1.11-.21-1.67-.34-1.11-.26-2.21-.5-3.33-.69-.45-.08-.9-.18-1.35-.28-.46-.11-.92-.25-1.38-.37-.44-.12-.88-.24-1.34-.31-.43-.06-2.21-.32-2.68-.34-.02,0-.05,0-.07,0-.02,0-.04.02-.06.04-.01.02-.02.04-.02.07s0,.05.02.07c.09.16.19.32.31.46.17.19,1.22,1.4,1.32,1.5,1.01,1.05,1.98,2.12,3.16,2.98.65.47,1.32.93,2.07,1.23.6.24,1.22.41,1.86.5.61.09,1.22.18,1.84.18.21,0,1.53.02,1.81,0,.46-.04.93-.03,1.39-.11.67-.12,1.35-.18,2.03-.18.98,0,1.97,0,2.96,0,.12,0,.25,0,.37,0,.51-.08,1.03-.18,1.54-.27.58-.11,1.17-.23,1.76-.35.56-.11,1.11-.23,1.69-.22.17,0,.34,0,.51,0,.19,0,1.26-.11,1.38-.1.25.03.4.14.43.34.04.25-.07.5-.29.56-.22.07-.44.11-.67.14-.38.04-.77.05-1.15.11-.52.07-1.03.17-1.54.27-.54.11-1.08.21-1.62.34-.8.2-1.52.59-2.25.96-.34.17-1.94.56-2.05.62-.09.05-.09.13,0,.17.34.18.67.38,1.03.5.19.07,2.12.69,3.98.69s5.62-1.17,6.86-1.64c1.06-.39,2.07-.91,3.01-1.53.17-.12.38-.2.55-.32.34-.25,1.28-1.06,1.41-1.2.01-.02.02-.04.03-.06,0-.02,0-.04,0-.07-.01-.02-.03-.03-.05-.04-.02,0-.04-.01-.06-.01-.32.03-2.44.09-2.57.08Z"/>
    <path class="cls-2" d="m155.22,135.88c.12,0,.24-.03.35-.09.32-.17.66-.32.96-.54.19-.14.36-.13.56-.07.43.12,2.06,2,2.65,2.58.58.56,1.08,1.19,1.62,1.79.06.07.13.13.22.17.08.02.29,0,.2-.24-.1-.24-.82-1.29-1.38-1.84-.41-.4-.78-.83-1.1-1.31-.26-.38-.52-.74-.87-1.05-.18-.16-.3-.39-.39-.62-.1-.27.04-.45.32-.58.34-.15.62-.06.89.14.22.17.44.33.68.47.66.36,1.25.82,1.83,1.29.33.27.69.51,1.03.77.25.18.49.37.74.54.35.24.71.47,1.08.7.04.03.08.04.13.03.07,0,.18-.02.2-.06.01-.04.01-.07,0-.11,0-.04-.02-.07-.04-.1-.21-.23-.44-.44-.67-.65-.3-.24-.51-.5-1.14-1.04s-1.88-1.38-2.58-1.78c-.41-.24-.49-.79-.24-1.1.24-.31,1.04-.34,1.46-.16.82.34,1.51.69,2.35,1.01.21.08.63.25.84.36.69.36,2.04,1.13,2.2.84.16-.29-.2-.53-.46-.66-.56-.3-1.14-.58-1.72-.85-.39-.18-.8-.31-1.19-.49-.49-.23-1.01-.38-1.49-.63-1.15-.59-1.37-1.14-1.01-1.84.35-.7,2.09-.13,2.47.02.25.1,1.68.56,2.75.95.87.32,1.7.46,1.81.29.25-.38-.67-.69-1.08-.85-.46-.17-.92-.32-1.37-.51-.41-.17-.81-.37-1.22-.55-.46-.19-.91-.38-1.37-.53-.46-.15-.99-.2-1.42-.49-.06-.05-.14-.08-.21-.08-.08,0-.15.02-.22.06-.28.16-.56.31-.85.47-.47.26-2.04,1.46-2.38,1.6-.11.05-.23.08-.35.09-.12,0-.24-.01-.35-.05-.42-.16-.56-.65-.23-.95.31-.27.65-.54,1.01-.71.67-.32,1.32-.68,1.97-1.03.71-.38,1.43-.78,2.14-1.17.24-.13.5-.24.74-.38.16-.09.21-.23.17-.44-.04-.19-.34-.11-.36-.11-.35.04-.69.12-1.02.23-.54.21-1.07.46-1.59.71-.85.41-3.06,1.44-3.63,1.75-.57.31-1.25.54-1.29,1.2-.01.27-.16,1.84-.17,2.48,0,.45-.05.9-.1,1.34,0,.1-.07.2-.1.31-.09.31-.21.61-.26.92-.06.35.11.53.46.53Z"/>
    <path class="cls-2" d="m114.61,89.42c-.52.75-.77,1.61-.97,2.49-.13.57-.65,2.03-.56,4.35.1,2.32,1.03,3.23,1.17,3.38.26.26.4.19.51-.14.1-.28.03-3.63.09-4.26.06-.62.07-1.24.1-1.86.09-.89.23-1.77.42-2.65,0,0,.1-.83.17-1.36.07-.51-.53-.44-.93.06Z"/>
    <path class="cls-2" d="m143.76,53.49c.14.69.24,1.39.4,2.08.31,1.34.66,2.68.98,4.02.19.84.34,1.68.51,2.53.11.56.2,1.12.31,1.67.11.57.53,2.71.62,3.2.13.73.67,4.49.73,4.62,0,.02.02.04.04.05.02.01.04.02.07.02.02,0,.05,0,.06-.02.02-.01.03-.03.04-.06.05-.13.09-.26.1-.4,0-.43.09-7.48-.07-9.19-.04-.54-.06-1.08-.12-1.62-.07-.58-.2-1.15-.27-1.73-.08-.72-.25-1.42-.37-2.13-.19-1.1-.55-2.14-.91-3.18-.39-1.12-.9-2.18-1.34-3.27-.24-.6-.62-1.75-1.14-1.75-.23,0-.2.92-.09,1.98.14,1.34.41,2.91.47,3.18Z"/>
    <path class="cls-2" d="m148.1,49.71c1.04,1.37,1.76,2.9,2.23,4.55.23.81.44,1.63.63,2.45.13.6.2,1.21.32,1.81.24,1.25.19,2.51.18,3.77,0,.67-.01,1.34-.1,2-.17,1.34-.43,2.67-.79,3.97-.18.62-.41,1.21-.64,1.81-.1.25-.61.93-.07,1.08.54.16,1.21-1.87,1.33-2.41.15-.66.35-1.3.5-1.96.1-.43.16-.88.23-1.31.1-.62.18-1.25.27-1.87.16-1.49.2-2.99.1-4.49-.15-2.49-.82-5.69-1.39-7.32-.34-.98-.69-1.95-1.21-2.85-.22-.38-.76-1.18-1.31-1.64-.28-.23-.62-.39-.97-.48-.22-.11-.6-.19-.87.05-.24.21-.24.38-.04.69.52.73,1.05,1.43,1.59,2.14Z"/>
    <path class="cls-2" d="m144.76,48.02c.12.14.22.29.32.45.39.7.78,1.4,1.12,2.13.66,1.43,1.92,4.89,2.34,7.12.42,2.23.37,5.79.39,6.3s-.13,5.1-.18,6.06c0,.03,0,.06,0,.09.02.03.05.07.08.1.03-.03.08-.05.09-.08.07-.27.68-2.19.89-3.82.21-1.63.32-5.57.24-6.48-.1-1.23-.25-2.45-.57-3.64-.32-1.19-.67-2.37-1.17-3.5-.44-.97-.98-1.9-1.61-2.76-.31-.42-.58-.88-.85-1.33-.15-.24-.28-.49-.42-.74h0s-.21-.38-.46-.41c-.24-.04-.42.19-.2.49,0,0,0,0,0,.02Z"/>
    <path class="cls-2" d="m169.09,94c-.17-1.78-.5-3.53-1.16-5.2-.45-1.13-.89-2.27-1.46-3.35-.49-.93-1.03-1.84-1.53-2.76-.52-.96-1.15-1.85-1.87-2.67-.75-.86-1.56-1.66-2.36-2.47-.33-.33-.68-.64-1.03-.95-.11-.1-1.24-.79-1.61-1.14-.23-.22-.51-.4-.77-.58-.04-.03-.12-.01-.19-.02.02.07.01.18.05.2.34.18.51.53.77.79.26.26.54.46.79.72.24.24.44.52.68.76.17.18.39.3.56.48.32.34.64.68.94,1.04.73.88,1.41,1.82,2.01,2.79.71,1.15,1.3,2.36,1.86,3.58.61,1.33,1.05,2.73,1.54,4.11.09.26.46,1.5.45,1.76,0,.16,0,.31,0,.47,0,.17-.21.45-.36.5-.19.05-.32-.05-.45-.18-.19-.19-.52-1.69-.66-2.17-.57-1.97-1.51-3.77-2.42-5.6-.78-1.57-1.74-3.03-2.82-4.42-.49-.62-.99-1.24-1.48-1.86-.12-.16-.21-.34-.34-.48-.19-.21-.42-.39-.63-.58-.12-.11-.24-.23-.35-.35-.37-.4-.73-.8-1.1-1.2-.36-.38-.83-.57-1.29-.78-.04-.02-.11.02-.17.03,0,.06.02.11.04.16.02.07.06.13.1.17.05.05.1.09.17.11.31.15,1.81,1.69,2.27,2.26.09.11,1.23,1.37,1.6,1.95,1.07,1.65,2.04,3.37,2.97,5.1.54,1,1.77,3.76,1.62,4.99-.02.14-.22.28-.36.39-.04.03-.18-.03-.24-.09-.32-.3-.56-.66-.6-1.1-.03-.23-.1-.45-.19-.66-.17-.44-.38-.86-.59-1.28-.2-.42-.42-.86-.65-1.28-.51-.94-1.01-1.89-1.58-2.79-.61-.97-1.26-1.92-1.96-2.83-.74-.96-1.48-1.92-2.35-2.77-.23-.22-.41-.51-.65-.73-.54-.49-1.09-.96-1.65-1.44-.02-.01-.04-.02-.06-.02-.02,0-.04,0-.06,0-.02.02-.03.04-.03.06,0,.02,0,.04,0,.07.07.14.13.29.23.39.23.24,1.05,1.02,1.2,1.19.29.36.57.72.88,1.07.37.42.78.8,1.13,1.24.31.39.55.83.82,1.25.78,1.21,1.4,2.51,2.03,3.8.35.72.69,1.45,1.01,2.19.14.33.18.68.32,1.01.13.38.25.76.34,1.15.04.29.08.59-.08.86-.15.25-.29.27-.59.17-.25-.08-.36-.26-.42-.48-.22-.73-.43-1.46-.66-2.18-.44-1.41-1.15-2.7-1.87-3.97-.93-1.63-2.05-3.14-3.16-4.65-.38-.53-.79-1.03-1.23-1.51-.37-.39-.83-.69-1.24-1.03-.17-.14-.32-.29-.49-.43-.08-.07-.16-.03-.15.08,0,.1.03.21.09.3.09.13,2.31,3.68,2.64,4.55.32.86.7,1.71,1.07,2.56.54,1.2,1.11,2.38,1.63,3.59.23.57.42,1.15.55,1.75.07.31.02.65.01.98,0,.15-.09.22-.24.24-.35.05-.53-.03-.7-.36-.06-.12-.11-.25-.14-.39-.43-1.33-1-2.61-1.54-3.9-.26-.62-.53-1.24-.77-1.87-.2-.51-.35-1.04-.51-1.56-.07-.22-.09-.45-.15-.67-.03-.1-.08-.19-.15-.27-.03-.04-.12-.09-.15-.07-.06.04-.11.1-.14.17-.01.04-.01.09,0,.14.24.61.7,4.27.73,4.81,0,.16,0,.31,0,.47.01.23,0,1.72,0,1.88,0,.22-.05.43-.16.62-.15.25-.19.3-.43.25-.19-.04-.4-.07-.46-.33-.04-.16-.07-.33-.09-.49-.01-.25,0-.5,0-.75,0-.68-.05-1.36-.18-2.02,0-.06,0-.12,0-.19.01-.58-.07-1.14-.18-1.7-.12-.65-.16-1.32-.3-1.96-.21-.94-.45-1.88-.8-2.79-.4-1.04-.88-2.04-1.46-3-.23-.37-.46-.72-.77-1.02-.1-.1-.45-.57-.77-.34-.32.23.11,1.03.35,1.39.06.09.13.17.18.27,1.09,1.98,1.97,4.04,2.52,6.24.18.7.36,1.4.4,2.13.02.4-.06,2.37-.16,2.79-.04.14-.13.19-.28.18-.35-.02-.58-.22-.61-.56v-.05c.01-.77-.14-1.53-.27-2.29-.13-.8-.32-1.59-.58-2.37-.5-1.52-1.03-3.04-1.75-4.47-.23-.46-1.17-2.49-1.38-2.88-.21-.38-.51-.04-.52.11,0,.2.02.4.08.59.1.3,1.03,3.59,1.26,6.82.22,3.23-.05,6.13-.11,6.42-.07.32-.33.47-.59.61-.1.06-.34-.07-.43-.19-.06-.08-.1-.18-.11-.28-.02-.1,0-.2.02-.3.03-.07.05-.14.07-.22.04-.62.08-1.24.09-1.86.01-.48.05-3.25-.29-5.85-.34-2.6-.43-3.4-.61-3.45-.07-.03-.15-.03-.23,0-.07.02-.14.07-.18.14-.15.2-.3.39-.48.56-.45.43-.84.92-1.17,1.44-.41.66-.88,1.28-1.28,1.94-.43.72-.82,1.45-1.18,2.21-.46.99-1.56,3.83-1.61,4.17-.08.54-.81.88-1.26.58-.07-.04-.14-.11-.14-.17,0-.25.57-2.36.92-3.15.79-1.8,1.65-3.57,2.81-5.16.25-.35.46-.72.71-1.07.23-.32.49-.61.73-.93.26-.33,1.51-1.51,1.78-1.62.16-.06.18-.16.17-.4,0-.18-.16-.17-.25-.23-.02-.02-.14.05-.19.1-.25.24-.49.49-.74.73-.16.15-1.69,1.7-1.9,1.93-.84.89-1.68,1.76-2.5,2.67-1.39,1.54-2.6,3.21-3.71,4.96-.26.4-.41.84-.66,1.25-.09.16-.18.32-.29.47-.21.28-.78.26-.9-.13-.03-.12-.02-.24.02-.35.08-.23.22-.43.25-.69.02-.15.15-.29.24-.43.03-.05.08-.08.1-.13.39-.96,1.02-1.77,1.65-2.58.73-.93,1.5-1.83,2.25-2.74,1.11-1.36,2.33-2.61,3.57-3.85.23-.23,1.1-1.1,1.79-1.8.48-.49.14-.66-.32-.66s-.85.26-1.71.83c-.74.49.28.47-.79,1.25-1.08.79-2.21,1.53-3.29,2.32-.74.54-1.43,1.15-2.15,1.73-.47.39-.95.76-1.37,1.2-.49.5-.93,1.05-1.38,1.59-.45.54-.86,1.1-1.31,1.64-.61.75-1.17,1.53-1.71,2.33-.39.58-.78,1.15-1.21,1.7-.23.29-.75.87-1.16.68-.41-.19.06-1.02.17-1.19.29-.48.58-.96.9-1.42.6-.87,1.24-1.71,1.87-2.55,1.25-1.68,2.73-3.17,4.25-4.61.55-.52,1.18-.97,1.77-1.45.24-.19.47-.41.72-.58.63-.4,2.5-1.69,2.86-1.86,0,0,.01-.02.01-.03,0-.01,0-.02,0-.03-.03-.04-.08-.09-.1-.09-.21.05-.42.09-.61.18-.38.19-1.58.69-1.7.75-.35.16-2.97,1.36-3.59,1.71-1.04.58-2.06,1.2-3.08,1.82-.72.44-1.36.97-1.99,1.53-.51.45-1.04.89-1.55,1.35-.34.3-.65.63-.96.95-.23.23-.45.48-.68.72-.83.82-1.55,1.75-2.16,2.75-.25.42-.47.86-.69,1.29-.16.3-.67.51-.93.37-.29-.16-.4-.36-.26-.7.14-.37,1.86-3.11,2.67-3.92.75-.76,1.5-1.51,2.26-2.26,1.43-1.39,2.95-2.68,4.66-3.71,1.01-.61,2.05-1.16,3.09-1.71.35-.19.73-.31,1.1-.46.24-.1.47-.2.71-.31.32-.15.63-.31.94-.47.06-.03.13-.15.11-.17-.04-.08-.12-.13-.2-.16-.08-.02-.18.02-.26.05-.33.1-.67.2-1,.32-.16.06-1.43.68-1.62.75-1.68.63-3.28,1.43-4.87,2.25-.43.22-.83.48-1.24.73-.67.42-1.33.85-2,1.27-.9.58-1.76,1.23-2.55,1.96-.86.77-1.72,1.55-2.54,2.36-.4.4-.73.89-1.05,1.36-.21.32-.35.69-.52,1.03-.03.05-.34.88-.56,1.19-.19.34-.57.98-.68,1.53-.11.56-.41,1.95-.41,1.95,0,.39-.48,3.9-.55,4.21-.12.56-.16,2.98-.1,3.54.05.44.29,2.06.38,2.41.13.57.22,1.15.45,1.69.37.88.73,1.78,1.3,2.56.35.48.75.91,1.2,1.3.93.8,1.92,1.54,2.96,2.19.4.24.79.49,1.21.69,1.54.76,3.08,1.5,4.61,2.26.62.31,1.23.66,1.84,1,.95.53,1.97.87,3.01,1.15.74.19,1.49.37,2.24.53.32.07.64.08.96.13.4.05.79.11,1.19.16.06,0,3.36.13,3.59.12.67-.03,1.34-.03,2-.1.68-.08,2.93-.22,3.37-.28.82-.11,1.64-.24,2.44-.49.31-.1,3.88-1.03,4.3-1.22,1.77-.81,3.57-1.57,5.28-2.51,1.05-.58,2.04-1.24,2.98-1.99.87-.68,1.73-1.37,2.6-2.05,1.07-.86,2.08-1.8,3.01-2.81.94-1.02,1.52-2.24,1.83-3.6.16-.7.28-1.41.39-2.13.12-.8.09-1.59.05-2.38-.01-.49-.02-.99-.07-1.48Zm-24.82,2.74c.06-.19.21-.35.18-.59-.02-.19.03-.39.06-.58.05-.32.11-.64.17-.95.05-.26.01-.52.09-.78.1-.35.09-.73.12-1.1.03-.4.05-.8.1-1.2.02-.16.09-.36.21-.45.13-.1.34-.13.52-.14.13,0,.3.04.38.13.2.23.31.54.29.84-.02.35-.13.69-.17,1.04-.02.17-.06.33-.13.48-.04.07-.06.14-.06.22,0,.62-.19,1.21-.25,1.82-.03.33-.15.63-.19.95-.05.32-.12.63-.21.94-.08.3-.34.47-.48.73-.03.05-.14.05-.16.06-.43,0-.58-.14-.59-.52,0-.31.03-.61.13-.9Zm-2.35-11.15c.12-.45.24-.89.27-1.38.03-.74.22-1.47.31-2.21.04-.34.17-.65.24-.97.08-.37.3-1.22.32-1.28.1-.25.24-.34.43-.3.32.06.44.19.46.48v.17c-.04.18-.09.44-.13.69-.06.32-.46,3.56-.53,4.11-.06.49-.26.95-.58,1.32-.04.04-.09.08-.14.1-.05.02-.11.04-.17.04s-.11-.01-.17-.04c-.05-.02-.1-.06-.14-.1-.16-.17-.25-.36-.18-.63Zm-.18,11.28c.1-.51.21-1.02.25-1.54.03-.47.15-.94.23-1.4.01-.08.03-.15.04-.23.04-.44.1-.89.13-1.33.02-.21.01-.42-.02-.63-.07-.33.06-.61.22-.87.08-.13.21-.19.39-.21.55-.06.96.23.89.86,0,.08,0,.16,0,.28.03.38-.07.78-.16,1.19-.12.57-.21,1.15-.31,1.72-.02.11-.04.21-.07.31-.06.3-.09.61-.14.91-.09.46.04.97-.25,1.39-.02.02,0,.06-.01.09-.03.12-.02.29-.1.33-.16.09-.33.15-.52.16-.39.01-.59-.24-.61-.55,0-.15,0-.31.03-.46Zm-1.52,4.37c.04.06.09.17.07.21-.12.18-.08.4-.22.6-.4.56-.85,1.08-1.28,1.62-.29.37-.6.72-.9,1.07-.5.58-1.1.99-1.86,1.14-.49.1-2.42.29-2.66.74-.24.45.57.56.86.65.13.04.26.08.39.11.1.03,2.98.47,3.45.55.33.05,2.14.25,2.67.28.73.04,1.46.09,2.19.09.92,0,1.84-.04,2.75-.09.37-.02,2.25-.24,2.57-.28.05,0,.1-.03.14-.07.04-.03.07-.08.09-.12s.03-.1.02-.15-.02-.1-.05-.15c-.2-.26-1.28-1.15-1.58-1.37-.51-.38-1.03-.75-1.56-1.1-.55-.36-.98-.87-1.24-1.47-.15-.32-.31-.63-.46-.95-.05-.09-.09-.2-.1-.3,0-.23-.13-.51.13-.69.4-.26.72-.27,1.02-.01.16.14.28.33.34.54.27.89.83,1.58,1.56,2.14.64.49,1.3.96,1.95,1.43.56.4,1.91,1.67,1.81,2.28-.1.61-1.07,1.07-2.31,1.25-1.24.18-4.23.39-5.97.3-2.25-.11-4.35-.38-4.67-.43-.5-.07-1-.18-1.49-.28-1.01-.19-2.01-.44-2.98-.76-.34-.11-1.43-.65-1.12-1.44.31-.78,1.84-1.39,2.38-1.48.98-.15,1.95-.35,2.73-1.02.31-.26.61-.53.91-.81.18-.17.34-.37.51-.55.21-.22.4-.47.55-.74.19-.3.4-.58.65-.83.2-.21.53-.16.71.08Zm-13.72,2.84c-1.02-.38-2-.85-2.86-1.52-1.09-.87-2.07-1.85-2.69-3.13-.31-.64-.57-1.29-.67-2.01-.13-.93-.03-1.42.75-2.38.58-.72,1.37-1.24,2.26-1.49.53-.15.35-.29.17-.51-.19-.22-.73-.8-.28-1.19.46-.39,1.66.37,1.87.5.94.57,1.96.96,2.96,1.39.9.39,1.83.72,2.78.98.64.17,2.67.69,3.77.81,1.54.17,2.65.29,3.99.25,1.11-.03,1.17.33,1.05.66-.31.84-1.75.33-1.97.69-.23.36.63,1.24.16,3.38-.46,2.14-3.04,3.5-4.65,3.91-.88.23-1.78.39-2.49.32-1.56,0-2.89-.19-4.15-.66Zm25.84,7.33c-.07.14-.21.27-.34.37-.53.4-1.15.58-1.78.75-1.01.26-2.02.51-3.04.73-.49.11-3.7.69-7.3.49-3.61-.19-8.16-1.87-9.91-2.77-.56-.29-1.05-.67-.67-1.21.25-.36,1.63.32,1.86.44.4.21.85.35,1.27.52,1.3.52,2.65.86,4,1.22.55.15,2.51.71,5.31.66,2.8-.06,5.93-.87,6.6-1.03.33-.08.65-.17.98-.24.59-.13,1.13-.38,1.69-.57.28-.09.57-.13.87-.14.38-.02.68.31.46.78Zm9.24-9.73c-.51.41-1.04.78-1.6,1.12-1.12.68-2.31,1.25-3.55,1.7-.61.21-1.24.33-1.88.44-.5.09-.99.06-1.42.08h-.68c-.96,0-1.86-.28-2.7-.73-.43-.22-.82-.51-1.16-.85-.51-.54-.81-1.16-.89-1.84-.02-.23-.02-1.24.46-2.1.48-.86,1.12-1.4,1.34-1.68.1-.13.04-.22-.06-.26-.16-.06-.32-.1-.48-.13-.34-.07-1.51-.57-1.14-1.1.37-.53,1.71-.14,2.16-.12.66.03,1.3-.06,1.95-.11.61-.04,2.63-.3,3.02-.38.6-.12,1.2-.23,1.79-.45,1.15-.42,2.33-.8,3.48-1.23.78-.3,1.51-.73,2.14-1.27.33-.28.95-1.01,1.52-.7.57.31-1.03,2.03-1.13,2.11-.2.15-.16.33.04.47.25.18,1.15,1.1,1.26,2.62.1,1.52-1.54,3.66-2.46,4.42h0Z"/>
    <path class="cls-2" d="m132.04,103.42c.79-.07,1.57-.28,2.28-.64.65-.33,1.24-.72,1.71-1.26.68-.77.94-1.65.61-2.65-.11-.33-.28-.65-.39-.98-.21-.65-.49-1.03-1.37-1.03-.17,0-.35.02-.51,0-.42-.08-.83-.18-1.25-.27-.2-.04-.26.04-.23.22.07.34.36.86.25,1.56-.29,1.84-1.23,2.74-1.97,3.42-.8.73-1.79.97-2.82.77-.97-.19-1.84-.64-2.5-1.41-.59-.67-.93-1.52-.96-2.4-.03-.67.12-1.32.33-1.95.16-.48.27-.98.59-1.39.15-.19.29-.39.43-.6.12-.18.07-.28-.16-.28-.25,0-.5,0-.87,0-.33-.02-.79-.04-1.22.12-.66.25-1.25.64-1.74,1.15-.21.21-.37.46-.46.75-.15.51-.15,1.05,0,1.56.41,1.42,1.19,2.59,2.44,3.4.75.49,1.57.85,2.4,1.19.79.32,1.62.46,2.44.65.68.16,1.38.22,2.08.18.29-.01.58-.07.88-.09Z"/>
    <path class="cls-2" d="m154.31,103.52c-.69,0-2.35-1.14-2.58-2.6-.23-1.46.45-2.81.58-3.11.1-.22.09-.26-.12-.35-.06-.02-.83-.07-.89-.07-.31.01-2.18,2.01-2.18,3.84s1.82,2.2,2.56,2.44c.41.14,2.16.07,2.57.01.1-.02.21-.05.3-.1.01,0,.02-.02.03-.03-.02-.02-.03-.04-.05-.04-.08,0-.15,0-.23,0Z"/>
    <path class="cls-2" d="m161.76,95.41c-.06-.08-.19-.35-.59-.16-.27.12-.55.2-.82.3-.56.2-1.11.4-1.67.6-.24.09-.26.26-.05.43.31.25.61.54.68.91.1.52.18.85.21,1.6.02.62-.11,1.23-.39,1.79-.18.33-.36.64-.68.93-.32.28-.78.54-.78.7,0,.32,1.21-.49,1.48-.63.21-.11,2.08-1.47,2.27-1.67.22-.23.36-.5.52-.76.4-.63.71-1.3.67-2.08,0-.65-.03-.76-.41-1.34-.14-.21-.29-.4-.44-.61Z"/>
    <path class="cls-2" d="m171.14,94.54c-.12-.24-.25-.29-.59-.23-.24.05-.31.13-.32.4,0,.08-.01,1.4-.16,2.79-.1.89-.24,1.79-.37,2.41-.07.35-.37.96-.08,1.03.29.07.84-1.93,1.12-2.53.11-.23.5-1.78.57-2.3.07-.5-.08-.97-.11-1.45,0-.04-.02-.09-.05-.13Z"/>
    <path class="cls-2" d="m157.14,96.67c-.3-.04-.53.13-.75.28-.03.03-.05.08-.05.12-.02.31.18.52.48.52.42,0,.46-.03.58-.45.07-.25-.04-.44-.26-.47Z"/>
    <path class="cls-2" d="m130.53,97.15c.42,0,.46-.03.58-.45.07-.25-.03-.44-.26-.48-.3-.04-.53.13-.76.28-.03.03-.05.08-.05.12-.02.31.18.52.48.53Z"/>
    <path class="cls-4" d="m133.14,104.43c1.61-.42,4.19-1.77,4.65-3.91.46-2.14-.39-3.02-.16-3.38.23-.36,1.66.15,1.97-.69.12-.33.07-.69-1.05-.66-1.34.04-2.46-.08-3.99-.25-1.1-.12-3.13-.64-3.77-.81-.95-.26-1.88-.59-2.78-.98-1-.43-2.03-.82-2.96-1.39-.21-.13-1.41-.89-1.87-.5-.46.39.1.97.28,1.19.18.21.36.37-.17.51-.89.25-1.68.78-2.26,1.49-.78.96-.87,1.45-.75,2.38.1.72.36,1.37.67,2.01.62,1.28,1.6,2.26,2.69,3.13.86.68,1.84,1.14,2.86,1.52,1.27.48,2.59.67,4.15.67.71.06,1.62-.09,2.49-.32Zm-3.05-7.92c.23-.15.45-.32.75-.28.23.03.32.23.26.48-.12.43-.16.46-.58.45-.3,0-.5-.22-.48-.52,0-.05.01-.09.05-.13Zm-3.45,6.17c-.83-.34-1.65-.7-2.4-1.19-1.25-.81-2.03-1.98-2.44-3.4-.15-.51-.15-1.05,0-1.56.09-.28.24-.54.46-.75.49-.51,1.08-.9,1.74-1.15.43-.16.88-.14,1.22-.12.37,0,.62,0,.87,0,.23,0,.28.1.16.28-.14.2-.28.41-.43.6-.32.41-.43.91-.59,1.39-.21.63-.36,1.28-.33,1.95.03.89.37,1.74.96,2.4.66.77,1.53,1.23,2.5,1.41,1.03.19,2.02-.04,2.82-.77.75-.68,1.68-1.58,1.97-3.42.11-.7-.19-1.22-.25-1.56-.03-.19.03-.27.23-.22.42.09.83.19,1.25.27.17.03.34.01.51,0,.88,0,1.17.37,1.37,1.03.11.34.28.65.39.98.34,1,.07,1.88-.61,2.65-.48.54-1.07.94-1.72,1.26-.71.35-1.49.57-2.28.64-.29.02-.59.07-.87.09-.7.04-1.4-.02-2.07-.18-.82-.19-1.66-.33-2.45-.65h0Z"/>
    <path class="cls-4" d="m162.79,94.63c-.21-.15-.24-.33-.04-.47.11-.08,1.71-1.8,1.13-2.11-.57-.31-1.19.42-1.52.7-.63.54-1.36.97-2.14,1.27-1.15.44-2.32.81-3.47,1.24-.59.21-1.18.33-1.79.45-.39.08-2.41.33-3.02.38-.65.05-1.29.14-1.95.11-.45-.02-1.79-.41-2.16.12-.37.53.8,1.03,1.14,1.1.16.03.33.07.48.13.1.04.16.13.06.26-.22.28-.86.81-1.34,1.68-.48.86-.49,1.87-.46,2.1.07.69.37,1.3.89,1.84.34.34.73.63,1.16.85.85.45,1.73.73,2.7.73h.68c.43-.02.92,0,1.42-.08.64-.11,1.27-.23,1.88-.44,1.24-.45,2.43-1.02,3.55-1.7.56-.33,1.1-.7,1.6-1.12.93-.76,2.56-2.91,2.46-4.43-.1-1.52-1.01-2.44-1.26-2.62Zm-8.22,8.96c-.1.04-.2.07-.3.1-.41.05-2.16.12-2.57-.01-.74-.24-2.56-.61-2.56-2.44,0-1.83,1.87-3.83,2.18-3.84.07,0,.83.04.89.06.21.08.23.12.12.35-.14.3-.81,1.65-.59,3.11.23,1.46,1.89,2.59,2.58,2.6.08,0,.16,0,.23,0,.02,0,.04.03.05.04-.01.01-.02.03-.03.03Zm2.25-6c-.3,0-.5-.22-.48-.52,0-.05.02-.09.05-.12.23-.15.46-.33.76-.28.22.03.32.23.26.47-.12.43-.16.46-.58.45Zm5.12,1.84c-.16.26-.31.53-.52.76-.19.19-2.06,1.57-2.27,1.67-.27.14-1.48.95-1.48.63,0-.16.46-.41.78-.7s.5-.6.68-.93c.28-.55.41-1.17.39-1.79-.03-.76-.11-1.08-.21-1.6-.07-.37-.37-.67-.68-.91-.21-.17-.19-.34.05-.43.55-.21,1.11-.4,1.67-.6.27-.1.56-.18.82-.3.4-.18.53.08.59.16.15.2.3.4.44.61.38.58.41.69.41,1.34.04.78-.27,1.44-.67,2.07h0Z"/>
    <path class="cls-4" d="m138.86,101.99c-.15.27-.34.52-.55.74-.18.18-.33.37-.51.55-.29.28-.6.55-.9.81-.79.67-1.76.87-2.73,1.02-.54.08-2.07.69-2.38,1.48-.31.78.77,1.32,1.12,1.44.97.32,1.97.57,2.98.76.5.09.99.2,1.49.28.32.05,2.42.32,4.67.43,1.74.09,4.73-.12,5.97-.3,1.24-.19,2.22-.64,2.31-1.25.1-.61-1.26-1.88-1.81-2.28-.66-.47-1.31-.94-1.95-1.43-.73-.55-1.29-1.25-1.56-2.14-.06-.21-.18-.4-.34-.54-.3-.25-.62-.25-1.02.01-.27.18-.14.45-.14.69.01.11.05.21.1.3.15.32.32.63.46.95.26.6.69,1.11,1.24,1.47.53.35,1.05.72,1.56,1.1.3.22,1.38,1.11,1.58,1.37.03.04.05.09.05.15,0,.05,0,.1-.02.15-.02.05-.05.09-.09.12-.04.03-.09.06-.14.07-.32.05-2.2.26-2.57.28-.92.05-1.84.09-2.76.09-.73,0-1.46-.05-2.19-.09-.53-.03-2.33-.23-2.67-.28-.47-.08-3.34-.52-3.44-.55-.13-.04-.26-.07-.4-.11-.29-.09-1.1-.2-.86-.65.24-.45,2.17-.64,2.66-.74.77-.15,1.36-.56,1.86-1.14.3-.35.61-.71.9-1.07.43-.54.87-1.06,1.27-1.62.14-.19.1-.41.22-.6.03-.04-.02-.15-.07-.21-.18-.24-.51-.29-.71-.08-.25.25-.46.53-.65.83Z"/>
    <path class="cls-4" d="m151.88,110.63c-.29,0-.58.05-.87.14-.56.19-1.1.45-1.69.57-.33.07-.65.16-.98.24-.67.15-3.8.97-6.6,1.03s-4.76-.51-5.31-.66c-1.35-.36-2.7-.7-4-1.22-.42-.17-.86-.32-1.27-.52-.23-.12-1.61-.8-1.86-.44-.38.54.11.92.67,1.21,1.74.9,6.3,2.57,9.91,2.77,3.61.19,6.81-.38,7.3-.49,1.02-.22,2.03-.47,3.04-.73.63-.16,1.25-.35,1.78-.75.13-.1.27-.22.34-.37.22-.47-.08-.8-.46-.78Z"/>
    <path class="cls-4" d="m142.3,97.88c.18,0,.36-.06.52-.16.07-.04.07-.22.1-.33,0-.03,0-.07.01-.09.3-.42.16-.93.25-1.39.06-.3.08-.61.14-.91.02-.1.05-.21.07-.31.1-.57.18-1.15.31-1.72.09-.41.2-.81.16-1.18,0-.12,0-.2,0-.28.07-.63-.34-.92-.89-.86-.18.02-.31.08-.39.21-.16.26-.29.54-.22.87.04.21.05.42.03.63-.03.45-.08.89-.13,1.33,0,.08-.02.15-.04.23-.08.47-.2.93-.23,1.4-.04.52-.16,1.03-.25,1.54-.03.15-.04.31-.04.46.03.31.22.56.61.55Z"/>
    <path class="cls-4" d="m144.72,98.17s.14-.01.16-.06c.14-.26.4-.43.48-.73.09-.31.16-.62.21-.94.05-.32.16-.62.2-.95.06-.61.24-1.2.25-1.82,0-.08.03-.15.06-.22.07-.15.12-.32.13-.48.03-.35.15-.69.17-1.04.02-.31-.09-.61-.29-.85-.08-.09-.25-.14-.38-.13-.18,0-.39.03-.52.14-.12.09-.18.29-.21.45-.05.4-.07.8-.1,1.2-.03.37-.02.75-.12,1.1-.07.27-.03.52-.09.78-.07.32-.12.63-.17.95-.03.19-.08.4-.06.58.03.23-.12.39-.18.58-.1.29-.14.6-.14.91.02.38.17.53.6.52Z"/>
    <path class="cls-4" d="m142.7,86.22c.32-.37.53-.83.59-1.32.06-.55.47-3.79.53-4.11.04-.25.1-.51.13-.69v-.17c-.01-.29-.13-.42-.46-.48-.19-.04-.32.06-.43.3-.02.06-.25.91-.32,1.28-.07.32-.2.63-.24.97-.09.74-.28,1.47-.31,2.21-.02.48-.14.93-.27,1.38-.07.27.01.45.17.63.04.04.09.08.14.1.05.02.11.04.17.04.06,0,.12-.01.17-.04.05-.02.1-.06.14-.1Z"/>
    <path class="cls-4" d="m171.31,92.71c-1.02.13-1.14-.16-1.19-.85-.04-.69-.41-2.09-.63-2.72-.57-1.62-1.25-3.19-2.05-4.71-.4-.78-.73-1.62-1.22-2.34-3.1-4.56-6.44-6.77-7.55-7.42-1.44-.84-2.88-1.7-4.44-2.31-.41-.16-.85-.26-1.27-.37-.32-.08-.66-.14-.98-.21-.04,0-.05-.1-.08-.15.34-.14.48-.48.68-.74.21-.26.99-1.66,1.17-2.08.35-.82,1.19-2.58,1.64-5.46.45-2.88.39-5.41.2-7.1-.05-.52-.13-1.04-.26-1.54-.19-.72-.43-1.44-.65-2.15-.06-.19-.12-.38-.2-.57-.11-.29-.55-2.23-1.11-2.03-.56.2-.1,1.84.08,2.48.13.44.65,1.83.88,3.66.25,1.99.21,4.46-.03,6.07-.22,1.55-.78,3.91-.79,3.98-.07.34-.87,3.12-1.24,2.96-.36-.16.97-3.49,1.11-6.57.14-3.08-.02-5.16-.08-5.57-.07-.55-.17-1.09-.27-1.64-.11-.59-.2-1.18-.34-1.76-.21-.9-.44-1.79-.7-2.67-.38-1.3-.85-2.55-1.7-3.63-.38-.48-.88-.82-1.34-1.19-.16-.12-.33-.21-.51-.28-.07-.04-.14-.07-.22-.1h0c-.09-.03-.18-.06-.28-.08-1.32-.26-2.5.68-2.84.95h0s-.02.02-.02.02c-.31.25-.3.28-.55.51-.25.23-.81.12-.98.06-.02,0-.03,0-.05,0-.37-.08-.71-.01-1.11.31-.22.17-.41.38-.57.61-.85,1.3-1.52,2.68-1.92,4.19-.26.98-.51,1.96-.73,2.95-.14.61-.83,4.06-.96,7.46-.08,2.06.34,4.72.47,5.3.14.61.26,1.25.52,1.81.33.7.53,1.49,1.24,1.96.14.09.1.23-.06.32-.46.25-.96.21-1.45.17-.12-.01-.25-.13-.33-.23-.27-.35-.53-.72-.77-1.09-.53-.82-1.08-1.62-1.56-2.47-.46-.82-.92-1.65-1.21-2.55-.3-.92-.97-2.49-1-5.49-.01-1.18.24-2.78-.45-2.94-.69-.16-.97,3.22-.55,5.52.42,2.31,1.28,4.44,1.88,5.68.48,1.01,1.09,1.94,1.67,2.89.05.08,1.09,1.28.53,1.42-.57.14-.87.19-1.3.3-.2.05-.37-.06-.49-.2-.26-.3-.51-.62-.75-.93-.14-.18-.25-.39-.39-.57-.81-1.1-1.54-2.25-2.18-3.45-.64-1.19-1.39-2.98-1.54-3.71-.15-.73-.21-1.62-.66-1.61-.45.02-.94.39-.37,2.51.57,2.11,1.18,3.38,1.88,4.55.76,1.27,1.54,2.53,2.59,3.6.05.04.09.09.12.14.04.09.07.18-.05.24-.15.07-.31.14-.47.19-.29.09-2.91,1.22-3.94,1.67-1.49.66-2.92,1.42-4.3,2.28-1.08.67-2.12,1.4-3.12,2.2-.61.49-1.52.92-3.05,2.84-.68.86-1.29,1.77-1.81,2.73h0s-.01.03-.01.03c-.09.17-.17.32-.24.45-.08.15-.18.3-.28.43-.27.33-.81.45-1.33.56-2.04.4-2.81,2.97-2.95,3.61-.12.57-.23,1.14-.33,1.72-.11.59-.45,3.17-.14,5.24.1.66.33,1.5.74,2.01.48.6.97,1.19,1.54,1.7.62.55,1.03,1.24,1.29,2.01.3.89.69,1.75,1.16,2.56.09.16.21.3.35.41.21.19.39.4.53.64.12.18.08.3-.08.47-.14.14-.31.25-.5.32-.49.21-.97.43-1.44.69-.29.16-.54.41-.81.6-.2.14-.4.29-.66.3-.21,0-.41-.04-.62-.02-.21.02-.46-.05-.68-.09-.54-.11-1.06-.28-1.61-.35-.53-.07-1.05-.19-1.56-.36-.37-.12-.68-.07-1,.09-.32.17-.46.75-.23,1.04.39.5.79.99,1.19,1.47.12.15.22.29.23.49,0,.26-1.7,1.07-1.91,1.2-.74.46-1.48.9-2.22,1.35-1.46.88-8.25,5.34-9.1,5.92-.54.37-1.05.78-1.56,1.18-.71.56-1.4,1.13-2.12,1.68-.63.48-1.29.92-1.92,1.4-.62.47-1.22.96-1.84,1.42-.98.72-1.92,1.49-2.81,2.31-.46.42-.92.85-1.43,1.2-1.37.95-2.66,2-3.97,3.02-.86.67-.95,1.75-.2,2.53.16.17.33.34.49.5.71.68,1.38,1.39,1.95,2.2.73,1.04,1.68,1.89,2.59,2.77.58.56,1.2,1.11,1.74,1.71.74.83,1.55,1.59,2.43,2.26.9.7,1.76,1.44,2.57,2.24.66.64,1.39,1.2,2.17,1.68,1.37.83,2.69,1.71,3.97,2.67.9.67,1.85,1.23,2.94,1.52.62.17,1.25.33,1.86.55.94.35,1.86.74,2.79,1.11,1.1.44,2.25.71,3.42.91.65.11,1.29.24,1.94.37.32.07.63.13.94.2.13.03.12.14.08.22-.07.14-.18.25-.25.39-.17.34-.1.62.19.85.24.19.49.39.69.61.32.36.29.47,0,.79-.49.56-.97,1.13-1.29,1.81-.1.22-.25.42-.37.64-.21.38-.38.78-.61,1.15-.51.85-1.03,1.69-1.46,2.59-.24.51-.52,1.01-.78,1.52-.21.4-.43.79-.62,1.2-.09.2-.44.67-.47.76-.2.56-.1,1.03.28,1.34.13.1.77.32,1.45.49.67.16,1.26.13,1.47-.17.21-.3.31-.61.29-1.06-.02-.32,0-.66,0-.99,0-.26.02-.59.32-.62.31-.03.89,2.12,1.11,2.52.18.33.43.57.79.66.12.03,2.79.5,3.49.56.97.09,5.42.35,6.01-.09.34-.26.49-.69.52-1.07.02-.27-.29-2.87-.43-3.3-.22-.69-.36-1.05-1.43-1.33-1.07-.29-2.62.23-3.3.43-.62.18-3.84.73-4.04.05-.2-.67.58-3.25.67-3.57.36-1.19.93-2.29,1.56-3.36.09-.16.39-.65.62-1.09q.48-.91,1.29-.81c.36.04,1.62.19,1.97.26.58.11,1.17.25,1.76.34.53.08,1.82.25,1.92.25.17,0,.34.01.5,0,.48,0,4.31.07,4.69.05,1.14-.04,7.39-.25,7.88-.28.21-.01,1.93-.18,2.51-.24.57-.06,1.17,1.15,1.45,1.46.35.37.63.79.53,1.36-.04.25-.77,1.75-1.01,2.2-.44.85-.99,1.65-1.56,2.43-.3.41-1.53,2.25-1.94,2.7-.25.27-.37.63-.27.99.11.38.22.73,1.07.87.86.14,1.18-.07,1.5-.58.32-.51.77-1.18.9-1.44.11-.22.24-.43.37-.63.02-.04.06-.08.09-.09.07-.01.15-.16.2.03.04.16,1.25,2.48,1.54,2.93.29.45.72.44,1.67.52.95.08,2.79.04,4.03.08,1.24.04,3.08.06,3.74-.51.27-.23.36-.49.47-1.04.1-.55.6-2.39.47-3.43-.12-1.03-.82-1.4-1.64-1.32-.83.09-2.38.77-3.53,1.16-1.15.4-2.57.71-3.37.29-.8-.42-.96-.73-1.02-1.36-.06-.72-.05-1.46.16-2.17.12-.38,1.07-2.4,1.32-2.78.15-.22.09-.42-.06-.59-.15-.17-.31-.3-.47-.46-.15-.15-.28-.3-.43-.45-.11-.11-.1-.19.07-.22.27-.06,2.78-.26,2.99-.29.12-.02,3.95-.31,4.34-.36.61-.09,2.1-.11,2.99-.34,1.04-.26-.83-4.32-1.27-5.29-.23-.52-.48-1.04-.66-1.58-.42-1.3-.82-2.61-1.21-3.92-.28-.92-.31-1.91-.08-2.85.16-.65.4-1.71.53-2.27.13-.56.3-.58.61-.52.18.03.35.12.53.12.33,0,.69-.06.86-.35.23-.37.31-.87.42-1.24.1-.37.23-.79.75-.91.52-.12,1.41-.4,1.88-.51.72-.17,1.28.2,1.72.77.22.28.45.54.7.79.51.53,1.02,1.06,1.52,1.6.25.25.55.43.88.55.52.18,1.44-.26,1.49-.8.03-.3-.7-1.35-1.39-2.19-.39-.48-.6-.61-.84-.86-.02-.03-.32-.28-.19-.36.13-.08.32.14.37.19.18.16.36.31.57.46.47.34.92.65,1.41.96.38.24.84.46,1.2.7.34.24.72.22,1.11.19.38-.03.79-.57.64-1.1-.07-.25-.19-.49-.36-.7-.33-.41-.7-.8-1.1-1.14-.21-.17-.99-.68-1.71-1.1-.19-.11-.43-.31-.49-.45-.06-.13.06-.21.15-.17.14.06.33.16.56.26.97.45,2.53,1.16,2.81,1.28.49.22,1.01.4,1.57.32.61-.08.94-.5.93-1-.02-.68-.29-1.01-.7-1.3-.35-.25-2.09-1.02-2.6-1.23-.16-.07-.33-.13-.49-.19-.11-.04-.76-.33-.65-.48.11-.15.71.14.78.16.67.22,1.3.42,1.42.48.37.19.78.26,1.16.41.38.15.79.16,1.19.14.33-.02.85-.25.98-.71.13-.45-.16-1.11-.82-1.62-.79-.61-4.88-2.12-5.16-2.34-.29-.22.47-.46,1.1-1.41.25-.37.37-1.05-.4-1.45-.5-.26-1.68,0-2.21.13-.94.25-4.33,1.94-5.19,2.4-.85.46-1.61.62-2.06.42-.35-.15-.71-.31-1.08-.37-.31-.05-.42-.21-.48-.47-.03-.12-.05-.24-.06-.36.03-.87-.02-1.74.07-2.61.08-.71.06-1.44-.05-2.15-.13-.77.03-1.55.1-2.32.06-.57.11-1.13.08-1.71-.03-.48,0-.96-.1-1.44-.1-.5-.08-1.01-.2-1.51-.05-.22-.13-.44-.18-.66-.05-.22,0-.31.22-.39.8-.31,1.6-.62,2.39-.95,1.21-.49,5.93-3.15,6.95-3.89,3.46-2.52,6.22-5.67,6.76-6.15.75-.68,1.62-1.31,2.09-2.2.59-1.14,1.02-2.34,1.39-3.57.26-.86.43-1.74.38-2.65-.01-.22.01-1.13-.06-1.35-.18-.56-.8-1.11-1.4-1.04Zm-55.93-1.99c-.19.87-.33,1.76-.42,2.65-.04.62-.04,1.24-.1,1.86-.06.63,0,3.98-.09,4.26-.11.34-.25.41-.51.14-.15-.15-1.08-1.06-1.17-3.38-.09-2.32.43-3.78.56-4.35.19-.88.45-1.74.97-2.49.4-.5,1-.58.93-.07-.06.53-.17,1.37-.17,1.37h0Zm39.64,43.71c.03-.1.09-.2.1-.31.04-.45.09-.89.1-1.34.01-.64.16-2.21.17-2.48.04-.66.72-.89,1.29-1.2.57-.31,2.77-1.34,3.63-1.76.52-.25,1.05-.5,1.59-.71.33-.11.68-.19,1.02-.23.02,0,.31-.08.36.11.05.21,0,.35-.17.44-.24.13-.5.24-.74.38-.71.39-1.42.79-2.14,1.17-.65.35-1.3.71-1.97,1.03-.37.17-.71.44-1.01.71-.34.3-.2.79.22.95.11.04.23.06.35.05.12,0,.24-.04.35-.09.33-.14,1.9-1.34,2.38-1.6.28-.15.56-.31.85-.47.07-.04.14-.06.22-.06.08,0,.15.03.21.08.43.29.94.34,1.42.49.48.15.92.34,1.37.53.41.17.81.38,1.22.55.45.18.91.34,1.37.51.41.16,1.33.47,1.08.85-.11.17-.93.02-1.81-.29-1.06-.38-2.5-.84-2.75-.95-.38-.15-2.11-.71-2.47-.02s-.13,1.25,1.01,1.84c.48.25,1,.4,1.49.63.39.18.8.31,1.19.49.58.27,1.15.55,1.72.85.25.13.62.37.46.66-.16.29-1.51-.48-2.2-.84-.2-.1-.62-.27-.84-.36-.83-.32-1.52-.67-2.35-1.01-.42-.18-1.22-.14-1.46.16s-.17.86.24,1.1c.7.4,1.95,1.25,2.58,1.78.63.54.85.8,1.14,1.04.24.2.46.42.67.65.02.03.04.06.04.1,0,.04,0,.07,0,.11-.03.05-.13.06-.2.06-.05,0-.09,0-.13-.03-.36-.23-.72-.46-1.08-.7-.25-.17-.49-.36-.74-.54-.35-.25-.7-.5-1.03-.77-.58-.47-1.17-.93-1.83-1.29-.24-.14-.47-.3-.68-.47-.28-.2-.56-.29-.9-.14-.28.12-.42.31-.32.58.09.22.21.46.39.62.35.31.61.66.87,1.05.33.47.7.91,1.11,1.31.56.55,1.29,1.6,1.38,1.84.09.24-.12.26-.2.24-.08-.04-.16-.1-.22-.17-.54-.6-1.05-1.23-1.62-1.79-.59-.58-2.22-2.46-2.65-2.58-.2-.06-.37-.07-.56.07-.3.21-.63.37-.96.54-.11.06-.23.09-.35.09-.35,0-.52-.18-.47-.53.05-.32.17-.62.26-.92h0Zm-8.47-87.54c.26-.24.65-.16.87-.05.36.08.69.25.97.48.55.46,1.1,1.26,1.31,1.64.52.9.87,1.87,1.21,2.85.57,1.64,1.24,4.83,1.39,7.32.1,1.5.06,3-.1,4.48-.09.62-.18,1.25-.27,1.87-.07.44-.13.88-.23,1.31-.15.66-.36,1.3-.5,1.96-.12.54-.79,2.57-1.33,2.41-.54-.16-.02-.83.07-1.08.22-.6.46-1.19.64-1.81.36-1.3.62-2.63.79-3.97.09-.66.09-1.33.1-2,0-1.26.07-2.52-.18-3.77-.12-.6-.18-1.22-.32-1.81-.18-.82-.4-1.64-.63-2.45-.47-1.65-1.18-3.19-2.23-4.55-.54-.71-1.08-1.41-1.6-2.13-.21-.32-.2-.48.04-.7Zm-1.58.63c.25.04.46.41.46.41h0c.14.25.27.49.42.74.27.45.54.91.85,1.33.64.86,1.18,1.78,1.62,2.76.5,1.13.85,2.31,1.17,3.5.31,1.19.47,2.42.57,3.64.07.91-.03,4.85-.24,6.48-.21,1.63-.82,3.55-.89,3.82,0,.03-.06.05-.09.08-.03-.03-.05-.06-.07-.1,0-.03-.01-.06,0-.09.05-.96.2-5.55.18-6.06-.02-.52.03-4.07-.39-6.3-.42-2.23-1.68-5.7-2.34-7.12-.34-.73-.73-1.43-1.12-2.13-.09-.16-.2-.31-.32-.45,0,0,0,0,0-.02-.22-.3-.05-.53.2-.49Zm-1.58.82c.52,0,.9,1.14,1.14,1.75.44,1.09.96,2.15,1.34,3.27.36,1.05.72,2.09.91,3.18.12.71.29,1.41.37,2.13.07.58.2,1.15.27,1.73.07.54.08,1.08.12,1.62.15,1.71.08,8.76.07,9.19,0,.14-.04.27-.1.4,0,.02-.02.04-.04.06-.02.01-.04.02-.06.02-.02,0-.05,0-.07-.02s-.03-.03-.04-.05c-.07-.13-.6-3.9-.73-4.62-.09-.5-.51-2.63-.62-3.2-.11-.56-.2-1.12-.31-1.67-.16-.84-.31-1.69-.51-2.53-.31-1.34-.66-2.68-.98-4.02-.16-.69-.26-1.39-.4-2.08-.05-.27-.32-1.84-.47-3.18-.11-1.07-.14-1.98.09-1.98h0Zm-2.6,5.33c.15-.67.62-3.1.92-3.3.06-.04.14-.05.21-.04.03,0,.06.1.07.15.01.33.28,2.32.39,2.91.17.95.43,1.88.57,2.84.1.66.74,3.15.83,3.76.17,1.06.32,2.12.53,3.17.28,1.44.59,2.88.94,4.31.13.54.49,2.49.7,2.88.09.18.11.35,0,.52-.11.17-.19.16-.37.06-.5-.29-1.22-.9-2.07-3.1-.85-2.2-.99-2.44-1.24-3.75-.12-.63-.58-2.91-.65-3.43-.06-.41-.18-1.89-.18-2.21h-.02c0-.48-.08-2.38-.09-2.86,0-.11-.02-.23.02-.33.15-.37-.01-.67-.29-.83-.35-.19-.33-.48-.27-.75h0Zm-.52,15.31c-.35-.87-.53-1.8-.71-2.71-.12-.59-.1-1.18-.1-1.77,0-.44,0-.88,0-1.31,0-.55.18-3.27.24-4.08.06-.73.45-3.01.52-3.45,0-.03.06-.05.09-.08.02.03.07.06.07.1,0,.11.01.22,0,.33,0,.78-.01,1.56,0,2.35.01.7.02,1.4.1,2.09.07.59.09,1.17.19,1.75.32,1.93.74,3.83,1.39,5.67.31.84.69,1.65,1.15,2.43.26.46.52.96,1.05,1.21.04.02.07.06.1.1.03.03.04.08.04.12,0,.02-.02.03-.04.05-.02.01-.04.02-.06.02-.18-.01-1.17.06-2.16-.36-.99-.42-1.22-.8-1.87-2.45Zm-23.4,63.92c-.1.17-.21.34-.31.51-.16.29-.34.58-.47.88-.1.22-.26.38-.42.55-.21.21-.99,1.4-1.16,1.79-.06.16-.17.25-.27.26-.24.03-2.4-.27-2.96-.33-.8-.08-1.58-.25-2.36-.41-1.25-.25-2.48-.58-3.66-1.09-1.07-.47-2.15-.92-3.23-1.39-.14-.07-1.22-.54-1.28-.61-.17-.16-.34-.32-.5-.5-.06-.07-.1-.15-.11-.24,0-.31-.03-.62.09-.92.06-.15.59-2.22.83-2.99.29-.92.7-1.77,1.14-2.62.56-1.07,1.28-2.05,1.87-3.1.57-1.01,1.3-1.89,1.99-2.8.4-.52.86-.99,1.28-1.49.3-.36.58-.73.89-1.08.46-.53.93-1.05,1.4-1.57.28-.32.59-.62.85-.96.18-.23.3-.5.44-.75.04-.07.08-.13.13-.19.25-.29.36-.31.68-.08.13.09.24.2.34.33.61.81,1.41,1.45,2.11,2.19.19.2.47.31.65.55.08.11.13.24.13.38.01.24-.07,1.36-.15,1.61-.02.09-.04.18-.04.27-.07.52-.13,1.04-.22,1.55-.07.46-.17.9-.25,1.36-.11.56-.21,1.12-.32,1.67-.06.28-.16.56-.23.84-.02.11-.02.22,0,.32.01.14.07.27-.08.39-.16.12-.33.29-.53.23-.43-.14-.86-.08-1.29-.08-.58,0-1.18.04-1.76.09-.37.03-.73.1-1.08.19-.27.08-.56.17-.7.48-.11.24-.07.51.17.63.14.07.29.1.44.1.64.01,1.28,0,1.92,0,.52,0,1.05-.04,1.57,0,1.45.15,2.9.05,4.35.09.33.01,2.2.19,2.77.25.34.04.26.45.21.54-.15.27-.28.57-.49.77-.4.38-.61.86-.78,1.34-.17.48-.86,1.7-.95,1.85-.22.38-.42.77-.63,1.16h0Zm12.8,2.78c-.23.24-.26.26-.56.1-.27-.14-.53-.31-.78-.49-.87-.64-1.74-1.29-2.49-2.09-.32-.35-3.26-2.28-3.69-2.29-.44,0-.68.41-.43.77.15.21.35.39.58.51.49.24,1.99,1.45,2.09,1.56.63.62,1.26,1.24,1.88,1.87.17.18.32.38.47.57.18.21.35.42.53.61.12.12.85,1.23.44,1.51-.4.29-1.04-.22-1.27-.49-.23-.26-2.78-2.67-3.22-3.04-.3-.25-.53-.57-.84-.82-.21-.17-.45-.32-.7-.43-.22-.1-.44-.21-.64-.34-.19-.12-.43-.17-.56-.07-.09.07-.14.18-.16.29-.02.11,0,.23.07.33.11.14.25.27.4.37.32.25,1.68,1.6,2.09,1.99.01.01.03.02.04.03.29.31.58.62.86.94.23.25.43.53.67.77.31.3.56.64.75,1.03.09.18.51,1.09.09,1.48-.42.4-1.29-.62-1.51-.86-.54-.59-1.17-1.5-1.22-1.61-.16-.31-.37-.61-.61-.86-.32-.35-.6-.74-.9-1.11-.09-.11-.17-.21-.26-.32-.15-.18-.3-.36-.44-.53-.31-.37-.72-.57-1.17-.7-.14-.04-.37.22-.38.42-.02.31.15.57.31.8.16.23,1.27,1.19,1.64,2.15.37.96,1.13,3.17.72,3.33-.42.17-.68-.58-.81-.76-.27-.36-.61-.68-.78-1.08-.17-.4-.42-.74-.62-1.12-.11-.2-.49-.89-.55-1.04-.04-.1-.96-1.75-1.23-1.98-.16-.13-.19-.28-.13-.49.16-.53,1.34-2.4,1.5-2.69.06-.11,1-1.75,1.2-2.22,0-.01.54-.93.82-1.36.21-.3.44-.49.83-.49.41,0,3.61-.07,4.49-.1.41-.01,1.37.13,1.34.63-.03.5-2.38.45-2.79.45-.68,0-1.36-.07-1.6-.04-.18.01-.36.05-.54.1-.36.12-.42.41-.15.67.1.09.22.21.34.23.22.03.39.16.58.24.3.12,2.24,1,3.35,1.82,1.12.82,2.52,2.43,2.81,3.01.07.15.16.29.23.44.07.15.03.29-.1.42h0Zm15.18-19.32c-.13.14-1.07.96-1.41,1.2-.17.12-.38.2-.55.32-.94.63-1.95,1.14-3.01,1.53-1.24.47-5,1.64-6.86,1.64s-3.79-.62-3.98-.69c-.36-.12-.69-.33-1.03-.5-.09-.04-.09-.13,0-.17.11-.06,1.71-.45,2.05-.62.73-.37,1.45-.76,2.25-.96.53-.13,1.08-.24,1.62-.34.51-.1,1.02-.2,1.54-.27.38-.06.77-.06,1.15-.11.23-.03.45-.07.67-.14.21-.07.32-.32.29-.56-.03-.19-.18-.31-.43-.34-.12-.01-1.2.1-1.38.1-.17,0-.34,0-.51,0-.57-.01-1.13.11-1.69.22-.59.12-1.17.24-1.76.35-.51.1-1.03.19-1.54.27-.12.01-.25.02-.37,0-.99,0-1.97,0-2.96,0-.68,0-1.36.06-2.03.18-.46.07-.93.07-1.39.11-.28.02-1.59,0-1.81,0-.62,0-1.23-.1-1.84-.18-.64-.09-1.26-.26-1.86-.5-.76-.3-1.42-.75-2.07-1.23-1.18-.86-2.16-1.94-3.16-2.98-.1-.1-1.15-1.3-1.32-1.5-.12-.14-.23-.29-.31-.45-.01-.02-.02-.04-.02-.07s0-.05.02-.07c.01-.02.03-.04.06-.04.02,0,.05-.01.07,0,.46.03,2.25.28,2.68.34.46.07.9.19,1.34.31.46.12.92.26,1.38.37.45.11.9.21,1.35.28,1.12.2,2.23.44,3.33.69.55.13,1.11.23,1.67.34.51.1,1.02.21,1.53.32.09.02,1.46.18,1.59.1.43-.26.85-.14,1.24.01.64.25,1.27.51,1.93.72.2.07,1.81.71,1.94.89.05.06.04.11-.02.14-.11.06-.22.14-.33.15-.34,0-3.95.09-4.8,0-.85-.1-1.68-.15-2.51-.35-.33-.08-.68-.04-1.01-.12-.46-.1-2.94-.14-3.72-.18-.11,0-.22.01-.32.05-.25.1-.32.31-.2.55.13.26,1.71.61,2.14.62.26.01,1.77.18,1.85.18.52.02,2.21.24,2.53.26,1.13.07,6.51-.16,6.96-.24.12-.02.25-.03.37-.03h2.63c.29,0,6.42.25,7.41.28.12,0,2.24-.06,2.56-.09.02,0,.04,0,.06.01.02,0,.04.02.05.04,0,.02,0,.04,0,.07,0,.02-.01.04-.03.06h0Zm7.94,13.53c.08-.52.14-.56.65-.39.46.15.55.25.56.71.01.5-.19,3.04-.27,3.81-.01.12-.18,1.14-.24,1.39-.12.5-.67,2.79-.98,2.9-.11.04-.55.02-.58-.14-.04-.12-.06-.23-.08-.35-.01-.25.33-3.65.38-4.13.04-.35.11-.7.16-1.05.04-.3.33-2.33.4-2.77h0Zm16.34-32.03c-.11.72-.23,1.42-.39,2.13-.31,1.35-.89,2.57-1.83,3.6-.93,1.02-1.93,1.96-3.01,2.81-.87.68-1.73,1.37-2.6,2.05-.93.75-1.93,1.41-2.98,1.99-1.71.93-3.51,1.69-5.28,2.51-.41.19-3.99,1.13-4.3,1.22-.79.25-1.61.39-2.44.49-.44.06-2.7.21-3.37.28-.66.07-1.33.07-2,.1-.23,0-3.53-.11-3.59-.12-.4-.05-.79-.11-1.19-.16-.32-.04-.65-.06-.96-.13-.75-.16-1.49-.34-2.24-.53-1.04-.27-2.06-.62-3.01-1.15-.61-.34-1.21-.69-1.84-1-1.53-.76-3.08-1.5-4.61-2.26-.42-.21-.81-.45-1.21-.69-1.04-.65-2.03-1.38-2.96-2.19-.45-.39-.85-.82-1.2-1.3-.57-.78-.93-1.67-1.3-2.56-.23-.55-.32-1.12-.45-1.69-.08-.36-.33-1.97-.38-2.41-.06-.56-.02-2.99.1-3.54.07-.31.55-3.82.55-4.21,0,0,.3-1.39.41-1.95.11-.56.49-1.19.68-1.53.21-.31.53-1.14.56-1.19.17-.35.31-.72.52-1.03.32-.48.65-.96,1.05-1.36.82-.82,1.68-1.59,2.54-2.36.79-.72,1.64-1.38,2.55-1.96.67-.42,1.33-.85,2-1.27.41-.25.82-.51,1.24-.73,1.59-.82,3.19-1.62,4.87-2.25.19-.07,1.46-.7,1.62-.75.33-.12.67-.22,1-.32.09-.03.18-.07.26-.05.08.03.16.08.2.16.02.03-.06.15-.11.17-.31.17-.62.33-.94.47-.23.11-.47.21-.71.31-.37.15-.75.28-1.1.46-1.04.56-2.08,1.1-3.09,1.71-1.71,1.03-3.23,2.32-4.66,3.71-.76.74-1.51,1.5-2.26,2.26-.8.81-2.53,3.55-2.67,3.92-.13.35-.03.54.26.7.26.14.77-.06.93-.37.22-.43.44-.87.69-1.29.6-1,1.33-1.92,2.16-2.75.23-.23.45-.48.68-.72.32-.33.63-.65.96-.95.51-.46,1.04-.89,1.55-1.35.63-.56,1.28-1.09,1.99-1.53,1.02-.62,2.04-1.24,3.08-1.82.62-.35,3.24-1.55,3.59-1.71.12-.06,1.32-.56,1.7-.75.19-.09.4-.13.61-.18.03,0,.07.05.1.09,0,.01,0,.02,0,.03,0,.01,0,.02-.01.03-.35.18-2.23,1.46-2.86,1.86-.26.16-.48.38-.72.58-.59.48-1.22.93-1.77,1.45-1.52,1.44-2.99,2.92-4.25,4.61-.63.85-1.27,1.69-1.87,2.55-.32.46-.6.94-.9,1.42-.11.17-.58,1-.17,1.19.41.19.93-.38,1.16-.68.43-.55.82-1.12,1.21-1.7.54-.8,1.1-1.58,1.71-2.33.44-.54.86-1.1,1.31-1.64.44-.54.89-1.09,1.38-1.59.42-.43.9-.81,1.37-1.2.71-.58,1.4-1.19,2.15-1.73,1.08-.8,2.21-1.53,3.29-2.32,1.07-.78.04-.76.79-1.25.87-.57,1.25-.83,1.71-.83s.81.17.32.66c-.68.69-1.56,1.56-1.79,1.8-1.24,1.24-2.46,2.49-3.57,3.85-.75.92-1.53,1.81-2.25,2.74-.63.81-1.26,1.62-1.65,2.58-.02.05-.07.09-.1.13-.09.14-.23.28-.24.43-.03.26-.17.46-.25.69-.04.11-.05.24-.02.35.12.39.69.41.9.13.1-.15.2-.31.29-.47.24-.4.4-.85.66-1.25,1.11-1.75,2.32-3.42,3.71-4.96.82-.9,1.67-1.78,2.5-2.67.21-.23,1.75-1.78,1.9-1.93.25-.24.49-.49.74-.73.05-.05.16-.12.19-.1.09.07.25.05.25.23.01.25-.01.34-.17.4-.27.11-1.53,1.29-1.78,1.62-.24.31-.5.61-.73.93-.25.35-.46.73-.71,1.07-1.16,1.6-2.02,3.36-2.81,5.16-.35.79-.93,2.9-.92,3.15,0,.06.08.13.14.17.46.29,1.18-.05,1.26-.59.05-.33,1.15-3.17,1.61-4.17.35-.76.74-1.49,1.18-2.21.4-.67.87-1.28,1.28-1.94.33-.53.72-1.01,1.17-1.44.17-.18.33-.37.48-.56.04-.06.11-.11.18-.14s.15-.02.23,0c.18.05.27.85.61,3.45.34,2.6.3,5.37.29,5.85-.01.62-.06,1.24-.09,1.86-.01.08-.04.15-.07.22-.03.1-.04.2-.02.3.01.1.05.19.11.28.08.14.32.25.43.2.26-.14.52-.29.59-.61.07-.3.34-3.2.11-6.42-.22-3.23-1.15-6.52-1.26-6.82-.06-.19-.09-.39-.08-.59,0-.15.3-.49.52-.11.22.38,1.15,2.41,1.38,2.88.72,1.44,1.24,2.95,1.75,4.47.25.77.45,1.56.58,2.37.13.76.28,1.51.27,2.29v.05c.03.35.26.55.61.56.15,0,.24-.04.28-.18.1-.43.18-2.4.16-2.79-.04-.73-.22-1.43-.4-2.13-.55-2.19-1.43-4.26-2.52-6.24-.05-.09-.12-.18-.18-.27-.24-.36-.67-1.16-.35-1.39.32-.23.67.24.77.34.31.3.54.65.77,1.02.57.95,1.06,1.96,1.45,3,.35.9.59,1.84.8,2.79.14.64.18,1.31.3,1.96.1.56.19,1.13.18,1.7,0,.06,0,.13,0,.19.13.67.19,1.35.18,2.02,0,.25-.01.5,0,.75.02.17.05.33.09.49.05.25.26.29.46.33.24.05.28,0,.43-.25.11-.18.17-.4.16-.62,0-.17,0-1.65,0-1.88,0-.16,0-.31,0-.47-.03-.54-.49-4.2-.73-4.81-.02-.04-.02-.09,0-.14.03-.07.08-.13.14-.17.03-.02.12.03.15.07.07.08.12.17.15.27.06.22.08.45.15.67.16.52.32,1.05.51,1.56.24.63.51,1.25.77,1.87.54,1.29,1.1,2.57,1.54,3.9.04.13.09.26.14.39.17.33.35.41.7.36.15-.02.23-.09.24-.24,0-.33.06-.67-.01-.98-.13-.6-.32-1.18-.55-1.75-.52-1.21-1.1-2.39-1.63-3.59-.38-.85-.75-1.69-1.07-2.56-.33-.88-2.55-4.43-2.64-4.55-.05-.09-.08-.19-.09-.3,0-.1.07-.14.15-.08.17.14.32.29.49.43.42.34.87.64,1.24,1.03.44.48.85.98,1.22,1.51,1.11,1.51,2.23,3.02,3.16,4.65.73,1.27,1.43,2.56,1.87,3.97.23.73.44,1.46.66,2.18.07.22.17.4.42.48.3.1.44.09.59-.17.16-.27.13-.57.08-.86-.09-.39-.2-.77-.34-1.15-.13-.33-.18-.69-.32-1.01-.32-.74-.66-1.46-1.01-2.19-.63-1.29-1.25-2.59-2.03-3.8-.27-.42-.51-.86-.82-1.25-.35-.44-.76-.82-1.13-1.24-.3-.35-.58-.72-.88-1.07-.15-.18-.96-.96-1.19-1.19-.1-.1-.16-.26-.23-.39,0-.02,0-.04,0-.07,0-.02.02-.04.03-.06.02,0,.04-.01.06,0,.02,0,.04,0,.06.02.55.48,1.11.95,1.65,1.44.24.22.42.5.65.73.87.84,1.61,1.81,2.35,2.77.7.91,1.35,1.86,1.96,2.83.57.9,1.06,1.85,1.58,2.79.23.42.44.85.65,1.28.21.43.42.84.59,1.28.09.21.15.43.19.66.05.44.28.8.6,1.1.06.06.2.12.24.09.14-.11.34-.25.36-.39.15-1.24-1.08-3.99-1.62-4.99-.93-1.73-1.89-3.45-2.97-5.1-.38-.58-1.51-1.84-1.6-1.95-.46-.57-1.97-2.12-2.28-2.26-.07-.02-.12-.06-.17-.11-.05-.05-.08-.11-.1-.17-.01-.05-.03-.11-.03-.16.06-.01.13-.05.17-.03.46.21.93.4,1.29.78.37.39.74.8,1.1,1.2.11.12.23.24.35.35.21.19.44.37.63.58.13.14.22.33.34.48.49.62.99,1.23,1.48,1.86,1.08,1.38,2.04,2.84,2.82,4.42.91,1.82,1.85,3.63,2.42,5.6.14.48.46,1.98.66,2.17.13.13.26.24.45.18.15-.04.35-.32.36-.5,0-.16,0-.31,0-.47.01-.26-.35-1.49-.44-1.76-.48-1.38-.93-2.78-1.54-4.11-.56-1.22-1.15-2.43-1.86-3.58-.61-.98-1.28-1.91-2.02-2.79-.3-.36-.61-.71-.94-1.04-.17-.18-.39-.3-.56-.48-.24-.24-.44-.52-.68-.76-.25-.25-.54-.46-.79-.72-.25-.25-.42-.61-.77-.79-.04-.02-.04-.13-.05-.2.07,0,.15-.01.19.02.26.19.53.36.77.58.37.35,1.5,1.04,1.61,1.14.35.31.71.61,1.03.95.8.81,1.61,1.62,2.36,2.47.72.81,1.35,1.7,1.87,2.66.5.93,1.04,1.83,1.53,2.77.56,1.08,1.01,2.22,1.46,3.35.66,1.68.99,3.42,1.17,5.2.05.49.05.99.07,1.48.04.79.07,1.58-.05,2.38Zm1.62.55c-.28.6-.83,2.6-1.12,2.53-.29-.07,0-.68.08-1.03.13-.62.28-1.53.37-2.41.15-1.38.16-2.71.16-2.79.01-.27.08-.35.33-.4.34-.06.46-.02.58.23.03.04.04.08.05.13.03.48.18.95.11,1.45-.07.51-.46,2.06-.57,2.29Z"/>
    <path class="cls-8" d="m269.66,143.77c.52,2.24.79,4.58.79,6.98,0,16.87-13.55,30.54-30.26,30.54-.19,0-.38,0-.57,0-2.05,25.53-23.24,45.61-49.07,45.61-4.99,0-9.81-.75-14.35-2.14-9.01,11.71-23.09,19.24-38.91,19.24s-30.98-8.12-39.92-20.6c-5.63,2.26-11.76,3.5-18.19,3.5-25.83,0-47.02-20.07-49.07-45.6-15.48-.12-28.2-11.97-29.84-27.18,3.63-.86,7.42-1.32,11.32-1.32,5.96,0,11.68,1.07,16.97,3.03,7.57-17.6,24.95-29.9,45.18-29.9,18.28,0,34.22,10.05,42.72,24.97,8-5.68,17.76-9.01,28.29-9.01,5.96,0,11.68,1.07,16.97,3.03,7.57-17.6,24.95-29.9,45.18-29.9,19.16,0,35.76,11.04,43.9,27.16,1.75-.19,3.53-.29,5.34-.29,4.7,0,9.24.67,13.55,1.9Z"/>
  </g>
</svg>