<?xml version="1.0" encoding="UTF-8"?>
<svg id="fore_ground" data-name="fore ground" xmlns="http://www.w3.org/2000/svg" xmlns:xlink="http://www.w3.org/1999/xlink" viewBox="0 0 1920 1080">
  <defs>
    <style>
      .cls-1 {
        mask: url(#mask);
      }

      .cls-2 {
        fill: #674b32;
      }

      .cls-3 {
        fill: #698eed;
      }

      .cls-4 {
        fill: #ede38e;
      }

      .cls-5, .cls-6 {
        fill: #fff;
      }

      .cls-7 {
        fill: #6c4f4f;
      }

      .cls-8 {
        fill: #af4949;
      }

      .cls-9 {
        fill: #c65353;
      }

      .cls-10 {
        fill: #41a8be;
      }

      .cls-11 {
        fill: #312f1d;
      }

      .cls-12 {
        fill: #79d1e4;
      }

      .cls-13 {
        fill: #addc7e;
      }

      .cls-13, .cls-6 {
        fill-rule: evenodd;
      }
    </style>
    <mask id="mask" x="766.73" y="976.25" width="392.57" height="208.3" maskUnits="userSpaceOnUse">
      <g id="mask0_3_23" data-name="mask0 3 23">
        <path class="cls-10" d="m967.13,976.91c-56.61-2.3-99.99,4.97-122,20.44-22.01,15.47,40.73,11.22,64.33,36.71,23.59,25.49-167.9,38.8-110.51,61.56,57.4,22.77,297.86,80.28,360.35,88.93l-9.51-14.7c-53.4-7.39-109.93-22.21-158.97-41.66-49.05-19.45,63.28-52.51,43.13-74.3-20.16-21.78-102.32-33.98-83.5-47.2,18.81-13.22,4.12-31.75,52.5-29.79h-35.82Z"/>
      </g>
    </mask>
  </defs>
  <path class="cls-13" d="m948.29,978.75c151.56-44.7,372.27-72.86,618-72.86,457.02,0,827.5,97.38,827.5,217.5s-370.48,217.5-827.5,217.5c-245.73,0-466.44-28.15-618-72.85-151.56,44.7-372.27,72.85-618,72.85-457.02,0-827.5-97.38-827.5-217.5s370.48-217.5,827.5-217.5c245.73,0,466.44,28.15,618,72.86Z"/>
  <rect class="cls-8" x="340.77" y="590.16" width="19.4" height="63.43"/>
  <rect class="cls-3" x="222.12" y="683.44" width="154.47" height="255.96"/>
  <path class="cls-9" d="m299.35,543.89l42.49,82.03,53.4,63.49h-191.78l51.69-63.49,44.21-82.03Z"/>
  <path class="cls-9" d="m251.59,605.09l9.9,11.74,11.37,12.14h-42.54l11.14-12.14,10.13-11.74Z"/>
  <path class="cls-9" d="m221,833.43h1.49v23.13h-72.39l36.57-23.13h34.33Z"/>
  <rect class="cls-5" x="239.28" y="709.56" width="33.58" height="46.27"/>
  <rect class="cls-4" x="241.8" y="712.92" width="28.54" height="39.12"/>
  <rect class="cls-11" x="244.32" y="715.45" width="10.49" height="10.09"/>
  <rect class="cls-11" x="244.32" y="727.65" width="10.49" height="9.67"/>
  <rect class="cls-11" x="244.32" y="739.42" width="10.49" height="10.09"/>
  <rect class="cls-11" x="257.33" y="715.45" width="10.49" height="10.09"/>
  <rect class="cls-11" x="257.33" y="727.65" width="10.49" height="9.67"/>
  <rect class="cls-11" x="257.33" y="739.42" width="10.49" height="10.09"/>
  <rect class="cls-5" x="228.83" y="779.71" width="33.58" height="46.27"/>
  <rect class="cls-4" x="231.35" y="783.07" width="28.54" height="39.12"/>
  <rect class="cls-11" x="233.87" y="785.59" width="10.49" height="10.09"/>
  <rect class="cls-11" x="233.87" y="797.79" width="10.49" height="9.67"/>
  <rect class="cls-11" x="233.87" y="809.57" width="10.49" height="10.09"/>
  <rect class="cls-11" x="246.88" y="785.59" width="10.49" height="10.09"/>
  <rect class="cls-11" x="246.88" y="797.79" width="10.49" height="9.67"/>
  <rect class="cls-11" x="246.88" y="809.57" width="10.49" height="10.09"/>
  <rect class="cls-5" x="235.55" y="867.02" width="19.4" height="35.07"/>
  <rect class="cls-4" x="237" y="869.57" width="16.49" height="29.65"/>
  <rect class="cls-11" x="238.46" y="871.48" width="6.06" height="7.65"/>
  <rect class="cls-11" x="238.46" y="880.73" width="6.06" height="7.33"/>
  <rect class="cls-11" x="238.46" y="889.65" width="6.06" height="7.65"/>
  <rect class="cls-11" x="245.98" y="871.48" width="6.06" height="7.65"/>
  <rect class="cls-11" x="245.98" y="880.73" width="6.06" height="7.33"/>
  <rect class="cls-11" x="245.98" y="889.65" width="6.06" height="7.65"/>
  <rect class="cls-5" x="321.37" y="867.02" width="19.4" height="35.07"/>
  <rect class="cls-4" x="322.82" y="869.57" width="16.49" height="29.65"/>
  <rect class="cls-11" x="324.28" y="871.48" width="6.06" height="7.65"/>
  <rect class="cls-11" x="324.28" y="880.73" width="6.06" height="7.33"/>
  <rect class="cls-11" x="324.28" y="889.65" width="6.06" height="7.65"/>
  <rect class="cls-11" x="331.8" y="871.48" width="6.06" height="7.65"/>
  <rect class="cls-11" x="331.8" y="880.73" width="6.06" height="7.33"/>
  <rect class="cls-11" x="331.8" y="889.65" width="6.06" height="7.65"/>
  <rect class="cls-5" x="254.95" y="867.02" width="19.4" height="35.07"/>
  <rect class="cls-4" x="256.41" y="869.57" width="16.49" height="29.65"/>
  <rect class="cls-11" x="257.86" y="871.48" width="6.06" height="7.65"/>
  <rect class="cls-11" x="257.86" y="880.73" width="6.06" height="7.33"/>
  <rect class="cls-11" x="257.86" y="889.65" width="6.06" height="7.65"/>
  <rect class="cls-11" x="265.38" y="871.48" width="6.06" height="7.65"/>
  <rect class="cls-11" x="265.38" y="880.73" width="6.06" height="7.33"/>
  <rect class="cls-11" x="265.38" y="889.65" width="6.06" height="7.65"/>
  <rect class="cls-5" x="340.77" y="867.02" width="19.4" height="35.07"/>
  <rect class="cls-4" x="342.22" y="869.57" width="16.49" height="29.65"/>
  <rect class="cls-11" x="343.68" y="871.48" width="6.06" height="7.65"/>
  <rect class="cls-11" x="343.68" y="880.73" width="6.06" height="7.33"/>
  <rect class="cls-11" x="343.68" y="889.65" width="6.06" height="7.65"/>
  <rect class="cls-11" x="351.2" y="871.48" width="6.06" height="7.65"/>
  <rect class="cls-11" x="351.2" y="880.73" width="6.06" height="7.33"/>
  <rect class="cls-11" x="351.2" y="889.65" width="6.06" height="7.65"/>
  <rect class="cls-5" x="329.58" y="709.56" width="33.58" height="46.27"/>
  <rect class="cls-4" x="332.09" y="712.92" width="28.54" height="39.12"/>
  <rect class="cls-11" x="334.61" y="715.45" width="10.49" height="10.09"/>
  <rect class="cls-11" x="334.61" y="727.65" width="10.49" height="9.67"/>
  <rect class="cls-11" x="334.61" y="739.42" width="10.49" height="10.09"/>
  <rect class="cls-11" x="347.62" y="715.45" width="10.49" height="10.09"/>
  <rect class="cls-11" x="347.62" y="727.65" width="10.49" height="9.67"/>
  <rect class="cls-11" x="347.62" y="739.42" width="10.49" height="10.09"/>
  <rect class="cls-5" x="336.29" y="779.71" width="33.58" height="46.27"/>
  <rect class="cls-4" x="338.81" y="783.07" width="28.54" height="39.12"/>
  <rect class="cls-11" x="341.33" y="785.59" width="10.49" height="10.09"/>
  <rect class="cls-11" x="341.33" y="797.79" width="10.49" height="9.67"/>
  <rect class="cls-11" x="341.33" y="809.57" width="10.49" height="10.09"/>
  <rect class="cls-11" x="354.34" y="785.59" width="10.49" height="10.09"/>
  <rect class="cls-11" x="354.34" y="797.79" width="10.49" height="9.67"/>
  <rect class="cls-11" x="354.34" y="809.57" width="10.49" height="10.09"/>
  <rect class="cls-5" x="234.06" y="628.97" width="33.58" height="30.6"/>
  <rect class="cls-4" x="236.58" y="631.19" width="28.54" height="25.87"/>
  <rect class="cls-11" x="239.09" y="632.86" width="10.49" height="6.68"/>
  <rect class="cls-11" x="239.09" y="640.93" width="10.49" height="6.4"/>
  <rect class="cls-11" x="239.09" y="648.71" width="10.49" height="6.68"/>
  <rect class="cls-11" x="252.11" y="632.86" width="10.49" height="6.68"/>
  <rect class="cls-11" x="252.11" y="640.93" width="10.49" height="6.4"/>
  <rect class="cls-11" x="252.11" y="648.71" width="10.49" height="6.68"/>
  <path class="cls-6" d="m363.11,854.33h-129.32v67.91h8.42v-46.15c0-8.3,6.73-15.04,15.04-15.04s15.04,6.73,15.04,15.04v46.15h4.81v-39.24c0-12.12,9.83-21.95,21.95-21.95s21.95,9.83,21.95,21.95v39.24h4.81v-46.15c0-8.3,6.73-15.04,15.04-15.04s15.04,6.73,15.04,15.04v46.15h7.22v-67.91Z"/>
  <path class="cls-6" d="m275.29,904.33h-33.68v17.91h2.19v-12.22c0-2.16,1.75-3.92,3.92-3.92s3.92,1.75,3.92,3.92v12.22h1.25v-10.42c0-3.16,2.56-5.72,5.72-5.72s5.72,2.56,5.72,5.72v10.42h1.25v-12.22c0-2.16,1.75-3.92,3.92-3.92s3.92,1.75,3.92,3.92v12.22h1.88v-17.91Z"/>
  <path class="cls-6" d="m357.1,904.33h-33.68v17.91h2.19v-12.22c0-2.16,1.75-3.92,3.92-3.92s3.92,1.75,3.92,3.92v12.22h1.25v-10.42c0-3.16,2.56-5.72,5.72-5.72s5.72,2.56,5.72,5.72v10.42h1.25v-12.22c0-2.16,1.75-3.92,3.92-3.92s3.92,1.75,3.92,3.92v12.22h1.88v-17.91Z"/>
  <rect class="cls-7" x="229.58" y="919.25" width="139.55" height="20.15"/>
  <path class="cls-9" d="m299.35,811.05l32.83,22.39,37.68,23.13h-141.04l36.94-23.13,33.58-22.39Z"/>
  <path class="cls-6" d="m221.94,856.57h-59.52v67.91h-12.69v8.21h-11.94v8.21h84.33v-16.42h-.18v-67.91Zm-5.95,67.91h-42.69v-17.91h.84v-22.36c0-11.56,9.37-20.93,20.93-20.93s20.92,9.37,20.92,20.93v22.36h4.18v17.91h-2.62v-10.69c0-1.49-.6-2.84-1.57-3.83v14.52Z"/>
  <path class="cls-2" d="m993.64,979.22c0-5.47-1.2-10.89-3.53-15.94-2.33-5.06-5.74-9.65-10.05-13.52-4.3-3.87-9.41-6.94-15.03-9.03-5.63-2.09-11.65-3.17-17.74-3.17s-12.11,1.08-17.74,3.17c-5.62,2.09-10.73,5.16-15.03,9.03-4.31,3.87-7.72,8.46-10.05,13.52-2.33,5.05-3.53,10.47-3.53,15.94h7.41c0-4.6,1.01-9.15,2.97-13.39,1.95-4.25,4.82-8.1,8.44-11.35,3.61-3.25,7.9-5.83,12.63-7.59,4.72-1.76,9.79-2.67,14.9-2.67s10.18.91,14.9,2.67c4.73,1.76,9.02,4.34,12.63,7.59,3.62,3.25,6.49,7.11,8.44,11.35,1.96,4.25,2.97,8.8,2.97,13.39h7.41Z"/>
  <path class="cls-2" d="m988.99,943.24c-4.97-5.15-11.39-9.32-18.75-12.16-7.35-2.84-15.44-4.27-23.62-4.19-8.18.08-16.22,1.68-23.48,4.67-7.27,2.99-13.55,7.28-18.35,12.53l2.83,1.63c4.48-4.9,10.34-8.91,17.12-11.7,6.78-2.79,14.29-4.28,21.92-4.36,7.64-.08,15.19,1.26,22.06,3.91,6.87,2.65,12.86,6.54,17.5,11.35l2.77-1.68Z"/>
  <rect class="cls-2" x="914.12" y="936.77" width="1.76" height="15.01"/>
  <rect class="cls-2" x="920.71" y="934" width="1.76" height="15.01"/>
  <rect class="cls-2" x="929.06" y="930.05" width="1.76" height="15.01"/>
  <rect class="cls-2" x="936.53" y="928.47" width="1.76" height="15.01"/>
  <rect class="cls-2" x="944.87" y="928.47" width="1.76" height="15.01"/>
  <rect class="cls-2" x="952.34" y="928.47" width="1.76" height="15.01"/>
  <rect class="cls-2" x="963.33" y="929.26" width="1.76" height="15.01"/>
  <rect class="cls-2" x="969.92" y="932.42" width="1.76" height="15.01"/>
  <rect class="cls-2" x="978.26" y="935.98" width="1.76" height="15.01"/>
  <g class="cls-1">
    <g>
      <path class="cls-10" d="m966.79,976.66c-56.61-2.3-100,4.97-122.01,20.44-22.01,15.47,40.73,11.22,64.32,36.71,23.59,25.49-167.9,38.8-110.5,61.56,57.4,22.77,297.86,80.28,360.35,88.93l-9.51-14.7c-53.4-7.4-109.92-22.21-158.97-41.66-49.04-19.45,63.29-52.51,43.13-74.3-20.16-21.78-102.31-33.98-83.5-47.2,18.81-13.21,4.13-31.75,52.5-29.79h-35.81Z"/>
      <path class="cls-12" d="m990.56,1015.14c-11.09-5.12-27.41-9.38-45.91-11.97-18.5-2.59-.32,3.33-16.98,4.56-16.65,1.23-72.44-16.86-78.92-12.43s-.79,24.42,6.15,29.85l10.54-.33c-5.92-4.64-6.14-9.29-.6-13.08,5.54-3.79,60.17,7.75,74.4,6.7,14.23-1.05,5.83-8.15,21.64-5.93,15.8,2.22,28.48,1.55,37.96,5.92l-8.28-3.29Z"/>
      <path class="cls-12" d="m853.38,1054.6c15.93-3.99,38.49-6.61,63.45-7.37,24.97-.77-.47,3.33,21.05,6.17,21.52,2.84,99.56-9.64,106.87-4.61,7.31,5.02-5.52,24.25-16.07,28.94l-13.75-1.36c9.02-4.01,10.55-8.59,4.3-12.89s-81.01,1.81-99.4-.61c-18.39-2.43-5.46-8.64-26.79-7.98-21.34.65-37.79-1.24-51.4,2.17l11.74-2.45Z"/>
    </g>
  </g>
</svg>