<?xml version="1.0" encoding="UTF-8"?>
<svg id="Layer_1" data-name="Layer 1" xmlns="http://www.w3.org/2000/svg" viewBox="0 0 270 194">
  <defs>
    <style>
      .cls-1 {
        fill: #ffd3ee;
      }
    </style>
  </defs>
  <path class="cls-1" d="m269.35,93.27c.52,2.24.79,4.58.79,6.98,0,16.87-13.55,30.54-30.26,30.54-.19,0-.38,0-.57,0-2.05,25.53-23.24,45.61-49.07,45.61-4.99,0-9.81-.75-14.35-2.14-9.01,11.71-23.09,19.25-38.91,19.25s-30.98-8.12-39.92-20.6c-5.63,2.26-11.76,3.5-18.19,3.5-25.83,0-47.02-20.07-49.07-45.6-15.48-.12-28.2-11.97-29.84-27.18,3.63-.86,7.42-1.32,11.32-1.32,5.96,0,11.68,1.07,16.97,3.03,7.57-17.6,24.95-29.9,45.18-29.9,18.28,0,34.22,10.05,42.72,24.97,8-5.68,17.76-9.01,28.29-9.01,5.96,0,11.68,1.07,16.97,3.03,7.57-17.6,24.95-29.9,45.18-29.9,19.16,0,35.76,11.04,43.9,27.16,1.75-.19,3.53-.29,5.34-.29,4.7,0,9.24.66,13.55,1.9Z"/>
</svg>