<?xml version="1.0" encoding="UTF-8"?>
<svg id="fore_ground" data-name="fore ground" xmlns="http://www.w3.org/2000/svg" xmlns:xlink="http://www.w3.org/1999/xlink" viewBox="0 0 202 134">
  <defs>
    <style>
      .cls-1 {
        mask: url(#mask);
      }

      .cls-2 {
        fill: #fff6c8;
      }

      .cls-3, .cls-4 {
        fill: #0e5256;
      }

      .cls-4, .cls-5 {
        fill-rule: evenodd;
      }

      .cls-5 {
        fill: #fff;
      }
    </style>
    <mask id="mask" x="0" y="-.87" width="201.16" height="135.83" maskUnits="userSpaceOnUse">
      <g id="path-1-inside-1_36_1240" data-name="path-1-inside-1 36 1240">
        <path class="cls-5" d="m178.69,112.78c7.79,1.03,15.32-.57,21.73-4.13-7.6,8.04-18.73,12.44-30.42,10.89-7.91-1.05-14.86-4.67-20.15-9.91-15.47,14.97-38.95,24.46-65.21,24.33C38.27,133.72.83,103.59,1.01,66.64,1.19,29.69,38.92-.08,85.29.14c46.37.22,83.81,30.36,83.63,67.31-.06,12.41-4.35,24.01-11.79,33.93,5.44,6.05,12.93,10.25,21.56,11.4Z"/>
      </g>
    </mask>
  </defs>
  <path class="cls-4" d="m178.69,112.78c7.79,1.03,15.32-.57,21.73-4.13-7.6,8.04-18.73,12.44-30.42,10.89-7.91-1.05-14.86-4.67-20.15-9.91-15.47,14.97-38.95,24.46-65.21,24.33C38.27,133.72.83,103.59,1.01,66.64,1.19,29.69,38.92-.08,85.29.14c46.37.22,83.81,30.36,83.63,67.31-.06,12.41-4.35,24.01-11.79,33.93,5.44,6.05,12.93,10.25,21.56,11.4Z"/>
  <g class="cls-1">
    <path class="cls-3" d="m167.9,67.45h1.01s-1.01,0-1.01,0Zm-11.53,34.61l-.56-.62.5-.66.81.61-.75.68ZM85.28,1.15V.14s0,1.01,0,1.01ZM2.02,66.64h-1.01s1.01,0,1.01,0Zm82.62,66.29v1.01s0-1.01,0-1.01Zm64.5-24.05l.71-.69.7.7-.71.72-.7-.73Zm20.99,9.64l-.13,1,.13-1Zm29.8-10.77l1.23,1.58-.73-.69-.49-.88Zm-21.38,6.02l.13-1-.13,1Zm-8.63-46.32c-.06,12.65-4.44,24.45-11.99,34.53l-1.62-1.21c7.32-9.77,11.53-21.16,11.59-33.33h2.02ZM85.29-.87c46.7.23,84.82,30.62,84.63,68.33h-2.02C168.08,31.26,131.31,1.37,85.28,1.15V-.87ZM0,66.63C.18,28.92,38.59-1.1,85.29-.87V1.15C39.25.93,2.2,30.45,2.02,66.64H0Zm84.63,68.32C37.94,134.73-.18,104.34,0,66.63h2.02c-.18,36.2,36.59,66.08,82.62,66.3v2.02Zm65.91-24.61c-15.67,15.17-39.42,24.74-65.92,24.61v-2.02c26.03.13,49.25-9.28,64.51-24.05l1.41,1.45Zm19.32,10.19c-8.14-1.08-15.29-4.8-20.73-10.2l1.42-1.44c5.14,5.1,11.89,8.61,19.57,9.63l-.27,2Zm31.29-11.19c-7.81,8.27-19.26,12.79-31.29,11.19l.27-2c11.35,1.51,22.17-2.76,29.56-10.58l1.47,1.39Zm-22.34,2.44c7.56,1.01,14.88-.55,21.11-4.01l.98,1.77c-6.59,3.66-14.35,5.32-22.36,4.25l.27-2Zm-20.94-11.07c5.28,5.87,12.56,9.95,20.94,11.07l-.27,2c-8.88-1.18-16.59-5.51-22.18-11.72l1.5-1.35Z"/>
  </g>
  <path class="cls-2" d="m40.23,34.73c0-.16-.48-.29-.49-.34-.03-.05-.25-.1-.25-.25,0-.14.19-.45.37-.59.19-.15.15-.34.15-.67s-.33-.28-.56-.28c-.27,0-.29.48-.53.54-.25.08-.34.52-.34.85s.27.83.48.87c.21.04.27.35.57.43.3.06.33-.09.38-.2.05-.1.23-.19.23-.35Zm-2.24.51c-.05-.11-.4-.15-.62-.03-.21.13-.39,0-.42-.09-.01-.09-.28-.16-.37-.25-.09-.09.01-.33.01-.45s.27-.21.29-.42c.01-.19.37-.4.57-.49.19-.09.3-.15.3-.3,0-.16-.35-.59-.57-.59-.38,0-.48.27-.67.3-.18.04-.3.52-.49.56-.2.04-.4.95-.52,1.28-.1.34.05.45.39.81.34.35.47.18.81.32.33.15.52-.14.66-.01.14.13.39-.09.57-.14.18-.06.1-.38.05-.48Zm5.71,3.03c.08-.57,0-.87-.1-1.79-.1-.94-.05-1.78,0-2.12.05-.34-.05-.62-.18-.78s-.23-.4-.44-.4c-.13,0-.28.14-.3.37-.04.21-.09,1.36-.06,2.01.04.66.08,2.43.06,3.34-.03.91.27,1.05.49,1.05s.39-.19.42-.44c.01-.27.05-.64.11-1.21Zm4.2-3.88c.09-.18-.21-.43-.21-.73s-.67-.72-.67-.81-.82-.32-1.05-.32c-.16,0-.38.21-.38.34s.34.3.38.44c.03.14.09.35.48.34.39-.03.23.14.39.4.15.28-.04.48-.04.64s-.47.27-.48.42c-.03.14-.35.35-.33.54.04.2.18.15.24.37.05.21.37.09.64.03.27-.05.1-.39.39-.39s.19-.39.37-.48.18-.62.27-.8Zm3.34,4.56c0-.19-.25-.58-.25-1.02s-.23-1.3-.23-1.93-.23-2.26-.23-2.44.01-.42.09-.61c.06-.2-.3-.43-.57-.43-.15,0-.34.01-.34.25,0,.23.04,2.6.1,3.18.08.59.24,2.2.24,2.6s.18.58.23.68c.05.1.25.3.39.3s.21-.13.29-.21c.06-.09.28-.18.28-.38Zm3.34,0c0-.19-.25-.58-.25-1.02s-.23-1.3-.23-1.93-.23-2.26-.23-2.44.01-.42.09-.61c.06-.2-.3-.43-.57-.43-.15,0-.34.01-.34.25,0,.23.04,2.6.1,3.18.08.59.24,2.2.24,2.6s.18.58.23.68c.05.1.25.3.39.3s.21-.13.29-.21c.06-.09.28-.18.28-.38Zm10.22.04c0-.18-.25-.48-.38-.66-.13-.19-.47-.58-.51-.85-.03-.27-.2-.37-.32-.66-.1-.29-.57-.75-1.19-.75s-1.2.83-1.33,1.01-.25.51-.38.51c-.11,0-.14-.76-.11-.99.01-.23-.38-2.35-.42-2.69-.04-.34.04-.81.04-1,0-.2-.21-.62-.44-.62-.11,0-.47.14-.47.33,0,.2-.01.72.04,1.18.05.47.37,2.84.4,3.43.04.59.39,1.52.39,1.82s.38.38.56.38.21-.13.39-.18c.18-.05.2-.43.2-.68s.23-.61.4-.95c.18-.33.44-.54.72-.54s.39.24.62.4.21.63.35.77.21.47.47.58c.25.13.37.3.52.3.14,0,.43.03.43-.15Zm6.31.63c0-.19-.29-.38-.56-.57-.25-.19-.42-.57-.63-.88-.21-.3-.4-.7-.45-.88s0-.68,0-1.04-.32-.56-.48-.64c-.16-.1-.54-.32-.76-.32-.1,0-.19-.04-.29.05-.09.1-.35-.11-.44.03-.1.14-.38.08-.48.14-.09.08-.71.57-.9.96-.19.38-.45,1.01-.45,1.35s.09.71.19.86c.09.14.05.47.19.52.14.05.43.54,1,.54s1.05-.49,1.11-.62c.08-.11.37-.3.38-.57.03-.27.2-.4.34-.4s.16.24.28.38c.13.15.43.37.45.57.03.21.27.4.43.51.16.1.48.45.67.45s.4-.24.4-.43Zm-2.58-3.53c.05.13-.11.4-.16.59-.04.19-.19.77-.38,1.12-.19.35-.59,1.07-1,1.07s-.43-.45-.43-.77.05-.95.24-.95.19-.48.35-.49c.18-.03.13-.21.24-.32.13-.09.16-.27.32-.27.14,0,.19.03.3.03.14,0,.48-.14.52-.03Zm7.35-.33c0-.19-.25-.19-.38-.4-.13-.21-.35-.21-.44-.08s-.24.08-.25.16c-.01.09-.18.32-.34.34-.15.01-.05.45-.23.49-.18.04-.2.51-.34.59-.14.09-.27.54-.38.67-.1.13-.3.63-.48.63s-.15-.3-.18-.52c-.01-.21-.21-.43-.32-.7-.11-.27,0-.45.04-.59.03-.14-.21-.21-.24-.34-.01-.13-.34-.28-.54-.28s-.29.49-.2.61c.09.1.05.61.14.71.09.11.24.59.29,1.04.05.44.27.51.38.87.1.38.51.63.7.63.18,0,.32-.15.32-.25,0-.11.16-.33.29-.39.11-.08.06-.3.15-.3s.05-.33.15-.33c.09,0,.23-.15.19-.28-.04-.13.34-.47.42-.57.06-.11.06-.38.27-.48.19-.11.09-.3.18-.3s.34-.43.49-.43c.16,0,.33-.3.33-.51Zm5.07,2.93c0-.11-.35-.05-.62-.05s-.05.24-.86.24-1.02-.16-1.21-.35-.04-.33.18-.35c.2-.03.63-.53.78-.67.14-.14.23-.43.49-.57.27-.14.21-.43.29-.59.06-.16,0-.51-.16-.81-.18-.3-.32-.45-.86-.45-.24,0-1.12.29-1.48.53-.35.23-.68,1-.68,1.33s.16.97,0,1.1c-.18.11.23.57.76,1.09.52.53.78.62,1.64.62s1.16-.35,1.4-.52c.23-.18.33-.4.33-.53Zm-1.95-2.65c.09.14-.1.28-.27.49-.16.21-.49.48-.59.67s-.51.43-.48.06c.03-.35.15-.54.4-.81.27-.25.37-.33.53-.33.14,0,.3-.24.4-.09Zm10.19-.21c0-.19-.44-.35-.61-.27-.16.09-.52-.18-.86-.19-.34-.03-.43-.15-.57-.13-.14.01-.32-.03-.32-.2v-.87c0-.28-.11-.64-.16-.8-.05-.16-.25-.25-.51-.25-.27,0-.32.77-.32.99s.09.78.09,1.1-.62.14-.78.14-.25.24-.25.52.34.3.43.38c.09.08.35-.08.53-.08s.16.68.16,1.16-.04,1.01-.16,1.14-.3.27-.3.39.15.15.21.3c.08.16.34.3.52.3s.34-.18.44-.32c.11-.14.24-.53.24-.99s-.13-1.74-.13-1.93c0-.2.18-.15.25-.1.06.06.3.1.39,0,.09-.09.27-.11.53-.03.27.09.47.03.62.01.16-.01.54-.09.54-.29Zm4.2,1.21c0-.61-.52-1.21-.72-1.28-.19-.08-.87-.63-1.04-.63-.14,0-.49.33-.49.59s.21.51.35.51.43.11.61.2c.18.1.47.56.47.72s-.03.28-.24.64c-.21.35-.4.57-.78.57s-.52-.29-.52-.42c0-.11-.28-.37-.28-.7s.3-.78.3-.94c0-.16-.34-.25-.51-.25s-.3.16-.38.43c-.06.27-.32.58-.32.83s.14.75.3.83c.16.09.18.77.34.78.16.03.86.43,1.21.43s.86-.48,1.12-.8c.27-.33.56-.94.56-1.54Zm7.97,1.83c-.09-.08-.21-.16-.3-.05-.1.13-.37.19-.72.19s-.19-.14-.78-.21c-.59-.06-.54-.44-.54-.68s.21-.7.43-1.24c.21-.54.54-.67.68-.67.15,0,.34.16.51.16s.28-.16.28-.28c0-.13-.04-.38-.19-.48-.14-.09-.3-.28-.68-.28-.24,0-.45.14-.76.23-.32.1-.64.64-.83,1.1s-.37,1.1-.37,1.4.27.91.45,1.19c.19.29.72.45.94.38.21-.06.3.24.66.24s1-.33,1.21-.52c.21-.19.13-.4.03-.48Zm6.64.75c0-.19-.29-.38-.56-.57-.25-.19-.42-.57-.63-.88-.21-.3-.4-.7-.45-.88s0-.68,0-1.04-.32-.56-.48-.64c-.16-.1-.54-.32-.76-.32-.1,0-.19-.04-.29.05-.09.1-.35-.11-.44.03-.1.14-.38.08-.48.14-.09.08-.71.57-.9.96-.19.38-.45,1.01-.45,1.35s.09.71.19.86c.09.14.05.47.19.52s.43.54,1,.54,1.05-.49,1.11-.62c.08-.11.37-.3.38-.57.03-.27.2-.4.34-.4s.16.24.28.38c.13.15.43.37.45.57.03.21.27.4.43.51.16.1.48.45.67.45s.4-.24.4-.43Zm-2.58-3.53c.05.13-.11.4-.16.59-.04.19-.19.77-.38,1.12-.19.35-.59,1.07-1,1.07s-.43-.45-.43-.77.05-.95.24-.95.19-.48.35-.49c.18-.03.13-.21.24-.32.13-.09.16-.27.32-.27.14,0,.19.03.3.03.14,0,.48-.14.52-.03Zm4.9,2.86c0-.19-.25-.58-.25-1.02s-.23-1.3-.23-1.93-.23-2.26-.23-2.44.01-.42.09-.61c.06-.2-.3-.43-.57-.43-.15,0-.34.01-.34.25,0,.23.04,2.6.1,3.18.08.59.24,2.2.24,2.6s.18.58.23.68c.05.1.25.3.39.3s.21-.13.29-.21c.06-.09.28-.18.28-.38Zm8.44-.9c0-.42-.33-.28-.39-.99-.05-.39-.34-.53-.54-.95-.19-.42-.8-.75-1.06-.75s-.7.53-.9.78c-.19.25-.52.83-.71,1.19-.2.35-.37.13-.37-.06s-.13-.61-.3-.88c-.18-.27-.48-.4-.67-.4-.2,0-.3,0-.59.43-.28.44-.39.7-.39-.04s-.21-.81-.49-.81c-.15,0-.34.21-.39.39-.06.19-.03.63.09.71.1.09.06,1.33.06,1.81s.29.58.51.58.58-.3.58-.58.18-.73.42-1c.23-.27-.03-.42.25-.42s.27,1.15.4,1.4c.14.24.43.71.81.71s.61-.77.76-1.19c.16-.42.45-.67.63-1.15.18-.47.35-.35.61-.11.24.23.19.45.35.45s.09.49.21.52c.13.01.3.39.3.66s.24.51.4.51.42-.39.42-.81Zm9.47.72c.1-.11.08-.49-.04-.62-.13-.11-.21-.42-.21-.8s-.13-.61-.24-.8c-.13-.19-.03-.52-.13-.78-.09-.25-.19-1.02-.19-1.3s-.03-.76.05-.91c.08-.14.1-.19-.09-.33s-.19-.27-.24-.48c-.05-.21-.29.05-.43.05s-.35.08-.35.21.14.24.14.52.11,1.34.24,2.02c.11.7-.13.38-.29.21-.16-.16-.9-.33-1.4-.33-.64,0-1,.38-1.33.67-.33.28-.54,1-.54,1.33s.14.64.23.95c.1.32.77.91,1.05,1.07.29.16.45.05.83.05s1.07-.38,1.26-.57c.19-.2.45-.43.49-.67.05-.24.24-.1.24.14s.11.21.11.45.13.43.27.43.19-.08.38-.13c.19-.04.1-.28.19-.4Zm-1.44-1.62c0,.21-.27.34-.34.45-.06.13-.06.43-.47.59-.4.16-.34.45-.94.45s-.95-.54-.95-.92.21-.75.45-.99c.24-.23.25-.4.76-.4.4,0,.71.1,1,.29.29.19.48.32.48.52Zm6.43-.11c0-.61-.52-1.21-.72-1.28-.19-.08-.87-.63-1.04-.63-.14,0-.49.33-.49.59s.21.51.35.51.43.11.61.2c.18.1.47.56.47.72s-.03.28-.24.64c-.21.35-.4.57-.78.57s-.52-.29-.52-.42c0-.11-.28-.37-.28-.7s.3-.78.3-.94c0-.16-.34-.25-.51-.25s-.3.16-.38.43c-.06.27-.32.58-.32.83s.14.75.3.83c.16.09.18.77.34.78.16.03.86.43,1.21.43s.86-.48,1.12-.8c.27-.33.56-.94.56-1.54Zm6.93-1.07c0-.23-.42-.3-.52-.45-.11-.16-.34-.21-.48-.21-.15,0-.39.25-.39.43s.03.57.09.82c.05.24.15.61.15,1.02s-.19.61-.48.61-.39-.01-.44-.19-.3-.48-.47-.56c-.15-.06-.14-.43-.23-.44-.09-.03-.39-.3-.51-.3-.1,0-.14.04-.28.1-.14.08-.34.24-.43.42-.09.18-.13.48-.25.48s-.1-.13-.14-.32c-.04-.2-.09-.58-.08-.76.03-.18-.19-.45-.34-.45-.14,0-.24-.2-.4-.2-.18,0-.25.35-.25.59,0,.23.03.57.15.82.11.24.06.59.06.9s.21.52.25.81c.04.29.57.34.75.34s.16-.11.16-.25.16-.19.19-.38c.04-.18.3-.3.3-.42,0-.13.08-.34.29-.34s.53.53.75.73c.21.19.72.44.87.44.16,0,.24-.16.38-.16s.56-.1.71-.25c.16-.14.3-.87.3-1.12s-.1-.87-.1-1.1.38-.35.38-.59Zm6.84,2.76c0-.14-.34-.23-.52-.73-.08-.2-.19-.78-.32-1.1s-.54-.77-.77-.81c-.23-.03-.7-.33-.82-.33s-.35.21-.57.21-.42.24-.57.33c-.16.09-.27.13-.61.63-.34.49-.3-.18-.3-.59s-.38-.56-.61-.56c-.47,0-.34.64-.21.94.13.28.14,1.43.14,1.62,0,.2.52.9.66.9.15,0,.15-.2.3-.27.16-.08.3-.16.25-.37-.05-.19.18-.75.42-1.14.23-.39.62-.53.94-.71.33-.18.47,0,.58.09.1.09.4.48.49.8.09.33.29.96.29,1.26s.43.49.61.49.62-.52.62-.67Zm-106.01,16.06c0-.19-.29-.38-.56-.57-.25-.19-.42-.57-.63-.88-.21-.3-.4-.7-.45-.88s0-.68,0-1.04-.32-.56-.48-.64c-.16-.1-.54-.32-.76-.32-.1,0-.19-.04-.29.05-.09.1-.35-.11-.44.03-.1.14-.38.08-.48.14-.09.08-.71.57-.9.96-.19.38-.45,1.01-.45,1.35s.09.71.19.86c.09.14.05.47.19.52.14.05.43.54,1,.54s1.05-.49,1.11-.62c.08-.11.37-.3.38-.57.03-.27.2-.4.34-.4s.16.24.28.38c.13.15.43.37.45.57.03.21.27.4.43.51s.48.45.67.45.4-.24.4-.43Zm-2.58-3.53c.05.13-.11.4-.16.59-.04.19-.19.77-.38,1.12-.19.35-.59,1.07-1,1.07s-.43-.45-.43-.77.05-.95.24-.95.19-.48.35-.49c.18-.03.13-.21.24-.32.13-.09.16-.27.32-.27.14,0,.19.03.3.03.14,0,.48-.14.52-.03Zm11.09.57c0-1.4-1.15-1.72-1.38-1.72-.24,0-.78.1-1.07.29-.29.19-.67.35-.86.64-.19.28-.25.16-.28,0-.03-.16-.08-.81-.08-1.16s.1-1.12.1-1.55-.27-.86-.4-.86c-.32,0-.56.37-.56.62,0,.27.15.64.15.83s-.19.7-.19,1.07.23.92.23,1.4-.09.88-.09,1.16.06.51.21.67c.14.16.25.38.25.57s.18.38.39.67c.2.28.81.33,1.06.33.27,0,.78-.16,1.02-.27.24-.09.57-.43.83-.78.27-.35.64-.52.64-1.92Zm-.86-.34c0,.45.08.94-.14,1.2-.21.25-.29.63-.56.78-.25.14-.61.49-1.04.49s-.64-.06-.64-.62-.08-.87.16-1.14.33-.72.62-.81c.29-.1.81-.4,1.05-.4.25,0,.54.05.54.49Zm3.92-2.97c0-.39-.39-.21-.4-.34-.03-.13-.33-.27-.57-.27-.16,0-.38.29-.38.47s.21.37.35.44c.15.08.38.34.54.34.15,0,.45-.25.45-.64Zm.03,5.03c.13-.09-.13-.53-.13-.77,0-.23-.09-.63-.18-.87-.09-.23-.09-.71-.09-.92s-.38-.39-.56-.39c-.16,0-.32.35-.32.44s.05.21.14.35c.09.15.04.64.09.97.05.32.16,1.01.16,1.44s.27.58.44.58.28-.01.28-.15c0-.15.03-.59.15-.68Zm5.86-2.55c0-.19-.44-.35-.61-.27-.16.09-.52-.18-.86-.19-.34-.03-.43-.15-.57-.13-.14.01-.32-.03-.32-.2v-.87c0-.28-.11-.64-.16-.8-.05-.16-.25-.25-.51-.25-.27,0-.32.77-.32.99s.09.78.09,1.1-.62.14-.78.14-.25.24-.25.52.34.3.43.38c.09.08.35-.08.53-.08s.16.68.16,1.16-.04,1.01-.16,1.14-.3.27-.3.39.15.15.21.3c.08.16.34.3.52.3s.34-.18.44-.32c.11-.14.24-.53.24-.99s-.13-1.74-.13-1.93c0-.2.18-.15.25-.1.06.06.3.1.39,0,.09-.09.27-.11.53-.03.27.09.47.03.62.01.16-.01.54-.09.54-.29Zm2.34,3.03c0-.18-.09-.7-.2-.7-.1,0-.33-.27-.53-.27-.29,0-.27.28-.47.43-.19.14.03.18.03.32s.3.48.35.48.38.18.56.18.27-.27.27-.44Zm9.15-1.71c0-.66-.3-1.05-.24-1.35.08-.3-.39-.72-.48-.99-.09-.27-.57-.56-.73-.88-.15-.34-.37-.42-.62-.42-.29,0-.43.27-.39.52s-.32.34-.64.38c-.32.04-.28.37-.44.53-.16.16-.21,1.02-.21,1.5s.21,1.35.53,1.62c.33.27.7,1,1.69,1,.51,0,.86-.3,1.09-.58.24-.29.45-.67.45-1.33Zm-.85-.99c0,.64.11,1.02-.18,1.34-.28.33-.19.56-.73.56s-.53-.14-.61-.29c-.06-.14-.39-.24-.39-.75s-.1-1-.05-1.3c.05-.3.16-.52.33-.49.15.01.39.15.48-.03s.05-.52.18-.52.25.09.35.29c.27.49.62.56.62,1.19Zm6.13-.29c0-.13-.3-.47-.45-.47-.16,0-.42,0-.57.13-.16.13-.45.1-.68.23s-.35.21-.52.34c-.16.13-.25,0-.27-.13s-.25-.21-.39-.21c-.42,0-.34.48-.27.73.06.25.14.56.05.73s-.13.49-.01.53c.1.04.1.78.18,1,.06.21.27.54.62.54s.43-.47.38-.73c-.06-.27-.06-.76-.06-1.07s.19-.38.28-.58c.09-.21.4-.47.57-.61.15-.15.58-.24.76-.24.19,0,.39-.06.39-.19Zm8.03,2.82c0-.11-.35-.05-.62-.05s-.05.24-.86.24-1.02-.16-1.21-.35-.04-.33.18-.35c.2-.03.63-.53.78-.67.14-.14.23-.43.49-.57.27-.14.21-.43.29-.59.06-.16,0-.51-.16-.81-.18-.3-.32-.45-.86-.45-.24,0-1.12.29-1.48.53-.35.23-.68,1-.68,1.33s.16.97,0,1.1c-.18.11.23.57.76,1.09.52.53.78.62,1.64.62s1.16-.35,1.4-.52c.23-.18.33-.4.33-.53Zm-1.95-2.65c.09.14-.1.28-.27.49-.16.21-.49.48-.59.67-.1.19-.51.43-.48.06.03-.35.15-.54.4-.81.27-.25.37-.33.53-.33.14,0,.3-.24.4-.09Zm4.73,2.91c0-.19-.25-.58-.25-1.02s-.23-1.3-.23-1.93-.23-2.26-.23-2.44.01-.42.09-.61c.06-.2-.3-.43-.57-.43-.15,0-.34.01-.34.25,0,.23.04,2.6.1,3.18.08.59.24,2.2.24,2.6s.18.58.23.68c.05.1.25.3.39.3s.21-.13.29-.21c.06-.09.28-.18.28-.38Zm4.48-3c0-.18-.27-.37-.49-.43-.23-.05-.52-.18-.81-.18-.33,0-.57.38-.66.51-.09.13-.3.43-.3.8s.33,1.3.57,1.58c.25.27.21.39-.18.52-.39.11-.45,0-.45-.1,0-.09-.13-.3-.37-.15-.23.14-.21.21-.45.14-.25-.08-.64.21-.64.44,0,.24.4.48.58.56.19.08.43.05.64-.05.21-.11.38.04.59.04s.64-.08.86-.2c.2-.13.53-.23.53-.64s-.27-.94-.39-1.1-.34-.61-.34-.75c0-.15-.04-.39.13-.39s.19-.2.34-.2c.14,0,.1.21.32.21s.53-.42.53-.59Zm5.33,2.74c0-.11-.35-.05-.62-.05s-.05.24-.86.24-1.02-.16-1.21-.35-.04-.33.18-.35c.2-.03.63-.53.78-.67.14-.14.23-.43.49-.57.27-.14.21-.43.29-.59.06-.16,0-.51-.16-.81-.18-.3-.32-.45-.86-.45-.24,0-1.12.29-1.48.53-.35.23-.68,1-.68,1.33s.16.97,0,1.1c-.18.11.23.57.76,1.09.52.53.78.62,1.64.62s1.16-.35,1.4-.52c.23-.18.33-.4.33-.53Zm-1.95-2.65c.09.14-.1.28-.27.49-.16.21-.49.48-.59.67-.1.19-.51.43-.48.06.03-.35.15-.54.4-.81.27-.25.37-.33.53-.33.14,0,.3-.24.4-.09Zm7.99,2.22c.08-.57,0-.87-.1-1.79-.1-.94-.05-1.78,0-2.12s-.05-.62-.18-.78-.23-.4-.44-.4c-.13,0-.28.14-.3.37-.04.21-.09,1.36-.06,2.01.04.66.08,2.43.06,3.34-.03.91.27,1.05.49,1.05s.39-.19.42-.44c.01-.27.05-.64.11-1.21Zm4.2-3.88c.09-.18-.21-.43-.21-.73s-.67-.72-.67-.81-.82-.32-1.05-.32c-.16,0-.38.21-.38.34s.34.3.38.44c.03.14.09.35.48.34.39-.03.23.14.39.4.15.28-.04.48-.04.64s-.47.27-.48.42c-.03.14-.35.35-.33.54.04.2.18.15.24.37.05.21.37.09.64.03.27-.05.1-.39.39-.39s.19-.39.37-.48.18-.62.27-.8Zm3.34,4.56c0-.19-.25-.58-.25-1.02s-.23-1.3-.23-1.93-.23-2.26-.23-2.44.01-.42.09-.61c.06-.2-.3-.43-.57-.43-.15,0-.34.01-.34.25,0,.23.04,2.6.1,3.18.08.59.24,2.2.24,2.6s.18.58.23.68c.05.1.25.3.39.3s.21-.13.29-.21c.06-.09.28-.18.28-.38Zm3.34,0c0-.19-.25-.58-.25-1.02s-.23-1.3-.23-1.93-.23-2.26-.23-2.44.01-.42.09-.61c.06-.2-.3-.43-.57-.43-.15,0-.34.01-.34.25,0,.23.04,2.6.1,3.18.08.59.24,2.2.24,2.6s.18.58.23.68c.05.1.25.3.39.3s.21-.13.29-.21c.06-.09.28-.18.28-.38Zm9.54-2.29c0-1.4-1.15-1.72-1.38-1.72-.24,0-.78.1-1.07.29s-.67.35-.86.64c-.19.28-.25.16-.28,0s-.08-.81-.08-1.16.1-1.12.1-1.55-.27-.86-.4-.86c-.32,0-.56.37-.56.62,0,.27.15.64.15.83s-.19.7-.19,1.07.23.92.23,1.4-.09.88-.09,1.16.06.51.21.67c.14.16.25.38.25.57s.18.38.39.67c.2.28.81.33,1.06.33.27,0,.78-.16,1.02-.27.24-.09.57-.43.83-.78.27-.35.64-.52.64-1.92Zm-.86-.34c0,.45.08.94-.14,1.2-.21.25-.29.63-.56.78-.25.14-.61.49-1.04.49s-.64-.06-.64-.62-.08-.87.16-1.14.33-.72.62-.81c.29-.1.81-.4,1.05-.4.25,0,.54.05.54.49Zm7.21,2.74c0-.06-.04-.11-.11-.16-.09-.06-.18-.11-.25-.2-.21-.24-.61-.7-.66-1.01-.04-.15-.14-.34-.24-.53-.05-.1-.11-.2-.15-.29-.05-.1-.09-.19-.11-.27-.06-.27-.4-.45-.56-.45-.09,0-.18.13-.28.25-.11.15-.21.32-.28.4-.03.03-.05.09-.09.15l-.09.2c-.08.15-.16.28-.24.28-.03,0-.05,0-.08.03l-.13.08c-.08.05-.19.11-.33.11-.28,0-.39-.88-.32-1.15l.14-.34c.04-.1.06-.18.06-.24,0-.11-.29-.33-.48-.33-.1,0-.21.15-.23.32-.01.1-.09.19-.14.27-.06.09-.14.2-.19.35-.09.3-.19.87-.1.94.06.03.11.21.15.42.03.1.05.2.06.3l.06.23c.1.24.62.58.77.58.18,0,.72-.3.75-.44.01-.11.11-.2.2-.27.05-.03.1-.06.14-.1.11-.08.15-.13.23-.24.08-.1.23-.35.37-.35.09,0,.16.13.24.3.05.15.1.33.16.45.11.25.44.58.68.7.27.11.63.25.77.25s.25-.09.25-.23Zm4.09-3.18c0-.13-.3-.47-.45-.47-.16,0-.42,0-.57.13-.16.13-.45.1-.68.23-.23.13-.35.21-.52.34-.16.13-.25,0-.27-.13s-.25-.21-.39-.21c-.42,0-.34.48-.27.73.06.25.14.56.05.73-.09.18-.13.49-.01.53.1.04.1.78.18,1,.06.21.27.54.62.54s.43-.47.38-.73c-.06-.27-.06-.76-.06-1.07s.19-.38.28-.58c.09-.21.4-.47.57-.61.15-.15.58-.24.76-.24.19,0,.39-.06.39-.19Zm3.69.08c0-.18-.27-.37-.49-.43-.23-.05-.52-.18-.81-.18-.33,0-.57.38-.66.51-.09.13-.3.43-.3.8s.33,1.3.57,1.58c.25.27.21.39-.18.52-.39.11-.45,0-.45-.1,0-.09-.13-.3-.37-.15-.23.14-.21.21-.45.14-.25-.08-.64.21-.64.44,0,.24.4.48.58.56.19.08.43.05.64-.05.21-.11.38.04.59.04s.64-.08.86-.2c.2-.13.53-.23.53-.64s-.27-.94-.39-1.1-.34-.61-.34-.75c0-.15-.04-.39.13-.39s.19-.2.34-.2c.14,0,.1.21.32.21s.53-.42.53-.59Zm5.32-.13c0-.19-.44-.35-.61-.27-.16.09-.52-.18-.86-.19-.34-.03-.43-.15-.57-.13-.14.01-.32-.03-.32-.2v-.87c0-.28-.11-.64-.16-.8-.05-.16-.25-.25-.51-.25-.27,0-.32.77-.32.99s.09.78.09,1.1-.62.14-.78.14-.25.24-.25.52.34.3.43.38c.09.08.35-.08.53-.08s.16.68.16,1.16-.04,1.01-.16,1.14-.3.27-.3.39.15.15.21.3c.08.16.34.3.52.3s.34-.18.44-.32c.11-.14.24-.53.24-.99s-.13-1.74-.13-1.93c0-.2.18-.15.25-.1.06.06.3.1.39,0,.09-.09.27-.11.53-.03.27.09.47.03.62.01.16-.01.54-.09.54-.29Zm-100.77,15.31c0-.23-.42-.3-.52-.45-.11-.16-.34-.21-.48-.21-.15,0-.39.25-.39.43s.03.57.09.82c.05.24.15.61.15,1.02s-.19.61-.48.61-.39-.01-.44-.19c-.05-.18-.3-.48-.47-.56-.15-.06-.14-.43-.23-.44-.09-.03-.39-.3-.51-.3-.1,0-.14.04-.28.1-.14.08-.34.24-.43.42-.09.18-.13.48-.25.48s-.1-.13-.14-.32c-.04-.2-.09-.58-.08-.76.03-.18-.19-.45-.34-.45-.14,0-.24-.2-.4-.2-.18,0-.25.35-.25.59,0,.23.03.57.15.82.11.24.06.59.06.9s.21.52.25.81c.04.29.57.34.75.34s.16-.11.16-.25.16-.19.19-.38c.04-.18.3-.3.3-.42,0-.13.08-.34.29-.34s.53.53.75.73c.21.19.72.44.87.44.16,0,.24-.16.38-.16s.56-.1.71-.25c.16-.14.3-.87.3-1.12s-.1-.87-.1-1.1.38-.35.38-.59Zm2.83-2.62c0-.39-.39-.21-.4-.34-.03-.13-.33-.27-.57-.27-.16,0-.38.29-.38.47s.21.37.35.44c.15.08.38.34.54.34.15,0,.45-.25.45-.64Zm.03,5.03c.13-.09-.13-.53-.13-.77,0-.23-.09-.63-.18-.87-.09-.23-.09-.71-.09-.92s-.38-.39-.56-.39c-.16,0-.32.35-.32.44s.05.21.14.35c.09.15.04.64.09.97.05.32.16,1.01.16,1.44s.27.58.44.58.28-.01.28-.15c0-.15.03-.59.15-.68Zm5.86-2.55c0-.19-.44-.35-.61-.27-.16.09-.52-.18-.86-.19-.34-.03-.43-.15-.57-.13-.14.01-.32-.03-.32-.2v-.87c0-.28-.11-.64-.16-.8-.05-.16-.25-.25-.51-.25-.27,0-.32.77-.32.99s.09.78.09,1.1-.62.14-.78.14-.25.24-.25.52.34.3.43.38c.09.08.35-.08.53-.08s.16.68.16,1.16-.04,1.01-.16,1.14-.3.27-.3.39.15.15.21.3c.08.16.34.3.52.3s.34-.18.44-.32c.11-.14.24-.53.24-.99s-.13-1.74-.13-1.93c0-.2.18-.15.25-.1.06.06.3.1.39,0,.09-.09.27-.11.53-.03.27.09.47.03.62.01.16-.01.54-.09.54-.29Zm6.19,3.16c0-.18-.25-.48-.38-.66-.13-.19-.47-.58-.51-.85-.03-.27-.2-.37-.32-.66-.1-.29-.57-.75-1.19-.75s-1.2.83-1.33,1.01c-.13.18-.25.51-.38.51-.11,0-.14-.76-.11-.99.01-.23-.38-2.35-.42-2.69s.04-.81.04-1c0-.2-.21-.62-.44-.62-.11,0-.47.14-.47.33,0,.2-.01.72.04,1.18.05.47.37,2.84.4,3.43.04.59.39,1.52.39,1.82s.38.38.56.38.21-.13.39-.18.2-.43.2-.68.23-.61.4-.95c.18-.33.44-.54.72-.54s.39.24.62.4c.23.16.21.63.35.77.14.14.21.47.47.58.25.13.37.3.52.3.14,0,.43.03.43-.15Zm9.54,0c0-.18-.25-.48-.38-.66-.13-.19-.47-.58-.51-.85-.03-.27-.2-.37-.32-.66-.1-.29-.57-.75-1.19-.75s-1.2.83-1.33,1.01c-.13.18-.25.51-.38.51-.11,0-.14-.76-.11-.99.01-.23-.38-2.35-.42-2.69-.04-.34.04-.81.04-1,0-.2-.21-.62-.44-.62-.11,0-.47.14-.47.33,0,.2-.01.72.04,1.18.05.47.37,2.84.4,3.43.04.59.39,1.52.39,1.82s.38.38.56.38.21-.13.39-.18c.18-.05.2-.43.2-.68s.23-.61.4-.95c.18-.33.44-.54.72-.54s.39.24.62.4.21.63.35.77.21.47.47.58c.25.13.37.3.52.3.14,0,.43.03.43-.15Zm6.31.63c0-.19-.29-.38-.56-.57-.25-.19-.42-.57-.63-.88-.21-.3-.4-.7-.45-.88-.05-.19,0-.68,0-1.04s-.32-.56-.48-.64c-.16-.1-.54-.32-.76-.32-.1,0-.19-.04-.29.05-.09.1-.35-.11-.44.03-.1.14-.38.08-.48.14-.09.08-.71.57-.9.96-.19.38-.45,1.01-.45,1.35s.09.71.19.86c.09.14.05.47.19.52.14.05.43.54,1,.54s1.05-.49,1.11-.62c.08-.11.37-.3.38-.57.03-.27.2-.4.34-.4s.16.24.28.38c.13.15.43.37.45.57.03.21.27.4.43.51s.48.45.67.45.4-.24.4-.43Zm-2.58-3.53c.05.13-.11.4-.16.59-.04.19-.19.77-.38,1.12-.19.35-.59,1.07-1,1.07s-.43-.45-.43-.77.05-.95.24-.95.19-.48.35-.49c.18-.03.13-.21.24-.32.13-.09.16-.27.32-.27.14,0,.19.03.3.03.14,0,.48-.14.52-.03Zm7.06.82c0-.16.1-.56-.05-.61-.16-.06-.2-.24-.34-.34-.14-.11-.7-.39-1.05-.39-.52,0-.67.18-.82.27-.16.09-.43.34-.57.4-.15.08-.16.4-.29.4s-.38-.13-.56,0c-.18.11-.01.35.09.54.11.2.13,1.33-.06,2.11-.18.78.24,1.57.24,2.11s.38.82.49,1.15c.1.33.27.34.54.34s.43-.3.43-.49c0-.18-.11-.58-.16-.78-.05-.2-.1-1.12-.14-1.49-.04-.38-.37-1.61-.37-1.83,0-.24.11-.08.19.04.08.1.32.21.64.21s.49-.06.8-.06.39-.35.64-.62c.25-.27.34-.81.34-.96Zm-.91,0c0,.18-.16.43-.29.54-.11.13-.28.3-.61.3s-.44-.03-.54.09c-.11.13-.25,0-.25-.2,0-.21.23-.59.39-.77.16-.18.57-.47.83-.47.33,0,.47.33.47.51Zm6.29,0c0-.16.1-.56-.05-.61-.16-.06-.2-.24-.34-.34-.14-.11-.7-.39-1.05-.39-.52,0-.67.18-.82.27-.16.09-.43.34-.57.4-.15.08-.16.4-.29.4s-.38-.13-.56,0c-.18.11-.01.35.09.54.11.2.13,1.33-.06,2.11-.18.78.24,1.57.24,2.11s.38.82.49,1.15c.1.33.27.34.54.34s.43-.3.43-.49c0-.18-.11-.58-.16-.78-.05-.2-.1-1.12-.14-1.49-.04-.38-.37-1.61-.37-1.83,0-.24.11-.08.19.04.08.1.32.21.64.21s.49-.06.8-.06.39-.35.64-.62c.25-.27.34-.81.34-.96Zm-.91,0c0,.18-.16.43-.29.54-.11.13-.28.3-.61.3s-.44-.03-.54.09c-.11.13-.25,0-.25-.2,0-.21.23-.59.39-.77.16-.18.57-.47.83-.47.33,0,.47.33.47.51Zm3.75-3.56c0-.39-.39-.21-.4-.34-.03-.13-.33-.27-.57-.27-.16,0-.38.29-.38.47s.21.37.35.44c.15.08.38.34.54.34.15,0,.45-.25.45-.64Zm.03,5.03c.13-.09-.13-.53-.13-.77,0-.23-.09-.63-.18-.87-.09-.23-.09-.71-.09-.92s-.38-.39-.56-.39c-.16,0-.32.35-.32.44s.05.21.14.35c.09.15.04.64.09.97.05.32.16,1.01.16,1.44s.27.58.44.58.28-.01.28-.15c0-.15.03-.59.15-.68Zm7.23.34c0-.14-.34-.23-.52-.73-.08-.2-.19-.78-.32-1.1s-.54-.77-.77-.81c-.23-.03-.7-.33-.82-.33s-.35.21-.57.21-.42.24-.57.33c-.16.09-.27.13-.61.63-.34.49-.3-.18-.3-.59s-.38-.56-.61-.56c-.47,0-.34.64-.21.94.13.28.14,1.43.14,1.62,0,.2.52.9.66.9.15,0,.15-.2.3-.27.16-.08.3-.16.25-.37-.05-.19.18-.75.42-1.14.23-.39.62-.53.94-.71.33-.18.47,0,.58.09.1.09.4.48.49.8.09.33.29.96.29,1.26s.43.49.61.49.62-.52.62-.67Zm5.32-.03c0-.11-.35-.05-.62-.05s-.05.24-.86.24-1.02-.16-1.21-.35-.04-.33.18-.35c.2-.03.63-.53.78-.67.14-.14.23-.43.49-.57.27-.14.21-.43.29-.59.06-.16,0-.51-.16-.81-.18-.3-.32-.45-.86-.45-.24,0-1.12.29-1.48.53-.35.23-.68,1-.68,1.33s.16.97,0,1.1c-.18.11.23.57.76,1.09.52.53.78.62,1.64.62s1.16-.35,1.4-.52c.23-.18.33-.4.33-.53Zm-1.95-2.65c.09.14-.1.28-.27.49-.16.21-.49.48-.59.67-.1.19-.51.43-.48.06.03-.35.15-.54.4-.81.27-.25.37-.33.53-.33.14,0,.3-.24.4-.09Zm5.87-.09c0-.18-.27-.37-.49-.43-.23-.05-.52-.18-.81-.18-.33,0-.57.38-.66.51s-.3.43-.3.8.33,1.3.57,1.58c.25.27.21.39-.18.52-.39.11-.45,0-.45-.1,0-.09-.13-.3-.37-.15-.23.14-.21.21-.45.14-.25-.08-.64.21-.64.44,0,.24.4.48.58.56.19.08.43.05.64-.05.21-.11.38.04.59.04s.64-.08.86-.2c.2-.13.53-.23.53-.64s-.27-.94-.39-1.1-.34-.61-.34-.75c0-.15-.04-.39.13-.39s.19-.2.34-.2c.14,0,.1.21.32.21s.53-.42.53-.59Zm4.2,0c0-.18-.27-.37-.49-.43-.23-.05-.52-.18-.81-.18-.33,0-.57.38-.66.51s-.3.43-.3.8.33,1.3.57,1.58c.25.27.21.39-.18.52-.39.11-.45,0-.45-.1,0-.09-.13-.3-.37-.15-.23.14-.21.21-.45.14-.25-.08-.64.21-.64.44,0,.24.4.48.58.56.19.08.43.05.64-.05.21-.11.38.04.59.04s.64-.08.86-.2c.2-.13.53-.23.53-.64s-.27-.94-.39-1.1-.34-.61-.34-.75c0-.15-.04-.39.13-.39s.19-.2.34-.2c.14,0,.1.21.32.21s.53-.42.53-.59Zm2.39,2.91c0-.18-.09-.7-.2-.7-.1,0-.33-.27-.53-.27-.29,0-.27.28-.47.43-.19.14.03.18.03.32s.3.48.35.48.38.18.56.18.27-.27.27-.44Zm4.43-4.74c0-.27-.23-.78-.51-1.07-.27-.28-.83-.4-.97-.4-.13,0-.44.29-.44.47s.15.43.62.49c.47.08.35.44.35.72s-.27.8-.39,1c-.13.19.09.19.27.45.18.27.3.2.3.09,0-.1.3-.21.33-.35.01-.14.24-.4.35-.56.1-.14.09-.57.09-.83Zm-2.45.56c0-.61-.34-1.07-.48-1.26-.14-.2-.58-.43-.82-.43-.13,0-.23.04-.48.15-.25.13-.16.45-.04.45s.29.43.51.44c.21.01.39.1.39.48s-.18.61-.18.86.34.73.52.71c.18-.01.35-.13.39-.32.04-.2.19-.48.19-1.09Zm-70.18,12.93c-.09-.14-.18-.34-.34-.39-.28-.09-.78.21-.95.48-.18.27-.42.48-.59.75-.23.34-.62.71-.99,1.26-.35.54-.72,1.23-.82,1.61-.04.2-.05.37-.05.57-.01.62-.14,1.21.08,1.83.04.1.16.37.18.47,0,.28.33.53.51.72,0-.01.03-.01.03-.03.05.16.77.62,1.31.8.28.09.56.11.8.13.13,0,.39,0,.51.04.32.1.51-.08.62-.05.28.06.58-.42.63-.63.05-.21-.06-.61-.33-.7-.24-.08-.53-.14-.76.03-.05.03-.37-.04-.47-.04-.33,0-.48-.2-.76-.24-.16-.01-.66-.29-.8-.48-.14-.19-.18-.77-.28-1.05-.05-.14.24-1.06.29-1.25.09-.34.53-.81.59-1.04.01-.05.42-.51.47-.71.04-.18,1.25-.77,1.38-1.28.05-.23-.09-.68-.27-.8h.01Zm8.74,6.36c.28,0,.51-.28.51-.56,0-.25-.13-.57-.23-.8-.09-.16.08-.58-.06-.86-.09-.19-.18-.48-.19-1.01-.03-.59-.27-1.47-.43-1.9-.18-.47-.58-.71-.92-.71-.16,0-.35.14-.54.37-.39.53-1.09,1.69-1.23,2.27-.08.29-.19.76-.32.76-.11,0-.06-.27-.11-.57-.1-.54-.48-2.19-1.24-2.19-.28,0-.39.23-.42.44-.01.1-.39.76-.45.87-.23.45-.58.88-.61,1.42,0,.19-.1.35-.19.51-.11.21-.25.47-.32.87-.1.58-.44,1.44-.44,1.98,0,.39.47.86.71.86.19,0,.52-.13.52-.53,0-.24.13-.56.19-.78.13-.53.29-.87.38-1.35.03-.18.09-.32.16-.47.2-.38.08-.59.19-.94.05-.18.23-.9.4-.9.04,0-.03.13.01.28.18.77.24,2.48,1.34,2.48.67,0,.85-.72.94-1.24.05-.29.29-.49.3-.78.01-.19.33-.76.4-1,.08-.25.21-.59.35-.59.15,0,.11.7.13,1.02.03.43.1.85.28,1.23.16.37.18.78.21,1.18.05.52.23.63.67.63Zm4.95-.1c.29-.34.61-1,.61-1.66s-.57-1.35-.85-1.45c-.28-.1-.82-.64-1.1-.64-.25,0-.68.42-.68.78,0,.1.01.21.06.3-.15-.09-.34-.15-.47-.15-.3,0-.48.28-.56.57-.08.3-.33.56-.33.88,0,.73.19.43.42,1.06.03.06.04.15.06.24.09.39.19.44.48.57.32.14.77.37,1.09.37.39,0,.97-.51,1.26-.87Zm-1.48-2.27c.13,0,.37.11.52.19.13.06.37.45.37.54,0,.11-.01.2-.21.54-.2.34-.35.48-.62.48s-.33-.19-.33-.23c0-.21-.28-.42-.28-.7s.29-.68.3-.92c.08.05.16.09.25.09Zm6.44,2.27c.29-.34.61-1,.61-1.66s-.57-1.35-.85-1.45-.82-.64-1.1-.64c-.25,0-.68.42-.68.78,0,.1.01.21.06.3-.15-.09-.34-.15-.47-.15-.3,0-.48.28-.56.57-.08.3-.33.56-.33.88,0,.73.19.43.42,1.06.03.06.04.15.06.24.09.39.19.44.48.57.32.14.77.37,1.09.37.39,0,.97-.51,1.26-.87Zm-1.48-2.27c.13,0,.37.11.52.19.13.06.37.45.37.54,0,.11-.01.2-.21.54s-.35.48-.62.48-.33-.19-.33-.23c0-.21-.28-.42-.28-.7s.29-.68.3-.92c.08.05.16.09.25.09Zm6.49.83c-.01-.58-.48-1.45-1.16-1.45-.28,0-.44.04-.75.52l-.05.06c0-.78-.27-1-.68-1-.28,0-.52.32-.58.53-.05.19-.05.75.15.91.03.01,0,1.48,0,1.66,0,.61.4.77.7.77s.77-.38.77-.77c0-.21.16-.63.37-.87.08-.09.14-.2.15-.32.03.08,0,.24.03.4.03.21.08.68.18.86.16.29.53.81.97.81.52,0,.78-.92.94-1.31.16-.4.47-.72.63-1.14.09-.24.18-.16.29-.05.19.15.2.51.49.51.03,0-.08.04-.08.09l.04.2c.09.32.37.06.37.7,0,.37.32.7.59.7.35,0,.61-.59.61-1,0-.48-.34-.4-.39-1-.05-.45-.38-.64-.56-1.02-.23-.48-.9-.85-1.24-.85-.3,0-.82.57-1.05.86-.28.37-.51.81-.73,1.21Zm6.2-4.37c-.13-.23-.52-.33-.72-.33-.3,0-.57.42-.57.66,0,.29.3.53.47.62.2.1.34.35.62.35s.64-.37.64-.83c0-.32-.18-.44-.44-.47Zm.32,6.18c0-.11-.03-.45.06-.53.27-.18-.04-.68-.04-.92,0-.25-.1-.7-.19-.94-.09-.21-.08-.66-.08-.86,0-.39-.56-.58-.75-.58-.34,0-.51.53-.51.63,0,.15.08.32.16.45.05.08.04.76.06.9.05.32.16,1,.16,1.42,0,.52.34.77.63.77.32,0,.47-.09.47-.34Zm2.9-2.31v-.42c0-.57-.53-.75-.8-.75-.62,0-.56.82-.39,1.2.13.27.13,1.35.13,1.54,0,.25.56,1.09.85,1.09.15,0,.23-.08.3-.19l.04-.05c.16-.25.53-.16.4-.62-.05-.18.18-.66.39-1,.09-.16.21-.28.37-.38.1-.06.59-.35.71-.32.23.09.54.67.59.82.08.32.28.92.28,1.21,0,.48.59.68.8.68.29,0,.81-.62.81-.86,0-.16-.14-.27-.25-.37-.39-.37-.4-1.02-.59-1.53-.14-.35-.58-.87-.92-.92-.24-.04-.63-.34-.85-.34-.2,0-.4.21-.57.21-.32,0-.43.23-.66.35-.3.16-.43.33-.63.62Zm7.35-.04c.1-.01.18-.08.25-.15.05.08.15.18.34.18.34,0,.72-.52.72-.78,0-.32-.4-.56-.64-.61-.28-.06-.54-.19-.85-.19-.24,0-.43.14-.56.27-.3.29-.59.82-.59,1.23s.34,1.39.62,1.71c.11.11.08.15-.09.2-.2.06-.21.14-.21.09,0-.15-.23-.58-.66-.32-.14.09-.15.16-.3.13-.37-.1-.88.25-.88.62,0,.29.48.64.71.73.24.1.54.06.8-.06.1-.05.37.06.51.06.23,0,.7-.08.95-.23.34-.19.63-.32.63-.81,0-.81-.73-1.53-.73-1.85,0-.08-.01-.14,0-.21Zm6.85,2.77c.23,0,.44-.15.44-.42,0-.21-.18-.3-.33-.4-.2-.16-.66-.76-.71-1.01-.08-.4-.39-.71-.49-1.1-.1-.37-.52-.59-.75-.59-.11,0-.29.14-.43.33-.23.29-.33.47-.48.8-.03.08-.03.16-.06.16-.2,0-.33.21-.53.21-.21,0-.19-.7-.13-.91.05-.19.2-.43.2-.63,0-.28-.45-.52-.67-.52-.35,0-.33.35-.45.56-.1.18-.21.3-.28.52-.11.37-.13,1.07-.01,1.15.04.01.03.15.06.29.04.19.06.39.13.57.13.3.71.7.95.7.19,0,.9-.32.94-.62,0-.05.08-.09.11-.13.18-.11.29-.2.42-.38.03-.04.19-.28.21-.28.04,0,.03.1.06.18l.16.48c.14.28.49.64.78.78.25.11.66.27.85.27Zm4.02-2.22c-.01-.58-.48-1.45-1.16-1.45-.28,0-.44.04-.75.52l-.05.06c0-.78-.27-1-.68-1-.28,0-.52.32-.58.53-.05.19-.05.75.15.91.03.01,0,1.48,0,1.66,0,.61.4.77.7.77s.77-.38.77-.77c0-.21.16-.63.37-.87.08-.09.14-.2.15-.32.03.08,0,.24.03.4.03.21.08.68.18.86.16.29.53.81.97.81.52,0,.78-.92.94-1.31.16-.4.47-.72.63-1.14.09-.24.18-.16.29-.05.19.15.2.51.49.51.03,0-.08.04-.08.09l.04.2c.09.32.37.06.37.7,0,.37.32.7.59.7.35,0,.61-.59.61-1,0-.48-.34-.4-.39-1-.05-.45-.38-.64-.56-1.02-.23-.48-.9-.85-1.24-.85-.3,0-.82.57-1.05.86-.28.37-.51.81-.73,1.21Zm8.15,0c-.01-.58-.48-1.45-1.16-1.45-.28,0-.44.04-.75.52l-.05.06c0-.78-.27-1-.68-1-.28,0-.52.32-.58.53-.05.19-.05.75.15.91.03.01,0,1.48,0,1.66,0,.61.4.77.7.77s.77-.38.77-.77c0-.21.16-.63.37-.87.08-.09.14-.2.15-.32.03.08,0,.24.03.4.03.21.08.68.18.86.16.29.53.81.97.81.52,0,.78-.92.94-1.31.16-.4.47-.72.63-1.14.09-.24.18-.16.29-.05.19.15.2.51.49.51.03,0-.08.04-.08.09l.04.2c.09.32.37.06.37.7,0,.37.32.7.59.7.35,0,.61-.59.61-1,0-.48-.34-.4-.39-1-.05-.45-.38-.64-.56-1.02-.23-.48-.9-.85-1.24-.85-.3,0-.82.57-1.05.86-.28.37-.51.81-.73,1.21Zm8.88,2.12c.28-.2.42-.49.42-.68,0-.34-.61-.24-.81-.24-.11,0-.2.04-.28.11l-.03.03c-.13.11-.43.1-.56.1-.77,0-.92-.15-1.07-.3-.03-.03.01-.03.05-.03.14-.01.34-.16.53-.34.27-.25.4-.4.59-.7.19-.27.44-.28.54-.63.13-.47.14-.78-.11-1.25-.2-.37-.4-.56-1.02-.56-.29,0-1.2.3-1.58.56-.42.28-.77,1.11-.77,1.49,0,.18.04.42.06.64.01.14.06.25.01.29-.2.14.13.77.73,1.39.57.56.88.67,1.78.67.46,0,.77-.1,1.01-.21.19-.1.33-.23.49-.34Zm-2.86-2.15c.03-.27.11-.4.34-.63.27-.27.32-.28.39-.28h.09s-.08.06-.1.1c-.18.24-.48.43-.61.7-.03.04-.06.08-.11.11Zm5.2-1.3c-.05-.27-.44-.35-.57-.35-.57,0-.54.63-.45.97.06.2.14.45.08.59-.14.27-.08.75.09.8.03.01-.04.14-.03.28l.03.33c.05.44.32.95.86.95.48,0,.63-.61.56-.96-.06-.33-.05-.7-.05-1.04,0-.16.06-.21.15-.34.13-.18.15-.27.32-.44.29-.27.53-.45.95-.45.29,0,.58-.19.58-.38,0-.23-.38-.66-.64-.66-.52,0-.53.16-.92.24-.38.09-.62.23-.94.47Zm-67.84,18.04c.28,0,.51-.28.51-.56,0-.25-.13-.57-.23-.8-.09-.16.08-.58-.06-.86-.09-.19-.18-.48-.19-1.01-.03-.59-.27-1.47-.43-1.9-.18-.47-.58-.71-.92-.71-.16,0-.35.14-.54.37-.39.53-1.09,1.69-1.23,2.27-.08.29-.19.76-.32.76-.11,0-.06-.27-.11-.57-.1-.54-.48-2.19-1.24-2.19-.28,0-.39.23-.42.44-.01.1-.39.76-.45.87-.23.45-.58.88-.61,1.42,0,.19-.1.35-.19.51-.11.21-.25.47-.32.87-.1.58-.44,1.44-.44,1.98,0,.39.47.86.71.86.19,0,.52-.13.52-.53,0-.24.13-.56.19-.78.13-.53.29-.87.38-1.35.03-.18.09-.32.16-.47.2-.38.08-.59.19-.94.05-.18.23-.9.4-.9.04,0-.03.13.01.28.18.77.24,2.48,1.34,2.48.67,0,.85-.72.94-1.24.05-.29.29-.49.3-.78.01-.19.33-.76.4-1,.08-.25.21-.59.35-.59.15,0,.11.7.13,1.02.03.43.1.85.28,1.23.16.37.18.78.21,1.18.05.52.23.63.67.63Zm4.07-3.63c-.18-.04-.39-.11-.52.09-.01.01-.2.03-.24.03-.34.05-1.04.87-1.15,1.09-.19.38-.47,1.05-.47,1.44,0,.7.11.44.24,1.02.1.47.03.29.33.59.29.28.57.49,1,.49.66,0,1.19-.56,1.28-.71.11-.19.38-.28.4-.64.03-.2.14-.24.15-.24s-.03.03-.03.04c.15.3.2.32.43.54.3.32.14.54.67.85.23.14.45.48.76.48s.59-.34.59-.62c0-.32-.4-.56-.63-.72-.25-.19-.96-1.4-1.02-1.66-.04-.18.01-.8.01-1,0-.44-.37-.7-.57-.81-.19-.11-.62-.34-.86-.34-.05,0-.1-.01-.14-.01-.08,0-.16.03-.24.09Zm.34,1.48c-.05.19-.19.73-.37,1.07-.16.3-.48.97-.83.97-.28,0-.24-.35-.24-.58,0-.24-.1-.76.05-.76.27,0,.33-.33.43-.51.19-.05.21-.2.29-.34.06-.06.11-.13.16-.2.01,0,.01-.03.03-.03.14,0,.19.03.3.03.06,0,.13-.01.18-.03.04,0,.1,0,.14-.03-.05.13-.14.35-.14.39Zm6.78-1.04c-.27-.2-1.02-.35-1.5-.35-.67,0-1,.33-1.45.71-.39.34-.61,1.11-.61,1.48s.14.67.24,1.01c.11.38.85,1,1.14,1.18.34.2.57.08.92.08.61,0,1.49-.58,1.83-1.11.01.06.04.1.06.14v.04s.03.06.03.1c0,.25.14.62.45.62.11,0,.19-.04.25-.06.21-.1.4-.09.44-.39.05-.34.27-.71-.04-1.01-.06-.06-.15-.3-.15-.67,0-.44-.14-.68-.27-.9-.08-.1-.04-.54-.1-.75-.09-.23-.19-.96-.19-1.24,0-.14-.01-.72.04-.82.11-.25.09-.38-.15-.57-.14-.1-.14-.21-.18-.37-.1-.45-.56-.1-.61-.1-.23,0-.54.18-.54.4,0,.19.14.32.14.52,0,.29.13,1.35.24,2.06h0Zm-.03,1.43c.06.05.08.09.08.13,0,.08-.14.18-.19.23-.25.21-.14.51-.51.64-.39.16-.38.44-.86.44s-.76-.44-.76-.73c0-.32.18-.63.39-.85.24-.24.23-.35.63-.35.43,0,.9.19,1.21.49Zm4.36-.28v-.42c0-.57-.53-.75-.8-.75-.62,0-.56.82-.39,1.2.13.27.13,1.35.13,1.54,0,.25.56,1.09.85,1.09.15,0,.23-.08.3-.19l.04-.05c.16-.25.53-.16.4-.62-.05-.18.18-.66.39-1,.09-.16.21-.28.37-.38.1-.06.59-.35.71-.32.23.09.54.67.59.82.08.32.28.92.28,1.21,0,.48.59.68.8.68.29,0,.81-.62.81-.86,0-.16-.14-.27-.25-.37-.39-.37-.4-1.02-.59-1.53-.14-.35-.58-.87-.92-.92-.24-.04-.63-.34-.85-.34-.2,0-.4.21-.57.21-.32,0-.43.23-.66.35-.3.16-.43.33-.63.62Zm9.38,2.63c.28-.2.42-.49.42-.68,0-.34-.61-.24-.81-.24-.11,0-.2.04-.28.11l-.03.03c-.13.11-.43.1-.56.1-.77,0-.92-.15-1.07-.3-.03-.03.01-.03.05-.03.14-.01.34-.16.53-.34.27-.25.4-.4.59-.7.19-.27.44-.28.54-.63.13-.47.14-.78-.11-1.25-.2-.37-.4-.56-1.02-.56-.29,0-1.2.3-1.58.56-.42.28-.77,1.11-.77,1.49,0,.18.04.42.06.64.01.14.06.25.01.29-.2.14.13.77.73,1.39.57.56.88.67,1.78.67.45,0,.77-.1,1.01-.21.19-.1.33-.23.49-.34Zm-2.86-2.15c.03-.27.11-.4.34-.63.27-.27.32-.28.39-.28h.09s-.08.06-.1.1c-.18.24-.48.43-.61.7-.03.04-.06.08-.11.11Zm5.88-.52c.1-.01.18-.08.25-.15.05.08.15.18.34.18.34,0,.72-.52.72-.78,0-.32-.4-.56-.64-.61-.28-.06-.54-.19-.85-.19-.24,0-.43.14-.56.27-.3.29-.59.82-.59,1.23s.34,1.39.62,1.71c.11.11.08.15-.09.2-.2.06-.21.14-.21.09,0-.15-.23-.58-.66-.32-.14.09-.15.16-.3.13-.37-.1-.88.25-.88.62,0,.29.48.64.71.73.24.1.54.06.8-.06.1-.05.37.06.51.06.23,0,.7-.08.95-.23.34-.19.63-.32.63-.81,0-.81-.73-1.53-.73-1.85,0-.08-.01-.14,0-.21Zm4.2,0c.1-.01.18-.08.25-.15.05.08.15.18.34.18.34,0,.72-.52.72-.78,0-.32-.4-.56-.64-.61-.28-.06-.54-.19-.85-.19-.24,0-.43.14-.56.27-.3.29-.59.82-.59,1.23s.34,1.39.62,1.71c.11.11.08.15-.09.2-.2.06-.21.14-.21.09,0-.15-.23-.58-.66-.32-.14.09-.15.16-.3.13-.37-.1-.88.25-.88.62,0,.29.48.64.71.73.24.1.54.06.8-.06.1-.05.37.06.51.06.23,0,.7-.08.95-.23.34-.19.63-.32.63-.81,0-.81-.73-1.53-.73-1.85,0-.08-.01-.14,0-.21Zm3.14,2.69c-.01.05-.01.11-.01.18,0,.16-.21.38-.21.56,0,.01-.01.03-.03.04l-.04.04c-.09.11-.16.23-.16.33,0,.19-.67.54-.67,1,0,.23.11.52.32.52l.03.03c.08.08.16.13.28.13.23,0,.23-.1.35-.19.13-.09.19-.21.28-.28.23-.15.35-.57.56-.82.2-.24.21-.35.34-.64.24-.59.24-.62.19-1.24-.03-.3-.61-1.2-1.04-1.2-.15,0-.61.16-.63.27,0,.04-.13-.01-.21-.01-.27,0-.47.35-.47.66,0,.25.13.43.29.61.23.25.58.13.85.05Zm7.45.3c.14.13.23.34.47.34.28,0,.76-.37.76-.75,0-.19-.06-.56-.13-.86-.09-.47-.27-1.06-.27-1.53,0-.34-.1-1.49-.16-1.82-.05-.3-.06-1.35-.03-1.66.03-.29-.13-.51-.35-.66-.24-.15-.48-.38-.78-.38-.27,0-.47.77-.3,1.14.06.13.1.81.14,1.49.01.19.06,1.42.14,1.55.06.09.03,1.82.03,2.03,0,.78.28,1.07.49,1.09Zm8.5-5.37c.1-.1.19-.24.19-.42s-.1-.42-.38-.51c-.18-.05-.58-.2-.8-.33-.28-.18-1.15-.28-1.54-.28-.45,0-1.04.13-1.34.16-.34.04-.57.14-.75.37-.47.57-1.1,1.11-1.1,1.92,0,.47.42,1.09.63,1.29.24.25.66.39,1.24.39.29,0,.44-.03.57-.06.05-.03.1-.05.15-.05.2,0,.63-.1.8-.39.1-.19.57-.09.76-.52.06,0-.05.08-.06.18,0,.23-.04.53-.01.8.04.54.05,1.71-.04,2.1-.1.47.09.52.1.86.03.49.49.53.91.34.4-.16.44-.48.38-.8-.04-.16.14-.23.11-.45-.03-.18-.09-.88-.09-1.16,0-.14-.01-.43-.01-.72,0-.25,0-.49.04-.59.09-.25.01-.87-.14-1.06-.05-.04-.06-.16-.09-.3-.04-.23-.06-.44-.14-.61.08.01.14.01.19.01.13,0,.28-.03.42-.16Zm-1.9.25c-.39.59-.47.32-.96.68-.23.18-.35.25-.64.35-.24.08-.88.18-.88-.24,0-.19.21-.44.29-.63.04-.1.38-.39.73-.56.33-.15.3-.18.71-.18h.49c.1.01.4.08.67.14-.16.09-.3.25-.4.43Zm5.61-1.06c-.01-.33-.38-.4-.57-.4-.27,0-.49.15-.49.39,0,.08-.2.59-.34.9-.14.33-.35.92-.35,1.2,0,.33.37.75.71.75.27,0,.43-.03.63-.24.04-.03.06.01.1.04.13.04.24.11.38.11.23,0,1.06.34,1.02.58-.03.16-.09.3-.09.48,0,.24-.38.66-.81.73-.27.05-.38.11-.47.15l-.06.04s-.03.01-.04.01c-.11,0-.23.03-.33.04-.1-.23-.35-.47-.57-.47-.13,0-.51.09-.61.33-.08.19-.08.67.19.75.05.03.16.35.39.4h.03c.18.19.63.18.83.18.32,0,.62.01.9-.13.13-.06.24-.06.37-.16l.05-.04c.05-.04.1-.08.24-.1.44-.09.75-.49.91-.75.16-.25.42-.9.42-1.16,0-.24-.08-.73-.19-1.02-.1-.25-.4-.38-.63-.52-.49-.28-.2-.3-.83-.42-.23-.04-.52-.28-.76-.16-.06.04-.25.11-.25.01,0-.04.05-.04.08-.06.11-.06.25-.11.32-.24.01-.04.78-.28.91-.35.15-.08,1.48-.42,1.69-.21.35.3.52-.16.7-.3.56-.43-.3-1.3-.86-.88-.03.03-.8-.09-.9.15-.01.03-.08-.05-.15-.05-.08-.01-.16-.01-.24-.01-.25,0-1.1.3-1.3.42,0,.01,0,.03-.01.04Zm9.13,7.29v-.13c.06-.34-.05-1.25-.05-1.66,0-.35-.04-1.74-.09-2.09-.05-.3.01-.62.03-.92s-.11-.45-.11-.75c0-.27.18-1.36.18-1.73,0-.51-.63-.8-.9-.8-.34,0-.44.61-.37.85.04.1-.11,1.04-.11,1.25,0,.2-.15.3-.25.3-.24,0-.62-.03-.66.3-.01.11-.15.15-.38.27-.2.09-.47-.11-.7-.11-.06,0-.04-.09-.04-.16-.03-.16-.03-.38-.03-.52,0-.27.14-.83.27-1.11.2-.42.04-.57-.21-.82-.16-.16-.34-.29-.59-.29-.21,0-.45.14-.45.43,0,.1-.06.54-.16.58-.23.09-.19.68-.19.91,0,.1-.01.18-.01.23-.04.19-.29.15-.29.58,0,.39.21.88.57,1.18.3.25.87.56,1.16.56.23,0,.59.09.77-.06,0,0,.01.01.04.01.28,0,.57.06.85-.03.08-.03.1-.01.1.04,0,.18.08,1.05.18,1.3.09.2.09,1.19.09,1.48s-.19.58-.19.88.28.59.39.67c.13.06.21.3.42.3s.33-.24.51-.32c.28-.11.25-.39.25-.63Zm4.12-.48c.21-.08.45-.43.49-.59.03-.11.2-.38.27-.51.1-.19.35-.91.35-1.06s.13-.47.19-.63c.09-.21.14-.81.14-1.02,0-.24-.13-.87-.2-1.01-.04-.08-.27-.49-.27-.54,0-.21.03-.47-.21-.58-.06-.04-.09-.63-.37-.68-.01,0-.03-.06-.09-.13-.18-.21-.85-1.05-1-1.05-.03,0-.05-.08-.11-.14-.05-.05-.1-.11-.15-.15-.18-.16-.82-.48-1.02-.48-.23,0-.47.27-.47.7,0,.32.14.43.39.54,0,.01.01,0,.01.01.13.18.42.32.68.42.21.09.58.56.59.63.01.15.19.37.28.48.23.33.18.32.3.64.23.64.42,1.1.24,1.81-.05.16-.11.34-.11.51,0,.24-.15.58-.23.8-.11.37-.38.68-.58,1-.14.23-.42.45-.42.75,0,.33.48.68.81.68.27,0,.38-.18.48-.38Z"/>
</svg>