<?xml version="1.0" encoding="UTF-8"?>
<svg id="fore_ground" data-name="fore ground" xmlns="http://www.w3.org/2000/svg" xmlns:xlink="http://www.w3.org/1999/xlink" viewBox="0 0 202 142">
  <defs>
    <style>
      .cls-1 {
        mask: url(#mask);
      }

      .cls-2 {
        fill: #fff6c8;
      }

      .cls-3, .cls-4 {
        fill: #0e5256;
      }

      .cls-4, .cls-5 {
        fill-rule: evenodd;
      }

      .cls-5 {
        fill: #fff;
      }
    </style>
    <mask id="mask" x="-.73" y="-.37" width="202.73" height="142.37" maskUnits="userSpaceOnUse">
      <g id="path-1-inside-1_3_23" data-name="path-1-inside-1 3 23">
        <path class="cls-5" d="m158.48,108.35c8.34-10.73,13.2-23.45,13.26-37.11C171.93,32.62,133.74,1.11,86.45.88,39.15.64.67,31.77.49,70.39c-.18,38.63,38.01,70.13,85.3,70.36,26.01.13,49.35-9.22,65.13-24.1,5.2,4.76,11.77,8.02,19.17,9.03,11.93,1.62,23.28-2.97,31.03-11.38-6.54,3.72-14.23,5.4-22.17,4.32-8.02-1.09-15.08-4.84-20.46-10.27Z"/>
      </g>
    </mask>
  </defs>
  <path class="cls-4" d="m158.48,108.35c8.34-10.73,13.2-23.45,13.26-37.11C171.93,32.62,133.74,1.11,86.45.88,39.15.64.67,31.77.49,70.39c-.18,38.63,38.01,70.13,85.3,70.36,26.01.13,49.35-9.22,65.13-24.1,5.2,4.76,11.77,8.02,19.17,9.03,11.93,1.62,23.28-2.97,31.03-11.38-6.54,3.72-14.23,5.4-22.17,4.32-8.02-1.09-15.08-4.84-20.46-10.27Z"/>
  <g class="cls-1">
    <path class="cls-3" d="m171.75,71.24h1.21s-1.21,0-1.21,0Zm-13.26,37.11l-.95-.77-.68.88.78.79.85-.89ZM86.45.88v1.24s0-1.24,0-1.24ZM.49,70.39h1.21s-1.21,0-1.21,0Zm85.3,70.36v1.24s0-1.24,0-1.24Zm65.13-24.1l.81-.93-.82-.75-.81.76.82.92Zm19.17,9.03l-.16,1.23.16-1.23Zm31.03-11.38l.88.85-1.47-1.94.59,1.09Zm-22.17,4.32l.16-1.23-.16,1.23Zm-8.41-47.39c-.06,13.35-4.81,25.81-13,36.34l1.9,1.55c8.49-10.92,13.46-23.91,13.53-37.88h-2.43ZM86.44,2.12c46.89.23,84.27,31.42,84.09,69.11h2.43C173.15,31.69,134.15-.13,86.45-.37v2.49ZM1.7,70.4C1.88,32.71,39.55,1.89,86.44,2.12V-.37C38.76-.6-.54,30.82-.73,70.38H1.7Zm84.09,69.13c-46.89-.23-84.27-31.42-84.09-69.11H-.73c-.19,39.55,38.82,71.36,86.51,71.6v-2.49Zm64.31-23.77c-15.53,14.64-38.57,23.9-64.3,23.77v2.49c26.28.13,49.92-9.32,65.95-24.42l-1.64-1.83Zm20.15,8.71c-7.15-.97-13.5-4.12-18.52-8.72l-1.62,1.86c5.37,4.92,12.17,8.29,19.82,9.33l.32-2.47Zm29.99-11c-7.5,8.13-18.47,12.57-29.99,11l-.32,2.47c12.33,1.68,24.07-3.08,32.07-11.76l-1.76-1.71Zm-21.45,6.41c8.21,1.12,16.16-.62,22.92-4.47l-1.18-2.18c-6.32,3.6-13.75,5.22-21.42,4.17l-.32,2.47Zm-21.16-10.62c5.56,5.62,12.86,9.49,21.16,10.62l.32-2.47c-7.75-1.06-14.57-4.67-19.77-9.92l-1.7,1.77Z"/>
  </g>
  <path class="cls-2" d="m44.16,24.56c0-.16-.46-.29-.47-.34-.02-.05-.24-.1-.24-.25,0-.14.18-.45.35-.58.18-.15.15-.34.15-.66s-.32-.27-.53-.27c-.25,0-.28.47-.51.53-.24.07-.33.51-.33.83s.25.82.46.86c.21.04.25.35.55.42.29.06.32-.09.36-.2.05-.1.22-.19.22-.35Zm-2.15.5c-.05-.11-.39-.15-.59-.02-.21.12-.38,0-.4-.09-.01-.09-.27-.16-.35-.25-.08-.09.01-.32.01-.45s.25-.21.28-.41c.01-.19.35-.4.55-.49.18-.09.29-.15.29-.3,0-.16-.34-.58-.55-.58-.36,0-.46.26-.64.3-.17.04-.29.51-.47.55-.19.04-.39.93-.5,1.26-.1.34.05.45.38.8.33.35.45.17.78.31.32.15.5-.14.63-.01s.38-.09.55-.14c.17-.06.1-.37.05-.47Zm5.49,2.99c.07-.56,0-.86-.1-1.77-.1-.92-.05-1.75,0-2.09.05-.34-.05-.61-.17-.77-.12-.16-.22-.4-.42-.4-.12,0-.27.14-.29.36-.04.21-.08,1.34-.06,1.98.04.65.07,2.39.06,3.28-.02.9.25,1.03.47,1.03s.38-.19.4-.44c.01-.26.05-.63.11-1.19Zm5.03-2.28c0-.17-.25-.36-.47-.42-.22-.05-.5-.17-.78-.17-.32,0-.55.37-.63.5-.08.12-.29.42-.29.78s.32,1.28.55,1.55c.24.26.21.39-.17.51-.38.11-.44,0-.44-.1,0-.09-.12-.3-.35-.15-.22.14-.21.21-.44.14-.24-.07-.62.21-.62.44,0,.24.39.47.56.55.18.07.41.05.62-.05.21-.11.36.04.57.04s.62-.07.83-.2c.19-.12.51-.22.51-.63s-.25-.92-.38-1.08c-.12-.16-.33-.6-.33-.73,0-.15-.04-.39.12-.39s.18-.2.33-.2c.13,0,.1.21.3.21s.51-.41.51-.58Zm6.42,2.72c0-.14-.33-.22-.5-.72-.07-.2-.18-.77-.3-1.08-.12-.31-.52-.76-.74-.8-.22-.02-.67-.32-.79-.32s-.34.21-.55.21-.4.24-.55.32c-.16.09-.25.12-.58.62-.33.49-.29-.17-.29-.58s-.36-.55-.58-.55c-.45,0-.33.63-.21.92.12.27.13,1.41.13,1.59,0,.2.5.88.63.88.15,0,.15-.2.29-.26.16-.07.29-.16.24-.36-.05-.19.17-.73.4-1.12.22-.39.59-.52.9-.7.32-.17.45,0,.56.09.1.09.39.47.47.78.08.32.28.95.28,1.24s.41.49.58.49.59-.51.59-.66Zm2.04-4.27c.08-.17-.21-.42-.21-.72s-.64-.71-.64-.8-.79-.31-1.01-.31c-.16,0-.36.21-.36.34s.33.3.36.44c.02.14.08.35.46.34.38-.02.22.14.38.4.15.27-.04.47-.04.63s-.45.26-.46.41c-.02.14-.34.35-.32.53.04.2.17.15.23.36.05.21.35.09.62.02.25-.05.1-.39.38-.39s.18-.39.35-.47c.17-.09.17-.61.25-.78Zm5.38,1.42c0-.19-.42-.35-.58-.26-.16.09-.5-.17-.83-.19-.33-.02-.41-.15-.55-.12-.13.01-.3-.02-.3-.2v-.86c0-.27-.11-.63-.16-.78-.05-.16-.24-.25-.49-.25-.25,0-.3.76-.3.97s.08.77.08,1.08-.59.14-.75.14-.24.24-.24.51.33.3.41.37c.08.07.34-.07.51-.07s.16.67.16,1.14-.04,1-.16,1.12c-.12.12-.29.26-.29.39s.15.15.21.3c.07.16.33.3.5.3s.33-.17.42-.31c.11-.14.23-.52.23-.97s-.12-1.72-.12-1.9c0-.2.17-.15.24-.1.06.06.29.1.38,0,.08-.09.25-.11.51-.02s.45.02.59.01c.16-.01.52-.09.52-.29Zm5.48,3.07c0-.19-.24-.57-.24-1.01s-.22-1.28-.22-1.9-.22-2.23-.22-2.4.01-.41.08-.6c.06-.2-.29-.42-.55-.42-.15,0-.33.01-.33.25,0,.22.04,2.56.1,3.13.07.58.23,2.16.23,2.56s.17.57.22.67c.05.1.24.3.38.3s.21-.12.28-.21c.06-.09.27-.17.27-.37Zm2.85-5.51c0-.39-.38-.21-.39-.34-.02-.12-.32-.26-.55-.26-.16,0-.36.29-.36.46s.21.36.34.44c.15.07.36.34.52.34.15,0,.44-.25.44-.63Zm.02,4.95c.12-.09-.12-.52-.12-.76,0-.22-.08-.62-.17-.86-.08-.22-.08-.7-.08-.91s-.36-.39-.53-.39c-.16,0-.3.35-.3.44s.05.21.13.35c.08.15.04.63.08.96.05.31.16,1,.16,1.42s.25.57.42.57.27-.01.27-.15c0-.15.02-.58.15-.67Zm5.21-5.26c-.21-.19-.44-.24-.57-.39-.13-.14-.59-.22-1.03-.22-.21,0-.55.09-.7.09s-.57.42-.7.58c-.15.16-.28.9-.28,1.22s.05.68.13,1.08c.1.4-.01.49-.24.49s-.21.47,0,.68c.21.21.27.25.39.25.11,0,.23.45.23.73s.24.46.24.65-.02.68.12.95c.13.25.36.56.61.56.25,0,.15-.12.25-.26.12-.14.02-.46-.02-.91s-.27-.52-.24-.75c.01-.24-.33-.52-.33-.78s.21-.22.49-.22.21-.19.59-.19.41.04.57.16c.16.11.36-.29.41-.4.04-.12.18-.37-.02-.47-.21-.09-1.12,0-1.78,0s-.52-.56-.52-.88,0-.55.08-.98c.1-.45.18-.34.39-.61.21-.29.55-.21.69-.15.13.07.52.05.75.24.23.19.32.07.47,0,.16-.06.23-.27.02-.46Zm4.61,5.57c0-.11-.34-.05-.59-.05s-.05.24-.83.24-.98-.16-1.17-.35-.04-.32.17-.35c.19-.02.61-.52.75-.66.13-.14.22-.42.47-.56s.21-.42.28-.58c.06-.16,0-.5-.16-.8-.17-.3-.3-.45-.83-.45-.23,0-1.08.29-1.42.52-.34.22-.66.98-.66,1.31s.16.96,0,1.08c-.17.11.22.56.73,1.07.5.52.75.61,1.58.61s1.12-.35,1.35-.51c.22-.17.32-.4.32-.52Zm-1.87-2.61c.08.14-.1.27-.25.49-.16.21-.47.47-.57.66-.1.19-.49.42-.46.06.02-.35.15-.53.39-.8.25-.25.35-.32.51-.32.13,0,.29-.24.39-.09Zm9.8,2.61c0-.11-.34-.05-.59-.05s-.05.24-.83.24-.98-.16-1.17-.35c-.18-.19-.04-.32.17-.35.19-.02.61-.52.75-.66.13-.14.22-.42.47-.56.25-.14.21-.42.28-.58.06-.16,0-.5-.16-.8-.17-.3-.3-.45-.83-.45-.23,0-1.08.29-1.42.52-.34.22-.66.98-.66,1.31s.16.96,0,1.08c-.17.11.22.56.73,1.07.5.52.75.61,1.58.61s1.12-.35,1.35-.51c.22-.17.32-.4.32-.52Zm-1.87-2.61c.08.14-.1.27-.25.49s-.47.47-.57.66c-.1.19-.49.42-.46.06.02-.35.15-.53.39-.8.25-.25.35-.32.51-.32.13,0,.29-.24.39-.09Zm6.56-.4c.04-.21.19-.39-.04-.63-.22-.25-.4.01-.49.01-.1,0-.35.42-.39.62-.02.19-.3.3-.39.45-.08.16-.38.46-.55.63s-.24.44-.34.44c-.11,0-.36-.32-.5-.51-.15-.17-.44-.24-.44-.39,0-.14-.18-.24-.18-.44,0-.19-.34-.34-.5-.34-.13,0-.3.34-.3.47,0,.15.18.3.18.42s.25.36.28.53c.01.17.38.49.58.62.21.15.25.29.25.42,0,.15-.38.21-.49.3-.1.09-.23.25-.1.41.13.15.1.22.1.55s.21.35.46.35.29-.07.35-.12c.05-.05.22-.22.27-.5.05-.26.21-.26.38-.26s.15.3.33.39c.19.09.38.34.57.5.18.15.47.22.58.22.1,0,.13-.22.21-.42.06-.19-.04-.44-.15-.44-.1,0-.44-.3-.75-.58-.3-.27-.34-.47-.34-.65s.34-.47.39-.61c.06-.15.21-.26.35-.41.13-.14.23-.21.42-.4.18-.2.18-.44.22-.65Zm4.5,3.18c-.08-.07-.21-.16-.29-.05-.1.12-.35.19-.69.19s-.18-.14-.75-.21c-.57-.06-.52-.44-.52-.67s.21-.68.41-1.22c.21-.53.52-.66.66-.66.15,0,.33.16.49.16s.27-.16.27-.27c0-.12-.04-.37-.18-.47-.13-.09-.29-.27-.66-.27-.23,0-.44.14-.73.22-.3.1-.62.63-.8,1.08-.18.45-.35,1.08-.35,1.38s.25.9.44,1.17c.18.29.69.45.9.37.21-.06.29.24.63.24s.96-.32,1.17-.51c.21-.19.12-.4.02-.47Zm2.52-5.44c0-.39-.38-.21-.39-.34-.02-.12-.32-.26-.55-.26-.16,0-.36.29-.36.46s.21.36.34.44c.15.07.36.34.52.34.15,0,.44-.25.44-.63Zm.02,4.95c.12-.09-.12-.52-.12-.76,0-.22-.08-.62-.17-.86-.08-.22-.08-.7-.08-.91s-.36-.39-.53-.39c-.16,0-.3.35-.3.44s.05.21.13.35c.08.15.04.63.08.96.05.31.16,1,.16,1.42s.25.57.42.57.27-.01.27-.15c0-.15.02-.58.15-.67Zm5.63-2.51c0-.19-.42-.35-.58-.26s-.5-.17-.83-.19c-.33-.02-.41-.15-.55-.12-.13.01-.3-.02-.3-.2v-.86c0-.27-.11-.63-.16-.78-.05-.16-.24-.25-.49-.25-.25,0-.3.76-.3.97s.08.77.08,1.08-.59.14-.75.14-.24.24-.24.51.33.3.41.37c.08.07.34-.07.51-.07s.16.67.16,1.14-.04,1-.16,1.12c-.12.12-.29.26-.29.39s.15.15.21.3c.07.16.33.3.5.3s.33-.17.42-.31c.11-.14.23-.52.23-.97s-.12-1.72-.12-1.9c0-.2.17-.15.24-.1.06.06.29.1.38,0,.08-.09.25-.11.51-.02s.45.02.59.01c.16-.01.52-.09.52-.29Zm2.05-2.44c0-.39-.38-.21-.39-.34-.02-.12-.32-.26-.55-.26-.16,0-.36.29-.36.46s.21.36.34.44c.15.07.36.34.52.34.15,0,.44-.25.44-.63Zm.02,4.95c.12-.09-.12-.52-.12-.76,0-.22-.08-.62-.17-.86-.08-.22-.08-.7-.08-.91s-.36-.39-.53-.39c-.16,0-.3.35-.3.44s.05.21.13.35c.08.15.04.63.08.96.05.31.16,1,.16,1.42s.25.57.42.57.27-.01.27-.15c0-.15.02-.58.15-.67Zm6.94.34c0-.14-.33-.22-.5-.72-.07-.2-.18-.77-.3-1.08s-.52-.76-.74-.8c-.22-.02-.67-.32-.79-.32s-.34.21-.55.21-.4.24-.55.32c-.16.09-.25.12-.58.62-.33.49-.29-.17-.29-.58s-.36-.55-.58-.55c-.45,0-.33.63-.21.92.12.27.13,1.41.13,1.59,0,.2.5.88.63.88.15,0,.15-.2.29-.26.16-.07.29-.16.24-.36-.05-.19.17-.73.4-1.12.22-.39.59-.52.9-.7.32-.17.45,0,.56.09.1.09.39.47.47.78.08.32.28.95.28,1.24s.41.49.58.49.59-.51.59-.66Zm5.62,1.32c0-1.02-.4-2-.61-2.5-.21-.49-.46-.78-.46-1.16s-.23-.36-.5-.56c-.28-.19-.61-.34-.96-.34-.4,0-.9.35-1.17.58-.28.22-.74.93-.74,1.58s.05.77.45,1.37c.39.6.92.68,1.29.68s.72-.3.76-.51c.05-.21.28-.26.34-.55.07-.27.08-.42.29-.42s.24.68.33.81.13.44.13.95c0,.71-.16,1.37-.47,1.82-.33.44-.78.6-1.23.6s-.39.1-.93-.15c-.55-.24-.63-.31-.55-.57.08-.26.01-.2-.17-.44-.19-.25-.56.14-.62.27-.07.14-.08.51.06.63.16.12-.02.26.52.7.55.45,1.23.49,1.58.49s1.01-.19,1.46-.29c.44-.11.4-.35.52-.46.12-.1.32-.6.32-.82s.35-.72.35-1.72Zm-1.94-2.8c0,.36-.17.57-.17.71s-.12.36-.23.46c-.1.09-.13.4-.5.4s-.38-.22-.46-.3-.27-.17-.27-.47.21-.92.35-1.14c.16-.22.66-.51.81-.51.32,0,.46.51.46.86Zm5.33-1.32c.05-.26-.07-.85-.07-1.03s-.1-.85-.17-1.23c-.06-.39-.05-.78,0-.97.05-.19-.05-.35-.15-.42-.11-.07-.36-.17-.61-.17-.39,0-.3.47-.33.92-.01.45.02,1.01.08,1.01.07,0,.19,1.6.21,1.83.02.22-.06,1.04-.12,1.18-.05.14.1.37.36.32.28-.05.33.14.49.14.15,0,.08-.2.27-.2.11,0-.08-.32-.21-.36-.12-.04-.08-.19.07-.25.16-.06.12-.5.17-.76Zm.59,3.1c.02-.17-.06-.44-.15-.56-.08-.12-.24-.3-.35-.14-.1.15-.32-.07-.42-.07-.18,0-.34.3-.34.46,0,.15.22.22.22.35s.16.34.41.34.28.17.38.17c.11,0,.24-.37.25-.55Zm-84.09,15.2c.18-.19-.04-.34-.33-.19-.29.14-1.57.19-1.95.19s-.55-.05-.55-.35.12-.46.27-.68c.16-.22.98-1.08,1.17-1.38.19-.3-.18-.6-.44-.78-.27-.17-.44-.35-.98-.31-.55.04-.63-.04-.63-.21s.18-.49.39-.76c.21-.26.66-.61.84-.71.19-.11.4-.39.56-.5.15-.1.23.07.35.07s.32-.34.32-.42-.15-.2-.21-.3c-.07-.11-.16-.3-.34-.3s-1.14.51-1.69,1c-.55.5-1.14,1.44-1.14,1.82s.22.62.59.86c.38.22.79.35,1.09.36.32.02.08.24-.1.41-.19.17-.36.3-.45.49-.08.2-.51.45-.58.93-.06.5.16.25.17.68.02.44.73.9,1.15.9s1.18-.1,1.59-.21c.41-.1.7-.4.9-.6Zm5.43-3.48c0-.19-.24-.19-.36-.4-.12-.21-.34-.21-.42-.07-.08.14-.23.07-.24.16-.01.09-.17.31-.33.34-.15.01-.05.45-.22.49-.17.04-.19.5-.33.58-.13.09-.25.53-.36.66-.1.12-.29.62-.46.62s-.15-.3-.17-.51c-.01-.21-.21-.42-.3-.68-.11-.26,0-.45.04-.58.02-.14-.21-.21-.23-.34-.01-.12-.33-.27-.52-.27s-.28.49-.19.6c.08.1.05.6.13.7.08.11.23.58.28,1.02.05.44.25.5.36.86.1.37.49.62.67.62.17,0,.3-.15.3-.25,0-.11.16-.32.28-.39.11-.07.06-.3.15-.3s.05-.32.15-.32c.08,0,.22-.15.18-.27-.04-.12.33-.46.4-.56.06-.11.06-.37.25-.47.18-.11.08-.3.17-.3s.33-.42.47-.42c.16,0,.32-.3.32-.5Zm4.87,2.89c0-.11-.34-.05-.59-.05s-.05.24-.83.24-.98-.16-1.17-.35c-.18-.19-.04-.32.17-.35.19-.02.61-.52.75-.66.13-.14.22-.42.47-.56.25-.14.21-.42.28-.58.06-.16,0-.5-.16-.8-.17-.3-.3-.45-.83-.45-.23,0-1.08.29-1.42.52-.34.22-.66.98-.66,1.31s.16.96,0,1.08c-.17.11.22.56.73,1.07.5.52.75.61,1.58.61s1.12-.35,1.35-.51c.22-.17.32-.4.32-.52Zm-1.87-2.61c.08.14-.1.27-.25.49-.16.21-.47.47-.57.66-.1.19-.49.42-.46.06.02-.35.15-.53.39-.8.25-.25.35-.32.51-.32.13,0,.29-.24.39-.09Zm6.12-.16c0-.12-.29-.46-.44-.46-.16,0-.4,0-.55.12-.16.12-.44.1-.66.22-.22.12-.34.21-.5.34-.16.12-.24,0-.25-.12-.01-.12-.24-.21-.38-.21-.4,0-.33.47-.25.72.06.25.13.55.05.72-.08.17-.12.49-.01.52.1.04.1.77.17.98.06.21.25.53.59.53s.41-.46.36-.72c-.06-.26-.06-.75-.06-1.06s.18-.37.27-.57c.08-.21.39-.46.55-.6.15-.15.56-.24.73-.24.18,0,.38-.06.38-.19Zm4.7,6.8c0-.4-.01-.85-.08-.9-.06-.05-.02-.55-.02-.95s-.21-1.88-.21-2.15-.15-.88-.23-.95c-.08-.07-.1-.32-.1-.68s-.07-.66-.19-.66-.35-.24-.42-.24-.24.06-.28.17c-.02.1-.27.6-.61.96-.35.37-.49.47-.66.47s-.18-.26-.18-.49.11-.85.11-1.02-.11-.4-.21-.42c-.08-.01-.23-.15-.35-.15-.23,0-.16.17-.28.24-.12.07-.15.67-.15.92s.08.86.08,1.12.23.61.32.63c.08.01.38.27.56.27.17,0,.32-.3.44-.31.12-.01.4-.2.52-.37.11-.17.39-.47.52-.47.15,0,.08.8.21,1.03.12.25.24,1.69.24,2.25s-.05,1.04-.1,1.24c-.06.19-.07.52,0,.55.06.01.18.53.3.57.12.04.22.24.36.24.13,0,.22-.12.3-.24.08-.1.1-.27.1-.68Zm5.34-6.85c0-.19-.42-.35-.58-.26-.16.09-.5-.17-.83-.19-.33-.02-.41-.15-.55-.12-.13.01-.3-.02-.3-.2v-.86c0-.27-.11-.63-.16-.78-.05-.16-.24-.25-.49-.25-.25,0-.3.76-.3.97s.08.77.08,1.08-.59.14-.75.14-.24.24-.24.51.33.3.41.37c.08.07.34-.07.51-.07s.16.67.16,1.14-.04,1-.16,1.12-.29.26-.29.39.15.15.21.3c.07.16.33.3.5.3s.33-.17.42-.31c.11-.14.23-.52.23-.97s-.12-1.72-.12-1.9c0-.2.17-.15.24-.1.06.06.29.1.38,0,.08-.09.25-.11.51-.02.25.09.45.02.59.01.16-.01.52-.09.52-.29Zm5.95,3.11c0-.17-.24-.47-.36-.65-.12-.19-.45-.57-.49-.83-.02-.26-.19-.36-.3-.65-.1-.29-.55-.73-1.14-.73s-1.15.82-1.27,1c-.12.17-.24.5-.36.5-.11,0-.13-.75-.11-.97.01-.22-.36-2.31-.4-2.65-.04-.34.04-.8.04-.98,0-.2-.21-.61-.42-.61-.11,0-.45.14-.45.32,0,.2-.01.71.04,1.16.05.46.35,2.8.39,3.37.04.58.38,1.49.38,1.79s.36.37.53.37.21-.12.38-.17.19-.42.19-.67.22-.6.39-.93c.17-.32.42-.53.69-.53s.38.24.59.4c.22.16.21.62.34.76s.21.46.45.57c.24.12.35.3.5.3.13,0,.41.02.41-.15Zm2.2-5.55c0-.39-.38-.21-.39-.34-.02-.12-.32-.26-.55-.26-.16,0-.36.29-.36.46s.21.36.34.44c.15.07.36.34.52.34.15,0,.44-.25.44-.63Zm.02,4.95c.12-.09-.12-.52-.12-.76,0-.22-.08-.62-.17-.86-.08-.22-.08-.7-.08-.91s-.36-.39-.53-.39c-.16,0-.3.35-.3.44s.05.21.13.35c.08.15.04.63.08.96.05.31.16,1,.16,1.42s.25.57.42.57.27-.01.27-.15c0-.15.02-.58.15-.67Zm6.94.34c0-.14-.33-.22-.5-.72-.07-.2-.18-.77-.3-1.08-.12-.31-.52-.76-.74-.8-.22-.02-.67-.32-.79-.32s-.34.21-.55.21-.4.24-.55.32c-.16.09-.25.12-.58.62-.33.49-.29-.17-.29-.58s-.36-.55-.58-.55c-.45,0-.33.63-.21.92.12.27.13,1.41.13,1.59,0,.2.5.88.63.88.15,0,.15-.2.29-.26.16-.07.29-.16.24-.36-.05-.19.17-.73.4-1.12.22-.39.59-.52.9-.7.32-.17.45,0,.56.09.1.09.39.47.47.78.08.32.28.95.28,1.24s.41.49.58.49.59-.51.59-.66Zm5.62,1.32c0-1.02-.4-2-.61-2.5-.21-.49-.46-.78-.46-1.16s-.23-.36-.5-.56c-.28-.19-.61-.34-.96-.34-.4,0-.9.35-1.17.58-.28.22-.74.93-.74,1.58s.05.77.45,1.37c.39.6.92.68,1.29.68s.72-.3.76-.51c.05-.21.28-.26.34-.55.07-.27.08-.42.29-.42s.24.68.33.81c.08.12.13.44.13.95,0,.71-.16,1.37-.47,1.82-.33.44-.78.6-1.23.6s-.39.1-.93-.15c-.55-.24-.63-.31-.55-.57s.01-.2-.17-.44c-.19-.25-.56.14-.62.27-.07.14-.08.51.06.63.16.12-.02.26.52.7.55.45,1.23.49,1.58.49s1.01-.19,1.46-.29c.44-.11.4-.35.52-.46.12-.1.32-.6.32-.82s.35-.72.35-1.72Zm-1.94-2.8c0,.36-.17.57-.17.71s-.12.36-.23.46c-.1.09-.13.4-.5.4s-.38-.22-.46-.3c-.08-.07-.27-.17-.27-.47s.21-.92.35-1.14c.16-.22.66-.51.81-.51.32,0,.46.51.46.86Zm9.71,1.63c-.08-.07-.21-.16-.29-.05-.1.12-.35.19-.69.19s-.18-.14-.75-.21c-.57-.06-.52-.44-.52-.67s.21-.68.41-1.22c.21-.53.52-.66.66-.66.15,0,.33.16.49.16s.27-.16.27-.27c0-.12-.04-.37-.18-.47-.13-.09-.29-.27-.66-.27-.23,0-.44.14-.73.22-.3.1-.62.63-.8,1.08-.18.45-.35,1.08-.35,1.38s.25.9.44,1.17c.18.29.69.45.9.37.21-.06.29.24.63.24s.96-.32,1.17-.51c.21-.19.12-.4.02-.47Zm6.38.73c0-.19-.28-.37-.53-.56-.24-.19-.4-.56-.61-.87-.21-.3-.39-.68-.44-.87-.05-.19,0-.67,0-1.02s-.3-.55-.46-.63c-.16-.1-.52-.31-.73-.31-.1,0-.18-.04-.28.05-.08.1-.34-.11-.42.02-.1.14-.36.07-.46.14-.08.07-.68.56-.86.95-.18.37-.44,1-.44,1.33s.08.7.18.85c.08.14.05.46.18.51s.41.53.96.53,1.01-.49,1.07-.61c.07-.11.35-.3.36-.56.02-.26.19-.4.33-.4s.16.24.27.37c.12.15.41.36.44.56.02.21.25.4.41.5.16.1.46.45.64.45s.39-.24.39-.42Zm-2.48-3.47c.05.12-.11.4-.16.58-.04.19-.18.76-.36,1.11s-.57,1.06-.96,1.06-.41-.45-.41-.76.05-.93.23-.93.18-.47.34-.49c.17-.02.12-.21.23-.31.12-.09.16-.26.3-.26.13,0,.18.02.29.02.13,0,.46-.14.5-.02Zm8.19,2.59c0-.14-.33-.22-.5-.72-.07-.2-.18-.77-.3-1.08s-.52-.76-.74-.8c-.22-.02-.67-.32-.79-.32s-.34.21-.55.21-.4.24-.55.32c-.16.09-.25.12-.58.62-.33.49-.29-.17-.29-.58s-.36-.55-.58-.55c-.45,0-.33.63-.21.92.12.27.13,1.41.13,1.59,0,.2.5.88.63.88.15,0,.15-.2.29-.26.16-.07.29-.16.24-.36-.05-.19.17-.73.4-1.12.22-.39.59-.52.9-.7.32-.17.45,0,.56.09.1.09.39.47.47.78.08.32.28.95.28,1.24s.41.49.58.49.59-.51.59-.66Zm7.43.15c-.08-.07-.21-.16-.29-.05-.1.12-.35.19-.69.19s-.18-.14-.75-.21c-.57-.06-.52-.44-.52-.67s.21-.68.41-1.22c.21-.53.52-.66.66-.66.15,0,.33.16.49.16s.27-.16.27-.27c0-.12-.04-.37-.18-.47-.13-.09-.29-.27-.66-.27-.23,0-.44.14-.73.22-.3.1-.62.63-.8,1.08-.18.45-.35,1.08-.35,1.38s.25.9.44,1.17c.18.29.69.45.9.37.21-.06.29.24.63.24s.96-.32,1.17-.51c.21-.19.12-.4.02-.47Zm6.41.11c0-.17-.24-.47-.36-.65-.12-.19-.45-.57-.49-.83-.02-.26-.19-.36-.3-.65-.1-.29-.55-.73-1.14-.73s-1.15.82-1.27,1-.24.5-.36.5c-.11,0-.13-.75-.11-.97.01-.22-.36-2.31-.4-2.65-.04-.34.04-.8.04-.98,0-.2-.21-.61-.42-.61-.11,0-.45.14-.45.32,0,.2-.01.71.04,1.16.05.46.35,2.8.39,3.37.04.58.38,1.49.38,1.79s.36.37.53.37.21-.12.38-.17.19-.42.19-.67.22-.6.39-.93c.17-.32.42-.53.69-.53s.38.24.59.4c.22.16.21.62.34.76s.21.46.45.57c.24.12.35.3.5.3.13,0,.41.02.41-.15Zm6.06.62c0-.19-.28-.37-.53-.56-.24-.19-.4-.56-.61-.87-.21-.3-.39-.68-.44-.87-.05-.19,0-.67,0-1.02s-.3-.55-.46-.63c-.16-.1-.52-.31-.73-.31-.1,0-.18-.04-.28.05-.08.1-.34-.11-.42.02-.1.14-.36.07-.46.14-.08.07-.68.56-.86.95-.18.37-.44,1-.44,1.33s.08.7.18.85c.08.14.05.46.18.51s.41.53.96.53,1.01-.49,1.07-.61c.07-.11.35-.3.36-.56.02-.26.19-.4.33-.4s.16.24.27.37c.12.15.41.36.44.56.02.21.25.4.41.5.16.1.46.45.64.45s.39-.24.39-.42Zm-2.48-3.47c.05.12-.11.4-.16.58-.04.19-.18.76-.36,1.11-.18.35-.57,1.06-.96,1.06s-.41-.45-.41-.76.05-.93.23-.93.18-.47.34-.49c.17-.02.12-.21.23-.31.12-.09.16-.26.3-.26.13,0,.18.02.29.02.13,0,.46-.14.5-.02Zm8.19,2.59c0-.14-.33-.22-.5-.72-.07-.2-.18-.77-.3-1.08s-.52-.76-.74-.8c-.22-.02-.67-.32-.79-.32s-.34.21-.55.21-.4.24-.55.32c-.16.09-.25.12-.58.62-.33.49-.29-.17-.29-.58s-.36-.55-.58-.55c-.45,0-.33.63-.21.92.12.27.13,1.41.13,1.59,0,.2.5.88.63.88.15,0,.15-.2.29-.26.16-.07.29-.16.24-.36-.05-.19.17-.73.4-1.12.22-.39.59-.52.9-.7.32-.17.45,0,.56.09.1.09.39.47.47.78.08.32.28.95.28,1.24s.41.49.58.49.59-.51.59-.66Zm5.62,1.32c0-1.02-.4-2-.61-2.5-.21-.49-.46-.78-.46-1.16s-.23-.36-.5-.56c-.28-.19-.61-.34-.96-.34-.4,0-.9.35-1.17.58-.28.22-.74.93-.74,1.58s.05.77.45,1.37c.39.6.92.68,1.29.68s.72-.3.76-.51c.05-.21.28-.26.34-.55.07-.27.08-.42.29-.42s.24.68.33.81c.08.12.13.44.13.95,0,.71-.16,1.37-.47,1.82-.33.44-.78.6-1.23.6s-.39.1-.93-.15c-.55-.24-.63-.31-.55-.57s.01-.2-.17-.44c-.19-.25-.56.14-.62.27-.07.14-.08.51.06.63.16.12-.02.26.52.7.55.45,1.23.49,1.58.49s1.01-.19,1.46-.29c.44-.11.4-.35.52-.46.12-.1.32-.6.32-.82s.35-.72.35-1.72Zm-1.94-2.8c0,.36-.17.57-.17.71s-.12.36-.23.46c-.1.09-.13.4-.5.4s-.38-.22-.46-.3-.27-.17-.27-.47.21-.92.35-1.14c.16-.22.66-.51.81-.51.32,0,.46.51.46.86Zm7.39,1.46c0-.11-.34-.05-.59-.05s-.05.24-.83.24-.98-.16-1.17-.35-.04-.32.17-.35c.19-.02.61-.52.75-.66.13-.14.22-.42.47-.56.25-.14.21-.42.28-.58.06-.16,0-.5-.16-.8-.17-.3-.3-.45-.83-.45-.23,0-1.08.29-1.42.52-.34.22-.66.98-.66,1.31s.16.96,0,1.08c-.17.11.22.56.73,1.07.5.52.75.61,1.58.61s1.12-.35,1.35-.51c.22-.17.32-.4.32-.52Zm-1.87-2.61c.08.14-.1.27-.25.49-.16.21-.47.47-.57.66-.1.19-.49.42-.46.06.02-.35.15-.53.39-.8.25-.25.35-.32.51-.32.13,0,.29-.24.39-.09Zm-99.48,18.45c0-.19-.28-.37-.53-.56-.24-.19-.4-.56-.61-.87-.21-.3-.39-.68-.44-.87-.05-.19,0-.67,0-1.02s-.3-.55-.46-.63c-.16-.1-.52-.31-.73-.31-.1,0-.18-.04-.28.05-.08.1-.34-.11-.42.02-.1.14-.36.07-.46.14-.08.07-.68.56-.86.95-.18.37-.44,1-.44,1.33s.08.7.18.85c.08.14.05.46.18.51.13.05.41.53.96.53s1.01-.49,1.07-.61c.07-.11.35-.3.36-.56.02-.26.19-.4.33-.4s.16.24.27.37c.12.15.41.36.44.56.02.21.25.4.41.5.16.1.46.45.64.45s.39-.24.39-.42Zm-2.48-3.47c.05.12-.11.4-.16.58-.04.19-.18.76-.36,1.11-.18.35-.57,1.06-.96,1.06s-.41-.45-.41-.76.05-.93.23-.93.18-.47.34-.49c.17-.02.12-.21.23-.31.12-.09.16-.26.3-.26.13,0,.18.02.29.02.13,0,.46-.14.5-.02Zm4.71,2.81c0-.19-.24-.57-.24-1.01s-.22-1.28-.22-1.9-.22-2.23-.22-2.4.01-.41.08-.6c.06-.2-.29-.42-.55-.42-.15,0-.33.01-.33.25,0,.22.04,2.56.1,3.13.07.58.23,2.16.23,2.56s.17.57.22.67c.05.1.24.3.38.3s.21-.12.28-.21c.06-.09.27-.17.27-.37Zm3.21,0c0-.19-.24-.57-.24-1.01s-.22-1.28-.22-1.9-.22-2.23-.22-2.4.01-.41.08-.6c.06-.2-.29-.42-.55-.42-.15,0-.33.01-.33.25,0,.22.04,2.56.1,3.13.07.58.23,2.16.23,2.56s.17.57.22.67c.05.1.24.3.38.3s.21-.12.28-.21c.06-.09.27-.17.27-.37Zm7.9-1.88c0-.6-.5-1.19-.69-1.26-.18-.07-.84-.62-1-.62-.13,0-.47.32-.47.58s.21.5.34.5.41.11.58.2c.17.1.45.55.45.71s-.02.27-.23.63c-.21.35-.39.56-.75.56s-.5-.29-.5-.41c0-.11-.27-.36-.27-.68s.29-.77.29-.92c0-.16-.33-.25-.49-.25s-.29.16-.36.42c-.06.26-.3.57-.3.82s.13.73.29.82c.16.09.17.76.33.77.16.02.83.42,1.17.42s.83-.47,1.08-.78c.25-.32.53-.92.53-1.52Zm4.9-3.94c-.21-.19-.44-.24-.57-.39-.13-.14-.59-.22-1.03-.22-.21,0-.55.09-.7.09s-.57.42-.7.58c-.15.16-.28.9-.28,1.22s.05.68.13,1.08c.1.4-.01.49-.24.49s-.21.47,0,.68c.21.21.27.25.39.25.11,0,.23.45.23.73s.24.46.24.65-.02.68.12.95c.13.25.36.56.61.56.25,0,.15-.12.25-.26.12-.14.02-.46-.02-.91s-.27-.52-.24-.75c.01-.24-.33-.52-.33-.78s.21-.22.49-.22.21-.19.59-.19.41.04.57.16c.16.11.36-.29.41-.4.04-.12.18-.37-.02-.47-.21-.09-1.12,0-1.78,0s-.52-.56-.52-.88,0-.55.09-.98c.1-.45.18-.34.39-.61.21-.29.55-.21.69-.15.13.07.52.05.75.24.23.19.32.07.47,0,.16-.06.23-.27.02-.46Zm8.99,6.48c0-.19-.28-.37-.53-.56-.24-.19-.4-.56-.61-.87-.21-.3-.39-.68-.44-.87-.05-.19,0-.67,0-1.02s-.3-.55-.46-.63c-.16-.1-.52-.31-.73-.31-.1,0-.18-.04-.28.05-.08.1-.34-.11-.42.02-.1.14-.36.07-.46.14-.08.07-.68.56-.86.95-.18.37-.44,1-.44,1.33s.08.7.18.85c.08.14.05.46.18.51.13.05.41.53.96.53s1.01-.49,1.07-.61c.07-.11.35-.3.36-.56.02-.26.19-.4.33-.4s.16.24.27.37c.12.15.41.36.44.56.02.21.25.4.41.5.16.1.46.45.64.45s.39-.24.39-.42Zm-2.48-3.47c.05.12-.11.4-.16.58-.04.19-.18.76-.36,1.11-.18.35-.57,1.06-.96,1.06s-.41-.45-.41-.76.05-.93.23-.93.18-.47.34-.49c.17-.02.12-.21.23-.31.12-.09.16-.26.3-.26.13,0,.18.02.29.02.13,0,.46-.14.5-.02Zm8.87-.14c0-.17-.25-.36-.47-.42-.22-.05-.5-.17-.78-.17-.32,0-.55.37-.63.5-.08.12-.29.42-.29.78s.32,1.28.55,1.55c.24.26.21.39-.17.51-.38.11-.44,0-.44-.1,0-.09-.12-.3-.35-.15-.22.14-.21.21-.44.14-.24-.07-.62.21-.62.44,0,.24.39.47.56.55.18.07.41.05.62-.05.21-.11.36.04.57.04s.62-.07.83-.2c.19-.12.51-.22.51-.63s-.25-.92-.38-1.08c-.12-.16-.33-.6-.33-.73,0-.15-.04-.39.12-.39s.18-.2.33-.2c.13,0,.1.21.3.21s.51-.41.51-.58Zm5.74,3.06c0-.06-.04-.11-.11-.16-.08-.06-.17-.11-.24-.2-.21-.24-.58-.68-.63-1-.04-.15-.13-.34-.23-.52-.05-.1-.11-.2-.15-.29-.05-.1-.08-.19-.11-.26-.06-.26-.39-.45-.53-.45-.08,0-.17.12-.27.25-.11.15-.21.31-.27.4-.02.02-.05.09-.08.15l-.08.2c-.07.15-.16.27-.23.27-.02,0-.05,0-.07.02l-.12.07c-.07.05-.18.11-.32.11-.27,0-.38-.87-.3-1.13l.13-.34c.04-.1.06-.17.06-.24,0-.11-.28-.32-.46-.32-.1,0-.21.15-.22.31-.01.1-.08.19-.13.26-.06.09-.13.2-.18.35-.08.3-.18.86-.1.92.06.02.11.21.15.41.02.1.05.2.06.3l.06.22c.1.24.59.57.74.57.17,0,.69-.3.72-.44.01-.11.11-.2.19-.26.05-.02.1-.06.13-.1.11-.07.15-.12.22-.24.07-.1.22-.35.35-.35.08,0,.16.12.23.3.05.15.1.32.16.45.11.25.42.57.66.68.25.11.61.25.74.25s.24-.09.24-.22Zm5.45-.29c.1-.11.07-.49-.04-.61-.12-.11-.21-.41-.21-.78s-.12-.6-.23-.78c-.12-.19-.02-.51-.12-.77-.08-.25-.18-1.01-.18-1.28s-.02-.75.05-.9c.07-.14.1-.19-.08-.32-.18-.14-.18-.26-.23-.47-.05-.21-.28.05-.41.05s-.34.07-.34.21.13.24.13.51.11,1.32.23,1.99c.11.68-.12.37-.28.21-.16-.16-.86-.32-1.35-.32-.62,0-.96.37-1.27.66-.32.27-.52.98-.52,1.31s.13.63.22.93c.1.31.74.9,1.01,1.06.28.16.44.05.8.05s1.03-.37,1.21-.56c.18-.2.44-.42.47-.66.05-.24.23-.1.23.14s.11.21.11.45.12.42.25.42.18-.07.36-.12c.18-.04.1-.27.18-.4Zm-1.38-1.59c0,.21-.25.34-.33.45-.06.12-.06.42-.45.58-.39.16-.33.45-.9.45s-.91-.53-.91-.91.21-.73.44-.97c.23-.22.24-.4.73-.4.39,0,.68.1.96.29.28.19.46.31.46.51Zm7.65,1.59c.1-.11.07-.49-.04-.61-.12-.11-.21-.41-.21-.78s-.12-.6-.23-.78c-.12-.19-.02-.51-.12-.77-.08-.25-.18-1.01-.18-1.28s-.02-.75.05-.9c.07-.14.1-.19-.08-.32-.18-.14-.18-.26-.23-.47-.05-.21-.28.05-.41.05s-.34.07-.34.21.13.24.13.51.11,1.32.23,1.99c.11.68-.12.37-.28.21-.16-.16-.86-.32-1.35-.32-.62,0-.96.37-1.27.66-.32.27-.52.98-.52,1.31s.13.63.22.93c.1.31.74.9,1.01,1.06.28.16.44.05.8.05s1.03-.37,1.21-.56c.18-.2.44-.42.47-.66.05-.24.23-.1.23.14s.11.21.11.45.12.42.25.42.18-.07.36-.12c.18-.04.1-.27.18-.4Zm-1.38-1.59c0,.21-.25.34-.33.45-.06.12-.06.42-.45.58-.39.16-.33.45-.9.45s-.91-.53-.91-.91.21-.73.44-.97c.23-.22.24-.4.73-.4.39,0,.68.1.96.29.28.19.46.31.46.51Zm6.74,1.52c0-.11-.34-.05-.59-.05s-.05.24-.83.24-.98-.16-1.17-.35-.04-.32.17-.35c.19-.02.61-.52.75-.66.13-.14.22-.42.47-.56.25-.14.21-.42.28-.58.06-.16,0-.5-.16-.8-.17-.3-.3-.45-.83-.45-.23,0-1.08.29-1.42.52-.34.22-.66.98-.66,1.31s.16.96,0,1.08c-.17.11.22.56.73,1.07.5.52.75.61,1.58.61s1.12-.35,1.35-.51c.22-.17.32-.4.32-.52Zm-1.87-2.61c.08.14-.1.27-.25.49-.16.21-.47.47-.57.66-.1.19-.49.42-.46.06.02-.35.15-.53.39-.8.25-.25.35-.32.51-.32.13,0,.29-.24.39-.09Zm8.03,2.64c0-.14-.33-.22-.5-.72-.07-.2-.18-.77-.3-1.08s-.52-.76-.74-.8c-.22-.02-.67-.32-.79-.32s-.34.21-.55.21-.4.24-.55.32c-.16.09-.25.12-.58.62-.33.49-.29-.17-.29-.58s-.36-.55-.58-.55c-.45,0-.33.63-.21.92.12.27.13,1.41.13,1.59,0,.2.5.88.63.88.15,0,.15-.2.29-.26.16-.07.29-.16.24-.36-.05-.19.17-.73.4-1.12.22-.39.59-.52.9-.7.32-.17.45,0,.56.09.1.09.39.47.47.78.08.32.28.95.28,1.24s.41.49.58.49.59-.51.59-.66Zm3.26,1.02c.07-.22.01-.53,0-.7-.01-.16-.27-.6-.38-.68-.12-.09-.24-.32-.44-.32-.1,0-.41.05-.42.11-.01.07-.23.14-.39.14-.17,0-.27.26-.27.46s.11.32.23.47c.13.15.34.07.64-.01.32-.09.21.16.21.36s-.21.45-.21.56-.22.26-.22.39c0,.14-.16.31-.34.49-.18.16-.3.37-.3.5,0,.14.02.32.13.32.12,0,.16.15.28.15.13,0,.12-.06.24-.15.13-.09.18-.22.27-.27.08-.06.23-.3.29-.49.07-.19.33-.41.35-.52.04-.12.24-.58.32-.8Zm10.2-.14c0-.19-.28-.37-.53-.56-.24-.19-.4-.56-.61-.87-.21-.3-.39-.68-.44-.87-.05-.19,0-.67,0-1.02s-.3-.55-.46-.63c-.16-.1-.52-.31-.73-.31-.1,0-.18-.04-.28.05-.08.1-.34-.11-.42.02-.1.14-.36.07-.46.14-.08.07-.68.56-.86.95-.18.37-.44,1-.44,1.33s.08.7.18.85c.08.14.05.46.18.51.13.05.41.53.96.53s1.01-.49,1.07-.61c.07-.11.35-.3.36-.56.02-.26.19-.4.33-.4s.16.24.27.37c.12.15.41.36.44.56.02.21.25.4.41.5.16.1.46.45.64.45s.39-.24.39-.42Zm-2.48-3.47c.05.12-.11.4-.16.58-.04.19-.18.76-.36,1.11-.18.35-.57,1.06-.96,1.06s-.41-.45-.41-.76.05-.93.23-.93.18-.47.34-.49c.17-.02.12-.21.23-.31.12-.09.16-.26.3-.26.13,0,.18.02.29.02.13,0,.46-.14.5-.02Zm8.19,2.59c0-.14-.33-.22-.5-.72-.07-.2-.18-.77-.3-1.08s-.52-.76-.74-.8c-.22-.02-.67-.32-.79-.32s-.34.21-.55.21-.4.24-.55.32c-.16.09-.25.12-.58.62-.33.49-.29-.17-.29-.58s-.36-.55-.58-.55c-.45,0-.33.63-.21.92.12.27.13,1.41.13,1.59,0,.2.5.88.63.88.15,0,.15-.2.29-.26.16-.07.29-.16.24-.36-.05-.19.17-.73.4-1.12.22-.39.59-.52.9-.7.32-.17.45,0,.56.09.1.09.39.47.47.78.08.32.28.95.28,1.24s.41.49.58.49.59-.51.59-.66Zm6.02.05c.1-.11.07-.49-.04-.61-.12-.11-.21-.41-.21-.78s-.12-.6-.23-.78c-.12-.19-.02-.51-.12-.77-.08-.25-.18-1.01-.18-1.28s-.02-.75.05-.9c.07-.14.1-.19-.08-.32-.18-.14-.18-.26-.23-.47-.05-.21-.28.05-.41.05s-.34.07-.34.21.13.24.13.51.11,1.32.23,1.99c.11.68-.12.37-.28.21s-.86-.32-1.35-.32c-.62,0-.96.37-1.27.66-.32.27-.52.98-.52,1.31s.13.63.22.93c.1.31.74.9,1.01,1.06.28.16.44.05.8.05s1.03-.37,1.21-.56c.18-.2.44-.42.47-.66.05-.24.23-.1.23.14s.11.21.11.45.12.42.25.42.18-.07.36-.12c.18-.04.1-.27.18-.4Zm-1.38-1.59c0,.21-.25.34-.33.45-.06.12-.06.42-.45.58-.39.16-.33.45-.9.45s-.91-.53-.91-.91.21-.73.44-.97c.23-.22.24-.4.73-.4.39,0,.68.1.96.29s.46.31.46.51Zm9.38-4.06c-.21-.19-.44-.24-.57-.39-.13-.14-.59-.22-1.03-.22-.21,0-.55.09-.7.09s-.57.42-.7.58c-.15.16-.28.9-.28,1.22s.05.68.13,1.08c.1.4-.01.49-.24.49s-.21.47,0,.68c.21.21.27.25.39.25.11,0,.23.45.23.73s.24.46.24.65-.02.68.12.95c.13.25.36.56.61.56.25,0,.15-.12.25-.26.12-.14.02-.46-.02-.91s-.27-.52-.24-.75c.01-.24-.33-.52-.33-.78s.21-.22.49-.22.21-.19.59-.19.41.04.57.16c.16.11.36-.29.41-.4.04-.12.18-.37-.02-.47-.21-.09-1.12,0-1.78,0s-.52-.56-.52-.88,0-.55.08-.98c.1-.45.18-.34.39-.61.21-.29.55-.21.69-.15.13.07.52.05.75.24.23.19.32.07.47,0,.16-.06.23-.27.02-.46Zm4.04,3.94c0-.6-.5-1.19-.69-1.26-.18-.07-.84-.62-1-.62-.13,0-.47.32-.47.58s.21.5.34.5.41.11.58.2c.17.1.45.55.45.71s-.02.27-.23.63c-.21.35-.39.56-.75.56s-.5-.29-.5-.41c0-.11-.27-.36-.27-.68s.29-.77.29-.92c0-.16-.33-.25-.49-.25s-.29.16-.36.42c-.06.26-.3.57-.3.82s.13.73.29.82c.16.09.17.76.33.77.16.02.83.42,1.17.42s.83-.47,1.08-.78c.25-.32.53-.92.53-1.52Zm4.73-1.14c0-.12-.29-.46-.44-.46-.16,0-.4,0-.55.12-.16.12-.44.1-.66.22-.22.12-.34.21-.5.34-.16.12-.24,0-.25-.12-.01-.12-.24-.21-.38-.21-.4,0-.33.47-.25.72.06.25.13.55.05.72-.08.17-.12.49-.01.52.1.04.1.77.17.98.06.21.25.53.59.53s.41-.46.36-.72c-.06-.26-.06-.75-.06-1.06s.18-.37.27-.57c.08-.21.39-.46.55-.6.15-.15.56-.24.73-.24.18,0,.38-.06.38-.19Zm-104.56,17.73c0-.14-.33-.22-.5-.72-.07-.2-.18-.77-.3-1.08-.12-.31-.52-.76-.74-.8-.22-.02-.67-.32-.79-.32s-.34.21-.55.21-.4.24-.55.32c-.16.09-.25.12-.58.62-.33.49-.29-.17-.29-.58s-.36-.55-.58-.55c-.45,0-.33.63-.21.92.12.27.13,1.41.13,1.59,0,.2.5.88.63.88.15,0,.15-.2.29-.26.16-.07.29-.16.24-.36-.05-.19.17-.73.4-1.12.22-.39.59-.52.9-.7.32-.17.45,0,.56.09.1.09.39.47.47.78.08.32.28.95.28,1.24s.41.49.58.49.59-.51.59-.66Zm4.54-1.65c0-.6-.5-1.19-.69-1.26-.18-.07-.84-.62-1-.62-.13,0-.47.32-.47.58s.21.5.34.5.41.11.58.2c.17.1.45.55.45.71s-.02.27-.23.63c-.21.35-.39.56-.75.56s-.5-.29-.5-.41c0-.11-.27-.36-.27-.68s.29-.77.29-.92c0-.16-.33-.25-.49-.25s-.29.16-.36.42c-.06.26-.3.57-.3.82s.13.73.29.82.17.76.33.77c.16.02.83.42,1.17.42s.83-.47,1.08-.78c.25-.32.53-.92.53-1.52Zm7.8-1.14c0-.12-.29-.46-.44-.46-.16,0-.4,0-.55.12-.16.12-.44.1-.66.22-.22.12-.34.21-.5.34-.16.12-.24,0-.25-.12-.01-.12-.24-.21-.38-.21-.4,0-.33.47-.25.72.06.25.13.55.05.72-.08.17-.12.49-.01.52.1.04.1.77.17.98.06.21.25.53.59.53s.41-.46.36-.72c-.06-.26-.06-.75-.06-1.06s.18-.37.27-.57c.08-.21.39-.46.55-.6.15-.15.56-.24.73-.24.18,0,.38-.06.38-.19Zm4.64,2.77c0-.11-.34-.05-.59-.05s-.05.24-.83.24-.98-.16-1.17-.35c-.18-.19-.04-.32.17-.35.19-.02.61-.52.75-.66.13-.14.22-.42.47-.56.25-.14.21-.42.28-.58.06-.16,0-.5-.16-.8-.17-.3-.3-.45-.83-.45-.23,0-1.08.29-1.42.52-.34.22-.66.98-.66,1.31s.16.96,0,1.08c-.17.11.22.56.73,1.07.5.52.75.61,1.58.61s1.12-.35,1.35-.51c.22-.17.32-.4.32-.52Zm-1.87-2.61c.08.14-.1.27-.25.49-.16.21-.47.47-.57.66-.1.19-.49.42-.46.06.02-.35.15-.53.39-.8.25-.25.35-.32.51-.32.13,0,.29-.24.39-.09Zm8.04,3.52c0-.19-.28-.37-.53-.56-.24-.19-.4-.56-.61-.87-.21-.3-.39-.68-.44-.87-.05-.19,0-.67,0-1.02s-.3-.55-.46-.63c-.16-.1-.52-.31-.73-.31-.1,0-.18-.04-.28.05-.08.1-.34-.11-.42.02-.1.14-.36.07-.46.14-.08.07-.68.56-.86.95-.18.37-.44,1-.44,1.33s.08.7.18.85c.08.14.05.46.18.51.13.05.41.53.96.53s1.01-.49,1.07-.61c.07-.11.35-.3.36-.56.02-.26.19-.4.33-.4s.16.24.27.37c.12.15.41.36.44.56.02.21.25.4.41.5.16.1.46.45.64.45s.39-.24.39-.42Zm-2.48-3.47c.05.12-.11.4-.16.58-.04.19-.18.76-.36,1.11-.18.35-.57,1.06-.96,1.06s-.41-.45-.41-.76.05-.93.23-.93.18-.47.34-.49c.17-.02.12-.21.23-.31.12-.09.16-.26.3-.26.13,0,.18.02.29.02.13,0,.46-.14.5-.02Zm5.8-.14c0-.17-.25-.36-.47-.42-.22-.05-.5-.17-.78-.17-.32,0-.55.37-.63.5-.08.12-.29.42-.29.78s.32,1.28.55,1.55c.24.26.21.39-.17.51-.38.11-.44,0-.44-.1,0-.09-.12-.3-.35-.15-.22.14-.21.21-.44.14-.24-.07-.62.21-.62.44,0,.24.39.47.56.55.18.07.41.05.62-.05.21-.11.36.04.57.04s.62-.07.83-.2c.19-.12.51-.22.51-.63s-.25-.92-.38-1.08-.33-.6-.33-.73c0-.15-.04-.39.12-.39s.18-.2.33-.2c.13,0,.1.21.3.21s.51-.41.51-.58Zm4.55,1.07c0-.6-.5-1.19-.69-1.26-.18-.07-.84-.62-1-.62-.13,0-.47.32-.47.58s.21.5.34.5.41.11.58.2c.17.1.45.55.45.71s-.02.27-.23.63c-.21.35-.39.56-.75.56s-.5-.29-.5-.41c0-.11-.27-.36-.27-.68s.29-.77.29-.92c0-.16-.33-.25-.49-.25s-.29.16-.36.42c-.06.26-.3.57-.3.82s.13.73.29.82c.16.09.17.76.33.77.16.02.83.42,1.17.42s.83-.47,1.08-.78c.25-.32.53-.92.53-1.52Zm6.63,1.65c0-.14-.33-.22-.5-.72-.07-.2-.18-.77-.3-1.08-.12-.31-.52-.76-.74-.8-.22-.02-.67-.32-.79-.32s-.34.21-.55.21-.4.24-.55.32c-.16.09-.25.12-.58.62-.33.49-.29-.17-.29-.58s-.36-.55-.58-.55c-.45,0-.33.63-.21.92.12.27.13,1.41.13,1.59,0,.2.5.88.63.88.15,0,.15-.2.29-.26.16-.07.29-.16.24-.36-.05-.19.17-.73.4-1.12.22-.39.59-.52.9-.7.32-.17.45,0,.56.09.1.09.39.47.47.78.08.32.28.95.28,1.24s.41.49.58.49.59-.51.59-.66Zm9.49.88c0-.19-.28-.37-.53-.56-.24-.19-.4-.56-.61-.87-.21-.3-.39-.68-.44-.87-.05-.19,0-.67,0-1.02s-.3-.55-.46-.63c-.16-.1-.52-.31-.73-.31-.1,0-.18-.04-.28.05-.08.1-.34-.11-.42.02-.1.14-.36.07-.46.14-.08.07-.68.56-.86.95-.18.37-.44,1-.44,1.33s.08.7.18.85c.08.14.05.46.18.51s.41.53.96.53,1.01-.49,1.07-.61c.07-.11.35-.3.36-.56.02-.26.19-.4.33-.4s.16.24.27.37c.12.15.41.36.44.56.02.21.25.4.41.5.16.1.46.45.64.45s.39-.24.39-.42Zm-2.48-3.47c.05.12-.11.4-.16.58-.04.19-.18.76-.36,1.11s-.57,1.06-.96,1.06-.41-.45-.41-.76.05-.93.23-.93.18-.47.34-.49c.17-.02.12-.21.23-.31.12-.09.16-.26.3-.26.13,0,.18.02.29.02.13,0,.46-.14.5-.02Zm6.88-.26c0-.19-.42-.35-.58-.26-.16.09-.5-.17-.83-.19-.33-.02-.41-.15-.55-.12-.13.01-.3-.02-.3-.2v-.86c0-.27-.11-.63-.16-.78-.05-.16-.24-.25-.49-.25-.25,0-.3.76-.3.97s.08.77.08,1.08-.59.14-.75.14-.24.24-.24.51.33.3.41.37c.08.07.34-.07.51-.07s.16.67.16,1.14-.04,1-.16,1.12c-.12.12-.29.26-.29.39s.15.15.21.3c.07.16.33.3.5.3s.33-.17.42-.31c.11-.14.23-.52.23-.97s-.12-1.72-.12-1.9c0-.2.17-.15.24-.1.06.06.29.1.38,0,.08-.09.25-.11.51-.02.25.09.45.02.59.01.16-.01.52-.09.52-.29Zm8.98,3.73c0-.19-.28-.37-.53-.56-.24-.19-.4-.56-.61-.87-.21-.3-.39-.68-.44-.87-.05-.19,0-.67,0-1.02s-.3-.55-.46-.63c-.16-.1-.52-.31-.73-.31-.1,0-.18-.04-.28.05-.08.1-.34-.11-.42.02-.1.14-.36.07-.46.14-.08.07-.68.56-.86.95-.18.37-.44,1-.44,1.33s.08.7.18.85c.08.14.05.46.18.51s.41.53.96.53,1.01-.49,1.07-.61c.07-.11.35-.3.36-.56.02-.26.19-.4.33-.4s.16.24.27.37c.12.15.41.36.44.56.02.21.25.4.41.5.16.1.46.45.64.45s.39-.24.39-.42Zm-2.48-3.47c.05.12-.11.4-.16.58-.04.19-.18.76-.36,1.11s-.57,1.06-.96,1.06-.41-.45-.41-.76.05-.93.23-.93.18-.47.34-.49c.17-.02.12-.21.23-.31.12-.09.16-.26.3-.26.13,0,.18.02.29.02.13,0,.46-.14.5-.02Zm4.71,2.81c0-.19-.24-.57-.24-1.01s-.22-1.28-.22-1.9-.22-2.23-.22-2.4.01-.41.08-.6c.06-.2-.29-.42-.55-.42-.15,0-.33.01-.33.25,0,.22.04,2.56.1,3.13.07.58.23,2.16.23,2.56s.17.57.22.67c.05.1.24.3.38.3s.21-.12.28-.21c.06-.09.27-.17.27-.37Zm3.21,0c0-.19-.24-.57-.24-1.01s-.22-1.28-.22-1.9-.22-2.23-.22-2.4.01-.41.08-.6c.06-.2-.29-.42-.55-.42-.15,0-.33.01-.33.25,0,.22.04,2.56.1,3.13.07.58.23,2.16.23,2.56s.17.57.22.67c.05.1.24.3.38.3s.21-.12.28-.21c.06-.09.27-.17.27-.37Zm3.33-3.02c.05-.26-.07-.85-.07-1.03s-.1-.85-.17-1.23c-.06-.39-.05-.78,0-.97.05-.19-.05-.35-.15-.42-.11-.07-.36-.17-.61-.17-.39,0-.3.47-.33.92-.01.45.02,1.01.08,1.01.07,0,.19,1.6.21,1.83.02.22-.06,1.04-.12,1.18-.05.14.1.37.36.32.28-.05.33.14.49.14.15,0,.08-.2.27-.2.11,0-.08-.32-.21-.36-.12-.04-.08-.19.07-.25.16-.06.12-.5.17-.76Zm.59,3.1c.02-.17-.06-.44-.15-.56-.08-.12-.24-.3-.35-.14-.1.15-.32-.07-.42-.07-.18,0-.34.3-.34.46,0,.15.22.22.22.35s.16.34.41.34.28.17.38.17c.11,0,.24-.37.25-.55Zm5.53-4.83c0-.26-.22-.77-.49-1.06-.25-.27-.8-.4-.93-.4-.12,0-.42.29-.42.46s.15.42.59.49c.45.07.34.44.34.71s-.25.78-.38.98c-.12.19.08.19.25.45s.29.2.29.09c0-.1.29-.21.32-.35.01-.14.23-.4.34-.55.1-.14.08-.56.08-.82Zm-2.35.55c0-.6-.33-1.06-.46-1.24-.13-.2-.56-.42-.79-.42-.12,0-.22.04-.46.15-.24.12-.16.45-.04.45s.28.42.49.44c.21.01.38.1.38.47s-.17.6-.17.85.33.72.5.7c.17-.01.34-.12.38-.31.04-.2.18-.47.18-1.07Zm-71.93,18.98c.27,0,.49-.27.49-.55,0-.25-.12-.56-.22-.78-.08-.16.07-.57-.06-.85-.08-.19-.17-.47-.18-1-.02-.58-.25-1.44-.41-1.87-.17-.46-.56-.7-.89-.7-.16,0-.34.14-.52.36-.38.52-1.04,1.67-1.18,2.24-.07.29-.18.75-.3.75-.11,0-.06-.26-.11-.56-.1-.53-.46-2.15-1.19-2.15-.27,0-.38.22-.4.44-.01.1-.38.75-.44.86-.22.45-.56.87-.58,1.39,0,.19-.1.35-.18.5-.11.21-.24.46-.3.86-.1.57-.42,1.42-.42,1.95,0,.39.45.85.68.85.18,0,.5-.12.5-.52,0-.24.12-.55.18-.77.12-.52.28-.86.36-1.33.02-.17.08-.31.16-.46.19-.37.07-.58.18-.92.05-.17.22-.88.39-.88.04,0-.02.12.01.27.17.76.23,2.44,1.29,2.44.64,0,.81-.71.9-1.22.05-.29.28-.49.29-.77.01-.19.32-.75.39-.98.07-.25.21-.58.34-.58.15,0,.11.68.12,1.01.02.42.1.83.27,1.21.16.36.17.77.21,1.16.05.51.22.62.64.62Zm4.76-.1c.28-.34.58-.98.58-1.63s-.55-1.33-.81-1.43c-.27-.1-.79-.63-1.06-.63-.24,0-.66.41-.66.77,0,.1.01.21.06.3-.15-.09-.33-.15-.45-.15-.29,0-.46.27-.53.56-.07.3-.32.55-.32.87,0,.72.18.42.4,1.04.02.06.04.15.06.24.08.39.18.44.46.56.3.14.74.36,1.04.36.38,0,.93-.5,1.21-.86Zm-1.42-2.24c.12,0,.35.11.5.19.12.06.35.45.35.53,0,.11-.01.2-.21.53-.19.34-.34.47-.59.47s-.32-.19-.32-.22c0-.21-.27-.41-.27-.68s.28-.67.29-.91c.07.05.16.09.24.09Zm6.19,2.24c.28-.34.58-.98.58-1.63s-.55-1.33-.81-1.43c-.27-.1-.79-.63-1.06-.63-.24,0-.66.41-.66.77,0,.1.01.21.06.3-.15-.09-.33-.15-.45-.15-.29,0-.46.27-.53.56-.07.3-.32.55-.32.87,0,.72.18.42.4,1.04.02.06.04.15.06.24.08.39.18.44.46.56.3.14.74.36,1.04.36.38,0,.93-.5,1.21-.86Zm-1.42-2.24c.12,0,.35.11.5.19.12.06.35.45.35.53,0,.11-.01.2-.21.53-.19.34-.34.47-.59.47s-.32-.19-.32-.22c0-.21-.27-.41-.27-.68s.28-.67.29-.91c.07.05.16.09.24.09Zm6.23.82c-.01-.57-.46-1.43-1.12-1.43-.27,0-.42.04-.72.51l-.05.06c0-.77-.25-.98-.66-.98-.27,0-.5.31-.56.52-.05.19-.05.73.15.9.02.01,0,1.46,0,1.63,0,.6.39.76.67.76s.74-.37.74-.76c0-.21.16-.62.35-.86.07-.09.13-.2.15-.31.02.07,0,.24.02.4.02.21.07.67.17.85.16.29.51.8.93.8.5,0,.75-.91.9-1.29.16-.4.45-.71.61-1.12.08-.24.17-.16.28-.05.18.15.19.5.47.5.02,0-.07.04-.07.09l.04.2c.08.31.35.06.35.68,0,.36.3.68.57.68.34,0,.58-.58.58-.98,0-.47-.33-.4-.38-.98-.05-.45-.36-.63-.53-1.01-.22-.47-.86-.83-1.19-.83-.29,0-.79.56-1.01.85-.27.36-.49.8-.7,1.19Zm5.95-4.3c-.12-.22-.5-.32-.69-.32-.29,0-.55.41-.55.65,0,.29.29.52.45.61.19.1.33.35.59.35s.62-.36.62-.82c0-.31-.17-.44-.42-.46Zm.3,6.08c0-.11-.02-.45.06-.52.25-.17-.04-.67-.04-.91,0-.25-.1-.68-.18-.92-.08-.21-.07-.65-.07-.85,0-.39-.53-.57-.72-.57-.33,0-.49.52-.49.62,0,.15.07.31.16.45.05.07.04.75.06.88.05.31.16.98.16,1.39,0,.51.33.76.61.76.3,0,.45-.09.45-.34Zm2.79-2.28v-.41c0-.56-.51-.73-.76-.73-.59,0-.53.81-.38,1.18.12.26.12,1.33.12,1.52,0,.25.53,1.07.81,1.07.15,0,.22-.07.29-.19l.04-.05c.16-.25.51-.16.39-.61-.05-.17.17-.65.38-.98.08-.16.21-.27.35-.37.1-.06.57-.35.68-.31.22.09.52.66.57.81.07.31.27.91.27,1.19,0,.47.57.67.76.67.28,0,.78-.61.78-.85,0-.16-.13-.26-.24-.36-.38-.36-.39-1.01-.57-1.51-.13-.35-.56-.86-.89-.91-.23-.04-.61-.34-.81-.34-.19,0-.39.21-.55.21-.3,0-.41.22-.63.35-.29.16-.41.32-.61.61Zm7.15-.42c.44.21.45-.19.89-.04.16.05.29.06.41.06.27-.01.95-.15.95-.51,0-.4-.64-.55-.85-.42-.05.02-.11-.04-.19-.06-.18-.07-.35-.14-.53-.15-.19-.01-.4-.15-.58-.12-.04,0-.1.04-.1-.01v-.86c0-.31-.12-.68-.17-.85-.08-.27-.39-.37-.66-.37-.32,0-.49.9-.49,1.16,0,.21.08.77.08,1.08,0,.06-.07,0-.13,0-.17,0-.36-.05-.44-.05-.23,0-.42.3-.42.7,0,.3.21.41.44.5.44.17.39-.01.67-.01.05,0-.05.1-.04.22.01.22.01.5.01.73,0,.41,0,.88-.1,1-.13.14-.35.3-.35.51,0,.12.06.2.15.27l.02.04s.01.01.02.02c.22.24.33.45.69.45.23,0,.44-.2.57-.39.15-.19.27-.62.27-1.08,0-.39-.1-1.46-.12-1.82Zm3.83-.39c-.05-.26-.42-.35-.55-.35-.55,0-.52.62-.44.96.06.2.13.45.07.58-.13.26-.07.73.08.78.02.01-.04.14-.02.27l.02.32c.05.44.3.93.83.93.46,0,.61-.6.53-.95-.06-.32-.05-.68-.05-1.02,0-.16.06-.21.15-.34.12-.17.15-.26.3-.44.28-.26.51-.45.91-.45.28,0,.56-.19.56-.37,0-.22-.36-.65-.62-.65-.5,0-.51.16-.89.24-.36.09-.59.22-.9.46Zm5.89,2.72c.28-.34.58-.98.58-1.63s-.55-1.33-.81-1.43-.79-.63-1.06-.63c-.24,0-.66.41-.66.77,0,.1.01.21.06.3-.15-.09-.33-.15-.45-.15-.29,0-.46.27-.53.56-.07.3-.32.55-.32.87,0,.72.18.42.4,1.04.02.06.04.15.06.24.08.39.18.44.46.56.3.14.74.36,1.04.36.38,0,.93-.5,1.21-.86Zm-1.42-2.24c.12,0,.35.11.5.19.12.06.35.45.35.53,0,.11-.01.2-.21.53-.19.34-.34.47-.59.47s-.32-.19-.32-.22c0-.21-.27-.41-.27-.68s.28-.67.29-.91c.07.05.16.09.24.09Zm4.98,2.85c.07-.06.17-.19.17-.36,0-.29-.24-.62-.24-1.01,0-.45-.22-1.28-.22-1.9s-.22-2.23-.22-2.4.01-.37.07-.53c.1-.27-.35-.67-.72-.67-.23,0-.51.06-.51.44,0,.22.04,2.57.1,3.16.07.57.23,2.14.23,2.54,0,.24.05.41.11.53.11.25.38.62.67.62.16,0,.27-.09.36-.21.06-.09.12-.12.19-.2Zm3.21,0c.07-.06.17-.19.17-.36,0-.29-.24-.62-.24-1.01,0-.45-.22-1.28-.22-1.9s-.22-2.23-.22-2.4.01-.37.07-.53c.1-.27-.35-.67-.72-.67-.23,0-.51.06-.51.44,0,.22.04,2.57.1,3.16.07.57.23,2.14.23,2.54,0,.24.05.41.11.53.11.25.38.62.67.62.16,0,.27-.09.36-.21.06-.09.12-.12.19-.2Zm2.54.09s-.01.11-.01.17c0,.16-.21.37-.21.55,0,.01-.01.02-.02.04l-.04.04c-.08.11-.16.22-.16.32,0,.19-.64.53-.64.98,0,.22.11.51.3.51l.02.02c.07.07.16.12.27.12.22,0,.22-.1.34-.19s.18-.21.27-.27c.22-.15.34-.56.53-.81.19-.24.21-.35.33-.63.23-.58.23-.61.18-1.22-.02-.3-.58-1.18-1-1.18-.15,0-.58.16-.61.26,0,.04-.12-.01-.21-.01-.25,0-.45.35-.45.65,0,.25.12.42.28.6.22.25.56.12.81.05Zm7.08-6.42c-.12-.22-.5-.32-.69-.32-.29,0-.55.41-.55.65,0,.29.29.52.45.61.19.1.33.35.59.35s.62-.36.62-.82c0-.31-.17-.44-.42-.46Zm.3,6.08c0-.11-.02-.45.06-.52.25-.17-.04-.67-.04-.91,0-.25-.1-.68-.18-.92-.08-.21-.07-.65-.07-.85,0-.39-.53-.57-.72-.57-.33,0-.49.52-.49.62,0,.15.07.31.16.45.05.07.04.75.06.88.05.31.16.98.16,1.39,0,.51.33.76.61.76.3,0,.45-.09.45-.34Zm2.79-2.28v-.41c0-.56-.51-.73-.76-.73-.59,0-.53.81-.38,1.18.12.26.12,1.33.12,1.52,0,.25.53,1.07.81,1.07.15,0,.22-.07.29-.19l.04-.05c.16-.25.51-.16.39-.61-.05-.17.17-.65.38-.98.08-.16.21-.27.35-.37.1-.06.57-.35.68-.31.22.09.52.66.57.81.07.31.27.91.27,1.19,0,.47.57.67.76.67.28,0,.78-.61.78-.85,0-.16-.13-.26-.24-.36-.38-.36-.39-1.01-.57-1.51-.13-.35-.56-.86-.89-.91-.23-.04-.61-.34-.81-.34-.19,0-.39.21-.55.21-.3,0-.41.22-.63.35-.29.16-.41.32-.61.61Zm10.22-.42c.44.21.45-.19.89-.04.16.05.29.06.41.06.27-.01.95-.15.95-.51,0-.4-.64-.55-.85-.42-.05.02-.11-.04-.19-.06-.18-.07-.35-.14-.53-.15-.19-.01-.4-.15-.58-.12-.04,0-.1.04-.1-.01v-.86c0-.31-.12-.68-.17-.85-.08-.27-.39-.37-.66-.37-.32,0-.49.9-.49,1.16,0,.21.08.77.08,1.08,0,.06-.07,0-.13,0-.17,0-.36-.05-.44-.05-.23,0-.42.3-.42.7,0,.3.21.41.44.5.44.17.39-.01.67-.01.05,0-.05.1-.04.22.01.22.01.5.01.73,0,.41,0,.88-.1,1-.13.14-.35.3-.35.51,0,.12.06.2.15.27l.02.04s.01.01.02.02c.22.24.33.45.69.45.23,0,.44-.2.57-.39.15-.19.27-.62.27-1.08,0-.39-.1-1.46-.12-1.82Zm7.89,2.95c.1-.02.3-.09.3-.32,0-.42-.8-1.13-.85-1.51-.04-.31-.22-.42-.32-.68-.12-.35-.63-.86-1.31-.86-.38,0-.72.25-.95.49-.28.27-.46.57-.67.91-.01.04,0,.1-.02.1-.08,0,.05-.58.07-.77,0-.14-.1-.76-.18-1.33-.1-.58-.21-1.18-.22-1.36-.04-.32.04-.63.04-.96,0-.21-.22-.8-.61-.8-.11,0-.63.14-.63.51,0,.2-.01.72.04,1.18.05.46.36,2.79.39,3.36.02.31.12.71.21,1.04.05.15.17.58.17.73,0,.42.47.56.72.56.25,0,.28-.14.42-.19.23-.06.33-.52.33-.85,0-.07.04-.19.11-.35.15-.29.42-.93.79-.93.13,0,.36.27.49.37.16.1.13.53.33.72.17.19.16.45.49.62.18.09.38.31.58.31.1,0,.19.01.29-.01Zm4.65.06c.27-.2.4-.49.4-.67,0-.34-.58-.24-.78-.24-.11,0-.19.04-.27.11l-.02.02c-.12.11-.41.1-.53.1-.74,0-.89-.15-1.03-.3-.02-.02.01-.02.05-.02.13-.01.33-.16.51-.34.25-.25.39-.4.57-.68.18-.26.42-.27.52-.62.12-.46.13-.77-.11-1.23-.19-.36-.39-.55-.98-.55-.28,0-1.15.3-1.52.55-.4.27-.74,1.09-.74,1.47,0,.17.04.41.06.63.01.14.06.25.01.29-.19.14.12.76.7,1.37.55.55.85.66,1.71.66.44,0,.74-.1.97-.21.18-.1.32-.22.47-.34Zm-2.74-2.11c.02-.26.11-.4.33-.62.25-.26.3-.27.38-.27h.08s-.07.06-.1.1c-.17.24-.46.42-.58.68-.02.04-.06.07-.11.11Zm-84.81,13.43c-.02-.26-.05-.71-.05-.98,0-.36.1-1.11.1-1.53,0-.4-.25-1.03-.57-1.03-.44,0-.72.49-.72.8,0,.29.15.57.15.82,0,.02-.01.07-.02.15-.07.3-.16.6-.16.91,0,.47.22.91.22,1.38s-.08.87-.08,1.14c0,.72.45.87.45,1.22,0,.27.25.56.41.77.23.32.87.4,1.17.4s.83-.17,1.06-.27c.41-.17.78-.71,1.07-1.07.41-.51.46-1.13.46-1.77,0-1.52-1.21-1.88-1.51-1.88-.25,0-.81.1-1.13.31-.29.2-.62.35-.84.63Zm1.94.3c.23,0,.34.02.34.3s.07.86-.1,1.06c-.15.17-.3.63-.47.72-.28.16-.57.47-.91.47s-.44-.02-.44-.42c0-.26-.07-.78.11-1,.15-.15.38-.7.52-.75.21-.07.76-.39.95-.39Zm5.86,2.64c.28-.34.58-.98.58-1.63s-.55-1.33-.81-1.43-.79-.63-1.06-.63c-.24,0-.66.41-.66.77,0,.1.01.21.06.3-.15-.09-.33-.15-.45-.15-.29,0-.46.27-.53.56-.07.3-.32.55-.32.87,0,.72.18.42.4,1.04.02.06.04.15.06.24.08.39.18.44.46.56.3.14.74.36,1.04.36.38,0,.93-.5,1.21-.86Zm-1.42-2.24c.12,0,.35.11.5.19.12.06.35.45.35.53,0,.11-.01.2-.21.53-.19.34-.34.47-.59.47s-.32-.19-.32-.22c0-.21-.27-.41-.27-.68s.28-.67.29-.91c.07.05.16.09.24.09Zm6.19,2.24c.28-.34.58-.98.58-1.63s-.55-1.33-.81-1.43-.79-.63-1.06-.63c-.24,0-.66.41-.66.77,0,.1.01.21.06.3-.15-.09-.33-.15-.45-.15-.29,0-.46.27-.53.56-.07.3-.32.55-.32.87,0,.72.18.42.4,1.04.02.06.04.15.06.24.08.39.18.44.46.56.3.14.74.36,1.04.36.38,0,.93-.5,1.21-.86Zm-1.42-2.24c.12,0,.35.11.5.19.12.06.35.45.35.53,0,.11-.01.2-.21.53-.19.34-.34.47-.59.47s-.32-.19-.32-.22c0-.21-.27-.41-.27-.68s.28-.67.29-.91c.07.05.16.09.24.09Zm6.94,3.25c.23,0,.68-.51.68-.77,0-.32-.57-.63-.75-.63-.01,0-.02-.01-.05-.02-.18-.07-.34-.19-.56-.22-.16-.02-.25-.15-.38-.25-.27-.24-.28-.04-.28-.49,0-.17.11-.25.23-.35.12-.11.21-.22.36-.31.25-.14.47-.35.67-.58.22-.26.12-.35.19-.44l.04-.04c.06-.06.11-.15.11-.25,0-.31-.52-.53-.73-.53-.3,0-1.08.86-1.24.91-.25.06-.76.66-.89.66-.17,0-.02-.62-.02-.95,0-.39.01-1.94.01-2.11,0-.26-.3-.65-.59-.65-.46,0-.57.5-.57.71,0,.34.11.67.04,1-.05.2-.02.65-.01,1.07.02.42.04.85.02,1.04-.04.42.17.87.13,1.19-.04.41.12.8.12,1.18,0,.31.56.51.75.51.3,0,.5-.5.5-.67,0-.2-.1-.39-.1-.58,0-.1-.07-.21.01-.21.02,0-.04.05-.01.09.01.06.04.12.06.2.07.2.44.65.63.65.24,0,.34.44.89.53.23.05.5.32.73.32Zm10.78-.91c.27,0,.49-.27.49-.55,0-.25-.12-.56-.22-.78-.08-.16.07-.57-.06-.85-.08-.19-.17-.47-.18-1-.02-.58-.25-1.44-.41-1.87-.17-.46-.56-.7-.89-.7-.16,0-.34.14-.52.36-.38.52-1.04,1.67-1.18,2.24-.07.29-.18.75-.3.75-.11,0-.06-.26-.11-.56-.1-.53-.46-2.15-1.19-2.15-.27,0-.38.22-.4.44-.01.1-.38.75-.44.86-.22.45-.56.87-.58,1.39,0,.19-.1.35-.18.5-.11.21-.24.46-.3.86-.1.57-.42,1.42-.42,1.95,0,.39.45.85.68.85.18,0,.5-.12.5-.52,0-.24.12-.55.18-.77.12-.52.28-.86.36-1.33.02-.17.08-.31.16-.46.19-.37.07-.58.18-.92.05-.17.22-.88.39-.88.04,0-.02.12.01.27.17.76.23,2.44,1.29,2.44.64,0,.81-.71.9-1.22.05-.29.28-.49.29-.77.01-.19.32-.75.39-.98.07-.25.21-.58.34-.58.15,0,.11.68.12,1.01.02.42.1.83.27,1.21.16.36.17.77.21,1.16.05.51.22.62.64.62Zm4.76-.1c.28-.34.58-.98.58-1.63s-.55-1.33-.81-1.43c-.27-.1-.79-.63-1.06-.63-.24,0-.66.41-.66.77,0,.1.01.21.06.3-.15-.09-.33-.15-.45-.15-.29,0-.46.27-.53.56-.07.3-.32.55-.32.87,0,.72.18.42.4,1.04.02.06.04.15.06.24.08.39.18.44.46.56.3.14.74.36,1.04.36.38,0,.93-.5,1.21-.86Zm-1.42-2.24c.12,0,.35.11.5.19.12.06.35.45.35.53,0,.11-.01.2-.21.53-.19.34-.34.47-.59.47s-.32-.19-.32-.22c0-.21-.27-.41-.27-.68s.28-.67.29-.91c.07.05.16.09.24.09Zm6.18,2.24c.28-.34.58-.98.58-1.63s-.55-1.33-.81-1.43-.79-.63-1.06-.63c-.24,0-.66.41-.66.77,0,.1.01.21.06.3-.15-.09-.33-.15-.45-.15-.29,0-.46.27-.53.56-.07.3-.32.55-.32.87,0,.72.18.42.4,1.04.02.06.04.15.06.24.08.39.18.44.46.56.3.14.74.36,1.04.36.38,0,.93-.5,1.21-.86Zm-1.42-2.24c.12,0,.35.11.5.19.12.06.35.45.35.53,0,.11-.01.2-.21.53-.19.34-.34.47-.59.47s-.32-.19-.32-.22c0-.21-.27-.41-.27-.68s.28-.67.29-.91c.07.05.16.09.24.09Zm6.23.82c-.01-.57-.46-1.43-1.12-1.43-.27,0-.42.04-.72.51l-.05.06c0-.77-.25-.98-.66-.98-.27,0-.5.31-.56.52-.05.19-.05.73.15.9.02.01,0,1.46,0,1.63,0,.6.39.76.67.76s.74-.37.74-.76c0-.21.16-.62.35-.86.07-.09.13-.2.15-.31.02.07,0,.24.02.4.02.21.07.67.17.85.16.29.51.8.93.8.5,0,.75-.91.9-1.29.16-.4.45-.71.61-1.12.08-.24.17-.16.28-.05.18.15.19.5.47.5.02,0-.07.04-.07.09l.04.2c.08.31.35.06.35.68,0,.36.3.68.57.68.34,0,.58-.58.58-.98,0-.47-.33-.4-.38-.98-.05-.45-.36-.63-.53-1.01-.22-.47-.86-.83-1.19-.83-.29,0-.79.56-1.01.85-.27.36-.49.8-.7,1.19Zm5.95-4.3c-.12-.22-.5-.32-.69-.32-.29,0-.55.41-.55.65,0,.29.29.52.45.61.19.1.33.35.59.35s.62-.36.62-.82c0-.31-.17-.44-.42-.46Zm.3,6.08c0-.11-.02-.45.06-.52.25-.17-.04-.67-.04-.91,0-.25-.1-.68-.18-.92-.08-.21-.07-.65-.07-.85,0-.39-.53-.57-.72-.57-.33,0-.49.52-.49.62,0,.15.07.31.16.45.05.07.04.75.06.88.05.31.16.98.16,1.39,0,.51.33.76.61.76.3,0,.45-.09.45-.34Zm2.79-2.28v-.41c0-.56-.51-.73-.76-.73-.59,0-.53.81-.38,1.18.12.26.12,1.33.12,1.52,0,.25.53,1.07.81,1.07.15,0,.22-.07.29-.19l.04-.05c.16-.25.51-.16.39-.61-.05-.17.17-.65.38-.98.08-.16.21-.27.35-.37.1-.06.57-.35.68-.31.22.09.52.66.57.81.07.31.27.91.27,1.19,0,.47.57.67.76.67.28,0,.78-.61.78-.85,0-.16-.13-.26-.24-.36-.38-.36-.39-1.01-.57-1.51-.13-.35-.56-.86-.89-.91-.23-.04-.61-.34-.81-.34-.19,0-.39.21-.55.21-.3,0-.41.22-.63.35-.29.16-.41.32-.61.61Zm6.84,1.83c.15.09.36.14.57.14.3,0,.47-.06.76-.06.41,0,.52-.42.75-.67.29-.31.38-.9.38-1.07,0-.22.13-.67-.17-.78-.05-.01-.12-.14-.16-.17-.22-.29-.93-.55-1.24-.55-.51,0-.81.21-1.19.51-.24.2-.34.19-.46.49-.01.02.06.06.04.06-.21,0-.38-.16-.63.02-.3.22-.1.56.02.78.07.12.1,1.17-.07,1.95-.1.42-.04.85.05,1.21.06.29.17.61.17.91,0,.42.18.66.38,1,.25.41.19.66.8.66.4,0,.59-.44.59-.67,0-.19-.11-.61-.16-.82-.02-.07-.05-.34-.07-.63l-.06-.81c-.05-.47-.21-1-.3-1.48Zm-.04-.95c0-.14.18-.46.33-.63.15-.16.5-.4.67-.4s.27.17.27.31c0,.1-.11.3-.22.41-.13.14-.24.24-.46.24-.18,0-.42-.04-.58.09h0Zm5.77-2.45c-.17-.04-.38-.11-.5.09-.01.01-.19.02-.23.02-.33.05-1,.86-1.1,1.07-.18.37-.45,1.03-.45,1.42,0,.68.11.44.23,1.01.1.46.02.29.32.58.28.27.55.49.96.49.63,0,1.14-.55,1.23-.7.11-.19.36-.27.39-.63.02-.2.13-.24.15-.24s-.02.02-.02.04c.15.3.19.31.41.53.29.31.13.53.64.83.22.14.44.47.73.47s.57-.34.57-.61c0-.31-.39-.55-.61-.71-.24-.19-.92-1.38-.98-1.63-.04-.17.01-.78.01-.98,0-.44-.35-.68-.55-.8-.18-.11-.59-.34-.83-.34-.05,0-.1-.01-.13-.01-.07,0-.16.02-.23.09Zm.33,1.46c-.05.19-.18.72-.35,1.06-.16.3-.46.96-.8.96-.27,0-.23-.35-.23-.57,0-.24-.1-.75.05-.75.25,0,.32-.32.41-.5.18-.05.21-.2.28-.34.06-.06.11-.12.16-.2.01,0,.01-.02.02-.02.13,0,.18.02.29.02.06,0,.12-.01.17-.02.04,0,.1,0,.13-.02-.05.12-.13.35-.13.39Zm4.83,1.93c.15.09.36.14.57.14.3,0,.47-.06.76-.06.41,0,.52-.42.75-.67.29-.31.38-.9.38-1.07,0-.22.13-.67-.17-.78-.05-.01-.12-.14-.16-.17-.22-.29-.93-.55-1.24-.55-.51,0-.81.21-1.19.51-.24.2-.34.19-.46.49-.01.02.06.06.04.06-.21,0-.38-.16-.63.02-.3.22-.1.56.02.78.07.12.1,1.17-.07,1.95-.1.42-.04.85.05,1.21.06.29.17.61.17.91,0,.42.18.66.38,1,.25.41.19.66.8.66.4,0,.59-.44.59-.67,0-.19-.11-.61-.16-.82-.02-.07-.05-.34-.07-.63l-.06-.81c-.05-.47-.21-1-.3-1.48Zm-.04-.95c0-.14.18-.46.33-.63.15-.16.5-.4.67-.4s.27.17.27.31c0,.1-.11.3-.22.41-.13.14-.24.24-.46.24-.18,0-.42-.04-.58.09h0Zm5.2.93c.15.09.36.14.57.14.3,0,.47-.06.76-.06.41,0,.52-.42.75-.67.29-.31.38-.9.38-1.07,0-.22.13-.67-.17-.78-.05-.01-.12-.14-.16-.17-.22-.29-.93-.55-1.24-.55-.51,0-.81.21-1.19.51-.24.2-.34.19-.46.49-.01.02.06.06.04.06-.21,0-.38-.16-.63.02-.3.22-.1.56.02.78.07.12.1,1.17-.07,1.95-.1.42-.04.85.05,1.21.06.29.17.61.17.91,0,.42.18.66.38,1,.25.41.19.66.8.66.4,0,.59-.44.59-.67,0-.19-.11-.61-.16-.82-.02-.07-.05-.34-.07-.63l-.06-.81c-.05-.47-.21-1-.3-1.48Zm-.04-.95c0-.14.18-.46.33-.63.15-.16.5-.4.67-.4s.27.17.27.31c0,.1-.11.3-.22.41-.13.14-.24.24-.46.24-.18,0-.42-.04-.58.09h0Zm5.77-2.45c-.17-.04-.38-.11-.5.09-.01.01-.19.02-.23.02-.33.05-1,.86-1.1,1.07-.18.37-.45,1.03-.45,1.42,0,.68.11.44.23,1.01.1.46.02.29.32.58.28.27.55.49.96.49.63,0,1.14-.55,1.23-.7.11-.19.36-.27.39-.63.02-.2.13-.24.15-.24s-.02.02-.02.04c.15.3.19.31.41.53.29.31.13.53.64.83.22.14.44.47.73.47s.57-.34.57-.61c0-.31-.39-.55-.61-.71-.24-.19-.92-1.38-.98-1.63-.04-.17.01-.78.01-.98,0-.44-.35-.68-.55-.8-.18-.11-.59-.34-.83-.34-.05,0-.1-.01-.13-.01-.07,0-.16.02-.23.09Zm.33,1.46c-.05.19-.18.72-.35,1.06-.16.3-.46.96-.8.96-.27,0-.23-.35-.23-.57,0-.24-.1-.75.05-.75.25,0,.32-.32.41-.5.18-.05.21-.2.28-.34.06-.06.11-.12.16-.2.01,0,.01-.02.02-.02.13,0,.18.02.29.02.06,0,.12-.01.17-.02.04,0,.1,0,.13-.02-.05.12-.13.35-.13.39Zm8.47-1.46c-.17-.04-.38-.11-.5.09-.01.01-.19.02-.23.02-.33.05-1,.86-1.1,1.07-.18.37-.45,1.03-.45,1.42,0,.68.11.44.23,1.01.1.46.02.29.32.58.28.27.55.49.96.49.63,0,1.14-.55,1.23-.7.11-.19.36-.27.39-.63.02-.2.13-.24.15-.24s-.02.02-.02.04c.15.3.19.31.41.53.29.31.13.53.64.83.22.14.44.47.73.47s.57-.34.57-.61c0-.31-.39-.55-.61-.71-.24-.19-.92-1.38-.98-1.63-.04-.17.01-.78.01-.98,0-.44-.35-.68-.55-.8-.18-.11-.59-.34-.83-.34-.05,0-.1-.01-.13-.01-.07,0-.16.02-.23.09Zm.33,1.46c-.05.19-.18.72-.35,1.06-.16.3-.46.96-.8.96-.27,0-.23-.35-.23-.57,0-.24-.1-.75.05-.75.25,0,.32-.32.41-.5.18-.05.21-.2.28-.34.06-.06.11-.12.16-.2.01,0,.01-.02.02-.02.13,0,.18.02.29.02.06,0,.12-.01.17-.02.04,0,.1,0,.13-.02-.05.12-.13.35-.13.39Zm5.14-.32c.44.21.45-.19.89-.04.16.05.29.06.41.06.27-.01.95-.15.95-.51,0-.4-.64-.55-.85-.42-.05.02-.11-.04-.19-.06-.18-.07-.35-.14-.53-.15-.19-.01-.4-.15-.58-.12-.04,0-.1.04-.1-.01v-.86c0-.31-.12-.68-.17-.85-.08-.27-.39-.37-.66-.37-.32,0-.49.9-.49,1.16,0,.21.08.77.08,1.08,0,.06-.07,0-.13,0-.17,0-.36-.05-.44-.05-.23,0-.42.3-.42.7,0,.3.21.41.44.5.44.17.39-.01.67-.01.05,0-.05.1-.04.22.01.22.01.5.01.73,0,.41,0,.88-.1,1-.13.14-.35.3-.35.51,0,.12.06.2.15.27l.02.04s.01.01.02.02c.22.24.33.45.69.45.23,0,.44-.2.57-.39.15-.19.27-.62.27-1.08,0-.39-.1-1.46-.12-1.82Zm-93.68,13.22c.36-.09.59-.39.59-.68,0-.34-.29-.56-.78-.56-.44,0-.69.04-1.42.4-.78.39-1.07,1.13-1.07,1.59s.24.91.7,1.13c.13.06.24.14.35.22.23.17.49.3.75.44.1.05.21.09.21.22,0,.21.04.22-.18.32-.23.1-.41.25-.64.35-.3.12-.36.01-.66.01-.5,0-.64.45-.64.7,0,.31.19.68.8.68.28,0,.55-.09.75-.17.47-.2.92-.42,1.29-.8.24-.25.4-.57.4-1.02s-.17-.67-.3-.81c-.28-.29-.45-.56-.84-.72-.72-.3-.73-.42-.73-.51,0-.11.44-.39.53-.47.13-.12.57-.25.87-.32Zm5.72,4.71c.27-.2.4-.49.4-.67,0-.34-.58-.24-.78-.24-.11,0-.19.04-.27.11l-.02.02c-.12.11-.41.1-.53.1-.74,0-.89-.15-1.03-.3-.02-.02.01-.02.05-.02.13-.01.33-.16.51-.34.25-.25.39-.4.57-.68.18-.26.42-.27.52-.62.12-.46.13-.77-.11-1.23-.19-.36-.39-.55-.98-.55-.28,0-1.15.3-1.52.55-.4.27-.74,1.09-.74,1.47,0,.17.04.41.06.63.01.14.06.25.01.29-.19.14.12.76.7,1.37.55.55.85.66,1.71.66.44,0,.74-.1.97-.21.18-.1.32-.22.47-.34Zm-2.74-2.11c.02-.26.11-.4.33-.62.25-.26.3-.27.38-.27h.08s-.07.06-.1.1c-.17.24-.46.42-.58.68-.02.04-.06.07-.11.11Zm6-2.03c-.17-.04-.38-.11-.5.09-.01.01-.19.02-.23.02-.33.05-1,.86-1.1,1.07-.18.37-.45,1.03-.45,1.42,0,.68.11.44.23,1.01.1.46.02.29.32.58.28.27.55.49.96.49.63,0,1.14-.55,1.23-.7.11-.19.36-.27.39-.63.02-.2.13-.24.15-.24s-.02.02-.02.04c.15.3.19.31.41.53.29.31.13.53.64.83.22.14.44.47.73.47s.57-.34.57-.61c0-.31-.39-.55-.61-.71-.24-.19-.92-1.38-.98-1.63-.04-.17.01-.78.01-.98,0-.44-.35-.68-.55-.8-.18-.11-.59-.34-.83-.34-.05,0-.1-.01-.13-.01-.07,0-.16.02-.23.09Zm.33,1.46c-.05.19-.18.72-.35,1.06-.16.3-.46.96-.8.96-.27,0-.23-.35-.23-.57,0-.24-.1-.75.05-.75.25,0,.32-.32.41-.5.18-.05.21-.2.28-.34.06-.06.11-.12.16-.2.01,0,.01-.02.02-.02.13,0,.18.02.29.02.06,0,.12-.01.17-.02.04,0,.1,0,.13-.02-.05.12-.13.35-.13.39Zm4.38,2.71s-.01.11-.01.17c0,.16-.21.37-.21.55,0,.01-.01.02-.02.04l-.04.04c-.08.11-.16.22-.16.32,0,.19-.64.53-.64.98,0,.22.11.51.3.51l.02.02c.07.07.16.12.27.12.22,0,.22-.1.34-.19.12-.09.18-.21.27-.27.22-.15.34-.56.53-.81.19-.24.21-.35.33-.63.23-.58.23-.61.18-1.22-.02-.3-.58-1.18-1-1.18-.15,0-.58.16-.61.26,0,.04-.12-.01-.21-.01-.25,0-.45.35-.45.65,0,.25.12.42.28.6.22.25.56.12.81.05Zm7.15.3c.13.12.22.34.45.34.27,0,.73-.36.73-.73,0-.19-.06-.55-.12-.85-.08-.46-.25-1.04-.25-1.51,0-.34-.1-1.47-.16-1.79-.05-.3-.06-1.33-.02-1.63.02-.29-.12-.5-.34-.65-.23-.15-.46-.37-.75-.37-.25,0-.45.76-.29,1.12.06.12.1.8.13,1.47.01.19.06,1.39.13,1.53.06.09.02,1.79.02,2,0,.77.27,1.06.47,1.07Zm8.17-5.29c.1-.1.18-.24.18-.41s-.1-.41-.36-.5c-.17-.05-.56-.2-.76-.32-.27-.17-1.1-.27-1.48-.27-.44,0-1,.12-1.29.16-.33.04-.55.14-.72.36-.45.56-1.06,1.09-1.06,1.89,0,.46.4,1.07.61,1.27.23.25.63.39,1.19.39.28,0,.42-.02.55-.06.05-.02.1-.05.15-.05.19,0,.61-.1.76-.39.1-.19.55-.09.73-.51.06,0-.05.07-.06.17,0,.22-.04.52-.01.78.04.53.05,1.68-.04,2.06-.1.46.08.51.1.85.02.49.47.52.87.34.39-.16.42-.47.36-.78-.04-.16.13-.22.11-.45-.02-.17-.08-.87-.08-1.14,0-.14-.01-.42-.01-.71,0-.25,0-.49.04-.58.08-.25.01-.86-.13-1.04-.05-.04-.06-.16-.08-.3-.04-.22-.06-.44-.13-.6.07.01.13.01.18.01.12,0,.27-.02.4-.16Zm-1.82.25c-.38.58-.45.31-.92.67-.22.17-.34.25-.62.35-.23.07-.85.17-.85-.24,0-.19.21-.44.28-.62.04-.1.36-.39.7-.55.32-.15.29-.17.68-.17h.47c.1.01.39.07.64.14-.16.09-.29.25-.39.42Zm8.1,2.87c.04-.16-.18-.98-.32-1.18-.18-.26-.79-.36-.89-.36-.11,0-.5.09-.61.26-.01.02-.08.01-.15.02-.11.04-.27.06-.36.14-.15.11-.46.41-.49.5,0,.01-.01.04-.02.07,0,.01-.04.11-.04.11-.06,0,.06-.17.05-.36-.01-.29,0-.63,0-.82,0-.39.11-1.02.11-1.16,0-.1.18-.68.24-.86.1-.25.29-.53.29-.81,0-.21-.21-.78-.52-.78-.22,0-.68.26-.76.56-.05.17-.19.5-.25.57-.21.26-.22,1.14-.25,1.52-.06.46-.15.91-.15,1.36,0,.53.12,1.11.12,1.37s.21.5.34.7c.12.2.05.63.39.63.22,0,.4.72,1.48.72.52,0,1.24-.57,1.35-.76.08-.14.33-.7.41-.92.07-.19.04-.35.04-.53h-.01Zm-1.27-.21s.11.05.11.15c0,.22-.42.87-.61.87-.02,0-.01-.05-.01-.07-.05-.11-.08-.25-.19-.32-.04-.02-.01-.14.05-.16.12-.06.19-.19.27-.31.02-.02.04-.07.06-.1.12-.04.21-.05.33-.05Zm4.33-3.69c-.01-.32-.36-.4-.55-.4-.25,0-.47.15-.47.39,0,.07-.19.58-.33.88-.13.32-.34.91-.34,1.18,0,.32.35.73.68.73.25,0,.41-.02.61-.24.04-.02.06.01.1.04.12.04.23.11.36.11.22,0,1.02.34.98.57-.02.16-.08.3-.08.47,0,.24-.36.65-.78.72-.25.05-.36.11-.45.15l-.06.04s-.02.01-.04.01c-.11,0-.22.02-.32.04-.1-.22-.34-.46-.55-.46-.12,0-.49.09-.58.32-.07.19-.07.66.18.73.05.02.16.35.38.4h.02c.17.19.61.17.8.17.3,0,.59.01.86-.12.12-.06.23-.06.35-.16l.05-.04s.1-.07.23-.1c.42-.09.72-.49.87-.73.16-.25.4-.88.4-1.14,0-.24-.07-.72-.18-1.01-.1-.25-.39-.37-.61-.51-.47-.27-.19-.3-.8-.41-.22-.04-.5-.27-.73-.16-.06.04-.24.11-.24.01,0-.04.05-.04.07-.06.11-.06.24-.11.3-.24.01-.04.75-.27.87-.35.15-.07,1.42-.41,1.63-.21.34.3.5-.16.67-.3.53-.42-.29-1.28-.83-.87-.02.02-.76-.09-.86.15-.01.02-.07-.05-.15-.05-.07-.01-.16-.01-.23-.01-.24,0-1.06.3-1.25.41,0,.01,0,.02-.01.04Z"/>
</svg>