<?xml version="1.0" encoding="UTF-8"?>
<svg id="fore_ground" data-name="fore ground" xmlns="http://www.w3.org/2000/svg" xmlns:xlink="http://www.w3.org/1999/xlink" viewBox="0 0 202 134">
  <defs>
    <style>
      .cls-1 {
        mask: url(#mask);
      }

      .cls-2 {
        fill: #fff6c8;
      }

      .cls-3, .cls-4 {
        fill: #0e5256;
      }

      .cls-4, .cls-5 {
        fill-rule: evenodd;
      }

      .cls-5 {
        fill: #fff;
      }
    </style>
    <mask id="mask" x="-.53" y="-.15" width="203.17" height="135.15" maskUnits="userSpaceOnUse">
      <g id="path-1-inside-1_36_1240" data-name="path-1-inside-1 36 1240">
        <path class="cls-5" d="m179.94,112.93c7.86,1.03,15.48-.57,21.95-4.11-7.68,8-18.92,12.38-30.73,10.83-7.99-1.05-15.01-4.64-20.35-9.86-15.62,14.89-39.34,24.33-65.86,24.21C38.12,133.77.31,103.78.49,67.02.67,30.25,38.78.63,85.61.86c46.83.22,84.64,30.21,84.46,66.97-.06,12.35-4.4,23.89-11.91,33.76,5.49,6.02,13.06,10.2,21.78,11.34Z"/>
      </g>
    </mask>
  </defs>
  <path class="cls-4" d="m179.94,112.93c7.86,1.03,15.48-.57,21.95-4.11-7.68,8-18.92,12.38-30.73,10.83-7.99-1.05-15.01-4.64-20.35-9.86-15.62,14.89-39.34,24.33-65.86,24.21C38.12,133.77.31,103.78.49,67.02.67,30.25,38.78.63,85.61.86c46.83.22,84.64,30.21,84.46,66.97-.06,12.35-4.4,23.89-11.91,33.76,5.49,6.02,13.06,10.2,21.78,11.34Z"/>
  <g class="cls-1">
    <path class="cls-3" d="m169.05,67.82h1.02s-1.02,0-1.02,0Zm-11.65,34.44l-.56-.61.5-.66.82.6-.76.67ZM85.6,1.86V.86s0,1.01,0,1.01ZM1.51,67.02H.49s1.02,0,1.02,0Zm83.45,65.96v1.01s0-1.01,0-1.01Zm65.15-23.93l.72-.69.71.69-.72.71-.71-.72Zm21.2,9.59l-.13,1,.13-1Zm30.1-10.71l1.24,1.57-.74-.69-.5-.88Zm-21.59,5.99l.13-1-.13,1Zm-8.72-46.09c-.06,12.58-4.49,24.33-12.11,34.36l-1.63-1.21c7.39-9.72,11.64-21.05,11.7-33.16h2.04ZM85.61-.15c47.16.23,85.66,30.46,85.48,67.98h-2.04c.18-36.02-36.95-65.75-83.45-65.97V-.15ZM-.53,67.01C-.35,29.49,38.45-.38,85.61-.15V1.86C39.11,1.64,1.69,31.02,1.51,67.02H-.53Zm85.48,67.98C37.78,134.77-.72,104.54-.53,67.01H1.51c-.18,36.02,36.95,65.75,83.45,65.97v2.01Zm66.57-24.49c-15.83,15.09-39.82,24.62-66.58,24.49v-2.01c26.29.13,49.74-9.23,65.16-23.93l1.42,1.45Zm19.51,10.14c-8.22-1.08-15.44-4.78-20.94-10.15l1.44-1.43c5.19,5.07,12.01,8.57,19.77,9.58l-.27,1.99Zm31.61-11.14c-7.89,8.22-19.45,12.73-31.61,11.14l.27-1.99c11.47,1.5,22.39-2.75,29.85-10.53l1.48,1.38Zm-22.56,2.42c7.64,1,15.03-.55,21.32-3.99l.99,1.76c-6.66,3.65-14.49,5.29-22.58,4.23l.27-1.99Zm-21.15-11.01c5.33,5.85,12.68,9.9,21.15,11.01l-.27,1.99c-8.97-1.18-16.76-5.48-22.4-11.66l1.52-1.35Z"/>
  </g>
  <path class="cls-2" d="m37.77,26.62c0-.13-.39-.23-.4-.27-.02-.04-.2-.08-.2-.2,0-.11.15-.36.3-.47.15-.12.12-.27.12-.53s-.27-.22-.45-.22c-.21,0-.23.38-.43.43-.2.06-.28.41-.28.67s.21.66.39.69.21.28.46.34c.25.05.27-.07.31-.16.04-.08.18-.15.18-.28Zm-1.81.4c-.04-.09-.33-.12-.5-.02-.17.1-.32,0-.34-.07-.01-.07-.22-.13-.3-.2s.01-.26.01-.36.21-.17.23-.33c.01-.15.3-.32.46-.39.15-.07.25-.12.25-.24,0-.13-.29-.47-.46-.47-.31,0-.39.21-.54.24-.14.03-.25.41-.4.44-.16.03-.33.75-.42,1.02-.08.27.04.36.32.64s.38.14.65.25c.27.12.42-.11.53-.01.11.1.32-.07.46-.11.14-.05.08-.3.04-.38Zm4.62,2.41c.06-.45,0-.69-.08-1.43-.08-.74-.04-1.42,0-1.69s-.04-.49-.14-.62-.18-.32-.36-.32c-.1,0-.22.11-.25.29-.03.17-.07,1.09-.05,1.6.03.52.06,1.93.05,2.66-.02.72.21.84.4.84s.32-.15.34-.35c.01-.21.04-.51.09-.97Zm8.5.4c.08-.09.06-.39-.03-.49-.1-.09-.17-.33-.17-.63s-.1-.48-.19-.63c-.1-.15-.02-.41-.1-.62-.07-.2-.15-.81-.15-1.04s-.02-.6.04-.72c.06-.11.08-.15-.07-.26-.15-.11-.15-.21-.19-.38-.04-.17-.23.04-.35.04s-.29.06-.29.17.11.19.11.41.09,1.07.19,1.61c.09.55-.1.3-.23.17-.13-.13-.73-.26-1.13-.26-.52,0-.81.3-1.07.53-.27.22-.44.79-.44,1.06s.11.51.18.75c.08.25.62.72.85.86.23.13.37.04.67.04s.87-.3,1.02-.45c.15-.16.37-.34.4-.53.04-.19.19-.08.19.11s.09.17.09.36.1.34.21.34.15-.06.31-.1c.15-.03.08-.22.15-.32Zm-1.16-1.29c0,.17-.21.27-.28.36-.05.1-.05.34-.38.47-.33.13-.28.36-.76.36s-.77-.43-.77-.73.17-.59.37-.78c.19-.18.2-.32.61-.32.33,0,.57.08.81.23.23.15.39.25.39.41Zm5.19-.09c0-.48-.42-.97-.58-1.02-.15-.06-.7-.5-.84-.5-.11,0-.4.26-.4.47s.17.4.29.4.35.09.49.16c.14.08.38.44.38.57s-.02.22-.19.51c-.17.28-.33.45-.63.45s-.42-.23-.42-.33c0-.09-.22-.29-.22-.55s.25-.62.25-.74c0-.13-.28-.2-.41-.2s-.25.13-.31.34c-.05.21-.26.46-.26.66s.11.59.25.66.14.61.28.62c.13.02.69.34.98.34s.69-.38.91-.63c.21-.26.45-.74.45-1.23Zm5.58,1.34c0-.11-.28-.18-.42-.58-.06-.16-.15-.62-.26-.88s-.44-.61-.62-.64c-.18-.02-.56-.26-.66-.26s-.29.17-.46.17-.34.19-.46.26c-.13.07-.21.1-.49.5-.28.39-.25-.14-.25-.47s-.31-.44-.49-.44c-.38,0-.28.51-.17.74.1.22.11,1.14.11,1.29,0,.16.42.71.53.71.12,0,.12-.16.25-.21.13-.06.25-.13.2-.29-.04-.15.14-.59.34-.91.18-.31.5-.42.76-.56.27-.14.38,0,.47.07.08.07.33.38.4.63.07.26.23.76.23,1.01s.35.39.49.39.5-.41.5-.53Zm1.72-3.45c.07-.14-.17-.34-.17-.58s-.54-.57-.54-.64-.66-.25-.85-.25c-.13,0-.31.17-.31.27s.28.24.31.35c.02.11.07.28.39.27.32-.02.18.11.32.32.12.22-.03.38-.03.51s-.38.21-.39.33c-.02.11-.29.28-.27.43.03.16.14.12.19.29.04.17.3.07.52.02.21-.04.08-.31.32-.31s.15-.31.3-.38.14-.49.21-.63Zm4.53,1.15c0-.15-.36-.28-.49-.21-.13.07-.42-.14-.69-.15-.28-.02-.35-.12-.46-.1-.11.01-.26-.02-.26-.16v-.69c0-.22-.09-.51-.13-.63-.04-.13-.2-.2-.41-.2-.21,0-.26.61-.26.78s.07.62.07.88-.5.11-.63.11-.2.19-.2.41.28.24.35.3c.07.06.29-.06.43-.06s.13.54.13.93-.03.8-.13.91c-.1.1-.25.21-.25.31s.12.12.17.24c.06.13.28.24.42.24s.28-.14.36-.25c.09-.11.19-.42.19-.78s-.1-1.39-.1-1.54c0-.16.14-.12.2-.08.05.05.25.08.32,0,.07-.07.21-.09.43-.02.21.07.38.02.5.01.13-.01.44-.07.44-.23Zm5.82,2.42c-.07-.06-.17-.13-.25-.04-.08.1-.3.15-.58.15s-.15-.11-.63-.17c-.48-.05-.44-.35-.44-.54s.17-.55.35-.99.44-.53.55-.53c.12,0,.28.13.41.13s.22-.13.22-.22c0-.1-.03-.3-.15-.38-.11-.07-.25-.22-.55-.22-.19,0-.37.11-.61.18-.26.08-.52.51-.67.88s-.3.88-.3,1.12.21.72.37.95c.15.23.58.36.76.3.17-.05.25.19.53.19s.81-.26.98-.41c.17-.15.1-.32.02-.38Zm5.37.59c0-.15-.23-.3-.45-.45-.2-.15-.34-.45-.51-.7-.17-.24-.33-.55-.37-.7-.04-.15,0-.54,0-.82s-.26-.44-.39-.51c-.13-.08-.44-.25-.61-.25-.08,0-.15-.03-.23.04-.07.08-.29-.09-.36.02-.08.11-.31.06-.39.11-.07.06-.57.45-.73.76-.15.3-.37.8-.37,1.08s.07.56.15.68c.07.11.04.37.15.41s.35.43.81.43.85-.39.9-.49c.06-.09.3-.24.31-.45.02-.21.16-.32.28-.32s.13.19.22.3c.1.12.35.29.37.45.02.17.21.32.35.4.13.08.39.36.54.36s.33-.19.33-.34Zm-2.08-2.81c.04.1-.09.32-.13.47-.03.15-.15.61-.31.9s-.48.86-.81.86-.35-.36-.35-.61.04-.75.19-.75.15-.38.29-.39c.14-.02.1-.17.19-.25.1-.07.13-.21.26-.21.11,0,.15.02.25.02.11,0,.39-.11.42-.02Zm5.29-.17c0-.1-.25-.37-.37-.37-.13,0-.34,0-.46.1-.13.1-.37.08-.55.18-.18.1-.29.17-.42.27-.13.1-.2,0-.21-.1s-.2-.17-.32-.17c-.34,0-.28.38-.21.58.05.2.11.44.04.58-.07.14-.1.39-.01.42.08.03.08.62.14.79.05.17.21.43.5.43s.35-.37.31-.58c-.05-.21-.05-.6-.05-.86s.15-.3.22-.46c.07-.17.33-.37.46-.48.12-.12.47-.19.61-.19.15,0,.32-.05.32-.15Zm3.9,2.24c0-.09-.29-.04-.5-.04s-.04.19-.69.19-.83-.13-.98-.28c-.15-.15-.03-.26.14-.28.16-.02.51-.42.63-.53.11-.11.18-.34.4-.45.21-.11.17-.34.23-.47.05-.13,0-.4-.13-.64-.14-.24-.26-.36-.69-.36-.19,0-.91.23-1.19.42-.29.18-.55.79-.55,1.06s.13.77,0,.88c-.14.09.18.45.61.87.42.42.63.49,1.33.49s.94-.28,1.13-.41c.18-.14.27-.32.27-.42Zm-1.57-2.11c.07.11-.08.22-.21.39-.13.17-.4.38-.48.53-.08.15-.41.34-.39.05.02-.28.12-.43.33-.64.21-.2.3-.26.43-.26.11,0,.25-.19.33-.07Zm9.35,2.85c0-.15-.23-.3-.45-.45-.2-.15-.34-.45-.51-.7-.17-.24-.33-.55-.37-.7-.04-.15,0-.54,0-.82s-.26-.44-.39-.51c-.13-.08-.44-.25-.61-.25-.08,0-.15-.03-.23.04-.07.08-.29-.09-.36.02-.08.11-.31.06-.39.11-.07.06-.57.45-.73.76-.15.3-.37.8-.37,1.08s.07.56.15.68c.07.11.04.37.15.41s.35.43.81.43.85-.39.9-.49c.06-.09.3-.24.31-.45.02-.21.16-.32.28-.32s.13.19.22.3c.1.12.35.29.37.45.02.17.21.32.35.4.13.08.39.36.54.36s.33-.19.33-.34Zm-2.08-2.81c.04.1-.09.32-.13.47-.03.15-.15.61-.31.9-.15.28-.48.86-.81.86s-.35-.36-.35-.61.04-.75.19-.75.15-.38.29-.39c.14-.02.1-.17.19-.25.1-.07.13-.21.26-.21.11,0,.15.02.25.02.11,0,.39-.11.42-.02Zm8.77,2.06c0-.11-.15-.35-.25-.46-.08-.1-.07-.49-.12-.6-.05-.11-.07-.5-.14-.65-.08-.14-.22-.61-.28-.66s-.26-.23-.33-.18c-.08.05-.25.05-.34.11-.08.06-.21,0-.3.03-.07.04-.43.03-.69.03s-.28-.13-.28-.23.06-.71.16-1.08.33-.47.43-.52c.1-.05.32-.14.48-.14s.25.02.26.07c.01.05.3.2.37.25.08.05.21.04.15-.01-.06-.05.12-.16.12-.3s-.36-.46-.47-.46-.33-.13-.39-.18c-.06-.05-.3-.09-.36-.03-.06.06-.22-.04-.31-.04-.17,0-.56.29-.69.42-.13.13-.23.59-.19.63.04.03-.12.47-.12.74s.01.6.06.85c.05.25-.38.23-.52.23-.13,0-.32.21-.31.28.02.07.14.17.17.26.04.1.29.22.46.22s.32.23.32.4.17.17.14.4c-.02.22.14.36.12.52-.01.17.06.46.17.5.11.03.28.25.35.25s.3-.17.3-.36-.23-.9-.32-1c-.09-.09-.09-.41-.2-.65-.11-.24.03-.24.18-.3.16-.06.23.03.41.03s.31-.05.59-.05.23.61.33.8c.1.2.08.47.04.56-.04.08-.17.27.01.32.18.05.12.39.21.41.08.03.13.31.28.31.15,0,.48-.62.48-.73Zm4.6,1.1c0-.82-.34-1.62-.51-2.02-.17-.39-.39-.63-.39-.94s-.19-.29-.42-.45c-.23-.15-.51-.27-.81-.27-.34,0-.76.28-.98.47-.23.18-.62.75-.62,1.28s.04.62.38,1.11c.33.48.78.55,1.08.55s.6-.24.64-.41c.04-.17.23-.21.29-.44.06-.22.07-.34.25-.34s.2.55.28.65c.07.1.11.35.11.76,0,.57-.13,1.11-.4,1.47-.28.35-.65.48-1.03.48s-.33.08-.79-.12c-.46-.19-.53-.25-.46-.46.07-.21.01-.16-.14-.35-.16-.2-.47.11-.52.22-.06.11-.07.41.05.51.13.1-.02.21.44.56.46.36,1.03.39,1.33.39s.85-.15,1.23-.23c.37-.09.34-.28.44-.37.1-.08.27-.48.27-.66s.3-.58.3-1.39Zm-1.63-2.26c0,.29-.14.46-.14.57s-.1.29-.19.37c-.08.07-.11.32-.42.32s-.32-.18-.39-.24c-.07-.06-.22-.14-.22-.38s.17-.74.3-.93c.13-.18.55-.41.68-.41.27,0,.39.41.39.69Zm8.44-3.33c-.17-.15-.37-.19-.48-.31-.11-.11-.5-.18-.87-.18-.17,0-.46.07-.59.07s-.48.34-.59.47c-.12.13-.23.72-.23.99s.04.55.11.88c.08.32-.01.39-.2.39s-.17.38,0,.55c.17.17.22.2.33.2.09,0,.19.36.19.59s.2.37.2.52-.02.55.1.76c.11.2.31.45.51.45.21,0,.12-.1.21-.21.1-.11.02-.37-.02-.73-.04-.36-.22-.42-.2-.6.01-.19-.28-.42-.28-.63s.17-.18.41-.18.17-.15.5-.15.35.03.48.13c.13.09.31-.23.35-.32.03-.1.15-.3-.02-.38-.17-.07-.94,0-1.5,0s-.44-.45-.44-.71,0-.44.07-.79c.08-.36.15-.27.33-.49.17-.23.46-.17.58-.12.11.06.44.04.63.19.19.15.27.06.4,0,.13-.05.19-.22.02-.37Zm3.4,3.19c0-.48-.42-.97-.58-1.02-.15-.06-.7-.5-.84-.5-.11,0-.4.26-.4.47s.17.4.29.4.35.09.49.16c.14.08.38.44.38.57s-.02.22-.19.51c-.17.28-.33.45-.63.45s-.42-.23-.42-.33c0-.09-.22-.29-.22-.55s.25-.62.25-.74c0-.13-.28-.2-.41-.2s-.25.13-.31.34c-.05.21-.26.46-.26.66s.11.59.25.66c.13.07.14.61.28.62.13.02.69.34.98.34s.69-.38.91-.63c.21-.26.45-.74.45-1.23Zm3.98-.93c0-.1-.25-.37-.37-.37-.13,0-.34,0-.46.1-.13.1-.37.08-.55.18-.18.1-.29.17-.42.27-.13.1-.2,0-.21-.1-.01-.1-.2-.17-.32-.17-.34,0-.28.38-.21.58.05.2.11.44.04.58-.07.14-.1.39-.01.42.08.03.08.62.14.79.05.17.21.43.5.43s.35-.37.31-.58c-.05-.21-.05-.6-.05-.86s.15-.3.22-.46c.07-.17.33-.37.46-.48.12-.12.47-.19.61-.19.15,0,.32-.05.32-.15Zm6,.93c0-.48-.42-.97-.58-1.02-.15-.06-.7-.5-.84-.5-.11,0-.4.26-.4.47s.17.4.29.4.35.09.49.16c.14.08.38.44.38.57s-.02.22-.19.51c-.17.28-.33.45-.63.45s-.42-.23-.42-.33c0-.09-.22-.29-.22-.55s.25-.62.25-.74c0-.13-.28-.2-.41-.2s-.25.13-.31.34c-.05.21-.26.46-.26.66s.11.59.25.66.14.61.28.62c.13.02.69.34.98.34s.69-.38.91-.63c.21-.26.45-.74.45-1.23Zm4.48-.97c0-.15-.36-.28-.49-.21-.13.07-.42-.14-.69-.15-.28-.02-.35-.12-.46-.1-.11.01-.26-.02-.26-.16v-.69c0-.22-.09-.51-.13-.63-.04-.13-.2-.2-.41-.2-.21,0-.26.61-.26.78s.07.62.07.88-.5.11-.63.11-.2.19-.2.41.28.24.35.3c.07.06.29-.06.43-.06s.13.54.13.93-.03.8-.13.91c-.1.1-.25.21-.25.31s.12.12.17.24c.06.13.28.24.42.24s.28-.14.36-.25c.09-.11.19-.42.19-.78s-.1-1.39-.1-1.54c0-.16.14-.12.2-.08.05.05.25.08.32,0,.07-.07.21-.09.43-.02.21.07.38.02.5.01.13-.01.44-.07.44-.23Zm5,2.52c0-.14-.2-.38-.31-.52-.1-.15-.38-.46-.41-.67-.02-.21-.16-.29-.26-.52-.08-.23-.46-.59-.96-.59s-.97.66-1.07.8c-.1.14-.2.4-.31.4-.09,0-.11-.6-.09-.78.01-.18-.31-1.87-.34-2.14s.03-.64.03-.79c0-.16-.17-.49-.36-.49-.09,0-.38.11-.38.26,0,.16-.01.57.03.94.04.37.3,2.26.33,2.73.03.47.32,1.21.32,1.45s.31.3.45.3.17-.1.32-.14.16-.34.16-.54.18-.48.33-.75c.14-.26.36-.43.58-.43s.32.19.5.32c.18.13.17.5.29.61s.17.37.38.46c.2.1.3.24.42.24.11,0,.35.02.35-.12Zm3.99-.23c0-.09-.29-.04-.5-.04s-.04.19-.69.19-.83-.13-.98-.28-.03-.26.14-.28c.16-.02.51-.42.63-.53.11-.11.18-.34.4-.45.21-.11.17-.34.23-.47.05-.13,0-.4-.13-.64-.14-.24-.26-.36-.69-.36-.19,0-.91.23-1.19.42-.29.18-.55.79-.55,1.06s.13.77,0,.88c-.14.09.18.45.61.87.42.42.63.49,1.33.49s.94-.28,1.13-.41c.18-.14.27-.32.27-.42Zm-1.57-2.11c.07.11-.08.22-.21.39-.13.17-.4.38-.48.53-.08.15-.41.34-.39.05.02-.28.12-.43.33-.64.21-.2.3-.26.43-.26.11,0,.25-.19.33-.07Zm5.15-.13c0-.1-.25-.37-.37-.37-.13,0-.34,0-.46.1-.13.1-.37.08-.55.18-.18.1-.29.17-.42.27-.13.1-.2,0-.21-.1s-.2-.17-.32-.17c-.34,0-.28.38-.21.58.05.2.11.44.04.58-.07.14-.1.39-.01.42.08.03.08.62.14.79.05.17.21.43.5.43s.35-.37.31-.58c-.05-.21-.05-.6-.05-.86s.15-.3.22-.46c.07-.17.33-.37.46-.48.12-.12.47-.19.61-.19.15,0,.32-.05.32-.15Zm-102.33,12.9c0-.13.08-.44-.04-.48-.13-.05-.16-.19-.28-.27-.11-.09-.56-.31-.85-.31-.42,0-.54.14-.66.21-.13.07-.35.27-.46.32-.12.06-.13.32-.23.32s-.31-.1-.45,0c-.14.09-.01.28.07.43.09.16.1,1.06-.05,1.68-.14.62.19,1.25.19,1.68s.31.65.4.92c.08.26.21.27.44.27s.35-.24.35-.39c0-.14-.09-.46-.13-.62-.04-.16-.08-.9-.11-1.19-.03-.3-.3-1.28-.3-1.46,0-.19.09-.06.15.03.06.08.26.17.52.17s.4-.05.64-.05.32-.28.52-.49c.2-.21.28-.64.28-.76Zm-.74,0c0,.14-.13.34-.23.43-.09.1-.22.24-.49.24s-.36-.02-.44.07c-.09.1-.2,0-.2-.16,0-.17.18-.47.32-.61.13-.14.46-.37.67-.37.27,0,.38.26.38.4Zm5.18,1.42c0-.09-.29-.04-.5-.04s-.04.19-.69.19-.83-.13-.98-.28-.03-.26.14-.28c.16-.02.51-.42.63-.53.11-.11.18-.34.4-.45.21-.11.17-.34.23-.47.05-.13,0-.4-.13-.64-.14-.24-.26-.36-.69-.36-.19,0-.91.23-1.19.42-.29.18-.55.79-.55,1.06s.13.77,0,.88c-.14.09.18.45.61.87.42.42.63.49,1.33.49s.94-.28,1.13-.41c.18-.14.27-.32.27-.42Zm-1.57-2.11c.07.11-.08.22-.21.39-.13.17-.4.38-.48.53-.08.15-.41.34-.39.05.02-.28.12-.43.33-.64.21-.2.3-.26.43-.26.11,0,.25-.19.33-.07Zm5.18.79c0-.48-.42-.97-.58-1.02-.15-.06-.7-.5-.84-.5-.11,0-.4.26-.4.47s.17.4.29.4.35.09.49.16c.14.08.38.44.38.57s-.02.22-.19.51c-.17.28-.33.45-.63.45s-.42-.23-.42-.33c0-.09-.22-.29-.22-.55s.25-.62.25-.74c0-.13-.28-.2-.41-.2s-.25.13-.31.34c-.05.21-.26.46-.26.66s.11.59.25.66c.13.07.14.61.28.62.13.02.69.34.98.34s.69-.38.91-.63c.21-.26.45-.74.45-1.23Zm4.4-.1c0-.13.08-.44-.04-.48-.13-.05-.16-.19-.28-.27-.11-.09-.56-.31-.85-.31-.42,0-.54.14-.66.21-.13.07-.35.27-.46.32-.12.06-.13.32-.23.32s-.31-.1-.45,0c-.14.09-.01.28.07.43.09.16.1,1.06-.05,1.68-.14.62.19,1.25.19,1.68s.31.65.4.92c.08.26.21.27.44.27s.35-.24.35-.39c0-.14-.09-.46-.13-.62-.04-.16-.08-.9-.11-1.19-.03-.3-.3-1.28-.3-1.46,0-.19.09-.06.15.03.06.08.26.17.52.17s.4-.05.64-.05.32-.28.52-.49c.2-.21.28-.64.28-.76Zm-.74,0c0,.14-.13.34-.23.43-.09.1-.22.24-.49.24s-.36-.02-.44.07c-.09.1-.2,0-.2-.16,0-.17.18-.47.32-.61.13-.14.46-.37.67-.37.27,0,.38.26.38.4Zm3.34,1.62c0-.15-.2-.46-.2-.81s-.18-1.04-.18-1.54-.18-1.8-.18-1.94.01-.33.07-.48c.05-.16-.25-.34-.46-.34-.12,0-.28.01-.28.2,0,.18.03,2.07.08,2.54.06.47.19,1.75.19,2.07s.14.46.18.54c.04.08.2.24.32.24s.17-.1.23-.17c.05-.07.22-.14.22-.3Zm4.54-.2c0-.09-.29-.04-.5-.04s-.04.19-.69.19-.83-.13-.98-.28-.03-.26.14-.28c.16-.02.51-.42.63-.53.11-.11.18-.34.4-.45.21-.11.17-.34.23-.47.05-.13,0-.4-.13-.64-.14-.24-.26-.36-.69-.36-.19,0-.91.23-1.19.42-.29.18-.55.79-.55,1.06s.13.77,0,.88c-.14.09.18.45.61.87.42.42.63.49,1.33.49s.94-.28,1.13-.41c.18-.14.27-.32.27-.42Zm-1.57-2.11c.07.11-.08.22-.21.39-.13.17-.4.38-.48.53-.08.15-.41.34-.39.05.02-.28.12-.43.33-.64.21-.2.3-.26.43-.26.11,0,.25-.19.33-.07Zm3.51-1.32c.07-.14-.17-.34-.17-.58s-.54-.57-.54-.64-.66-.25-.85-.25c-.13,0-.31.17-.31.27s.28.24.31.35c.02.11.07.28.39.27.32-.02.18.11.32.32.12.22-.03.38-.03.51s-.38.21-.39.33c-.02.11-.29.28-.27.43.03.16.14.12.19.29.04.17.3.07.52.02.21-.04.08-.31.32-.31s.15-.31.3-.38c.14-.07.14-.49.21-.63Zm3.62,1.25c0-.14-.21-.29-.4-.34-.18-.04-.42-.14-.65-.14-.27,0-.46.3-.53.4-.07.1-.25.34-.25.63s.27,1.04.46,1.26c.2.21.17.31-.14.41-.32.09-.37,0-.37-.08,0-.07-.1-.24-.3-.12-.18.11-.17.17-.37.11-.2-.06-.52.17-.52.35,0,.19.33.38.47.44.15.06.35.04.52-.04.17-.09.31.03.48.03s.52-.06.69-.16c.16-.1.43-.18.43-.51s-.21-.74-.32-.88-.28-.48-.28-.59c0-.12-.03-.31.1-.31s.15-.16.28-.16c.11,0,.08.17.26.17s.43-.33.43-.47Zm5.97,0c0-.14-.21-.29-.4-.34-.18-.04-.42-.14-.65-.14-.27,0-.46.3-.53.4-.07.1-.25.34-.25.63s.27,1.04.46,1.26c.2.21.17.31-.14.41-.32.09-.37,0-.37-.08,0-.07-.1-.24-.3-.12-.18.11-.17.17-.37.11-.2-.06-.52.17-.52.35,0,.19.33.38.47.44.15.06.35.04.52-.04.17-.09.31.03.48.03s.52-.06.69-.16c.16-.1.43-.18.43-.51s-.21-.74-.32-.88-.28-.48-.28-.59c0-.12-.03-.31.1-.31s.15-.16.28-.16c.11,0,.08.17.26.17s.43-.33.43-.47Zm4.31,2.18c0-.09-.29-.04-.5-.04s-.04.19-.69.19-.83-.13-.98-.28-.03-.26.14-.28c.16-.02.51-.42.63-.53.11-.11.18-.34.4-.45.21-.11.17-.34.23-.47.05-.13,0-.4-.13-.64-.14-.24-.26-.36-.69-.36-.19,0-.91.23-1.19.42-.29.18-.55.79-.55,1.06s.13.77,0,.88c-.14.09.18.45.61.87.42.42.63.49,1.33.49s.94-.28,1.13-.41c.18-.14.27-.32.27-.42Zm-1.57-2.11c.07.11-.08.22-.21.39-.13.17-.4.38-.48.53-.08.15-.41.34-.39.05.02-.28.12-.43.33-.64.21-.2.3-.26.43-.26.11,0,.25-.19.33-.07Zm5.03,2.25c-.07-.06-.17-.13-.25-.04-.08.1-.3.15-.58.15s-.15-.11-.63-.17c-.48-.05-.44-.35-.44-.54s.17-.55.35-.99c.17-.43.44-.53.55-.53.12,0,.28.13.41.13s.22-.13.22-.22c0-.1-.03-.3-.15-.38-.11-.07-.25-.22-.55-.22-.19,0-.37.11-.61.18-.26.08-.52.51-.67.88-.15.36-.3.88-.3,1.12s.21.72.37.95c.15.23.58.36.76.3.17-.05.25.19.53.19s.81-.26.98-.41c.17-.15.1-.32.02-.38Zm3.75-2.38c0-.1-.25-.37-.37-.37-.13,0-.34,0-.46.1-.13.1-.37.08-.55.18-.18.1-.29.17-.42.27-.13.1-.2,0-.21-.1s-.2-.17-.32-.17c-.34,0-.28.38-.21.58.05.2.11.44.04.58-.07.14-.1.39-.01.42.08.03.08.62.14.79.05.17.21.43.5.43s.35-.37.31-.58c-.05-.21-.05-.6-.05-.86s.15-.3.22-.46c.07-.17.33-.37.46-.48.12-.12.47-.19.61-.19.15,0,.32-.05.32-.15Zm3.9,2.24c0-.09-.29-.04-.5-.04s-.04.19-.69.19-.83-.13-.98-.28c-.15-.15-.03-.26.14-.28.16-.02.51-.42.63-.53.11-.11.18-.34.4-.45.21-.11.17-.34.23-.47.05-.13,0-.4-.13-.64-.14-.24-.26-.36-.69-.36-.19,0-.91.23-1.19.42-.29.18-.55.79-.55,1.06s.13.77,0,.88c-.14.09.18.45.61.87.42.42.63.49,1.33.49s.94-.28,1.13-.41c.18-.14.27-.32.27-.42Zm-1.57-2.11c.07.11-.08.22-.21.39-.13.17-.4.38-.48.53-.08.15-.41.34-.39.05.02-.28.12-.43.33-.64.21-.2.3-.26.43-.26.11,0,.25-.19.33-.07Zm5.65-.17c0-.15-.36-.28-.49-.21-.13.07-.42-.14-.69-.15-.28-.02-.35-.12-.46-.1-.11.01-.26-.02-.26-.16v-.69c0-.22-.09-.51-.13-.63-.04-.13-.2-.2-.41-.2-.21,0-.26.61-.26.78s.07.62.07.88-.5.11-.63.11-.2.19-.2.41.28.24.35.3c.07.06.29-.06.43-.06s.13.54.13.93-.03.8-.13.91c-.1.1-.25.21-.25.31s.12.12.17.24c.06.13.28.24.42.24s.28-.14.36-.25c.09-.11.19-.42.19-.78s-.1-1.39-.1-1.54c0-.16.14-.12.2-.08.05.05.25.08.32,0,.07-.07.21-.09.43-.02.21.07.38.02.5.01.13-.01.44-.07.44-.23Zm2.95.1c0-.14-.21-.29-.4-.34-.18-.04-.42-.14-.65-.14-.27,0-.46.3-.53.4-.07.1-.25.34-.25.63s.27,1.04.46,1.26c.2.21.17.31-.14.41-.32.09-.37,0-.37-.08,0-.07-.1-.24-.3-.12-.18.11-.17.17-.37.11-.2-.06-.52.17-.52.35,0,.19.33.38.47.44.15.06.35.04.52-.04.17-.09.31.03.48.03s.52-.06.69-.16c.16-.1.43-.18.43-.51s-.21-.74-.32-.88c-.1-.13-.28-.48-.28-.59,0-.12-.03-.31.1-.31s.15-.16.28-.16c.11,0,.08.17.26.17s.43-.33.43-.47Zm1.93,2.31c0-.14-.07-.55-.16-.55-.08,0-.27-.21-.43-.21-.23,0-.21.22-.38.34-.15.11.02.14.02.25s.25.38.29.38.31.14.45.14.21-.21.21-.35Zm9.36-1.64c0-.17-.57-.1-.93-.11-.37-.01-.48-.13-.55-.26-.07-.12-.53-1.16-.78-1.62-.25-.47-.56-1.11-1-1.11s-.37.56-.39.82c-.01.25-.7,2.05-.86,2.64-.16.58-.51,1.9-.55,2.1-.04.21-.2.29-.2.41,0,.11.13.2.18.23.06.03.1.22.2.22s.14-.06.25-.1c.1-.05.14-.15.13-.24-.03-.17.38-1.55.43-1.77.06-.22.07-.19.25-.18s.48-.12.8-.22c.32-.09.69-.24.91-.31.21-.07.28-.01.32.09.04.11.14.41.21.64.07.23-.17.38-.17.51,0,.12.26.07.38.17.11.11.11.32.21.32s.1-.2.29-.31c.18-.1.2-.22.11-.46-.08-.24-.34-.95-.34-1.07,0-.13.47-.17.75-.12s.36-.1.36-.28Zm-2.22-.41c.1.19.25.34-.03.38-.28.03-1.06.24-1.21.3-.15.06-.41.08-.27-.23.14-.31.53-1.58.55-1.77.01-.18.17-.45.35-.03.09.23.5,1.15.6,1.35Zm7.37,1.94c0-.11-.28-.18-.42-.58-.06-.16-.15-.62-.26-.88s-.44-.61-.62-.64c-.18-.02-.56-.26-.66-.26s-.29.17-.46.17-.34.19-.46.26c-.13.07-.21.1-.49.5-.28.39-.25-.14-.25-.47s-.31-.44-.49-.44c-.38,0-.28.51-.17.74.1.22.11,1.14.11,1.29,0,.16.42.71.53.71.12,0,.12-.16.25-.21.13-.06.25-.13.2-.29-.04-.15.14-.59.34-.91.18-.31.5-.42.76-.56.27-.14.38,0,.47.07.08.07.33.38.4.63.07.26.23.76.23,1.01s.35.39.49.39.5-.41.5-.53Zm5.07.04c.08-.09.06-.39-.03-.49-.1-.09-.17-.33-.17-.63s-.1-.48-.19-.63c-.1-.15-.02-.41-.1-.62-.07-.2-.15-.81-.15-1.04s-.02-.6.04-.72c.06-.11.08-.15-.07-.26-.15-.11-.15-.21-.19-.38-.04-.17-.23.04-.35.04s-.29.06-.29.17.11.19.11.41.09,1.07.19,1.61c.09.55-.1.3-.23.17s-.73-.26-1.13-.26c-.52,0-.81.3-1.07.53-.27.22-.44.79-.44,1.06s.11.51.18.75c.08.25.62.72.85.86.23.13.37.04.67.04s.87-.3,1.02-.45c.15-.16.37-.34.4-.53.04-.19.19-.08.19.11s.09.17.09.36.1.34.21.34.15-.06.31-.1c.15-.03.08-.22.15-.32Zm-1.16-1.29c0,.17-.21.27-.28.36-.05.1-.05.34-.38.47-.33.13-.28.36-.76.36s-.77-.43-.77-.73.17-.59.37-.78c.19-.18.2-.32.61-.32.33,0,.57.08.81.23s.39.25.39.41Zm6.47.89c.06-.45,0-.69-.08-1.43-.08-.74-.04-1.42,0-1.69.04-.27-.04-.49-.14-.62-.1-.13-.18-.32-.36-.32-.1,0-.22.11-.25.29-.03.17-.07,1.09-.05,1.6.03.52.06,1.93.05,2.66-.02.72.21.84.4.84s.32-.15.34-.35c.01-.21.04-.51.09-.97Zm-80.92,12.56c-.07-.06-.17-.13-.25-.04-.08.1-.3.15-.58.15s-.15-.11-.63-.17c-.48-.05-.44-.35-.44-.54s.17-.55.35-.99c.17-.43.44-.53.55-.53.12,0,.28.13.41.13s.22-.13.22-.22c0-.1-.03-.3-.15-.38-.11-.07-.25-.22-.55-.22-.19,0-.37.11-.61.18-.26.08-.52.51-.67.88-.15.36-.3.88-.3,1.12s.21.72.37.95c.15.23.58.36.76.3.17-.05.25.19.53.19s.81-.26.98-.41c.17-.15.1-.32.02-.38Zm4.26-.14c0-.09-.29-.04-.5-.04s-.04.19-.69.19-.83-.13-.98-.28-.03-.26.14-.28c.16-.02.51-.42.63-.53.11-.11.18-.34.4-.45.21-.11.17-.34.23-.47.05-.13,0-.4-.13-.64-.14-.24-.26-.36-.69-.36-.19,0-.91.23-1.19.42-.29.18-.55.79-.55,1.06s.13.77,0,.88c-.14.09.18.45.61.87.42.42.63.49,1.33.49s.94-.28,1.13-.41c.18-.14.27-.32.27-.42Zm-1.57-2.11c.07.11-.08.22-.21.39s-.4.38-.48.53c-.08.15-.41.34-.39.05.02-.28.12-.43.33-.64.21-.2.3-.26.43-.26.11,0,.25-.19.33-.07Zm5.15-.13c0-.1-.25-.37-.37-.37-.13,0-.34,0-.46.1-.13.1-.37.08-.55.18s-.29.17-.42.27c-.13.1-.2,0-.21-.1-.01-.1-.2-.17-.32-.17-.34,0-.28.38-.21.58.05.2.11.44.04.58s-.1.39-.01.42c.08.03.08.62.14.79.05.17.21.43.5.43s.35-.37.31-.58c-.05-.21-.05-.6-.05-.86s.15-.3.22-.46c.07-.17.33-.37.46-.48.12-.12.47-.19.61-.19.15,0,.32-.05.32-.15Zm3.89-.04c0-.15-.36-.28-.49-.21-.13.07-.42-.14-.69-.15-.28-.02-.35-.12-.46-.1-.11.01-.26-.02-.26-.16v-.69c0-.22-.09-.51-.13-.63-.04-.13-.2-.2-.41-.2-.21,0-.26.61-.26.78s.07.62.07.88-.5.11-.63.11-.2.19-.2.41.28.24.35.3c.07.06.29-.06.43-.06s.13.54.13.93-.03.8-.13.91c-.1.1-.25.21-.25.31s.12.12.17.24c.06.13.28.24.42.24s.28-.14.36-.25c.09-.11.19-.42.19-.78s-.1-1.39-.1-1.54c0-.16.14-.12.2-.08.05.05.25.08.32,0,.07-.07.21-.09.43-.02s.38.02.5.01c.13-.01.44-.07.44-.23Zm4.97,3.02c0-.15-.23-.3-.45-.45-.2-.15-.34-.45-.51-.7-.17-.24-.33-.55-.37-.7-.04-.15,0-.54,0-.82s-.26-.44-.39-.51c-.13-.08-.44-.25-.61-.25-.08,0-.15-.03-.23.04-.07.08-.29-.09-.36.02-.08.11-.31.06-.39.11-.07.06-.57.45-.73.76-.15.3-.37.8-.37,1.08s.07.56.15.68c.07.11.04.37.15.41.11.04.35.43.81.43s.85-.39.9-.49c.06-.09.3-.24.31-.45.02-.21.16-.32.28-.32s.13.19.22.3c.1.12.35.29.37.45.02.17.21.32.35.4.13.08.39.36.54.36s.33-.19.33-.34Zm-2.08-2.81c.04.1-.09.32-.13.47-.03.15-.15.61-.31.9s-.48.86-.81.86-.35-.36-.35-.61.04-.75.19-.75.15-.38.29-.39c.14-.02.1-.17.19-.25.1-.07.13-.21.26-.21.11,0,.15.02.25.02.11,0,.39-.11.42-.02Zm3.65-2.18c0-.31-.32-.17-.33-.27-.02-.1-.27-.21-.46-.21-.13,0-.31.23-.31.37s.17.29.29.35c.12.06.31.27.44.27.12,0,.37-.2.37-.51Zm.02,4c.1-.07-.1-.42-.1-.61,0-.18-.07-.5-.14-.69-.07-.18-.07-.56-.07-.73s-.31-.31-.45-.31c-.13,0-.26.28-.26.35s.04.17.11.28c.07.12.03.51.07.77.04.25.13.8.13,1.15s.21.46.36.46.22-.01.22-.12c0-.12.02-.47.12-.54Zm5.84.27c0-.11-.28-.18-.42-.58-.06-.16-.15-.62-.26-.88-.1-.25-.44-.61-.62-.64-.18-.02-.56-.26-.66-.26s-.29.17-.46.17-.34.19-.46.26c-.13.07-.21.1-.49.5-.28.39-.25-.14-.25-.47s-.31-.44-.49-.44c-.38,0-.28.51-.17.74.1.22.11,1.14.11,1.29,0,.16.42.71.53.71.12,0,.12-.16.25-.21.13-.06.25-.13.2-.29-.04-.15.14-.59.34-.91.18-.31.5-.42.76-.56.27-.14.38,0,.47.07.08.07.33.38.4.63.07.26.23.76.23,1.01s.35.39.49.39.5-.41.5-.53Zm2.46.18c0-.15-.2-.46-.2-.81s-.18-1.04-.18-1.54-.18-1.8-.18-1.94.01-.33.07-.48c.05-.16-.25-.34-.46-.34-.12,0-.28.01-.28.2,0,.18.03,2.07.08,2.54.06.47.19,1.75.19,2.07s.14.46.18.54c.04.08.2.24.32.24s.17-.1.23-.17c.05-.07.22-.14.22-.3Zm4.59,3.06c0-.32-.01-.68-.07-.72-.05-.04-.02-.44-.02-.76s-.17-1.52-.17-1.74-.12-.71-.19-.76c-.07-.06-.08-.26-.08-.55s-.06-.53-.16-.53-.3-.19-.36-.19-.2.05-.23.14c-.02.08-.22.48-.51.77-.3.3-.41.38-.55.38s-.15-.21-.15-.39.09-.68.09-.82-.09-.32-.17-.34c-.07-.01-.19-.12-.3-.12-.19,0-.13.14-.23.19-.1.06-.12.54-.12.74s.07.69.07.91.19.49.27.51c.07.01.32.22.47.22.14,0,.27-.24.37-.25.1-.01.34-.16.44-.3.09-.14.33-.38.44-.38.12,0,.07.64.17.84.1.2.2,1.37.2,1.82s-.04.85-.08,1.01c-.05.15-.06.42,0,.44.05.01.15.43.26.46s.18.19.31.19c.11,0,.18-.1.26-.19.07-.08.08-.22.08-.55Zm7.86-3.2c.08-.09.06-.39-.03-.49-.1-.09-.17-.33-.17-.63s-.1-.48-.19-.63c-.1-.15-.02-.41-.1-.62-.07-.2-.15-.81-.15-1.04s-.02-.6.04-.72c.06-.11.08-.15-.07-.26-.15-.11-.15-.21-.19-.38s-.23.04-.35.04-.29.06-.29.17.11.19.11.41.09,1.07.19,1.61c.09.55-.1.3-.23.17-.13-.13-.73-.26-1.13-.26-.52,0-.81.3-1.07.53-.27.22-.44.79-.44,1.06s.11.51.18.75c.08.25.62.72.85.86.23.13.37.04.67.04s.87-.3,1.02-.45c.15-.16.37-.34.4-.53.04-.19.19-.08.19.11s.09.17.09.36.1.34.21.34.15-.06.31-.1c.15-.03.08-.22.15-.32Zm-1.16-1.29c0,.17-.21.27-.28.36-.05.1-.05.34-.38.47-.33.13-.28.36-.76.36s-.77-.43-.77-.73.17-.59.37-.78c.19-.18.2-.32.61-.32.33,0,.57.08.81.23.23.15.39.25.39.41Zm5.19-.09c0-.48-.42-.97-.58-1.02-.15-.06-.7-.5-.84-.5-.11,0-.4.26-.4.47s.17.4.29.4.35.09.49.16c.14.08.38.44.38.57s-.02.22-.19.51c-.17.28-.33.45-.63.45s-.42-.23-.42-.33c0-.09-.22-.29-.22-.55s.25-.62.25-.74c0-.13-.28-.2-.41-.2s-.25.13-.31.34c-.05.21-.26.46-.26.66s.11.59.25.66c.13.07.14.61.28.62.13.02.69.34.98.34s.69-.38.91-.63c.21-.26.45-.74.45-1.23Zm5.58,1.34c0-.11-.28-.18-.42-.58-.06-.16-.15-.62-.26-.88s-.44-.61-.62-.64c-.18-.02-.56-.26-.66-.26s-.29.17-.46.17-.34.19-.46.26c-.13.07-.21.1-.49.5-.28.39-.25-.14-.25-.47s-.31-.44-.49-.44c-.38,0-.28.51-.17.74.1.22.11,1.14.11,1.29,0,.16.42.71.53.71.12,0,.12-.16.25-.21.13-.06.25-.13.2-.29-.04-.15.14-.59.34-.91.18-.31.5-.42.76-.56.27-.14.38,0,.47.07.08.07.33.38.4.63.07.26.23.76.23,1.01s.35.39.49.39.5-.41.5-.53Zm1.72-3.45c.07-.14-.17-.34-.17-.58s-.54-.57-.54-.64-.66-.25-.85-.25c-.13,0-.31.17-.31.27s.28.24.31.35c.02.11.07.28.39.27.32-.02.18.11.32.32.12.22-.03.38-.03.51s-.38.21-.39.33c-.02.11-.29.28-.27.43.03.16.14.12.19.29.04.17.3.07.52.02.21-.04.08-.31.32-.31s.15-.31.3-.38.14-.49.21-.63Zm4.53,1.15c0-.15-.36-.28-.49-.21s-.42-.14-.69-.15c-.28-.02-.35-.12-.46-.1-.11.01-.26-.02-.26-.16v-.69c0-.22-.09-.51-.13-.63-.04-.13-.2-.2-.41-.2-.21,0-.26.61-.26.78s.07.62.07.88-.5.11-.63.11-.2.19-.2.41.28.24.35.3c.07.06.29-.06.43-.06s.13.54.13.93-.03.8-.13.91c-.1.1-.25.21-.25.31s.12.12.17.24c.06.13.28.24.42.24s.28-.14.36-.25c.09-.11.19-.42.19-.78s-.1-1.39-.1-1.54c0-.16.14-.12.2-.08.05.05.25.08.32,0,.07-.07.21-.09.43-.02.21.07.38.02.5.01.13-.01.44-.07.44-.23Zm7.03.66c0-1.12-.93-1.37-1.11-1.37-.19,0-.63.08-.87.23s-.54.28-.69.51c-.15.22-.2.13-.22,0-.02-.13-.06-.64-.06-.93s.08-.9.08-1.24-.21-.68-.33-.68c-.26,0-.45.29-.45.49,0,.21.12.51.12.66s-.15.55-.15.86.18.73.18,1.12-.07.7-.07.93.05.4.17.53c.11.13.2.3.2.45s.14.3.32.53c.16.22.65.26.86.26.21,0,.63-.13.83-.21.19-.07.46-.34.67-.62.21-.28.52-.41.52-1.53Zm-.69-.27c0,.36.06.74-.11.96-.17.2-.23.5-.45.62-.2.11-.49.39-.84.39s-.52-.05-.52-.49-.06-.69.13-.91c.19-.21.27-.57.5-.64.23-.08.65-.32.85-.32.2,0,.44.04.44.39Zm4.8-.35c0-.1-.25-.37-.37-.37-.13,0-.34,0-.46.1-.13.1-.37.08-.55.18-.18.1-.29.17-.42.27-.13.1-.2,0-.21-.1-.01-.1-.2-.17-.32-.17-.34,0-.28.38-.21.58.05.2.11.44.04.58-.07.14-.1.39-.01.42.08.03.08.62.14.79.05.17.21.43.5.43s.35-.37.31-.58c-.05-.21-.05-.6-.05-.86s.15-.3.22-.46c.07-.17.33-.37.46-.48.12-.12.47-.19.61-.19.15,0,.32-.05.32-.15Zm3.42.93c0-.48-.42-.97-.58-1.02-.15-.06-.7-.5-.84-.5-.11,0-.4.26-.4.47s.17.4.29.4.35.09.49.16c.14.08.38.44.38.57s-.02.22-.19.51c-.17.28-.33.45-.63.45s-.42-.23-.42-.33c0-.09-.22-.29-.22-.55s.25-.62.25-.74c0-.13-.28-.2-.41-.2s-.25.13-.31.34c-.05.21-.26.46-.26.66s.11.59.25.66.14.61.28.62c.13.02.69.34.98.34s.69-.38.91-.63c.21-.26.45-.74.45-1.23Zm5.59,2.05c0-.15-.23-.3-.45-.45-.2-.15-.34-.45-.51-.7-.17-.24-.33-.55-.37-.7-.04-.15,0-.54,0-.82s-.26-.44-.39-.51c-.13-.08-.44-.25-.61-.25-.08,0-.15-.03-.23.04-.07.08-.29-.09-.36.02-.08.11-.31.06-.39.11-.07.06-.57.45-.73.76-.15.3-.37.8-.37,1.08s.07.56.15.68c.07.11.04.37.15.41.11.04.35.43.81.43s.85-.39.9-.49c.06-.09.3-.24.31-.45.02-.21.16-.32.28-.32s.13.19.22.3c.1.12.35.29.37.45.02.17.21.32.35.4.13.08.39.36.54.36s.33-.19.33-.34Zm-2.08-2.81c.04.1-.09.32-.13.47-.03.15-.15.61-.31.9-.15.28-.48.86-.81.86s-.35-.36-.35-.61.04-.75.19-.75.15-.38.29-.39c.14-.02.1-.17.19-.25.1-.07.13-.21.26-.21.11,0,.15.02.25.02.11,0,.39-.11.42-.02Zm6.56,2.13c.08-.09.06-.39-.03-.49-.1-.09-.17-.33-.17-.63s-.1-.48-.19-.63c-.1-.15-.02-.41-.1-.62-.07-.2-.15-.81-.15-1.04s-.02-.6.04-.72c.06-.11.08-.15-.07-.26s-.15-.21-.19-.38c-.04-.17-.23.04-.35.04s-.29.06-.29.17.11.19.11.41.09,1.07.19,1.61c.09.55-.1.3-.23.17-.13-.13-.73-.26-1.13-.26-.52,0-.81.3-1.07.53-.27.22-.44.79-.44,1.06s.11.51.18.75c.08.25.62.72.85.86.23.13.37.04.67.04s.87-.3,1.02-.45c.15-.16.37-.34.4-.53.04-.19.19-.08.19.11s.09.17.09.36.1.34.21.34.15-.06.31-.1c.15-.03.08-.22.15-.32Zm-1.16-1.29c0,.17-.21.27-.28.36-.05.1-.05.34-.38.47-.33.13-.28.36-.76.36s-.77-.43-.77-.73.17-.59.37-.78c.19-.18.2-.32.61-.32.33,0,.57.08.81.23.23.15.39.25.39.41Zm5.04,1.37c-.07-.06-.17-.13-.25-.04-.08.1-.3.15-.58.15s-.15-.11-.63-.17c-.48-.05-.44-.35-.44-.54s.17-.55.35-.99.44-.53.55-.53c.12,0,.28.13.41.13s.22-.13.22-.22c0-.1-.03-.3-.15-.38-.11-.07-.25-.22-.55-.22-.19,0-.37.11-.61.18-.26.08-.52.51-.67.88-.15.36-.3.88-.3,1.12s.21.72.37.95c.15.23.58.36.76.3.17-.05.25.19.53.19s.81-.26.98-.41.1-.32.02-.38Zm5.37.59c0-.15-.23-.3-.45-.45-.2-.15-.34-.45-.51-.7-.17-.24-.33-.55-.37-.7-.04-.15,0-.54,0-.82s-.26-.44-.39-.51c-.13-.08-.44-.25-.61-.25-.08,0-.15-.03-.23.04-.07.08-.29-.09-.36.02-.08.11-.31.06-.39.11-.07.06-.57.45-.73.76-.15.3-.37.8-.37,1.08s.07.56.15.68c.07.11.04.37.15.41.11.04.35.43.81.43s.85-.39.9-.49c.06-.09.3-.24.31-.45.02-.21.16-.32.28-.32s.13.19.22.3c.1.12.35.29.37.45.02.17.21.32.35.4.13.08.39.36.54.36s.33-.19.33-.34Zm-2.08-2.81c.04.1-.09.32-.13.47-.03.15-.15.61-.31.9-.15.28-.48.86-.81.86s-.35-.36-.35-.61.04-.75.19-.75.15-.38.29-.39c.14-.02.1-.17.19-.25.1-.07.13-.21.26-.21.11,0,.15.02.25.02.11,0,.39-.11.42-.02Zm4.88-.11c0-.14-.21-.29-.4-.34-.18-.04-.42-.14-.65-.14-.27,0-.46.3-.53.4-.07.1-.25.34-.25.63s.27,1.04.46,1.26c.2.21.17.31-.14.41-.32.09-.37,0-.37-.08,0-.07-.1-.24-.3-.12-.18.11-.17.17-.37.11-.2-.06-.52.17-.52.35,0,.19.33.38.47.44.15.06.35.04.52-.04.17-.09.31.03.48.03s.52-.06.69-.16c.16-.1.43-.18.43-.51s-.21-.74-.32-.88-.28-.48-.28-.59c0-.12-.03-.31.1-.31s.15-.16.28-.16c.11,0,.08.17.26.17s.43-.33.43-.47Zm4.3-.1c0-.15-.36-.28-.49-.21-.13.07-.42-.14-.69-.15-.28-.02-.35-.12-.46-.1-.11.01-.26-.02-.26-.16v-.69c0-.22-.09-.51-.13-.63-.04-.13-.2-.2-.41-.2-.21,0-.26.61-.26.78s.07.62.07.88-.5.11-.63.11-.2.19-.2.41.28.24.35.3c.07.06.29-.06.43-.06s.13.54.13.93-.03.8-.13.91c-.1.1-.25.21-.25.31s.12.12.17.24c.06.13.28.24.42.24s.28-.14.36-.25c.09-.11.19-.42.19-.78s-.1-1.39-.1-1.54c0-.16.14-.12.2-.08.05.05.25.08.32,0,.07-.07.21-.09.43-.02.21.07.38.02.5.01.13-.01.44-.07.44-.23Zm-95.25,12.07c0-.15-.36-.28-.49-.21-.13.07-.42-.14-.69-.15-.28-.02-.35-.12-.46-.1-.11.01-.26-.02-.26-.16v-.69c0-.22-.09-.51-.13-.63-.04-.13-.2-.2-.41-.2-.21,0-.26.61-.26.78s.07.62.07.88-.5.11-.63.11-.2.19-.2.41.28.24.35.3c.07.06.29-.06.43-.06s.13.54.13.93-.03.8-.13.91-.25.21-.25.31.12.12.17.24c.06.13.28.24.42.24s.28-.14.36-.25c.09-.11.19-.42.19-.78s-.1-1.39-.1-1.54c0-.16.14-.12.2-.08.05.05.25.08.32,0,.07-.07.21-.09.43-.02s.38.02.5.01c.13-.01.44-.07.44-.23Zm5,2.52c0-.14-.2-.38-.31-.52-.1-.15-.38-.46-.41-.67-.02-.21-.16-.29-.26-.52-.08-.23-.46-.59-.96-.59s-.97.66-1.07.8c-.1.14-.2.4-.31.4-.09,0-.11-.6-.09-.78.01-.18-.31-1.87-.34-2.14-.03-.27.03-.64.03-.79,0-.16-.17-.49-.36-.49-.09,0-.38.11-.38.26,0,.16-.01.57.03.94.04.37.3,2.26.33,2.73.03.47.32,1.21.32,1.45s.31.3.45.3.17-.1.32-.14c.14-.04.16-.34.16-.54s.18-.48.33-.75c.14-.26.36-.43.58-.43s.32.19.5.32c.18.13.17.5.29.61.11.11.17.37.38.46.2.1.3.24.42.24.11,0,.35.02.35-.12Zm3.99-.23c0-.09-.29-.04-.5-.04s-.04.19-.69.19-.83-.13-.98-.28-.03-.26.14-.28c.16-.02.51-.42.63-.53.11-.11.18-.34.4-.45.21-.11.17-.34.23-.47.05-.13,0-.4-.13-.64-.14-.24-.26-.36-.69-.36-.19,0-.91.23-1.19.42-.29.18-.55.79-.55,1.06s.13.77,0,.88c-.14.09.18.45.61.87.42.42.63.49,1.33.49s.94-.28,1.13-.41c.18-.14.27-.32.27-.42Zm-1.57-2.11c.07.11-.08.22-.21.39-.13.17-.4.38-.48.53-.08.15-.41.34-.39.05.02-.28.12-.43.33-.64.21-.2.3-.26.43-.26.11,0,.25-.19.33-.07Zm7.94,1.6c0-.33-.27-.22-.32-.78-.04-.31-.28-.42-.44-.75-.15-.33-.64-.59-.86-.59s-.56.42-.73.62c-.15.2-.42.66-.57.95-.16.28-.3.1-.3-.05s-.1-.48-.25-.7c-.14-.21-.39-.32-.54-.32-.16,0-.25,0-.48.34-.22.35-.32.55-.32-.03s-.17-.64-.4-.64c-.12,0-.28.17-.32.31-.05.15-.02.5.07.56.08.07.05,1.06.05,1.44s.23.46.41.46.47-.24.47-.46.14-.58.34-.79c.18-.21-.02-.33.2-.33s.21.92.33,1.12c.11.19.35.56.65.56s.49-.61.61-.95c.13-.33.37-.53.51-.92.14-.37.29-.28.49-.09.19.18.15.36.29.36s.07.39.17.41c.1.01.25.31.25.52s.19.4.33.4.34-.31.34-.64Zm7.99,1.25c0-.15-.23-.3-.45-.45-.2-.15-.34-.45-.51-.7-.17-.24-.33-.55-.37-.7-.04-.15,0-.54,0-.82s-.26-.44-.39-.51c-.13-.08-.44-.25-.61-.25-.08,0-.15-.03-.23.04-.07.08-.29-.09-.36.02-.08.11-.31.06-.39.11-.07.06-.57.45-.73.76-.15.3-.37.8-.37,1.08s.07.56.15.68c.07.11.04.37.15.41.11.04.35.43.81.43s.85-.39.9-.49c.06-.09.3-.24.31-.45.02-.21.16-.32.28-.32s.13.19.22.3c.1.12.35.29.37.45.02.17.21.32.35.4.13.08.39.36.54.36s.33-.19.33-.34Zm-2.08-2.81c.04.1-.09.32-.13.47-.03.15-.15.61-.31.9s-.48.86-.81.86-.35-.36-.35-.61.04-.75.19-.75.15-.38.29-.39c.14-.02.1-.17.19-.25.1-.07.13-.21.26-.21.11,0,.15.02.25.02.11,0,.39-.11.42-.02Zm3.96,2.27c0-.15-.2-.46-.2-.81s-.18-1.04-.18-1.54-.18-1.8-.18-1.94.01-.33.07-.48c.05-.16-.25-.34-.46-.34-.12,0-.28.01-.28.2,0,.18.03,2.07.08,2.54.06.47.19,1.75.19,2.07s.14.46.18.54c.04.08.2.24.32.24s.17-.1.23-.17c.05-.07.22-.14.22-.3Zm2.7,0c0-.15-.2-.46-.2-.81s-.18-1.04-.18-1.54-.18-1.8-.18-1.94.01-.33.07-.48c.05-.16-.25-.34-.46-.34-.12,0-.28.01-.28.2,0,.18.03,2.07.08,2.54.06.47.19,1.75.19,2.07s.14.46.18.54c.04.08.2.24.32.24s.17-.1.23-.17c.05-.07.22-.14.22-.3Zm6.64-1.52c0-.48-.42-.97-.58-1.02-.15-.06-.7-.5-.84-.5-.11,0-.4.26-.4.47s.17.4.29.4.35.09.49.16c.14.08.38.44.38.57s-.02.22-.19.51c-.17.28-.33.45-.63.45s-.42-.23-.42-.33c0-.09-.22-.29-.22-.55s.25-.62.25-.74c0-.13-.28-.2-.41-.2s-.25.13-.31.34c-.05.21-.26.46-.26.66s.11.59.25.66c.13.07.14.61.28.62.13.02.69.34.98.34s.69-.38.91-.63c.21-.26.45-.74.45-1.23Zm4.63-1.02c0-.15-.2-.15-.31-.32-.1-.17-.29-.17-.36-.06s-.19.06-.2.13-.14.25-.28.27c-.12.01-.04.36-.18.39-.14.03-.16.4-.28.47s-.21.43-.31.53c-.08.1-.25.5-.39.5s-.12-.24-.14-.41c-.01-.17-.17-.34-.26-.55-.09-.21,0-.36.03-.47.02-.11-.17-.17-.19-.27-.01-.1-.28-.22-.44-.22s-.23.39-.16.48c.07.08.04.48.11.56.07.09.19.47.23.82.04.35.21.4.31.69.08.3.41.5.56.5.14,0,.26-.12.26-.2,0-.09.13-.26.23-.31.09-.06.05-.24.12-.24s.04-.26.12-.26c.07,0,.18-.12.15-.22-.03-.1.28-.37.34-.45.05-.09.05-.3.21-.38.15-.09.07-.24.14-.24s.28-.34.4-.34c.13,0,.27-.24.27-.4Zm4.1,2.33c0-.09-.29-.04-.5-.04s-.04.19-.69.19-.83-.13-.98-.28c-.15-.15-.03-.26.14-.28.16-.02.51-.42.63-.53.11-.11.18-.34.4-.45.21-.11.17-.34.23-.47.05-.13,0-.4-.13-.64-.14-.24-.26-.36-.69-.36-.19,0-.91.23-1.19.42-.29.18-.55.79-.55,1.06s.13.77,0,.88c-.14.09.18.45.61.87.42.42.63.49,1.33.49s.94-.28,1.13-.41c.18-.14.27-.32.27-.42Zm-1.57-2.11c.07.11-.08.22-.21.39-.13.17-.4.38-.48.53-.08.15-.41.34-.39.05.02-.28.12-.43.33-.64.21-.2.3-.26.43-.26.11,0,.25-.19.33-.07Zm5.15-.13c0-.1-.25-.37-.37-.37-.13,0-.34,0-.46.1-.13.1-.37.08-.55.18-.18.1-.29.17-.42.27s-.2,0-.21-.1c-.01-.1-.2-.17-.32-.17-.34,0-.28.38-.21.58.05.2.11.44.04.58-.07.14-.1.39-.01.42.08.03.08.62.14.79.05.17.21.43.5.43s.35-.37.31-.58c-.05-.21-.05-.6-.05-.86s.15-.3.22-.46c.07-.17.33-.37.46-.48.12-.12.47-.19.61-.19.15,0,.32-.05.32-.15Zm6.47-.04c0-.15-.36-.28-.49-.21-.13.07-.42-.14-.69-.15-.28-.02-.35-.12-.46-.1-.11.01-.26-.02-.26-.16v-.69c0-.22-.09-.51-.13-.63-.04-.13-.2-.2-.41-.2-.21,0-.26.61-.26.78s.07.62.07.88-.5.11-.63.11-.2.19-.2.41.28.24.35.3c.07.06.29-.06.43-.06s.13.54.13.93-.03.8-.13.91c-.1.1-.25.21-.25.31s.12.12.17.24c.06.13.28.24.42.24s.28-.14.36-.25c.09-.11.19-.42.19-.78s-.1-1.39-.1-1.54c0-.16.14-.12.2-.08.05.05.25.08.32,0,.07-.07.21-.09.43-.02.21.07.38.02.5.01.13-.01.44-.07.44-.23Zm5,2.52c0-.14-.2-.38-.31-.52-.1-.15-.38-.46-.41-.67-.02-.21-.16-.29-.26-.52-.08-.23-.46-.59-.96-.59s-.97.66-1.07.8c-.1.14-.2.4-.31.4-.09,0-.11-.6-.09-.78.01-.18-.31-1.87-.34-2.14-.03-.27.03-.64.03-.79,0-.16-.17-.49-.36-.49-.09,0-.38.11-.38.26,0,.16-.01.57.03.94.04.37.3,2.26.33,2.73.03.47.32,1.21.32,1.45s.31.3.45.3.17-.1.32-.14.16-.34.16-.54.18-.48.33-.75c.14-.26.36-.43.58-.43s.32.19.5.32c.18.13.17.5.29.61s.17.37.38.46c.2.1.3.24.42.24.11,0,.35.02.35-.12Zm3.99-.23c0-.09-.29-.04-.5-.04s-.04.19-.69.19-.83-.13-.98-.28c-.15-.15-.03-.26.14-.28.16-.02.51-.42.63-.53.11-.11.18-.34.4-.45.21-.11.17-.34.23-.47.05-.13,0-.4-.13-.64-.14-.24-.26-.36-.69-.36-.19,0-.91.23-1.19.42-.29.18-.55.79-.55,1.06s.13.77,0,.88c-.14.09.18.45.61.87.42.42.63.49,1.33.49s.94-.28,1.13-.41c.18-.14.27-.32.27-.42Zm-1.57-2.11c.07.11-.08.22-.21.39-.13.17-.4.38-.48.53-.08.15-.41.34-.39.05.02-.28.12-.43.33-.64.21-.2.3-.26.43-.26.11,0,.25-.19.33-.07Zm8.15.69c0-.13.08-.44-.04-.48-.13-.05-.16-.19-.28-.27-.11-.09-.56-.31-.85-.31-.42,0-.54.14-.66.21-.13.07-.35.27-.46.32-.12.06-.13.32-.23.32s-.31-.1-.45,0c-.14.09-.01.28.07.43.09.16.1,1.06-.05,1.68-.14.62.19,1.25.19,1.68s.31.65.4.92c.08.26.21.27.44.27s.35-.24.35-.39c0-.14-.09-.46-.13-.62-.04-.16-.08-.9-.11-1.19-.03-.3-.3-1.28-.3-1.46,0-.19.09-.06.15.03.06.08.26.17.52.17s.4-.05.64-.05.32-.28.52-.49c.2-.21.28-.64.28-.76Zm-.74,0c0,.14-.13.34-.23.43-.09.1-.22.24-.49.24s-.36-.02-.44.07c-.09.1-.2,0-.2-.16,0-.17.18-.47.32-.61s.46-.37.67-.37c.27,0,.38.26.38.4Zm3.34,1.62c0-.15-.2-.46-.2-.81s-.18-1.04-.18-1.54-.18-1.8-.18-1.94.01-.33.07-.48c.05-.16-.25-.34-.46-.34-.12,0-.28.01-.28.2,0,.18.03,2.07.08,2.54.06.47.19,1.75.19,2.07s.14.46.18.54c.04.08.2.24.32.24s.17-.1.23-.17c.05-.07.22-.14.22-.3Zm5.64.53c0-.15-.23-.3-.45-.45-.2-.15-.34-.45-.51-.7-.17-.24-.33-.55-.37-.7-.04-.15,0-.54,0-.82s-.26-.44-.39-.51c-.13-.08-.44-.25-.61-.25-.08,0-.15-.03-.23.04-.07.08-.29-.09-.36.02-.08.11-.31.06-.39.11-.07.06-.57.45-.73.76-.15.3-.37.8-.37,1.08s.07.56.15.68c.07.11.04.37.15.41.11.04.35.43.81.43s.85-.39.9-.49c.06-.09.3-.24.31-.45.02-.21.16-.32.28-.32s.13.19.22.3c.1.12.35.29.37.45.02.17.21.32.35.4.13.08.39.36.54.36s.33-.19.33-.34Zm-2.08-2.81c.04.1-.09.32-.13.47-.03.15-.15.61-.31.9-.15.28-.48.86-.81.86s-.35-.36-.35-.61.04-.75.19-.75.15-.38.29-.39c.14-.02.1-.17.19-.25.1-.07.13-.21.26-.21.11,0,.15.02.25.02.11,0,.39-.11.42-.02Zm5.16,2.21c-.07-.06-.17-.13-.25-.04-.08.1-.3.15-.58.15s-.15-.11-.63-.17c-.48-.05-.44-.35-.44-.54s.17-.55.35-.99.44-.53.55-.53c.12,0,.28.13.41.13s.22-.13.22-.22c0-.1-.03-.3-.15-.38-.11-.07-.25-.22-.55-.22-.19,0-.37.11-.61.18-.26.08-.52.51-.67.88-.15.36-.3.88-.3,1.12s.21.72.37.95c.15.23.58.36.76.3.17-.05.25.19.53.19s.81-.26.98-.41.1-.32.02-.38Zm4.26-.14c0-.09-.29-.04-.5-.04s-.04.19-.69.19-.83-.13-.98-.28c-.15-.15-.03-.26.14-.28.16-.02.51-.42.63-.53.11-.11.18-.34.4-.45.21-.11.17-.34.23-.47.05-.13,0-.4-.13-.64-.14-.24-.26-.36-.69-.36-.19,0-.91.23-1.19.42-.29.18-.55.79-.55,1.06s.13.77,0,.88c-.14.09.18.45.61.87.42.42.63.49,1.33.49s.94-.28,1.13-.41c.18-.14.27-.32.27-.42Zm-1.57-2.11c.07.11-.08.22-.21.39-.13.17-.4.38-.48.53-.08.15-.41.34-.39.05.02-.28.12-.43.33-.64.21-.2.3-.26.43-.26.11,0,.25-.19.33-.07Zm3.68,2.24c0-.14-.07-.55-.16-.55-.08,0-.27-.21-.43-.21-.23,0-.21.22-.38.34-.15.11.02.14.02.25s.25.38.29.38.31.14.45.14.21-.21.21-.35Zm-84.83,10.43c0-.17-.57-.1-.93-.11-.37-.01-.48-.13-.55-.26-.07-.12-.53-1.16-.78-1.62-.25-.47-.56-1.11-1-1.11s-.37.56-.39.82c-.01.25-.7,2.05-.86,2.64-.16.58-.51,1.9-.55,2.1-.04.21-.2.29-.2.41,0,.11.13.2.18.23.06.03.1.22.2.22s.14-.06.25-.1c.1-.05.14-.15.13-.24-.03-.17.38-1.55.43-1.77.06-.22.07-.19.25-.18.17.01.48-.12.8-.22.32-.09.69-.24.91-.31.21-.07.28-.01.32.09.04.11.14.41.21.64.07.23-.17.38-.17.51,0,.12.26.07.38.17.11.11.11.32.21.32s.1-.2.29-.31c.18-.1.2-.22.11-.46-.08-.24-.34-.95-.34-1.07,0-.13.47-.17.75-.12.28.05.36-.1.36-.28Zm-2.22-.41c.1.19.25.34-.03.38-.28.03-1.06.24-1.21.3-.15.06-.41.08-.27-.23.14-.31.53-1.58.55-1.77.01-.18.17-.45.35-.03.09.23.5,1.15.6,1.35Zm7.37,1.94c0-.11-.28-.18-.42-.58-.06-.16-.15-.62-.26-.88-.1-.25-.44-.61-.62-.64-.18-.02-.56-.26-.66-.26s-.29.17-.46.17-.34.19-.46.26c-.13.07-.21.1-.49.5-.28.39-.25-.14-.25-.47s-.31-.44-.49-.44c-.38,0-.28.51-.17.74.1.22.11,1.14.11,1.29,0,.16.42.71.53.71.12,0,.12-.16.25-.21.13-.06.25-.13.2-.29-.04-.15.14-.59.34-.91.18-.31.5-.42.76-.56.27-.14.38,0,.47.07.08.07.33.38.4.63.07.26.23.76.23,1.01s.35.39.49.39.5-.41.5-.53Zm4.35,3.24c0-.32-.01-.68-.07-.72-.05-.04-.02-.44-.02-.76s-.17-1.52-.17-1.74-.12-.71-.19-.76c-.07-.06-.08-.26-.08-.55s-.06-.53-.16-.53-.3-.19-.36-.19-.2.05-.23.14c-.02.08-.22.48-.51.77-.3.3-.41.38-.55.38s-.15-.21-.15-.39.09-.68.09-.82-.09-.32-.17-.34c-.07-.01-.19-.12-.3-.12-.19,0-.13.14-.23.19-.1.06-.12.54-.12.74s.07.69.07.91.19.49.27.51c.07.01.32.22.47.22.14,0,.27-.24.37-.25.1-.01.34-.16.44-.3.09-.14.33-.38.44-.38.12,0,.07.64.17.84.1.2.2,1.37.2,1.82s-.04.85-.08,1.01c-.05.15-.06.42,0,.44.05.01.15.43.26.46.1.03.18.19.31.19.11,0,.18-.1.26-.19.07-.08.08-.22.08-.55Zm5.62-5.43c0-.18-.34-.24-.42-.36-.09-.13-.28-.17-.39-.17-.12,0-.32.2-.32.34s.02.45.07.65c.04.19.12.48.12.81s-.15.48-.39.48-.32-.01-.36-.15-.25-.38-.38-.44c-.12-.05-.11-.34-.18-.35-.07-.02-.32-.24-.41-.24-.08,0-.11.03-.22.08-.11.06-.28.19-.35.33s-.1.38-.2.38-.08-.1-.11-.25c-.03-.16-.07-.46-.06-.6.02-.14-.15-.36-.28-.36-.11,0-.19-.16-.33-.16-.14,0-.2.28-.2.47,0,.18.02.45.12.65.09.19.05.47.05.71s.17.41.2.64c.03.23.46.27.6.27s.13-.09.13-.2.13-.15.15-.3c.03-.14.25-.24.25-.33,0-.1.06-.27.23-.27s.43.42.6.58c.17.15.58.35.7.35.13,0,.19-.13.31-.13s.45-.08.57-.2c.13-.11.25-.69.25-.9s-.08-.69-.08-.88.31-.28.31-.47Zm5.53,2.91c0-.15-.23-.3-.45-.45-.2-.15-.34-.45-.51-.7-.17-.24-.33-.55-.37-.7-.04-.15,0-.54,0-.82s-.26-.44-.39-.51c-.13-.08-.44-.25-.61-.25-.08,0-.15-.03-.23.04-.07.08-.29-.09-.36.02-.08.11-.31.06-.39.11-.07.06-.57.45-.73.76-.15.3-.37.8-.37,1.08s.07.56.15.68c.07.11.04.37.15.41.11.04.35.43.81.43s.85-.39.9-.49c.06-.09.3-.24.31-.45.02-.21.16-.32.28-.32s.13.19.22.3c.1.12.35.29.37.45.02.17.21.32.35.4.13.08.39.36.54.36s.33-.19.33-.34Zm-2.08-2.81c.04.1-.09.32-.13.47-.03.15-.15.61-.31.9s-.48.86-.81.86-.35-.36-.35-.61.04-.75.19-.75.15-.38.29-.39c.14-.02.1-.17.19-.25.1-.07.13-.21.26-.21.11,0,.15.02.25.02.11,0,.39-.11.42-.02Zm5.85,5.33c0-.32-.01-.68-.07-.72-.05-.04-.02-.44-.02-.76s-.17-1.52-.17-1.74-.12-.71-.19-.76c-.07-.06-.08-.26-.08-.55s-.06-.53-.16-.53-.3-.19-.36-.19-.2.05-.23.14c-.02.08-.22.48-.51.77-.3.3-.41.38-.55.38s-.15-.21-.15-.39.09-.68.09-.82-.09-.32-.17-.34c-.07-.01-.19-.12-.3-.12-.19,0-.13.14-.23.19-.1.06-.12.54-.12.74s.07.69.07.91.19.49.27.51c.07.01.32.22.47.22.14,0,.27-.24.37-.25.1-.01.34-.16.44-.3.09-.14.33-.38.44-.38.12,0,.07.64.17.84.1.2.2,1.37.2,1.82s-.04.85-.08,1.01c-.05.15-.06.42,0,.44.05.01.15.43.26.46s.18.19.31.19c.11,0,.18-.1.26-.19.07-.08.08-.22.08-.55Zm2.94-2.41c.06-.18.01-.43,0-.56-.01-.13-.22-.48-.32-.55-.1-.07-.2-.26-.37-.26-.08,0-.35.04-.36.09-.01.06-.19.11-.33.11-.14,0-.22.21-.22.37s.09.26.19.38c.11.12.29.06.54-.01.27-.07.17.13.17.29s-.17.36-.17.45-.18.21-.18.31c0,.11-.13.25-.29.39-.15.13-.26.3-.26.4,0,.11.02.26.11.26.1,0,.13.12.23.12.11,0,.1-.05.2-.12.11-.07.15-.18.22-.22.07-.05.19-.24.25-.39.06-.15.28-.33.3-.42.03-.1.2-.47.27-.64Zm7.47-3.13c0-.15-.36-.28-.49-.21s-.42-.14-.69-.15c-.28-.02-.35-.12-.46-.1-.11.01-.26-.02-.26-.16v-.69c0-.22-.09-.51-.13-.63-.04-.13-.2-.2-.41-.2-.21,0-.26.61-.26.78s.07.62.07.88-.5.11-.63.11-.2.19-.2.41.28.24.35.3c.07.06.29-.06.43-.06s.13.54.13.93-.03.8-.13.91c-.1.1-.25.21-.25.31s.12.12.17.24c.06.13.28.24.42.24s.28-.14.36-.25c.09-.11.19-.42.19-.78s-.1-1.39-.1-1.54c0-.16.14-.12.2-.08.05.05.25.08.32,0,.07-.07.21-.09.43-.02s.38.02.5.01c.13-.01.44-.07.44-.23Zm5,2.52c0-.14-.2-.38-.31-.52-.1-.15-.38-.46-.41-.67-.02-.21-.16-.29-.26-.52-.08-.23-.46-.59-.96-.59s-.97.66-1.07.8-.2.4-.31.4c-.09,0-.11-.6-.09-.78.01-.18-.31-1.87-.34-2.14-.03-.27.03-.64.03-.79,0-.16-.17-.49-.36-.49-.09,0-.38.11-.38.26,0,.16-.01.57.03.94.04.37.3,2.26.33,2.73.03.47.32,1.21.32,1.45s.31.3.45.3.17-.1.32-.14.16-.34.16-.54.18-.48.33-.75c.14-.26.36-.43.58-.43s.32.19.5.32c.18.13.17.5.29.61s.17.37.38.46c.2.1.3.24.42.24.11,0,.35.02.35-.12Zm3.99-.23c0-.09-.29-.04-.5-.04s-.04.19-.69.19-.83-.13-.98-.28c-.15-.15-.03-.26.14-.28.16-.02.51-.42.63-.53.11-.11.18-.34.4-.45.21-.11.17-.34.23-.47.05-.13,0-.4-.13-.64-.14-.24-.26-.36-.69-.36-.19,0-.91.23-1.19.42-.29.18-.55.79-.55,1.06s.13.77,0,.88c-.14.09.18.45.61.87.42.42.63.49,1.33.49s.94-.28,1.13-.41c.18-.14.27-.32.27-.42Zm-1.57-2.11c.07.11-.08.22-.21.39-.13.17-.4.38-.48.53-.08.15-.41.34-.39.05.02-.28.12-.43.33-.64.21-.2.3-.26.43-.26.11,0,.25-.19.33-.07Zm5.71,5.37c0-.32-.01-.68-.07-.72-.05-.04-.02-.44-.02-.76s-.17-1.52-.17-1.74-.12-.71-.19-.76c-.07-.06-.08-.26-.08-.55s-.06-.53-.16-.53-.3-.19-.36-.19-.2.05-.23.14c-.02.08-.22.48-.51.77-.3.3-.41.38-.55.38s-.15-.21-.15-.39.09-.68.09-.82-.09-.32-.17-.34c-.07-.01-.19-.12-.3-.12-.19,0-.13.14-.23.19-.1.06-.12.54-.12.74s.07.69.07.91.19.49.27.51c.07.01.32.22.47.22.14,0,.27-.24.37-.25.1-.01.34-.16.44-.3.09-.14.33-.38.44-.38.12,0,.07.64.17.84.1.2.2,1.37.2,1.82s-.04.85-.08,1.01c-.05.15-.06.42,0,.44.05.01.15.43.26.46.1.03.18.19.31.19.11,0,.18-.1.26-.19.07-.08.08-.22.08-.55Zm8.19-2.53c0-.15-.23-.3-.45-.45-.2-.15-.34-.45-.51-.7-.17-.24-.33-.55-.37-.7-.04-.15,0-.54,0-.82s-.26-.44-.39-.51c-.13-.08-.44-.25-.61-.25-.08,0-.15-.03-.23.04-.07.08-.29-.09-.36.02-.08.11-.31.06-.39.11-.07.06-.57.45-.73.76-.15.3-.37.8-.37,1.08s.07.56.15.68c.07.11.04.37.15.41.11.04.35.43.81.43s.85-.39.9-.49c.06-.09.3-.24.31-.45.02-.21.16-.32.28-.32s.13.19.22.3c.1.12.35.29.37.45.02.17.21.32.35.4.13.08.39.36.54.36s.33-.19.33-.34Zm-2.08-2.81c.04.1-.09.32-.13.47-.03.15-.15.61-.31.9-.15.28-.48.86-.81.86s-.35-.36-.35-.61.04-.75.19-.75.15-.38.29-.39c.14-.02.1-.17.19-.25.1-.07.13-.21.26-.21.11,0,.15.02.25.02.11,0,.39-.11.42-.02Zm3.96,2.27c0-.15-.2-.46-.2-.81s-.18-1.04-.18-1.54-.18-1.8-.18-1.94.01-.33.07-.48c.05-.16-.25-.34-.46-.34-.12,0-.28.01-.28.2,0,.18.03,2.07.08,2.54.06.47.19,1.75.19,2.07s.14.46.18.54c.04.08.2.24.32.24s.17-.1.23-.17c.05-.07.22-.14.22-.3Zm2.7,0c0-.15-.2-.46-.2-.81s-.18-1.04-.18-1.54-.18-1.8-.18-1.94.01-.33.07-.48c.05-.16-.25-.34-.46-.34-.12,0-.28.01-.28.2,0,.18.03,2.07.08,2.54.06.47.19,1.75.19,2.07s.14.46.18.54c.04.08.2.24.32.24s.17-.1.23-.17c.05-.07.22-.14.22-.3Zm6.49-.06c-.07-.06-.17-.13-.25-.04-.08.1-.3.15-.58.15s-.15-.11-.63-.17c-.48-.05-.44-.35-.44-.54s.17-.55.35-.99.44-.53.55-.53c.12,0,.28.13.41.13s.22-.13.22-.22c0-.1-.03-.3-.15-.38-.11-.07-.25-.22-.55-.22-.19,0-.37.11-.61.18-.26.08-.52.51-.67.88-.15.36-.3.88-.3,1.12s.21.72.37.95c.15.23.58.36.76.3.17-.05.25.19.53.19s.81-.26.98-.41.1-.32.02-.38Zm3.78-1.46c0-.48-.42-.97-.58-1.02-.15-.06-.7-.5-.84-.5-.11,0-.4.26-.4.47s.17.4.29.4.35.09.49.16c.14.08.38.44.38.57s-.02.22-.19.51c-.17.28-.33.45-.63.45s-.42-.23-.42-.33c0-.09-.22-.29-.22-.55s.25-.62.25-.74c0-.13-.28-.2-.41-.2s-.25.13-.31.34c-.05.21-.26.46-.26.66s.11.59.25.66c.13.07.14.61.28.62.13.02.69.34.98.34s.69-.38.91-.63c.21-.26.45-.74.45-1.23Zm6.77.8c0-.33-.27-.22-.32-.78-.04-.31-.28-.42-.44-.75-.15-.33-.64-.59-.86-.59s-.56.42-.73.62c-.15.2-.42.66-.57.95-.16.28-.3.1-.3-.05s-.1-.48-.25-.7c-.14-.21-.39-.32-.54-.32-.16,0-.25,0-.48.34-.22.35-.32.55-.32-.03s-.17-.64-.4-.64c-.12,0-.28.17-.32.31-.05.15-.02.5.07.56.08.07.05,1.06.05,1.44s.23.46.41.46.47-.24.47-.46.14-.58.34-.79c.18-.21-.02-.33.2-.33s.21.92.33,1.12c.11.19.35.56.65.56s.49-.61.61-.95c.13-.33.37-.53.51-.92.14-.37.29-.28.49-.09.19.18.15.36.29.36s.07.39.17.41c.1.01.25.31.25.52s.19.4.33.4.34-.31.34-.64Zm4.3.51c0-.09-.29-.04-.5-.04s-.04.19-.69.19-.83-.13-.98-.28c-.15-.15-.03-.26.14-.28.16-.02.51-.42.63-.53.11-.11.18-.34.4-.45.21-.11.17-.34.23-.47.05-.13,0-.4-.13-.64-.14-.24-.26-.36-.69-.36-.19,0-.91.23-1.19.42-.29.18-.55.79-.55,1.06s.13.77,0,.88c-.14.09.18.45.61.87.42.42.63.49,1.33.49s.94-.28,1.13-.41c.18-.14.27-.32.27-.42Zm-1.57-2.11c.07.11-.08.22-.21.39-.13.17-.4.38-.48.53-.08.15-.41.34-.39.05.02-.28.12-.43.33-.64.21-.2.3-.26.43-.26.11,0,.25-.19.33-.07Zm7.76.79c0-.48-.42-.97-.58-1.02-.15-.06-.7-.5-.84-.5-.11,0-.4.26-.4.47s.17.4.29.4.35.09.49.16c.14.08.38.44.38.57s-.02.22-.19.51c-.17.28-.33.45-.63.45s-.42-.23-.42-.33c0-.09-.22-.29-.22-.55s.25-.62.25-.74c0-.13-.28-.2-.41-.2s-.25.13-.31.34c-.05.21-.26.46-.26.66s.11.59.25.66.14.61.28.62c.13.02.69.34.98.34s.69-.38.91-.63c.21-.26.45-.74.45-1.23Zm5.01,1.61c0-.05-.03-.09-.09-.13-.07-.05-.14-.09-.2-.16-.17-.19-.49-.55-.53-.8-.03-.12-.11-.27-.19-.42-.04-.08-.09-.16-.12-.23-.04-.08-.07-.15-.09-.21-.05-.21-.33-.36-.45-.36-.07,0-.14.1-.22.2-.09.12-.17.25-.22.32-.02.02-.04.07-.07.12l-.07.16c-.06.12-.13.22-.19.22-.02,0-.04,0-.06.02l-.1.06c-.06.04-.15.09-.27.09-.22,0-.32-.7-.26-.92l.11-.27c.03-.08.05-.14.05-.19,0-.09-.23-.26-.39-.26-.08,0-.17.12-.18.25-.01.08-.07.15-.11.21-.05.07-.11.16-.15.28-.07.24-.15.69-.08.74.05.02.09.17.12.33.02.08.04.16.05.24l.05.18c.08.19.5.46.62.46.14,0,.58-.24.6-.35.01-.09.09-.16.16-.21.04-.02.08-.05.11-.08.09-.06.12-.1.18-.19.06-.08.18-.28.3-.28.07,0,.13.1.19.24.04.12.08.26.13.36.09.2.36.46.55.55.21.09.51.2.62.2s.2-.07.2-.18Zm3.81-2.58c0-.15-.36-.28-.49-.21-.13.07-.42-.14-.69-.15-.28-.02-.35-.12-.46-.1-.11.01-.26-.02-.26-.16v-.69c0-.22-.09-.51-.13-.63-.04-.13-.2-.2-.41-.2-.21,0-.26.61-.26.78s.07.62.07.88-.5.11-.63.11-.2.19-.2.41.28.24.35.3c.07.06.29-.06.43-.06s.13.54.13.93-.03.8-.13.91c-.1.1-.25.21-.25.31s.12.12.17.24c.06.13.28.24.42.24s.28-.14.36-.25c.09-.11.19-.42.19-.78s-.1-1.39-.1-1.54c0-.16.14-.12.2-.08.05.05.25.08.32,0,.07-.07.21-.09.43-.02.21.07.38.02.5.01.13-.01.44-.07.44-.23Zm-99.8,12.17c0-.14-.21-.29-.4-.34-.18-.04-.42-.14-.65-.14-.27,0-.46.3-.53.4-.07.1-.25.34-.25.63s.27,1.04.46,1.26c.2.21.17.31-.14.41-.32.09-.37,0-.37-.08,0-.07-.1-.24-.3-.12-.18.11-.17.17-.37.11-.2-.06-.52.17-.52.35,0,.19.33.38.47.44.15.06.35.04.52-.04.17-.09.31.03.48.03s.52-.06.69-.16c.16-.1.43-.18.43-.51s-.21-.74-.32-.88c-.1-.13-.28-.48-.28-.59,0-.12-.03-.31.1-.31s.15-.16.28-.16c.11,0,.08.17.26.17s.43-.33.43-.47Zm3.83.87c0-.48-.42-.97-.58-1.02-.15-.06-.7-.5-.84-.5-.11,0-.4.26-.4.47s.17.4.29.4.35.09.49.16c.14.08.38.44.38.57s-.02.22-.19.51c-.17.28-.33.45-.63.45s-.42-.23-.42-.33c0-.09-.22-.29-.22-.55s.25-.62.25-.74c0-.13-.28-.2-.41-.2s-.25.13-.31.34c-.05.21-.26.46-.26.66s.11.59.25.66.14.61.28.62c.13.02.69.34.98.34s.69-.38.91-.63c.21-.26.45-.74.45-1.23Zm4.01,0c0-.48-.42-.97-.58-1.02-.15-.06-.7-.5-.84-.5-.11,0-.4.26-.4.47s.17.4.29.4.35.09.49.16c.14.08.38.44.38.57s-.02.22-.19.51c-.17.28-.33.45-.63.45s-.42-.23-.42-.33c0-.09-.22-.29-.22-.55s.25-.62.25-.74c0-.13-.28-.2-.41-.2s-.25.13-.31.34c-.05.21-.26.46-.26.66s.11.59.25.66c.13.07.14.61.28.62.13.02.69.34.98.34s.69-.38.91-.63c.21-.26.45-.74.45-1.23Zm5.58,1.34c0-.11-.28-.18-.42-.58-.06-.16-.15-.62-.26-.88-.1-.25-.44-.61-.62-.64-.18-.02-.56-.26-.66-.26s-.29.17-.46.17-.34.19-.46.26c-.13.07-.21.1-.49.5-.28.39-.25-.14-.25-.47s-.31-.44-.49-.44c-.38,0-.28.51-.17.74.1.22.11,1.14.11,1.29,0,.16.42.71.53.71.12,0,.12-.16.25-.21.13-.06.25-.13.2-.29-.04-.15.14-.59.34-.91.18-.31.5-.42.76-.56.27-.14.38,0,.47.07.08.07.33.38.4.63.07.26.23.76.23,1.01s.35.39.49.39.5-.41.5-.53Zm4.3-.02c0-.09-.29-.04-.5-.04s-.04.19-.69.19-.83-.13-.98-.28-.03-.26.14-.28c.16-.02.51-.42.63-.53.11-.11.18-.34.4-.45s.17-.34.23-.47c.05-.13,0-.4-.13-.64-.14-.24-.26-.36-.69-.36-.19,0-.91.23-1.19.42-.29.18-.55.79-.55,1.06s.13.77,0,.88c-.14.09.18.45.61.87.42.42.63.49,1.33.49s.94-.28,1.13-.41c.18-.14.27-.32.27-.42Zm-1.57-2.11c.07.11-.08.22-.21.39-.13.17-.4.38-.48.53-.08.15-.41.34-.39.05.02-.28.12-.43.33-.64.21-.2.3-.26.43-.26.11,0,.25-.19.33-.07Zm5.15-.13c0-.1-.25-.37-.37-.37-.13,0-.34,0-.46.1-.13.1-.37.08-.55.18-.18.1-.29.17-.42.27s-.2,0-.21-.1c-.01-.1-.2-.17-.32-.17-.34,0-.28.38-.21.58.05.2.11.44.04.58s-.1.39-.01.42c.08.03.08.62.14.79.05.17.21.43.5.43s.35-.37.31-.58c-.05-.21-.05-.6-.05-.86s.15-.3.22-.46c.07-.17.33-.37.46-.48.12-.12.47-.19.61-.19.15,0,.32-.05.32-.15Zm6,.93c0-.48-.42-.97-.58-1.02-.15-.06-.7-.5-.84-.5-.11,0-.4.26-.4.47s.17.4.29.4.35.09.49.16c.14.08.38.44.38.57s-.02.22-.19.51c-.17.28-.33.45-.63.45s-.42-.23-.42-.33c0-.09-.22-.29-.22-.55s.25-.62.25-.74c0-.13-.28-.2-.41-.2s-.25.13-.31.34c-.05.21-.26.46-.26.66s.11.59.25.66c.13.07.14.61.28.62.13.02.69.34.98.34s.69-.38.91-.63c.21-.26.45-.74.45-1.23Zm3.98-.93c0-.1-.25-.37-.37-.37-.13,0-.34,0-.46.1-.13.1-.37.08-.55.18s-.29.17-.42.27c-.13.1-.2,0-.21-.1-.01-.1-.2-.17-.32-.17-.34,0-.28.38-.21.58.05.2.11.44.04.58s-.1.39-.01.42c.08.03.08.62.14.79.05.17.21.43.5.43s.35-.37.31-.58c-.05-.21-.05-.6-.05-.86s.15-.3.22-.46c.07-.17.33-.37.46-.48.12-.12.47-.19.61-.19.15,0,.32-.05.32-.15Zm4.65,2.44c0-.15-.2-.46-.2-.81s-.18-1.04-.18-1.54-.18-1.8-.18-1.94.01-.33.07-.48c.05-.16-.25-.34-.46-.34-.12,0-.28.01-.28.2,0,.18.03,2.07.08,2.54.06.47.19,1.75.19,2.07s.14.46.18.54c.04.08.2.24.32.24s.17-.1.23-.17c.05-.07.22-.14.22-.3Zm5.64.53c0-.15-.23-.3-.45-.45-.2-.15-.34-.45-.51-.7-.17-.24-.33-.55-.37-.7-.04-.15,0-.54,0-.82s-.26-.44-.39-.51c-.13-.08-.44-.25-.61-.25-.08,0-.15-.03-.23.04-.07.08-.29-.09-.36.02-.08.11-.31.06-.39.11-.07.06-.57.45-.73.76-.15.3-.37.8-.37,1.08s.07.56.15.68c.07.11.04.37.15.41.11.04.35.43.81.43s.85-.39.9-.49c.06-.09.3-.24.31-.45.02-.21.16-.32.28-.32s.13.19.22.3c.1.12.35.29.37.45.02.17.21.32.35.4.13.08.39.36.54.36s.33-.19.33-.34Zm-2.08-2.81c.04.1-.09.32-.13.47-.03.15-.15.61-.31.9-.15.28-.48.86-.81.86s-.35-.36-.35-.61.04-.75.19-.75.15-.38.29-.39c.14-.02.1-.17.19-.25.1-.07.13-.21.26-.21.11,0,.15.02.25.02.11,0,.39-.11.42-.02Zm5.79-.21c0-.15-.36-.28-.49-.21s-.42-.14-.69-.15c-.28-.02-.35-.12-.46-.1-.11.01-.26-.02-.26-.16v-.69c0-.22-.09-.51-.13-.63-.04-.13-.2-.2-.41-.2-.21,0-.26.61-.26.78s.07.62.07.88-.5.11-.63.11-.2.19-.2.41.28.24.35.3c.07.06.29-.06.43-.06s.13.54.13.93-.03.8-.13.91c-.1.1-.25.21-.25.31s.12.12.17.24c.06.13.28.24.42.24s.28-.14.36-.25c.09-.11.19-.42.19-.78s-.1-1.39-.1-1.54c0-.16.14-.12.2-.08.05.05.25.08.32,0,.07-.07.21-.09.43-.02.21.07.38.02.5.01.13-.01.44-.07.44-.23Zm3.87,2.28c0-.09-.29-.04-.5-.04s-.04.19-.69.19-.83-.13-.98-.28c-.15-.15-.03-.26.14-.28.16-.02.51-.42.63-.53.11-.11.18-.34.4-.45s.17-.34.23-.47c.05-.13,0-.4-.13-.64-.14-.24-.26-.36-.69-.36-.19,0-.91.23-1.19.42-.29.18-.55.79-.55,1.06s.13.77,0,.88c-.14.09.18.45.61.87.42.42.63.49,1.33.49s.94-.28,1.13-.41c.18-.14.27-.32.27-.42Zm-1.57-2.11c.07.11-.08.22-.21.39-.13.17-.4.38-.48.53-.08.15-.41.34-.39.05.02-.28.12-.43.33-.64.21-.2.3-.26.43-.26.11,0,.25-.19.33-.07Zm5.15-.13c0-.1-.25-.37-.37-.37-.13,0-.34,0-.46.1-.13.1-.37.08-.55.18-.18.1-.29.17-.42.27s-.2,0-.21-.1c-.01-.1-.2-.17-.32-.17-.34,0-.28.38-.21.58.05.2.11.44.04.58-.07.14-.1.39-.01.42.08.03.08.62.14.79.05.17.21.43.5.43s.35-.37.31-.58c-.05-.21-.05-.6-.05-.86s.15-.3.22-.46c.07-.17.33-.37.46-.48.12-.12.47-.19.61-.19.15,0,.32-.05.32-.15Zm1.26,2.37c0-.14-.07-.55-.16-.55-.08,0-.27-.21-.43-.21-.23,0-.21.22-.38.34-.15.11.02.14.02.25s.25.38.29.38.31.14.45.14.21-.21.21-.35Zm3.58-3.77c0-.21-.18-.62-.41-.86-.21-.22-.67-.32-.79-.32-.1,0-.36.23-.36.37s.12.34.5.39c.38.06.29.35.29.57s-.21.63-.32.79c-.1.15.07.15.21.36s.25.16.25.07c0-.08.25-.17.27-.28.01-.11.19-.32.29-.44.08-.11.07-.45.07-.66Zm-1.98.44c0-.48-.28-.86-.39-1.01-.11-.16-.47-.34-.66-.34-.1,0-.18.03-.39.12-.2.1-.13.36-.03.36s.23.34.41.35c.17.01.32.08.32.38s-.14.48-.14.68.28.58.42.56c.14-.01.29-.1.32-.25.03-.16.15-.38.15-.87Zm-54.89,10.29c-.07-.11-.14-.27-.28-.31-.22-.07-.63.17-.77.38-.14.21-.34.38-.48.59-.18.27-.5.56-.8,1.01-.29.43-.58.98-.66,1.28-.03.16-.04.29-.04.45-.01.49-.11.97.06,1.46.03.08.13.29.14.37,0,.22.27.42.41.57,0-.01.02-.01.02-.02.04.13.62.49,1.06.63.22.07.45.09.64.1.1,0,.32,0,.41.03.26.08.41-.06.5-.04.22.05.47-.33.51-.5s-.05-.48-.27-.55c-.19-.06-.43-.11-.61.02-.04.02-.3-.03-.38-.03-.27,0-.39-.16-.61-.19-.13-.01-.53-.23-.64-.38-.11-.15-.14-.61-.22-.84-.04-.11.19-.85.23-1,.07-.27.43-.64.48-.82.01-.04.34-.4.38-.56.03-.14,1.01-.61,1.11-1.02.04-.18-.07-.54-.21-.63h.01Zm7.06,5.06c.22,0,.41-.22.41-.44,0-.2-.1-.45-.18-.63-.07-.13.06-.46-.05-.68-.07-.15-.14-.38-.15-.8-.02-.47-.21-1.17-.35-1.51-.14-.37-.47-.56-.75-.56-.13,0-.29.11-.44.29-.32.42-.88,1.35-.99,1.81-.06.23-.15.6-.26.6-.09,0-.05-.21-.09-.45-.08-.43-.39-1.74-1-1.74-.22,0-.32.18-.34.35-.01.08-.32.6-.37.69-.18.36-.47.7-.49,1.13,0,.15-.08.28-.15.4-.09.17-.2.37-.26.69-.08.46-.36,1.15-.36,1.58,0,.31.38.68.57.68.15,0,.42-.1.42-.42,0-.19.1-.44.15-.62.1-.42.23-.69.31-1.08.02-.14.07-.25.13-.37.16-.3.06-.47.15-.74.04-.14.18-.71.33-.71.03,0-.02.1.01.22.14.61.19,1.97,1.08,1.97.54,0,.68-.57.76-.99.04-.23.23-.39.25-.62.01-.15.27-.6.33-.79.06-.2.17-.47.29-.47.12,0,.09.55.1.81.02.34.08.67.22.98.13.29.14.62.17.94.04.41.18.5.54.5Zm4-.08c.23-.27.49-.79.49-1.32s-.46-1.08-.68-1.16-.66-.51-.89-.51c-.2,0-.55.33-.55.62,0,.08.01.17.05.24-.12-.07-.28-.12-.38-.12-.25,0-.39.22-.45.45-.06.24-.27.44-.27.7,0,.58.15.34.34.85.02.05.03.12.05.19.07.31.15.35.39.45.26.11.62.29.88.29.32,0,.79-.4,1.02-.69Zm-1.19-1.81c.1,0,.3.09.42.15.1.05.3.36.3.43,0,.09-.01.16-.17.43-.16.27-.29.38-.5.38s-.27-.15-.27-.18c0-.17-.22-.33-.22-.55s.23-.54.25-.73c.06.04.13.07.2.07Zm5.2,1.81c.23-.27.49-.79.49-1.32s-.46-1.08-.68-1.16-.66-.51-.89-.51c-.2,0-.55.33-.55.62,0,.08.01.17.05.24-.12-.07-.28-.12-.38-.12-.25,0-.39.22-.45.45-.06.24-.27.44-.27.7,0,.58.15.34.34.85.02.05.03.12.05.19.07.31.15.35.39.45.26.11.62.29.88.29.32,0,.79-.4,1.02-.69Zm-1.19-1.81c.1,0,.3.09.42.15.1.05.3.36.3.43,0,.09-.01.16-.17.43-.16.27-.29.38-.5.38s-.27-.15-.27-.18c0-.17-.22-.33-.22-.55s.23-.54.25-.73c.06.04.13.07.2.07Zm5.24.66c-.01-.46-.39-1.16-.94-1.16-.22,0-.36.03-.6.41l-.04.05c0-.62-.21-.79-.55-.79-.22,0-.42.25-.47.42-.04.15-.04.59.12.72.02.01,0,1.18,0,1.32,0,.48.33.61.56.61s.62-.3.62-.61c0-.17.13-.5.3-.69.06-.07.11-.16.12-.25.02.06,0,.19.02.32.02.17.06.54.14.68.13.23.43.64.79.64.42,0,.63-.73.76-1.05.13-.32.38-.57.51-.91.07-.19.14-.13.23-.04.15.12.16.4.4.4.02,0-.06.03-.06.07l.03.16c.07.25.3.05.3.55,0,.29.26.55.48.55.29,0,.49-.47.49-.79,0-.38-.28-.32-.32-.79-.04-.36-.31-.51-.45-.81-.18-.38-.73-.67-1-.67-.25,0-.66.45-.85.68-.22.29-.41.64-.59.97Zm5.01-3.48c-.1-.18-.42-.26-.58-.26-.25,0-.46.33-.46.52,0,.23.25.42.38.49.16.08.28.28.5.28s.52-.29.52-.66c0-.25-.14-.35-.36-.37Zm.26,4.92c0-.09-.02-.36.05-.42.21-.14-.03-.54-.03-.73,0-.2-.08-.55-.15-.74-.07-.17-.06-.52-.06-.68,0-.31-.45-.46-.6-.46-.28,0-.41.42-.41.5,0,.12.06.25.13.36.04.06.03.6.05.71.04.25.13.79.13,1.13,0,.41.28.61.51.61.26,0,.38-.07.38-.27Zm2.35-1.84v-.33c0-.45-.43-.59-.64-.59-.5,0-.45.65-.32.96.1.21.1,1.08.1,1.23,0,.2.45.87.68.87.12,0,.18-.06.25-.15l.03-.04c.13-.2.43-.13.33-.49-.04-.14.14-.52.32-.79.07-.13.17-.22.3-.3.08-.05.48-.28.57-.25.18.07.44.53.48.65.06.25.22.73.22.97,0,.38.48.54.64.54.23,0,.65-.49.65-.68,0-.13-.11-.21-.2-.29-.32-.29-.33-.81-.48-1.22-.11-.28-.47-.69-.75-.73-.19-.03-.51-.27-.68-.27-.16,0-.33.17-.46.17-.25,0-.35.18-.53.28-.25.13-.35.26-.51.49Zm5.75,1.48c.12.07.31.11.48.11.26,0,.4-.05.64-.05.35,0,.44-.34.63-.54.25-.25.32-.72.32-.87,0-.18.11-.54-.14-.63-.04-.01-.1-.11-.13-.14-.18-.23-.79-.44-1.04-.44-.43,0-.68.17-1,.41-.2.16-.29.15-.39.39-.01.02.05.05.03.05-.17,0-.32-.13-.53.02-.26.18-.08.45.02.63.06.1.08.95-.06,1.58-.08.34-.03.68.04.98.05.23.14.49.14.73,0,.34.15.53.32.8.21.33.16.53.67.53.34,0,.5-.35.5-.54,0-.15-.09-.49-.13-.66-.02-.06-.04-.27-.06-.51l-.05-.65c-.04-.38-.17-.8-.26-1.2Zm-.03-.76c0-.11.15-.37.28-.51.12-.13.42-.32.56-.32s.22.14.22.25c0,.08-.09.24-.18.33-.11.11-.2.19-.39.19-.15,0-.36-.03-.49.07h0Zm4.86-1.98c-.14-.03-.32-.09-.42.07-.01.01-.16.02-.19.02-.28.04-.84.69-.93.87-.15.3-.38.84-.38,1.15,0,.55.09.35.19.81.08.37.02.23.27.47.23.22.46.39.81.39.53,0,.96-.44,1.03-.56.09-.15.31-.22.33-.51.02-.16.11-.19.12-.19s-.02.02-.02.03c.12.24.16.25.35.43.25.25.11.43.54.67.18.11.37.38.61.38s.48-.27.48-.49c0-.25-.33-.44-.51-.57-.2-.15-.78-1.12-.83-1.32-.03-.14.01-.63.01-.79,0-.35-.3-.55-.46-.64-.15-.09-.5-.27-.69-.27-.04,0-.08-.01-.11-.01-.06,0-.13.02-.19.07Zm.28,1.18c-.04.15-.15.58-.3.86-.13.24-.39.77-.67.77-.22,0-.19-.28-.19-.46,0-.19-.08-.6.04-.6.21,0,.27-.26.35-.4.15-.04.17-.16.23-.27.05-.05.09-.1.13-.16.01,0,.01-.02.02-.02.11,0,.15.02.25.02.05,0,.1-.01.14-.02.03,0,.08,0,.11-.02-.04.1-.11.28-.11.31Zm4.06,1.56c.12.07.31.11.48.11.26,0,.4-.05.64-.05.35,0,.44-.34.63-.54.25-.25.32-.72.32-.87,0-.18.11-.54-.14-.63-.04-.01-.1-.11-.13-.14-.18-.23-.79-.44-1.04-.44-.43,0-.68.17-1,.41-.2.16-.29.15-.39.39-.01.02.05.05.03.05-.17,0-.32-.13-.53.02-.26.18-.08.45.02.63.06.1.08.95-.06,1.58-.08.34-.03.68.04.98.05.23.14.49.14.73,0,.34.15.53.32.8.21.33.16.53.67.53.34,0,.5-.35.5-.54,0-.15-.09-.49-.13-.66-.02-.06-.04-.27-.06-.51l-.05-.65c-.04-.38-.17-.8-.26-1.2Zm-.03-.76c0-.11.15-.37.28-.51.12-.13.42-.32.56-.32s.22.14.22.25c0,.08-.09.24-.18.33-.11.11-.2.19-.39.19-.15,0-.36-.03-.49.07h0Zm4.38.75c.12.07.31.11.48.11.26,0,.4-.05.64-.05.35,0,.44-.34.63-.54.25-.25.32-.72.32-.87,0-.18.11-.54-.14-.63-.04-.01-.1-.11-.13-.14-.18-.23-.79-.44-1.04-.44-.43,0-.68.17-1,.41-.2.16-.29.15-.39.39-.01.02.05.05.03.05-.17,0-.32-.13-.53.02-.26.18-.08.45.02.63.06.1.08.95-.06,1.58-.08.34-.03.68.04.98.05.23.14.49.14.73,0,.34.15.53.32.8.21.33.16.53.67.53.34,0,.5-.35.5-.54,0-.15-.09-.49-.13-.66-.02-.06-.04-.27-.06-.51l-.05-.65c-.04-.38-.17-.8-.26-1.2Zm-.03-.76c0-.11.15-.37.28-.51.12-.13.42-.32.56-.32s.22.14.22.25c0,.08-.09.24-.18.33-.11.11-.2.19-.39.19-.15,0-.36-.03-.49.07h0Zm4.86-1.98c-.14-.03-.32-.09-.42.07-.01.01-.16.02-.19.02-.28.04-.84.69-.93.87-.15.3-.38.84-.38,1.15,0,.55.09.35.19.81.08.37.02.23.27.47.23.22.46.39.81.39.53,0,.96-.44,1.03-.56.09-.15.31-.22.33-.51.02-.16.11-.19.12-.19s-.02.02-.02.03c.12.24.16.25.35.43.25.25.11.43.54.67.18.11.37.38.61.38s.48-.27.48-.49c0-.25-.33-.44-.51-.57-.2-.15-.78-1.12-.83-1.32-.03-.14.01-.63.01-.79,0-.35-.3-.55-.46-.64-.15-.09-.5-.27-.69-.27-.04,0-.08-.01-.11-.01-.06,0-.13.02-.19.07Zm.28,1.18c-.04.15-.15.58-.3.86-.13.24-.39.77-.67.77-.22,0-.19-.28-.19-.46,0-.19-.08-.6.04-.6.21,0,.27-.26.35-.4.15-.04.17-.16.23-.27.05-.05.09-.1.13-.16.01,0,.01-.02.02-.02.11,0,.15.02.25.02.05,0,.1-.01.14-.02.03,0,.08,0,.11-.02-.04.1-.11.28-.11.31Zm7.12-1.18c-.14-.03-.32-.09-.42.07-.01.01-.16.02-.19.02-.28.04-.84.69-.93.87-.15.3-.38.84-.38,1.15,0,.55.09.35.19.81.08.37.02.23.27.47.23.22.46.39.81.39.53,0,.96-.44,1.03-.56.09-.15.31-.22.33-.51.02-.16.11-.19.12-.19s-.02.02-.02.03c.12.24.16.25.35.43.25.25.11.43.54.67.18.11.37.38.61.38s.48-.27.48-.49c0-.25-.33-.44-.51-.57-.2-.15-.78-1.12-.83-1.32-.03-.14.01-.63.01-.79,0-.35-.3-.55-.46-.64-.15-.09-.5-.27-.69-.27-.04,0-.08-.01-.11-.01-.06,0-.13.02-.19.07Zm.28,1.18c-.04.15-.15.58-.3.86-.13.24-.39.77-.67.77-.22,0-.19-.28-.19-.46,0-.19-.08-.6.04-.6.21,0,.27-.26.35-.4.15-.04.17-.16.23-.27.05-.05.09-.1.13-.16.01,0,.01-.02.02-.02.11,0,.15.02.25.02.05,0,.1-.01.14-.02.03,0,.08,0,.11-.02-.04.1-.11.28-.11.31Zm4.33-.26c.37.17.38-.15.75-.03.13.04.25.05.35.05.22-.01.8-.12.8-.41,0-.32-.54-.44-.71-.34-.04.02-.09-.03-.16-.05-.15-.06-.3-.11-.45-.12-.16-.01-.34-.12-.49-.1-.03,0-.08.03-.08-.01v-.69c0-.25-.1-.55-.14-.68-.07-.22-.33-.3-.55-.3-.27,0-.41.72-.41.94,0,.17.07.62.07.88,0,.05-.06,0-.11,0-.14,0-.31-.04-.37-.04-.19,0-.36.24-.36.56,0,.24.17.33.37.4.37.14.33-.01.56-.01.04,0-.04.08-.03.18.01.18.01.4.01.59,0,.33,0,.71-.08.8-.11.11-.3.24-.3.41,0,.1.05.16.12.22l.02.03s.01.01.02.02c.18.19.28.36.58.36.19,0,.37-.16.48-.31.12-.15.22-.5.22-.88,0-.31-.08-1.18-.1-1.47Zm7.24-1.38c.31-.07.5-.31.5-.55,0-.27-.25-.45-.65-.45-.37,0-.58.03-1.19.32-.65.31-.9.92-.9,1.29s.2.73.59.92c.11.05.2.11.3.18.19.14.41.24.63.35.08.04.17.07.17.18,0,.17.03.18-.15.26-.19.08-.35.2-.54.28-.26.1-.31.01-.55.01-.42,0-.54.36-.54.56,0,.25.16.55.67.55.23,0,.46-.07.63-.14.4-.16.78-.34,1.08-.64.2-.2.34-.46.34-.82s-.14-.54-.26-.65c-.23-.23-.38-.45-.7-.58-.6-.24-.61-.34-.61-.41,0-.09.37-.31.45-.38.11-.1.48-.2.74-.26Zm4.81,3.81c.22-.16.34-.39.34-.54,0-.27-.49-.19-.65-.19-.09,0-.16.03-.22.09l-.02.02c-.1.09-.35.08-.45.08-.62,0-.75-.12-.87-.24-.02-.02.01-.02.04-.02.11-.01.28-.13.43-.27.21-.2.33-.32.48-.55.15-.21.36-.22.44-.5.1-.37.11-.62-.09-1-.16-.29-.33-.44-.83-.44-.23,0-.97.24-1.28.44-.34.22-.62.89-.62,1.19,0,.14.03.33.05.51.01.11.05.2.01.23-.16.11.1.61.59,1.11.46.44.71.53,1.44.53.37,0,.62-.08.82-.17.15-.08.27-.18.4-.27Zm-2.31-1.71c.02-.21.09-.32.28-.5.21-.21.26-.22.32-.22h.07s-.06.05-.08.08c-.14.19-.39.34-.49.55-.02.03-.05.06-.09.09Zm5.05-1.64c-.14-.03-.32-.09-.42.07-.01.01-.16.02-.19.02-.28.04-.84.69-.93.87-.15.3-.38.84-.38,1.15,0,.55.09.35.19.81.08.37.02.23.27.47.23.22.46.39.81.39.53,0,.96-.44,1.03-.56.09-.15.31-.22.33-.51.02-.16.11-.19.12-.19s-.02.02-.02.03c.12.24.16.25.35.43.25.25.11.43.54.67.18.11.37.38.61.38s.48-.27.48-.49c0-.25-.33-.44-.51-.57-.2-.15-.78-1.12-.83-1.32-.03-.14.01-.63.01-.79,0-.35-.3-.55-.46-.64-.15-.09-.5-.27-.69-.27-.04,0-.08-.01-.11-.01-.06,0-.13.02-.19.07Zm.28,1.18c-.04.15-.15.58-.3.86-.13.24-.39.77-.67.77-.22,0-.19-.28-.19-.46,0-.19-.08-.6.04-.6.21,0,.27-.26.35-.4.15-.04.17-.16.23-.27.05-.05.09-.1.13-.16.01,0,.01-.02.02-.02.11,0,.15.02.25.02.05,0,.1-.01.14-.02.03,0,.08,0,.11-.02-.04.1-.11.28-.11.31Zm3.68,2.19s-.01.09-.01.14c0,.13-.17.3-.17.44,0,.01-.01.02-.02.03l-.03.03c-.07.09-.13.18-.13.26,0,.15-.54.43-.54.79,0,.18.09.41.26.41l.02.02c.06.06.13.1.22.1.18,0,.18-.08.29-.15.1-.07.15-.17.22-.22.18-.12.29-.45.45-.65.16-.19.17-.28.28-.51.19-.47.19-.49.15-.99-.02-.24-.49-.96-.84-.96-.12,0-.49.13-.51.21,0,.03-.1-.01-.17-.01-.21,0-.38.28-.38.52,0,.2.1.34.23.48.18.2.47.1.68.04Zm6.02.24c.11.1.18.27.38.27.22,0,.61-.29.61-.59,0-.15-.05-.44-.1-.68-.07-.37-.21-.85-.21-1.22,0-.27-.08-1.19-.13-1.45-.04-.24-.05-1.08-.02-1.32.02-.23-.1-.4-.29-.52-.19-.12-.39-.3-.63-.3-.21,0-.38.61-.25.91.05.1.08.64.11,1.19.01.15.05,1.13.11,1.24.05.07.02,1.45.02,1.62,0,.62.22.86.4.87Zm6.87-4.28c.08-.08.15-.19.15-.33s-.08-.33-.31-.4c-.14-.04-.47-.16-.64-.26-.22-.14-.93-.22-1.25-.22-.37,0-.84.1-1.08.13-.28.03-.46.11-.6.29-.38.45-.89.89-.89,1.53,0,.37.34.87.51,1.03.19.2.53.31,1,.31.23,0,.36-.02.46-.05.04-.02.08-.04.12-.04.16,0,.51-.08.64-.31.08-.15.46-.07.61-.41.05,0-.04.06-.05.14,0,.18-.03.42-.01.63.03.43.04,1.36-.03,1.67-.08.37.07.41.08.68.02.39.4.42.74.27.33-.13.36-.38.31-.63-.03-.13.11-.18.09-.36-.02-.14-.07-.7-.07-.93,0-.11-.01-.34-.01-.57,0-.2,0-.39.03-.47.07-.2.01-.69-.11-.85-.04-.03-.05-.13-.07-.24-.03-.18-.05-.35-.11-.48.06.01.11.01.15.01.1,0,.22-.02.34-.13Zm-1.53.2c-.32.47-.38.25-.78.54-.18.14-.29.2-.52.28-.19.06-.71.14-.71-.19,0-.15.17-.35.23-.5.03-.08.31-.31.59-.44.27-.12.25-.14.57-.14h.4c.08.01.33.06.54.11-.13.07-.25.2-.33.34Zm6.81,2.32c.03-.13-.15-.79-.27-.96-.15-.21-.66-.29-.75-.29-.09,0-.42.07-.51.21-.01.02-.07.01-.12.02-.09.03-.22.05-.31.11-.12.09-.39.33-.41.4,0,.01-.01.03-.02.06,0,.01-.03.09-.03.09-.05,0,.05-.14.04-.29-.01-.23,0-.51,0-.66,0-.31.09-.82.09-.94,0-.08.15-.55.2-.69.08-.2.25-.43.25-.65,0-.17-.17-.63-.44-.63-.18,0-.57.21-.64.45-.04.14-.16.4-.21.46-.17.21-.18.93-.21,1.23-.05.37-.12.73-.12,1.1,0,.43.1.9.1,1.11s.17.4.29.56c.1.16.04.51.33.51.18,0,.34.58,1.25.58.44,0,1.04-.46,1.13-.61.07-.11.28-.56.35-.74.06-.15.03-.28.03-.43h-.01Zm-1.07-.17s.09.04.09.12c0,.18-.36.7-.51.7-.02,0-.01-.04-.01-.06-.04-.09-.07-.2-.16-.26-.03-.02-.01-.11.04-.13.1-.05.16-.15.22-.25.02-.02.03-.06.05-.08.1-.03.17-.04.28-.04Zm3.64-2.99c-.01-.26-.31-.32-.46-.32-.21,0-.4.12-.4.31,0,.06-.16.47-.28.71-.11.26-.29.73-.29.96,0,.26.3.59.57.59.21,0,.35-.02.51-.19.03-.02.05.01.08.03.1.03.19.09.31.09.18,0,.86.27.83.46-.02.13-.07.24-.07.38,0,.19-.31.52-.65.58-.21.04-.31.09-.38.12l-.05.03s-.02.01-.03.01c-.09,0-.18.02-.27.03-.08-.18-.29-.37-.46-.37-.1,0-.41.07-.49.26-.06.15-.06.53.15.59.04.02.13.28.32.32h.02c.14.15.51.14.67.14.26,0,.5.01.73-.1.1-.05.19-.05.3-.13l.04-.03s.08-.06.19-.08c.36-.07.6-.39.74-.59.13-.2.34-.71.34-.93,0-.19-.06-.58-.15-.81-.08-.2-.33-.3-.51-.41-.4-.22-.16-.24-.67-.33-.18-.03-.42-.22-.61-.13-.05.03-.2.09-.2.01,0-.03.04-.03.06-.05.09-.05.2-.09.26-.19.01-.03.63-.22.74-.28.12-.06,1.19-.33,1.37-.17.29.24.42-.13.56-.24.45-.34-.25-1.04-.69-.7-.02.02-.64-.07-.73.12-.01.02-.06-.04-.12-.04-.06-.01-.13-.01-.19-.01-.2,0-.89.24-1.05.33,0,.01,0,.02-.01.03Zm5.2,5.42c.17-.06.37-.34.4-.47.02-.09.16-.3.21-.4.08-.15.29-.72.29-.85s.1-.37.15-.5c.07-.17.11-.64.11-.81,0-.19-.1-.69-.16-.8-.03-.06-.21-.39-.21-.43,0-.17.02-.37-.17-.46-.05-.03-.07-.5-.3-.54-.01,0-.02-.05-.07-.1-.14-.17-.68-.84-.81-.84-.02,0-.04-.06-.09-.11-.04-.04-.08-.09-.12-.12-.14-.13-.66-.38-.83-.38-.18,0-.38.21-.38.55,0,.25.11.34.32.43,0,.01.01,0,.01.01.1.14.34.25.55.33.17.07.47.44.48.5.01.12.15.29.22.38.18.26.14.25.25.51.18.51.34.88.19,1.44-.04.13-.09.27-.09.4,0,.19-.12.46-.18.63-.09.29-.31.54-.47.79-.11.18-.34.36-.34.59,0,.26.39.54.65.54.21,0,.31-.14.39-.3Z"/>
</svg>