<?xml version="1.0" encoding="UTF-8"?>
<svg id="fore_ground" data-name="fore ground" xmlns="http://www.w3.org/2000/svg" xmlns:xlink="http://www.w3.org/1999/xlink" viewBox="0 0 202 137.5">
  <defs>
    <style>
      .cls-1 {
        mask: url(#mask);
      }

      .cls-2 {
        fill: #fff6c8;
      }

      .cls-3, .cls-4 {
        fill: #0e5256;
      }

      .cls-4, .cls-5 {
        fill-rule: evenodd;
      }

      .cls-5 {
        fill: #fff;
      }
    </style>
    <mask id="mask" x="0" y="-.5" width="202.88" height="138.55" maskUnits="userSpaceOnUse">
      <g id="path-1-inside-1_36_1241" data-name="path-1-inside-1 36 1241">
        <path class="cls-5" d="m180.22,115.43c7.85,1.06,15.46-.58,21.92-4.21-7.66,8.2-18.89,12.69-30.68,11.1-7.98-1.07-14.99-4.76-20.33-10.11-15.6,15.27-39.29,24.95-65.77,24.82C38.6,136.79.84,106.05,1.02,68.36,1.2,30.67,39.26.3,86.02.53c46.76.23,84.52,30.97,84.34,68.66-.06,12.66-4.39,24.49-11.89,34.61,5.48,6.17,13.04,10.45,21.75,11.62Z"/>
      </g>
    </mask>
  </defs>
  <path class="cls-4" d="m180.22,115.43c7.85,1.06,15.46-.58,21.92-4.21-7.66,8.2-18.89,12.69-30.68,11.1-7.98-1.07-14.99-4.76-20.33-10.11-15.6,15.27-39.29,24.95-65.77,24.82C38.6,136.79.84,106.05,1.02,68.36,1.2,30.67,39.26.3,86.02.53c46.76.23,84.52,30.97,84.34,68.66-.06,12.66-4.39,24.49-11.89,34.61,5.48,6.17,13.04,10.45,21.75,11.62Z"/>
  <g class="cls-1">
    <path class="cls-3" d="m169.34,69.19h1.02s-1.02,0-1.02,0Zm-11.63,35.31l-.56-.63.5-.68.82.62-.76.69ZM86.01,1.56V.53s0,1.03,0,1.03ZM2.04,68.37h-1.02s1.02,0,1.02,0Zm83.33,67.62v1.03s0-1.03,0-1.03Zm65.05-24.53l.72-.7.71.71-.72.73-.71-.74Zm21.17,9.83l-.13,1.02.13-1.02Zm30.05-10.98l1.24,1.61-.74-.71-.5-.9Zm-21.56,6.14l.13-1.02-.13,1.02Zm-8.7-47.25c-.06,12.9-4.48,24.94-12.09,35.22l-1.63-1.24c7.38-9.97,11.63-21.58,11.69-34h2.04ZM86.02-.5c47.1.23,85.54,31.23,85.36,69.7h-2.04c.18-36.92-36.9-67.41-83.33-67.63V-.5ZM0,68.36C.19,29.89,38.93-.73,86.02-.5V1.56C39.59,1.34,2.22,31.45,2.04,68.37H0Zm85.36,69.69C38.26,137.82-.18,106.82,0,68.36h2.04c-.18,36.92,36.9,67.41,83.33,67.63v2.06Zm66.47-25.11c-15.81,15.47-39.76,25.24-66.48,25.11v-2.06c26.25.13,49.67-9.47,65.06-24.53l1.42,1.48Zm19.48,10.39c-8.21-1.1-15.42-4.9-20.91-10.4l1.44-1.46c5.18,5.2,11.99,8.78,19.74,9.82l-.27,2.04Zm31.56-11.42c-7.88,8.43-19.43,13.05-31.56,11.42l.27-2.04c11.45,1.54,22.36-2.81,29.81-10.79l1.48,1.42Zm-22.53,2.48c7.63,1.03,15.01-.56,21.29-4.09l.99,1.8c-6.65,3.74-14.47,5.42-22.55,4.34l.27-2.04Zm-21.12-11.29c5.33,5.99,12.67,10.15,21.12,11.29l-.27,2.04c-8.96-1.2-16.73-5.62-22.37-11.96l1.52-1.38Z"/>
  </g>
  <path class="cls-2" d="m33.1,23.55c0-.1-.34-.23-.56-.27-.23-.04-.27-.19-.45-.28-.18-.08-.09-.22-.09-.4s-.07-.31.03-.35c.1-.04.16-.11.17-.29.02-.18.14-.29.28-.29s.2-.21.24-.24c.04-.03.18-.11.18-.26,0-.15-.18-.3-.32-.3-.51,0-.91.45-.95.56-.04.1-.15.31-.24.42-.08.11-.17.39-.17.65s.12.65.21.67c.1.03.16.37.23.38.07.01.23.01.31.22.07.21.33.18.43.2.1.01.18.14.28.14.08,0,.21-.17.28-.24.05-.07.14-.24.14-.33Zm2.67,2.16c.06-.46,0-.71-.08-1.46-.08-.76-.04-1.45,0-1.73s-.04-.51-.14-.64-.18-.33-.36-.33c-.1,0-.22.11-.24.3-.03.18-.07,1.11-.05,1.64.03.54.06,1.98.05,2.72-.02.74.21.86.4.86s.32-.15.34-.36c.01-.22.04-.53.09-.99Zm5.13-1.99c0-.15-.36-.29-.49-.22-.13.07-.42-.14-.69-.15-.28-.02-.35-.12-.46-.1-.11.01-.25-.02-.25-.17v-.71c0-.23-.09-.53-.13-.65-.04-.13-.2-.21-.41-.21-.21,0-.25.63-.25.8s.07.64.07.9-.5.11-.63.11-.2.2-.2.42.28.25.35.31c.07.06.29-.06.43-.06s.13.56.13.95-.03.83-.13.93c-.1.1-.24.22-.24.32s.12.12.17.25c.06.13.28.25.42.25s.28-.14.36-.26c.09-.11.19-.43.19-.8s-.1-1.42-.1-1.58c0-.17.14-.12.2-.08.05.05.24.08.32,0,.07-.07.21-.09.43-.02.21.07.38.02.5.01.13-.01.44-.07.44-.24Zm2.11-1.18c.07-.14-.17-.35-.17-.6s-.54-.59-.54-.66-.66-.26-.85-.26c-.13,0-.31.18-.31.28s.28.25.31.36c.02.11.07.29.39.28.32-.02.18.11.32.33.12.23-.03.39-.03.53s-.38.22-.39.34c-.02.11-.29.29-.27.44.03.17.14.12.19.3.04.18.3.07.52.02.21-.04.08-.32.32-.32s.15-.32.3-.39.14-.51.21-.65Zm3.61,1.28c0-.14-.21-.3-.4-.35-.18-.04-.42-.14-.65-.14-.27,0-.46.31-.53.41-.07.1-.24.35-.24.65s.27,1.06.46,1.29c.2.22.17.32-.14.42-.32.09-.37,0-.37-.08,0-.07-.1-.25-.3-.12-.18.11-.17.18-.37.11-.2-.06-.52.18-.52.36,0,.2.33.39.47.45.15.06.35.04.52-.04.17-.09.31.03.48.03s.52-.06.69-.17c.16-.1.43-.19.43-.53s-.21-.76-.32-.9c-.1-.13-.28-.5-.28-.61,0-.12-.03-.32.1-.32s.15-.17.28-.17c.11,0,.08.18.25.18s.43-.34.43-.48Zm6.87-.1c0-.15-.36-.29-.49-.22-.13.07-.42-.14-.69-.15-.28-.02-.35-.12-.46-.1-.11.01-.25-.02-.25-.17v-.71c0-.23-.09-.53-.13-.65-.04-.13-.2-.21-.41-.21-.21,0-.25.63-.25.8s.07.64.07.9-.5.11-.63.11-.2.2-.2.42.28.25.35.31c.07.06.29-.06.43-.06s.13.56.13.95-.03.83-.13.93c-.1.1-.24.22-.24.32s.12.12.17.25c.06.13.28.25.42.25s.28-.14.36-.26c.09-.11.19-.43.19-.8s-.1-1.42-.1-1.58c0-.17.14-.12.2-.08.05.05.24.08.32,0,.07-.07.21-.09.43-.02.21.07.38.02.5.01.13-.01.44-.07.44-.24Zm5,2.58c0-.14-.2-.39-.31-.54-.1-.15-.38-.47-.41-.69-.02-.22-.16-.3-.25-.54-.08-.24-.46-.61-.96-.61s-.97.68-1.07.83c-.1.14-.2.41-.31.41-.09,0-.11-.62-.09-.8.01-.19-.31-1.92-.34-2.2-.03-.28.03-.66.03-.81,0-.17-.17-.51-.36-.51-.09,0-.38.11-.38.27,0,.17-.01.59.03.96.04.38.3,2.32.33,2.79.03.48.32,1.24.32,1.49s.31.31.45.31.17-.1.32-.14.16-.35.16-.56.18-.5.33-.77c.14-.27.36-.44.58-.44s.32.2.5.33c.18.13.17.52.29.63s.17.38.38.47c.2.1.3.25.42.25.11,0,.35.02.35-.12Zm3.99-.24c0-.09-.29-.04-.5-.04s-.04.2-.69.2-.83-.13-.98-.29c-.15-.15-.03-.27.14-.29.16-.02.51-.43.63-.55.11-.11.18-.35.4-.46.21-.11.17-.35.23-.48.05-.13,0-.41-.13-.66-.14-.25-.25-.37-.69-.37-.19,0-.91.24-1.19.43-.29.19-.55.81-.55,1.08s.13.79,0,.9c-.14.09.18.46.61.89.42.43.63.51,1.33.51s.94-.29,1.13-.42c.18-.14.27-.33.27-.43Zm-1.57-2.17c.07.11-.08.23-.21.4-.13.18-.4.39-.48.55-.08.15-.41.35-.39.05.02-.29.12-.44.33-.66.21-.21.3-.27.43-.27.11,0,.24-.2.33-.07Zm7.72-.13c0-.1-.24-.38-.37-.38-.13,0-.34,0-.46.1-.13.1-.37.08-.55.19-.18.1-.29.18-.42.28-.13.1-.2,0-.21-.1-.01-.1-.2-.18-.32-.18-.34,0-.28.39-.21.6.05.21.11.45.04.6-.07.14-.1.4-.01.43.08.03.08.64.14.81.05.18.21.44.5.44s.35-.38.31-.6c-.05-.22-.05-.62-.05-.88s.15-.31.22-.47c.07-.18.33-.38.46-.5.12-.12.47-.2.61-.2.15,0,.32-.05.32-.15Zm1.75-2.06c0-.32-.32-.18-.33-.28-.02-.1-.27-.22-.46-.22-.13,0-.31.24-.31.38s.17.3.29.36c.12.06.31.28.44.28.12,0,.37-.21.37-.53Zm.02,4.1c.1-.07-.1-.43-.1-.63,0-.19-.07-.52-.14-.71-.07-.19-.07-.58-.07-.75s-.31-.32-.45-.32c-.13,0-.25.29-.25.36s.04.18.11.29c.07.12.03.53.07.79.04.26.13.83.13,1.18s.21.47.36.47.22-.01.22-.12c0-.12.02-.48.12-.56Zm5.17,1.37c0-.85-.34-1.66-.51-2.07-.17-.4-.39-.65-.39-.96s-.19-.3-.42-.46c-.23-.15-.51-.28-.81-.28-.34,0-.75.29-.98.48-.23.19-.62.77-.62,1.31s.04.64.38,1.13c.33.5.78.57,1.08.57s.6-.25.64-.42c.04-.18.23-.22.29-.45.06-.23.07-.35.24-.35s.2.57.28.67c.07.1.11.36.11.78,0,.59-.13,1.13-.4,1.51-.28.36-.65.5-1.03.5s-.33.08-.79-.12c-.46-.2-.53-.26-.46-.47s.01-.17-.14-.36c-.16-.21-.47.11-.52.23-.06.11-.07.42.05.53.13.1-.02.22.44.58.46.37,1.03.4,1.33.4s.85-.15,1.22-.24c.37-.09.34-.29.44-.38.1-.08.27-.5.27-.68s.3-.6.3-1.42Zm-1.63-2.32c0,.3-.14.47-.14.59s-.1.3-.19.38c-.08.07-.11.33-.42.33s-.32-.19-.39-.25-.22-.14-.22-.39.17-.76.3-.95c.13-.19.55-.42.68-.42.27,0,.39.42.39.71Zm7.34,1.44c0-.14-.2-.39-.31-.54-.1-.15-.38-.47-.41-.69-.02-.22-.16-.3-.25-.54-.08-.24-.46-.61-.96-.61s-.97.68-1.07.83c-.1.14-.2.41-.31.41-.09,0-.11-.62-.09-.8.01-.19-.31-1.92-.34-2.2s.03-.66.03-.81c0-.17-.17-.51-.36-.51-.09,0-.38.11-.38.27,0,.17-.01.59.03.96.04.38.3,2.32.33,2.79.03.48.32,1.24.32,1.49s.31.31.45.31.17-.1.32-.14.16-.35.16-.56.18-.5.33-.77c.14-.27.36-.44.58-.44s.32.2.5.33c.18.13.17.52.29.63s.17.38.38.47c.2.1.3.25.42.25.11,0,.35.02.35-.12Zm3.98-2.58c0-.15-.36-.29-.49-.22-.13.07-.42-.14-.69-.15-.28-.02-.35-.12-.46-.1-.11.01-.25-.02-.25-.17v-.71c0-.23-.09-.53-.13-.65-.04-.13-.2-.21-.41-.21-.21,0-.25.63-.25.8s.07.64.07.9-.5.11-.63.11-.2.2-.2.42.28.25.35.31c.07.06.29-.06.43-.06s.13.56.13.95-.03.83-.13.93c-.1.1-.24.22-.24.32s.12.12.17.25c.06.13.28.25.42.25s.28-.14.36-.26c.09-.11.19-.43.19-.8s-.1-1.42-.1-1.58c0-.17.14-.12.2-.08.05.05.24.08.32,0,.07-.07.21-.09.43-.02.21.07.38.02.5.01.13-.01.44-.07.44-.24Zm6.44,2.34c0-.09-.29-.04-.5-.04s-.04.2-.69.2-.83-.13-.98-.29c-.15-.15-.03-.27.14-.29.16-.02.51-.43.63-.55.11-.11.18-.35.4-.46.21-.11.17-.35.23-.48.05-.13,0-.41-.13-.66-.14-.25-.25-.37-.69-.37-.19,0-.91.24-1.19.43-.29.19-.55.81-.55,1.08s.13.79,0,.9c-.14.09.18.46.61.89.42.43.63.51,1.33.51s.94-.29,1.13-.42c.18-.14.27-.33.27-.43Zm-1.57-2.17c.07.11-.08.23-.21.4-.13.18-.4.39-.48.55-.08.15-.41.35-.39.05.02-.29.12-.44.33-.66.21-.21.3-.27.43-.27.11,0,.24-.2.33-.07Zm5.8-.23c0-.15-.2-.15-.31-.33-.1-.18-.29-.18-.36-.06-.07.11-.19.06-.2.13-.01.07-.14.26-.28.28-.12.01-.04.37-.18.4-.14.03-.16.41-.28.48s-.21.44-.31.55c-.08.1-.24.52-.39.52s-.12-.25-.14-.42c-.01-.18-.17-.35-.25-.57-.09-.22,0-.37.03-.48.02-.11-.17-.18-.19-.28-.01-.1-.28-.23-.44-.23s-.23.4-.16.5c.07.08.04.5.11.58.07.09.19.48.23.85.04.36.21.41.31.71.08.31.41.52.56.52.14,0,.25-.12.25-.21,0-.09.13-.27.23-.32.09-.06.05-.25.12-.25s.04-.27.12-.27c.07,0,.18-.12.15-.23-.03-.1.28-.38.34-.46.05-.09.05-.31.21-.39.15-.09.07-.25.14-.25s.28-.35.4-.35c.13,0,.27-.25.27-.41Zm4.09,2.39c0-.09-.29-.04-.5-.04s-.04.2-.69.2-.83-.13-.98-.29-.03-.27.14-.29c.16-.02.51-.43.63-.55.11-.11.18-.35.4-.46.21-.11.17-.35.23-.48.05-.13,0-.41-.13-.66-.14-.25-.25-.37-.69-.37-.19,0-.91.24-1.19.43-.29.19-.55.81-.55,1.08s.13.79,0,.9c-.14.09.18.46.61.89.42.43.63.51,1.33.51s.94-.29,1.13-.42c.18-.14.27-.33.27-.43Zm-1.57-2.17c.07.11-.08.23-.21.4-.13.18-.4.39-.48.55-.08.15-.41.35-.39.05.02-.29.12-.44.33-.66.21-.21.3-.27.43-.27.11,0,.24-.2.33-.07Zm6.74,2.19c0-.11-.28-.19-.42-.6-.06-.17-.15-.64-.25-.9-.1-.26-.44-.63-.62-.66-.18-.02-.56-.27-.66-.27s-.29.18-.46.18-.34.2-.46.27c-.13.07-.21.1-.49.52-.28.4-.24-.14-.24-.48s-.31-.45-.49-.45c-.38,0-.28.53-.17.76.1.23.11,1.17.11,1.32,0,.17.42.73.53.73.12,0,.12-.17.24-.22.13-.06.24-.13.2-.3-.04-.15.14-.61.34-.93.18-.32.5-.43.75-.58.27-.14.38,0,.47.07.08.07.33.39.4.65.07.27.23.78.23,1.03s.35.4.49.4.5-.42.5-.55Zm2.16-4.38c0-.32-.32-.18-.33-.28-.02-.1-.27-.22-.46-.22-.13,0-.31.24-.31.38s.17.3.29.36c.12.06.31.28.44.28.12,0,.37-.21.37-.53Zm.02,4.1c.1-.07-.1-.43-.1-.63,0-.19-.07-.52-.14-.71-.07-.19-.07-.58-.07-.75s-.31-.32-.45-.32c-.13,0-.25.29-.25.36s.04.18.11.29c.07.12.03.53.07.79.04.26.13.83.13,1.18s.21.47.36.47.22-.01.22-.12c0-.12.02-.48.12-.56Zm5.83.28c0-.11-.28-.19-.42-.6-.06-.17-.15-.64-.25-.9-.1-.26-.44-.63-.62-.66-.18-.02-.56-.27-.66-.27s-.29.18-.46.18-.34.2-.46.27c-.13.07-.21.1-.49.52-.28.4-.24-.14-.24-.48s-.31-.45-.49-.45c-.38,0-.28.53-.17.76.1.23.11,1.17.11,1.32,0,.17.42.73.53.73.12,0,.12-.17.24-.22.13-.06.24-.13.2-.3-.04-.15.14-.61.34-.93.18-.32.5-.43.75-.58.27-.14.38,0,.47.07.08.07.33.39.4.65.07.27.23.78.23,1.03s.35.4.49.4.5-.42.5-.55Zm4.72,1.09c0-.85-.34-1.66-.51-2.07-.17-.4-.39-.65-.39-.96s-.19-.3-.42-.46c-.23-.15-.51-.28-.81-.28-.34,0-.75.29-.98.48-.23.19-.62.77-.62,1.31s.04.64.38,1.13c.33.5.78.57,1.08.57s.6-.25.64-.42c.04-.18.23-.22.29-.45.06-.23.07-.35.24-.35s.2.57.28.67c.07.1.11.36.11.78,0,.59-.13,1.13-.4,1.51-.28.36-.65.5-1.03.5s-.33.08-.79-.12c-.46-.2-.53-.26-.46-.47.07-.22.01-.17-.14-.36-.16-.21-.47.11-.52.23-.06.11-.07.42.05.53.13.1-.02.22.44.58.46.37,1.03.4,1.33.4s.85-.15,1.22-.24c.37-.09.34-.29.44-.38.1-.08.27-.5.27-.68s.3-.6.3-1.42Zm-1.63-2.32c0,.3-.14.47-.14.59s-.1.3-.19.38c-.08.07-.11.33-.42.33s-.32-.19-.39-.25c-.07-.06-.22-.14-.22-.39s.17-.76.3-.95c.13-.19.55-.42.68-.42.27,0,.39.42.39.71Zm8.42-3.41c-.17-.15-.37-.2-.48-.32-.11-.11-.5-.19-.87-.19-.17,0-.46.07-.59.07s-.48.35-.59.48c-.12.13-.23.74-.23,1.01s.04.57.11.9c.08.33-.01.4-.2.4s-.17.39,0,.57c.17.18.22.21.33.21.09,0,.19.37.19.61s.2.38.2.54-.02.57.1.78c.11.21.31.46.51.46.21,0,.12-.1.21-.22.1-.11.02-.38-.02-.75-.04-.37-.22-.43-.2-.62.01-.2-.28-.43-.28-.65s.17-.19.41-.19.17-.15.5-.15.35.03.48.13c.13.09.31-.24.35-.33.03-.1.15-.31-.02-.39-.17-.07-.94,0-1.5,0s-.44-.46-.44-.73,0-.45.07-.81c.08-.37.15-.28.33-.51.17-.24.46-.18.58-.12.11.06.44.04.63.2.19.15.27.06.4,0,.13-.05.19-.23.02-.38Zm3.39,3.27c0-.5-.42-.99-.58-1.04-.15-.06-.7-.52-.84-.52-.11,0-.4.27-.4.48s.17.41.29.41.35.09.49.17c.14.08.38.45.38.59s-.02.23-.19.53c-.17.29-.33.46-.63.46s-.42-.24-.42-.34c0-.09-.22-.3-.22-.57s.24-.64.24-.76c0-.13-.28-.21-.41-.21s-.24.13-.31.35c-.05.22-.25.47-.25.68s.11.61.24.68c.13.07.14.63.28.64.13.02.69.35.98.35s.69-.39.91-.65c.21-.27.45-.76.45-1.26Zm3.97-.95c0-.1-.24-.38-.37-.38-.13,0-.34,0-.46.1-.13.1-.37.08-.55.19-.18.1-.29.18-.42.28-.13.1-.2,0-.21-.1-.01-.1-.2-.18-.32-.18-.34,0-.28.39-.21.6.05.21.11.45.04.6-.07.14-.1.4-.01.43.08.03.08.64.14.81.05.18.21.44.5.44s.35-.38.31-.6c-.05-.22-.05-.62-.05-.88s.15-.31.22-.47c.07-.18.33-.38.46-.5.12-.12.47-.2.61-.2.15,0,.32-.05.32-.15Zm7.58,3.05c0-.15-.23-.31-.45-.46-.2-.15-.34-.46-.51-.72-.17-.25-.33-.57-.37-.72-.04-.15,0-.56,0-.85s-.25-.45-.39-.53c-.13-.08-.44-.26-.61-.26-.08,0-.15-.03-.23.04-.07.08-.29-.09-.36.02-.08.11-.31.06-.39.11-.07.06-.57.46-.72.78-.15.31-.37.83-.37,1.1s.07.58.15.7c.07.11.04.38.15.42s.35.44.81.44.85-.4.9-.51c.06-.09.3-.25.31-.46.02-.22.16-.33.28-.33s.13.2.22.31c.1.12.35.3.37.46.02.18.21.33.35.41.13.08.39.37.54.37s.33-.2.33-.35Zm-2.08-2.88c.04.1-.09.33-.13.48-.03.15-.15.63-.31.92-.15.29-.48.88-.81.88s-.35-.37-.35-.63.04-.77.19-.77.15-.39.29-.4c.14-.02.1-.18.19-.26.1-.07.13-.22.25-.22.11,0,.15.02.24.02.11,0,.39-.11.42-.02Zm-102.93,12.16c0-.15-.36-.29-.49-.22-.13.07-.42-.14-.69-.15-.28-.02-.35-.12-.46-.1-.11.01-.25-.02-.25-.17v-.71c0-.23-.09-.53-.13-.65-.04-.13-.2-.21-.41-.21-.21,0-.25.63-.25.8s.07.64.07.9-.5.11-.63.11-.2.2-.2.42.28.25.35.31c.07.06.29-.06.43-.06s.13.56.13.95-.03.83-.13.93c-.1.1-.24.22-.24.32s.12.12.17.25c.06.13.28.25.42.25s.28-.14.36-.26c.09-.11.19-.43.19-.8s-.1-1.42-.1-1.58c0-.17.14-.12.2-.08.05.05.24.08.32,0,.07-.07.21-.09.43-.02.21.07.38.02.5.01.13-.01.44-.07.44-.24Zm4.38,2.64c0-.05-.03-.09-.09-.13-.07-.05-.14-.09-.2-.17-.17-.2-.49-.57-.53-.83-.03-.12-.11-.28-.19-.43-.04-.08-.09-.17-.12-.24-.04-.08-.07-.15-.09-.22-.05-.22-.33-.37-.45-.37-.07,0-.14.1-.22.21-.09.12-.17.26-.22.33-.02.02-.04.07-.07.12l-.07.17c-.06.12-.13.23-.19.23-.02,0-.04,0-.06.02l-.1.06c-.06.04-.15.09-.27.09-.22,0-.32-.72-.25-.94l.11-.28c.03-.08.05-.14.05-.2,0-.09-.23-.27-.39-.27-.08,0-.17.12-.18.26-.01.08-.07.15-.11.22-.05.07-.11.17-.15.29-.07.25-.15.71-.08.76.05.02.09.18.12.34.02.08.04.17.05.25l.05.19c.08.2.5.47.62.47.14,0,.58-.25.6-.36.01-.09.09-.17.16-.22.04-.02.08-.05.11-.08.09-.06.12-.1.18-.2.06-.08.18-.29.3-.29.07,0,.13.1.19.25.04.12.08.27.13.37.09.21.36.47.55.57.21.09.51.21.62.21s.2-.07.2-.19Zm4.9-.28c0-.11-.28-.19-.42-.6-.06-.17-.15-.64-.25-.9-.1-.26-.44-.63-.62-.66-.18-.02-.56-.27-.66-.27s-.29.18-.46.18-.34.2-.46.27c-.13.07-.21.1-.49.52-.28.4-.24-.14-.24-.48s-.31-.45-.49-.45c-.38,0-.28.53-.17.76.1.23.11,1.17.11,1.32,0,.17.42.73.53.73.12,0,.12-.17.24-.22.13-.06.24-.13.2-.3-.04-.15.14-.61.34-.93.18-.32.5-.43.75-.58.27-.14.38,0,.47.07.08.07.33.39.4.65.07.27.23.78.23,1.03s.35.4.49.4.5-.42.5-.55Zm4.3-.02c0-.09-.29-.04-.5-.04s-.04.2-.69.2-.83-.13-.98-.29-.03-.27.14-.29c.16-.02.51-.43.63-.55.11-.11.18-.35.4-.46.21-.11.17-.35.23-.48.05-.13,0-.41-.13-.66-.14-.25-.25-.37-.69-.37-.19,0-.91.24-1.19.43-.29.19-.55.81-.55,1.08s.13.79,0,.9c-.14.09.18.46.61.89.42.43.63.51,1.33.51s.94-.29,1.13-.42c.18-.14.27-.33.27-.43Zm-1.57-2.17c.07.11-.08.23-.21.4-.13.18-.4.39-.48.55-.08.15-.41.35-.39.05.02-.29.12-.44.33-.66.21-.21.3-.27.43-.27.11,0,.24-.2.33-.07Zm4.09,3.03c.06-.19.01-.44,0-.58-.01-.13-.22-.5-.32-.57-.1-.07-.2-.27-.37-.27-.08,0-.35.04-.36.09-.01.06-.19.11-.33.11-.14,0-.22.22-.22.38s.09.27.19.39c.11.12.29.06.54-.01.27-.07.17.13.17.3s-.17.37-.17.46-.18.22-.18.32c0,.11-.13.26-.29.4-.15.13-.25.31-.25.41,0,.11.02.27.11.27.1,0,.13.12.23.12.11,0,.1-.05.2-.12.11-.07.15-.19.22-.23.07-.05.19-.25.24-.4.06-.15.28-.34.3-.43.03-.1.2-.48.27-.66Zm6.86-4.79c0-.15-.13-.31-.5-.31-.34,0-.53.02-1.13.31-.59.3-.81.86-.81,1.19s.17.64.5.79.31.24.69.43.5.23.5.44.02.29-.24.41c-.28.11-.21.15-.54.29-.33.13-.33.02-.61.02s-.39.25-.39.42.09.41.52.41.79-.24,1.02-.33c.22-.1.42-.26.59-.43.17-.18.29-.4.29-.73s-.11-.46-.21-.57c-.09-.09-.33-.42-.65-.56-.57-.25-.7-.37-.7-.57s.35-.37.5-.51c.15-.13.55-.25.81-.31.24-.06.38-.25.38-.41Zm5.74,3.94c0-.11-.28-.19-.42-.6-.06-.17-.15-.64-.25-.9s-.44-.63-.62-.66c-.18-.02-.56-.27-.66-.27s-.29.18-.46.18-.34.2-.46.27c-.13.07-.21.1-.49.52-.28.4-.24-.14-.24-.48s-.31-.45-.49-.45c-.38,0-.28.53-.17.76.1.23.11,1.17.11,1.32,0,.17.42.73.53.73.12,0,.12-.17.24-.22.13-.06.24-.13.2-.3-.04-.15.14-.61.34-.93.18-.32.5-.43.75-.58.27-.14.38,0,.47.07.08.07.33.39.4.65.07.27.23.78.23,1.03s.35.4.49.4.5-.42.5-.55Zm4.82.28c0-.05-.03-.09-.09-.13-.07-.05-.14-.09-.2-.17-.17-.2-.49-.57-.53-.83-.03-.12-.11-.28-.19-.43-.04-.08-.09-.17-.12-.24-.04-.08-.07-.15-.09-.22-.05-.22-.33-.37-.45-.37-.07,0-.14.1-.22.21-.09.12-.17.26-.22.33-.02.02-.04.07-.07.12l-.07.17c-.06.12-.13.23-.19.23-.02,0-.04,0-.06.02l-.1.06c-.06.04-.15.09-.27.09-.22,0-.32-.72-.25-.94l.11-.28c.03-.08.05-.14.05-.2,0-.09-.23-.27-.39-.27-.08,0-.17.12-.18.26-.01.08-.07.15-.11.22-.05.07-.11.17-.15.29-.07.25-.15.71-.08.76.05.02.09.18.12.34.02.08.04.17.05.25l.05.19c.08.2.5.47.62.47.14,0,.58-.25.6-.36.01-.09.09-.17.16-.22.04-.02.08-.05.11-.08.09-.06.12-.1.18-.2.06-.08.18-.29.3-.29.07,0,.13.1.19.25.04.12.08.27.13.37.09.21.36.47.55.57.21.09.51.21.62.21s.2-.07.2-.19Zm3.44-4.92c-.17-.15-.37-.2-.48-.32-.11-.11-.5-.19-.87-.19-.17,0-.46.07-.59.07s-.48.35-.59.48c-.12.13-.23.74-.23,1.01s.04.57.11.9c.08.33-.01.4-.2.4s-.17.39,0,.57c.17.18.22.21.33.21.09,0,.19.37.19.61s.2.38.2.54-.02.57.1.78c.11.21.31.46.51.46.21,0,.12-.1.21-.22.1-.11.02-.38-.02-.75s-.22-.43-.2-.62c.01-.2-.28-.43-.28-.65s.17-.19.41-.19.17-.15.5-.15.35.03.48.13c.13.09.31-.24.35-.33.03-.1.15-.31-.02-.39-.17-.07-.94,0-1.5,0s-.44-.46-.44-.73,0-.45.07-.81c.08-.37.15-.28.33-.51.17-.24.46-.18.58-.12.11.06.44.04.63.2.19.15.27.06.4,0,.13-.05.19-.23.02-.38Zm4.11,4.82c0-.14-.37-.37-.48-.37s-.29-.17-.53-.21c-.24-.04-.35-.25-.51-.32-.15-.07-.17-.14-.17-.44s.22-.34.37-.52c.14-.18.28-.14.46-.34.18-.19.4-.37.39-.51-.01-.13.13-.14.13-.27,0-.11-.3-.29-.46-.29-.17,0-.84.7-1,.74-.15.04-.62.56-.79.56-.17,0-.17-.61-.17-.94s.01-1.61.01-1.75-.2-.38-.35-.38c-.24,0-.33.26-.33.43s.08.6.03.87c-.06.26.04,1.39.01,1.73-.03.33.14.72.11.99-.03.26.1.76.1.96,0,.19.36.27.48.27.11,0,.27-.27.27-.4s-.08-.31-.08-.48.03-.33.16-.33c.12,0,.14.32.25.46s.24.31.32.31.28.07.33.19c.06.11.3.24.45.26.16.03.48.27.58.27.09,0,.42-.34.42-.48Zm1.86-4.56c0-.32-.32-.18-.33-.28-.02-.1-.27-.22-.46-.22-.13,0-.31.24-.31.38s.17.3.29.36c.12.06.31.28.44.28.12,0,.37-.21.37-.53Zm.02,4.1c.1-.07-.1-.43-.1-.63,0-.19-.07-.52-.14-.71-.07-.19-.07-.58-.07-.75s-.31-.32-.45-.32c-.13,0-.25.29-.25.36s.04.18.11.29c.07.12.03.53.07.79.04.26.13.83.13,1.18s.21.47.36.47.22-.01.22-.12c0-.12.02-.48.12-.56Zm5.83.28c0-.11-.28-.19-.42-.6-.06-.17-.15-.64-.25-.9-.1-.26-.44-.63-.62-.66-.18-.02-.56-.27-.66-.27s-.29.18-.46.18-.34.2-.46.27c-.13.07-.21.1-.49.52-.28.4-.24-.14-.24-.48s-.31-.45-.49-.45c-.38,0-.28.53-.17.76.1.23.11,1.17.11,1.32,0,.17.42.73.53.73.12,0,.12-.17.24-.22.13-.06.24-.13.2-.3-.04-.15.14-.61.34-.93.18-.32.5-.43.75-.58.27-.14.38,0,.47.07.08.07.33.39.4.65.07.27.23.78.23,1.03s.35.4.49.4.5-.42.5-.55Zm6.87-2.36c0-.15-.36-.29-.49-.22-.13.07-.42-.14-.69-.15-.28-.02-.35-.12-.46-.1-.11.01-.25-.02-.25-.17v-.71c0-.23-.09-.53-.13-.65-.04-.13-.2-.21-.41-.21-.21,0-.25.63-.25.8s.07.64.07.9-.5.11-.63.11-.2.2-.2.42.28.25.35.31c.07.06.29-.06.43-.06s.13.56.13.95-.03.83-.13.93c-.1.1-.24.22-.24.32s.12.12.17.25c.06.13.28.25.42.25s.28-.14.36-.26c.09-.11.19-.43.19-.8s-.1-1.42-.1-1.58c0-.17.14-.12.2-.08.05.05.24.08.32,0,.07-.07.21-.09.43-.02.21.07.38.02.5.01.13-.01.44-.07.44-.24Zm5,2.58c0-.14-.2-.39-.31-.54-.1-.15-.38-.47-.41-.69-.02-.22-.16-.3-.25-.54-.08-.24-.46-.61-.96-.61s-.97.68-1.07.83c-.1.14-.2.41-.31.41-.09,0-.11-.62-.09-.8.01-.19-.31-1.92-.34-2.2s.03-.66.03-.81c0-.17-.17-.51-.36-.51-.09,0-.38.11-.38.27,0,.17-.01.59.03.96.04.38.3,2.32.33,2.79.03.48.32,1.24.32,1.49s.31.31.45.31.17-.1.32-.14.16-.35.16-.56.18-.5.33-.77c.14-.27.36-.44.58-.44s.32.2.5.33c.18.13.17.52.29.63s.17.38.38.47c.2.1.3.25.42.25.11,0,.35.02.35-.12Zm3.51-1.59c0-.5-.42-.99-.58-1.04-.15-.06-.7-.52-.84-.52-.11,0-.4.27-.4.48s.17.41.29.41.35.09.49.17c.14.08.38.45.38.59s-.02.23-.19.53c-.17.29-.33.46-.63.46s-.42-.24-.42-.34c0-.09-.22-.3-.22-.57s.24-.64.24-.76c0-.13-.28-.21-.41-.21s-.24.13-.31.35c-.05.22-.25.47-.25.68s.11.61.24.68.14.63.28.64c.13.02.69.35.98.35s.69-.39.91-.65c.21-.27.45-.76.45-1.26Zm5,1.65c0-.05-.03-.09-.09-.13-.07-.05-.14-.09-.2-.17-.17-.2-.49-.57-.53-.83-.03-.12-.11-.28-.19-.43-.04-.08-.09-.17-.12-.24-.04-.08-.07-.15-.09-.22-.05-.22-.33-.37-.45-.37-.07,0-.14.1-.22.21-.09.12-.17.26-.22.33-.02.02-.04.07-.07.12l-.07.17c-.06.12-.13.23-.19.23-.02,0-.04,0-.06.02l-.1.06c-.06.04-.15.09-.27.09-.22,0-.32-.72-.25-.94l.11-.28c.03-.08.05-.14.05-.2,0-.09-.23-.27-.39-.27-.08,0-.17.12-.18.26-.01.08-.07.15-.11.22-.05.07-.11.17-.15.29-.07.25-.15.71-.08.76.05.02.09.18.12.34.02.08.04.17.05.25l.05.19c.08.2.5.47.62.47.14,0,.58-.25.6-.36.01-.09.09-.17.16-.22.04-.02.08-.05.11-.08.09-.06.12-.1.18-.2.06-.08.18-.29.3-.29.07,0,.13.1.19.25.04.12.08.27.13.37.09.21.36.47.55.57.21.09.51.21.62.21s.2-.07.2-.19Zm4.24.81c0-.85-.34-1.66-.51-2.07-.17-.4-.39-.65-.39-.96s-.19-.3-.42-.46c-.23-.15-.51-.28-.81-.28-.34,0-.75.29-.98.48-.23.19-.62.77-.62,1.31s.04.64.38,1.13c.33.5.78.57,1.08.57s.6-.25.64-.42c.04-.18.23-.22.29-.45.06-.23.07-.35.24-.35s.2.57.28.67c.07.1.11.36.11.78,0,.59-.13,1.13-.4,1.51-.28.36-.65.5-1.03.5s-.33.08-.79-.12c-.46-.2-.53-.26-.46-.47.07-.22.01-.17-.14-.36-.16-.21-.47.11-.52.23-.06.11-.07.42.05.53.13.1-.02.22.44.58.46.37,1.03.4,1.33.4s.85-.15,1.22-.24c.37-.09.34-.29.44-.38.1-.08.27-.5.27-.68s.3-.6.3-1.42Zm-1.63-2.32c0,.3-.14.47-.14.59s-.1.3-.19.38c-.08.07-.11.33-.42.33s-.32-.19-.39-.25c-.07-.06-.22-.14-.22-.39s.17-.76.3-.95c.13-.19.55-.42.68-.42.27,0,.39.42.39.71Zm7.34,1.44c0-.14-.2-.39-.31-.54-.1-.15-.38-.47-.41-.69-.02-.22-.16-.3-.25-.54-.08-.24-.46-.61-.96-.61s-.97.68-1.07.83c-.1.14-.2.41-.31.41-.09,0-.11-.62-.09-.8.01-.19-.31-1.92-.34-2.2s.03-.66.03-.81c0-.17-.17-.51-.36-.51-.09,0-.38.11-.38.27,0,.17-.01.59.03.96.04.38.3,2.32.33,2.79.03.48.32,1.24.32,1.49s.31.31.45.31.17-.1.32-.14.16-.35.16-.56.18-.5.33-.77c.14-.27.36-.44.58-.44s.32.2.5.33c.18.13.17.52.29.63s.17.38.38.47c.2.1.3.25.42.25.11,0,.35.02.35-.12Zm3.98-2.58c0-.15-.36-.29-.49-.22-.13.07-.42-.14-.69-.15-.28-.02-.35-.12-.46-.1-.11.01-.25-.02-.25-.17v-.71c0-.23-.09-.53-.13-.65-.04-.13-.2-.21-.41-.21-.21,0-.25.63-.25.8s.07.64.07.9-.5.11-.63.11-.2.2-.2.42.28.25.35.31c.07.06.29-.06.43-.06s.13.56.13.95-.03.83-.13.93c-.1.1-.24.22-.24.32s.12.12.17.25c.06.13.28.25.42.25s.28-.14.36-.26c.09-.11.19-.43.19-.8s-.1-1.42-.1-1.58c0-.17.14-.12.2-.08.05.05.24.08.32,0,.07-.07.21-.09.43-.02.21.07.38.02.5.01.13-.01.44-.07.44-.24Zm1.89,2.48c0-.14-.07-.57-.16-.57-.08,0-.27-.22-.43-.22-.23,0-.21.23-.38.35-.15.11.02.14.02.26s.24.39.29.39.31.14.45.14.21-.22.21-.36Zm9.35-1.68c0-.18-.57-.1-.93-.11-.37-.01-.48-.13-.55-.27-.07-.12-.53-1.19-.78-1.66-.24-.48-.56-1.13-1-1.13s-.37.58-.39.85c-.01.26-.7,2.1-.86,2.7-.16.6-.51,1.95-.55,2.16-.04.22-.2.3-.2.42,0,.11.13.21.18.24.06.03.1.23.2.23s.14-.06.24-.1c.1-.05.14-.15.13-.25-.03-.18.38-1.59.43-1.82.06-.23.07-.2.24-.19s.48-.12.8-.23c.32-.09.69-.25.91-.32.21-.07.28-.01.32.09.04.11.14.42.21.66.07.24-.17.39-.17.53,0,.12.25.07.38.18.11.11.11.33.21.33s.1-.21.29-.32c.18-.1.2-.23.11-.47-.08-.25-.34-.97-.34-1.09,0-.13.47-.18.74-.12s.36-.1.36-.29Zm-2.21-.42c.1.2.24.35-.03.39-.28.03-1.06.25-1.2.31-.15.06-.41.08-.27-.24.14-.32.53-1.62.55-1.82.01-.19.17-.46.35-.03.09.24.5,1.18.6,1.38Zm9.93,1.99c0-.11-.28-.19-.42-.6-.06-.17-.15-.64-.25-.9-.1-.26-.44-.63-.62-.66-.18-.02-.56-.27-.66-.27s-.29.18-.46.18-.34.2-.46.27c-.13.07-.21.1-.49.52-.28.4-.24-.14-.24-.48s-.31-.45-.49-.45c-.38,0-.28.53-.17.76.1.23.11,1.17.11,1.32,0,.17.42.73.53.73.12,0,.12-.17.24-.22.13-.06.24-.13.2-.3-.04-.15.14-.61.34-.93.18-.32.5-.43.75-.58.27-.14.38,0,.47.07.08.07.33.39.4.65.07.27.23.78.23,1.03s.35.4.49.4.5-.42.5-.55Zm4.3-.02c0-.09-.29-.04-.5-.04s-.04.2-.69.2-.83-.13-.98-.29c-.15-.15-.03-.27.14-.29.16-.02.51-.43.63-.55.11-.11.18-.35.4-.46.21-.11.17-.35.23-.48.05-.13,0-.41-.13-.66-.14-.25-.25-.37-.69-.37-.19,0-.91.24-1.19.43-.29.19-.55.81-.55,1.08s.13.79,0,.9c-.14.09.18.46.61.89.42.43.63.51,1.33.51s.94-.29,1.13-.42c.18-.14.27-.33.27-.43Zm-1.57-2.17c.07.11-.08.23-.21.4-.13.18-.4.39-.48.55-.08.15-.41.35-.39.05.02-.29.12-.44.33-.66.21-.21.3-.27.43-.27.11,0,.24-.2.33-.07Zm6.77-.06c0-.19-.34-.25-.42-.37-.09-.13-.28-.18-.39-.18-.12,0-.32.21-.32.35s.02.46.07.67c.04.2.12.5.12.84s-.15.5-.39.5-.32-.01-.36-.15c-.04-.14-.24-.39-.38-.45-.12-.05-.11-.35-.18-.36-.07-.02-.32-.25-.41-.25-.08,0-.11.03-.22.08-.11.06-.28.2-.35.34-.07.14-.1.39-.2.39s-.08-.1-.11-.26c-.03-.17-.07-.47-.06-.62.02-.14-.15-.37-.28-.37-.11,0-.19-.17-.33-.17-.14,0-.2.29-.2.48,0,.19.02.46.12.67.09.2.05.48.05.73s.17.42.2.66.46.28.6.28.13-.09.13-.21.13-.15.15-.31c.03-.14.24-.25.24-.34,0-.1.06-.28.23-.28s.43.43.6.6c.17.15.58.36.7.36.13,0,.19-.13.31-.13s.45-.08.57-.21c.13-.11.24-.71.24-.92s-.08-.71-.08-.9.31-.29.31-.48Zm-111.53,12.26c0-.15-.36-.29-.49-.22-.13.07-.42-.14-.69-.15-.28-.02-.35-.12-.46-.1-.11.01-.25-.02-.25-.17v-.71c0-.23-.09-.53-.13-.65-.04-.13-.2-.21-.41-.21-.21,0-.25.63-.25.8s.07.64.07.9-.5.11-.63.11-.2.2-.2.42.28.25.35.31c.07.06.29-.06.43-.06s.13.56.13.95-.03.83-.13.93-.24.22-.24.32.12.12.17.25c.06.13.28.25.42.25s.28-.14.36-.26c.09-.11.19-.43.19-.8s-.1-1.42-.1-1.58c0-.17.14-.12.2-.08.05.05.24.08.32,0,.07-.07.21-.09.43-.02s.38.02.5.01c.13-.01.44-.07.44-.24Zm4.38,2.64c0-.05-.03-.09-.09-.13-.07-.05-.14-.09-.2-.17-.17-.2-.49-.57-.53-.83-.03-.12-.11-.28-.19-.43-.04-.08-.09-.17-.12-.24-.04-.08-.07-.15-.09-.22-.05-.22-.33-.37-.45-.37-.07,0-.14.1-.22.21-.09.12-.17.26-.22.33-.02.02-.04.07-.07.12l-.07.17c-.06.12-.13.23-.19.23-.02,0-.04,0-.06.02l-.1.06c-.06.04-.15.09-.27.09-.22,0-.32-.72-.25-.94l.11-.28c.03-.08.05-.14.05-.2,0-.09-.23-.27-.39-.27-.08,0-.17.12-.18.26-.01.08-.07.15-.11.22-.05.07-.11.17-.15.29-.07.25-.15.71-.08.76.05.02.09.18.12.34.02.08.04.17.05.25l.05.19c.08.2.5.47.62.47.14,0,.58-.25.6-.36.01-.09.09-.17.16-.22.04-.02.08-.05.11-.08.09-.06.12-.1.18-.2.06-.08.18-.29.3-.29.07,0,.13.1.19.25.04.12.08.27.13.37.09.21.36.47.55.57.21.09.51.21.62.21s.2-.07.2-.19Zm4.9-.28c0-.11-.28-.19-.42-.6-.06-.17-.15-.64-.25-.9-.1-.26-.44-.63-.62-.66-.18-.02-.56-.27-.66-.27s-.29.18-.46.18-.34.2-.46.27c-.13.07-.21.1-.49.52-.28.4-.24-.14-.24-.48s-.31-.45-.49-.45c-.38,0-.28.53-.17.76.1.23.11,1.17.11,1.32,0,.17.42.73.53.73.12,0,.12-.17.24-.22.13-.06.24-.13.2-.3-.04-.15.14-.61.34-.93.18-.32.5-.43.75-.58.27-.14.38,0,.47.07.08.07.33.39.4.65.07.27.23.78.23,1.03s.35.4.49.4.5-.42.5-.55Zm4.3-.02c0-.09-.29-.04-.5-.04s-.04.2-.69.2-.83-.13-.98-.29-.03-.27.14-.29c.16-.02.51-.43.63-.55.11-.11.18-.35.4-.46s.17-.35.23-.48c.05-.13,0-.41-.13-.66-.14-.25-.25-.37-.69-.37-.19,0-.91.24-1.19.43-.29.19-.55.81-.55,1.08s.13.79,0,.9c-.14.09.18.46.61.89.42.43.63.51,1.33.51s.94-.29,1.13-.42c.18-.14.27-.33.27-.43Zm-1.57-2.17c.07.11-.08.23-.21.4-.13.18-.4.39-.48.55-.08.15-.41.35-.39.05.02-.29.12-.44.33-.66.21-.21.3-.27.43-.27.11,0,.24-.2.33-.07Zm4.09,3.03c.06-.19.01-.44,0-.58-.01-.13-.22-.5-.32-.57-.1-.07-.2-.27-.37-.27-.08,0-.35.04-.36.09-.01.06-.19.11-.33.11-.14,0-.22.22-.22.38s.09.27.19.39c.11.12.29.06.54-.01.27-.07.17.13.17.3s-.17.37-.17.46-.18.22-.18.32c0,.11-.13.26-.29.4-.15.13-.25.31-.25.41,0,.11.02.27.11.27.1,0,.13.12.23.12.11,0,.1-.05.2-.12.11-.07.15-.19.22-.23.07-.05.19-.25.24-.4.06-.15.28-.34.3-.43.03-.1.2-.48.27-.66Zm6.99-2.22c0-.5-.42-.99-.58-1.04-.15-.06-.7-.52-.84-.52-.11,0-.4.27-.4.48s.17.41.29.41.35.09.49.17c.14.08.38.45.38.59s-.02.23-.19.53c-.17.29-.33.46-.63.46s-.42-.24-.42-.34c0-.09-.22-.3-.22-.57s.24-.64.24-.76c0-.13-.28-.21-.41-.21s-.24.13-.31.35c-.05.22-.25.47-.25.68s.11.61.24.68c.13.07.14.63.28.64.13.02.69.35.98.35s.69-.39.91-.65c.21-.27.45-.76.45-1.26Zm5.57,1.37c0-.11-.28-.19-.42-.6-.06-.17-.15-.64-.25-.9s-.44-.63-.62-.66c-.18-.02-.56-.27-.66-.27s-.29.18-.46.18-.34.2-.46.27c-.13.07-.21.1-.49.52-.28.4-.24-.14-.24-.48s-.31-.45-.49-.45c-.38,0-.28.53-.17.76.1.23.11,1.17.11,1.32,0,.17.42.73.53.73.12,0,.12-.17.24-.22.13-.06.24-.13.2-.3-.04-.15.14-.61.34-.93.18-.32.5-.43.75-.58.27-.14.38,0,.47.07.08.07.33.39.4.65.07.27.23.78.23,1.03s.35.4.49.4.5-.42.5-.55Zm4.3-.02c0-.09-.29-.04-.5-.04s-.04.2-.69.2-.83-.13-.98-.29c-.15-.15-.03-.27.14-.29.16-.02.51-.43.63-.55.11-.11.18-.35.4-.46s.17-.35.23-.48c.05-.13,0-.41-.13-.66-.14-.25-.25-.37-.69-.37-.19,0-.91.24-1.19.43-.29.19-.55.81-.55,1.08s.13.79,0,.9c-.14.09.18.46.61.89.42.43.63.51,1.33.51s.94-.29,1.13-.42c.18-.14.27-.33.27-.43Zm-1.57-2.17c.07.11-.08.23-.21.4-.13.18-.4.39-.48.55-.08.15-.41.35-.39.05.02-.29.12-.44.33-.66.21-.21.3-.27.43-.27.11,0,.24-.2.33-.07Zm8.14.71c0-.13.08-.45-.04-.5-.13-.05-.16-.2-.28-.28-.11-.09-.56-.32-.85-.32-.42,0-.54.14-.66.22-.13.07-.35.28-.46.33-.12.06-.13.33-.23.33s-.31-.1-.45,0c-.14.09-.01.29.07.44.09.17.1,1.08-.05,1.72-.14.64.19,1.28.19,1.72s.31.67.4.94c.08.27.21.28.44.28s.35-.25.35-.4c0-.14-.09-.47-.13-.64-.04-.17-.08-.92-.11-1.22-.03-.31-.3-1.31-.3-1.5,0-.2.09-.06.15.03.06.08.25.18.52.18s.4-.05.64-.05.32-.29.52-.51c.2-.22.28-.66.28-.78Zm-.73,0c0,.14-.13.35-.23.44-.09.1-.22.25-.49.25s-.36-.02-.44.07c-.09.1-.2,0-.2-.17,0-.18.18-.48.32-.63.13-.14.46-.38.67-.38.27,0,.38.27.38.41Zm6.27,2.21c0-.15-.23-.31-.45-.46-.2-.15-.34-.46-.51-.72-.17-.25-.33-.57-.37-.72-.04-.15,0-.56,0-.85s-.25-.45-.39-.53c-.13-.08-.44-.26-.61-.26-.08,0-.15-.03-.23.04-.07.08-.29-.09-.36.02-.08.11-.31.06-.39.11-.07.06-.57.46-.72.78-.15.31-.37.83-.37,1.1s.07.58.15.7c.07.11.04.38.15.42.11.04.35.44.81.44s.85-.4.9-.51c.06-.09.3-.25.31-.46.02-.22.16-.33.28-.33s.13.2.22.31c.1.12.35.3.37.46.02.18.21.33.35.41.13.08.39.37.54.37s.33-.2.33-.35Zm-2.08-2.88c.04.1-.09.33-.13.48-.03.15-.15.63-.31.92-.15.29-.48.88-.81.88s-.35-.37-.35-.63.04-.77.19-.77.15-.39.29-.4c.14-.02.1-.18.19-.26.1-.07.13-.22.25-.22.11,0,.15.02.24.02.11,0,.39-.11.42-.02Zm5.28-.18c0-.1-.24-.38-.37-.38-.13,0-.34,0-.46.1-.13.1-.37.08-.55.19-.18.1-.29.18-.42.28-.13.1-.2,0-.21-.1-.01-.1-.2-.18-.32-.18-.34,0-.28.39-.21.6.05.21.11.45.04.6-.07.14-.1.4-.01.43.08.03.08.64.14.81.05.18.21.44.5.44s.35-.38.31-.6c-.05-.22-.05-.62-.05-.88s.15-.31.22-.47c.07-.18.33-.38.46-.5.12-.12.47-.2.61-.2.15,0,.32-.05.32-.15Zm3.89-.04c0-.15-.36-.29-.49-.22-.13.07-.42-.14-.69-.15-.28-.02-.35-.12-.46-.1-.11.01-.25-.02-.25-.17v-.71c0-.23-.09-.53-.13-.65-.04-.13-.2-.21-.41-.21-.21,0-.25.63-.25.8s.07.64.07.9-.5.11-.63.11-.2.2-.2.42.28.25.35.31c.07.06.29-.06.43-.06s.13.56.13.95-.03.83-.13.93c-.1.1-.24.22-.24.32s.12.12.17.25c.06.13.28.25.42.25s.28-.14.36-.26c.09-.11.19-.43.19-.8s-.1-1.42-.1-1.58c0-.17.14-.12.2-.08.05.05.24.08.32,0,.07-.07.21-.09.43-.02.21.07.38.02.5.01.13-.01.44-.07.44-.24Zm6.44,2.34c0-.09-.29-.04-.5-.04s-.04.2-.69.2-.83-.13-.98-.29c-.15-.15-.03-.27.14-.29.16-.02.51-.43.63-.55.11-.11.18-.35.4-.46.21-.11.17-.35.23-.48.05-.13,0-.41-.13-.66-.14-.25-.25-.37-.69-.37-.19,0-.91.24-1.19.43-.29.19-.55.81-.55,1.08s.13.79,0,.9c-.14.09.18.46.61.89.42.43.63.51,1.33.51s.94-.29,1.13-.42c.18-.14.27-.33.27-.43Zm-1.57-2.17c.07.11-.08.23-.21.4s-.4.39-.48.55c-.08.15-.41.35-.39.05.02-.29.12-.44.33-.66.21-.21.3-.27.43-.27.11,0,.24-.2.33-.07Zm5.51-.33c.03-.18.16-.32-.03-.53-.18-.21-.34.01-.41.01-.08,0-.3.35-.33.52-.02.15-.25.25-.33.37-.07.13-.32.38-.46.53s-.2.36-.29.36c-.09,0-.31-.27-.42-.42-.12-.14-.37-.2-.37-.32,0-.11-.15-.2-.15-.36,0-.15-.29-.28-.42-.28-.11,0-.25.28-.25.39,0,.12.15.25.15.35s.21.3.23.44c.01.14.32.4.49.52.17.12.21.24.21.35,0,.12-.32.18-.41.25-.08.07-.19.21-.08.34.11.12.08.19.08.45s.17.29.39.29.24-.06.3-.1c.04-.04.18-.19.22-.41.04-.22.17-.22.32-.22s.12.25.28.32c.16.07.32.28.48.41.15.12.4.19.49.19.08,0,.11-.19.17-.35.05-.15-.03-.36-.12-.36-.08,0-.37-.25-.63-.48-.25-.23-.29-.39-.29-.54s.29-.39.33-.51c.05-.12.17-.22.3-.34.11-.11.19-.18.36-.33.15-.17.15-.36.18-.54Zm4.32,1.04c0-.13.08-.45-.04-.5-.13-.05-.16-.2-.28-.28-.11-.09-.56-.32-.85-.32-.42,0-.54.14-.66.22-.13.07-.35.28-.46.33-.12.06-.13.33-.23.33s-.31-.1-.45,0c-.14.09-.01.29.07.44.09.17.1,1.08-.05,1.72-.14.64.19,1.28.19,1.72s.31.67.4.94c.08.27.21.28.44.28s.35-.25.35-.4c0-.14-.09-.47-.13-.64-.04-.17-.08-.92-.11-1.22-.03-.31-.3-1.31-.3-1.5,0-.2.09-.06.15.03.06.08.25.18.52.18s.4-.05.64-.05.32-.29.52-.51c.2-.22.28-.66.28-.78Zm-.73,0c0,.14-.13.35-.23.44-.09.1-.22.25-.49.25s-.36-.02-.44.07c-.09.1-.2,0-.2-.17,0-.18.18-.48.32-.63s.46-.38.67-.38c.27,0,.38.27.38.41Zm5.17,1.45c0-.09-.29-.04-.5-.04s-.04.2-.69.2-.83-.13-.98-.29c-.15-.15-.03-.27.14-.29.16-.02.51-.43.63-.55.11-.11.18-.35.4-.46.21-.11.17-.35.23-.48.05-.13,0-.41-.13-.66-.14-.25-.25-.37-.69-.37-.19,0-.91.24-1.19.43-.29.19-.55.81-.55,1.08s.13.79,0,.9c-.14.09.18.46.61.89.42.43.63.51,1.33.51s.94-.29,1.13-.42c.18-.14.27-.33.27-.43Zm-1.57-2.17c.07.11-.08.23-.21.4-.13.18-.4.39-.48.55-.08.15-.41.35-.39.05.02-.29.12-.44.33-.66.21-.21.3-.27.43-.27.11,0,.24-.2.33-.07Zm5.02,2.31c-.07-.06-.17-.13-.24-.04-.08.1-.3.15-.58.15s-.15-.11-.63-.18c-.48-.05-.44-.36-.44-.56s.17-.57.35-1.01.44-.55.55-.55c.12,0,.28.13.41.13s.22-.13.22-.23c0-.1-.03-.31-.15-.39-.11-.07-.24-.23-.55-.23-.19,0-.37.11-.61.19-.25.08-.52.53-.67.9-.15.37-.3.9-.3,1.14s.21.74.37.97c.15.24.58.37.75.31.17-.05.24.2.53.2s.81-.27.98-.42.1-.33.02-.39Zm4.25-2.49c0-.15-.36-.29-.49-.22-.13.07-.42-.14-.69-.15-.28-.02-.35-.12-.46-.1-.11.01-.25-.02-.25-.17v-.71c0-.23-.09-.53-.13-.65-.04-.13-.2-.21-.41-.21-.21,0-.25.63-.25.8s.07.64.07.9-.5.11-.63.11-.2.2-.2.42.28.25.35.31c.07.06.29-.06.43-.06s.13.56.13.95-.03.83-.13.93c-.1.1-.24.22-.24.32s.12.12.17.25c.06.13.28.25.42.25s.28-.14.36-.26c.09-.11.19-.43.19-.8s-.1-1.42-.1-1.58c0-.17.14-.12.2-.08.05.05.24.08.32,0,.07-.07.21-.09.43-.02.21.07.38.02.5.01.13-.01.44-.07.44-.24Zm4.97,3.09c0-.15-.23-.31-.45-.46-.2-.15-.34-.46-.51-.72-.17-.25-.33-.57-.37-.72-.04-.15,0-.56,0-.85s-.25-.45-.39-.53c-.13-.08-.44-.26-.61-.26-.08,0-.15-.03-.23.04-.07.08-.29-.09-.36.02-.08.11-.31.06-.39.11-.07.06-.57.46-.72.78-.15.31-.37.83-.37,1.1s.07.58.15.7c.07.11.04.38.15.42.11.04.35.44.81.44s.85-.4.9-.51c.06-.09.3-.25.31-.46.02-.22.16-.33.28-.33s.13.2.22.31c.1.12.35.3.37.46.02.18.21.33.35.41.13.08.39.37.54.37s.33-.2.33-.35Zm-2.08-2.88c.04.1-.09.33-.13.48-.03.15-.15.63-.31.92s-.48.88-.81.88-.35-.37-.35-.63.04-.77.19-.77.15-.39.29-.4c.14-.02.1-.18.19-.26.1-.07.13-.22.25-.22.11,0,.15.02.24.02.11,0,.39-.11.42-.02Zm5.78-.22c0-.15-.36-.29-.49-.22-.13.07-.42-.14-.69-.15-.28-.02-.35-.12-.46-.1-.11.01-.25-.02-.25-.17v-.71c0-.23-.09-.53-.13-.65-.04-.13-.2-.21-.41-.21-.21,0-.25.63-.25.8s.07.64.07.9-.5.11-.63.11-.2.2-.2.42.28.25.35.31c.07.06.29-.06.43-.06s.13.56.13.95-.03.83-.13.93c-.1.1-.24.22-.24.32s.12.12.17.25c.06.13.28.25.42.25s.28-.14.36-.26c.09-.11.19-.43.19-.8s-.1-1.42-.1-1.58c0-.17.14-.12.2-.08.05.05.24.08.32,0,.07-.07.21-.09.43-.02.21.07.38.02.5.01.13-.01.44-.07.44-.24Zm1.72-2.02c0-.32-.32-.18-.33-.28-.02-.1-.27-.22-.46-.22-.13,0-.31.24-.31.38s.17.3.29.36c.12.06.31.28.44.28.12,0,.37-.21.37-.53Zm.02,4.1c.1-.07-.1-.43-.1-.63,0-.19-.07-.52-.14-.71-.07-.19-.07-.58-.07-.75s-.31-.32-.45-.32c-.13,0-.25.29-.25.36s.04.18.11.29c.07.12.03.53.07.79.04.26.13.83.13,1.18s.21.47.36.47.22-.01.22-.12c0-.12.02-.48.12-.56Zm4.26-1.09c0-.5-.42-.99-.58-1.04-.15-.06-.7-.52-.84-.52-.11,0-.4.27-.4.48s.17.41.29.41.35.09.49.17c.14.08.38.45.38.59s-.02.23-.19.53c-.17.29-.33.46-.63.46s-.42-.24-.42-.34c0-.09-.22-.3-.22-.57s.24-.64.24-.76c0-.13-.28-.21-.41-.21s-.24.13-.31.35c-.05.22-.25.47-.25.68s.11.61.24.68.14.63.28.64c.13.02.69.35.98.35s.69-.39.91-.65c.21-.27.45-.76.45-1.26Zm5.57,1.37c0-.11-.28-.19-.42-.6-.06-.17-.15-.64-.25-.9-.1-.26-.44-.63-.62-.66-.18-.02-.56-.27-.66-.27s-.29.18-.46.18-.34.2-.46.27c-.13.07-.21.1-.49.52-.28.4-.24-.14-.24-.48s-.31-.45-.49-.45c-.38,0-.28.53-.17.76.1.23.11,1.17.11,1.32,0,.17.42.73.53.73.12,0,.12-.17.24-.22.13-.06.24-.13.2-.3-.04-.15.14-.61.34-.93.18-.32.5-.43.75-.58.27-.14.38,0,.47.07.08.07.33.39.4.65.07.27.23.78.23,1.03s.35.4.49.4.5-.42.5-.55Zm2.74.85c.06-.19.01-.44,0-.58-.01-.13-.22-.5-.32-.57-.1-.07-.2-.27-.37-.27-.08,0-.35.04-.36.09-.01.06-.19.11-.33.11-.14,0-.22.22-.22.38s.09.27.19.39c.11.12.29.06.54-.01.27-.07.17.13.17.3s-.17.37-.17.46-.18.22-.18.32c0,.11-.13.26-.29.4-.15.13-.25.31-.25.41,0,.11.02.27.11.27.1,0,.13.12.23.12.11,0,.1-.05.2-.12.11-.07.15-.19.22-.23.07-.05.19-.25.24-.4.06-.15.28-.34.3-.43.03-.1.2-.48.27-.66Zm-101.97,9.17c0-.15-.36-.29-.49-.22-.13.07-.42-.14-.69-.15-.28-.02-.35-.12-.46-.1-.11.01-.25-.02-.25-.17v-.71c0-.23-.09-.53-.13-.65-.04-.13-.2-.21-.41-.21-.21,0-.25.63-.25.8s.07.64.07.9-.5.11-.63.11-.2.2-.2.42.28.25.35.31c.07.06.29-.06.43-.06s.13.56.13.95-.03.83-.13.93-.24.22-.24.32.12.12.17.25c.06.13.28.25.42.25s.28-.14.36-.26c.09-.11.19-.43.19-.8s-.1-1.42-.1-1.58c0-.17.14-.12.2-.08.05.05.24.08.32,0,.07-.07.21-.09.43-.02s.38.02.5.01c.13-.01.44-.07.44-.24Zm4.98.11c0-.19-.34-.25-.42-.37-.09-.13-.28-.18-.39-.18-.12,0-.32.21-.32.35s.02.46.07.67c.04.2.12.5.12.84s-.15.5-.39.5-.32-.01-.36-.15-.24-.39-.38-.45c-.12-.05-.11-.35-.18-.36-.07-.02-.32-.25-.41-.25-.08,0-.11.03-.22.08-.11.06-.28.2-.35.34s-.1.39-.2.39-.08-.1-.11-.26c-.03-.17-.07-.47-.06-.62.02-.14-.15-.37-.28-.37-.11,0-.19-.17-.33-.17-.14,0-.2.29-.2.48,0,.19.02.46.12.67.09.2.05.48.05.73s.17.42.2.66c.03.24.46.28.6.28s.13-.09.13-.21.13-.15.15-.31c.03-.14.24-.25.24-.34,0-.1.06-.28.23-.28s.43.43.6.6c.17.15.58.36.7.36.13,0,.19-.13.31-.13s.45-.08.57-.21c.13-.11.24-.71.24-.92s-.08-.71-.08-.9.31-.29.31-.48Zm3.95.88c0-.5-.42-.99-.58-1.04-.15-.06-.7-.52-.84-.52-.11,0-.4.27-.4.48s.17.41.29.41.35.09.49.17c.14.08.38.45.38.59s-.02.23-.19.53c-.17.29-.33.46-.63.46s-.42-.24-.42-.34c0-.09-.22-.3-.22-.57s.24-.64.24-.76c0-.13-.28-.21-.41-.21s-.24.13-.31.35c-.05.22-.25.47-.25.68s.11.61.24.68c.13.07.14.63.28.64.13.02.69.35.98.35s.69-.39.91-.65c.21-.27.45-.76.45-1.26Zm6.97-.1c0-.13.08-.45-.04-.5-.13-.05-.16-.2-.28-.28-.11-.09-.56-.32-.85-.32-.42,0-.54.14-.66.22-.13.07-.35.28-.46.33-.12.06-.13.33-.23.33s-.31-.1-.45,0c-.14.09-.01.29.07.44.09.17.1,1.08-.05,1.72-.14.64.19,1.28.19,1.72s.31.67.4.94c.08.27.21.28.44.28s.35-.25.35-.4c0-.14-.09-.47-.13-.64-.04-.17-.08-.92-.11-1.22-.03-.31-.3-1.31-.3-1.5,0-.2.09-.06.15.03.06.08.25.18.52.18s.4-.05.64-.05.32-.29.52-.51c.2-.22.28-.66.28-.78Zm-.73,0c0,.14-.13.35-.23.44-.09.1-.22.25-.49.25s-.36-.02-.44.07c-.09.1-.2,0-.2-.17,0-.18.18-.48.32-.63s.46-.38.67-.38c.27,0,.38.27.38.41Zm6.27,2.21c0-.15-.23-.31-.45-.46-.2-.15-.34-.46-.51-.72-.17-.25-.33-.57-.37-.72-.04-.15,0-.56,0-.85s-.25-.45-.39-.53c-.13-.08-.44-.26-.61-.26-.08,0-.15-.03-.23.04-.07.08-.29-.09-.36.02-.08.11-.31.06-.39.11-.07.06-.57.46-.72.78-.15.31-.37.83-.37,1.1s.07.58.15.7c.07.11.04.38.15.42.11.04.35.44.81.44s.85-.4.9-.51c.06-.09.3-.25.31-.46.02-.22.16-.33.28-.33s.13.2.22.31c.1.12.35.3.37.46.02.18.21.33.35.41.13.08.39.37.54.37s.33-.2.33-.35Zm-2.08-2.88c.04.1-.09.33-.13.48-.03.15-.15.63-.31.92s-.48.88-.81.88-.35-.37-.35-.63.04-.77.19-.77.15-.39.29-.4c.14-.02.1-.18.19-.26.1-.07.13-.22.25-.22.11,0,.15.02.24.02.11,0,.39-.11.42-.02Zm5.28-.18c0-.1-.24-.38-.37-.38-.13,0-.34,0-.46.1-.13.1-.37.08-.55.19s-.29.18-.42.28c-.13.1-.2,0-.21-.1-.01-.1-.2-.18-.32-.18-.34,0-.28.39-.21.6.05.21.11.45.04.6s-.1.4-.01.43c.08.03.08.64.14.81.05.18.21.44.5.44s.35-.38.31-.6c-.05-.22-.05-.62-.05-.88s.15-.31.22-.47c.07-.18.33-.38.46-.5.12-.12.47-.2.61-.2.15,0,.32-.05.32-.15Zm3.89-.04c0-.15-.36-.29-.49-.22-.13.07-.42-.14-.69-.15-.28-.02-.35-.12-.46-.1-.11.01-.25-.02-.25-.17v-.71c0-.23-.09-.53-.13-.65-.04-.13-.2-.21-.41-.21-.21,0-.25.63-.25.8s.07.64.07.9-.5.11-.63.11-.2.2-.2.42.28.25.35.31c.07.06.29-.06.43-.06s.13.56.13.95-.03.83-.13.93-.24.22-.24.32.12.12.17.25c.06.13.28.25.42.25s.28-.14.36-.26c.09-.11.19-.43.19-.8s-.1-1.42-.1-1.58c0-.17.14-.12.2-.08.05.05.24.08.32,0,.07-.07.21-.09.43-.02s.38.02.5.01c.13-.01.44-.07.44-.24Zm2.95.1c0-.14-.21-.3-.4-.35-.18-.04-.42-.14-.65-.14-.27,0-.46.31-.53.41-.07.1-.24.35-.24.65s.27,1.06.46,1.29c.2.22.17.32-.14.42-.32.09-.37,0-.37-.08,0-.07-.1-.25-.3-.12-.18.11-.17.18-.37.11-.2-.06-.52.18-.52.36,0,.2.33.39.47.45.15.06.35.04.52-.04.17-.09.31.03.48.03s.52-.06.69-.17c.16-.1.43-.19.43-.53s-.21-.76-.32-.9-.28-.5-.28-.61c0-.12-.03-.32.1-.32s.15-.17.28-.17c.11,0,.08.18.25.18s.43-.34.43-.48Zm5.97,0c0-.14-.21-.3-.4-.35-.18-.04-.42-.14-.65-.14-.27,0-.46.31-.53.41-.07.1-.24.35-.24.65s.27,1.06.46,1.29c.2.22.17.32-.14.42-.32.09-.37,0-.37-.08,0-.07-.1-.25-.3-.12-.18.11-.17.18-.37.11-.2-.06-.52.18-.52.36,0,.2.33.39.47.45.15.06.35.04.52-.04.17-.09.31.03.48.03s.52-.06.69-.17c.16-.1.43-.19.43-.53s-.21-.76-.32-.9-.28-.5-.28-.61c0-.12-.03-.32.1-.32s.15-.17.28-.17c.11,0,.08.18.25.18s.43-.34.43-.48Zm4.21.78c0-.13.08-.45-.04-.5-.13-.05-.16-.2-.28-.28-.11-.09-.56-.32-.85-.32-.42,0-.54.14-.66.22-.13.07-.35.28-.46.33-.12.06-.13.33-.23.33s-.31-.1-.45,0c-.14.09-.01.29.07.44.09.17.1,1.08-.05,1.72-.14.64.19,1.28.19,1.72s.31.67.4.94c.08.27.21.28.44.28s.35-.25.35-.4c0-.14-.09-.47-.13-.64-.04-.17-.08-.92-.11-1.22-.03-.31-.3-1.31-.3-1.5,0-.2.09-.06.15.03.06.08.25.18.52.18s.4-.05.64-.05.32-.29.52-.51c.2-.22.28-.66.28-.78Zm-.73,0c0,.14-.13.35-.23.44-.09.1-.22.25-.49.25s-.36-.02-.44.07c-.09.1-.2,0-.2-.17,0-.18.18-.48.32-.63.13-.14.46-.38.67-.38.27,0,.38.27.38.41Zm4.66-.85c0-.1-.24-.38-.37-.38-.13,0-.34,0-.46.1-.13.1-.37.08-.55.19-.18.1-.29.18-.42.28s-.2,0-.21-.1c-.01-.1-.2-.18-.32-.18-.34,0-.28.39-.21.6.05.21.11.45.04.6-.07.14-.1.4-.01.43.08.03.08.64.14.81.05.18.21.44.5.44s.35-.38.31-.6c-.05-.22-.05-.62-.05-.88s.15-.31.22-.47c.07-.18.33-.38.46-.5.12-.12.47-.2.61-.2.15,0,.32-.05.32-.15Zm1.75-2.06c0-.32-.32-.18-.33-.28-.02-.1-.27-.22-.46-.22-.13,0-.31.24-.31.38s.17.3.29.36c.12.06.31.28.44.28.12,0,.37-.21.37-.53Zm.02,4.1c.1-.07-.1-.43-.1-.63,0-.19-.07-.52-.14-.71-.07-.19-.07-.58-.07-.75s-.31-.32-.45-.32c-.13,0-.25.29-.25.36s.04.18.11.29c.07.12.03.53.07.79.04.26.13.83.13,1.18s.21.47.36.47.22-.01.22-.12c0-.12.02-.48.12-.56Zm5.83.28c0-.11-.28-.19-.42-.6-.06-.17-.15-.64-.25-.9-.1-.26-.44-.63-.62-.66-.18-.02-.56-.27-.66-.27s-.29.18-.46.18-.34.2-.46.27c-.13.07-.21.1-.49.52-.28.4-.24-.14-.24-.48s-.31-.45-.49-.45c-.38,0-.28.53-.17.76.1.23.11,1.17.11,1.32,0,.17.42.73.53.73.12,0,.12-.17.24-.22.13-.06.24-.13.2-.3-.04-.15.14-.61.34-.93.18-.32.5-.43.75-.58.27-.14.38,0,.47.07.08.07.33.39.4.65.07.27.23.78.23,1.03s.35.4.49.4.5-.42.5-.55Zm4.73,1.09c0-.85-.34-1.66-.51-2.07-.17-.4-.39-.65-.39-.96s-.19-.3-.42-.46c-.23-.15-.51-.28-.81-.28-.34,0-.75.29-.98.48-.23.19-.62.77-.62,1.31s.04.64.38,1.13c.33.5.78.57,1.08.57s.6-.25.64-.42c.04-.18.23-.22.29-.45.06-.23.07-.35.24-.35s.2.57.28.67c.07.1.11.36.11.78,0,.59-.13,1.13-.4,1.51-.28.36-.65.5-1.03.5s-.33.08-.79-.12c-.46-.2-.53-.26-.46-.47.07-.22.01-.17-.14-.36-.16-.21-.47.11-.52.23-.06.11-.07.42.05.53.13.1-.02.22.44.58.46.37,1.03.4,1.33.4s.85-.15,1.22-.24c.37-.09.34-.29.44-.38.1-.08.27-.5.27-.68s.3-.6.3-1.42Zm-1.63-2.32c0,.3-.14.47-.14.59s-.1.3-.19.38c-.08.07-.11.33-.42.33s-.32-.19-.39-.25c-.07-.06-.22-.14-.22-.39s.17-.76.3-.95c.13-.19.55-.42.68-.42.27,0,.39.42.39.71Zm7.87-1.03c0-.14-.21-.3-.4-.35-.18-.04-.42-.14-.65-.14-.27,0-.46.31-.53.41-.07.1-.24.35-.24.65s.27,1.06.46,1.29c.2.22.17.32-.14.42-.32.09-.37,0-.37-.08,0-.07-.1-.25-.3-.12-.18.11-.17.18-.37.11-.2-.06-.52.18-.52.36,0,.2.33.39.47.45.15.06.35.04.52-.04.17-.09.31.03.48.03s.52-.06.69-.17c.16-.1.43-.19.43-.53s-.21-.76-.32-.9c-.1-.13-.28-.5-.28-.61,0-.12-.03-.32.1-.32s.15-.17.28-.17c.11,0,.08.18.25.18s.43-.34.43-.48Zm5.4,2.99c0-.15-.23-.31-.45-.46-.2-.15-.34-.46-.51-.72-.17-.25-.33-.57-.37-.72-.04-.15,0-.56,0-.85s-.25-.45-.39-.53c-.13-.08-.44-.26-.61-.26-.08,0-.15-.03-.23.04-.07.08-.29-.09-.36.02-.08.11-.31.06-.39.11-.07.06-.57.46-.72.78-.15.31-.37.83-.37,1.1s.07.58.15.7c.07.11.04.38.15.42.11.04.35.44.81.44s.85-.4.9-.51c.06-.09.3-.25.31-.46.02-.22.16-.33.28-.33s.13.2.22.31c.1.12.35.3.37.46.02.18.21.33.35.41.13.08.39.37.54.37s.33-.2.33-.35Zm-2.08-2.88c.04.1-.09.33-.13.48-.03.15-.15.63-.31.92-.15.29-.48.88-.81.88s-.35-.37-.35-.63.04-.77.19-.77.15-.39.29-.4c.14-.02.1-.18.19-.26.1-.07.13-.22.25-.22.11,0,.15.02.24.02.11,0,.39-.11.42-.02Zm6.55,2.19c.08-.09.06-.4-.03-.51-.1-.09-.17-.34-.17-.65s-.1-.5-.19-.65c-.1-.15-.02-.42-.1-.64-.07-.21-.15-.84-.15-1.06s-.02-.62.04-.74c.06-.11.08-.15-.07-.27-.15-.11-.15-.22-.19-.39-.04-.18-.23.04-.35.04s-.29.06-.29.18.11.2.11.42.09,1.09.19,1.65c.09.57-.1.31-.23.18-.13-.13-.72-.27-1.13-.27-.52,0-.81.31-1.07.55-.27.23-.44.81-.44,1.08s.11.53.18.77c.08.26.62.74.85.88.23.13.37.04.67.04s.87-.31,1.02-.46c.15-.17.37-.35.4-.55.04-.2.19-.08.19.11s.09.18.09.37.1.35.21.35.15-.06.31-.1c.15-.03.08-.23.15-.33Zm-1.16-1.32c0,.18-.21.28-.28.37-.05.1-.05.35-.38.48-.33.13-.28.37-.75.37s-.76-.44-.76-.75.17-.61.37-.8c.19-.19.2-.33.61-.33.33,0,.57.08.81.24.23.15.39.26.39.42Zm6.76,1.28c0-.11-.28-.19-.42-.6-.06-.17-.15-.64-.25-.9-.1-.26-.44-.63-.62-.66-.18-.02-.56-.27-.66-.27s-.29.18-.46.18-.34.2-.46.27c-.13.07-.21.1-.49.52-.28.4-.24-.14-.24-.48s-.31-.45-.49-.45c-.38,0-.28.53-.17.76.1.23.11,1.17.11,1.32,0,.17.42.73.53.73.12,0,.12-.17.24-.22.13-.06.24-.13.2-.3-.04-.15.14-.61.34-.93.18-.32.5-.43.75-.58.27-.14.38,0,.47.07.08.07.33.39.4.65.07.27.23.78.23,1.03s.35.4.49.4.5-.42.5-.55Zm4.3-.02c0-.09-.29-.04-.5-.04s-.04.2-.69.2-.83-.13-.98-.29c-.15-.15-.03-.27.14-.29.16-.02.51-.43.63-.55.11-.11.18-.35.4-.46.21-.11.17-.35.23-.48.05-.13,0-.41-.13-.66-.14-.25-.25-.37-.69-.37-.19,0-.91.24-1.19.43-.29.19-.55.81-.55,1.08s.13.79,0,.9c-.14.09.18.46.61.89.42.43.63.51,1.33.51s.94-.29,1.13-.42c.18-.14.27-.33.27-.43Zm-1.57-2.17c.07.11-.08.23-.21.4s-.4.39-.48.55c-.08.15-.41.35-.39.05.02-.29.12-.44.33-.66.21-.21.3-.27.43-.27.11,0,.24-.2.33-.07Zm4.74-.07c0-.14-.21-.3-.4-.35-.18-.04-.42-.14-.65-.14-.27,0-.46.31-.53.41-.07.1-.24.35-.24.65s.27,1.06.46,1.29c.2.22.17.32-.14.42-.32.09-.37,0-.37-.08,0-.07-.1-.25-.3-.12-.18.11-.17.18-.37.11-.2-.06-.52.18-.52.36,0,.2.33.39.47.45.15.06.35.04.52-.04.17-.09.31.03.48.03s.52-.06.69-.17c.16-.1.43-.19.43-.53s-.21-.76-.32-.9c-.1-.13-.28-.5-.28-.61,0-.12-.03-.32.1-.32s.15-.17.28-.17c.11,0,.08.18.25.18s.43-.34.43-.48Zm3.39,0c0-.14-.21-.3-.4-.35-.18-.04-.42-.14-.65-.14-.27,0-.46.31-.53.41-.07.1-.24.35-.24.65s.27,1.06.46,1.29c.2.22.17.32-.14.42-.32.09-.37,0-.37-.08,0-.07-.1-.25-.3-.12-.18.11-.17.18-.37.11-.2-.06-.52.18-.52.36,0,.2.33.39.47.45.15.06.35.04.52-.04.17-.09.31.03.48.03s.52-.06.69-.17c.16-.1.43-.19.43-.53s-.21-.76-.32-.9c-.1-.13-.28-.5-.28-.61,0-.12-.03-.32.1-.32s.15-.17.28-.17c.11,0,.08.18.25.18s.43-.34.43-.48Zm2.45,3.1c.06-.19.01-.44,0-.58-.01-.13-.22-.5-.32-.57-.1-.07-.2-.27-.37-.27-.08,0-.35.04-.36.09-.01.06-.19.11-.33.11-.14,0-.22.22-.22.38s.09.27.19.39c.11.12.29.06.54-.01.27-.07.17.13.17.3s-.17.37-.17.46-.18.22-.18.32c0,.11-.13.26-.29.4-.15.13-.25.31-.25.41,0,.11.02.27.11.27.1,0,.13.12.23.12.11,0,.1-.05.2-.12.11-.07.15-.19.22-.23.07-.05.19-.25.24-.4.06-.15.28-.34.3-.43.03-.1.2-.48.27-.66Zm8.57-.11c0-.15-.23-.31-.45-.46-.2-.15-.34-.46-.51-.72-.17-.25-.33-.57-.37-.72-.04-.15,0-.56,0-.85s-.25-.45-.39-.53c-.13-.08-.44-.26-.61-.26-.08,0-.15-.03-.23.04-.07.08-.29-.09-.36.02-.08.11-.31.06-.39.11-.07.06-.57.46-.72.78-.15.31-.37.83-.37,1.1s.07.58.15.7c.07.11.04.38.15.42.11.04.35.44.81.44s.85-.4.9-.51c.06-.09.3-.25.31-.46.02-.22.16-.33.28-.33s.13.2.22.31c.1.12.35.3.37.46.02.18.21.33.35.41.13.08.39.37.54.37s.33-.2.33-.35Zm-2.08-2.88c.04.1-.09.33-.13.48-.03.15-.15.63-.31.92-.15.29-.48.88-.81.88s-.35-.37-.35-.63.04-.77.19-.77.15-.39.29-.4c.14-.02.1-.18.19-.26.1-.07.13-.22.25-.22.11,0,.15.02.24.02.11,0,.39-.11.42-.02Zm6.88,2.15c0-.11-.28-.19-.42-.6-.06-.17-.15-.64-.25-.9-.1-.26-.44-.63-.62-.66-.18-.02-.56-.27-.66-.27s-.29.18-.46.18-.34.2-.46.27c-.13.07-.21.1-.49.52-.28.4-.24-.14-.24-.48s-.31-.45-.49-.45c-.38,0-.28.53-.17.76.1.23.11,1.17.11,1.32,0,.17.42.73.53.73.12,0,.12-.17.24-.22.13-.06.24-.13.2-.3-.04-.15.14-.61.34-.93.18-.32.5-.43.75-.58.27-.14.38,0,.47.07.08.07.33.39.4.65.07.27.23.78.23,1.03s.35.4.49.4.5-.42.5-.55Zm5.06.04c.08-.09.06-.4-.03-.51-.1-.09-.17-.34-.17-.65s-.1-.5-.19-.65c-.1-.15-.02-.42-.1-.64-.07-.21-.15-.84-.15-1.06s-.02-.62.04-.74c.06-.11.08-.15-.07-.27-.15-.11-.15-.22-.19-.39-.04-.18-.23.04-.35.04s-.29.06-.29.18.11.2.11.42.09,1.09.19,1.65c.09.57-.1.31-.23.18-.13-.13-.72-.27-1.13-.27-.52,0-.81.31-1.07.55-.27.23-.44.81-.44,1.08s.11.53.18.77c.08.26.62.74.85.88.23.13.37.04.67.04s.87-.31,1.02-.46c.15-.17.37-.35.4-.55.04-.2.19-.08.19.11s.09.18.09.37.1.35.21.35.15-.06.31-.1c.15-.03.08-.23.15-.33Zm-1.16-1.32c0,.18-.21.28-.28.37-.05.1-.05.35-.38.48-.33.13-.28.37-.75.37s-.76-.44-.76-.75.17-.61.37-.8c.19-.19.2-.33.61-.33.33,0,.57.08.81.24.23.15.39.26.39.42Zm-110.53,9.01c-.17-.15-.37-.2-.48-.32-.11-.11-.5-.19-.87-.19-.17,0-.46.07-.59.07s-.48.35-.59.48c-.12.13-.23.74-.23,1.01s.04.57.11.9c.08.33-.01.4-.2.4s-.17.39,0,.57.22.21.33.21c.09,0,.19.37.19.61s.2.38.2.54-.02.57.1.78c.11.21.31.46.51.46.21,0,.12-.1.21-.22.1-.11.02-.38-.02-.75s-.22-.43-.2-.62c.01-.2-.28-.43-.28-.65s.17-.19.41-.19.17-.15.5-.15.35.03.48.13c.13.09.31-.24.35-.33.03-.1.15-.31-.02-.39-.17-.07-.94,0-1.5,0s-.44-.46-.44-.73,0-.45.07-.81c.08-.37.15-.28.33-.51.17-.24.46-.18.58-.12.11.06.44.04.63.2.19.15.27.06.4,0,.13-.05.19-.23.02-.38Zm3.39,3.27c0-.5-.42-.99-.58-1.04-.15-.06-.7-.52-.84-.52-.11,0-.4.27-.4.48s.17.41.29.41.35.09.49.17c.14.08.38.45.38.59s-.02.23-.19.53c-.17.29-.33.46-.63.46s-.42-.24-.42-.34c0-.09-.22-.3-.22-.57s.24-.64.24-.76c0-.13-.28-.21-.41-.21s-.24.13-.31.35c-.05.22-.25.47-.25.68s.11.61.24.68c.13.07.14.63.28.64.13.02.69.35.98.35s.69-.39.91-.65c.21-.27.45-.76.45-1.26Zm3.97-.95c0-.1-.24-.38-.37-.38-.13,0-.34,0-.46.1-.13.1-.37.08-.55.19s-.29.18-.42.28c-.13.1-.2,0-.21-.1-.01-.1-.2-.18-.32-.18-.34,0-.28.39-.21.6.05.21.11.45.04.6s-.1.4-.01.43c.08.03.08.64.14.81.05.18.21.44.5.44s.35-.38.31-.6c-.05-.22-.05-.62-.05-.88s.15-.31.22-.47c.07-.18.33-.38.46-.5.12-.12.47-.2.61-.2.15,0,.32-.05.32-.15Zm6.46-.04c0-.15-.36-.29-.49-.22-.13.07-.42-.14-.69-.15-.28-.02-.35-.12-.46-.1-.11.01-.25-.02-.25-.17v-.71c0-.23-.09-.53-.13-.65-.04-.13-.2-.21-.41-.21-.21,0-.25.63-.25.8s.07.64.07.9-.5.11-.63.11-.2.2-.2.42.28.25.35.31c.07.06.29-.06.43-.06s.13.56.13.95-.03.83-.13.93c-.1.1-.24.22-.24.32s.12.12.17.25c.06.13.28.25.42.25s.28-.14.36-.26c.09-.11.19-.43.19-.8s-.1-1.42-.1-1.58c0-.17.14-.12.2-.08.05.05.24.08.32,0,.07-.07.21-.09.43-.02s.38.02.5.01c.13-.01.44-.07.44-.24Zm5,2.58c0-.14-.2-.39-.31-.54-.1-.15-.38-.47-.41-.69-.02-.22-.16-.3-.25-.54-.08-.24-.46-.61-.96-.61s-.97.68-1.07.83c-.1.14-.2.41-.31.41-.09,0-.11-.62-.09-.8.01-.19-.31-1.92-.34-2.2-.03-.28.03-.66.03-.81,0-.17-.17-.51-.36-.51-.09,0-.38.11-.38.27,0,.17-.01.59.03.96.04.38.3,2.32.33,2.79.03.48.32,1.24.32,1.49s.31.31.45.31.17-.1.32-.14.16-.35.16-.56.18-.5.33-.77c.14-.27.36-.44.58-.44s.32.2.5.33c.18.13.17.52.29.63s.17.38.38.47c.2.1.3.25.42.25.11,0,.35.02.35-.12Zm3.99-.24c0-.09-.29-.04-.5-.04s-.04.2-.69.2-.83-.13-.98-.29c-.15-.15-.03-.27.14-.29.16-.02.51-.43.63-.55.11-.11.18-.35.4-.46.21-.11.17-.35.23-.48.05-.13,0-.41-.13-.66-.14-.25-.25-.37-.69-.37-.19,0-.91.24-1.19.43-.29.19-.55.81-.55,1.08s.13.79,0,.9c-.14.09.18.46.61.89.42.43.63.51,1.33.51s.94-.29,1.13-.42c.18-.14.27-.33.27-.43Zm-1.57-2.17c.07.11-.08.23-.21.4s-.4.39-.48.55c-.08.15-.41.35-.39.05.02-.29.12-.44.33-.66.21-.21.3-.27.43-.27.11,0,.24-.2.33-.07Zm7.72-.13c0-.1-.24-.38-.37-.38-.13,0-.34,0-.46.1-.13.1-.37.08-.55.19s-.29.18-.42.28c-.13.1-.2,0-.21-.1-.01-.1-.2-.18-.32-.18-.34,0-.28.39-.21.6.05.21.11.45.04.6-.07.14-.1.4-.01.43.08.03.08.64.14.81.05.18.21.44.5.44s.35-.38.31-.6c-.05-.22-.05-.62-.05-.88s.15-.31.22-.47c.07-.18.33-.38.46-.5.12-.12.47-.2.61-.2.15,0,.32-.05.32-.15Zm3.9,2.3c0-.09-.29-.04-.5-.04s-.04.2-.69.2-.83-.13-.98-.29c-.15-.15-.03-.27.14-.29.16-.02.51-.43.63-.55.11-.11.18-.35.4-.46s.17-.35.23-.48c.05-.13,0-.41-.13-.66-.14-.25-.25-.37-.69-.37-.19,0-.91.24-1.19.43-.29.19-.55.81-.55,1.08s.13.79,0,.9c-.14.09.18.46.61.89.42.43.63.51,1.33.51s.94-.29,1.13-.42c.18-.14.27-.33.27-.43Zm-1.57-2.17c.07.11-.08.23-.21.4s-.4.39-.48.55c-.08.15-.41.35-.39.05.02-.29.12-.44.33-.66.21-.21.3-.27.43-.27.11,0,.24-.2.33-.07Zm4.74-.07c0-.14-.21-.3-.4-.35-.18-.04-.42-.14-.65-.14-.27,0-.46.31-.53.41-.07.1-.24.35-.24.65s.27,1.06.46,1.29c.2.22.17.32-.14.42-.32.09-.37,0-.37-.08,0-.07-.1-.25-.3-.12-.18.11-.17.18-.37.11-.2-.06-.52.18-.52.36,0,.2.33.39.47.45.15.06.35.04.52-.04.17-.09.31.03.48.03s.52-.06.69-.17c.16-.1.43-.19.43-.53s-.21-.76-.32-.9-.28-.5-.28-.61c0-.12-.03-.32.1-.32s.15-.17.28-.17c.11,0,.08.18.25.18s.43-.34.43-.48Zm4.29-.1c0-.15-.36-.29-.49-.22-.13.07-.42-.14-.69-.15-.28-.02-.35-.12-.46-.1-.11.01-.25-.02-.25-.17v-.71c0-.23-.09-.53-.13-.65-.04-.13-.2-.21-.41-.21-.21,0-.25.63-.25.8s.07.64.07.9-.5.11-.63.11-.2.2-.2.42.28.25.35.31c.07.06.29-.06.43-.06s.13.56.13.95-.03.83-.13.93c-.1.1-.24.22-.24.32s.12.12.17.25c.06.13.28.25.42.25s.28-.14.36-.26c.09-.11.19-.43.19-.8s-.1-1.42-.1-1.58c0-.17.14-.12.2-.08.05.05.24.08.32,0,.07-.07.21-.09.43-.02s.38.02.5.01c.13-.01.44-.07.44-.24Zm2.3,3.21c.06-.19.01-.44,0-.58-.01-.13-.22-.5-.32-.57-.1-.07-.2-.27-.37-.27-.08,0-.35.04-.36.09-.01.06-.19.11-.33.11-.14,0-.22.22-.22.38s.09.27.19.39c.11.12.29.06.54-.01.27-.07.17.13.17.3s-.17.37-.17.46-.18.22-.18.32c0,.11-.13.26-.29.4-.15.13-.25.31-.25.41,0,.11.02.27.11.27.1,0,.13.12.23.12.11,0,.1-.05.2-.12.11-.07.15-.19.22-.23.07-.05.19-.25.24-.4.06-.15.28-.34.3-.43.03-.1.2-.48.27-.66Zm5.26-5.13c0-.18-.2-.31-.4-.42-.2-.11-.49-.19-.65-.19-.1,0-.31.07-.31.29s.2.38.42.45c.21.07.31.29.42.1.12-.2.21.14.32.14s.2-.21.2-.38Zm.54,6.27c0-.64-.31-2.28-.33-2.49-.01-.21-.39-.99-.37-1.27.01-.28-.15-.54-.19-.74-.04-.21-.22-.36-.38-.36-.25,0-.41.26-.41.43s.22.32.22.52c0,.19.29,1.25.41,1.36.11.12.34,1.94.34,2.49s.01.85-.46.85-.96-.56-1.11-.8c-.16-.25-.32-.51-.39-.51s-.21.14-.21.28.02.42.17.47c.14.06.14.32.24.56.09.24.74.67.86.6.12-.07.41.13.7.13s.61-.2.65-.38c.04-.19.24-.5.24-1.13Zm4.8-1.71c0-.05-.03-.09-.09-.13-.07-.05-.14-.09-.2-.17-.17-.2-.49-.57-.53-.83-.03-.12-.11-.28-.19-.43-.04-.08-.09-.17-.12-.24-.04-.08-.07-.15-.09-.22-.05-.22-.33-.37-.45-.37-.07,0-.14.1-.22.21-.09.12-.17.26-.22.33-.02.02-.04.07-.07.12l-.07.17c-.06.12-.13.23-.19.23-.02,0-.04,0-.06.02l-.1.06c-.06.04-.15.09-.27.09-.22,0-.32-.72-.25-.94l.11-.28c.03-.08.05-.14.05-.2,0-.09-.23-.27-.39-.27-.08,0-.17.12-.18.26-.01.08-.07.15-.11.22-.05.07-.11.17-.15.29-.07.25-.15.71-.08.76.05.02.09.18.12.34.02.08.04.17.05.25l.05.19c.08.2.5.47.62.47.14,0,.58-.25.6-.36.01-.09.09-.17.16-.22.04-.02.08-.05.11-.08.09-.06.12-.1.18-.2.06-.08.18-.29.3-.29.07,0,.13.1.19.25.04.12.08.27.13.37.09.21.36.47.55.57.21.09.51.21.62.21s.2-.07.2-.19Zm2.89-2.54c0-.14-.21-.3-.4-.35-.18-.04-.42-.14-.65-.14-.27,0-.46.31-.53.41-.07.1-.24.35-.24.65s.27,1.06.46,1.29c.2.22.17.32-.14.42-.32.09-.37,0-.37-.08,0-.07-.1-.25-.3-.12-.18.11-.17.18-.37.11-.2-.06-.52.18-.52.36,0,.2.33.39.47.45.15.06.35.04.52-.04.17-.09.31.03.48.03s.52-.06.69-.17c.16-.1.43-.19.43-.53s-.21-.76-.32-.9-.28-.5-.28-.61c0-.12-.03-.32.1-.32s.15-.17.28-.17c.11,0,.08.18.25.18s.43-.34.43-.48Zm4.29-.1c0-.15-.36-.29-.49-.22-.13.07-.42-.14-.69-.15-.28-.02-.35-.12-.46-.1-.11.01-.25-.02-.25-.17v-.71c0-.23-.09-.53-.13-.65-.04-.13-.2-.21-.41-.21-.21,0-.25.63-.25.8s.07.64.07.9-.5.11-.63.11-.2.2-.2.42.28.25.35.31c.07.06.29-.06.43-.06s.13.56.13.95-.03.83-.13.93c-.1.1-.24.22-.24.32s.12.12.17.25c.06.13.28.25.42.25s.28-.14.36-.26c.09-.11.19-.43.19-.8s-.1-1.42-.1-1.58c0-.17.14-.12.2-.08.05.05.24.08.32,0,.07-.07.21-.09.43-.02.21.07.38.02.5.01.13-.01.44-.07.44-.24Zm6.43,0c0-.15-.36-.29-.49-.22-.13.07-.42-.14-.69-.15-.28-.02-.35-.12-.46-.1-.11.01-.25-.02-.25-.17v-.71c0-.23-.09-.53-.13-.65-.04-.13-.2-.21-.41-.21-.21,0-.25.63-.25.8s.07.64.07.9-.5.11-.63.11-.2.2-.2.42.28.25.35.31c.07.06.29-.06.43-.06s.13.56.13.95-.03.83-.13.93c-.1.1-.24.22-.24.32s.12.12.17.25c.06.13.28.25.42.25s.28-.14.36-.26c.09-.11.19-.43.19-.8s-.1-1.42-.1-1.58c0-.17.14-.12.2-.08.05.05.24.08.32,0,.07-.07.21-.09.43-.02.21.07.38.02.5.01.13-.01.44-.07.44-.24Zm5,2.58c0-.14-.2-.39-.31-.54-.1-.15-.38-.47-.41-.69-.02-.22-.16-.3-.25-.54-.08-.24-.46-.61-.96-.61s-.97.68-1.07.83c-.1.14-.2.41-.31.41-.09,0-.11-.62-.09-.8.01-.19-.31-1.92-.34-2.2-.03-.28.03-.66.03-.81,0-.17-.17-.51-.36-.51-.09,0-.38.11-.38.27,0,.17-.01.59.03.96.04.38.3,2.32.33,2.79.03.48.32,1.24.32,1.49s.31.31.45.31.17-.1.32-.14.16-.35.16-.56.18-.5.33-.77c.14-.27.36-.44.58-.44s.32.2.5.33c.18.13.17.52.29.63s.17.38.38.47c.2.1.3.25.42.25.11,0,.35.02.35-.12Zm3.99-.24c0-.09-.29-.04-.5-.04s-.04.2-.69.2-.83-.13-.98-.29c-.15-.15-.03-.27.14-.29.16-.02.51-.43.63-.55.11-.11.18-.35.4-.46.21-.11.17-.35.23-.48.05-.13,0-.41-.13-.66-.14-.25-.25-.37-.69-.37-.19,0-.91.24-1.19.43-.29.19-.55.81-.55,1.08s.13.79,0,.9c-.14.09.18.46.61.89.42.43.63.51,1.33.51s.94-.29,1.13-.42c.18-.14.27-.33.27-.43Zm-1.57-2.17c.07.11-.08.23-.21.4-.13.18-.4.39-.48.55-.08.15-.41.35-.39.05.02-.29.12-.44.33-.66.21-.21.3-.27.43-.27.11,0,.24-.2.33-.07Zm8.66,3.28c0-.85-.34-1.66-.51-2.07-.17-.4-.39-.65-.39-.96s-.19-.3-.42-.46c-.23-.15-.51-.28-.81-.28-.34,0-.75.29-.98.48-.23.19-.62.77-.62,1.31s.04.64.38,1.13c.33.5.78.57,1.08.57s.6-.25.64-.42.23-.22.29-.45c.06-.23.07-.35.24-.35s.2.57.28.67c.07.1.11.36.11.78,0,.59-.13,1.13-.4,1.51-.28.36-.65.5-1.03.5s-.33.08-.79-.12c-.46-.2-.53-.26-.46-.47.07-.22.01-.17-.14-.36-.16-.21-.47.11-.52.23-.06.11-.07.42.05.53.13.1-.02.22.44.58.46.37,1.03.4,1.33.4s.85-.15,1.22-.24c.37-.09.34-.29.44-.38.1-.08.27-.5.27-.68s.3-.6.3-1.42Zm-1.63-2.32c0,.3-.14.47-.14.59s-.1.3-.19.38c-.08.07-.11.33-.42.33s-.32-.19-.39-.25c-.07-.06-.22-.14-.22-.39s.17-.76.3-.95c.13-.19.55-.42.68-.42.27,0,.39.42.39.71Zm5.7-1.09c0-.1-.24-.38-.37-.38-.13,0-.34,0-.46.1-.13.1-.37.08-.55.19-.18.1-.29.18-.42.28-.13.1-.2,0-.21-.1-.01-.1-.2-.18-.32-.18-.34,0-.28.39-.21.6.05.21.11.45.04.6-.07.14-.1.4-.01.43.08.03.08.64.14.81.05.18.21.44.5.44s.35-.38.31-.6c-.05-.22-.05-.62-.05-.88s.15-.31.22-.47c.07-.18.33-.38.46-.5.12-.12.47-.2.61-.2.15,0,.32-.05.32-.15Zm3.9,2.3c0-.09-.29-.04-.5-.04s-.04.2-.69.2-.83-.13-.98-.29c-.15-.15-.03-.27.14-.29.16-.02.51-.43.63-.55.11-.11.18-.35.4-.46s.17-.35.23-.48c.05-.13,0-.41-.13-.66-.14-.25-.25-.37-.69-.37-.19,0-.91.24-1.19.43-.29.19-.55.81-.55,1.08s.13.79,0,.9c-.14.09.18.46.61.89.42.43.63.51,1.33.51s.94-.29,1.13-.42c.18-.14.27-.33.27-.43Zm-1.57-2.17c.07.11-.08.23-.21.4-.13.18-.4.39-.48.55-.08.15-.41.35-.39.05.02-.29.12-.44.33-.66.21-.21.3-.27.43-.27.11,0,.24-.2.33-.07Zm6.75,2.92c0-.15-.23-.31-.45-.46-.2-.15-.34-.46-.51-.72-.17-.25-.33-.57-.37-.72-.04-.15,0-.56,0-.85s-.25-.45-.39-.53c-.13-.08-.44-.26-.61-.26-.08,0-.15-.03-.23.04-.07.08-.29-.09-.36.02-.08.11-.31.06-.39.11-.07.06-.57.46-.72.78-.15.31-.37.83-.37,1.1s.07.58.15.7c.07.11.04.38.15.42.11.04.35.44.81.44s.85-.4.9-.51c.06-.09.3-.25.31-.46.02-.22.16-.33.28-.33s.13.2.22.31c.1.12.35.3.37.46.02.18.21.33.35.41.13.08.39.37.54.37s.33-.2.33-.35Zm-2.08-2.88c.04.1-.09.33-.13.48-.03.15-.15.63-.31.92-.15.29-.48.88-.81.88s-.35-.37-.35-.63.04-.77.19-.77.15-.39.29-.4c.14-.02.1-.18.19-.26.1-.07.13-.22.25-.22.11,0,.15.02.24.02.11,0,.39-.11.42-.02Zm5.78-.22c0-.15-.36-.29-.49-.22-.13.07-.42-.14-.69-.15-.28-.02-.35-.12-.46-.1-.11.01-.25-.02-.25-.17v-.71c0-.23-.09-.53-.13-.65-.04-.13-.2-.21-.41-.21-.21,0-.25.63-.25.8s.07.64.07.9-.5.11-.63.11-.2.2-.2.42.28.25.35.31c.07.06.29-.06.43-.06s.13.56.13.95-.03.83-.13.93c-.1.1-.24.22-.24.32s.12.12.17.25c.06.13.28.25.42.25s.28-.14.36-.26c.09-.11.19-.43.19-.8s-.1-1.42-.1-1.58c0-.17.14-.12.2-.08.05.05.24.08.32,0,.07-.07.21-.09.43-.02.21.07.38.02.5.01.13-.01.44-.07.44-.24Zm-98.64,14.78c.08-.09.06-.4-.03-.51-.1-.09-.17-.34-.17-.65s-.1-.5-.19-.65c-.1-.15-.02-.42-.1-.64-.07-.21-.15-.84-.15-1.06s-.02-.62.04-.74c.06-.11.08-.15-.07-.27-.15-.11-.15-.22-.19-.39s-.23.04-.35.04-.29.06-.29.18.11.2.11.42.09,1.09.19,1.65c.09.57-.1.31-.23.18s-.72-.27-1.13-.27c-.52,0-.81.31-1.07.55-.27.23-.44.81-.44,1.08s.11.53.18.77c.08.26.62.74.85.88.23.13.37.04.67.04s.87-.31,1.02-.46c.15-.17.37-.35.4-.55.04-.2.19-.08.19.11s.09.18.09.37.1.35.21.35.15-.06.31-.1c.15-.03.08-.23.15-.33Zm-1.16-1.32c0,.18-.21.28-.28.37-.05.1-.05.35-.38.48-.33.13-.28.37-.75.37s-.76-.44-.76-.75.17-.61.37-.8c.19-.19.2-.33.61-.33.33,0,.57.08.81.24.23.15.39.26.39.42Zm5.67,1.26c0-.09-.29-.04-.5-.04s-.04.2-.69.2-.83-.13-.98-.29-.03-.27.14-.29c.16-.02.51-.43.63-.55.11-.11.18-.35.4-.46s.17-.35.23-.48c.05-.13,0-.41-.13-.66-.14-.25-.25-.37-.69-.37-.19,0-.91.24-1.19.43-.29.19-.55.81-.55,1.08s.13.79,0,.9c-.14.09.18.46.61.89.42.43.63.51,1.33.51s.94-.29,1.13-.42c.18-.14.27-.33.27-.43Zm-1.57-2.17c.07.11-.08.23-.21.4-.13.18-.4.39-.48.55-.08.15-.41.35-.39.05.02-.29.12-.44.33-.66.21-.21.3-.27.43-.27.11,0,.24-.2.33-.07Zm3.82,2.37c0-.15-.2-.47-.2-.84s-.18-1.06-.18-1.58-.18-1.85-.18-1.99.01-.34.07-.5c.05-.17-.24-.35-.46-.35-.12,0-.28.01-.28.21,0,.19.03,2.12.08,2.6.06.48.19,1.79.19,2.12s.14.47.18.56c.04.08.2.25.32.25s.17-.1.23-.18c.05-.07.22-.14.22-.31Zm2.39-4.57c0-.32-.32-.18-.33-.28-.02-.1-.27-.22-.46-.22-.13,0-.31.24-.31.38s.17.3.29.36c.12.06.31.28.44.28.12,0,.37-.21.37-.53Zm.02,4.1c.1-.07-.1-.43-.1-.63,0-.19-.07-.52-.14-.71-.07-.19-.07-.58-.07-.75s-.31-.32-.45-.32c-.13,0-.25.29-.25.36s.04.18.11.29c.07.12.03.53.07.79.04.26.13.83.13,1.18s.21.47.36.47.22-.01.22-.12c0-.12.02-.48.12-.56Zm5.17,1.37c0-.85-.34-1.66-.51-2.07-.17-.4-.39-.65-.39-.96s-.19-.3-.42-.46c-.23-.15-.51-.28-.81-.28-.34,0-.75.29-.98.48-.23.19-.62.77-.62,1.31s.04.64.38,1.13c.33.5.78.57,1.08.57s.6-.25.64-.42.23-.22.29-.45c.06-.23.07-.35.24-.35s.2.57.28.67.11.36.11.78c0,.59-.13,1.13-.4,1.51-.28.36-.65.5-1.03.5s-.33.08-.79-.12c-.46-.2-.53-.26-.46-.47.07-.22.01-.17-.14-.36-.16-.21-.47.11-.52.23-.06.11-.07.42.05.53.13.1-.02.22.44.58.46.37,1.03.4,1.33.4s.85-.15,1.22-.24c.37-.09.34-.29.44-.38.1-.08.27-.5.27-.68s.3-.6.3-1.42Zm-1.63-2.32c0,.3-.14.47-.14.59s-.1.3-.19.38c-.08.07-.11.33-.42.33s-.32-.19-.39-.25c-.07-.06-.22-.14-.22-.39s.17-.76.3-.95c.13-.19.55-.42.68-.42.27,0,.39.42.39.71Zm7.34,1.44c0-.14-.2-.39-.31-.54-.1-.15-.38-.47-.41-.69-.02-.22-.16-.3-.25-.54-.08-.24-.46-.61-.96-.61s-.97.68-1.07.83-.2.41-.31.41c-.09,0-.11-.62-.09-.8.01-.19-.31-1.92-.34-2.2-.03-.28.03-.66.03-.81,0-.17-.17-.51-.36-.51-.09,0-.38.11-.38.27,0,.17-.01.59.03.96.04.38.3,2.32.33,2.79.03.48.32,1.24.32,1.49s.31.31.45.31.17-.1.32-.14.16-.35.16-.56.18-.5.33-.77c.14-.27.36-.44.58-.44s.32.2.5.33c.18.13.17.52.29.63s.17.38.38.47c.2.1.3.25.42.25.11,0,.35.02.35-.12Zm3.98-2.58c0-.15-.36-.29-.49-.22-.13.07-.42-.14-.69-.15-.28-.02-.35-.12-.46-.1-.11.01-.25-.02-.25-.17v-.71c0-.23-.09-.53-.13-.65-.04-.13-.2-.21-.41-.21-.21,0-.25.63-.25.8s.07.64.07.9-.5.11-.63.11-.2.2-.2.42.28.25.35.31c.07.06.29-.06.43-.06s.13.56.13.95-.03.83-.13.93c-.1.1-.24.22-.24.32s.12.12.17.25c.06.13.28.25.42.25s.28-.14.36-.26c.09-.11.19-.43.19-.8s-.1-1.42-.1-1.58c0-.17.14-.12.2-.08.05.05.24.08.32,0,.07-.07.21-.09.43-.02s.38.02.5.01c.13-.01.44-.07.44-.24Zm5.96.99c0-.5-.42-.99-.58-1.04-.15-.06-.7-.52-.84-.52-.11,0-.4.27-.4.48s.17.41.29.41.35.09.49.17c.14.08.38.45.38.59s-.02.23-.19.53c-.17.29-.33.46-.63.46s-.42-.24-.42-.34c0-.09-.22-.3-.22-.57s.24-.64.24-.76c0-.13-.28-.21-.41-.21s-.24.13-.31.35c-.05.22-.25.47-.25.68s.11.61.24.68c.13.07.14.63.28.64.13.02.69.35.98.35s.69-.39.91-.65c.21-.27.45-.76.45-1.26Zm4.12-3.27c-.17-.15-.37-.2-.48-.32-.11-.11-.5-.19-.87-.19-.17,0-.46.07-.59.07s-.48.35-.59.48c-.12.13-.23.74-.23,1.01s.04.57.11.9c.08.33-.01.4-.2.4s-.17.39,0,.57.22.21.33.21c.09,0,.19.37.19.61s.2.38.2.54-.02.57.1.78c.11.21.31.46.51.46.21,0,.12-.1.21-.22.1-.11.02-.38-.02-.75s-.22-.43-.2-.62c.01-.2-.28-.43-.28-.65s.17-.19.41-.19.17-.15.5-.15.35.03.48.13c.13.09.31-.24.35-.33.03-.1.15-.31-.02-.39-.17-.07-.94,0-1.5,0s-.44-.46-.44-.73,0-.45.07-.81c.08-.37.15-.28.33-.51.17-.24.46-.18.58-.12.11.06.44.04.63.2.19.15.27.06.4,0,.13-.05.19-.23.02-.38Zm7.56,2.39c0-.19-.34-.25-.42-.37-.09-.13-.28-.18-.39-.18-.12,0-.32.21-.32.35s.02.46.07.67c.04.2.12.5.12.84s-.15.5-.39.5-.32-.01-.36-.15-.24-.39-.38-.45c-.12-.05-.11-.35-.18-.36-.07-.02-.32-.25-.41-.25-.08,0-.11.03-.22.08-.11.06-.28.2-.35.34s-.1.39-.2.39-.08-.1-.11-.26c-.03-.17-.07-.47-.06-.62.02-.14-.15-.37-.28-.37-.11,0-.19-.17-.33-.17-.14,0-.2.29-.2.48,0,.19.02.46.12.67.09.2.05.48.05.73s.17.42.2.66c.03.24.46.28.6.28s.13-.09.13-.21.13-.15.15-.31c.03-.14.24-.25.24-.34,0-.1.06-.28.23-.28s.43.43.6.6c.17.15.58.36.7.36.13,0,.19-.13.31-.13s.45-.08.57-.21c.13-.11.24-.71.24-.92s-.08-.71-.08-.9.31-.29.31-.48Zm5.53,2.98c0-.15-.23-.31-.45-.46-.2-.15-.34-.46-.51-.72-.17-.25-.33-.57-.37-.72-.04-.15,0-.56,0-.85s-.25-.45-.39-.53c-.13-.08-.44-.26-.61-.26-.08,0-.15-.03-.23.04-.07.08-.29-.09-.36.02-.08.11-.31.06-.39.11-.07.06-.57.46-.72.78-.15.31-.37.83-.37,1.1s.07.58.15.7c.07.11.04.38.15.42.11.04.35.44.81.44s.85-.4.9-.51c.06-.09.3-.25.31-.46.02-.22.16-.33.28-.33s.13.2.22.31c.1.12.35.3.37.46.02.18.21.33.35.41.13.08.39.37.54.37s.33-.2.33-.35Zm-2.08-2.88c.04.1-.09.33-.13.48-.03.15-.15.63-.31.92-.15.29-.48.88-.81.88s-.35-.37-.35-.63.04-.77.19-.77.15-.39.29-.4c.14-.02.1-.18.19-.26.1-.07.13-.22.25-.22.11,0,.15.02.24.02.11,0,.39-.11.42-.02Zm3.95,2.33c0-.15-.2-.47-.2-.84s-.18-1.06-.18-1.58-.18-1.85-.18-1.99.01-.34.07-.5c.05-.17-.24-.35-.46-.35-.12,0-.28.01-.28.21,0,.19.03,2.12.08,2.6.06.48.19,1.79.19,2.12s.14.47.18.56c.04.08.2.25.32.25s.17-.1.23-.18c.05-.07.22-.14.22-.31Zm4.77-.01c0-.14-.37-.37-.48-.37s-.29-.17-.53-.21-.35-.25-.51-.32c-.15-.07-.17-.14-.17-.44s.22-.34.37-.52c.14-.18.28-.14.46-.34.18-.19.4-.37.39-.51-.01-.13.13-.14.13-.27,0-.11-.3-.29-.46-.29-.17,0-.84.7-1,.74-.15.04-.62.56-.79.56-.17,0-.17-.61-.17-.94s.01-1.61.01-1.75-.2-.38-.35-.38c-.24,0-.33.26-.33.43s.08.6.03.87c-.06.26.04,1.39.01,1.73-.03.33.14.72.11.99-.03.26.1.76.1.96,0,.19.36.27.48.27.11,0,.27-.27.27-.4s-.08-.31-.08-.48.03-.33.16-.33c.12,0,.14.32.25.46.11.14.24.31.32.31s.28.07.33.19c.06.11.3.24.45.26.16.03.48.27.58.27.09,0,.42-.34.42-.48Zm1.86-4.56c0-.32-.32-.18-.33-.28-.02-.1-.27-.22-.46-.22-.13,0-.31.24-.31.38s.17.3.29.36c.12.06.31.28.44.28.12,0,.37-.21.37-.53Zm.02,4.1c.1-.07-.1-.43-.1-.63,0-.19-.07-.52-.14-.71-.07-.19-.07-.58-.07-.75s-.31-.32-.45-.32c-.13,0-.25.29-.25.36s.04.18.11.29c.07.12.03.53.07.79.04.26.13.83.13,1.18s.21.47.36.47.22-.01.22-.12c0-.12.02-.48.12-.56Zm5.83.28c0-.11-.28-.19-.42-.6-.06-.17-.15-.64-.25-.9-.1-.26-.44-.63-.62-.66-.18-.02-.56-.27-.66-.27s-.29.18-.46.18-.34.2-.46.27c-.13.07-.21.1-.49.52-.28.4-.24-.14-.24-.48s-.31-.45-.49-.45c-.38,0-.28.53-.17.76.1.23.11,1.17.11,1.32,0,.17.42.73.53.73.12,0,.12-.17.24-.22.13-.06.24-.13.2-.3-.04-.15.14-.61.34-.93.18-.32.5-.43.75-.58.27-.14.38,0,.47.07.08.07.33.39.4.65.07.27.23.78.23,1.03s.35.4.49.4.5-.42.5-.55Zm4.72,1.09c0-.85-.34-1.66-.51-2.07-.17-.4-.39-.65-.39-.96s-.19-.3-.42-.46c-.23-.15-.51-.28-.81-.28-.34,0-.75.29-.98.48-.23.19-.62.77-.62,1.31s.04.64.38,1.13c.33.5.78.57,1.08.57s.6-.25.64-.42c.04-.18.23-.22.29-.45.06-.23.07-.35.24-.35s.2.57.28.67c.07.1.11.36.11.78,0,.59-.13,1.13-.4,1.51-.28.36-.65.5-1.03.5s-.33.08-.79-.12c-.46-.2-.53-.26-.46-.47.07-.22.01-.17-.14-.36-.16-.21-.47.11-.52.23-.06.11-.07.42.05.53.13.1-.02.22.44.58.46.37,1.03.4,1.33.4s.85-.15,1.22-.24c.37-.09.34-.29.44-.38.1-.08.27-.5.27-.68s.3-.6.3-1.42Zm-1.63-2.32c0,.3-.14.47-.14.59s-.1.3-.19.38c-.08.07-.11.33-.42.33s-.32-.19-.39-.25c-.07-.06-.22-.14-.22-.39s.17-.76.3-.95c.13-.19.55-.42.68-.42.27,0,.39.42.39.71Zm9.89,1.96c0-.15-.23-.31-.45-.46-.2-.15-.34-.46-.51-.72-.17-.25-.33-.57-.37-.72-.04-.15,0-.56,0-.85s-.25-.45-.39-.53c-.13-.08-.44-.26-.61-.26-.08,0-.15-.03-.23.04-.07.08-.29-.09-.36.02-.08.11-.31.06-.39.11-.07.06-.57.46-.72.78-.15.31-.37.83-.37,1.1s.07.58.15.7c.07.11.04.38.15.42.11.04.35.44.81.44s.85-.4.9-.51c.06-.09.3-.25.31-.46.02-.22.16-.33.28-.33s.13.2.22.31c.1.12.35.3.37.46.02.18.21.33.35.41.13.08.39.37.54.37s.33-.2.33-.35Zm-2.08-2.88c.04.1-.09.33-.13.48-.03.15-.15.63-.31.92-.15.29-.48.88-.81.88s-.35-.37-.35-.63.04-.77.19-.77.15-.39.29-.4c.14-.02.1-.18.19-.26.1-.07.13-.22.25-.22.11,0,.15.02.24.02.11,0,.39-.11.42-.02Zm3.95,2.33c0-.15-.2-.47-.2-.84s-.18-1.06-.18-1.58-.18-1.85-.18-1.99.01-.34.07-.5c.05-.17-.24-.35-.46-.35-.12,0-.28.01-.28.21,0,.19.03,2.12.08,2.6.06.48.19,1.79.19,2.12s.14.47.18.56c.04.08.2.25.32.25s.17-.1.23-.18c.05-.07.22-.14.22-.31Zm4.06-1.56c0-.5-.42-.99-.58-1.04-.15-.06-.7-.52-.84-.52-.11,0-.4.27-.4.48s.17.41.29.41.35.09.49.17c.14.08.38.45.38.59s-.02.23-.19.53c-.17.29-.33.46-.63.46s-.42-.24-.42-.34c0-.09-.22-.3-.22-.57s.24-.64.24-.76c0-.13-.28-.21-.41-.21s-.24.13-.31.35c-.05.22-.25.47-.25.68s.11.61.24.68.14.63.28.64c.13.02.69.35.98.35s.69-.39.91-.65c.21-.27.45-.76.45-1.26Zm5.57,1.37c0-.11-.28-.19-.42-.6-.06-.17-.15-.64-.25-.9-.1-.26-.44-.63-.62-.66-.18-.02-.56-.27-.66-.27s-.29.18-.46.18-.34.2-.46.27c-.13.07-.21.1-.49.52-.28.4-.24-.14-.24-.48s-.31-.45-.49-.45c-.38,0-.28.53-.17.76.1.23.11,1.17.11,1.32,0,.17.42.73.53.73.12,0,.12-.17.24-.22.13-.06.24-.13.2-.3-.04-.15.14-.61.34-.93.18-.32.5-.43.75-.58.27-.14.38,0,.47.07.08.07.33.39.4.65.07.27.23.78.23,1.03s.35.4.49.4.5-.42.5-.55Zm4.3-.02c0-.09-.29-.04-.5-.04s-.04.2-.69.2-.83-.13-.98-.29c-.15-.15-.03-.27.14-.29.16-.02.51-.43.63-.55.11-.11.18-.35.4-.46.21-.11.17-.35.23-.48.05-.13,0-.41-.13-.66-.14-.25-.25-.37-.69-.37-.19,0-.91.24-1.19.43-.29.19-.55.81-.55,1.08s.13.79,0,.9c-.14.09.18.46.61.89.42.43.63.51,1.33.51s.94-.29,1.13-.42c.18-.14.27-.33.27-.43Zm-1.57-2.17c.07.11-.08.23-.21.4s-.4.39-.48.55c-.08.15-.41.35-.39.05.02-.29.12-.44.33-.66.21-.21.3-.27.43-.27.11,0,.24-.2.33-.07Zm9.33,2.92c0-.15-.23-.31-.45-.46-.2-.15-.34-.46-.51-.72-.17-.25-.33-.57-.37-.72-.04-.15,0-.56,0-.85s-.25-.45-.39-.53c-.13-.08-.44-.26-.61-.26-.08,0-.15-.03-.23.04-.07.08-.29-.09-.36.02-.08.11-.31.06-.39.11-.07.06-.57.46-.72.78-.15.31-.37.83-.37,1.1s.07.58.15.7c.07.11.04.38.15.42.11.04.35.44.81.44s.85-.4.9-.51c.06-.09.3-.25.31-.46.02-.22.16-.33.28-.33s.13.2.22.31c.1.12.35.3.37.46.02.18.21.33.35.41.13.08.39.37.54.37s.33-.2.33-.35Zm-2.08-2.88c.04.1-.09.33-.13.48-.03.15-.15.63-.31.92-.15.29-.48.88-.81.88s-.35-.37-.35-.63.04-.77.19-.77.15-.39.29-.4c.14-.02.1-.18.19-.26.1-.07.13-.22.25-.22.11,0,.15.02.24.02.11,0,.39-.11.42-.02Zm6.88,2.15c0-.11-.28-.19-.42-.6-.06-.17-.15-.64-.25-.9-.1-.26-.44-.63-.62-.66-.18-.02-.56-.27-.66-.27s-.29.18-.46.18-.34.2-.46.27c-.13.07-.21.1-.49.52-.28.4-.24-.14-.24-.48s-.31-.45-.49-.45c-.38,0-.28.53-.17.76.1.23.11,1.17.11,1.32,0,.17.42.73.53.73.12,0,.12-.17.24-.22.13-.06.24-.13.2-.3-.04-.15.14-.61.34-.93.18-.32.5-.43.75-.58.27-.14.38,0,.47.07.08.07.33.39.4.65.07.27.23.78.23,1.03s.35.4.49.4.5-.42.5-.55Zm5.06.04c.08-.09.06-.4-.03-.51-.1-.09-.17-.34-.17-.65s-.1-.5-.19-.65c-.1-.15-.02-.42-.1-.64-.07-.21-.15-.84-.15-1.06s-.02-.62.04-.74c.06-.11.08-.15-.07-.27-.15-.11-.15-.22-.19-.39-.04-.18-.23.04-.35.04s-.29.06-.29.18.11.2.11.42.09,1.09.19,1.65c.09.57-.1.31-.23.18-.13-.13-.72-.27-1.13-.27-.52,0-.81.31-1.07.55-.27.23-.44.81-.44,1.08s.11.53.18.77c.08.26.62.74.85.88.23.13.37.04.67.04s.87-.31,1.02-.46c.15-.17.37-.35.4-.55.04-.2.19-.08.19.11s.09.18.09.37.1.35.21.35.15-.06.31-.1c.15-.03.08-.23.15-.33Zm-1.16-1.32c0,.18-.21.28-.28.37-.05.1-.05.35-.38.48-.33.13-.28.37-.75.37s-.76-.44-.76-.75.17-.61.37-.8c.19-.19.2-.33.61-.33.33,0,.57.08.81.24s.39.26.39.42Zm-109.39,13.84c0-.15-.2-.47-.2-.84s-.18-1.06-.18-1.58-.18-1.85-.18-1.99.01-.34.07-.5c.05-.17-.24-.35-.46-.35-.12,0-.28.01-.28.21,0,.19.03,2.12.08,2.6.06.48.19,1.79.19,2.12s.14.47.18.56c.04.08.2.25.32.25s.17-.1.23-.18c.05-.07.22-.14.22-.31Zm2.39-4.57c0-.32-.32-.18-.33-.28-.02-.1-.27-.22-.46-.22-.13,0-.31.24-.31.38s.17.3.29.36c.12.06.31.28.44.28.12,0,.37-.21.37-.53Zm.02,4.1c.1-.07-.1-.43-.1-.63,0-.19-.07-.52-.14-.71-.07-.19-.07-.58-.07-.75s-.31-.32-.45-.32c-.13,0-.25.29-.25.36s.04.18.11.29c.07.12.03.53.07.79.04.26.13.83.13,1.18s.21.47.36.47.22-.01.22-.12c0-.12.02-.48.12-.56Zm4.97.45c0-.14-.37-.37-.48-.37s-.29-.17-.53-.21c-.24-.04-.35-.25-.51-.32-.15-.07-.17-.14-.17-.44s.22-.34.37-.52c.14-.18.28-.14.46-.34.18-.19.4-.37.39-.51-.01-.13.13-.14.13-.27,0-.11-.3-.29-.46-.29-.17,0-.84.7-1,.74-.15.04-.62.56-.79.56-.17,0-.17-.61-.17-.94s.01-1.61.01-1.75-.2-.38-.35-.38c-.24,0-.33.26-.33.43s.08.6.03.87c-.06.26.04,1.39.01,1.73-.03.33.14.72.11.99-.03.26.1.76.1.96,0,.19.36.27.48.27.11,0,.27-.27.27-.4s-.08-.31-.08-.48.03-.33.16-.33c.12,0,.14.32.25.46.11.14.24.31.32.31s.28.07.33.19c.06.11.3.24.45.26.16.03.48.27.58.27.09,0,.42-.34.42-.48Zm1.86-4.56c0-.32-.32-.18-.33-.28-.02-.1-.27-.22-.46-.22-.13,0-.31.24-.31.38s.17.3.29.36c.12.06.31.28.44.28.12,0,.37-.21.37-.53Zm.02,4.1c.1-.07-.1-.43-.1-.63,0-.19-.07-.52-.14-.71-.07-.19-.07-.58-.07-.75s-.31-.32-.45-.32c-.13,0-.25.29-.25.36s.04.18.11.29c.07.12.03.53.07.79.04.26.13.83.13,1.18s.21.47.36.47.22-.01.22-.12c0-.12.02-.48.12-.56Zm5.83.28c0-.11-.28-.19-.42-.6-.06-.17-.15-.64-.25-.9s-.44-.63-.62-.66c-.18-.02-.56-.27-.66-.27s-.29.18-.46.18-.34.2-.46.27c-.13.07-.21.1-.49.52-.28.4-.24-.14-.24-.48s-.31-.45-.49-.45c-.38,0-.28.53-.17.76.1.23.11,1.17.11,1.32,0,.17.42.73.53.73.12,0,.12-.17.24-.22.13-.06.24-.13.2-.3-.04-.15.14-.61.34-.93.18-.32.5-.43.75-.58.27-.14.38,0,.47.07.08.07.33.39.4.65.07.27.23.78.23,1.03s.35.4.49.4.5-.42.5-.55Zm4.73,1.09c0-.85-.34-1.66-.51-2.07-.17-.4-.39-.65-.39-.96s-.19-.3-.42-.46c-.23-.15-.51-.28-.81-.28-.34,0-.75.29-.98.48-.23.19-.62.77-.62,1.31s.04.64.38,1.13c.33.5.78.57,1.08.57s.6-.25.64-.42.23-.22.29-.45c.06-.23.07-.35.24-.35s.2.57.28.67.11.36.11.78c0,.59-.13,1.13-.4,1.51-.28.36-.65.5-1.03.5s-.33.08-.79-.12c-.46-.2-.53-.26-.46-.47.07-.22.01-.17-.14-.36-.16-.21-.47.11-.52.23-.06.11-.07.42.05.53.13.1-.02.22.44.58.46.37,1.03.4,1.33.4s.85-.15,1.22-.24c.37-.09.34-.29.44-.38.1-.08.27-.5.27-.68s.3-.6.3-1.42Zm-1.63-2.32c0,.3-.14.47-.14.59s-.1.3-.19.38c-.08.07-.11.33-.42.33s-.32-.19-.39-.25c-.07-.06-.22-.14-.22-.39s.17-.76.3-.95c.13-.19.55-.42.68-.42.27,0,.39.42.39.71Zm6.65-3.16c0-.32-.32-.18-.33-.28-.02-.1-.27-.22-.46-.22-.13,0-.31.24-.31.38s.17.3.29.36c.12.06.31.28.44.28.12,0,.37-.21.37-.53Zm.02,4.1c.1-.07-.1-.43-.1-.63,0-.19-.07-.52-.14-.71-.07-.19-.07-.58-.07-.75s-.31-.32-.45-.32c-.13,0-.25.29-.25.36s.04.18.11.29c.07.12.03.53.07.79.04.26.13.83.13,1.18s.21.47.36.47.22-.01.22-.12c0-.12.02-.48.12-.56Zm4.73-2.08c0-.15-.36-.29-.49-.22-.13.07-.42-.14-.69-.15-.28-.02-.35-.12-.46-.1-.11.01-.25-.02-.25-.17v-.71c0-.23-.09-.53-.13-.65-.04-.13-.2-.21-.41-.21-.21,0-.25.63-.25.8s.07.64.07.9-.5.11-.63.11-.2.2-.2.42.28.25.35.31c.07.06.29-.06.43-.06s.13.56.13.95-.03.83-.13.93c-.1.1-.24.22-.24.32s.12.12.17.25c.06.13.28.25.42.25s.28-.14.36-.26c.09-.11.19-.43.19-.8s-.1-1.42-.1-1.58c0-.17.14-.12.2-.08.05.05.24.08.32,0,.07-.07.21-.09.43-.02.21.07.38.02.5.01.13-.01.44-.07.44-.24Zm1.89,2.48c0-.14-.07-.57-.16-.57-.08,0-.27-.22-.43-.22-.23,0-.21.23-.38.35-.15.11.02.14.02.26s.24.39.29.39.31.14.45.14.21-.22.21-.36Zm2.3-3.65c.07-.14-.17-.35-.17-.6s-.54-.59-.54-.66-.66-.26-.85-.26c-.13,0-.31.18-.31.28s.28.25.31.36c.02.11.07.29.39.28.32-.02.18.11.32.33.12.23-.03.39-.03.53s-.38.22-.39.34c-.02.11-.29.29-.27.44.03.17.14.12.19.3.04.18.3.07.52.02.21-.04.08-.32.32-.32s.15-.32.3-.39.14-.51.21-.65Zm6.89-1.59c-.07-.11-.14-.28-.28-.32-.22-.07-.63.18-.76.39-.14.22-.34.39-.48.61-.18.28-.5.58-.8,1.03-.29.44-.58,1-.66,1.31-.03.17-.04.3-.04.46-.01.51-.11.99.06,1.5.03.08.13.3.14.38,0,.23.27.43.41.59,0-.01.02-.01.02-.02.04.13.62.51,1.06.65.22.07.45.09.64.1.1,0,.32,0,.41.03.25.08.41-.06.5-.04.22.05.47-.34.51-.52.04-.18-.05-.5-.27-.57-.19-.06-.43-.11-.61.02-.04.02-.3-.03-.38-.03-.27,0-.39-.17-.61-.2-.13-.01-.53-.24-.64-.39-.11-.15-.14-.63-.22-.86-.04-.11.19-.87.23-1.02.07-.28.43-.66.48-.85.01-.04.34-.41.38-.58.03-.14,1.01-.63,1.11-1.04.04-.19-.07-.56-.21-.65h.01Zm5.49,1.74s.09-.05.13-.11c.11-.18.11-.43-.24-.72-.36-.3-.99-.2-1.42-.2-.37,0-1.37.12-1.87.2-.49.08-.6.06-.9.06-.24,0-.41.15-.41.44,0,.34.45.62.8.62.2,0,.25-.04.42-.1.13-.06,1.01-.17,1.15-.17.05,0,.04.04.04.07,0,.13-.06.53-.08.79-.02.27.02.72.04,1.1.02.36.07,1.58.07,1.77,0,.28.39.68.63.68.2,0,.5-.52.5-.79,0-.21-.07-.4-.07-.61,0-.3-.13-.72-.19-1.02-.07-.27.08-.39.03-.62-.03-.17-.03-1-.03-1.27,0-.05-.02-.08,0-.09.02-.01.17,0,.19,0,.19,0,.24.05.32.14.19.27.54.11.64-.07.02-.04.19-.08.24-.11Zm1.77.48c-.14-.03-.32-.09-.42.07-.01.01-.16.02-.19.02-.28.04-.84.71-.93.89-.15.31-.38.86-.38,1.18,0,.57.09.36.19.84.08.38.02.24.27.48.23.23.46.4.81.4.53,0,.96-.45,1.03-.58.09-.15.31-.23.33-.53.02-.17.11-.2.12-.2s-.02.02-.02.03c.12.25.16.26.35.44.24.26.11.44.54.69.18.11.37.39.61.39s.48-.28.48-.51c0-.26-.33-.45-.51-.59-.2-.15-.78-1.14-.83-1.35-.03-.14.01-.65.01-.81,0-.36-.3-.57-.46-.66-.15-.09-.5-.28-.69-.28-.04,0-.08-.01-.11-.01-.06,0-.13.02-.19.07Zm.28,1.21c-.04.15-.15.6-.3.88-.13.25-.39.79-.67.79-.22,0-.19-.29-.19-.47,0-.2-.08-.62.04-.62.21,0,.27-.27.35-.41.15-.04.17-.17.23-.28.05-.05.09-.1.13-.17.01,0,.01-.02.02-.02.11,0,.15.02.24.02.05,0,.1-.01.14-.02.03,0,.08,0,.11-.02-.04.1-.11.29-.11.32Zm4.24,2.18c.06-.05.14-.15.14-.3,0-.24-.2-.52-.2-.84,0-.37-.18-1.06-.18-1.58s-.18-1.85-.18-1.99.01-.31.06-.44c.08-.23-.3-.56-.6-.56-.19,0-.43.05-.43.36,0,.19.03,2.13.08,2.62.06.47.19,1.77.19,2.1,0,.2.04.34.09.44.09.21.32.52.56.52.13,0,.22-.07.31-.18.05-.07.1-.1.16-.17Zm4.34.05c.22-.17.34-.4.34-.56,0-.28-.49-.2-.65-.2-.09,0-.16.03-.22.09l-.02.02c-.1.09-.35.08-.45.08-.62,0-.74-.12-.87-.25-.02-.02.01-.02.04-.02.11-.01.28-.13.43-.28.21-.21.33-.33.48-.57.15-.22.36-.23.44-.52.1-.38.11-.64-.09-1.02-.16-.3-.33-.45-.83-.45-.23,0-.97.25-1.27.45-.34.23-.62.91-.62,1.22,0,.14.03.34.05.53.01.11.05.21.01.24-.16.11.1.63.59,1.13.46.45.71.55,1.44.55.37,0,.62-.08.82-.18.15-.08.27-.19.4-.28Zm-2.3-1.75c.02-.22.09-.33.28-.52.21-.22.25-.23.32-.23h.07s-.06.05-.08.08c-.14.2-.39.35-.49.57-.02.03-.05.06-.09.09Zm4.75-.42c.08-.01.14-.06.2-.12.04.06.12.14.28.14.28,0,.58-.42.58-.64,0-.26-.33-.45-.52-.5-.22-.05-.44-.15-.68-.15-.19,0-.35.11-.45.22-.24.24-.48.67-.48,1s.28,1.13.5,1.39c.09.09.06.12-.07.17-.16.05-.17.11-.17.07,0-.12-.18-.47-.53-.26-.11.07-.12.13-.24.1-.3-.08-.71.21-.71.51,0,.24.39.53.57.6.19.08.44.05.64-.05.08-.04.3.05.41.05.18,0,.56-.06.76-.19.28-.15.51-.26.51-.66,0-.66-.59-1.25-.59-1.51,0-.06-.01-.11,0-.18Zm7.46-2.48c.24-.1.32-.42.06-.65-.14-.12-.37-.2-.47-.3-.17-.17-.62-.24-.98-.24-.19,0-.4.07-.59.07-.15,0-.58.38-.71.54-.15.19-.27.85-.27,1.11,0,.29.04.59.12.93.04.17.03.22-.06.22-.49,0-.24,1.08.33,1.08.06,0,.04.29.04.45,0,.26.2.46.2.54,0,.27-.01.62.12.86.13.26.39.55.64.55.2,0,.27-.07.32-.24.07-.25.12-.12.09-.43-.03-.3-.05-.65-.2-.91l-.04-.06s-.03-.06-.02-.09c.02-.25-.28-.52-.28-.66,0-.01,0-.02.01-.02.05-.02.18-.01.24-.01.23,0,.28-.15.5-.15s.23-.01.39.1c.29.21.99-.75.48-.99-.21-.09-1.26-.01-1.56-.01-.4,0-.29-.32-.29-.58s0-.43.07-.78q.04-.2.16-.3c.15-.13.25-.35.52-.22.18.09.43.03.6.18.24.2.35.11.56.02Zm1.46,1.84c-.04-.22-.36-.29-.46-.29-.46,0-.44.52-.37.79.05.17.11.37.06.48-.11.22-.06.61.07.65.02.01-.03.11-.02.23l.02.27c.04.36.25.77.69.77.39,0,.51-.5.45-.78-.05-.27-.04-.57-.04-.85,0-.13.05-.18.12-.28.1-.14.12-.22.25-.36.23-.22.43-.37.76-.37.23,0,.47-.15.47-.31,0-.19-.31-.54-.52-.54-.42,0-.43.13-.74.2-.31.07-.5.19-.75.38Zm4.95,2.26c.23-.28.49-.81.49-1.35s-.46-1.1-.68-1.19-.66-.53-.89-.53c-.2,0-.55.34-.55.64,0,.08.01.18.05.25-.12-.07-.28-.12-.38-.12-.24,0-.39.23-.45.46-.06.25-.27.45-.27.72,0,.6.15.35.34.87.02.05.03.12.05.2.07.32.15.36.39.46.25.11.62.3.88.3.32,0,.79-.41,1.02-.71Zm-1.19-1.86c.1,0,.3.09.42.15.1.05.3.37.3.44,0,.09-.01.17-.17.44-.16.28-.29.39-.5.39s-.27-.15-.27-.19c0-.18-.22-.34-.22-.57s.23-.56.24-.75c.06.04.13.07.2.07Zm5.24.68c-.01-.47-.39-1.19-.94-1.19-.22,0-.36.03-.6.42l-.04.05c0-.64-.21-.81-.55-.81-.22,0-.42.26-.47.43-.04.15-.04.61.12.74.02.01,0,1.21,0,1.35,0,.5.33.63.56.63s.62-.31.62-.63c0-.18.13-.52.3-.71.06-.07.11-.17.12-.26.02.06,0,.2.02.33.02.18.06.56.14.7.13.24.43.66.79.66.42,0,.63-.75.75-1.07.13-.33.38-.59.51-.93.07-.2.14-.13.23-.04.15.12.16.41.4.41.02,0-.06.03-.06.07l.03.17c.07.26.3.05.3.57,0,.3.25.57.48.57.29,0,.49-.48.49-.81,0-.39-.28-.33-.32-.81-.04-.37-.31-.53-.45-.84-.18-.39-.72-.69-1-.69-.24,0-.66.46-.85.7-.22.3-.41.66-.59.99Zm-73.24,13.63c.22,0,.41-.23.41-.45,0-.21-.1-.46-.18-.65-.07-.13.06-.47-.05-.7-.07-.15-.14-.39-.15-.83-.02-.48-.21-1.2-.35-1.55-.14-.38-.47-.58-.74-.58-.13,0-.29.11-.44.3-.32.43-.88,1.38-.99,1.86-.06.24-.15.62-.25.62-.09,0-.05-.22-.09-.46-.08-.44-.39-1.78-1-1.78-.22,0-.32.19-.34.36-.01.08-.32.62-.37.71-.18.37-.47.72-.49,1.16,0,.15-.08.29-.15.41-.09.18-.2.38-.25.71-.08.47-.36,1.18-.36,1.62,0,.32.38.7.57.7.15,0,.42-.1.42-.43,0-.2.1-.45.15-.64.1-.43.23-.71.31-1.1.02-.14.07-.26.13-.38.16-.31.06-.48.15-.76.04-.14.18-.73.33-.73.03,0-.02.1.01.23.14.63.19,2.02,1.08,2.02.54,0,.68-.59.75-1.01.04-.24.23-.4.24-.64.01-.15.27-.62.33-.81.06-.21.17-.48.29-.48.12,0,.09.57.1.84.02.35.08.69.22,1,.13.3.14.64.17.96.04.42.18.52.54.52Zm4-.08c.23-.28.49-.81.49-1.35s-.46-1.1-.68-1.19c-.22-.08-.66-.53-.89-.53-.2,0-.55.34-.55.64,0,.08.01.18.05.25-.12-.07-.28-.12-.38-.12-.24,0-.39.23-.45.46-.06.25-.27.45-.27.72,0,.6.15.35.34.87.02.05.03.12.05.2.07.32.15.36.39.46.25.11.62.3.88.3.32,0,.79-.41,1.02-.71Zm-1.19-1.86c.1,0,.3.09.42.15.1.05.3.37.3.44,0,.09-.01.17-.17.44-.16.28-.29.39-.5.39s-.27-.15-.27-.19c0-.18-.22-.34-.22-.57s.23-.56.24-.75c.06.04.13.07.2.07Zm5.2,1.86c.23-.28.49-.81.49-1.35s-.46-1.1-.68-1.19c-.22-.08-.66-.53-.89-.53-.2,0-.55.34-.55.64,0,.08.01.18.05.25-.12-.07-.28-.12-.38-.12-.24,0-.39.23-.45.46-.06.25-.27.45-.27.72,0,.6.15.35.34.87.02.05.03.12.05.2.07.32.15.36.39.46.25.11.62.3.88.3.32,0,.79-.41,1.02-.71Zm-1.19-1.86c.1,0,.3.09.42.15.1.05.3.37.3.44,0,.09-.01.17-.17.44-.16.28-.29.39-.5.39s-.27-.15-.27-.19c0-.18-.22-.34-.22-.57s.23-.56.24-.75c.06.04.13.07.2.07Zm5.24.68c-.01-.47-.39-1.19-.94-1.19-.22,0-.36.03-.6.42l-.04.05c0-.64-.21-.81-.55-.81-.22,0-.42.26-.47.43-.04.15-.04.61.12.74.02.01,0,1.21,0,1.35,0,.5.33.63.56.63s.62-.31.62-.63c0-.18.13-.52.3-.71.06-.07.11-.17.12-.26.02.06,0,.2.02.33.02.18.06.56.14.7.13.24.43.66.79.66.42,0,.63-.75.75-1.07.13-.33.38-.59.51-.93.07-.2.14-.13.23-.04.15.12.16.41.4.41.02,0-.06.03-.06.07l.03.17c.07.26.3.05.3.57,0,.3.25.57.48.57.29,0,.49-.48.49-.81,0-.39-.28-.33-.32-.81-.04-.37-.31-.53-.45-.84-.18-.39-.72-.69-1-.69-.24,0-.66.46-.85.7-.22.3-.41.66-.59.99Zm5-3.57c-.1-.19-.42-.27-.58-.27-.24,0-.46.34-.46.54,0,.24.24.43.38.51.16.08.28.29.5.29s.52-.3.52-.68c0-.26-.14-.36-.36-.38Zm.25,5.04c0-.09-.02-.37.05-.43.21-.14-.03-.56-.03-.75,0-.21-.08-.57-.15-.76-.07-.18-.06-.54-.06-.7,0-.32-.45-.47-.6-.47-.28,0-.41.43-.41.52,0,.12.06.26.13.37.04.06.03.62.05.73.04.26.13.81.13,1.16,0,.42.28.63.51.63.25,0,.38-.07.38-.28Zm2.34-1.89v-.34c0-.46-.43-.61-.64-.61-.5,0-.45.67-.32.98.1.22.1,1.1.1,1.26,0,.21.45.89.68.89.12,0,.18-.06.24-.15l.03-.04c.13-.21.43-.13.33-.51-.04-.14.14-.54.32-.81.07-.13.17-.23.3-.31.08-.05.48-.29.57-.26.18.07.44.55.48.67.06.26.22.75.22.99,0,.39.48.56.64.56.23,0,.65-.51.65-.7,0-.13-.11-.22-.2-.3-.32-.3-.33-.84-.48-1.25-.11-.29-.47-.71-.74-.75-.19-.03-.51-.28-.68-.28-.16,0-.33.18-.46.18-.25,0-.35.19-.53.29-.24.13-.35.27-.51.51Zm5.63.99l-.02-.26c-.02-.23-.18-.41-.27-.62-.11-.28.2-.42-.09-.68l-.04-.03h-.02c-.03-.24-.42-.37-.59-.37-.38,0-.38.63-.28.74.03.05-.01.44.11.59.04.04.15.39.19.76.05.4.22.44.31.73.1.37.49.63.71.63.2,0,.41-.17.41-.36,0-.09.25-.2.31-.43h0c.06-.05.09-.12.1-.19v-.05s-.01-.01-.03-.01c.15-.05.3-.25.24-.42,0-.03.07-.05.1-.09.21-.25.19-.18.31-.47.06-.19.21-.15.25-.38.06-.05.28-.31.29-.31.28,0,.42-.4.42-.57,0-.27-.24-.26-.33-.41-.24-.43-.4-.1-.68-.04-.18.04-.17.3-.3.32-.18.02-.21.2-.22.33-.01.03.04.07.02.07-.22.05-.31.5-.33.51-.19.12-.22.44-.34.59-.07.08-.12.21-.18.31-.03.04-.04.09-.06.12Zm4.82-2.28c-.14-.03-.32-.09-.42.07-.01.01-.16.02-.19.02-.28.04-.84.71-.93.89-.15.31-.38.86-.38,1.18,0,.57.09.36.19.84.08.38.02.24.27.48.23.23.46.4.81.4.53,0,.96-.45,1.03-.58.09-.15.31-.23.33-.53.02-.17.11-.2.12-.2s-.02.02-.02.03c.12.25.16.26.35.44.24.26.11.44.54.69.18.11.37.39.61.39s.48-.28.48-.51c0-.26-.33-.45-.51-.59-.2-.15-.78-1.14-.83-1.35-.03-.14.01-.65.01-.81,0-.36-.3-.57-.46-.66-.15-.09-.5-.28-.69-.28-.04,0-.08-.01-.11-.01-.06,0-.13.02-.19.07Zm.28,1.21c-.04.15-.15.6-.3.88-.13.25-.39.79-.67.79-.22,0-.19-.29-.19-.47,0-.2-.08-.62.04-.62.21,0,.27-.27.35-.41.15-.04.17-.17.23-.28.05-.05.09-.1.13-.17.01,0,.01-.02.02-.02.11,0,.15.02.24.02.05,0,.1-.01.14-.02.03,0,.08,0,.11-.02-.04.1-.11.29-.11.32Zm4.24,2.18c.06-.05.14-.15.14-.3,0-.24-.2-.52-.2-.84,0-.37-.18-1.06-.18-1.58s-.18-1.85-.18-1.99.01-.31.06-.44c.08-.23-.3-.56-.6-.56-.19,0-.43.05-.43.36,0,.19.03,2.13.08,2.62.06.47.19,1.77.19,2.1,0,.2.04.34.09.44.09.21.32.52.56.52.13,0,.22-.07.31-.18.05-.07.1-.1.16-.17Zm2.7,0c.06-.05.14-.15.14-.3,0-.24-.2-.52-.2-.84,0-.37-.18-1.06-.18-1.58s-.18-1.85-.18-1.99.01-.31.06-.44c.08-.23-.3-.56-.6-.56-.19,0-.43.05-.43.36,0,.19.03,2.13.08,2.62.06.47.19,1.77.19,2.1,0,.2.04.34.09.44.09.21.32.52.56.52.13,0,.22-.07.31-.18.05-.07.1-.1.16-.17Zm4.34.05c.22-.17.34-.4.34-.56,0-.28-.49-.2-.65-.2-.09,0-.16.03-.22.09l-.02.02c-.1.09-.35.08-.45.08-.62,0-.74-.12-.87-.25-.02-.02.01-.02.04-.02.11-.01.28-.13.43-.28.21-.21.33-.33.48-.57.15-.22.36-.23.44-.52.1-.38.11-.64-.09-1.02-.16-.3-.33-.45-.83-.45-.23,0-.97.25-1.27.45-.34.23-.62.91-.62,1.22,0,.14.03.34.05.53.01.11.05.21.01.24-.16.11.1.63.59,1.13.46.45.71.55,1.44.55.37,0,.62-.08.82-.18.15-.08.27-.19.4-.28Zm-2.3-1.75c.02-.22.09-.33.28-.52.21-.22.25-.23.32-.23h.07s-.06.05-.08.08c-.14.2-.39.35-.49.57-.02.03-.05.06-.09.09Zm5.66,4.76h-.03c.06.14.16.45.31.5.05.01.15.2.35.2.1,0,.18-.05.24-.1.24-.23.24-.47.24-.81,0-.39-.06-.81-.13-.87-.01-.01.03-.07.03-.15,0-.15.01-.34.01-.51,0-.33-.17-1.56-.17-1.78,0-.27-.16-.85-.24-.91-.06-.05-.03-.21-.03-.44,0-.42-.17-.7-.32-.7-.04,0-.22-.2-.36-.2-.09,0-.32.07-.38.25-.07.24-.66,1.08-.92,1.08-.08,0,0-.13,0-.25,0-.19.09-.7.09-.85,0-.15-.1-.46-.3-.51-.08-.01-.17-.12-.33-.12s-.24.07-.29.17l-.02.05c-.12.07-.2.65-.2.9,0,.2.07.71.07.93,0,.25.21.64.39.67.07.02.29.24.5.24.17,0,.28-.15.39-.26.43-.06.7-.7.86-.7.04,0-.07.1-.06.22.02.15.03.41.1.56.08.17.18,1.31.18,1.79s-.04.85-.08.99c-.05.21.01.56.09.63Zm3.07-2.99s-.01.09-.01.14c0,.13-.17.31-.17.45,0,.01-.01.02-.02.03l-.03.03c-.07.09-.13.19-.13.27,0,.15-.54.44-.54.81,0,.19.09.42.25.42l.02.02c.06.06.13.1.22.1.18,0,.18-.08.29-.15.1-.07.15-.18.22-.23.18-.12.29-.46.45-.67.16-.2.17-.29.28-.53.19-.48.19-.51.15-1.01-.02-.25-.49-.98-.84-.98-.12,0-.49.13-.51.22,0,.03-.1-.01-.17-.01-.21,0-.38.29-.38.54,0,.21.1.35.23.5.18.21.47.1.68.04Zm6.01.25c.11.1.18.28.38.28.22,0,.61-.3.61-.61,0-.15-.05-.45-.1-.7-.07-.38-.21-.87-.21-1.25,0-.28-.08-1.22-.13-1.49-.04-.25-.05-1.1-.02-1.35.02-.24-.1-.41-.29-.54-.19-.12-.39-.31-.63-.31-.21,0-.38.63-.24.93.05.1.08.66.11,1.22.01.15.05,1.16.11,1.27.05.07.02,1.49.02,1.66,0,.64.22.88.4.89Zm6.86-4.38c.08-.08.15-.2.15-.34s-.08-.34-.31-.41c-.14-.04-.47-.17-.64-.27-.22-.14-.93-.23-1.24-.23-.37,0-.84.1-1.08.13-.28.03-.46.11-.6.3-.38.46-.89.91-.89,1.57,0,.38.34.89.51,1.05.19.21.53.32,1,.32.23,0,.36-.02.46-.05.04-.02.08-.04.12-.04.16,0,.51-.08.64-.32.08-.15.46-.07.61-.42.05,0-.04.06-.05.14,0,.19-.03.43-.01.65.03.44.04,1.39-.03,1.71-.08.38.07.42.08.7.02.4.4.43.73.28.33-.13.36-.39.31-.65-.03-.13.11-.19.09-.37-.02-.14-.07-.72-.07-.95,0-.11-.01-.35-.01-.59,0-.21,0-.4.03-.48.07-.21.01-.71-.11-.87-.04-.03-.05-.13-.07-.25-.03-.19-.05-.36-.11-.5.06.01.11.01.15.01.1,0,.22-.02.34-.13Zm-1.53.21c-.32.48-.38.26-.78.56-.18.14-.29.21-.52.29-.19.06-.71.14-.71-.2,0-.15.17-.36.23-.52.03-.08.31-.32.59-.45.27-.12.24-.14.57-.14h.4c.08.01.33.06.54.11-.13.07-.24.21-.33.35Zm6.8,2.38c.03-.13-.15-.81-.27-.98-.15-.22-.66-.3-.74-.3-.09,0-.42.07-.51.22-.01.02-.07.01-.12.02-.09.03-.22.05-.31.11-.12.09-.39.34-.41.41,0,.01-.01.03-.02.06,0,.01-.03.09-.03.09-.05,0,.05-.14.04-.3-.01-.24,0-.53,0-.68,0-.32.09-.85.09-.96,0-.08.15-.57.2-.71.08-.21.24-.44.24-.67,0-.18-.17-.65-.44-.65-.18,0-.57.22-.64.46-.04.14-.16.41-.21.47-.17.22-.18.95-.21,1.26-.05.38-.12.75-.12,1.12,0,.44.1.92.1,1.13s.17.41.29.58c.1.17.04.53.33.53.18,0,.34.6,1.24.6.44,0,1.04-.47,1.13-.63.07-.11.28-.58.35-.76.06-.15.03-.29.03-.44h-.01Zm-1.07-.18s.09.04.09.12c0,.19-.36.72-.51.72-.02,0-.01-.04-.01-.06-.04-.09-.07-.21-.16-.27-.03-.02-.01-.11.04-.13.1-.05.16-.15.22-.26.02-.02.03-.06.05-.08.1-.03.17-.04.28-.04Zm4.12-3.5c-.21-.32-.64.07-.89.1-.21.02-.97.64-1.08.76-.09.09-.22.25-.29.25-.27,0-.36.28-.36.4,0,.15.08.34.21.52.17.23.39.24.57.24.16,0,.39-.05.41-.31.01-.03.05-.05.07-.07l.05-.05c.06-.05.14-.14.17-.22.17-.07.4-.03.5-.25.06-.13.38-.25.5-.31-.01.08-.03.19-.03.3,0,.37-.42,1.2-.58,1.55-.23.46-.62,1.12-.62,1.65,0,.35.09.57.37.74.4.25.54.3,1.01.3.18,0,.3-.09.45-.17.24-.12.52-.03.72-.28.08-.09.27-.11.28-.1.17.13.34.03.52.03.34,0,.36-.42.15-.71-.17-.26-.52-.26-.79-.26-.24,0-.54.02-.9.09-.17.04-.27.08-.35.1-.04.02-.07.01-.13-.03-.09-.05.03-.24.03-.34,0-.05.09-.17.18-.3.24-.39.72-1.11.72-1.56,0-.08.17-.3.17-.62,0-.43-.1-.84-.27-.87-.04-.01-.19-.31-.21-.35-.12-.2-.41-.23-.61-.27v.02Zm7.26,5.99c.17-.06.37-.35.4-.48.02-.09.16-.31.21-.41.08-.15.29-.74.29-.87s.1-.38.15-.52c.07-.18.11-.66.11-.84,0-.2-.1-.71-.16-.83-.03-.06-.21-.4-.21-.44,0-.18.02-.38-.17-.47-.05-.03-.07-.52-.3-.56-.01,0-.02-.05-.07-.1-.14-.18-.68-.86-.81-.86-.02,0-.04-.06-.09-.11-.04-.04-.08-.09-.12-.12-.14-.13-.66-.39-.83-.39-.18,0-.38.22-.38.57,0,.26.11.35.32.44,0,.01.01,0,.01.01.1.14.34.26.55.34.17.07.47.45.48.52.01.12.15.3.22.39.18.27.14.26.24.53.18.53.34.9.19,1.47-.04.13-.09.28-.09.41,0,.2-.12.47-.18.65-.09.3-.31.56-.47.81-.11.19-.34.37-.34.61,0,.27.39.56.65.56.21,0,.31-.14.39-.31Z"/>
</svg>