<?xml version="1.0" encoding="UTF-8"?>
<svg id="fore_ground" data-name="fore ground" xmlns="http://www.w3.org/2000/svg" viewBox="0 0 127.5 210">
  <defs>
    <style>
      .cls-1 {
        fill: #fff;
      }

      .cls-2 {
        fill: #fef065;
      }

      .cls-3 {
        fill: #0e5256;
      }
    </style>
  </defs>
  <path class="cls-1" d="m24.06,157.91c-.49-2.92-.8-6.17-.43-8.75.17-1.2.31-2.32.08-2.83-.17-.37-.68-.21-1.55-.05s-2.23.35-3.01.08c-.31-.1-1.66-1.29-2.81-2.66-1.04-1.24-2.32-3.33-3.3-4.66-.71-.98-1.49-1.91-2.31-2.8-.25-.3-.62-.31-.91-.04-.15.14-.58,1.08-.51,2.42.11,2.12.89,5.23,1.43,7.68.89,4,1.16,4.51,2.18,7.4,1.02,2.89,2.23,5.81,2.47,6.5.13.38,2.12,4.08,2.71,4.96.49.74,1.35,2.35,2.91,2.13s2.62-.41,3-.48c.91-.18,1.58-.27,2.47-.52.18-.05.58-.49.42-.85-.25-.54-2.33-4.49-2.84-7.52Z"/>
  <path class="cls-1" d="m25.12,142.6c.24.12.39.05.48-.19.1-.28.23-.56.31-.86.04-.13.04-.27,0-.4-.26-.92-.54-1.84-.79-2.77-.14-.54-1.18-3.58.78-5.06,1.96-1.47,2.18-2.02,3.24-1.76,1.06.26,3.38,1.71,3.38,3.56,0,1.85-.8,5.09-.83,5.34-.03.22-.08.46.29.56.33.09.49-.02.67-.25.2-.25.45-.46.65-.72.46-.59,2.02-2.97,2.08-3.11.28-.71.59-1.23,1.62-2.58,1.03-1.35,2.77-1.38,4.64-1.21,1.96.18,2.76.27,2.95.27.26,0,.58-.31.57-.6,0-.51-.02-1.01-.06-1.51-.05-.64-.13-1.27-.19-1.91,0-.08-.08-2.79.06-4.84.15-2.12.51-3.58.55-3.85,0-.03,0-.08,0-.1-.06-.07-.14-.18-.21-.19-.2,0-.41,0-.6.05-.18.03-.35.1-.52.14-.42.1-6,1.31-6.31,1.37-.43.08-6.16,1.29-6.35,1.33-.49.1-3.48.31-3.77.3-.7-.02-1.4-.06-2.1-.1-.41-.02-.81-.06-1.22-.1-.48-.06-4.1-.65-4.55-.73-.18-.03-3.47-.63-4.02-.77-.7-.17-1.4-.31-2.11-.45-.12-.02-.35.03-.39.1-.09.21.05.34.25.42.6.23,1.2.47,1.8.7.36.13,1.85.77,2.25.9.66.23,2.79.99,3.07,1.18.19.12.36.25.52.4.25.25.16.59-.17.72-.14.06-.29.07-.44.11-.94.27-3.84,1.44-4.42,1.67-.74.31-1.43.71-2.07,1.19-.6.44-1.7.98-1.41,1.55.3.56,2.05-.26,2.12-.28.76-.28,1.5-.59,2.22-.94.12-.07,1.72-.62,2.08-.73.19-.06,3.11-1.26,3.33-1.02.22.24.22.56,0,.83-.19.2-.41.38-.65.52-.18.08-1.24.99-1.54,1.39-.42.55-.82,1.12-1.19,1.7-.24.35-.44.72-.59,1.12-.24.7-.42,1.42-.59,2.14-.11.49-.19,1-.23,1.5-.04.45,0,.91,0,1.22.13.65.18,1.16.33,1.63.19.57.72.65,1.04.15.2-.31.56-1.8.63-2.16.04-.19.08-.39.1-.58.03-.24,1.11-3.42,2.08-5.18.7-1.27,1.45-1.94,1.88-2.21.08-.04.17-.05.26-.04.09,0,.17.03.25.07.07.05.12.12.15.2.04.08.05.16.05.25-.04.2-.9.96-1.59,2.41-1.9,3.99-.31,6.63.27,7.67.58,1.04.96,2.03,1.99,2.55Z"/>
  <path class="cls-1" d="m12.89,25.29c.72-1.36,1.51-2.68,2.37-3.95,1.1-1.59,2.41-3.11,2.75-3.52.38-.46.37-.8-.09-1.16-.33-.26-.68-.5-1.03-.73-.15-.1-4.54-2.84-5.66-3.55-.75-.47-3.16-1.49-4.76-2.11-.79-.31-1.94-.52-2.16-.47-.38.09-.72.31-.95.62-.3.38-.27.79-.28,1.29-.1.98,1.09,3.63,1.14,3.71.34.64.75,1.83,2.69,4.33,1.94,2.5,3.39,3.86,3.93,4.5.41.44.87.82,1.38,1.15.28.17.55.2.69-.09Zm-3.23-6.74c-.12-.12-.23-.24-.35-.35-.21-.21-1.21-1.12-1.41-1.27-.12-.08-.39-.47-.61-.34-.22.13.06.53.1.66.06.19.11.38.16.57.1.37.21.83-.19.96-.4.12-.58-.25-.72-.61-.33-.83-.61-1.67-.94-2.5-.11-.25-.24-.48-.39-.71-.27-.44-.26-.72.07-1.03.33-.31.91-.05,1.08.1.48.42.95.87,1.42,1.31.09.08,2.03,1.57,2.21,1.76.42.44.84.88,1.28,1.31.46.46.92.91,1.4,1.35.28.26.61.48.89.74.29.26.44.58.26,1.02-.2.51-.57.68-.98.32-.21-.17-.34-.42-.53-.62-.39-.39-.81-.77-1.21-1.16-.52-.5-1.04-1.01-1.55-1.52h0Z"/>
  <path class="cls-2" d="m16.79,45.74c.06.07.23.15.28.11.05-.03.09-.08.12-.13.03-.05.04-.11.05-.17-.04-.37-.73-2.66-.87-3.44-.19-1.03-.39-3.01-.24-5.7s.95-6.67,1.01-6.88c.16-.52.33-2.71,1.01-2.64.68.06.35,1.2.26,1.65-.16.82-.73,3.88-.82,5.95-.09,2.07.42,4.05,1.37,6.88.11.32.24.63.39.93.23.5.48,1,.73,1.49.08.16.67,1.6.94,1.51.27-.08-.15-1.35-.21-1.65-.11-.61-.25-1.44-.31-1.76-.18-1.08-.61-7.9-.57-8.52.07-1.02.19-2.08.31-3.41.12-1.32.56-3,.67-3.75.02-.12.07-.23.16-.32s.2-.13.32-.14c.11-.02.23,0,.32.05.1.06.17.15.2.26.07.19.09.39.07.58-.08.53-.56,2.78-.73,5.54-.17,2.76.19,3.74.43,5.04.24,1.3.97,3.53,1.47,4.43.51.91,1.02,1.83,1.13,1.92.11.09.18.1.13-.09-.1-.36-.18-.72-.27-1.07-.15-.55-.35-1.09-.46-1.66-.19-.96-1.31-6.22-1.35-8.47-.02-1.52.03-2.49.1-3.16.03-.33.16-.88.49-.88.33,0,.37.62.41.99.06.51.07,1.03.14,1.55.06.51.15,1.01.24,1.52.05.31.1.63.17.94.1.44.21.88.33,1.33.22.88.87,2.97,2.2,5.53.83,1.58,1.95,3,3.3,4.17.37.37,1.12,1.16,1.36,1.01.24-.15-.2-.65-.42-1.15-.64-1.39-1.7-3.94-2.2-5.51-.68-2.12-.81-3.52-.94-4.18-.3-1.59-.77-6.62-.89-8.44-.08-1.15,0-1.64.05-1.74.11-.23.38-.41.62-.32.17.05.34.29.39.47.16.63.26,1.28.33,1.93.06.7.61,3.6.75,4.2.07.32.55,2.52.84,3.26.31.78,1.43,3.04,1.64,3.42.43.78.81,1.58,1.25,2.35.43.74.9,1.45,1.37,2.16.17.26.54.87.76.75.22-.13-1.02-2.75-1.24-3.43-.43-1.33-1.24-4.55-1.46-5.53-.13-.58-.7-4.06-.8-5.66-.09-1.61-.26-2.88-.06-3.65.2-.76.52-1.15,1.07-.83s.86,1.39.87,2.45c.01,1.05.16,3.88.24,4.39.13.76.67,2.82.75,3.09.25.86.6,1.68.9,2.53.12.34.98,2.24,1.21,2.17.1-.03-.27-1.08-.51-1.98-.29-1.1-.46-2.11-.48-2.22-.07-.43-.18-.86-.24-1.29-.1-.79-.2-1.57-.29-2.36-.05-.44-.23-5.32-.28-5.86-.1-1.09-.22-2.47.35-2.52.86-.07,1.08,1.43,1.16,1.66.19.56.42,2.8.5,3.33.1.6.15,1.21.22,1.82.05.42.1.84.18,1.26.13.71.27,1.42.44,2.13.12.49.29.97.46,1.44.1.3,1.05,2.34,1.77,4.25.44,1.15,1,2.25,1.67,3.29.31.47.56.76.66.72.25-.1.03-.54-.05-.87-.43-1.75-1.78-7.18-2.34-9.49-.4-1.7-.72-3.42-.94-5.15-.09-.59-.15-1.18-.21-1.77-.04-.37-.3-3.33-.31-3.67,0-.16-.02-.37-.12-.48-.51-.56-3.04-3.47-3.76-4.74-.72-1.27-1.2-2.08-1.5-2.87-.16-.43-.66-.69-1.05-.49-.13.07-3.61,1.02-4.57,1.41-.96.38-3.7,1.09-6.24,3.43-2.54,2.34-4.29,4.74-4.54,5.14-.51.81-1.04,1.61-1.49,2.45-.34.64-.71,1.26-1.09,1.88-.32.53-1.52,3.18-1.84,3.94-.31.73-1.16,3.75-1.31,5.76-.15,2.01.09,5.9,1.45,7.89,1.36,1.99,1.78,2.64,1.99,2.48.21-.16-.21-1.27-.31-1.81-.24-1.19-1.38-3.58-1.07-8.65s1.58-7.28,1.83-7.94c.25-.65.7-.8,1.05-.54.35.26,0,1.36-.13,1.68-.31.83-.91,3.56-1.01,3.96-.29,1.16-.25,2.17-.09,4.18.18,1.89.6,3.75,1.24,5.54.39.98.89,1.9,1.5,2.76Z"/>
  <path class="cls-1" d="m20.26,46.74c-.12-.24-2.04-4.27-2.3-5.41-.06-.27-.26-.88-.56-.82-.15.03-.22.42-.08,1.3.17.92.39,1.83.67,2.72.19.59,1.04,3.37,1.43,4.12.22.45.52.86.87,1.21.05.06.13.11.21.12.38,0,.67-.19.91-.48.21-.26,0-.43-.12-.63-.08-.15-.15-.3-.22-.46-.27-.56-.53-1.12-.81-1.68Z"/>
  <path class="cls-1" d="m22.41,42.51c-.11-.3-.24-.59-.38-.88-.04-.09-.1-.29-.31-.24-.21.05-.07.67.03.98.06.19.61,2.79.73,3.36.15.71.33,1.4.68,2.04.12.22.33.54.82.2.49-.34.72-.5.94-.65.31-.21.2-.25.1-.42-.39-.62-.78-1.24-1.18-1.86-.53-.81-1.09-1.62-1.43-2.55Z"/>
  <path class="cls-2" d="m33.92,166.45c.49-.33.36-1.05.18-1.22-.59-.56-1.13-1.16-1.62-1.81-1.08-1.43-3.08-4.38-3.63-9.28-.44-3.88.39-8.15.5-8.82.09-.59.34-1.15.57-1.7.16-.35.35-.69.57-1.02.1-.18.13-.38-.02-.51-.29-.24-.6-.57-.94-.64-.79-.15-1.53.13-2.11.65-.86.76-1.63,2.69-1.96,5.38-.16,1.35-.39,3.22-.31,5.44.08,2.23.47,4.81.51,5.05.02.15.84,2.92,1.01,3.27.42.87,1.85,4.91,4.38,5.77,1.07.36,2.19-.08,2.89-.55Z"/>
  <path class="cls-1" d="m120.28,115.5c-.43-.95-1.61-4.06-1.84-4.55-.19-.41-.37-.83-.57-1.23-.11-.23-2.38-4.71-4.11-7.2-.23-.37-2.32-3.42-2.4-3.54-.2-.31-1.35-1.98-1.77-2.46-.34-.38-.98-1.27-1.88-2.38-.89-1.11-1.72-2.2-2.57-3.14-.85-.93-1.52-1.71-1.92-2.16-.43-.49-2.14-2.72-2.59-3.32-.34-.46-.7-.92-1.05-1.37-.38-.49-.77-.97-1.15-1.47-.18-.24-.96-1.31-1.16-1.61-.36-.54-1.91-2.85-2.19-3.22-1.28-1.59-2.39-3.31-3.32-5.12-1.45-2.86-4.5-8.81-4.84-9.4-.34-.59-3.04-5.25-3.95-6.75-.91-1.5-2.69-4.3-3.62-5.91-.93-1.61-1.63-2.94-1.88-3.3-.19-.29-.92-1.54-1.91-3.06-.99-1.52-3.08-4.69-3.46-5.31-.23-.39-3.69-5-4.78-6.47-1.09-1.47-3.08-4.11-3.45-4.45-.42-.39-2.47-3.04-6.04-6.24-3.57-3.2-6.92-5.46-7.4-5.77-.17-.1-.44-.3-.67-.06-.22.24.4,1.71.36,2.2-.03.47-.49.62-.84.35-.48-.37-1.01-2.63-1.16-3.2-.06-.24-1.46-3.33-4.62-6.01-3.16-2.68-6.78-4.96-7.47-5.3-.54-.27-1.08-.56-1.62-.82-.39-.2-.79-.37-1.19-.53-.36-.13-.53-.15-.67,0-.08.09-.8,1.84-.65,3.9.11,1.42.4,2.82.86,4.17.18.52,1.28,2.98,1.42,3.24.33.62,3.46,4.97,5.08,6.17,1.61,1.2,2.6,1.95,2.97,2.08.52.18.7.63.38.96-.32.33-.79.67-.71.89.11.31.21.64.33.96.12.35.27.68.37,1.04.21.79.89,3.03.96,3.27.15.5.36.99.52,1.49.29.9.45,1.34.83,2.7.39,1.36.97,2.44,1.31,3.16.03.06.05.14.05.21,0,.07,0,.14-.03.21-.21.4-.64.4-.88,0-.34-.59-.66-1.2-.97-1.81-.06-.12-.66-1.82-.87-2.56-.19-.66-.4-1.32-.62-1.98-.32-.93-.99-3.07-1.03-3.19-.1-.34-.19-.69-.31-1.02-.12-.36-.57-1.74-.66-2.08-.1-.37-.31-1.53-.68-1.45-.37.08.19,2.43.31,3.26.07.48.75,3.23.95,3.7.07.17.73,2.78,1.15,3.87.17.42,1.68,4.11,1.8,4.39.19.44.45.86.64,1.31.09.21.13.45.1.68-.03.17-.19.34-.35.44-.18.11-.36.02-.49-.14-.31-.39-1.14-2.11-1.32-2.53-.31-.7-.64-1.38-.95-2.08-.09-.21-.18-.42-.26-.64-.07-.17-.25-.72-.54-.47-.29.25,0,1.08.11,1.42.27.81,1.53,4.6,1.91,5.69.18.51,1.7.86,4.33,1.86,1.84.7,3.65,1.76,4.54,2.46.38.3.65.69.32,1.12-.33.44-1.4-.06-1.58-.19-.66-.49-1.35-1.06-1.81-1.29-.59-.3-.85-.49-3.01-1.15-2.17-.66-3.47-.74-4.11-.94-.43-.12-.8-.4-1.03-.78-.28-.49-.52-1.01-.86-1.47-.29-.39-1.46-2.33-1.7-2.92-.26-.65-1.33-3.44-1.53-4.2-.24-.88-.64-3.22-.69-3.49-.14-.74-.29-1.49-.43-2.23-.02-.1-.03-.67-.26-.61-.23.06-.1.57-.09.74.09,1.24.51,3.78.56,4.3.05.5.59,2.77.8,3.39.31.91.69,1.8,1.04,2.7.21.52,1.5,4.33,1.88,4.78.17.21.18.58.17.88-.01.42-.28.61-.7.56-.33-.04-.62-.18-.76-.47-.21-.44-1.31-2.17-1.59-2.65-.11-.2-1.25-2.32-1.46-2.79-.06-.13-.17-.39-.36-.3q-.19.09-.07.55c.14.53.6,1.54.68,1.9.15.6,1.21,3,1,3.71-.06.19-.18.35-.35.46-.38.18-1.06-.12-1.29-.49-.22-.35-.48-.67-.71-1.02-.4-.6-2.24-3.11-2.62-3.87-.39-.78-.84-1.53-1.3-2.27-.27-.44-.73-1.47-1-1.39-.27.08.25,1.74.42,2.11.22.48,1.29,2.96,1.51,3.6.17.51,1.15,2.66,1.32,3.27.15.55-.24.83-.68,1.06-.28.16-.6.22-.91.18-.31-.04-.61-.18-.83-.41-.42-.42-.84-.84-1.26-1.26-.24-.24-.48-.47-.71-.71-.23-.24-.44-.48-.65-.72-.32-.37-1.7-2.27-2.06-3.1-.36-.83-.62-1.34-.88-2.04-.08-.22-.16-.44-.26-.65-.02-.05-.12-.06-.18-.08,0,.06,0,.11,0,.17.1.57.61,2.56.73,2.9.31.94.66,1.86.96,2.81.31.96.66,1.88,1.29,2.68.4.5.78,1.03,1.16,1.55.23.31.33.66.19,1.05-.14.39-.43.52-.79.33-.15-.08-.71-.74-1.02-1.09-.3-.35-.3-.67-.93-.29-.31.19-.88.52-1.29.82-.7.52-.56.72-.48,1,.02.06.34.52-.1.89-.45.37-.86-.24-.99-.32-.29-.18-.58-.15-.86.04-.62.4-1.23.81-1.88,1.18-.09.05-.2.08-.3.08-.11,0-.21,0-.31-.04-.12-.05-.22-.14-.28-.26-.06-.12-.07-.25-.03-.38.1-.4-.07-.64-.38-.89-.38-.31-.74-.66-1.05-1.04-.52-.6-1.01-1.24-1.46-1.9-.5-.76-.9-1.59-1.36-2.38-.1-.17-.25-.63-.48-.56-.23.07.2.98.28,1.25.19.62.34,1.27.59,1.88.27.65,1,1.35,1.1,2.83.1,1.47.27,4.95.29,5.29.02.4.29.56.69.59.3.03.71-.76.68-1.04-.04-.46-.05-.92-.03-1.38.02-.18.04-.38.31-.39.1-.01.21.01.3.06.09.05.16.13.2.22.03.06-.1.52.31.51.41-.01.47-.75.49-.89.04-.25.09-.49.15-.73.02-.08.06-.15.12-.21.05-.06.12-.11.19-.14.13-.03.36-.02.44.21.04.1.19.71.51.63.32-.07.21-.3.26-.46.08-.25.09-.54.19-.78.13-.3.29-.31.51-.08.1.12.18.25.24.39.08.15.14.3.19.47.06.27.29.29.47.31.07,0,.18-.21.26-.33.22-.34.42-.69.64-1.02.1-.16.25-.17.45-.09.18.07.28.13.28.34,0,.31-.07.99.39,1.15.46.15.61-.71.75-.88.19-.23.36-.19.56.06.26.34.05,1.24.39,1.51.24.19.54-.22,1.1-.31.56-.09.75.36.53.74-.07.13-.47.47-.28.73.19.26.26.04.73-.03.47-.06.46.38.55.62.09.26-.08.52-.38.64-.08.02-.15.07-.2.14-.05.07-.06.16-.05.24.03.3.05.41.39.31.22-.06.46.06.58.31.12.25.17.48-.05.71-.1.09-.18.21-.22.34-.05.21-.19.38,0,.64.36.48.24,1.31.06,1.58-.18.27.03.31-.1,1.99-.14,1.68-.78,3.33-1.62,4.31-.84.97-3.47,3.37-6.92,2.73-3.45-.64-4.48-3.96-4.53-4.16-.02-.08-.15-.15-.24-.17-.04,0-.14.12-.15.2-.15.71-.26,1.43-.42,2.14-.21.94-1.06,4.94-1.86,7.19-.8,2.24-1.95,3.88-3.44,5.34-2.04,2.01-4.87,4.28-5.29,4.87-.47.64-2.66,2.54-3.28,7.79-.63,5.25,3.44,9.43,4.03,10.22.24.31,4.28,4.54,7.92,6.18,1.97.89,5.36,2.45,12.2,3.16,4.73.49,10.62-.04,13.19-.5,5.45-.97,11.59-3.76,12.4-4.22,1.65-.94,5.59-2.72,8.33-5.31,2.75-2.59,6.83-8.04,8.3-11.47,2.48-5.77,2.97-7.38,3.49-12.38.22-2.3.22-4.61-.02-6.91-.31-3.11-1.04-7.53-1.46-9.65-.6-3.11-1.97-7.53-2.16-8.1-.2-.59-.05-1.16.44-1.36.49-.2.75.55.97,1.17.68,1.86,1.81,5.57,2.32,8.42.68,3.8,1.36,7.58,1.48,9.8.12,2.22.32,6.75-.45,10.59-1.03,5.18-2.79,8.23-3.18,9.06-.07.16-2.6,4.63-4.7,7.29-2.1,2.66-3.83,4.67-7.34,6.97-3.51,2.3-5.7,3.27-6.06,3.43-.49.21-1,.39-1.21.99-.2.6-1.96,4.52-2.37,6-.26.93-.51,1.86-.68,2.8-.16.86-1.07,5.89-.99,8.85.08,2.96.27,5.08.68,5.82.22.39.27.39.75.38.51-.01,1.21-.14,2.19-.07.79.06,1.57.19,2.33.38.27.1.57.08.83-.05.37-.16,1.31-.44,2.72-.39,1.35.07,2.69.34,3.96.79,1.62.6,2.66,1.23,3.25,1.64.31.22.76.67,1.65.19.9-.48,1.24-.57,3.26-1.83,2.02-1.26,4.31-3.51,5.12-4.15.61-.49,3.07-2.99,3.72-3.71.51-.57.95-1.2,1.45-1.78,1.02-1.22,1.95-2.51,2.77-3.87.89-1.49,1.97-4.33,2.1-4.63.14-.34.26-.7.43-1.02.13-.25.46-.33.72-.22.36.15.5.34.42.68-.4,1.23-.88,2.44-1.45,3.6-.97,1.95-2,4-5.18,7.6-3.19,3.6-4.9,5.17-7,6.83-1.36,1.07-2.78,2.05-4.27,2.93-.77.52-1.56,1.02-2.45,1.31-.12.04-.25.04-.38.03-.36-.05-1.49-.98-2.21-1.41-.78-.49-1.61-.89-2.48-1.2-.65-.23-1.35-.33-2.04-.42-.34-.05-.68-.07-1.02-.08-.25-.01-1.1-.12-1.22.14-.12.26.64.67.83.77.55.33,1.11.62,1.7.86.25.1,1.46.34,1.43.91-.03.57-1.11.58-1.36.62-1.26.24-2.52.92-4.25,1.92-1.2.69-3.29,2.71-3.12,3.01.17.3,1.93-.51,2.21-.62.82-.34,1.6-.76,2.4-1.13.56-.26,1.13-.51,1.71-.73.89-.33,3.25-.85,3.5-.83.29.03.44.27.52.5.13.38-.14.75-.36.89-.55.34-1.07.7-1.6,1.07-.58.4-3.72,2.64-4.55,3.52-.5.53-2.05,2.47-2.08,3.1-.03.63,1.06,0,1.33-.19.3-.21,3.18-2.28,4.73-3.3,1.56-1.02,4.21-2.03,4.53-1.48.32.56-.29,1.02-.64,1.45-.35.42-.74.85-1.07,1.3-.24.33-2.81,3.19-3.09,3.5-.57.64-1.13,1.3-1.67,1.98-.22.29-.41.61-.57.94-.04.07-.05.15-.03.23.02.08.07.14.14.19.14.08.31.11.47.08.16-.03.31-.11.41-.23.43-.41.85-.84,1.29-1.25.14-.13,2.28-1.91,2.66-2.28.91-.79,1.87-1.54,2.86-2.24.42-.29,1.51-1.21,2.28-.94.77.27.4,1.25.22,1.44-.36.4-.78.75-1.13,1.16-.4.48-3.51,4.33-3.59,4.45-.24.38-.47.76-.68,1.16-.19.39-.52.73-.49,1.2,0,.15.04.34.14.43.08.07.29.07.42.02,1.11-.47,1.71-1.49,2.46-2.34.11-.12,1.23-1.5,2.24-2.51,1.01-1.01,1.9-1.67,2.23-1.85.65-.37.8.31,2.25.45,1.45.14,2.62.12,4.74-.22,9.14-1.46,12.54-2.52,16.36-4.61,4.01-2.19,6.18-4.66,6.47-5.02.34-.42,1.19-1.59,1.35-1.68.27-.16.5-.01.69.17.19.18-.1,1.02-1,2.15-.9,1.12-3.09,3.25-5.32,4.61-2.23,1.36-3.78,2.3-6.78,3.34-2.72.94-7.81,2.03-11.81,2.39-3.1.28-5.78.2-6.37.13-.58-.07-1.47.4-2.45,1.53-.98,1.13-2.42,2.95-3.47,4-1.05,1.05-2.47,1.46-3.27.83-.8-.62-.24-2.04-.02-2.49.39-.78,1.12-2.02,2.5-3.62.46-.52,1.95-2,1.62-2.3-.33-.29-1.35.98-1.76,1.34-.05.04-2.68,2.71-3.83,3.57-1.15.85-2.69,1.11-3.26.32-.57-.79.68-2.62.95-2.96.3-.37.57-.77.91-1.1.62-.62,3.65-4.2,3.93-4.57.08-.13.14-.26.19-.4-.14,0-.28.02-.42.06-.22.08-.43.18-.64.3-.26.15-2.06,1.5-3.75,2.76-1.4,1.04-2.73,2.01-3.08,2.19-.06.03-1.12.64-1.51.45-.46-.23-.67-.5-.62-1.01.02-.25.43-1.89,1.77-3.81,1.34-1.92,3.78-3.79,4.22-4.17.05-.04.05-.14.07-.21-.07,0-.14-.04-.2-.02-.4.14-.79.29-1.18.43-.18.06-1.37.73-1.85.94-.45.19-.89.4-1.33.61-.6.28-1.2.59-1.81.85-.21.07-.44.09-.65.04-.24-.04-.42-.17-.51-.47-.24-.71-.1-1.34.31-1.92.38-.52.8-1.01,1.21-1.51.18-.22,1.96-1.86,4.2-2.98.44-.23.89-.45,1.33-.68.04-.02.08-.05.11-.09.03-.04.06-.08.07-.12,0-.05-.01-.1-.03-.14-.02-.04-.05-.08-.09-.11-.15-.11-.85-.33-2.06-1.1-1.21-.78-2.72-.96-5.01-.91-2.29.06-4.39.98-4.72,1.14-.98.44-1.96.88-2.92,1.36-.55.28-4.48,2.32-4.98,2.76-.53.46-2.69,2.25-3.47,2.33-.18,0-.36.06-.51.16-.15.09-.28.23-.37.38-.34.65-.48,1.35-.64,2.06-.11.5-.75,3.77-.65,7.19.09,2.28.62,4.52,1.55,6.61,1,2.17,2.62,4.17,2.74,4.32.28.35.62.96,2.02.62,1.39-.34,3.65-.9,3.93-.98.62-.17,5.21-.94,6.52-1.03,1.31-.09,2.17.1,2.65.52.35.31,1.64,1.83,2.05,2.19.43.38.87.74,1.28,1.15.56.55,5.23,4.31,9.23,6.48,4.01,2.16,7.61,3.44,8.25,3.72.08.03,2.08.66,3.41.96.74.16,2.13.31,2.06.94-.06.62-.38.52-2.4.16-2.02-.35-3.61-1.07-4.26-1.24-.37-.1-1.86-.69-4.47-1.82s-3.44-1.54-5.56-2.92c-2.12-1.38-6.55-4.63-7.78-5.69-.64-.55-1.19-1.02-1.64-1.43-.42-.38-1.09-1.34-1.67-1.46s-4.24.38-6.18.79c-1.93.41-3.01.63-4.31,1.04-.53.17-.86.94-1.2,1.39-.46.64-1.08,1.13-1.81,1.44-1.38.62-2.25.21-2.37.65-.33,1.19-.72,6.48.17,9.75.64,2.29,1.43,4.54,2.37,6.73.07.15.41.8.68,1.33.12.23.43.94-1.29,1.75-1.73.82-5.41,1.83-5.86,1.96-.32.09-4.05,1.39-4.49,1.6-.34.17-.45.52-.16.71.35.23,1.52.51,3.58.72,2.06.21,10.5.68,11.15.67.17,0,.33-.03.49-.09.5-.24.99-.5,1.48-.78.44-.25,4.24-2.39,6.99-3.06,2.75-.67,5.56-.91,5.98-1,.13-.02.24-.09.32-.19.08-.11.11-.24.09-.36h0c-.04-.46-.01-8.96-.29-9.71-.11-.31-.23-.42-.51-.42h-.88c-.29,0-.57-.11-.67-.38-.12-.28-.06-.6.23-.77.43-.24,5.19-.05,6.19.18.37.09,5.72.7,6.1.76.38.06,7.59,1.15,13.14,1.4,5.55.24,7.32.2,11.09.16,3.76-.04,6.56.02,9.6-.41,3.04-.43,4.77-.8,5.88-1.81.39-.31.86-.43,1.04.21s-.66,1.31-2.14,2.59c-1.48,1.28-3.33,2.57-6.12,4.41-2.79,1.84-8.26,4.54-8.71,4.79-.57.31-7.16,3.08-7.49,3.23-.63.3-2.92,1.2-5.35,1.76-2.42.57-4.44.08-5.52.02-1.08-.06-4.1-1.01-4.71-1.26-.31-.13-3.33-1.22-3.54-1.32-.35-.16-3.11-.94-6.03-1.16-2.92-.22-5.71.27-6.42.42-2.29.54-4.38,1.53-4.95,1.73-.4.14-2.54,1.19-3.68,1.85-.5.29-.74.3-.64.55.1.25,2.06-.29,2.59-.38,1.04-.18,2.13-.37,2.45-.46.15-.04,4.47-.84,7.76-1.1,3.29-.26,4.57.42,4.48,1.01-.1.59-1.11.41-1.35.41-.6,0-4.89-.07-8.26.77-3.37.84-6.61,3.06-6.98,3.34-.04.03-.05.12-.07.18.06.02.13.03.19.04.28-.02,6.58-.99,9.15-1.56,2.19-.48,5.29-1.01,6.44-1.19.21-.03,1.06-.24,1.27.38.21.62-.78.85-.92.9-.67.22-1.34.4-2.03.54-.34.05-2.5.58-7.11,1.74-4.61,1.16-6.45,2.65-6.85,2.72-.05,0-.11.09-.13.15-.01.04.04.14.06.14.35,0,3.68-.39,3.8-.4.87-.1,6.21-.75,10.1-1.59,3.9-.84,6.88-1.8,6.98-1.8.41,0,.75.52.6.91-.09.23-.62.53-1.2.79-.61.27-4.15,1.43-8.16,2.32-2.35.52-9.82,2.29-9.83,2.72,0,.19.56.16,1.22.07.81-.1,4.53-.69,6.71-1.06,2.19-.37,4.99-.82,7.58-1.31,2.59-.49,6.4-2.08,6.71-2.24.43-.23.7-.22.95.1.2.25.16.75-.14.96-.4.28-1.21.79-3.92,1.74-2.7.95-6.4,1.9-7.11,2.06-.34.07-2.48.54-3.23.69-.07.01-.12.1-.19.15.05.06.1.15.16.18.09.04.2.06.3.05,1.36,0,2.73.02,4.09-.03.89-.05,1.79-.15,2.67-.29.52-.07,3.67-.42,6.66-1.81,2.99-1.39,3.34-1.5,4.08-1.89,3.22-1.74,3.77-2.98,5.87-3.91,2.1-.93,6.83-2.5,7.21-2.65.19-.08,3.13-1.21,3.87-1.53.54-.23,3.43-1.69,4.38-2.12,1.19-.54,8.88-4.58,13.01-7.6,4.13-3.02,6.67-5.28,7.08-5.65.5-.44.73-.57,3-3.14,2.27-2.57,3.94-5.11,4.71-6.5.25-.45.43-.77.47-.86.08-.17.57-.98.12-.57-.45.41-.69.66-1.18,1.12-.15.14-.85.85-1.66,1.55-.16.14-.88.69-1.29.28-.41-.41.05-.79.28-.97,1.88-1.45,3.91-3.34,5.36-5.75,3.37-5.59,5.18-10.5,5.6-15.46,1.05-12.19-1.46-21.92-2.11-24.21-.65-2.29-2.82-9.21-3.16-9.97ZM43.94,15.42c-.59.28-.99-.46-1.09-.62-.32-.49-.85-1.25-1.06-1.44-.67-.68-1.38-1.32-2.12-1.92-1.24-1.03-2.67-1.82-3.02-1.98-.16-.07-.72-.55-.84-.16-.12.4.78,1.58,1.13,2.2.17.29,1.56,2.29,2.09,3.03.53.74,2.68,3.17,3.03,3.6.35.43.7.83.42,1.27-.28.44-.69.23-1.27-.23-.58-.46-2.11-2.55-2.55-3.12-.39-.51-1.43-2.06-1.6-2.3-.46-.67-.94-1.33-1.36-2.02-.27-.44-1.05-1.88-1.19-2.14-.18-.32-.64-1.23-.92-1.81-.1-.21-.26-.42-.15-.71.11-.29.34-.39.68-.25.62.26,4.38,2.03,6.32,3.63,1.69,1.39,3.09,3.08,3.49,3.84.07.12.58.85,0,1.14Zm6.15,43.06c.52.86.44,3.26.22,4.32-.22,1.05-.65,2.43-2.09,3.69-1.44,1.26-3.13,2.33-6.27,2.21-3.14-.12-4.15-3.28-4.35-3.67-.17-.31-.42-1.42-.54-1.54-.42-.42-.52-.98-.68-1.51-.05-.12-.05-.26-.01-.38.04-.13.12-.23.22-.31.27-.2.22-.48.13-.75-.09-.25-.21-.49-.31-.73-.15-.31-.1-.53.21-.61.6-.14.7-.61.73-1.09,0-.39-.03-.77-.11-1.15-.06-.34.1-.52.38-.66.09-.05.19-.06.28-.1.5-.23.6-.61.42-1.13-.12-.39-.17-.79-.16-1.2,0-.15.18-.38.33-.45.24-.1.47.03.58.28.04.09.07.19.1.28.15.4.34.44.66.14.29-.28.3-.64.25-.99-.06-.4-.15-.8-.26-1.2-.1-.43.02-.97.46-1.04.44-.07.53.68.7,1.12.18.47.37.91.64.93.4.03.44-.52.47-.9,0-.13,0-1.15.6-1.15s.26,1.12.86,1.11c.61,0,.87-.78,1.04-.87.08-.05.18-.08.27-.09.1,0,.19,0,.28.03.12.06.21.3.21.47.01.19-.09.39-.12.59-.01.08,0,.24.03.25.1.04.21.03.31-.01.24-.17.45-.38.68-.56.12-.12.27-.21.42-.27.5-.15.7.05.55.57-.05.17-.14.34-.19.51-.05.14-.13.29-.12.43.02.15.09.28.21.37.07.05.26,0,.35-.07.25-.18.48-.38.7-.6.24-.25.44-.18.65.02.09.1.15.23.16.36s-.02.27-.09.39c-.11.17-.23.33-.38.48-.21.19-.31.3-.04.57.27.27,1.31-.17,1.6-.14.29.04.46.49.27.73-.17.22-.9.73-.89.8.02.19.14.35.38.32.07-.01.14,0,.21.02.38.14.68.49.3.95-.02.03-.04.05-.07.08-.35.33-.44.72-.19,1.14Zm1.58-7.06c-.06.11-.15.2-.26.26-.11.06-.24.09-.36.08-.35-.01-.69-.12-.99-.31-.66-.4-.97-.78-2.97-2.07-1.27-.79-2.65-1.37-4.11-1.72-.48-.21-.61-.42-.51-.85.07-.29.47-.56.93-.55.49-.09.99.21,1.51.4.74.27,1.42.69,2.13,1.01.26.12,1.67.83,2.07,1.17.33.27.72.47,1.07.71.43.3.84.62,1.26.94.21.16.36.66.22.92Z"/>
  <path class="cls-1" d="m24.75,67.29c.38-.15.75-.51.96-.69.63-.52,1.15-1.17,1.52-1.9.43-.87.73-2.15.79-2.9.09-1.15.02-2.31-.23-3.44-.24-1.03-.45-2.21-1.48-3.06-1.03-.85-2.38-.94-2.92-.99-.74-.06-1.41.12-2.07.47-.44.23-1.72,1.38-1.99,1.65-.56.56-1.26,1.59-1.68,3.18-.42,1.59-.45,2.28-.52,3.63-.07,1.35.86,2.76,1.27,3.27.41.51.68.62,1.16.76.18.05.16-.49.15-.85,0-.33.03-.67.11-.99.26-1.2,1.25-1.99,2.32-1.99,1.07,0,1.63.69,1.83.94.28.33.55,1.06.46,1.78-.09.72-.14,1.31.32,1.13Z"/>
  <path class="cls-1" d="m44.23,53.9c-2.92-.42-4.45,1.73-4.96,2.62-.51.9-1.01,2.15-1.06,4.68-.05,2.53.83,3.89,1.06,4.26.14.24.32.46.54.64.24.19.44.07.48-.23.04-.29-.11-.49.14-1.26.25-.77.86-1.69,2.25-1.46.82.13,1.45.64,1.73,1.48.2.58.21,1.5.12,1.84-.1.34.05.3.25.29.12,0,.23-.04.34-.09.33-.16,2.04-.58,2.89-1.95.85-1.37.99-3.68.82-5.27-.17-1.6-1.67-5.13-4.58-5.55Z"/>
  <path class="cls-3" d="m123.78,120.82c-1.91-6.23-4.31-11.49-6.53-15.45-2.22-3.96-6.79-9.99-9.41-13.33-2.61-3.35-6.74-7.95-9.3-11.76-2.56-3.81-4.59-6.47-6.14-9.32-1.55-2.85-3.46-6.86-3.88-7.6-1.72-3.02-5.67-9.9-5.83-10.18-.37-.64-3.4-5.75-3.62-6.11-.37-.59-5.37-8.92-5.64-9.28-.28-.38-5.07-7.33-10.15-12.74-2.54-2.71-6.34-5.93-9.06-7.88-2.72-1.95-4.36-2.63-4.7-2.84-.69-.42-1.38-1.97-2.16-2.92-1.18-1.41-2.51-2.7-3.96-3.85-3.11-2.47-6.96-5-8.29-5.6-1.33-.6-2.3-1.11-2.7-1.08-.16.01-.34-.02-.48.04-.47.2-.78.52-.85,1.06-.05.38-.67,2.87-.46,4.68.21,1.81.88,3.33.99,3.6.17.44-.77.73-1.06.81-1.23.31-4.4,1.21-6.24,2.03-2.29,1.01-4.08,2.24-4.5,2.57-.37.3-1.18.18-1.52-.07-1.57-1.12-5.31-3.7-5.61-3.88-1.48-.83-6.91-3.98-9.2-3.59-2.29.39-1.77,3.81-1.49,5.04.31,1.38.76,2.71,1.36,3.99,1.27,2.64,2.57,4.06,3.87,5.5,1.3,1.44,3.85,3.66,4.17,4.04.23.28.35.38.13.79-.22.41-1,2.34-1.23,2.96-.46,1.27-.84,2.57-1.14,3.89-.34,1.65-.65,4.92.09,7.62.74,2.71,2.5,4.5,3.1,5.21.53.64,1.04,1.15,1.88,1.3.09.02.62.68.83.89.51.52.55,7.35.54,7.82-.02.69.11,2.67-.14,4.07-.25,1.41-1.77,8.57-1.88,9.15-.24,1.27-.61,2.52-1.1,3.72-.82,1.96-2.21,3.97-3.49,5.1-2.77,2.44-6,4.97-7.45,8.25-.83,1.89-1.31,4.36-1.31,6.81,0,7.83,9.65,14.53,12.94,16.03,2.74,1.25,6.17,2.32,9.49,2.76,3.32.44,7.82.75,11.94.37,7.1-.67,11.41-2.32,12.08-2.54.52-.17,1.07-.32,1.45-.34.16,0,.21.05.13.22-.26.56-.51,1.13-.76,1.7-.41.95-1.35,4.39-1.61,5.61-.14.66-.91,1.07-1.32,1.14-1.41.23-4.4.8-4.79.92-.6.19-5.6,1.06-7.38,1.46-1.78.4-3.05.48-3.73.49-1.42,0-2.84-.07-4.25-.23-2.11-.23-6.25-.91-8.84-1.35-1.34-.23-3.94-.58-4.74-.27-.22.09-.4.26-.49.47-.1.22-.1.46-.01.68.02.06.06.12.09.17.39.55.93.93,1.54,1.2.31.14,2.96,1.12,3.05,1.15.7.28,1.41.54,2.11.83.35.15.6.16,1.06.43.46.27-2.28,1.31-2.9,1.63-.82.43-1.85,1.03-2.49,1.61-.59.53-1.32,1.31-1.49,2.27-.04.22-.08.98.79,1.08,1.04.12,3.03-.46,3.17-.5.67-.22,2.82-1.23,3.08-1.32.07-.02.15-.02.22,0s.14.05.2.1c.06.07,0,.27-.04.41-.61.88-1.1,1.83-1.46,2.84-.62,1.76-.86,3.49-.56,5.25.15.88.24,1.29.35,1.79.17.7.96,1.07,1.68.99,1.08-.11,1.76-1.8,1.94-2.53.02-.09.08-.23.12-.24.09,0,.23.05.26.12.17.44,1.18,2.42,1.31,2.73.22.53,1.42,2.11,1.8,2.36.25.16.16.37-.14.45-.13.05-.26.09-.39.12-.61.1-1.78.92-3.46.59-1.69-.33-4.39-4.33-4.82-4.98-.44-.68-1.53-2.09-3.35-4.43-.99-1.27-2.46-1.68-3.3-.58-.71.94-.87,3.26-.78,3.94.27,2.07.33,2.54.76,4.68.44,2.13.96,4.12,1.94,7.83.98,3.71,2.88,8.3,3.1,8.77.33.7.95,2.04,2.05,4.29s2.16,4.2,3.32,4.48c.58.14,1.53.22,3.49-.15,1.97-.38,4.95-1.21,5.32-1.37.74-.31.78,0,1.56.59.78.59,1.17.75,1.05,2.02-.04.43-.23,4.96.19,7.51.49,2.95,1.67,6.09,2.36,7.62.23.51.73,1.72.27,1.93-.46.21-.89.38-1.34.57-.29.12-.59.23-.88.34-.53.19-1.06.37-1.6.56-.3.1-6.46,2.41-6.8,2.54-.22.08-.43.19-.62.31-.39.25-.65.57-.68,1.01-.03.39-.03.76.27,1.13.32.4.64.73,1.11.9.06.02,1.1.36,2.9.55,2.54.26,6.13.38,6.51.4.46.02,2.33.13,2.81.2.16.04.32.12.45.22.04.03.08.16.06.18-.17.15-1.26.69-1.66.78-.26.06-.41.49-.34.73.09.31.39.6.62.56.3-.05,2.06-.47,3.38-.8s3.08-.69,3.58-.62c.07,0,.13.02.2.03-.06.06-.13.11-.2.15-.5.2-2.29,1.09-2.7,1.33-1.04.61-5.52,2.76-5.84,2.94-.09.07-.16.16-.19.27-.08.26.15.83.41.96.18.09.41.23.56.18.62-.21,1.26-.33,1.89-.49,1.1-.27,2.19-.62,3.28-.94.23-.06,1.49-.55,1.77-.18.28.37-.71.66-1.1.87-1.07.56-2.26.85-3.37,1.34-.52.23-1.27.51-1.14,1.19.13.69.48.72,1.98.58,1.5-.14,4.53-.43,5.62-.53.11-.01.22,0,.33,0-.09.07-.19.14-.29.19-.11.04-2.21.66-2.61.83-.36.16-.64.35-.7.73-.06.35-.12.73.32.95.13.06.43.71,3.39.83,2.96.13,3.87,0,4.01.61.14.61.54.83,1.16.77.51-.05,9.98.01,13.89-1.08,3.91-1.09,6.27-2.35,8.09-3.32,1.51-.81,3.25-2.3,4.17-3.1.19-.16.34-.29.45-.38.11-.09.43-.21.81-.34.32-.1,7.89-3.13,7.96-3.15.58-.18,5.5-2.36,6.11-2.66.6-.3,1.22-.56,1.81-.86.32-.17,4.88-2.69,5.47-2.96.66-.3,4.4-2.64,4.67-2.82.57-.4,1.15-.77,1.73-1.16.24-.16.36-.12.44.18.04.16.06.33.1.49.07.26.31,5.47.31,6.08,0,.39.18,2.28.33,2.36.27.13,3.67.39,4.31.29.29-.04.94.05,1.14-.24.24-.33.32-3.06.32-3.07.01-.38.29-3.64.35-4.17.07-.66.23-3.49.35-5.67.07-1.34.13-2.42.15-2.6.03-.13.1-.25.21-.33.42-.39.84-.76,1.25-1.16,1.53-1.58,2.94-3.26,4.24-5.04,1.22-1.72,2.32-3.52,3.29-5.39.19-.43,1.42-3.18,1.5-3.6.07-.4.26-.69.5-1,.51-.65,4.31-7.55,5.08-14.06.72-6.07-.02-14.19-.34-17.23-.32-3.05-.9-6.19-2.81-12.42ZM10.83,24.24c-.54-.64-1.98-2-3.93-4.5-1.95-2.5-2.35-3.69-2.69-4.33-.04-.08-1.23-2.73-1.14-3.71.01-.5-.02-.9.28-1.29.23-.31.57-.53.95-.62.22-.05,1.38.16,2.16.47,1.59.62,4,1.64,4.76,2.11,1.12.71,5.51,3.45,5.66,3.55.35.24.7.48,1.03.73.47.36.47.7.09,1.16-.34.42-1.65,1.94-2.75,3.52-.86,1.28-1.65,2.6-2.37,3.96-.13.29-.4.26-.69.09-.51-.32-.97-.71-1.38-1.14Zm3.22,13.2c-.16-2.01-.2-3.02.09-4.18.1-.4.7-3.12,1.01-3.96.12-.32.48-1.42.13-1.68s-.8-.11-1.05.54c-.25.65-1.52,2.88-1.83,7.94-.3,5.06.83,7.46,1.07,8.65.1.54.53,1.65.31,1.81-.22.16-.63-.5-1.99-2.48-1.36-1.99-1.59-5.87-1.45-7.89.15-2.02,1-5.04,1.31-5.76.32-.76,1.52-3.41,1.84-3.94.38-.62.75-1.24,1.09-1.88.45-.84.97-1.64,1.49-2.45.26-.39,2-2.79,4.54-5.14,2.54-2.35,5.28-3.05,6.24-3.43.96-.38,4.44-1.34,4.57-1.41.39-.2.89.06,1.05.49.29.79.77,1.59,1.49,2.86.72,1.27,3.25,4.18,3.76,4.74.1.1.1.31.12.48.02.34.28,3.3.31,3.67.07.59.12,1.18.21,1.77.22,1.73.53,3.45.94,5.15.55,2.32,1.9,7.74,2.34,9.49.08.33.31.76.05.87-.1.04-.35-.25-.66-.72-.67-1.04-1.22-2.14-1.67-3.29-.72-1.91-1.67-3.96-1.77-4.25-.17-.48-.34-.95-.46-1.44-.17-.7-.31-1.41-.44-2.13-.08-.42-.13-.83-.18-1.26-.08-.61-.13-1.22-.22-1.82-.08-.53-.31-2.76-.5-3.33-.08-.23-.3-1.73-1.16-1.66-.57.05-.45,1.43-.35,2.52.05.54.23,5.42.28,5.86.09.79.18,1.58.29,2.36.06.43.16.86.24,1.29.02.12.19,1.12.48,2.22.23.9.61,1.95.51,1.98-.23.07-1.09-1.83-1.21-2.17-.3-.84-.64-1.67-.9-2.53-.08-.27-.62-2.33-.75-3.09-.08-.51-.23-3.34-.24-4.39-.01-1.05-.33-2.14-.87-2.45-.54-.31-.87.07-1.07.83-.2.76-.03,2.04.06,3.65.09,1.6.67,5.09.8,5.66.22.98,1.03,4.2,1.46,5.53.22.68,1.46,3.3,1.24,3.43-.22.13-.59-.49-.76-.75-.47-.71-.94-1.42-1.37-2.16-.44-.77-.82-1.57-1.25-2.35-.21-.37-1.33-2.64-1.64-3.42-.3-.75-.77-2.94-.84-3.26-.14-.61-.69-3.5-.75-4.2-.06-.65-.17-1.29-.33-1.92-.03-.1-.08-.2-.14-.28-.07-.08-.15-.15-.24-.2-.25-.08-.51.09-.62.32-.05.1-.13.59-.05,1.74.13,1.83.6,6.86.89,8.44.12.66.26,2.06.94,4.18.5,1.57,1.56,4.11,2.2,5.51.23.49.67,1,.43,1.15-.24.15-1-.64-1.36-1.01-1.35-1.17-2.47-2.59-3.3-4.17-1.33-2.56-1.98-4.65-2.2-5.53-.11-.44-.23-.88-.32-1.33-.07-.31-.12-.62-.17-.94-.08-.51-.18-1.01-.24-1.52-.06-.51-.08-1.03-.14-1.55-.04-.37-.08-.99-.41-.99s-.46.55-.49.88c-.07.67-.12,1.64-.1,3.16.03,2.26,1.16,7.52,1.35,8.47.11.56.31,1.1.46,1.66.1.36.17.72.27,1.07.05.19-.02.18-.13.09-.11-.09-.62-1.02-1.13-1.92-.5-.91-1.23-3.14-1.47-4.43-.24-1.3-.61-2.28-.43-5.04.18-2.76.65-5.02.73-5.54.02-.2,0-.4-.07-.58-.03-.11-.1-.2-.2-.26-.1-.06-.21-.08-.32-.05-.12,0-.24.06-.32.14s-.15.19-.16.32c-.1.75-.54,2.43-.67,3.75-.12,1.32-.24,2.38-.31,3.41-.04.62.38,7.45.57,8.52.06.32.19,1.15.31,1.76.06.3.48,1.57.21,1.65-.28.08-.86-1.35-.94-1.51-.25-.49-.49-.99-.73-1.49-.15-.3-.28-.62-.39-.94-.95-2.83-1.46-4.81-1.37-6.88.09-2.07.65-5.13.82-5.95.09-.45.42-1.58-.26-1.65-.68-.06-.85,2.13-1.01,2.64-.06.21-.87,4.18-1.01,6.88-.15,2.7.05,4.67.24,5.7.14.79.83,3.08.87,3.44,0,.06-.02.11-.05.17-.03.05-.07.09-.12.13-.05.03-.22-.04-.28-.11-.61-.86-1.11-1.78-1.5-2.76-.64-1.79-1.06-3.65-1.24-5.54Zm10.97,9.48c.1.16.21.21-.1.42-.22.15-.45.31-.94.65-.49.34-.7.02-.82-.2-.35-.64-.53-1.33-.68-2.04-.12-.58-.67-3.17-.73-3.36-.1-.31-.24-.94-.03-.98.21-.05.27.15.31.24.13.29.27.58.38.88.34.93.9,1.73,1.43,2.55.41.6.79,1.23,1.18,1.85h0Zm-3.61,2.6c-.24.29-.53.48-.91.48-.08-.02-.15-.06-.21-.12-.35-.35-.65-.76-.87-1.21-.39-.75-1.23-3.53-1.43-4.12-.27-.89-.5-1.8-.67-2.72-.14-.88-.07-1.27.08-1.3.3-.06.49.55.56.82.26,1.14,2.19,5.17,2.3,5.41.28.56.54,1.12.81,1.68.06.16.14.31.22.46.12.2.32.37.11.62h0Zm1.74,90.56c-.58-1.04-2.17-3.69-.27-7.67.69-1.45,1.55-2.21,1.59-2.41,0-.09-.01-.17-.05-.25-.04-.08-.09-.15-.15-.2-.08-.04-.16-.07-.25-.07-.09,0-.17.01-.26.04-.43.27-1.18.94-1.88,2.21-.97,1.76-2.05,4.94-2.08,5.18-.03.19-.07.39-.1.58-.07.36-.43,1.85-.63,2.16-.33.5-.86.42-1.04-.15-.16-.47-.21-.98-.33-1.63,0-.31-.03-.76,0-1.22.04-.51.12-1.01.23-1.5.17-.72.36-1.44.59-2.14.15-.4.35-.77.59-1.12.38-.58.77-1.15,1.19-1.7.31-.4,1.35-1.31,1.54-1.39.24-.14.46-.32.65-.52.21-.28.21-.6,0-.83-.22-.24-3.14.96-3.33,1.02-.35.11-1.96.67-2.08.73-.72.35-1.47.66-2.22.94-.06.02-1.82.84-2.12.28-.3-.56.81-1.11,1.41-1.55.64-.48,1.33-.88,2.07-1.18.57-.24,3.48-1.4,4.42-1.67.15-.04.3-.06.44-.11.34-.13.42-.47.17-.72-.16-.15-.33-.29-.52-.4-.28-.18-2.4-.95-3.07-1.18-.39-.14-1.88-.77-2.25-.9-.6-.22-1.2-.47-1.8-.7-.21-.08-.34-.21-.25-.42.04-.08.26-.13.39-.1.71.13,1.41.28,2.11.45.55.14,3.85.73,4.02.77.45.09,4.06.68,4.55.73.41.05.81.08,1.22.1.7.04,1.4.08,2.1.11.29,0,3.27-.2,3.77-.31.19-.04,5.93-1.25,6.35-1.33.31-.06,5.88-1.26,6.31-1.36.18-.04.35-.11.52-.14.2-.04.4-.06.61-.05.07,0,.15.12.21.19.02.02.01.07,0,.1-.03.28-.4,1.74-.55,3.85-.14,2.05-.07,4.76-.06,4.84.06.64.14,1.27.19,1.91.04.5.06,1.01.06,1.51,0,.29-.31.61-.57.6-.19,0-.99-.09-2.95-.27-1.88-.17-3.62-.14-4.64,1.21-1.03,1.35-1.34,1.87-1.62,2.58-.05.14-1.61,2.52-2.07,3.11-.2.25-.44.47-.65.71-.18.22-.33.34-.67.25-.37-.1-.31-.34-.29-.56.03-.24.82-3.49.83-5.33,0-1.85-2.31-3.3-3.38-3.56-1.06-.26-1.29.29-3.24,1.76-1.96,1.47-.92,4.51-.78,5.06.24.93.53,1.84.79,2.77.04.13.04.27,0,.4-.09.29-.21.57-.31.85-.09.24-.24.31-.48.19-1.03-.52-1.4-1.51-1.98-2.55h0Zm20.67-5.31c-.04.05-.1.1-.15.13-.28.12-.55.24-.83.35-.51.2-3,1.54-3.57,1.81-.2.09-.39.18-.59.28-.43.21-2.58,1.37-2.99,1.55-.1.05.04-.27.48-1.11.45-.84,1.3-2.85,3.32-3.24,2.02-.4,3.89.12,4.15.16.06.01.12.04.18.06h0Zm-12.81,4.18c-.08.59-.39,1.07-.93,1.19-.04,0-.66-.16-1.28-.07-.59.08-1.18.42-1.26.45-.31.13-.57,0-.64-.32-.1-.46-.98-2.81-.98-3.9s.06-1.28.58-1.71c.55-.46.83-.86,1.68-1.42.84-.56.94-.39,1.39-.11s.81.36,1.55,1.17c.73.81.02,3.96-.09,4.72h0Zm-4.52,27.33c-.89.25-1.56.34-2.47.52-.38.07-1.45.26-3,.48-1.55.22-2.41-1.39-2.91-2.13-.6-.89-2.58-4.58-2.71-4.97-.24-.69-1.46-3.61-2.47-6.5-1.02-2.89-1.29-3.39-2.18-7.4-.55-2.45-1.32-5.56-1.43-7.68-.07-1.33.36-2.28.51-2.42.28-.27.66-.26.91.04.82.89,1.59,1.83,2.31,2.81.98,1.32,2.26,3.41,3.3,4.66,1.15,1.37,2.49,2.56,2.81,2.66.78.27,2.14.08,3.01-.08.87-.16,1.38-.32,1.55.05.23.51.09,1.63-.08,2.83-.37,2.58-.06,5.84.43,8.75.51,3.02,2.59,6.97,2.85,7.51.16.36-.25.8-.42.85h0Zm.17-5.03c-.17-.35-.99-3.12-1.01-3.27-.04-.23-.43-2.82-.51-5.05-.08-2.23.15-4.1.31-5.45.33-2.69,1.1-4.62,1.96-5.38.59-.52,1.33-.8,2.11-.65.34.07.65.4.94.64.15.13.13.32.02.51-.21.32-.4.66-.57,1.02-.23.56-.48,1.12-.57,1.71-.1.67-.94,4.94-.5,8.82.55,4.91,2.55,7.86,3.63,9.29.49.64,1.03,1.25,1.62,1.81.17.17.3.89-.18,1.22-.69.47-1.81.91-2.89.55-2.52-.85-3.96-4.9-4.38-5.77h0Zm98.92-11.56c-.43,4.95-2.24,9.87-5.6,15.45-1.45,2.4-3.48,4.3-5.36,5.75-.24.18-.69.56-.28.97.41.41,1.13-.14,1.29-.28.81-.7,1.51-1.41,1.66-1.55.49-.46.73-.71,1.18-1.12.45-.41-.04.4-.12.57-.04.09-.22.42-.47.86-.77,1.39-2.43,3.93-4.71,6.5-2.28,2.57-2.5,2.7-3,3.14-.42.37-2.95,2.62-7.08,5.65-4.13,3.02-11.82,7.07-13.01,7.6-.94.43-3.83,1.89-4.38,2.12-.73.31-3.68,1.45-3.87,1.53-.37.15-5.11,1.71-7.21,2.65-2.09.93-2.65,2.17-5.87,3.91-.73.4-1.09.51-4.07,1.89-2.99,1.39-6.13,1.73-6.66,1.81-.88.14-1.77.24-2.67.29-1.36.05-2.72.03-4.09.04-.1,0-.21-.01-.3-.05-.07-.03-.1-.12-.16-.18.06-.05.12-.13.19-.15.74-.15,2.89-.62,3.23-.69.71-.15,4.41-1.1,7.11-2.06,2.7-.95,3.51-1.46,3.92-1.74.31-.21.34-.71.14-.96-.25-.32-.52-.32-.95-.1-.31.16-4.11,1.75-6.71,2.24-2.59.49-5.39.94-7.58,1.31-2.19.37-5.9.96-6.71,1.06-.66.08-1.23.12-1.22-.07.01-.43,7.48-2.2,9.83-2.72,4.01-.89,7.55-2.06,8.16-2.33.58-.25,1.11-.56,1.2-.79.15-.39-.19-.91-.6-.91-.1,0-3.08.96-6.98,1.8-3.9.84-9.24,1.49-10.11,1.59-.12.01-3.45.4-3.8.4-.02,0-.08-.1-.06-.14.02-.06.08-.14.13-.15.39-.07,2.24-1.56,6.84-2.72,4.61-1.16,6.77-1.69,7.11-1.74.69-.14,1.36-.32,2.03-.54.14-.05,1.13-.28.92-.9-.21-.62-1.07-.42-1.27-.38-1.15.18-4.25.71-6.44,1.19-2.57.57-8.87,1.54-9.15,1.56-.07,0-.13-.02-.19-.04.02-.06.03-.14.07-.18.37-.28,3.61-2.5,6.98-3.34,3.37-.84,7.65-.77,8.26-.77.25,0,1.26.18,1.35-.41.09-.59-1.19-1.26-4.48-1.01-3.29.25-7.61,1.05-7.76,1.1-.32.09-1.4.28-2.45.46-.54.09-2.49.64-2.59.38-.1-.26.14-.26.64-.55,1.15-.66,3.28-1.71,3.68-1.85.57-.21,2.65-1.19,4.95-1.73.71-.15,3.5-.65,6.42-.42,2.92.22,5.68,1,6.03,1.16.21.1,3.24,1.19,3.54,1.32.61.25,3.62,1.2,4.71,1.26,1.09.06,3.1.55,5.52-.02,2.42-.57,4.71-1.46,5.34-1.76.32-.15,6.91-2.92,7.49-3.23.46-.25,5.94-2.96,8.71-4.79,2.78-1.83,4.64-3.12,6.12-4.41,1.48-1.28,2.32-1.96,2.14-2.59-.18-.64-.65-.53-1.04-.21-1.11,1.01-2.84,1.38-5.88,1.81-3.04.43-5.84.37-9.6.41-3.76.04-5.54.08-11.09-.16-5.55-.24-12.76-1.34-13.14-1.4-.38-.06-5.73-.67-6.1-.75-.99-.23-5.75-.42-6.18-.18-.3.16-.35.48-.24.77.11.27.38.38.67.38h.88c.29,0,.4.1.51.42.28.76.25,9.25.29,9.7.01.06,0,.13,0,.19-.01.06-.04.12-.08.17-.04.05-.08.1-.14.13-.05.03-.11.06-.18.07h0c-.42.09-3.23.33-5.98,1s-6.55,2.81-6.99,3.06c-.48.28-.98.53-1.48.78-.15.06-.32.1-.49.09-.64.01-9.09-.47-11.15-.68-2.06-.21-3.23-.48-3.58-.71-.29-.2-.19-.55.16-.71.44-.21,4.17-1.51,4.49-1.6.45-.12,4.13-1.15,5.86-1.96,1.73-.81,1.41-1.52,1.29-1.75-.27-.52-.6-1.18-.68-1.33-.94-2.19-1.73-4.44-2.37-6.73-.89-3.26-.5-8.55-.17-9.75.12-.43.99-.03,2.37-.64.72-.3,1.35-.79,1.81-1.43.34-.45.67-1.22,1.2-1.39,1.29-.41,2.37-.63,4.31-1.04,1.94-.41,5.6-.91,6.18-.79.58.12,1.25,1.08,1.67,1.46.45.41,1.01.87,1.65,1.43,1.23,1.07,5.66,4.31,7.78,5.69,2.12,1.38,2.94,1.79,5.56,2.92,2.62,1.12,4.1,1.73,4.47,1.82.66.17,2.24.89,4.26,1.24,2.02.35,2.34.47,2.4-.17.06-.63-1.33-.78-2.07-.94-1.32-.29-3.33-.92-3.41-.96-.64-.28-4.25-1.56-8.25-3.72-4-2.16-8.67-5.93-9.23-6.48-.42-.4-.85-.77-1.28-1.15-.4-.36-1.69-1.88-2.05-2.19-.47-.42-1.34-.62-2.65-.52-1.31.1-5.9.86-6.52,1.03-.28.07-2.53.63-3.93.97-1.4.34-1.74-.26-2.02-.62-.12-.16-1.74-2.16-2.74-4.32-.93-2.09-1.46-4.33-1.55-6.61-.1-3.43.54-6.7.65-7.19.16-.7.3-1.41.64-2.06.09-.16.22-.29.37-.38s.33-.15.51-.16c.78-.07,2.94-1.86,3.47-2.33.5-.44,4.43-2.49,4.98-2.76.96-.48,1.94-.92,2.92-1.37.33-.15,2.43-1.08,4.72-1.13,2.29-.05,3.8.13,5.01.91,1.21.78,1.9,1,2.06,1.1.04.03.07.07.09.11.02.04.03.09.03.14-.02.05-.04.09-.07.12-.03.04-.07.07-.11.09-.44.23-.89.45-1.33.68-2.24,1.12-4.02,2.76-4.2,2.98-.42.49-.83.99-1.21,1.51-.42.58-.56,1.2-.31,1.92.1.29.27.43.51.47.22.05.44.03.65-.04.62-.26,1.21-.57,1.82-.85.44-.21.88-.42,1.33-.61.47-.21,1.67-.87,1.85-.94.4-.14.79-.29,1.18-.43.06-.02.13.01.2.02-.02.07-.02.17-.07.21-.45.37-2.88,2.25-4.23,4.17-1.34,1.92-1.75,3.55-1.77,3.8-.05.51.16.78.62,1.01.39.19,1.44-.42,1.51-.45.35-.19,1.68-1.16,3.08-2.19,1.7-1.26,3.5-2.61,3.75-2.76.2-.12.42-.22.64-.3.14-.04.28-.06.42-.06-.05.14-.12.27-.2.4-.29.38-3.31,3.96-3.93,4.58-.33.33-.61.73-.91,1.1-.27.34-1.52,2.17-.95,2.96.57.79,2.11.53,3.26-.32,1.15-.85,3.78-3.52,3.83-3.57.4-.35,1.43-1.63,1.76-1.34.33.3-1.16,1.77-1.62,2.3-1.38,1.6-2.11,2.83-2.5,3.62-.22.44-.78,1.86.02,2.49s2.22.23,3.27-.83c1.05-1.06,2.49-2.87,3.47-4,.98-1.13,1.86-1.59,2.45-1.53.58.07,3.26.14,6.36-.13,4.01-.36,9.09-1.44,11.81-2.39,3-1.04,4.55-1.98,6.78-3.34s4.42-3.49,5.32-4.62c.9-1.12,1.18-1.98,1-2.15-.18-.17-.42-.33-.69-.17-.16.09-1.01,1.26-1.35,1.68-.3.37-2.46,2.83-6.47,5.02-3.81,2.08-7.21,3.15-16.35,4.61-2.12.34-3.29.36-4.74.22-1.45-.14-1.6-.82-2.25-.45-.33.18-1.22.83-2.23,1.85-1.01,1.02-2.13,2.39-2.24,2.51-.75.85-1.35,1.88-2.46,2.33-.12.05-.34.06-.42-.02-.1-.09-.13-.28-.14-.43-.02-.47.31-.81.5-1.2.21-.4.43-.79.68-1.16.07-.12,3.18-3.97,3.59-4.45.35-.42.77-.76,1.13-1.16.17-.19.54-1.17-.22-1.44s-1.85.64-2.28.94c-1.29.9-2.72,2.1-2.86,2.24-.37.37-2.52,2.15-2.66,2.28-.44.4-.85.83-1.29,1.25-.11.12-.25.2-.42.23-.16.03-.32,0-.47-.08-.07-.04-.12-.11-.14-.19-.02-.08-.01-.16.03-.23.16-.33.35-.64.57-.94.54-.67,1.09-1.33,1.67-1.98.28-.31,2.85-3.17,3.09-3.5.33-.45.71-.87,1.07-1.3.36-.43.96-.89.64-1.45-.32-.56-2.98.45-4.53,1.48s-4.43,3.09-4.73,3.3c-.27.19-1.36.82-1.33.19.03-.63,1.59-2.57,2.08-3.1.83-.88,3.97-3.12,4.55-3.52.53-.37,1.05-.73,1.6-1.07.23-.14.49-.51.36-.89-.08-.23-.24-.47-.52-.5-.25-.03-2.61.49-3.5.83-.58.22-1.15.47-1.71.73-.8.37-1.58.79-2.4,1.13-.28.12-2.05.92-2.21.62-.16-.3,1.93-2.32,3.12-3.01,1.73-1,2.99-1.68,4.25-1.92.26-.05,1.34-.06,1.36-.62.03-.56-1.19-.81-1.43-.91-.58-.25-1.15-.54-1.7-.86-.18-.1-.95-.51-.83-.77.12-.26.97-.15,1.22-.15.34.01.68.04,1.02.08.69.1,1.39.19,2.04.42.87.31,1.7.71,2.48,1.2.72.44,1.85,1.37,2.21,1.42.13.02.26,0,.38-.03.89-.3,1.67-.79,2.45-1.31,1.49-.88,2.92-1.86,4.27-2.93,2.1-1.67,3.81-3.24,7-6.83,3.18-3.6,4.21-5.65,5.18-7.6.57-1.17,1.05-2.37,1.45-3.6.09-.34-.05-.53-.42-.68-.26-.11-.59-.03-.71.22-.17.33-.29.68-.43,1.02-.12.3-1.2,3.14-2.1,4.63-.82,1.36-1.75,2.65-2.77,3.87-.5.58-.94,1.21-1.45,1.78-.65.72-3.11,3.23-3.72,3.71-.8.64-3.1,2.89-5.12,4.15-2.02,1.26-2.36,1.35-3.26,1.83-.9.48-1.34.03-1.65-.19-.59-.41-1.63-1.04-3.25-1.64-1.28-.45-2.61-.72-3.96-.79-1.41-.05-2.35.23-2.72.39-.26.12-.56.14-.83.05-.77-.2-1.55-.32-2.33-.38-.98-.06-1.68.06-2.19.07-.48.01-.52.01-.75-.38-.42-.74-.6-2.86-.68-5.82-.08-2.97.83-8,.99-8.85.18-.94.43-1.88.68-2.8.41-1.48,2.17-5.42,2.37-6,.2-.59.72-.78,1.21-.99.35-.15,2.54-1.13,6.06-3.42,3.51-2.3,5.24-4.32,7.34-6.97,2.11-2.65,4.63-7.13,4.71-7.29.39-.83,2.15-3.89,3.18-9.06.76-3.84.56-8.37.45-10.59-.12-2.22-.8-6-1.48-9.8-.51-2.85-1.64-6.56-2.32-8.42-.23-.62-.49-1.37-.97-1.17-.49.2-.64.77-.44,1.36.19.57,1.56,4.99,2.16,8.1.42,2.12,1.15,6.54,1.46,9.65.24,2.3.24,4.61.02,6.91-.51,5-1.01,6.61-3.49,12.38-1.47,3.43-5.56,8.88-8.3,11.47-2.74,2.59-6.68,4.37-8.33,5.31-.81.46-6.96,3.25-12.4,4.22-2.58.46-8.46.99-13.19.5-6.84-.71-10.23-2.27-12.2-3.16-3.63-1.64-7.68-5.87-7.92-6.18-.6-.79-4.66-4.97-4.03-10.22.63-5.25,2.81-7.15,3.28-7.79.42-.58,3.25-2.85,5.29-4.87,1.48-1.46,2.63-3.1,3.44-5.34.8-2.24,1.65-6.25,1.86-7.19.16-.71.28-1.43.42-2.14.02-.08.12-.21.15-.2.09.02.22.09.24.17.06.19,1.08,3.51,4.53,4.16,3.45.64,6.09-1.77,6.92-2.74.84-.97,1.49-2.62,1.62-4.31.13-1.68-.08-1.72.1-1.99.18-.27.3-1.1-.06-1.58-.2-.26-.06-.44,0-.64.05-.13.12-.24.22-.34.21-.23.17-.45.05-.71-.12-.25-.36-.38-.58-.31-.34.1-.36-.01-.39-.31-.01-.08,0-.17.05-.24.05-.07.12-.12.2-.14.3-.11.47-.37.38-.64-.09-.24-.08-.68-.55-.62-.47.06-.54.29-.73.03s.21-.6.28-.73c.22-.38.02-.83-.53-.74-.56.09-.86.51-1.1.31-.34-.27-.12-1.17-.39-1.51-.2-.25-.37-.29-.56-.06-.14.17-.29,1.02-.75.88-.46-.15-.38-.83-.39-1.15,0-.21-.1-.27-.28-.34-.2-.08-.34-.07-.45.09-.22.33-.43.68-.64,1.02-.08.12-.19.33-.26.32-.18-.02-.42-.05-.47-.31-.04-.16-.11-.32-.19-.47-.06-.14-.14-.27-.24-.39-.22-.23-.38-.22-.51.08-.1.24-.1.52-.19.78-.05.16.06.39-.26.46-.32.07-.48-.52-.51-.63-.08-.23-.3-.24-.44-.21-.08.03-.14.08-.2.14-.05.06-.09.13-.12.21-.06.24-.11.48-.15.73-.02.14-.09.88-.49.89-.41.01-.28-.45-.31-.51-.04-.09-.11-.17-.2-.22-.09-.05-.19-.07-.3-.06-.27.01-.29.22-.31.39-.02.46,0,.92.03,1.38.03.28-.38,1.06-.68,1.04-.4-.03-.67-.19-.69-.59-.02-.34-.18-3.82-.29-5.29-.1-1.47-.83-2.18-1.1-2.83-.25-.61-.4-1.25-.59-1.88-.08-.27-.51-1.18-.28-1.25.23-.07.39.4.49.57.46.79.87,1.61,1.36,2.38.45.66.94,1.3,1.46,1.9.32.38.67.73,1.05,1.04.31.25.48.49.38.89-.04.13-.02.26.03.38.06.12.16.21.28.26.1.04.21.05.31.04.11,0,.21-.04.3-.08.64-.37,1.25-.78,1.88-1.18.28-.18.57-.22.86-.04.13.08.54.7.99.32.45-.38.13-.83.1-.89-.08-.28-.22-.48.48-1,.42-.31.98-.63,1.29-.83.63-.39.62-.06.93.29.3.35.87,1.01,1.02,1.09.36.19.65.05.79-.33.13-.38.04-.73-.19-1.05-.38-.52-.76-1.04-1.16-1.55-.64-.8-.99-1.72-1.29-2.68-.3-.94-.65-1.87-.96-2.81-.11-.33-.62-2.33-.73-2.9,0-.06,0-.11,0-.17.06.03.16.04.18.08.1.21.19.43.26.65.25.7.52,1.21.88,2.04.36.83,1.74,2.73,2.06,3.1.21.24.42.49.65.72.22.23.47.48.71.71.42.42.83.84,1.26,1.26.23.22.52.37.83.41.31.04.63-.02.91-.18.44-.24.82-.51.68-1.06-.16-.61-1.15-2.76-1.32-3.27-.22-.65-1.3-3.12-1.51-3.6-.17-.37-.7-2.03-.42-2.11.28-.08.73.95,1,1.39.46.74.91,1.49,1.3,2.27.38.76,2.22,3.27,2.62,3.87.23.34.49.67.71,1.02.24.37.91.68,1.29.49.17-.1.3-.27.35-.46.21-.71-.86-3.11-1-3.71-.09-.36-.55-1.37-.69-1.9q-.12-.46.07-.55c.19-.09.31.18.36.3.21.47,1.35,2.59,1.46,2.79.28.48,1.38,2.21,1.59,2.65.14.29.43.44.76.47.42.05.69-.15.7-.56,0-.3,0-.68-.17-.88-.37-.45-1.67-4.26-1.88-4.78-.35-.9-.74-1.78-1.04-2.7-.21-.62-.75-2.89-.8-3.39-.05-.52-.47-3.06-.56-4.3-.01-.18-.14-.69.09-.74.23-.06.24.51.26.61.14.74.29,1.49.43,2.23.05.27.45,2.6.69,3.49.21.76,1.27,3.55,1.53,4.2.24.59,1.41,2.53,1.7,2.92.34.46.58.98.86,1.47.23.38.6.66,1.03.78.64.2,1.95.28,4.11.94,2.17.65,2.42.85,3.01,1.15.47.24,1.15.8,1.81,1.29.18.13,1.25.62,1.58.19.33-.43.06-.83-.32-1.12-.9-.7-2.7-1.76-4.54-2.46-2.62-1-4.15-1.35-4.33-1.86-.38-1.09-1.64-4.88-1.91-5.69-.11-.35-.4-1.18-.11-1.42.29-.25.47.31.54.47.09.21.17.43.27.64.31.7.64,1.38.95,2.08.18.42,1.01,2.14,1.32,2.53.13.17.32.26.49.14.17-.1.29-.26.35-.44.03-.23,0-.46-.09-.67-.19-.45-.44-.86-.64-1.31-.13-.29-1.64-3.98-1.8-4.39-.43-1.09-1.08-3.7-1.15-3.87-.2-.47-.88-3.23-.95-3.7-.12-.83-.68-3.18-.31-3.26.37-.08.58,1.08.68,1.45.1.34.54,1.73.67,2.08.12.34.21.68.31,1.02.04.13.71,2.26,1.03,3.19.23.65.44,1.31.62,1.98.21.74.81,2.43.87,2.56.31.61.63,1.21.97,1.81.24.41.67.41.88,0,.03-.07.04-.14.04-.21,0-.07-.02-.14-.05-.21-.34-.72-.92-1.8-1.31-3.16-.39-1.36-.55-1.8-.83-2.7-.16-.5-.37-.99-.52-1.49-.07-.24-.76-2.48-.96-3.27-.09-.35-.25-.69-.37-1.04-.11-.32-.21-.64-.33-.96-.08-.22.4-.57.72-.89.32-.33.14-.78-.39-.96-.37-.12-1.35-.87-2.97-2.08-1.62-1.2-4.75-5.55-5.08-6.17-.14-.26-1.23-2.72-1.42-3.24-.45-1.34-.74-2.74-.85-4.16-.15-2.06.57-3.81.65-3.9.13-.14.31-.12.67,0,.4.16.79.34,1.17.54.55.27,1.08.56,1.62.82.69.34,4.31,2.62,7.47,5.3,3.16,2.68,4.56,5.78,4.62,6.01.15.58.68,2.83,1.16,3.2.35.28.81.12.84-.35.03-.49-.59-1.96-.36-2.2.22-.24.5-.05.67.06.48.31,3.82,2.57,7.4,5.77,3.58,3.2,5.63,5.85,6.04,6.24.37.35,2.36,2.99,3.45,4.45,1.09,1.47,4.55,6.08,4.78,6.47.38.62,2.47,3.79,3.46,5.31.99,1.52,1.72,2.77,1.91,3.06.24.36.94,1.69,1.88,3.3.93,1.61,2.71,4.41,3.62,5.91.91,1.5,3.61,6.17,3.95,6.75.34.58,3.4,6.54,4.84,9.4.93,1.81,2.04,3.53,3.32,5.12.28.38,1.82,2.68,2.19,3.22.2.3.98,1.36,1.16,1.61.37.5.76.98,1.15,1.47.35.46.71.91,1.06,1.37.45.61,2.16,2.83,2.59,3.32.4.46,1.07,1.23,1.92,2.16.85.93,1.68,2.03,2.57,3.14.89,1.11,1.54,1.99,1.88,2.38.42.49,1.57,2.15,1.77,2.46.08.12,2.17,3.17,2.4,3.54,1.73,2.49,4,6.98,4.11,7.2.2.41.37.83.56,1.24.23.49,1.41,3.59,1.84,4.54.34.76,2.54,7.67,3.19,9.96.65,2.29,3.14,12.01,2.09,24.2h0Zm-70.77,29.5c.03-.5.21-.6.68-.52.85.14,1.71.25,2.57.35.69.08,1.39.14,2.08.21.27.03.26.74.24,1.06-.09,1.16-.21,8.66-.26,9.05-.08.57.01.81-.54.86-.53.04-3.35-.47-4.08-.76-.55-.21-.43-2.13-.46-2.51-.06-.67-.24-7.54-.22-7.73h0Zm11.27,10.33c.07-1.65.17-4.15.21-4.3.16-.53,1.23-.29,1.75-.22,3.8.55,7.63.91,11.48,1.07,5.1.21,10.89.08,11,.08.23,0,.21.08.07.22-.24.24-5.95,3.1-6.28,3.24-.24.1-3.9,1.65-4.6,1.94-.36.15-5.11,2.19-8.79,2.11-2.76-.06-4.29-.88-4.76-1.03s-.12-2.36-.09-3.11h0ZM23.97,64.38c-.21-.25-.76-.94-1.83-.94s-2.06.79-2.32,1.99c-.08.32-.12.66-.11.99.02.36.03.91-.15.85-.48-.14-.76-.26-1.16-.76-.41-.5-1.33-1.92-1.27-3.27.06-1.35.1-2.03.52-3.63.42-1.59,1.12-2.63,1.68-3.18.27-.27,1.55-1.42,1.99-1.65.66-.35,1.33-.53,2.07-.47.54.05,1.89.15,2.92.99,1.03.85,1.25,2.03,1.48,3.06.25,1.13.32,2.29.23,3.44-.07.75-.36,2.04-.79,2.9-.37.73-.89,1.38-1.53,1.9-.21.19-.58.55-.96.69-.46.18-.4-.42-.31-1.13.09-.72-.19-1.44-.46-1.78Z"/>
  <path class="cls-3" d="m50.36,57.27c.37-.46.07-.81-.3-.95-.07-.02-.14-.03-.21-.02-.25.03-.36-.14-.38-.32,0-.07.72-.57.89-.8.19-.25.03-.69-.27-.73-.3-.04-1.33.41-1.6.14-.27-.27-.17-.38.03-.57.14-.15.27-.31.38-.48.07-.11.11-.25.1-.39-.01-.14-.07-.26-.16-.36-.21-.2-.41-.27-.65-.02-.22.22-.45.42-.7.6-.09.07-.28.12-.35.07-.12-.09-.19-.23-.21-.37-.01-.14.06-.29.11-.43.06-.17.15-.33.2-.51.14-.52-.05-.72-.55-.57-.16.06-.3.16-.42.27-.23.18-.44.39-.68.56-.1.04-.21.05-.31.01-.03-.01-.05-.17-.03-.25.03-.2.13-.4.12-.59,0-.17-.09-.42-.21-.47-.15-.07-.4-.03-.56.06-.16.08-.44.86-1.04.87-.6,0-.25-1.12-.86-1.11-.61,0-.59,1.03-.6,1.15-.03.38-.07.94-.47.9-.28-.02-.47-.46-.64-.93-.17-.44-.26-1.19-.7-1.13-.44.07-.57.61-.46,1.04.11.39.2.79.26,1.2.05.35.04.71-.25.99-.31.3-.51.26-.66-.14-.04-.09-.07-.19-.1-.28-.12-.25-.34-.38-.58-.28-.15.07-.33.29-.33.45-.02.41.03.81.15,1.2.18.52.09.9-.42,1.13-.09.04-.19.06-.28.1-.27.14-.43.32-.38.66.08.38.12.77.11,1.15-.03.48-.13.94-.73,1.09-.31.08-.36.29-.21.61.11.24.23.48.31.73.1.27.14.55-.13.75-.11.08-.19.18-.22.31-.04.12-.03.26.01.38.16.53.26,1.09.68,1.51.12.12.37,1.22.53,1.54.2.39,1.22,3.55,4.36,3.67,3.14.12,4.83-.95,6.27-2.21,1.44-1.26,1.88-2.64,2.09-3.69.22-1.06.3-3.46-.22-4.32-.25-.42-.17-.81.21-1.13.02-.03.04-.05.06-.08Zm-2.37,7.44c-.85,1.37-2.56,1.79-2.89,1.95-.1.05-.22.08-.34.09-.19.01-.34.05-.25-.29.1-.34.08-1.26-.12-1.84-.29-.85-.91-1.35-1.73-1.48-1.39-.22-2,.69-2.25,1.46-.25.76-.1.97-.14,1.26-.04.3-.24.42-.48.23-.21-.18-.4-.39-.54-.64-.23-.37-1.11-1.73-1.06-4.26.05-2.53.55-3.78,1.06-4.68.51-.9,2.05-3.04,4.96-2.62,2.91.42,4.42,3.95,4.58,5.54.17,1.6.03,3.91-.82,5.28Z"/>
  <path class="cls-3" d="m40.46,10.44c-1.95-1.6-5.7-3.38-6.32-3.63-.35-.14-.57-.05-.68.25-.11.29.05.5.15.71.28.58.74,1.49.92,1.81.14.26.92,1.69,1.19,2.14.43.69.9,1.35,1.36,2.02.17.24,1.21,1.79,1.6,2.3.44.57,1.97,2.67,2.55,3.12.58.46.99.66,1.27.23.28-.43-.07-.84-.42-1.27s-2.49-2.87-3.03-3.6c-.54-.73-1.93-2.74-2.09-3.03-.35-.62-1.26-1.8-1.13-2.2.12-.4.68.09.84.16.35.15,1.78.95,3.02,1.98.74.6,1.45,1.24,2.12,1.92.21.2.74.95,1.06,1.44.1.16.5.91,1.09.62.59-.28.07-1.01.01-1.13-.4-.77-1.8-2.46-3.49-3.85Z"/>
  <path class="cls-3" d="m50.18,49.56c-.35-.25-.75-.44-1.07-.71-.4-.34-1.81-1.05-2.07-1.17-.72-.33-1.39-.74-2.13-1.01-.52-.19-1.02-.49-1.51-.4-.47,0-.86.26-.93.55-.1.43.02.64.51.85,1.45.35,2.84.93,4.11,1.72,2,1.28,2.31,1.67,2.97,2.07.3.19.64.3.99.31.12,0,.25-.02.36-.08.11-.06.2-.15.26-.26.14-.26,0-.76-.22-.92-.41-.32-.83-.64-1.26-.94Z"/>
  <path class="cls-3" d="m12.94,21.85c.42.36.78.19.98-.32.18-.44.04-.74-.26-1.02-.3-.28-.61-.48-.89-.74-.48-.44-.94-.9-1.4-1.35-.43-.43-.86-.87-1.28-1.31-.18-.19-2.12-1.68-2.21-1.76-.47-.44-.94-.88-1.42-1.31-.17-.15-.75-.41-1.08-.1-.33.3-.34.59-.07,1.03.15.22.28.46.39.71.32.83.61,1.67.94,2.5.14.36.32.73.72.61.39-.12.29-.59.19-.96-.05-.19-.1-.38-.16-.57-.04-.13-.31-.53-.1-.66.22-.13.49.25.61.34.21.15,1.2,1.06,1.41,1.27.12.11.23.23.35.35.51.51,1.03,1.02,1.55,1.52.4.39.81.76,1.21,1.16.19.2.33.45.53.62Z"/>
</svg>