<?xml version="1.0" encoding="UTF-8"?>
<svg id="fore_ground" data-name="fore ground" xmlns="http://www.w3.org/2000/svg" viewBox="0 0 109 175">
  <defs>
    <style>
      .cls-1 {
        fill: #0e5256;
      }

      .cls-1, .cls-2, .cls-3 {
        fill-rule: evenodd;
      }

      .cls-2 {
        fill: #fff;
      }

      .cls-3 {
        fill: #fef065;
      }
    </style>
  </defs>
  <path class="cls-2" d="m88.66,56.6l-.9-2.71,3.49-1.37-1.06-.77.69-.83s5.85-2.38,6-2.47c.14-.09,4.93-3.41,4.93-3.41l2.64-2.12s.95-1.29,1.03-1.37c.09-.08,2.12-1.69,2.15-1.78.03-.09.43-2.01.43-2.01l-1.92-.26-3.93.66-6.05.29-6.31-.57-8.03-1.78-9.84-1.64-3.7-6.17-2.98-7-1.69-4.68-2.24-8.72-1.92-5.51-1.61-1.49-1.75.2-3.9,2.18-5.68,3.96-2.35,2.78-1.4,3.18s-2.47,8.09-2.47,8.18-2.3,8.86-2.3,8.86l-1.49,6.54-.95,5.33-3.82,3.76-1.18,5.11-.06,4.56-1.86,2.41-4.65,3.89-6.2,4.14s-3.44,2.64-3.59,2.72-3.44,1.64-3.44,1.64l-.4,1.09,1.37.46,8.63,1.26,7.69-.06,3.64-.34,1.32,2.21,3.01,4.1s1.89,1.55,2.15,1.55,1.75.17,1.75.17l4.02,3.56,4.56,1.46-2.75,2.35-3.9,4.39s-1.81,4.19-1.75,4.36c.06.17-.2,1.32-.09,1.26.11-.06,2.44-2.01,2.44-2.01l-.66,3.76s-.12,2.84.14,2.52c.26-.31,2.7-5.16,2.7-5.16l2.87-4.16s2.04-2.29,2.12-2.35c.09-.06,1.61-.8,1.61-.8l.49.34-1.69,2.56-2.32,3.5-1.58,3.96-.14,1.46,1.64-.49-.75,3.59s.43,3.38.29,3.21c-.14-.17-4.07-3.53-4.07-3.53l-3.33-3.01-2.58-2.18-1.35-.37-.83-1.98-.77-7.63s.37-4.13.37-4.22-.4-1.72-.4-1.72l-1.03-.09-.69.46-1.26,2.4s.2,3.13.03,2.9c-.17-.23-1.92-3.04-1.92-3.04,0,0-1.66-2.61-1.78-2.58-.11.03-2.41-2.21-2.41-2.21l-.86-.66-2.41-2.24-2.35-.29-1.84.86-2.44,1.52.23-1.21.92-2.12.4-1.66-.63-.57-1.49.98-.92,1.66-1.18,1.89-.66,1.84-.17,1.95.63,2.93s1.21.86,1.21.95.34,1.92.34,1.92l.97,2.12s5.13,7.2,5.22,7.23c.09.03.97,1.84.97,1.84l-.66.4.89,3.5,2.21,4.13,1.92,4.45s.77,1.95.63,1.95-3.1-.49-3.1-.49l-4.82-.46-2.61,6.89,2.81,14.83.14,2.7-.11,4.36-.6,4.04-1.75,2.7-2.26,2.44-2.07,1.58,1.06,2.12,2.78-.63,2.24-1.01,1.64.89,2.98-1.15,1.58-13.37s-.32-2.75-.26-2.9c.06-.14.6-1.61.6-1.69s.43-.72.43-.72l1.61,1.66,1.55,2.41.97,2.55,2.5,4.42,2.35,3.07,1.32,2.18.09,4.22-1.38,4.22-2.01,3.58s-3.47,1.58-3.7,1.64c-.23.06-4.62-.2-4.53-.14.09.06.92,2.46.92,2.46,0,0,6,.77,6.2.75.2-.03,4.19-2.46,4.19-2.58s2.18-5.48,2.18-5.48c0,0,1.84-5.11,1.92-5.25.09-.15.98-1.06.98-1.06l1.15-.43,1,.92,1,1.58s1.66,3.21,1.75,3.3c.09.09,3.33,2.04,3.33,2.04l2.98,1.46,3.15,1.63,1.75,1.2,1.92,4.04s.52,1.32.63,1.21c.12-.11,1.26-1.95,1.41-2.07.14-.11,4.82-5.11,4.82-5.11l8.86-9.75,4.56-2.12,1.86-1.43,4.65-5.65,1.89-4.65,1.72-5.91.77-5.31.32-7.29-.98-6.28-1.72-6.34-3.84-10.36-3.56-7.83s-2.52-4.68-2.5-4.76c.03-.09.66-1.03.66-1.03l9.9,10.67,4.39-1.21s.97-4.82,1-4.9c.03-.09-.6-1.75-.6-1.75l-2.44-1.15-2.24.06-.77.4-.57,5.57-2.87-2.87-5.99-6.8,1.06-.86,5.51-4.82,2.73-4.1,1.46-3.64.6-4.45.35-1.26.37-2.67-.72-4.12Z"/>
  <path class="cls-3" d="m81.89,25.87l-1.26.8-1.46,1.12-1.35,1.29-.46-.66-1.24-1.61-1.86-.69-.34.29-.37,1.06-1.41,3.13-.17,1.2.03,1.84.97,2.58-.69.6s-1.52,1.61-1.52,1.69-.57,2.7-.57,2.7c0,0,.08,1.92.14,2.07.06.14.54,3.24.69,3.21.14-.03,2.44-.37,2.44-.37l1.43-1.32s.86.86,1.06.95c.2.09,1.4.69,1.55.77.14.09,1.35.6,1.35.6l.77.29s.09-.52.12-.72c.03-.2.26-1.09.4-1.12.15-.03.54-.2.63-.03.09.17.75.8.86.83.12.03.49.46.66.46s.6-.17.6-.26.23-1.26.23-1.26l.46-1.95.23-.46s2.81.2,2.87.09c.06-.11.43-1.4.43-1.4l-1.63-2.7.06-2.58.63-1.12,1.86-.98.57-.37-.35-.86-1.72-1.18-2.67-1.52-1.78-.37-.12-.89s.17-1.92.17-2.15-.26-1-.26-1Z"/>
  <path class="cls-3" d="m37.4,51.34l-2.67.37-1.26,1.29-1.07,2.29-.6,3.99.17,2.04s.57-.8.77-.89c.2-.09,2.55-1.81,2.55-1.81l2.15-1.58,1.01-1.46.95-1.75,1.95,1.29-.8.83-1.23,1.18s-1.43,2.21-1.43,2.32-.32,1.43-.29,1.55-.06.54.06.46c.11-.09,1.09-1.26,1.09-1.26l.92-1.49,1.66-1.03-.37,1.29-.11,1.43-.2,1.18s.4.66.54.4c.14-.26.83-1.81.83-1.81,0,0,.49-1.26.66-1.35.17-.09,1.43-1.27,1.43-1.27l.46.17-.03,2.15.32,1.61s.6.86.6.72-.03-.8.09-1.06c.12-.26.32-1.49.4-1.61.09-.11.37-1.18.46-1.23.09-.06.52-.37.52-.37l.75.92.95.66,1.52,1.12,2.52.63.23-.86s-.06-1.49-.06-1.58-.12-1.89-.12-1.89l-.72-1.37s-.2-.48-.11-.48,2.47-.11,2.47-.11l2.35-.2,1.43,1.84,1.43.77s2.98.4,3.1.32c.11-.09,2.12-.66,2.12-.66l1.52-.23-.29-1.03-1.29-2.24-1.09-1.84s.23-1.41.32-1.43c.09-.03,1.81-2.26,1.81-2.26l.6-1.41.17-2.47-1.06-1.2-1.12.52-.98,1.12-2.47.49-2.26.72-.72-.03.09-1.26.4-2.81-.57-1.75-.57-.03-.29,1.35-1.12,2.26-.49,1.23s-.92,1.26-1.03,1.35c-.12.09-.95.86-.95.86l-.29-.72c-.06-.14-.52-1.86-.52-1.95s-.72-2.32-.72-2.32l-.23-.52-.92.52-2.35,1.23-1.58,2.09-1.38,2.21-.2,1.35-1.09-.89-1.81-1.52-1.81-.49-.43.26.2,1.29-2.26-.43-.03,1.37s-.11,2.01-.17,2.12c-.06.11-.43.8-.43.8Z"/>
  <path class="cls-3" d="m35.17,43.58l-.26-2.97-1.55-3.44-1.08-1.51-.99,1.89-.6-2.07-.95.95-.86,2.41-.21,2.54-.09,1.89-2.24-1.85-3.06-2.58-.43,1.37-.3,2.5-.21,2.71,1.68,3.4-1.59,1.37-.77.3-.52-1.42s-1.42-3.01-1.46-3.14c-.04-.13-1.68-2.54-1.68-2.54l-.65.86-1.55,3.5-1.03,3.1s.26,2.28.39,2.45c.13.17,2.07,2.58,2.07,2.58l-1.81.69-1.12,1.59-1.33,2.41-.73,2.11-.13,3.01.3,1.08,1.46-1.12s2.71-1.72,2.93-1.89c.21-.17,2.06-1.55,2.06-1.55l.65-.47.56,1.55,2.41,2.54,3.06.69h1.21l-.04-1.29-.39-1.85-.39-3.1-2.19-2.41.95-.6s1.76-1.42,1.89-1.46c.13-.04,1.33-2.23,1.33-2.23,0,0,1.33-.9,1.51-.9s2.62-.56,2.62-.56l1.46-2.93,1.07-2.93.6-2.67Z"/>
  <path class="cls-1" d="m76.75,36.71c1.01,1.78-.83,3.23-1.22,4.78-.22,0-.28.16-.57.09-.26-.28-.08-.55,0-.94,0-.15-.53.15-.66-.09-.22-.22.01-.46,0-.75-.32.1-.7.33-.94,0,.39-1.23,1.7-2.39,2.81-3,.14-.08.27-.09.57-.09Z"/>
  <path class="cls-1" d="m81.81,40.65c-.21.07-.37.2-.66.19-.17-.8-.57-1.37-1.22-1.69-.08.65.5,1.44.47,2.34-.24.04-.28.28-.57.28-.35-.75-.51-1.8-1.03-2.62-.35-.57-.72-.84-.09-1.5,1.72.31,2.79,1.28,3.1,3Z"/>
  <path class="cls-1" d="m47.41,48.24c.07.29.16.57.28.84.37-.06.19-.68.66-.66.57.06.32.77.28,1.22.46-.01.38-.56.66-.75.35-.07.46.11.47.38.35.04.24-.38.66-.28.81,1.92-1.6,2.76-2.81,3.56-.21-.32.2-.7.37-.94-.1-.24-.73.04-.84-.19.19-.97-.4-2.41-.09-3.19h.38Z"/>
  <path class="cls-1" d="m42.63,50.58c1.4.46,3.07,1.58,2.62,3.28-.49.05-.43-.44-.75-.57-.66-.25-1.4-.4-1.97-.75-.63.09-1.02-.31-.75-.84.8-.02,1.22.34,1.97.38-.27-.54-1.8-.61-1.12-1.5Z"/>
  <path class="cls-1" d="m54.63,52.18c.11.88-1.44,1.39-2.25,1.5-1.23.17-3.2-.04-3.28-.84.26-.64,1.05-.06,1.59,0,1.43.16,2.81-.21,3.66-.66h.28Z"/>
  <path class="cls-1" d="m37.38,52.65c-.38.58-1.09.59-1.59.94-.7.48-1.06,1.26-1.78,1.69,0,.28,0,.57-.28.57,0-.15.05-.36-.09-.38.11-.44.61-1,1.13-1.5.67-.67,1.57-1.77,2.62-1.32Z"/>
  <path class="cls-1" d="m47.69,53.77h.28c.61,1.27,2.4,1.85,2.16,3.66-.52-.05-.65-.15-1.22.19-.52-1.09-1.69-2.38-1.22-3.84Z"/>
  <path class="cls-1" d="m37.75,54.43c-.19.73-.89,1.18-1.41,1.59-.55.43-1.13.8-1.59,1.31-.15.32-.19.75-.56.84-.3-.38.09-.96.28-1.22.71-.96,2.1-1.72,2.81-2.62.08-.02.17-.02.25,0,.08.02.16.05.23.1Z"/>
  <path class="cls-1" d="m22.47,60.89c.12.41.55.51.47,1.13-.14.05-.24.14-.38.19-1.34-.62-1.33-2.61-1.78-4.12-.55.43-1.18.59-1.69,1.03-.58.5-.74,1.47-1.59,1.69-.46-.5.18-1.4.66-1.87.23-.23.68-.4,1.03-.66.37-.27.67-.63.94-.75.36-.16.75.07.94-.28.57.11.34,1.04,1.03,1.03.12.95.73,1.61,1.22,2.25.27.36.89.7.66,1.31-.86.04-.94-.69-1.5-.94Z"/>
  <path class="cls-1" d="m67.94,65.96c.15-.03.16.09.28.09.23,1.27.38,2.11.75,2.81.7,1.32,2.34,2.57,4.03,3.09,1.37.42,4.73.72,4.59,2.53-.08,1.08-1.88,1.59-3.19,1.97-1.39.4-2.79.71-4.22.94-2.14.35-4.28.75-6.66,1.13-2.32.36-6.01.46-7.59-.84.12-1.87,1.79-2.68,3.09-3.47.85-.52,1.71-.99,2.53-1.41.15-.66.43-1.31.66-1.97.21-.59.31-1.37.84-1.69.55.91-.03,2.11-.38,3-.6,1.56-1.78,1.86-3.28,2.81-1.07.68-2.06,1.21-2.53,2.16.58.67,1.78.77,2.81.84.81.06,1.63.06,2.44,0,2.47-.19,5.21-.86,7.78-1.31,1.26-.22,2.57-.42,3.75-.75,1.14-.32,2.36-.7,3-1.5-1.01-1.21-2.84-1.17-4.31-1.69-.95-.33-2.11-.98-2.81-1.59-1.12-.98-2.04-2.7-1.78-4.88.03-.12.16-.15.18-.28Z"/>
  <path class="cls-1" d="m40.66,113.49c-2.57-1.34-4.73-3.08-6.75-4.97.66,2,2.07,3.23,3.28,4.69,1.09.88,2.11,1.76,3.28,2.62.34.25.87.53.94,1.03-.67.11-1.25-.47-1.78-.84-2.51-1.75-4.99-4.12-6.56-7.12-.3-.58-.49-1.15-.75-1.97-.38-1.18-1.26-2.06-.19-2.81.08.06.18.1.28.09,1.47,3.48,4.01,5.85,7.12,7.78.45.28,1.41.68,1.12,1.5Z"/>
  <path class="cls-1" d="m68.87,28.65c.69-.93,1.05-2.12,1.88-3,.37-.39.85-.77,1.31-1.13.42-.32.91-.95,1.59-.66.18.82-.68,1.15-1.03,1.69-.69,1.06-1.14,2.93-.75,4.41.43-.28.53-.86.75-1.31.2-.42.49-.85.66-1.31.21-.58.18-1.27.47-1.87,2.1.28,3.34,1.41,4.03,3.09.53-.3.98-.72,1.31-1.22.6-.27,1.1-.65,1.59-1.03.46-.36.83-.87,1.41-1.13.68.41.72,1.92.57,3-.09.65-.6,1.11-.38,1.5.56,0,.43-.7.66-1.03.35-.49.91-.78,1.69-.84.35.26.07.67.09,1.13.58.04,1.39-.14,1.5.38-.03.81-1.21.47-1.59.94.78.74,1.83,1.14,2.72,1.78.83.6,1.76,1.23,2.16,2.25-1.11.48-2.57.62-3.28,1.5,1.57.17,2.75-.42,3.84-1.03.57-.32,1.05-.88,1.78-.84.46,1.39-.75,2.67-1.4,3.56,2.49.93,6,.31,9.28.47,1.47.07,2.66-.2,3.94-.38,1.59-.21,3.26-.86,4.78-.09.24,2.35-1.45,3.07-2.62,4.31-.61.64-1.09,1.36-1.69,1.88-2.5,2.15-5.21,4.39-8.44,5.72-1.6.66-3.31,1.23-4.69,2.34.44.39,1.08.29.94.94-.1.45-.91.3-1.5.47-.88.25-1.77.83-2.25.75.71,2.72,2.94,7.78.66,10.69.13,4.79-1.45,8.25-3.47,10.97-2.03,2.73-4.57,5.02-7.41,6.94.69.7,1.39,1.35,2.06,2.06,1.92,2.06,3.65,4.51,5.62,6.66.12-1.58.57-3.19.75-4.97,1.46-.67,2.95-.45,4.5.09,1.18.42,2.65,1.06,2.81,2.34.27,2.09-.13,4.32-.94,5.81-.85,1.58-1.83,2.8-4.5,2.44-1.43-.19-2.98-1.4-3.84-2.34-.6-.65-.98-1.65-1.59-2.44-.29-.38-.66-.65-.94-1.03-1.3-1.78-2.76-4.17-4.31-5.53-.09.41.19.78.38,1.13,2.05,3.89,3.86,8.18,5.81,12.47,2.72,5.98,5.12,12.65,5.91,20.53.59,5.94-.59,13.17-1.88,18.19-.27,1.06-.84,2.01-1.22,3-.78,2.06-1.62,3.92-2.91,5.53-1.25,1.57-2.66,2.96-4.03,4.41.93.25,1.82.13,2.72.19,4.39.27,7.3,2.58,9.94,4.69,1.55.57,3.03,1.38,4.78,1.97,2.59.87,5.26,1.25,7.41,2.44.33.18.62.45.94.66.29.19.77.27.84.66.16-.02.21-.16.19-.38.25.31-.14.98-.09,1.12-1.21.88-2.67-.83-3.66-1.31-.63-.31-1.45-.42-2.25-.66-2.09-.62-4.26-1.25-6.37-2.06-1.42-.54-2.71-1.02-3.85-1.88-.55-.42-1.03-.85-1.59-1.22-1.26-.83-2.6-1.62-4.31-2.16-1.04-.32-2.03-.35-3.19-.47-1.05-.11-1.76-.42-2.91-.28-.21.03-.5-.04-.66,0-.61.15-1.12.65-1.69.94-.58.29-1.17.48-1.88.75-.23.11-.18.51-.38.66-2.63,2.11-4.59,4.96-7.03,7.5-2.01,2.1-4.19,4.25-6.09,6.66-.53.66-1.12,1.18-1.31,2.25-.43.05-.58-.17-1.03-.09-.81-2.25-1.36-4.2-3-5.53-1.57-1.28-3.65-2.27-5.62-3.28-2.01-1.03-3.99-2.05-5.53-3.38-.88-1.78-1.65-3.66-2.91-5.06-.11.56-.57,1.12-1.12.94.06,4.23.55,10.31.09,15-.1.99.04,2.03-.47,2.81-1.39.07-2.54-.16-4.03-.28-.1-1.82.21-3.57,0-5.25-.83.68-1.38,1.57-2.06,2.34-1.49,1.7-2.95,3.01-6.09,3.28-1.84.16-3.25.12-4.88-.38-.74-.23-1.97-.2-2.62-.56-1.4-.78-1.13-2.85-1.03-5.16.03-.63-.08-1.24,0-1.69.25-1.29,1.24-2.66,2.63-2.63.65.02,1.28.52,1.87.84,1.06.58,2.24,1.29,3.94,1.31,2.44.03,3.9-1.16,4.97-2.63.94-1.29,1.37-2.6,1.59-4.41.13-1.08.25-2.76.84-3.47.04-.79-.03-1.47-.09-2.16-.47.39-.35,1.11-.94,1.22-.86.16-1.38-1.16-2.06-1.5-.81.14-.87.96-1.59,1.03-.56.05-.89-.65-1.5-.66-.69,0-.57.67-1.41.57-.58-1.79.57-3.94.94-6.09.2-1.19.36-2.36.57-3.47,0-.4-.41-.41-.47-.75-.06-.86-.38-1.23-.38-1.97-.7-1.58-1.51-3.05-2.53-4.31-.24.69.26,1.51-.1,2.16-.41.23-.75-.02-1.12-.09.16,1.56.2,3.17.28,5.06.12,2.72.58,5.28.47,7.87-.13,2.93-.63,5.84-.75,9-1.11.55-3.38.61-4.69.38-.16-1.29-.16-3-.19-4.59-.54.18-.56.82-.75,1.22-.55,1.13-1.33,2.52-2.44,3.37-1.08.83-3.72,1.58-5.81,1.97-.97.18-1.89.07-2.87,0-.27-.01-.54-.05-.81-.11-.39-.12-.76-.33-1.07-.6-.29-.23-.56-.51-.67-.86-.33-.99-.66-1.94-.83-2.98-.19-1.13-.51-2.52-.27-3.66.16-.76.53-1.83,1.32-2.14.54-.21,1.17-.04,1.72.04,1.1.49,2.13,1.27,3.66,1.12,1.65-.16,3.86-2.13,4.87-3.28,1.22-1.39,2.44-3.36,2.63-5.53.1-1.15.06-2.43.09-3.66.03-1.29.11-2.61-.19-3.84-.96,0-1.11.84-1.87.75-.85-.1-.82-1.31-1.59-1.78-.81-.22-.75,1.46-1.41,1.69-.9.32-.86-1.21-.84-1.59.03-.95.15-1.79.19-2.44.15-2.25.45-3.96.57-6.56.08-1.84.42-4.32.75-6.47.25-1.68.79-4.66,1.69-5.34.33-.25,1.02-.32,1.5-.57.6-.3.9-.65,1.78-.75,1.96-.22,4.53.64,6.84,1.03-.24-1.12-.82-2.11-1.22-3.19-.3-.81-.55-1.59-.94-2.44-.11-.24-.34-.4-.47-.66-.26-.51-.4-1.13-.66-1.69-.75-1.63-2.27-3.61-2.25-5.72-.09-.47.38-.37.47-.66-1.73-2.79-3.88-5.49-5.63-8.44-.47-.8-1.1-1.54-1.41-2.63-.11-.38-.03-.76-.19-1.12-.16-.38-.49-.54-.75-.94-.37-.55-1.05-1.85-1.13-2.72-.23-2.54.93-5.28,1.88-6.75.43-.68,2.46-3.45,3.75-2.81,1.23.61-.7,3.83-.94,4.78.7,0,1.16-.75,1.78-1.13.67-.4,1.46-.58,2.16-.94-.23-1.13-.37-2.48-.19-3.75-.78-.45-1.81-.26-2.81-.38-.87-.1-1.76-.36-2.62-.47-1.21-.15-4.67-.11-4.59-1.59.03-.66,1.84-1.42,2.34-1.69,2.73-1.45,4.99-3.01,7.03-4.97,0-.78.39-1.18.47-1.87-.76.02-1.32.68-1.87,1.12-1.15.94-2.34,1.54-3.66,2.63-.19.16-1.33,1.45-1.69,1.41-.65-.07-.65-2.7-.57-3.84.12-1.56.57-2.52.94-3.56-1.2-.64-1.79.79-3.37.38-.03-.5-.27-.8-.47-1.13.15-.41.33-.79.75-.94.14-.25-.25-.55.09-.84.83-.79,2.44-.23,2.06,1.31,1.95.85,2.13-1.5,3.09-2.25-.63-.55-1.67-.7-2.25-1.31-.81.41-2.56-.69-2.53-1.5.02-.61,1.36-1.5,2.06-1.5,1.1,0,1.86,1.11,1.31,2.44.71.59,2.11,1.37,3.09.84-1.02-1.2-2.15-1.91-2.25-3.84-.07-1.3.32-2.86.75-3.94.64-1.63,1.87-2.82,2.16-4.31.15-.76-.17-1.49.57-1.5.41,0,.93,1.34,1.22,1.78,1.13,1.73,2.6,3.45,2.91,5.91.43-.1,1.03-.84,1.59-1.13-.61-1.29-1.67-3.11-1.5-5.34.07-.99.4-1.93.57-3.09.07-.49.1-1.08.19-1.59.13-.71.1-1.17.66-1.13.39.03.43.67.75,1.13.47.67,1.29,1.18,2.06,1.88.72.66,1.43,1.37,2.16,1.78-.28-2.53.5-5.06,1.59-6.75.21-.33.43-.96.94-.84.48.18.26,1.06.57,1.41.56-.38.36-1.52,1.31-1.5.44-.03.16.65.38.84.73,1.71,1.71,3.17,2.34,4.97,1.15-4.79,1.93-10.09,3.28-15,.97-3.55,1.88-7,3-10.59.26-.83.68-1.63.94-2.44.09-.3.08-.65.19-.94.54-1.44,2.08-3.36,3.28-4.5.64-.6,1.66-1.17,2.62-1.88.91-.66,1.89-1.26,2.72-1.78,1.74-1.09,3.91-2.65,6-2.91.81-.1,1.57.51,1.97,1.03.71.92.86,2.38,1.5,3.28,1.2,4.31,1.9,8.67,3.28,12.66,1.36,3.95,3.04,7.61,4.68,11.15Zm-3.66-6.28c-1.76-4.28-2.91-9.08-4.22-13.69-.52-1.83-1.09-4.21-1.88-5.72-.38-.74-.84-1.63-1.5-1.78-.81-.18-1.73.68-2.44,1.03-1.94.98-3.95,2.11-5.53,3.28-1.12.83-2.3,1.64-3.28,2.62-1.58,1.58-2.57,3.05-3.38,5.25-.74,2.02-1.25,4.07-1.97,6.19-.46,1.37-.73,2.87-1.12,4.31-.78,2.84-1.45,5.61-2.06,8.62-.98,4.85-1.82,10.23-3.19,14.53.34-.02.36-.13.66,0,.41,1.06,1.21,1.72,2.16,2.25.42-.94-.37-2.16.19-2.72.62.25,1.54.22,2.16.47.08-.85-.68-1.4-.09-1.97,1.1.31,2.18.64,3.09,1.22.59.37,1.08,1.09,1.5,1.5.05.05.36.49.47.19-.47-1.52-.7-3.64.09-4.97-.8-1.05-.16-3.07,1.03-3.28.24.75,1.21.73,1.31,1.41s-.72,1.02-.75,1.88c-.32.12-.7.18-.94.38-.42.79-.74,2.47-.09,3.28,1.43-2.26,3.11-4.26,5.72-5.34.28-.22.36-.64.84-.66.57.3.27.92.38,1.41.26,1.26,1.08,2.51,1.03,4.03.28.1.54-.27.75-.47,1.16-1.08,2.06-3.22,2.62-5.06.22-.72.29-1.29.84-1.31.59-.02,1.03.96,1.12,1.59.24,1.63-.47,3.29-.28,4.5.69-.96,2.01-2.96,2.34-4.41.07-.3-.02-.94.19-1.13,1.09-.97,1.47.9,1.5,1.69.04,1.09-.37,2.03-.47,2.81.32.04.52-.04.75-.09-.03-1.37.43-2.06.84-3,.56-1.29.87-2.45,1.31-3.56.23-.56.27-1.45.94-1.59,1.07,2.43,2.25,4.75,3.94,6.56.22-.79-.38-1.26-.65-1.87-.24-.56-.4-1.32-.47-2.06-.08-.95.3-2.02.09-2.91-.11-.49-1.12-1.16-.19-1.59,1.16.59,1.63,1.87,3.56,1.69-2.73-4.1-4.91-8.58-6.94-13.5Zm13.31,8.81c.87-.51,1.54-1.2,2.72-1.41.16-.95.98-2.18.38-3.28-1.23,1.28-4.19,1.97-3.09,4.69Zm-4.22-4.59c-.34,1.73-1.7,3.44-1.87,5.53-.17,2.03.21,3.22,1.59,3.94.54-.08,1.56-.5,1.41.47-1.11.49-2.17.56-3,1.12-1.1.75-1.77,2.3-1.78,3.75-.01,1.39.65,2.87.66,4.41,2.19-1.29,4.9-1.84,5.53-4.5.11-.48-.02-1.29.66-1.5.87.33.28,1.1.09,2.06-.1.55-.24,1.21-.28,1.69-.19,1.95.82,2.56,1.97,3.37.24-.92.22-2.09.94-2.53.87.49,1.36,1.82,2.34,1.87-.18-.79.29-1.4.47-2.16.54-2.35-.12-4.7-1.31-6.09-.13-.12-.84.04-.94-.47-.18-.93,1.13-.43,1.41-.47,1.05-.15,2.23-1.1,3.19-1.78.9-.63,1.84-1.19,2.81-1.69-.38-.46-1.18-1.07-2.06-1.59-.74-.44-1.57-1.06-2.34-1.31-2.44-.8-5.5.7-5.15,2.81.47-.53.61-1.39,1.59-1.41.29.39.09.68,0,1.13.56,0,.88-.24,1.41-.28.28.23-.08.62.28.66.61.13,1.39-.28,1.5.19,0,.38-.21.54-.47.66-1.02-.27-1.8.25-2.72.38-.44.09-.31-.38-.75-.28-.37.13-.21.79-.84.66-.26-.11-.17-.58-.19-.94-.44.03-.52.29-.84,0,0-3.52-.15-7.08-3.28-7.69h0Zm-42.56,11.34c-.11.91.55,2.25-.57,2.44-.47-.4-.19-1.27-.28-1.97-.1-.65-.28-1.28-.57-1.87-1.25,1.5-1.46,4.11-1.22,6.84,1.02.98,1.71,2.29,2.62,3.37-.19-1.62-.79-2.83-1.12-4.31.18-.16.21-.47.66-.38.47.47.3,1.58.94,1.88.25-.62-.09-1.84.94-1.69.19.31.05.95.09,1.41.28.03.73-.1.75.19-.47,1.15-1.38,2.15-1.22,3.66-.1.39-.89-.05-.84.28.08,1.4-.54,2.76-.19,3.84.52-.74.99-1.78,1.41-2.91.38-1.04.92-2.19,1.12-3.28.15-.8.37-1.73.38-2.53,0-.18-.17-.34-.19-.57-.08-1.02.11-1.66-.19-2.44-.43-1.11-1.51-2.77-1.97-3.47-.03.51-.47.83-.56,1.51Zm-3.84,28.22c-.21-.19-.89-.96-.75-.57.17.26.39.48.47.84-.13.06-.17.2-.19.38-.97.4-2.46-.11-3.47-.28-.66.28-1,.9-1.59,1.31-1.01.7-2.32.79-3.47,1.41-.66-.89.07-2.08-.09-3.19-.79.18-1.25.94-1.87,1.41-1.33.99-2.83,1.71-4.31,2.44-.7.34-1.7.82-1.78,1.41,2.85.49,5.71.98,8.91,1.13.71-1.98,1.81-3.57,3.66-4.41.9.88.72,2.84.75,4.59,2.91.12,5.85-.1,8.25-.66,1.42-.32,2.86-1.11,3.85-1.59.33-.16.74-.2,1.03-.37.53-.32.87-.9,1.31-1.22,1.71-1.24,4.14-1.71,6.47-2.34,2.61-.71,5.43-1.39,8.25-1.97,4.16-.86,8.26-1.89,12.47-2.72,1.1-.22,2.23-.23,3.38-.38,1.09-.13,2.18-.38,3.28-.57,1.11-.18,1.83-.21,2.62-.47,2.7-.87,4.48-2.6,6.47-4.12,1.21-.93,2.59-1.49,3.94-2.06,1.41-.59,2.88-1.15,4.41-1.69-.34-.81.52-1.54,1.22-1.97,1.29-.78,2.72-1.13,4.03-1.69,1.34-.57,2.44-1.36,3.66-2.16,1.86-1.21,3.48-2.38,4.97-3.75.49-.45.81-1.07,1.31-1.59.89-.93,2.4-1.63,2.53-3.19-1.7-.31-3.62.23-5.62.47-1.11.13-2.15.09-3.19.09-1.68,0-4.12.23-6,.09-1.69-.12-4-.77-5.25.09.34.67.82,1.04,1.41,1.69.38.42,1.43,1.27,1.31,1.87-.08.45-1.03.69-1.59.84-1.54.42-3.34.48-4.78.19-.31,1.28-.65,2.49-.19,3.84-.93.64-2.02-.29-2.62-.75-.26-.2-.4-.73-.75-.47-.4.75.55,1.81-.28,2.16-.63-.14-1.24-.4-1.78-.75-.15-.1-.42-.71-.57-.28-.01.65.27,1.15.47,1.69.2.54.32,1.18.66,1.59.29.37,1.04.47.94,1.13-.55.41-1.31.1-1.88-.09-1.87-.63-3.67-1.83-5.06-2.81-.8-.05-2.17-.51-2.62.19.78,1.5,2.6,2.17,3.19,3.94.12.37.07.78.19,1.13.19.57.87.99.66,1.69-1.21-.03-2.53-.55-3.94-.84-1.24-.26-2.77-.58-3.28-1.78-.57-1.33.51-4-.57-5.34-.62.91-1.35,1.71-1.97,2.62,1.01.49,1.96,1.04,2.16,2.34-.38.34-1.31.13-1.78.38.49.92.92,1.81,1.59,2.53.32.34.97.49.94,1.12-.44.5-1.23.38-1.97.57-.61.15-1.25.51-1.87.66-1.79.41-3.68.21-5.34-.57-.26,1.11-1.37,2.35-2.53,1.69-.39-1.36-.88-2.62-1.59-3.66-.52-.04-1.3,0-1.59.19.96.96.42,3.03.75,4.69.1.49.46.84.38,1.31-.91.44-1.99.02-2.81-.28-.81-.3-1.6-.68-2.34-1.13-.7-.42-1.04-1.27-1.69-1.59-.27.73-.79,1.45-.84,2.44-.04.83.57,1.77,0,2.34-1.79-.56-2.04-2.65-1.97-5.06-1.56.98-1.58,3.48-3,4.59-1.18-.86-.46-3.52-.19-4.5-1.38.92-1.91,2.65-2.72,4.03-.26.45-.57,1.08-1.13,1.22-.56-.46-.2-1.33-.09-1.87.14-.68.27-1.43.47-1.97.72-1.91,2.39-3.41,3.56-4.69-.6-.09-.81-.57-1.41-.66-.42,1.03-.79,2.07-1.5,2.81-1.35,1.4-3.72,2.18-4.88,3.66-.5.65-.52,1.65-1.41,2.06-.63-.06-.25-1.13-.66-1.41-.58.91-1.6,1.98-1.68,3.37-.04.63.32,1.21,0,1.78-.13.02-.16.15-.28.19-.38-.11-.76-.42-1.13-.75Zm-3.75-17.91c1.66-.62,2.99-2.48,5.06-2.06-.06,1.01-.87,2.06-.66,3.66.7.14,1.09.6,2.06.47.85-1.72.34-3.14-.47-4.31-1.54-2.24-4.66-4.94-6.75-6.37-.75,2.91-1.15,6.63.75,8.62Zm59.81-5.72c.83-.14,1.85-.09,2.53-.38.06-.27-.36-.69-.66-.94-.5-.43-1.11-.77-1.78-.84h-.19c.06.69.13,1.37.09,2.16Zm-30.75,5.16c-.15.79-.55,1.32-.84,1.97.85-.4,2.06-.43,3.28-.47.07-.79.18-1.09.47-1.59.39-.67,1.12-1.28,1.31-1.88.11-.32.03-.83.09-1.22.21-1.26.64-2.39.28-3.94-.02-.07-.08-.11-.19-.09-.81,3.07-2.29,5.46-4.41,7.22Zm-1.78,1.97c.46-.65.97-1.64,1.12-2.44.39-1.98-.53-3.29-.94-5.16,0-.06-.01-.11-.09-.09-.74.39-1.31.65-2.06,1.22-1.27.97-3.62,3.4-3.66,4.97-.03,1.01.72,1.46.94,2.44-.34.32-.39.92-.94,1.03-1.32-2.15-2.32-4.62-5.16-5.25-.04,1.05,1.12,1.76.75,2.53-.82.16-.73-.58-1.12-.84-.66-.09-1.09-.41-1.87-.38-.15,1.85.09,3.11.47,4.12.13.36.19.78.28.94.85,1.56,3.1,1.88,4.97,1.88.67,0,1.75-.49,2.06.47-.96,1.31-1.94,3.96-1.03,6.09.1-1.58.77-2.92,1.22-4.03.15-.38.16-1.02.66-1.13.75.34.37,1.38.57,1.97.1.3.46.74.66.94.94.97,2.8,1.62,4.31,1.87-.21-1.36.1-2.78-.28-3.84-.26-.71-.84-1.05-1.12-1.59-.83.07-1.87-.64-.94-1.22,3.7,1.16,6.93-.62,8.15-3.09-.08-.17-.38-.12-.28-.47-1.49-.46-3.93-.82-5.34-.09-.85.43-1.25,1.51-2.34,1.5-.4-1.07.54-1.67,1.03-2.34h0Zm10.03,1.59c.53-.2,1.22-.49,1.69-.84.69-.53,2.26-2.47,2.62-3.28.52-1.18.28-2.27-.09-3.37h-.19c-2.65,2.23-8.5,1.26-9.19,5.44.73.17,1.25.57,1.97.47.25-.04.69-.43,1.22-.66.98-.41,1.89-.71,2.63-1.12.4-.23.95-.42,1.22-.66.27-.24.42-.89.66-.84.46.1.26.79-.09,1.22-.27.33-.92.56-1.22.75-.89.57-1.56,1.08-2.53,1.31-.07.35.16.4.09.75-.79.68-1.35,1.59-1.88,2.53,1.31.2,2.48.43,3.47.94.69.35,1.56,1,1.12,1.78-1.19-1.03-2.8-1.63-4.78-1.88.03-.29-.22-.45,0-.66-1.11.17-.63,1.15-.38,1.78.19.48.28.85.47,1.12,1.44,2.04,5.61.95,7.5.28-.62-1.33-1.78-3.21-3.28-3.75-.77-.27-1.9.21-2.53-.28-.05-.84.96-.82,1.5-1.02h0Zm-41.9,4.22c-.74-.92-1.78-2.15-1.97-3.75-.06-.47-.3-1.34.66-1.13.21.54.07,1.93.57,1.87-.21-.74-.16-2.04.66-2.06.22.57.03,1.23.09,1.87.14,1.27.65,3.27,1.5,3.28.15-.41.33-.92.66-1.31.53-.63,1.85-1.76,2.72-1.31.03.36-.24.57-.47.84-.16.19-.75.43-.38.57.49,0,1.03-.03,1.22.28-.57.79-1.81.46-2.62.94-.47.28-.45.81-1.03.84-.53-.29-1.01-.29-1.5-.75.07.48-.23.58-.38.84.24.14.71.04.57.57-.25.28-.74.32-1.22.38-1.04,1.49-2.58,2.49-4.87,2.72-.8,1.54-1.55,3.72-1.03,6,1.45-1.23,3.34-2.16,4.78-3.37.47-.39,1.14-.92,1.41-1.31.4-.6.1-1.56,1.13-1.69.02.07.08.11.19.09.13.83-.27,1.63,0,2.34.75,2.02,3.12,3.77,5.9,3.66-.54-1.63-.4-3.77-1.04-5.35-.06-.14-.29-.29-.38-.47-.32-.66-.45-1.15-.94-1.5-.53-.39-1.5,0-1.78-.84,1.57-.75,3.17-.73,4.22-1.87,1.77-1.93,1.14-5.97,1.78-8.72-1.14.1-1.98.97-2.91,1.59-1.4.94-2.78,1.73-3.38,3.28-.21.54.04,1.49-.75,1.78-.83-.37-.15-1.29,0-1.87.56-2.19-.91-4.7-1.78-6-.4-.6-.85-1.2-1.31-1.59-.74,1.78-2.52,4.26-2.72,6.75-.18,2.24,1.29,3.77,2.91,4.5.46-.52,1.11-.17,1.5-.09h0Zm47.43-8.72c.63.56,2.15.61,3,.19.06-.65-.35-.83-.66-1.13-.56.17-1.55-.3-2.25-.57-.18.36-.28,1.07-.09,1.5Zm-34.78,6.09c.24.13.14.61.47.66.48-.99,1.29-1.65,2.25-2.16-.35-1.02.07-2.82-.57-3.56-.76,1.64-1.31,3.5-2.15,5.06Zm4.22-.94c-1.49-.04-2.59.9-3.09,1.87-.08.36.41.15.28.57-1.06,1.56-1.49,3.76-1.5,6.37,1.13-.98,2.57-2,3.84-3,.47-.37,1.05-.64,1.41-1.03.71-.79,1.05-1.87,1.5-2.91-.49-.93-1.15-.17-1.78.38-.71.62-1.82,1.52-2.34,2.06-.22.19-.06.75-.57.66-.56-1.02.65-1.84,1.12-2.44.62-.3,1.22-.9,1.69-1.22.41-.28.93-.33,1.12-.75-.35-.52-1.15-.55-1.69-.57Zm-6.19,1.5c-.02-.07-.08-.11-.19-.09-.76.52-1.59.98-2.34,1.5-.46.93-1,1.71-1.88,2.25-.45.28-1.07.36-1.4.84.5.38.7,1.05,1.22,1.41,2.68-.83,4.21-2.79,4.59-5.91Zm55.87,1.31c.02.57.4.99.66,1.5.97,1.89,1.42,4.41,1.97,6.66.72-1.84.04-3.99-.47-5.81-.28-1-.49-2.06-1.03-2.72-.32,0-.7.23-1.12.38Zm-1.97,1.03c.58.91,1.33,1.28,1.78,2.16.83,1.58,1.09,4.4.75,6.09-.43,2.14-2.18,3.54-3.94,4.59-3.21,1.91-6.85,1.19-8.81-1.03-1.15-1.31-1.78-3.35-1.5-5.81-5.11.58-9.86,1.51-14.53,2.53,2.03,6.16-1.81,12.46-7.31,13.22-2.01.28-4.62-.27-6.38-1.41-.62-.4-1.3-1.14-1.88-1.78-1.18-1.32-1.85-2.85-1.69-5.34-1.1.08-1.73.99-2.53,1.5-.66.43-1.35.8-2.06,1.13-.51.23-1.11.24-1.5.75.94,2.85,2.59,5.38,4.5,7.22,1.35,1.29,2.34,2.24,3.94,3.28.69.45,1.36,1,1.97,1.31.4.2.89.28,1.31.47.12.06.26.24.38.28.23.07.65.02.94.09.31.08.65.19.94.28,3.81,1.18,8.58,1.62,13.03,1.5.52-.01,1.09-.04,1.59-.09,2.13-.22,4.31-.69,6.28-1.22,2.01-.53,3.89-1.37,5.44-2.16-.85-1-2.12-1.57-3.38-2.16-2.09.84-4.85,1.57-7.78,1.87-2.25.23-4.52-.03-6.56-.28-.54-.07-1.5.18-1.69-.57.24-.46.79-.3,1.22-.28.43.02.97.14,1.41.19,3.04.32,6.1.16,9.09-.47,3.06-.65,5.81-1.89,8.16-3.09.32-.16,1.06-.83,1.31,0-.06.57-.71.63-1.12.84-.45.23-.9.51-1.31.75.33.48.94.65,1.41.94s.91.73,1.5.84c3.65-2.29,7.44-5.85,9.38-9.94.3-.65.74-1.26.94-1.87,1.63-5.18-.23-10.93-1.88-15-.49.18-.96.4-1.41.66Zm-41.72-.37c-2.07.79-3.94,3.39-4.41,5.34,1.09-2.04,2.49-3.76,4.59-4.78.9.65-.4,1.67-.84,2.63-.43.93-.71,1.7-.75,2.62.36-.11.26-.49.38-.75.36-.79.8-1.55,1.31-2.25.68-.91,1.53-1.62,2.06-2.62-.76.04-1.9-.36-2.34-.19Zm40.03,2.91c1.1.14,1.84,1.25,2.06,1.97.69,2.21.18,4.51-1.22,5.81-.48.45-1.22,1-1.87,1.22-4.08,1.34-6.11-3.19-4.41-6,.34-.57.92-.73,1.22-1.41-1.45.74-2.93,1.45-4.78,1.78-.5,2.13,0,3.86.84,4.97.99,1.31,3.08,2.35,5.16,2.16,2.77-.26,5.98-2.7,6.38-5.16.44-2.68-.42-6.28-2.72-7.31-1.23.73-2.44,1.81-3.56,2.63-.38.28-.97.44-1.03.94.11-.24.41-.27.75-.28-.1.64.35,1.36.57,2.06.22.73.2,1.63.75,2.06.29-1.58.13-3.62.38-5.25.76,0,.77-.28,1.5-.18Zm-66.56-1.13c-.54.58-1.25,1-1.41,1.97,1.29-.24,2.36-.71,2.91-1.69-.6,0-.93-.26-1.5-.28Zm13.59.84c.19.12.94.18,1.13,0-.39-.11-.47-.53-.75-.75-.02.36-.4.36-.38.75Zm13.5,15.75c1.39,1.54,3.7,2.93,6.56,2.91,2.13-.02,3.9-.91,5.25-2.25,2.11-2.1,2.97-4.4,2.72-7.5-.07-.85-.34-2.49-.94-2.34-.51.13-1.03.22-1.69.38-.51.12-1.18.24-1.41.57,1.74,0,2.47,1.43,2.62,2.72.34,2.87-.96,5.51-3,6.47-5.03,2.36-9.25-4.66-5.06-7.69.44-.1,1.17-.39,1.03-.75-2.42.73-5.02,1.29-7.41,2.06-.35,2.49.14,4.14,1.31,5.43Zm7.78-7.87c.73,1.35.01,3.63.84,5.16.78-1.31.82-3.37,1.12-5.16.22-.16.4-.35.66-.47-.97.06-1.78.28-2.62.47Zm-18.37,6.94c.91,2.5,2.48,4.33,3.94,6.28.69.34,1.11.95,2.06,1.03-.73-1.1-1.86-2.07-2.62-3.37-.79-1.33-1.51-2.72-2.06-4.22-.49.04-1.04.02-1.31.28Zm-8.34.75c-.52,1.63-.96,3.36-1.78,4.69,1.25.34,1.65,1.68,2.53,2.44.26.23.66.27.94.47.47.34.88.94,1.31,1.41.94,1,1.81,2.02,2.53,3.09.37.55.51,1.31,1.12,1.69.4-2.25,1.1-4.62,3.56-4.5.99,1.28.49,2.91.38,4.41-.09,1.14,0,2.4.09,3.56.22,2.76.6,5.61,1.41,7.78,2.3.6,3.11,2.7,5.06,3.66-.07-2.04.23-3.71.66-5.25-1.11.76-1.56,2.21-2.91,2.63-.46-.65-.06-1.44.19-2.06.81-1.99,1.73-4.09,2.81-5.72,1.53-2.3,3.6-4.16,5.53-5.81-1.56-.67-3-1.24-4.41-2.16-.85-.55-1.81-1.09-2.53-1.69-.45-.37-.69-.95-1.22-1.13-.28-.1-.66.05-.94,0-.31-.05-.97-.3-1.31-.47-1.59-.79-2.63-2.48-3.56-3.94-.72-1.12-1.45-2.3-1.97-3.56-2.33.33-4.96.36-7.5.47Zm-8.06,2.06c-.91.7-1.6,1.36-2.25,2.34-1.26,1.9-2.47,6.2-.66,8.16.22-.89.39-1.69.66-2.53.26-.81.79-1.55.94-2.34.08-.44-.08-.95,0-1.41.12-.65.67-1.37.94-2.06.13-.36.26-.74.38-1.12.08-.26.49-.75.09-1.03h-.09Zm2.53,7.31c.55-.43,1.54-.67,2.34-.57,1.43,1.07,2.96,2.04,4.31,3.19-.49-1.73-1.74-2.69-1.78-4.87-.66-1-1.85-1.46-3.28-1.69-.07.51.58.29.57.75-.35,1.38-1.82,2.13-2.16,3.19Zm-2.71-1.59c-.17.21-.2.54-.38.84-.17.29-.45.48-.57.75-.4.93-.8,2.71-.84,3.66-.11,2.35.83,3.68,1.78,5.16,1.21,1.88,2.62,3.77,3.84,5.53.7,1,1.31,1.99,1.88,2.81,1.59.12,2.86,0,4.03-.47-.03-.4-.44-.75-.75-1.03-1.04-.94-2.19-1.7-3.19-2.72-.65-.67-1.26-1.32-1.97-1.97-.72-.66-1.5-1.41-1.97-2.06-.9-1.27-.16-2.72.84-3.66-.35-.46-.7-.92-.75-1.69.3-.38.85-.24,1.41-.19.93-.59,1.31-2,.38-2.81-1.96.85-3.19,2.93-3.09,5.53-.22.06-.43.13-.75.09-.51-2.31.38-4.41,1.31-5.91.77-1.22,1.97-2.01,2.53-3.28-1.55-.05-3,.5-3.74,1.41Zm8.81.66c1.01,2.49,2.45,4.95,3.84,7.03.4.6,1.56,1.44.94,2.16-.74.1-1.07-.69-1.41-1.13-.78-1.02-1.63-1.99-2.53-2.91-1.34-1.34-2.79-2.64-4.5-3.47.1.98.89,1.76,1.5,2.53,1.58,1.99,3.21,4.05,4.69,6,.27.35.78.93.38,1.41-.98-.05-1.55-.83-2.16-1.41-.6-.58-1.25-1.12-1.88-1.69-1.24-1.11-2.4-2.37-4.12-3,.84,1.66,2.28,3.04,3.56,4.5.62.72,1.27,1.41,1.97,2.06.27.24.73.69,1.03,1.03.28.31.79.8.28,1.22-1.05.01-1.45-1.16-2.16-1.78-.74-.66-1.67-1.23-2.53-1.78-.88-.57-1.81-1.3-2.91-1.31,2.1,2.48,4.66,4.56,6.94,6.75.79.76,1.7,1.37,2.44,2.16.79.84,1.21,1.94,1.97,2.81,1.01-.56,1.81-1.38,2.72-2.06.9-.68,1.85-1.34,2.62-2.16-.65-1.65-.91-3.6-1.12-5.62-.21-1.99-.62-4.03-.47-6,.09-1.21.74-2.71-.19-3.66-1.53.99-2,3.09-1.97,4.87,0,.52.43,1.33-.28,1.69-.9-.06-.73-.88-.94-1.41-.28-.7-.76-1.31-1.13-1.97-1.1-1.98-2.56-3.73-4.31-5.16h-.28c-.04.13-.11.15,0,.28Zm50.62,2.16c-1.76.98-4.16,1.81-6.66,2.44-2.61.66-5.28,1.04-7.97,1.13-.12.32-.13.74-.28,1.03,3.4.88,7.21-.11,10.03-.94-.25.69-1.19,1.14-2.06,1.41-2.56.78-6.1,1.02-8.44.28-.29.49-.67.9-.84,1.5,2.82.8,5.27.74,7.78,0,.86-.25,1.67-.71,2.44-1.13,2.26-1.23,4.4-2.18,5.91-3.94.45-.52.93-1.04,1.12-1.59-.34-.46-.7-.38-1.03-.19h0Zm-51.84,4.87c-.82-1.09-1.57-2.24-2.44-3.28-.44.12-.56.57-.75.94,1.01.77,2.23,1.83,3.19,2.34h0Zm49.03.19c-.78.45-1.75.73-2.62,1.22-.43.24-.72.56-1.12.75-.46.22-.93.41-1.41.57-1,.32-2.1.64-3.09.75-1.31.15-3.17.01-4.5-.37-.38-.11-.73-.3-1.03-.57-2.45,5.42-5.19,10.56-6.47,17.16,5.06-.89,9.68-2.49,13.12-4.88.4-.28.93-1.16,1.59-.66.08.65-.79,1.12-1.22,1.41-4.06,2.73-9.3,4.36-15,5.25.62.6,1.88.56,2.06,1.59-.36.48-.68.07-1.03-.09-1.17-.54-2.14-1.43-3.28-1.78-2-1.66-3.99-3.14-6.09-4.97-.46-.4-.91-.87-1.41-1.31-.47-.42-1.05-.75-1.59-1.22-.59-.51-2.13-2.56-3-2.53-.44.02-1.28.81-1.69,1.13-.59.46-1.04.87-1.59,1.31-.95.76-2.73,1.76-2.91,2.91-.08.54.28,1.84.47,2.62,1.06,4.35,2.49,8.29,4.78,11.15.97,1.21,2.1,2.4,3.28,3.09.22.13.63.37.84.38,1.08.95,2.38,1.69,3.75,2.34,4.26,2.03,9.29,3.26,15.47,2.72,2.31-.2,5.2-1.1,7.5-1.69.64-.16,2-.81,2.25-.28.21.44-.84.73-1.22.84-2.94.87-6.1,1.62-9.38,1.88-2.67.21-5.6.36-8.16-.28-.75-.19-1.5-.55-2.25-.75-2.62-.69-4.59-1.6-6.56-2.72-1.37-.78-2.61-1.51-3.66-2.53-1.01-.99-1.99-2.01-3-3.19-1.37-.35-2.6-.95-3.84-1.5-1.21-.54-2.49-1.19-3.94-1.22-1.76-1.13-5.07-1.54-7.41-1.5,3.81,3.77,6.33,9.55,8.53,15.09-.54-4.24,2.01-5.51,5.16-6.28,2.07-.51,3.77.09,5.53.84.79.34,1.45,1.01,2.25,1.31.48.18.96.22,1.41.38,1.39.49,2.49,1.27,3.75,1.88,4.54,2.19,8.88,4.9,13.03,7.31.31.18.93.34.84.84-.74,0-1.35-.53-1.97-.84-2.8-1.41-5.17-3.11-7.88-4.5-2.09-1.07-4.1-2.1-6.28-3,2.61,2.59,5.71,5.14,8.25,7.69.32.32,1.09.67.84,1.31-.5.04-.77-.47-1.03-.75-2.11-2.27-4.61-4.03-6.75-6.19-2.25-1.96-5.64-4.64-9.28-5.53-1.38-.34-2.97,0-3.84.47.51.54,1.24.83,1.78,1.31.6.54,1.49,1.43,1.69,2.16.03.13.14.02.19.09.44.67.77,1.29,1.12,1.97.45.86,1.02,1.68,1.5,2.53,1,1.76,1.7,3.69,2.53,5.53,1.66,3.68,3.75,7.1,6.19,9.94.51-.65,1.23-1.18,1.88-1.78.6-.56,1.22-1.5,2.16-1.41-.65,2.13-1.52,4.04-1.97,6.38.42.07.88-1.01,1.59-.66.17,1.46-.54,2.73-.38,4.12.17,1.39,1.19,2.76,1.97,3.94,2.37,3.62,5.27,6.9,6.66,11.06,1.01-.95,1.81-2.1,2.72-3.19.89-1.06,1.91-2.09,2.91-3.09,2.51-2.51,4.93-5.2,7.12-7.88.07-.08.62-.3.28-.47-3.63,1.56-9.38,3.28-14.25,2.06.44-1.17,2.27-.49,3.38-.47,1.86.03,3.54-.35,5.25-.75,3.18-.74,6.26-1.84,9.19-3.28,2.43-1.2,4.22-2.53,5.91-4.31,1.92-2.03,3.64-4.56,4.69-7.31,1.49-3.9,2.61-8.3,3-12.93.13-1.57.02-3.17.09-4.78.2-4.52-.75-8.25-1.69-12.19-.36-1.52-.87-3.04-1.41-4.5-.55-1.5-1-2.96-1.59-4.31-2.52-5.78-4.84-11.4-7.59-16.12,0-.06-.01-.11-.09-.09,0-.06-.01-.11-.1-.09-.97,1.42-2.34,2.54-3.94,3.45h0Zm-23.91-2.81c-.55-.08-1.32.79-1.69,1.13-.41.37-.82.76-1.22,1.13-2.4,2.18-4.41,5.59-5.44,8.62,1.41-1.43,2.74-2.98,4.03-4.41.43-.48.85-1.18,1.59-1.22.14.74-.45,1.18-.84,1.69-1.56,1.98-3.13,4.33-2.81,7.78,1.71-3.82,3.82-7.34,6.56-10.12.93-.94,1.9-1.97,3-2.63.54-.32,1.22-.43,1.59-1.03-1.8-.17-3.37-.74-4.78-.94h0Zm39.09.28c.24.84,1.34.99,2.16,1.22.9.25,1.88.51,2.72.38-.69-1.22-3.27-2-4.88-1.59h0Zm-33.56,1.5c-.43.35-.72.87-1.12,1.41-.37.49-.87.93-1.22,1.41-.73.99-1.4,2.15-2.06,3.19-1.43,2.26-2.8,4.76-3.28,6.94.5-.18.64-.73,1.41-.66.5,1.71-1.02,4.21-.57,6.28.08.34.53.79.66,1.03.12.22.08.36.19.47.25.25.72.27.94.57h2.25c.26-1.57.67-3.1,1.22-4.59,2.18-5.79,4.42-11.3,7.22-16.41-.39-.2-1.14-.05-1.69-.09-1.43,2.48-2.99,5.05-4.22,7.69-.62,1.34-1.24,2.55-1.69,3.94-.31.96-.54,1.71-.84,2.53-.13.35,0,1.09-.66,1.03.14-3.06,1.58-5.55,2.72-7.97,1.17-2.48,2.37-4.86,3.66-7.22-1.26-.29-2.16-.13-2.9.47h0Zm-35.81,2.06c.99.11,1.77.92,2.63.84-.67-.7-1.17-1.58-1.97-2.16-.15.51-.59.72-.66,1.31h0Zm26.72,7.22c-1.1,1.8-1.82,4.08-3,5.63,1.51,1.3,2.87,2.75,4.59,3.84-.29-1.72.02-3.4.38-4.97-.65.11-.87.63-1.69.57-.17-1.25.45-2.38.84-3.37,1.26-3.15,3.32-5.64,4.87-8.44-.01-.11-.03-.22-.19-.19-2.55,1.81-4.22,4.31-5.82,6.93h0Zm-14.06,13.97c-.3-.94-.63-2.02-.94-3.09-.42-1.44-.96-3.06-.57-4.31-.93-1.31-1.78-3.13-3.19-3.84-1.17,1.13-3.92.63-5.44.94.67,2.44,1.87,4.62,2.91,6.84s1.72,4.63,3,6.75c2.31.69,4.35,1.65,6.56,2.44-.58-1.8-1.68-3.62-2.34-5.72Zm-1.88,14.34c-.2.23-.39.95-.47,1.41-.45,2.49.47,5.6,1.12,7.03-.22-.03-.11.27-.28.28-1.01-.08-.97-1.22-1.59-1.69-.18.54.29,1.34-.38,1.5-.44-.03-.31-.63-.75-.66-.17.11-.07.49-.19.66.6,0,.63.56,1.03.75-.07.56-.82.43-.75,1.12.34.27.52-.4.94-.09.04-.58-.13-1.37.19-1.69.21-.22.36.03.66,0v.75c.14-.06.29-.07.43-.01.14.05.25.16.32.29-.03.69.14,1.58-.38,1.78-.4.13-.43-.32-.66-.09-.01.98.54,1.4.94,1.97.21-.84.36-1.98.47-2.62.57-3.54-.06-7.86,1.78-10.12.28-.12.58-.23.66-.57-.87-.66-2.47-.71-3.09,0Zm-3.38,3.28c.96-.18.38,1.18,1.13,1.22.03.62-.06,1.13-.57,1.22-.46.05-.36-.45-.75-.47-.05.72-.38,2.07.38,2.25,0-.41-.07-.88.28-.94.74.54.98-.43,1.22-.94-.49-1.1-.86-2.33-1.31-3.47-.02-.07-.08-.11-.19-.09-.07.4-.11.82-.18,1.22Zm-4.03,7.22c-.5.04-.69.67-1.12.75-.79.15-.97-.59-1.69-.47.16.01-.1.39,0,.66.84.77,2.18.17,2.91.09.65-.06,1.2.27,1.5-.09-.56-.56-.88-1-1.6-.94Zm7.41,4.03c-.07-.29.16-.28.09-.57h-.28c-.02.27.02.48.19.57Zm-9.75,1.59c.92.44,1.32-.82.84-1.5-1.05-.49-1.29.98-.84,1.5Zm22.78,3.56c.57-.12.79-.58,1.41-.66-.4-.44-.59-1.1-1.12-1.41-.11.68-.32,1.24-.28,2.06Zm-22.4-1.78c-.71-.01-.82.99-.57,1.69,1.41.57,1.63-1.67.57-1.69h0Zm23.9,1.78h.19v-.19h-.19v.19Zm.28,1.12c.27-.02.48.02.57.19-.04.63.32.86.19,1.59.29,0,.52.04.66.19-.39.93-.11,2.51-.57,3.38.29,0,.27-.29.66-.19.1,1.28.23,2.19.19,3.94-.19.15-.42.25-.66.28-.18.66.01,1.48.47,1.78.35-.26.66-.49,1.13-.19.22-.65.16-1.16,0-1.78-.24-.04-.68.05-.75-.38.38-.4.4-1.17.38-1.97-.06-.13-.36-.01-.38-.19.01-1.05.12-2,.38-2.81-.53-.06-.57-.94-.19-1.12.21.09.4.21.57.38.08.3-.15.29-.19.47.34-.07.47-.34.94-.28.09-.38.2-.45.09-.84-.25-.23-.33.29-.75.19-.89-1.08-1.56-2.38-2.63-3.28-.03.22-.15.35-.1.66Zm-25.78,2.06c1.19.04,1.96-1.25.94-1.88-.79.12-1.61,1.15-.94,1.88Zm29.25.09c.09-.22.32-.3.66-.28.15.72.16,2.96-1.12,2.16-.14.11-.15.35-.28.47.49,1.05.44,2.76.09,3.94.27.07.29.4.75.28-.06-.61-.99-3.03.28-3.37.21.07.12.44.37.47.25-.32-.28-.48-.28-.84.26-1.65,1.3-3.01,1.12-4.78-.51.61-1.61,1.14-1.59,1.97Zm-4.41,2.06c-.4.08-.84-.08-1.22.19-.19-.03-.18-.25-.38-.28.05.29-.17.33-.09.65.47.03.84.16,1.03.47-.25.21-.26.68-.38,1.03.43.51.62,1.26,1.22,1.59-.03-.29,0-.57.09-.84-.98-.46-.49-2.39-.09-3.09.25-.09.48-.21.75-.28-.07-.69.11-1.15.09-1.78-.37.06-.49-.14-.66-.28,0-.4-.16-.66-.09-1.12-.27.08-.24-.13-.47-.09.24.77-.36,1.37-.84.84-.06-.19.12-.62-.09-.66-.14.86-.4,2.1-.28,2.91.19-.62,1-.62,1.12-1.31h.47c.23.62.01,1.55-.19,2.05Zm-7.41-1.12c0,1.12.24,2.73.09,3.84,1.17-.07,2.3.38,3.38.09-.65-.51-1.67-.65-2.91-.56-.55-.69.24-2.49-.19-3.66-.02-.07-.08-.11-.19-.09,0,.19-.26.12-.19.38Zm-19.5,1.69c.78.11,1.91-.21,1.78-1.31-.91-.29-2.09.38-1.78,1.31Zm27.37,0c.28.13.58.12.75-.09.05-.46-.12-.69-.47-.75-.08.3-.28.47-.28.84Zm5.34.94c.23-.04.2.17.47.09-.04-.23.17-.2.09-.47-.22.09-.6.03-.56.38h0Zm-35.44,1.03c.76.72,1.99-.24,2.06-1.12-.76-.05-1.99.18-2.06,1.12Zm31.12-.57c-.29.27-.77.35-.94.75.32.92-.3,2.21.47,2.62.08-1.23.55-2.07.94-3-.27,0-.16-.4-.47-.37h0Zm4.5.18c-.14.2-.42.27-.66.38.07.51-.15.73-.09,1.22.35-.06.43-.38.94-.28-.1-.39.22-1.22-.18-1.31h0Zm-.38,4.78c.26.55.3,1.32.84,1.59.01-.88-.21-1.16-.38-2.06.18-.04.24-.2.47-.19.43.23.32.99.38,1.59.12.01.24.06.32.15.09.09.14.2.15.32.22,0,.28-.16.57-.09.15.53.43.94.65,1.41.55.03,1.11.64,1.31,1.31-.11.33-.53.34-.66.66.34.04.66.59.94.38-.21-.01-.2-.24-.19-.47.26-.02.65.08.66-.19-1.68-2.13-3.24-4.39-4.5-6.94-.3.74,0,2.07-.56,2.54h0Zm-1.31-.85c.16.8-.02,1.96-.66,2.25.28.03.73-.1.75.19-.05.07-.08.15-.1.22-.02.08-.01.16,0,.24.2.08.28.29.57.28,0-.25-.03-.54.09-.66-.48-.11-.4-.79-.47-1.31.2-.24.36-.08.57-.19-.23-.66.12-.91.19-1.5-.13-.02-.16-.15-.28-.19-.05.15-.14.29-.26.41s-.25.2-.41.25h0Zm-11.72,1.59c.23.02.29-.15.47-.19.1-2.51-1.92-.37-.46.19h0Zm9.84-.1c.02.32.28.41.57.47-.02-.3-.07-.56-.38-.57-.02.08-.08.11-.19.1h0Zm3.37,2.25c.44.06.57.42,1.03.47.02-.26-.08-.65.19-.66.47-.09.56.19.84.28.07-.29-.1-.34-.09-.57-.42.05-.74,0-.84-.28-.16.47-.91.34-1.12.76h0Zm-.75-.38c.1,0,.2.03.28.09.05-.29-.25-.35-.28-.09h0Zm-14.25,1.87c1.07.02,1.62-.92,1.41-1.88-1.06-.32-1.29.93-1.4,1.88h0Zm16.59-.66c.49.17.78.53,1.31.66-.01-.44-.02-.53-.09-.75-.44-.05-.82-.09-1.21.1h0Zm3.56,1.97c.28.13.64.67.94.47-.31-.16-.23-.71-.66-.75,0,.18-.31.07-.28.29h0Zm-22.4.65c.05.33.14.61.09,1.03,1.12-.01,2.16-.59,1.78-1.78-.78-.27-1.31.49-1.87.75h0Zm-6.38,1.5v.75c.44.55,1.61.43,1.88-.19-.45-.42-1.17-1.19-1.87-.56h0Zm3,.65c.54.4,2.18.5,2.25-.38-.45-.87-2.07-.56-2.24.38h0Z"/>
</svg>