<?xml version="1.0" encoding="UTF-8"?>
<svg id="white_cloud_5" data-name="white cloud 5" xmlns="http://www.w3.org/2000/svg" viewBox="0 0 1920 1080">
  <defs>
    <style>
      .cls-1 {
        fill: #f5fdff;
      }
    </style>
  </defs>
  <path class="cls-1" d="m2852.24,1817H-287.09c-9.68-237.24-31.77-706.36-43.66-709.12l11.98-3.4c-38.38-29.43-61.47-67.25-61.47-108.48,0-93.88,119.63-170,267.19-170,76.74,0,145.94,20.59,194.66,53.56,26.95-16.96,61.47-29.45,100.24-35.5.74-4.39,2.22-8.79,4.48-13.16,10.89-20.99,37.42-36.39,69.43-42.96-2.34-16.28.45-33.1,9.03-49.65,35.29-68.11,155.29-105.93,268.01-84.47,31.16,5.93,58.5,15.77,81.02,28.35,47.36-47.58,130.82-79.17,225.89-79.17,48.32,0,93.64,8.16,132.75,22.44,50.54-48.2,150.09-71.83,244.55-53.85,9.29,1.77,18.24,3.88,26.81,6.32,19.47-9.1,41.89-16.32,66.74-21.05,94.32-17.96,193.74,5.59,244.35,53.66,39.15-14.33,84.55-22.52,132.96-22.52,102.76,0,191.97,36.91,236.67,91.04,11.51-3.71,23.73-6.83,36.62-9.28,112.72-21.46,232.72,16.36,268.01,84.47,2.66,5.14,4.77,10.3,6.33,15.46,47.1-.28,90.93,17.91,105.73,46.49,2.39,4.61,3.9,9.26,4.6,13.88,64.34,10.02,116.93,37.74,142.73,74.06,27.17-5.91,56.34-9.12,86.68-9.12,147.57,0,267.19,75.89,267.19,169.51,0,45.56-28.33,86.91-74.43,117.36h0c14.83,121.37,59.22,451.14,84.24,635.13Z"/>
</svg>