<?xml version="1.0" encoding="UTF-8"?>
<svg id="white_cloud_4" data-name="white cloud 4" xmlns="http://www.w3.org/2000/svg" viewBox="0 0 1920 1080">
  <defs>
    <style>
      .cls-1 {
        fill: #e0f8fc;
      }
    </style>
  </defs>
  <path class="cls-1" d="m2119.15,1680H138.35c-6.11-237.24-20.05-706.36-27.55-709.12l7.56-3.4c-24.22-29.43-38.78-67.25-38.78-108.48,0-93.88,75.48-170,168.59-170,48.42,0,92.08,20.59,122.82,53.56,17.01-16.96,38.78-29.45,63.25-35.5.47-4.39,1.4-8.79,2.83-13.16,6.87-20.99,23.61-36.39,43.81-42.96-1.48-16.28.29-33.1,5.7-49.65,22.27-68.11,97.98-105.93,169.11-84.47,19.66,5.93,36.91,15.77,51.12,28.35,29.88-47.58,82.54-79.17,142.53-79.17,30.49,0,59.08,8.16,83.76,22.44,31.89-48.2,94.7-71.83,154.3-53.85,5.86,1.77,11.51,3.88,16.92,6.32,12.29-9.1,26.43-16.32,42.11-21.05,59.51-17.96,122.24,5.59,154.17,53.66,24.7-14.33,53.35-22.52,83.89-22.52,64.84,0,121.13,36.91,149.33,91.04,7.26-3.71,14.97-6.83,23.1-9.28,71.12-21.46,146.84,16.36,169.11,84.47,1.68,5.14,3.01,10.3,3.99,15.46,29.72-.28,57.37,17.91,66.71,46.49,1.51,4.61,2.46,9.26,2.9,13.88,40.59,10.02,73.78,37.74,90.06,74.06,17.15-5.91,35.55-9.12,54.69-9.12,93.11,0,168.59,75.89,168.59,169.51,0,45.56-17.88,86.91-46.96,117.36h0c9.36,121.37,37.37,451.14,53.15,635.13Z"/>
</svg>