<?xml version="1.0" encoding="UTF-8"?>
<svg id="white_cloud_2" data-name="white cloud 2" xmlns="http://www.w3.org/2000/svg" viewBox="0 0 1920 1080">
  <defs>
    <style>
      .cls-1 {
        fill: #e0f8fc;
      }
    </style>
  </defs>
  <path class="cls-1" d="m-471.62,1448H1974.01c7.54-237.24,24.75-706.36,34.01-709.12l-9.33-3.4c29.9-29.43,47.88-67.25,47.88-108.48,0-93.88-93.2-170-208.15-170-59.78,0-113.69,20.59-151.65,53.56-21-16.96-47.88-29.45-78.09-35.5-.58-4.39-1.73-8.79-3.49-13.16-8.48-20.99-29.15-36.39-54.09-42.96,1.82-16.28-.35-33.1-7.03-49.65-27.49-68.11-120.98-105.93-208.79-84.47-24.28,5.93-45.58,15.77-63.11,28.35-36.89-47.58-101.91-79.17-175.97-79.17-37.64,0-72.95,8.16-103.42,22.44-39.37-48.2-116.93-71.83-190.51-53.85-7.24,1.77-14.21,3.88-20.89,6.32-15.17-9.1-32.63-16.32-51.99-21.05-73.48-17.96-150.93,5.59-190.35,53.66-30.5-14.33-65.87-22.52-103.58-22.52-80.05,0-149.55,36.91-184.37,91.04-8.97-3.71-18.49-6.83-28.53-9.28-87.81-21.46-181.3,16.36-208.79,84.47-2.07,5.14-3.71,10.3-4.93,15.46-36.69-.28-70.83,17.91-82.37,46.49-1.86,4.61-3.04,9.26-3.58,13.88-50.12,10.02-91.09,37.74-111.19,74.06-21.17-5.91-43.89-9.12-67.53-9.12-114.96,0-208.15,75.89-208.15,169.51,0,45.56,22.07,86.91,57.98,117.36h0c-11.56,121.37-46.13,451.14-65.62,635.13Z"/>
</svg>