<?xml version="1.0" encoding="UTF-8"?>
<svg id="white_cloud_3" data-name="white cloud 3" xmlns="http://www.w3.org/2000/svg" viewBox="0 0 1920 1080">
  <defs>
    <style>
      .cls-1 {
        fill: #f5fdff;
      }
    </style>
  </defs>
  <path class="cls-1" d="m2175.69,1563H-160.48c-7.2-237.24-23.64-706.36-32.49-709.12l8.91-3.4c-28.56-29.43-45.74-67.25-45.74-108.48,0-93.88,89.03-170,198.83-170,57.11,0,108.6,20.59,144.86,53.56,20.06-16.96,45.74-29.45,74.59-35.5.55-4.39,1.65-8.79,3.33-13.16,8.1-20.99,27.85-36.39,51.67-42.96-1.74-16.28.34-33.1,6.72-49.65,26.26-68.11,115.56-105.93,199.44-84.47,23.19,5.93,43.54,15.77,60.29,28.35,35.24-47.58,97.35-79.17,168.1-79.17,35.96,0,69.68,8.16,98.79,22.44,37.61-48.2,111.69-71.83,181.99-53.85,6.91,1.77,13.57,3.88,19.95,6.32,14.49-9.1,31.17-16.32,49.67-21.05,70.19-17.96,144.17,5.59,181.83,53.66,29.13-14.33,62.92-22.52,98.94-22.52,76.47,0,142.86,36.91,176.12,91.04,8.56-3.71,17.66-6.83,27.25-9.28,83.88-21.46,173.18,16.36,199.44,84.47,1.98,5.14,3.55,10.3,4.71,15.46,35.05-.28,67.66,17.91,78.68,46.49,1.78,4.61,2.9,9.26,3.42,13.88,47.88,10.02,87.02,37.74,106.21,74.06,20.22-5.91,41.92-9.12,64.5-9.12,109.82,0,198.83,75.89,198.83,169.51,0,45.56-21.08,86.91-55.39,117.36h0c11.04,121.37,44.07,451.14,62.69,635.13Z"/>
</svg>