<?xml version="1.0" encoding="UTF-8"?>
<svg id="White_cloud_1" data-name="White cloud 1" xmlns="http://www.w3.org/2000/svg" viewBox="0 0 1920 1080">
  <defs>
    <style>
      .cls-1 {
        fill: #f5fdff;
      }
    </style>
  </defs>
  <path class="cls-1" d="m2009,1294H-238.81c-6.93-237.24-22.75-706.36-31.26-709.12l8.58-3.4c-27.48-29.43-44.01-67.25-44.01-108.48,0-93.88,85.66-170,191.32-170,54.95,0,104.49,20.59,139.38,53.56,19.3-16.96,44.01-29.45,71.77-35.5.53-4.39,1.59-8.79,3.21-13.16,7.79-20.99,26.8-36.39,49.71-42.96-1.67-16.28.33-33.1,6.46-49.65,25.27-68.11,111.19-105.93,191.9-84.47,22.31,5.93,41.89,15.77,58.01,28.35,33.91-47.58,93.67-79.17,161.74-79.17,34.6,0,67.05,8.16,95.05,22.44,36.19-48.2,107.47-71.83,175.1-53.85,6.65,1.77,13.06,3.88,19.2,6.32,13.94-9.1,29.99-16.32,47.79-21.05,67.53-17.96,138.72,5.59,174.96,53.66,28.03-14.33,60.54-22.52,95.2-22.52,73.58,0,137.46,36.91,169.46,91.04,8.24-3.71,16.99-6.83,26.22-9.28,80.71-21.46,166.63,16.36,191.9,84.47,1.91,5.14,3.41,10.3,4.53,15.46,33.72-.28,65.1,17.91,75.71,46.49,1.71,4.61,2.79,9.26,3.29,13.88,46.07,10.02,83.73,37.74,102.2,74.06,19.46-5.91,40.34-9.12,62.06-9.12,105.67,0,191.32,75.89,191.32,169.51,0,45.56-20.28,86.91-53.29,117.36h0c10.62,121.37,42.4,451.14,60.32,635.13Z"/>
</svg>