<?xml version="1.0" encoding="utf-8"?>
<!-- Generator: Adobe Adobe Illustrator 24.2.0, SVG Export Plug-In . SVG Version: 6.00 Build 0)  -->
<svg version="1.1" xmlns="http://www.w3.org/2000/svg" xmlns:xlink="http://www.w3.org/1999/xlink" x="0px" y="0px"
	 width="1889.79px" height="951.1px" viewBox="0 0 1889.79 951.1" style="enable-background:new 0 0 1889.79 951.1;"
	 xml:space="preserve">
<style type="text/css">
	.st0{display:none;}
	.st1{display:inline;}
	.st2{display:inline;stroke:#FFFFFF;stroke-width:6;stroke-miterlimit:10;}
	.st3{stroke:#FFFFFF;stroke-width:4;stroke-miterlimit:10;}
	.st4{stroke:#FFFFFF;stroke-width:3.979;stroke-miterlimit:10;}
	.st5{stroke:#FFFFFF;stroke-width:3.6048;stroke-miterlimit:10;}
	.st6{stroke:#FFFFFF;stroke-width:5.6441;stroke-miterlimit:10;}
	.st7{stroke:#FFFFFF;stroke-width:3.533;stroke-miterlimit:10;}
	.st8{stroke:#FFFFFF;stroke-width:2.7878;stroke-miterlimit:10;}
	.st9{stroke:#FFFFFF;stroke-width:2.7732;stroke-miterlimit:10;}
	.st10{stroke:#FFFFFF;stroke-width:2.5124;stroke-miterlimit:10;}
	.st11{stroke:#FFFFFF;stroke-width:3.9337;stroke-miterlimit:10;}
	.st12{stroke:#FFFFFF;stroke-width:2.4623;stroke-miterlimit:10;}
	.st13{fill:none;stroke:#FFFFFF;stroke-width:4;stroke-miterlimit:10;}
	.st14{fill:#FFFFFF;}
	.st15{fill:none;stroke:#FFFFFF;stroke-width:7.1316;stroke-miterlimit:10;}
	.st16{fill:#FFFFFF;stroke:#000000;stroke-miterlimit:10;}
	.st17{fill:#FFFFFF;stroke:#000000;stroke-width:1.056;stroke-miterlimit:10;}
	.st18{stroke:#FFFFFF;stroke-width:3;stroke-miterlimit:10;}
	.st19{stroke:#FFFFFF;stroke-width:2.7926;stroke-miterlimit:10;}
	.st20{fill:none;stroke:#FFFFFF;stroke-width:4.9789;stroke-miterlimit:10;}
	.st21{fill:#FFFFFF;stroke:#000000;stroke-width:0.6982;stroke-miterlimit:10;}
	.st22{fill:#FFFFFF;stroke:#000000;stroke-width:0.7373;stroke-miterlimit:10;}
	.st23{stroke:#FFFFFF;stroke-width:2.0945;stroke-miterlimit:10;}
</style>
<g id="Layer_2" class="st0">
	<rect x="-137.88" y="-932.03" class="st1" width="2180" height="3690"/>
</g>
<g id="Layer_4">
	<g>
		<path class="st3" d="M52.9,624.92l169.18-149.28c0.07-0.06,0.15-0.09,0.24-0.09h1469.72c0.09,0,0.18,0.03,0.25,0.1l159.07,149.28
			c0.24,0.22,0.08,0.62-0.25,0.62H53.14C52.8,625.55,52.65,625.14,52.9,624.92z"/>
		<rect x="54.43" y="626.55" class="st4" width="1796" height="119"/>
		<rect x="224.08" y="845.55" class="st5" width="87" height="200"/>
		<path class="st6" d="M307.97,1111.55l-0.17-294.59h18l-0.34,166l-16.89,129.28C308.41,1113.51,307.97,1113,307.97,1111.55z"/>
		<rect x="184.89" y="745.55" class="st4" width="136.23" height="100"/>
		<path class="st7" d="M321.32,844.49l-0.2-98.94h21l-0.39,55.75l-19.71,43.42C321.83,845.15,321.32,844.98,321.32,844.49z"/>
		<rect x="1574.07" y="845.55" class="st5" width="87" height="200"/>
		<path class="st6" d="M1577.17,1111.55l0.17-294.59h-18l0.34,166l16.89,129.28C1576.73,1113.51,1577.17,1113,1577.17,1111.55z"/>
		<rect x="1564.02" y="745.55" class="st4" width="136.23" height="100"/>
		<path class="st7" d="M1563.82,844.49l0.2-98.94h-21l0.39,55.75l19.71,43.42C1563.31,845.15,1563.82,844.98,1563.82,844.49z"/>
	</g>
</g>
<g id="Layer_3">
</g>
<g id="Layer_1">
	<g class="st0">
		<g class="st1">
			<g>
				<path class="st19" d="M592.2,386.99c-2.73,0.25-5.47,0.58-8.23,1l1.85-18.39c-0.53-10.56-3.97-18.54-13.97-21.96
					c-39.08-13.35-110.29-21.46-169.31-0.63c-6.59,2.33-12.97,12.02-12.44,22.58c0,0,4.02,17.02,1.22,25.68
					c-12.23,37.88,4.02,44.37,5.13,59.18c1.56,20.77,6.22,83.1,6.22,83.1c0.53,10.56,10.07,14.74,20.07,18.17
					c29.56,10.1,85.4,10.59,128.1,1.29c8.46-1.85,17.73-6.64,18.16-20.07l2.42-20.37c30.11-10.18,61.41-36.23,66.95-63.4
					C646.51,413.4,633.04,383.26,592.2,386.99z M615.85,446.43c-4.93,18.69-21.64,35.7-41.1,39.48l2.52-27.3l11.08-42.1
					c1.77-0.17-3.08-6.6-1.35-6.66C619.05,408.63,621.48,425.06,615.85,446.43z"/>
				<path class="st14" d="M403.93,361.13c4.42-8.37,5.57-11.24,55.38-18.38c2.15-0.31-61.78,17.73-23.96,10.31
					c8.4-1.65,34.08-6.21,56.25-5.55c54.49,1.62,72.98,7.31,76.75,13.12c3.34,5.15-41.83,17.21-89.64,17.56
					C430.9,378.55,401.23,366.25,403.93,361.13z"/>
			</g>
			<g>
				<g>
					<path class="st14" d="M592.25,413.97c-0.53-18.05,1.7-20.99-12.82-26.85c-16.38-6.61-56.66-4.88-76.05,0.65
						c-2.35,0.67-4.18,2.06-5.57,3.99c-11.49,7.69-22.06-0.08-22.06-0.08l0,0.15c-1.4-2-3.25-3.46-5.65-4.16
						c-19.37-5.64-59.63-7.57-76.05-1.05c-14.56,5.78-12.34,8.74-12.97,26.78c-0.21,6.16,0.96,55.34,44.54,62.83
						c17.93,3.08,37.19-6.62,48.05-34.36c1.01-2.58,2.56-7.96,3.81-14.38c0.11-0.31,0.2-0.63,0.3-0.96
						c6.74-21.69,14.48-8.81,17.38-2.59c1.28,7.97,3.19,14.94,4.36,18c10.71,27.79,29.91,37.61,47.86,34.62
						C590.99,469.31,592.43,420.13,592.25,413.97z M466.91,439.34c-9.08,22.71-25.18,30.66-40.18,28.13
						c-36.44-6.14-37.43-46.41-37.25-51.45c0.53-14.78-1.33-17.2,10.85-21.93c13.73-5.34,47.4-3.75,63.6,0.87
						C477.75,398.91,469.77,432.2,466.91,439.34z M546.66,467.79c-15.01,2.45-31.08-5.59-40.03-28.35
						c-2.82-7.16-10.62-40.49,3.23-44.36c16.22-4.53,49.9-5.94,63.6-0.53c12.15,4.8,10.28,7.21,10.73,21.99
						C584.34,421.58,583.13,461.85,546.66,467.79z"/>
				</g>
			</g>
			<g>
				<g>
					<path class="st14" d="M519.69,493.23c4.84-1.22,9.68-2.44,14.52-3.65c-7.8,1.7-15.6-2.36-22.5-6.39
						c-1.55-0.9-3.13-1.82-4.74-2.68c-1.73,1.16-4.23,2.26-7.72,3.23c-13.95,3.88-15.51,1.78-26.33-0.77
						c-1.88-0.44-4.19-1.52-6.17-2.96c-1.88,0.97-3.72,2.01-5.51,3.05c-6.92,3.99-14.73,8.01-22.53,6.27
						c4.83,1.24,9.66,2.48,14.5,3.73c-5.43,2.25-11.68,2.44-17.23,0.52c2.6,5.77,7.48,10.49,13.34,12.89
						c5.87,2.4,12.64,2.46,18.55,0.17c-3.02,4.45-7.08,8.21-11.77,10.87c7.35,0.32,14.79-2.49,20.08-7.61
						c-0.14,4.03-2.08,7.95-5.19,10.51c5.49-1.76,10.37-5.31,13.76-9.97c0.06,0.13,0.12,0.25,0.19,0.37
						c0.39-0.87,0.72-1.49,1.05-2.11c0.08-0.17,0.19-0.34,0.36-0.41c0.35-0.14,0.68,0.25,0.79,0.6c0.12,0.36,0.21,0.78,0.54,0.94
						c3.28,4.96,8.35,8.79,14.09,10.66c-3.09-2.58-5.02-6.51-5.14-10.54c5.26,5.14,12.69,7.99,20.04,7.71
						c-4.67-2.69-8.71-6.47-11.71-10.94c5.89,2.33,12.68,2.3,18.55-0.07c5.88-2.37,10.78-7.06,13.42-12.82
						C531.36,495.73,525.1,495.51,519.69,493.23z"/>
				</g>
			</g>
			<path class="st20" d="M474.11,431.15c-2.2,5.46,0.97,17.51-6.55,23.47c-6.82,5.41-8.7,12.93-8.7,12.93
				c-14.83,5.85,2.04,12.15,8.79,15.41c12.98,6.28,19.56,8.09,37.2,0.8c16.6-6.86,15.46-12.03,6.9-16.76c0,0-2-8.63-7.43-13.1
				c-7.81-6.43-4.73-17.66-6.64-22.68C494.84,423.72,477.11,423.69,474.11,431.15z"/>
			<circle class="st14" cx="432.59" cy="425.91" r="6.34"/>
			<circle class="st14" cx="539.93" cy="426.9" r="6.34"/>
		</g>
		<g class="st1">
			<g>
				<path class="st19" d="M851.81,370.97c2.73,0.19,5.48,0.47,8.24,0.84l-2.21-18.35c0.32-10.57,3.6-18.61,13.54-22.23
					c38.81-14.12,109.85-23.63,169.27-3.97c6.64,2.2,13.2,11.76,12.88,22.33l-9.27,168.17c-0.32,10.57-9.78,14.94-19.71,18.56
					c-29.35,10.68-85.17,12.27-128.05,3.82c-8.5-1.68-17.86-6.29-18.56-19.71l-2.82-20.32c-30.3-9.58-62.11-35.02-68.19-62.07
					C798.03,398.44,810.9,368.04,851.81,370.97z M829.34,430.86c5.3,18.59,22.33,35.26,41.87,38.66l-8.48-75.55
					c-1.78-0.14-3.53-0.22-5.26-0.25C825.39,393.13,823.28,409.6,829.34,430.86z"/>
				<path class="st14" d="M1039.53,341.41c-4.59-8.28-5.79-11.12-55.73-17.29c-2.15-0.27,62.12,16.51,24.16,9.84
					c-8.43-1.48-34.19-5.53-56.35-4.44c-54.45,2.69-72.83,8.75-76.47,14.63c-3.23,5.21,42.16,16.38,89.97,15.8
					C1012.91,359.35,1042.33,346.47,1039.53,341.41z"/>
			</g>
			<path class="st14" d="M1033.59,455.28c0,0,2.49-20.84,2.71-27.83c0.63-20.19-12.37-41.21-32.3-37.92
				c-19.36,3.2-45.46,10.3-88.76,2.38c-18.2-3.33-28.93,12.99-26.37,42.96c0.89,10.46,1.98,25.55,5.47,35.76
				c6.53,19.11,18.16,23.76,38.11,26.92c23,3.64,49.06,1.39,68.44-5.09C1020.05,486.06,1031.33,476.75,1033.59,455.28z"/>
			<polygon points="1005.17,441.38 940.21,414.26 946.44,479.97 			"/>
		</g>
		<g class="st1">
			<g>
				<path class="st19" d="M1462.17,370.87c-2.73,0.23-5.48,0.55-8.23,0.95l1.95-18.38c-0.47-10.56-3.87-18.56-13.85-22.03
					c-39.01-13.57-110.17-22.07-169.31-1.57c-6.61,2.29-13.03,11.95-12.56,22.51l11.66,168.02c0.47,10.56,9.99,14.8,19.97,18.28
					c29.5,10.26,85.34,11.06,128.1,2c8.47-1.8,17.77-6.54,18.28-19.97l2.53-20.36c30.16-10.01,61.61-35.9,67.3-63.03
					C1516.33,397.58,1503.03,367.37,1462.17,370.87z M1485.49,430.44c-5.03,18.66-21.83,35.58-41.31,39.25l7.41-75.66
					c1.77-0.16,3.53-0.27,5.25-0.32C1488.9,392.66,1491.25,409.1,1485.49,430.44z"/>
				<path class="st14" d="M1274.05,343.98c4.47-8.35,5.63-11.21,55.48-18.08c2.15-0.3-61.88,17.39-24.02,10.18
					c8.41-1.6,34.11-6.02,56.28-5.24c54.48,1.92,72.94,7.71,76.67,13.54c3.31,5.16-41.92,16.98-89.74,17.07
					C1300.92,361.54,1271.32,349.08,1274.05,343.98z"/>
			</g>
			<circle class="st21" cx="1301.01" cy="402.4" r="5.24"/>
			<circle class="st21" cx="1408.89" cy="408.09" r="5.24"/>
			<g>
				<g>
					<path class="st22" d="M1296.86,427.01c0,0,2.43,43.65,56.15,44.74c53.19,1.38,59.25-42.86,59.25-42.86L1296.86,427.01z
						 M1352.65,468.05c-42.75-0.87-50.37-37.16-50.37-37.16l101.1,2.62C1403.38,433.5,1402.58,465.83,1352.65,468.05z"/>
				</g>
			</g>
			<path class="st23" d="M1391.02,453.25c-20.44,11.61,1.78,57.29,1.78,57.29l-93.29-24.03c0,0,4.24-0.64,27.17-48.44
				C1333.78,423.27,1406.78,444.3,1391.02,453.25z"/>
			<path class="st23" d="M1308.66,433.22c16.15,1.79,34.35-0.64,51.71-0.35c-6.61,1-12.09,6.31-14.37,12.59s-1.68,13.35,0.53,19.66
				c2.21,6.31,5.93,11.98,9.89,17.37c-5.19-4.04-11.91-5.38-18.37-6.61c-10.2-1.94-20.47-3.88-30.86-3.83
				c-10.38,0.05-21,2.22-29.67,7.92C1286,464.05,1297.18,446.64,1308.66,433.22z"/>
			<path class="st23" d="M1335.78,431.75c20.03,0.07,42.13,1.54,62.08,1.61c2.37,14.59,8.77,30.14,21.48,37.7
				c-10.62,1.49-21.41-0.63-31.74-3.5c-10.33-2.88-20.48-6.54-31.07-8.25s-21.88-1.33-31.43,3.55
				C1333.97,454.9,1339.38,442.73,1335.78,431.75z"/>
		</g>
	</g>
</g>
</svg>
