<?xml version="1.0" encoding="utf-8"?>
<!-- Generator: Adobe Adobe Illustrator 24.2.0, SVG Export Plug-In . SVG Version: 6.00 Build 0)  -->
<svg version="1.1" xmlns="http://www.w3.org/2000/svg" xmlns:xlink="http://www.w3.org/1999/xlink" x="0px" y="0px" width="387px"
	 height="358px" viewBox="0 0 387 358" style="enable-background:new 0 0 387 358;" xml:space="preserve">
<style type="text/css">
	.st0{display:none;}
	.st1{display:inline;}
	.st2{display:inline;stroke:#FFFFFF;stroke-width:6;stroke-miterlimit:10;}
	.st3{stroke:#FFFFFF;stroke-width:4;stroke-miterlimit:10;}
	.st4{stroke:#FFFFFF;stroke-width:3.979;stroke-miterlimit:10;}
	.st5{stroke:#FFFFFF;stroke-width:3.6048;stroke-miterlimit:10;}
	.st6{stroke:#FFFFFF;stroke-width:5.6441;stroke-miterlimit:10;}
	.st7{stroke:#FFFFFF;stroke-width:3.533;stroke-miterlimit:10;}
	.st8{stroke:#FFFFFF;stroke-width:2.7878;stroke-miterlimit:10;}
	.st9{stroke:#FFFFFF;stroke-width:2.7732;stroke-miterlimit:10;}
	.st10{stroke:#FFFFFF;stroke-width:2.5124;stroke-miterlimit:10;}
	.st11{stroke:#FFFFFF;stroke-width:3.9337;stroke-miterlimit:10;}
	.st12{stroke:#FFFFFF;stroke-width:2.4623;stroke-miterlimit:10;}
	.st13{fill:none;stroke:#FFFFFF;stroke-width:4;stroke-miterlimit:10;}
	.st14{fill:#FFFFFF;}
	.st15{fill:none;stroke:#FFFFFF;stroke-width:7.1316;stroke-miterlimit:10;}
	.st16{fill:#FFFFFF;stroke:#000000;stroke-miterlimit:10;}
	.st17{fill:#FFFFFF;stroke:#000000;stroke-width:1.056;stroke-miterlimit:10;}
	.st18{stroke:#FFFFFF;stroke-width:3;stroke-miterlimit:10;}
	.st19{stroke:#FFFFFF;stroke-width:2.7926;stroke-miterlimit:10;}
	.st20{fill:none;stroke:#FFFFFF;stroke-width:4.9789;stroke-miterlimit:10;}
	.st21{fill:#FFFFFF;stroke:#000000;stroke-width:0.6982;stroke-miterlimit:10;}
	.st22{fill:#FFFFFF;stroke:#000000;stroke-width:0.7373;stroke-miterlimit:10;}
	.st23{stroke:#FFFFFF;stroke-width:2.0945;stroke-miterlimit:10;}
</style>
<g id="Layer_2" class="st0">
	<rect x="-61" y="-82" class="st1" width="2180" height="3690"/>
</g>
<g id="Layer_4">
</g>
<g id="Layer_3">
</g>
<g id="Layer_1">
	<g>
		<g>
			<path class="st3" d="M307.75,85.5c-3.91,0.37-7.83,0.86-11.78,1.48l2.54-26.36c-0.82-15.12-5.79-26.53-20.14-31.37
				c-56.06-18.89-158.11-30.09-242.52,0.1c-9.43,3.37-18.5,17.29-17.69,32.41c0,0,5.86,24.36,1.91,36.78
				c-17.29,54.34,6.03,63.53,7.7,84.73c2.35,29.75,9.41,118.99,9.41,118.99c0.82,15.12,14.51,21.06,28.85,25.9
				c42.39,14.29,122.38,14.66,183.5,1.09c12.11-2.7,25.36-9.62,25.9-28.86l3.35-29.19c43.07-14.76,87.75-52.26,95.52-91.2
				C385.69,123,366.23,79.92,307.75,85.5z M341.97,170.5c-6.95,26.79-30.78,51.26-58.63,56.79l3.45-39.11l15.62-60.36
				c2.54-0.26-4.45-9.43-1.98-9.54C346.33,116.34,349.92,139.85,341.97,170.5z"/>
			<path class="st14" d="M37.94,49.58c6.29-12.02,7.91-16.13,79.21-26.66c3.07-0.45-88.39,25.76-34.26,14.91
				c12.02-2.41,48.77-9.09,80.54-8.28c78.06,1.99,104.58,10.04,110.01,18.34c4.81,7.35-59.81,24.9-128.29,25.69
				S34.1,56.92,37.94,49.58z"/>
		</g>
		<g>
			<g>
				<path class="st14" d="M307.98,124.15c-0.87-25.85,2.32-30.07-18.53-38.38c-23.5-9.37-81.18-6.66-108.93,1.38
					c-3.36,0.97-5.98,2.98-7.96,5.75c-16.41,11.08-31.6,0.02-31.6,0.02l0,0.22c-2.01-2.86-4.68-4.93-8.12-5.92
					c-27.77-7.96-85.46-10.49-108.93-1.06C3.09,94.53,6.29,98.74,5.5,124.59c-0.27,8.82,1.71,79.26,64.16,89.74
					c25.71,4.31,53.24-9.71,68.62-49.5c1.43-3.7,3.62-11.42,5.37-20.62c0.15-0.45,0.29-0.9,0.43-1.37
					c9.52-31.1,20.69-12.7,24.88-3.82c1.88,11.41,4.65,21.37,6.36,25.75c15.5,39.75,43.07,53.69,68.76,49.3
					C306.5,203.41,308.27,132.97,307.98,124.15z M128.61,161.22c-12.87,32.59-35.89,44.07-57.39,40.54
					c-52.23-8.58-53.88-66.25-53.66-73.47c0.66-21.17-2.01-24.62,15.4-31.47c19.63-7.73,67.87-5.65,91.1,0.87
					C143.89,103.24,132.66,150.98,128.61,161.22z M243.01,201.51c-21.49,3.59-44.54-7.82-57.51-40.37
					c-4.08-10.23-15.46-57.94,4.36-63.56c23.21-6.58,71.44-8.8,91.1-1.13c17.43,6.8,14.77,10.26,15.5,31.43
					C296.69,135.09,295.21,192.77,243.01,201.51z"/>
			</g>
		</g>
		<g>
			<g>
				<path class="st14" d="M204.51,238.1c6.93-1.78,13.84-3.55,20.77-5.32c-11.17,2.49-22.35-3.29-32.26-9.01
					c-2.22-1.28-4.5-2.58-6.81-3.81c-2.47,1.68-6.04,3.26-11.03,4.67c-19.95,5.64-22.21,2.64-37.72-0.94c-2.7-0.62-6-2.15-8.85-4.2
					c-2.68,1.4-5.31,2.91-7.87,4.4c-9.89,5.75-21.05,11.56-32.24,9.11c6.93,1.75,13.86,3.5,20.79,5.26
					c-7.77,3.25-16.71,3.56-24.68,0.85c3.75,8.25,10.77,14.97,19.19,18.38c8.42,3.41,18.13,3.45,26.57,0.13
					c-4.3,6.4-10.09,11.79-16.79,15.64c10.53,0.41,21.16-3.66,28.71-11.01c-0.18,5.77-2.93,11.4-7.38,15.09
					c7.85-2.55,14.83-7.66,19.65-14.36c0.09,0.18,0.18,0.36,0.28,0.53c0.56-1.25,1.03-2.13,1.49-3.02c0.12-0.24,0.27-0.49,0.51-0.59
					c0.5-0.2,0.97,0.35,1.14,0.85c0.17,0.51,0.3,1.12,0.78,1.34c4.73,7.08,12.02,12.54,20.24,15.19c-4.45-3.67-7.22-9.3-7.42-15.07
					c7.57,7.33,18.22,11.37,28.75,10.93c-6.71-3.83-12.51-9.21-16.83-15.6c8.45,3.3,18.17,3.22,26.57-0.21
					c8.4-3.43,15.41-10.17,19.14-18.44C221.25,241.61,212.29,241.33,204.51,238.1z"/>
			</g>
		</g>
		<path class="st15" d="M138.87,149.44c-3.11,7.83,1.49,25.07-9.24,33.65c-9.74,7.79-12.38,18.57-12.38,18.57
			c-21.21,8.46,3,17.39,12.68,22.02c18.62,8.91,28.06,11.47,53.29,0.92c23.73-9.93,22.07-17.33,9.79-24.05
			c0,0-2.92-12.35-10.72-18.72c-11.23-9.16-6.88-25.27-9.64-32.45C168.52,138.68,143.12,138.75,138.87,149.44z"/>
		<circle class="st14" cx="79.37" cy="142.19" r="9.08"/>
		<circle class="st14" cx="233.12" cy="142.97" r="9.08"/>
	</g>
	<g>
		<g>
			<path class="st3" d="M307.75,85.5c-3.91,0.37-7.83,0.86-11.78,1.48l2.54-26.36c-0.82-15.12-5.79-26.53-20.14-31.37
				c-56.06-18.89-158.11-30.09-242.52,0.1c-9.43,3.37-18.5,17.29-17.69,32.41c0,0,5.86,24.36,1.91,36.78
				c-17.29,54.34,6.03,63.53,7.7,84.73c2.35,29.75,9.41,118.99,9.41,118.99c0.82,15.12,14.51,21.06,28.85,25.9
				c42.39,14.29,122.38,14.66,183.5,1.09c12.11-2.7,25.36-9.62,25.9-28.86l3.35-29.19c43.07-14.76,87.75-52.26,95.52-91.2
				C385.69,123,366.23,79.92,307.75,85.5z M341.97,170.5c-6.95,26.79-30.78,51.26-58.63,56.79l3.45-39.11l15.62-60.36
				c2.54-0.26-4.45-9.43-1.98-9.54C346.33,116.34,349.92,139.85,341.97,170.5z"/>
			<path class="st14" d="M37.94,49.58c6.29-12.02,7.91-16.13,79.21-26.66c3.07-0.45-88.39,25.76-34.26,14.91
				c12.02-2.41,48.77-9.09,80.54-8.28c78.06,1.99,104.58,10.04,110.01,18.34c4.81,7.35-59.81,24.9-128.29,25.69
				S34.1,56.92,37.94,49.58z"/>
		</g>
		<g>
			<g>
				<path class="st14" d="M307.98,124.15c-0.87-25.85,2.32-30.07-18.53-38.38c-23.5-9.37-81.18-6.66-108.93,1.38
					c-3.36,0.97-5.98,2.98-7.96,5.75c-16.41,11.08-31.6,0.02-31.6,0.02l0,0.22c-2.01-2.86-4.68-4.93-8.12-5.92
					c-27.77-7.96-85.46-10.49-108.93-1.06C3.09,94.53,6.29,98.74,5.5,124.59c-0.27,8.82,1.71,79.26,64.16,89.74
					c25.71,4.31,53.24-9.71,68.62-49.5c1.43-3.7,3.62-11.42,5.37-20.62c0.15-0.45,0.29-0.9,0.43-1.37
					c9.52-31.1,20.69-12.7,24.88-3.82c1.88,11.41,4.65,21.37,6.36,25.75c15.5,39.75,43.07,53.69,68.76,49.3
					C306.5,203.41,308.27,132.97,307.98,124.15z M128.61,161.22c-12.87,32.59-35.89,44.07-57.39,40.54
					c-52.23-8.58-53.88-66.25-53.66-73.47c0.66-21.17-2.01-24.62,15.4-31.47c19.63-7.73,67.87-5.65,91.1,0.87
					C143.89,103.24,132.66,150.98,128.61,161.22z M243.01,201.51c-21.49,3.59-44.54-7.82-57.51-40.37
					c-4.08-10.23-15.46-57.94,4.36-63.56c23.21-6.58,71.44-8.8,91.1-1.13c17.43,6.8,14.77,10.26,15.5,31.43
					C296.69,135.09,295.21,192.77,243.01,201.51z"/>
			</g>
		</g>
		<g>
			<g>
				<path class="st14" d="M204.51,238.1c6.93-1.78,13.84-3.55,20.77-5.32c-11.17,2.49-22.35-3.29-32.26-9.01
					c-2.22-1.28-4.5-2.58-6.81-3.81c-2.47,1.68-6.04,3.26-11.03,4.67c-19.95,5.64-22.21,2.64-37.72-0.94c-2.7-0.62-6-2.15-8.85-4.2
					c-2.68,1.4-5.31,2.91-7.87,4.4c-9.89,5.75-21.05,11.56-32.24,9.11c6.93,1.75,13.86,3.5,20.79,5.26
					c-7.77,3.25-16.71,3.56-24.68,0.85c3.75,8.25,10.77,14.97,19.19,18.38c8.42,3.41,18.13,3.45,26.57,0.13
					c-4.3,6.4-10.09,11.79-16.79,15.64c10.53,0.41,21.16-3.66,28.71-11.01c-0.18,5.77-2.93,11.4-7.38,15.09
					c7.85-2.55,14.83-7.66,19.65-14.36c0.09,0.18,0.18,0.36,0.28,0.53c0.56-1.25,1.03-2.13,1.49-3.02c0.12-0.24,0.27-0.49,0.51-0.59
					c0.5-0.2,0.97,0.35,1.14,0.85c0.17,0.51,0.3,1.12,0.78,1.34c4.73,7.08,12.02,12.54,20.24,15.19c-4.45-3.67-7.22-9.3-7.42-15.07
					c7.57,7.33,18.22,11.37,28.75,10.93c-6.71-3.83-12.51-9.21-16.83-15.6c8.45,3.3,18.17,3.22,26.57-0.21
					c8.4-3.43,15.41-10.17,19.14-18.44C221.25,241.61,212.29,241.33,204.51,238.1z"/>
			</g>
		</g>
		<path class="st15" d="M138.87,149.44c-3.11,7.83,1.49,25.07-9.24,33.65c-9.74,7.79-12.38,18.57-12.38,18.57
			c-21.21,8.46,3,17.39,12.68,22.02c18.62,8.91,28.06,11.47,53.29,0.92c23.73-9.93,22.07-17.33,9.79-24.05
			c0,0-2.92-12.35-10.72-18.72c-11.23-9.16-6.88-25.27-9.64-32.45C168.52,138.68,143.12,138.75,138.87,149.44z"/>
		<circle class="st14" cx="79.37" cy="142.19" r="9.08"/>
		<circle class="st14" cx="233.12" cy="142.97" r="9.08"/>
	</g>
</g>
</svg>
