<?xml version="1.0" encoding="utf-8"?>
<!-- Generator: Adobe Adobe Illustrator 24.2.0, SVG Export Plug-In . SVG Version: 6.00 Build 0)  -->
<svg version="1.1" xmlns="http://www.w3.org/2000/svg" xmlns:xlink="http://www.w3.org/1999/xlink" x="0px" y="0px"
	 width="398.17px" height="367.33px" viewBox="0 0 398.17 367.33" style="enable-background:new 0 0 398.17 367.33;"
	 xml:space="preserve">
<style type="text/css">
	.st0{display:none;}
	.st1{display:inline;}
	.st2{display:inline;stroke:#FFFFFF;stroke-width:6;stroke-miterlimit:10;}
	.st3{stroke:#FFFFFF;stroke-width:4;stroke-miterlimit:10;}
	.st4{stroke:#FFFFFF;stroke-width:3.979;stroke-miterlimit:10;}
	.st5{stroke:#FFFFFF;stroke-width:3.6048;stroke-miterlimit:10;}
	.st6{stroke:#FFFFFF;stroke-width:5.6441;stroke-miterlimit:10;}
	.st7{stroke:#FFFFFF;stroke-width:3.533;stroke-miterlimit:10;}
	.st8{stroke:#FFFFFF;stroke-width:2.7878;stroke-miterlimit:10;}
	.st9{stroke:#FFFFFF;stroke-width:2.7732;stroke-miterlimit:10;}
	.st10{stroke:#FFFFFF;stroke-width:2.5124;stroke-miterlimit:10;}
	.st11{stroke:#FFFFFF;stroke-width:3.9337;stroke-miterlimit:10;}
	.st12{stroke:#FFFFFF;stroke-width:2.4623;stroke-miterlimit:10;}
	.st13{fill:none;stroke:#FFFFFF;stroke-width:4;stroke-miterlimit:10;}
	.st14{fill:#FFFFFF;}
	.st15{fill:none;stroke:#FFFFFF;stroke-width:7.1316;stroke-miterlimit:10;}
	.st16{fill:#FFFFFF;stroke:#000000;stroke-miterlimit:10;}
	.st17{fill:#FFFFFF;stroke:#000000;stroke-width:1.056;stroke-miterlimit:10;}
	.st18{stroke:#FFFFFF;stroke-width:3;stroke-miterlimit:10;}
	.st19{stroke:#FFFFFF;stroke-width:2.7926;stroke-miterlimit:10;}
	.st20{fill:none;stroke:#FFFFFF;stroke-width:4.9789;stroke-miterlimit:10;}
	.st21{fill:#FFFFFF;stroke:#000000;stroke-width:0.6982;stroke-miterlimit:10;}
	.st22{fill:#FFFFFF;stroke:#000000;stroke-width:0.7373;stroke-miterlimit:10;}
	.st23{stroke:#FFFFFF;stroke-width:2.0945;stroke-miterlimit:10;}
</style>
<g id="Layer_2" class="st0">
	<rect x="-520.67" y="-54.14" class="st1" width="2180" height="3690"/>
</g>
<g id="Layer_4">
</g>
<g id="Layer_3">
</g>
<g id="Layer_1">
	<g>
		<g>
			<path class="st3" d="M320.86,95.59c-3.91,0.36-7.84,0.83-11.78,1.43l2.65-26.35c-0.76-15.12-5.69-26.56-20.02-31.45
				C235.73,20.11,133.72,8.5,49.19,38.35c-9.45,3.34-18.57,17.22-17.82,32.34l18.05,240.57c0.76,15.12,14.42,21.12,28.75,26.02
				c42.34,14.46,122.32,15.15,183.49,1.83c12.12-2.65,25.4-9.52,26.02-28.76l3.47-29.18c43.12-14.58,87.95-51.91,95.89-90.82
				C398.65,133.4,379.36,90.24,320.86,95.59z M354.74,180.72c-7.06,26.77-30.98,51.13-58.86,56.55l10-108.44
				c2.54-0.25,5.06-0.41,7.52-0.51C359.32,126.57,362.81,150.1,354.74,180.72z"/>
			<path class="st14" d="M51.19,58.58c6.33-11.99,7.97-16.09,79.32-26.34c3.07-0.44-88.49,25.41-34.32,14.77
				c12.03-2.36,48.81-8.89,80.57-7.96c78.06,2.31,104.54,10.46,109.93,18.78C291.47,65.2,226.78,82.49,158.3,83
				C89.82,83.52,47.32,65.9,51.19,58.58z"/>
		</g>
		<circle class="st16" cx="90.28" cy="142.04" r="7.5"/>
		<circle class="st16" cx="244.84" cy="149.32" r="7.5"/>
		<g>
			<g>
				<path class="st17" d="M84.53,177.32c0,0,3.83,62.5,80.78,63.63c76.2,1.55,84.51-61.86,84.51-61.86L84.53,177.32z M164.77,235.66
					c-61.23-0.9-72.45-52.82-72.45-52.82l144.83,2.93C237.15,185.76,236.27,232.08,164.77,235.66z"/>
			</g>
		</g>
		<path class="st18" d="M219.61,214.15c-29.18,16.79,3.01,82.04,3.01,82.04L88.8,262.52c0,0,6.06-0.94,38.53-69.6
			C137.38,171.67,242.11,201.2,219.61,214.15z"/>
		<path class="st18" d="M101.48,186.12c23.14,2.44,49.19-1.19,74.06-0.92c-9.46,1.48-17.27,9.13-20.49,18.15
			c-3.22,9.02-2.3,19.14,0.92,28.16s8.59,17.11,14.3,24.8c-7.46-5.74-17.11-7.61-26.37-9.31c-14.62-2.69-29.36-5.39-44.23-5.24
			s-30.06,3.35-42.44,11.58C69.27,230.46,85.15,205.44,101.48,186.12z"/>
		<path class="st18" d="M140.31,183.8c28.7-0.07,60.36,1.87,88.94,1.8c3.52,20.88,12.81,43.1,31.06,53.82
			c-15.2,2.21-30.68-0.72-45.5-4.76c-14.82-4.04-29.39-9.2-44.57-11.56c-15.18-2.37-31.35-1.73-44.98,5.34
			C137.91,216.97,145.55,199.5,140.31,183.8z"/>
	</g>
</g>
</svg>
