<?xml version="1.0" encoding="utf-8"?>
<!-- Generator: Adobe Adobe Illustrator 24.2.0, SVG Export Plug-In . SVG Version: 6.00 Build 0)  -->
<svg version="1.1" xmlns="http://www.w3.org/2000/svg" xmlns:xlink="http://www.w3.org/1999/xlink" x="0px" y="0px"
	 width="387.95px" height="335.38px" viewBox="0 0 387.95 335.38" style="enable-background:new 0 0 387.95 335.38;"
	 xml:space="preserve">
<style type="text/css">
	.st0{display:none;}
	.st1{display:inline;}
	.st2{display:inline;stroke:#FFFFFF;stroke-width:6;stroke-miterlimit:10;}
	.st3{stroke:#FFFFFF;stroke-width:4;stroke-miterlimit:10;}
	.st4{stroke:#FFFFFF;stroke-width:3.979;stroke-miterlimit:10;}
	.st5{stroke:#FFFFFF;stroke-width:3.6048;stroke-miterlimit:10;}
	.st6{stroke:#FFFFFF;stroke-width:5.6441;stroke-miterlimit:10;}
	.st7{stroke:#FFFFFF;stroke-width:3.533;stroke-miterlimit:10;}
	.st8{stroke:#FFFFFF;stroke-width:2.7878;stroke-miterlimit:10;}
	.st9{stroke:#FFFFFF;stroke-width:2.7732;stroke-miterlimit:10;}
	.st10{stroke:#FFFFFF;stroke-width:2.5124;stroke-miterlimit:10;}
	.st11{stroke:#FFFFFF;stroke-width:3.9337;stroke-miterlimit:10;}
	.st12{stroke:#FFFFFF;stroke-width:2.4623;stroke-miterlimit:10;}
	.st13{fill:none;stroke:#FFFFFF;stroke-width:4;stroke-miterlimit:10;}
	.st14{fill:#FFFFFF;}
	.st15{fill:none;stroke:#FFFFFF;stroke-width:7.1316;stroke-miterlimit:10;}
	.st16{fill:#FFFFFF;stroke:#000000;stroke-miterlimit:10;}
	.st17{fill:#FFFFFF;stroke:#000000;stroke-width:1.056;stroke-miterlimit:10;}
	.st18{stroke:#FFFFFF;stroke-width:3;stroke-miterlimit:10;}
	.st19{stroke:#FFFFFF;stroke-width:2.7926;stroke-miterlimit:10;}
	.st20{fill:none;stroke:#FFFFFF;stroke-width:4.9789;stroke-miterlimit:10;}
	.st21{fill:#FFFFFF;stroke:#000000;stroke-width:0.6982;stroke-miterlimit:10;}
	.st22{fill:#FFFFFF;stroke:#000000;stroke-width:0.7373;stroke-miterlimit:10;}
	.st23{stroke:#FFFFFF;stroke-width:2.0945;stroke-miterlimit:10;}
</style>
<g id="Layer_2" class="st0">
	<rect x="-60.05" y="-466.09" class="st1" width="2180" height="3690"/>
</g>
<g id="Layer_4">
</g>
<g id="Layer_3">
</g>
<g id="Layer_1">
	<g>
		<g>
			<path class="st3" d="M96.49,77.47c3.89,0.53,7.79,1.18,11.71,1.95l-1.47-26.44c1.43-15.07,6.86-26.28,21.4-30.53
				C184.9,5.85,287.31-1.2,370.44,32.38c9.29,3.75,17.79,18.03,16.36,33.1l-28.74,239.53c-1.43,15.07-15.35,20.45-29.88,24.71
				c-42.94,12.56-122.87,9.7-183.39-6.34c-11.99-3.19-24.95-10.64-24.71-29.89l-2.16-29.31c-42.43-16.49-85.56-55.77-91.75-94.99
				C17.09,111.78,38.29,69.52,96.49,77.47z M58.85,161.01c5.86,27.05,28.68,52.46,56.28,59.12l-5.17-108.77
				c-2.53-0.36-5.03-0.64-7.49-0.84C56.69,106.71,52.15,130.06,58.85,161.01z"/>
			<path class="st14" d="M367.54,52.5c-5.79-12.26-7.25-16.43-78.07-29.84c-3.05-0.58,87.28,29.32,33.63,16.29
				c-11.91-2.89-48.36-11.06-80.14-11.53c-78.08-1.17-104.9,5.8-110.66,13.87c-5.1,7.15,58.76,27.3,127.15,30.86
				S371.08,59.99,367.54,52.5z"/>
		</g>
		<path class="st14" d="M348.57,214.72c0,0,5.48-29.56,6.44-39.53c2.76-28.8-13.89-60.05-42.67-57.18
			c-27.97,2.79-65.93,10.53-127.09-4.77c-25.71-6.43-42.54,15.9-41.65,58.98c0.31,15.04,0.48,36.71,4.53,51.61
			c7.58,27.92,23.77,35.64,51.99,41.99c32.55,7.32,69.99,6.5,98.29-0.98C326.38,257.47,343.36,245.21,348.57,214.72z"/>
		<polygon points="298.09,195.56 209.13,148.11 209.13,242.64 		"/>
	</g>
</g>
</svg>
